<svg xmlns="http://www.w3.org/2000/svg" width="89.877" height="100">
    <path d="m0 0-.166.475-.139.248.053-.012-.146.419s6.113-.732 6.71.134l.25-.563q.047.018.092.038l.088-.421-.008-.002.11-.25S2.525-.598 0 0m-.199 2.924s-.008.204.006.472l-.086-.001c-.133.039.023.394.16.654.064.331.18.634.385.735 0 0 4.984-1.328 5.316-1.063l.07-.242c.385-.265.282-.662.282-.662l-.094.026.074-.251ZM-5.59-21.029l.377.839s.617 1.533-.576 3.81l.289 2.889 1.025.515.004-.049s1.229-6.592 6.227-7.542l.435-.297.383.419c.014-.003.028 0 .043 0 .028.021.063.038.092.056.09.237.637 2.054.674 8.964l.041.002c.133-3.006.334-6.204.638-8.822q.02.009.042.01l.183-.331s.195.016.522.089a1 1 0 0 1 .556.16c1.719.566 4.957 2.404 5.631 8.263v.016l1.104-.025.207-1.637.562-.384.225-2.044.279-.124 1-1.055 1.391-.488s-2.102 4.43-1.575 4.863c0 0-.738 3.502-3.136 3.91-.063 1.156-.252 2.321-.731 2.847l-.021.059 1.133.05.498 1.251.732-1.202 1.084.321-.152-2.874c.004.037.047.184.57-.533l.58-.793 1.002-1.054-.09-1.1.399.291.849-.649-.195 1.364s-.676-.169-.561.247c.123.416-1.625 6.092-1.625 6.092l-1.24.22.529.434-1.277 1.041-.387-.566-2.732-.115-.895 1.741L9.98-.792l.079 1.373 1.388-.487.241.829.333 1.796-.552.113.068 1.644-.842 3.66-.357-1.245-.084-1.238-.545-.024.307-.808s.08-1.912-.578-2.486l-.11-.691L7.217.147l-.11.177.174 1.233.256.422-.299.534-.695.246-.443.801 1.218.327-.57.524.647.847 4.222 7.027s-3.242 2.189-3.838 6.54c0 0-2.584-3.665-3.845-2.9l1.296-1.586-.607-1.805 2.164.639.434-.527-1.565-1.847.684.029.672.303.558-.25-1.675-2.535-.178.949-.926-.724-.045 1.093-.297.534-.4-.29.043-.957-.451.94-1.075-.457-.171.816-.809-.312-.4-.288-1.446 1.855 1.959-1.011-1.168 1.729.801.446.979-.508-.891 1.742 1.494.201 1.481.61-2.971 2.337-.197 1.362-.756-1.537-3.977-3.046s-1.396.628-1.234.085l.158-.54-.107-.687.945.314 1.955-4.162.744-1.477L.096 6.319l-1.092-.048.305-.671.304-.807-.232-.969.017-.409.172-.814-.828.099.172-.81.594-1.445a2.5 2.5 0 0 1-.635-.249L-1.158.12l-.99 1.039-.53-.434-.707.518.569 2.763-.555.113.09 1.095 1.246-.216-.209 1.633-.069 1.64-.781-.991s-1.91-3.368-1.482-3.76-1.131-2.376-.567-2.766c.565-.385 1.52-.342 1.52-.342l-.385-.566.455-1.075 1.026-1.599.144-.866-.459-.401-.037-.053L-3.9-2.747s-.37-.974-.774-1.129c-.402-.154-1.748-.76-1.748-.76l-1.131-2.372-1.008-2.097-1.027-1.548.438-.667.802.442.383.703.539.157.084 1.239.776 1.128.584-.801 1.24 3.066.978-.556c-.461-1.126-.916-2.668-.923-4.324-.575-.581-1.309-1.194-1.309-1.194l-.346-1.522-.586.936-.109-.69-.955-.038.166-3.963.709-.518 1.474-2.543L-6-21.044Z" style="fill:#9a7fc7;fill-opacity:1;fill-rule:nonzero;stroke:none" transform="scale(1.67927 -1.67927)rotate(30 66.43 28.11)"/>
    <path d="m0 0-.166.475-.139.248.053-.012-.146.419s6.113-.732 6.71.134l.25-.563q.047.018.092.038l.088-.421-.008-.002.11-.25S2.525-.598 0 0Zm-.199 2.924s-.008.204.006.472l-.086-.001c-.133.039.023.394.16.654.064.331.18.634.385.735 0 0 4.984-1.328 5.316-1.063l.07-.242c.385-.265.282-.662.282-.662l-.094.026.074-.251ZM-5.59-21.029l.377.839s.617 1.533-.576 3.81l.289 2.889 1.025.515.004-.049s1.229-6.592 6.227-7.542l.435-.297.383.419c.014-.003.028 0 .043 0 .028.021.063.038.092.056.09.237.637 2.054.674 8.964l.041.002c.133-3.006.334-6.204.638-8.822q.02.009.042.01l.183-.331s.195.016.522.089a1 1 0 0 1 .556.16c1.719.566 4.957 2.404 5.631 8.263v.016l1.104-.025.207-1.637.562-.384.225-2.044.279-.124 1-1.055 1.391-.488s-2.102 4.43-1.575 4.863c0 0-.738 3.502-3.136 3.91-.063 1.156-.252 2.321-.731 2.847l-.021.059 1.133.05.498 1.251.732-1.202 1.084.321-.152-2.874c.004.037.047.184.57-.533l.58-.793 1.002-1.054-.09-1.1.399.291.849-.649-.195 1.364s-.676-.169-.561.247c.123.416-1.625 6.092-1.625 6.092l-1.24.22.529.434-1.277 1.041-.387-.566-2.732-.115-.895 1.741L9.98-.792l.079 1.373 1.388-.487.241.829.333 1.796-.552.113.068 1.644-.842 3.66-.357-1.245-.084-1.238-.545-.024.307-.808s.08-1.912-.578-2.486l-.11-.691L7.217.147l-.11.177.174 1.233.256.422-.299.534-.695.246-.443.801 1.218.327-.57.524.647.847 4.222 7.027s-3.242 2.189-3.838 6.54c0 0-2.584-3.665-3.845-2.9l1.296-1.586-.607-1.805 2.164.639.434-.527-1.565-1.847.684.029.672.303.558-.25-1.675-2.535-.178.949-.926-.724-.045 1.093-.297.534-.4-.29.043-.957-.451.94-1.075-.457-.171.816-.809-.312-.4-.288-1.446 1.855 1.959-1.011-1.168 1.729.801.446.979-.508-.891 1.742 1.494.201 1.481.61-2.971 2.337-.197 1.362-.756-1.537-3.977-3.046s-1.396.628-1.234.085l.158-.54-.107-.687.945.314 1.955-4.162.744-1.477L.096 6.319l-1.092-.048.305-.671.304-.807-.232-.969.017-.409.172-.814-.828.099.172-.81.594-1.445a2.5 2.5 0 0 1-.635-.249L-1.158.12l-.99 1.039-.53-.434-.707.518.569 2.763-.555.113.09 1.095 1.246-.216-.209 1.633-.069 1.64-.781-.991s-1.91-3.368-1.482-3.76-1.131-2.376-.567-2.766c.565-.385 1.52-.342 1.52-.342l-.385-.566.455-1.075 1.026-1.599.144-.866-.459-.401-.037-.053L-3.9-2.747s-.37-.974-.774-1.129c-.402-.154-1.748-.76-1.748-.76l-1.131-2.372-1.008-2.097-1.027-1.548.438-.667.802.442.383.703.539.157.084 1.239.776 1.128.584-.801 1.24 3.066.978-.556c-.461-1.126-.916-2.668-.923-4.324-.575-.581-1.309-1.194-1.309-1.194l-.346-1.522-.586.936-.109-.69-.955-.038.166-3.963.709-.518 1.474-2.543L-6-21.044Z" style="fill:none;stroke:#ad8fcd;stroke-width:.275;stroke-linecap:butt;stroke-linejoin:miter;stroke-miterlimit:4;stroke-dasharray:none;stroke-opacity:1" transform="scale(1.67927 -1.67927)rotate(30 66.43 28.11)"/>
</svg>
