<svg xmlns="http://www.w3.org/2000/svg" width="89.877" height="100">
    <path d="m0 0-.112-.41.138-.551-.369-.139-.118-.621-.023-.292-.434-.315-.386-.213-.134-.355-.372.209-.254-.073-.24.004-.286.118-.251.486.159.298-.321.656.135.351-.042.327.165.508-.119.282.65.712.222.265.085-.093.506.147.14.008s.215.05.345.194l.352-.497.178-.318zm-4.781-7.606-.1-.66-.446.073-.396-.585-.149-.295-.594-.072h-.496l-.298-.294-.296.44-.297.073-.247.148-.25.292-.047.662.297.218-.049.879.296.294.099.369.396.439v.367l.993.366.344.146.051-.146.594-.147.148-.073s.249-.074.447 0l.146-.734.051-.44.098-.952zM.073 4.406l.885-1.515.861.689c.899-.184 1.593 1.256 1.593 1.256 1.12.23 1.669 1.98 1.669 1.98.637 1.69-.903.895-.903.895.903-.895.222-1.354.222-1.354-.643.436-1.189-.961-1.189-.961-.645.434-1.43-1.295-1.43-1.295l-.148.312c-.15.31-1.324 1.036-1.324 1.036l-.976.518-.624-.356c-.814 1.034-1.511 1.518-1.511 1.518-.034.017-.118.014-.236 0l-.009.031-1.884-.216c-.589-.825-2.331-1.452-2.833-1.622q-.132-.021-.247-.035c-2.515.232-.732-.764-.732-.764.268-.105.474-.282.632-.486.104-.21.214-.415.323-.607.169-.471.184-.897.184-.897.197-2.045-3.07-3.419-3.07-3.419l.048-15.794q.24.031.471.065l.013-1.67c3.369-1.39 5.889 1.267 7.083 2.961h-.354l-.221-.24-.221.359-.222.06-.186.12-.184.241-.039.539.223.179-.038.718.224.241.073.3.296.361v.298l.74.3.26.119.036-.119.443-.12.111-.059s.185-.061.334 0l.111-.6.024-.227q.295.595.557 1.17l.835.118-.145-.596-.802-1.578.931-.564c.255-.996 1.703-1.055 1.703-1.055.685-1.033 2.307-.804 2.307-.804 1.617.109.303 1.313.303 1.313-.303-1.313-.968-.832-.968-.832.057.849-1.291.78-1.291.78.054.846-1.661.869-1.661.869l.18.29c.18.29.226 1.805.226 1.805l-.029 1.221-.87.735C2.389-2.877 1.091 1.77-.464 4.402l.129.421z" style="fill:#d52646;fill-opacity:1;fill-rule:nonzero;stroke:none" transform="scale(1.67927 -1.67927)rotate(30 64.837 55.955)"/>
    <path d="m0 0 .181.317.35.497C.659.671.876.62.876.62l.138-.008.508-.146.085.093.221-.265.65-.713L2.359-.7l.166-.508-.044-.327.136-.352-.322-.655.16-.299-.252-.485-.286-.118-.238-.004-.255.073-.372-.21-.135.356-.385.212-.434.316-.024.292-.116.621-.369.139.137.55-.113.411zm4.1-7.927.097.952.051.441.147.733c.199-.073.447 0 .447 0l.148.073.593.148.051.145.345-.145.993-.366v-.367l.396-.44.098-.368.298-.294-.049-.88.296-.218-.048-.662-.248-.292-.249-.147-.296-.074-.298-.44-.297.295h-.496l-.592.071-.149.295-.399.585-.443-.072-.101.659ZM-.052 4.135l.13-.421c-1.554-2.633-2.854-7.279-.092-14.385l-.869-.734-.029-1.221s.045-1.516.226-1.806l.179-.29s-1.715-.022-1.661-.869c0 0-1.345.07-1.291-.779 0 0-.665-.482-.966.832 0 0-1.316-1.204.301-1.314 0 0 1.624-.228 2.309.804 0 0 1.447.06 1.702 1.056l.931.563-.802 1.578-.146.596.837-.117q.259-.576.557-1.17l.023.227.111.599c.149-.06.332 0 .332 0l.112.06.446.12.036.119.258-.119.74-.301v-.298l.296-.36.073-.301.223-.24-.037-.719.223-.179-.038-.539-.185-.241-.186-.119-.221-.061-.221-.359-.223.24h-.355c1.196-1.693 3.717-4.35 7.083-2.961l.015 1.67c.155-.021.309-.045.471-.064l.047 15.794S7.021-.2 7.218 1.845c0 0 .016.426.183.896q.166.291.325.608c.159.204.362.38.631.486 0 0 1.783.995-.733.764a4 4 0 0 0-.248.035c-.5.17-2.241.797-2.83 1.622l-1.883.216-.013-.032c-.117.014-.2.017-.235 0 0 0-.694-.484-1.511-1.517l-.624.355-.974-.517s-1.175-.727-1.326-1.036l-.146-.313s-.787 1.73-1.431 1.296c0 0-.548 1.396-1.189.961 0 0-.681.459.223 1.353 0 0-1.541.795-.904-.894 0 0 .549-1.75 1.668-1.981 0 0 .695-1.439 1.593-1.255l.862-.69.884 1.516z" style="fill:#d52646;fill-opacity:1;fill-rule:nonzero;stroke:none" transform="scale(1.67927 -1.67927)rotate(30 74.62 14.305)"/>
    <path d="M0 0c-.262.416-2.088-.027-2.088-.027l-1.045.594c-.029.606-.621 1.274-.621 1.274l-.515.558c.43-.175 1.565.219 1.565.219.451.712 1.076.598 1.076.598.856-.289 1.257-1.447 1.257-1.447C.758.579 0 0 0 0m-5.027 5.013s-.893.468-.367.978c0 0 .122.3 1.098-.168 0 0 .121-.896-.731-.81m-3.166 0c-.853-.086-.733.81-.733.81.975.468 1.097.168 1.097.168.529-.51-.364-.978-.364-.978m-1.173-3.172s-.59-.668-.62-1.274l-1.045-.594s-1.824.443-2.088.027c0 0-.757.579.373 1.769 0 0 .398 1.158 1.254 1.447 0 0 .627.114 1.077-.598 0 0 1.133-.394 1.566-.219zM8.378 5.269l.243.851-1.055-.851-.653.851-.729-.426c-1.058.512-2.598-1.193-2.598-1.193L2.608-.614 1.96-.786l-.082.43-.764-.324c-.22 2.269-2.347 4.14-2.347 4.14-.551.537-1.488-.189-1.488-.189.258 1.488-.067 2.203-.467 2.544.881.877 2.466 2.693 2.466 2.693.731.597.409 1.364.409 1.364-.491.938-.735-.258-.735-.258l-.079-1.022c-1.139-1.79-2.762-2.301-2.762-2.301a.8.8 0 0 1-.143-.159c-.04.001-.063-.003-.063-.003s-.717.447-1.399.776c-.435.211-.858.373-1.069.344l-.01-.002-.009.002c-.213.029-.634-.133-1.069-.344-.681-.329-1.4-.776-1.4-.776s-.091.009-.226-.009a1 1 0 0 1-.151.171s-1.624.511-2.763 2.301l-.08 1.022s-.246 1.196-.731.258c0 0-.325-.767.404-1.364 0 0 1.693-1.938 2.551-2.775-.357-.373-.615-1.087-.378-2.462 0 0-.934.726-1.486.189 0 0-2.184-1.92-2.358-4.229l-.062.069-.814.344-.081-.43-.65.172-.976 5.115s-1.543 1.705-2.598 1.193l-.732.426-.651-.851-1.055.851.244-.851h-.488s1.382-1.622 2.762-.768l1.869-.17-.486-.769s.81-4.176 1.299-4.348c0 0 1.624-2.046 3.493-2.556l.056-.016c.993-.765 2.475-1.206 3.713-1.515.979-.244 1.808-.405 2.124-.579 0 0 .916-.326-1.95-1.955 0 0-.049-.121-.094-.321a3.2 3.2 0 0 1-.029-1.347c.063-1.576 2.063-2.108 2.063-2.108a.3.3 0 0 0 .039.096c.147.088.496.278.7.293.207-.015.552-.205.701-.293a.3.3 0 0 0 .038-.096s2 .532 2.065 2.108c.111.537.04 1.038-.031 1.347-.047.2-.093.321-.093.321-2.867 1.629-1.949 1.955-1.949 1.955.316.174 1.145.335 2.122.579 1.269.317 2.79.77 3.782 1.57 1.81.569 3.361 2.517 3.361 2.517.486.172 1.299 4.348 1.299 4.348l-.487.769 1.869.17c1.379-.854 2.761.768 2.761.768Z" style="fill:#d52646;fill-opacity:1;fill-rule:nonzero;stroke:none" transform="scale(1.67927 -1.67927)rotate(30 46.6 41.89)"/>
</svg>
