<svg xmlns="http://www.w3.org/2000/svg" width="89.877" height="100">
    <path d="m0 0-.01-.021-.004-.02C-.021-.09-.696-4.349-1.508-6.043c-.237.979-.867 3.158-1.995 4.436C-5.015.107-6.846 4.006-7.44 9.797l-.002.021-.624 2.039c.059.112.537.998.715 1.331.307-.329 1.882-2.022 1.95-2.091.019-.103.447-2.159.447-2.159l.034-.038C-3.438 7.186.088 2.624.085.498Q.085.218 0 0m-10.819-4.143c-.175-.311-1.505-2.717-1.875-4.155-.566 1.237-1.709 4.069-1.704 6.743 0 .955.146 1.889.521 2.723l.006.014.004.013c.599 2.038 2.346 8.162 2.349 10.268a1.8 1.8 0 0 1-.057.473c.083.123.62.881.84 1.192.249-.321 1.006-1.284 1.077-1.377v-.717c-.003-2.876-.098-12.759-1.161-15.177m-1.569 18.696s.242.967 2.174 1.445c0 0 3.503.963 4.224.115 0 0 .924-.492 1.053-1.258a.9.9 0 0 1 .009-.299c-.024-.229-.126-.476-.338-.736 0 0-2.294.485-3.865-.117 0 0-1.567.608-2.776-.115 0 0-.965-.482-.481.965m4.093-7.584c-.42.006-.741-.037-.991-.112q.012.441.018.858c.831-.344 1.359-.135 1.681.184.068-.43.14-.854.222-1.256-.381.331-.93.326-.93.326m.823-3.721c-.507.522-1.526-.045-1.962-.328q.04.73.068 1.457c.331-.18.635-.268.635-.268.907-.05 1.339.567 1.544 1.082.114-.229.155-.498.155-.764-.002-.517-.153-1.031-.245-1.296a.6.6 0 0 1-.195.117M-4.92 10.7c.169.245.304.527.392.853 0 0 .048.136.111.366q.012-.009.024-.014a44 44 0 0 0 1.959-.909c1.111-.311 1.02.449 1.02.449-.29.236-1.894.909-2.82 1.287q.042.247.077.519.06 0 .132.007c.883.095 2.153.16 2.153.16 1.121.271.671.889.671.889-.346.062-1.902-.109-2.912-.229q0 .304-.038.61c.87.513 2.297 1.375 2.542 1.643 0 0-.02.765-1.073.3 0 0-.934-.643-1.678-1.105-.262.669-.767 1.22-1.666 1.45 0 0-.295.045-.737.086.852 1.665-.268 2.565-.827 2.889 0 0-.417.259-1.018.343l-1.127 11.435.24-11.519-1.32-.743c-.247-.181-.397-.327-.397-.327-.559-1.185-.082-2.116.317-2.62-.546-.198-1.503-.616-2.066-1.283a1 1 0 0 1-.192.078c-.851.267-2.039.716-2.039.716-1.135.199-.97-.547-.97-.547.297-.197 1.839-.679 2.81-.972a1.6 1.6 0 0 1-.028-.739s-.029-.152-.044-.396c-.957.344-2.354.827-2.693.846 0 0-.579-.502.452-1.02 0 0 1.225-.348 2.064-.64q.101-.035.192-.049c.026-.268.076-.561.162-.858-.933-.402-2.406-1.053-2.676-1.281 0 0-.08-.765 1.023-.434a50 50 0 0 0 1.967.954c.197-.352.46-.689.824-.974-.37-2.063-1.23-5.437-2.163-8.606-.396-.899-.554-1.891-.556-2.899-.005-3.592 1.964-7.352 2.071-7.553l.393.137c-.126.68 1.081 3.166 1.923 4.669.293.671.516 1.852.685 3.281.152-.561.33-1.229.472-1.763-.064-.393-.016-.828.031-1.113a1.5 1.5 0 0 1-.356-.834 2 2 0 0 1-.011-.209c-.002-.996.71-2.162 1.292-2.954.144-1.231 2.149-2.913 2.149-2.913-.356.57.658 1.891.658 1.891.516 1.158-.738 2.041-.738 2.041-1.321.685-1.733-.176-1.733-.176a.9.9 0 0 1-.229-.262c-.487.713-.98 1.615-.98 2.363q0 .092.012.172.027.245.137.439c.331-.278 1.218-.993 1.775-1.112.478-.102.928.343 1.159.626l.803-1.226c.281.57-.23 1.104-.657 1.426l.015.021s.155 1.252-.001 1.865c-.16.617-.938.795-.938.795l-1.752.051a.83.83 0 0 1-.369-.257c-.149.56-.303 1.14-.417 1.559 1.238-.804 2.647.391 2.647.391.226 1.633.042 2.504-.192 2.967l.006.004.015.035c.015.037.205.493.296 1.065.83-2.696 1.907-4.626 2.865-5.712 1.382-1.564 2.011-4.72 2.018-4.751l.085-.44.266.362C-.462-5.385.342-.327.375-.105Q.47.156.474.477C.475 3.165-4.173 8.635-4.59 9.119c-.012.061-.198.961-.33 1.581" style="fill:#9da2a9;fill-opacity:1;fill-rule:nonzero;stroke:none" transform="scale(1.67927 -1.67927)rotate(30 86.734 57.578)"/>
    <path d="M0 0a45 45 0 0 0-.856 1.983c-.622.971-1.06.342-1.06.342.083-.521 1.563-3.475 1.563-3.475S.381-.804 0 0" style="fill:#9da2a9;fill-opacity:1;fill-rule:nonzero;stroke:none" transform="scale(1.67927 -1.67927)rotate(30 79.491 61.247)"/>
    <path d="M0 0c.104-.514 1.453-3.808 1.788-4.073.334-.261 1.233-.682.358 1.014C1.274-1.362.787-.187.787-.187S-.104.512 0 0" style="fill:#9da2a9;fill-opacity:1;fill-rule:nonzero;stroke:none" transform="scale(1.67927 -1.67927)rotate(30 67.692 49.658)"/>
    <path d="M0 0s.713.391.288 1.172c-.424.779-.97 1.932-.97 1.932-.674.933-1.075.28-1.075.28C-1.642 2.865 0 0 0 0" style="fill:#9da2a9;fill-opacity:1;fill-rule:nonzero;stroke:none" transform="scale(1.67927 -1.67927)rotate(30 71.235 64.002)"/>
    <path d="M0 0c-1.587 1.055-2.584 1.842-2.584 1.842s-1.122.178-.78-.219c.34-.398 3.125-2.615 3.545-2.682C.602-1.127 1.589-1.055 0 0" style="fill:#9da2a9;fill-opacity:1;fill-rule:nonzero;stroke:none" transform="scale(1.67927 -1.67927)rotate(30 63.17 56.444)"/>
    <path d="M0 0c-.233-.861-.636-2.066-.636-2.066-.157-1.141.581-.95.581-.95C.222-2.564 1.017.643 1.017.643S.233.855 0 0" style="fill:#9da2a9;fill-opacity:1;fill-rule:nonzero;stroke:none" transform="scale(1.67927 -1.67927)rotate(30 51.549 10.176)"/>
    <path d="M0 0c-.356.229-1.291.559-.259-1.045C.774-2.646 1.373-3.769 1.373-3.769s.956-.61.803-.11S.36-.23 0 0" style="fill:#9da2a9;fill-opacity:1;fill-rule:nonzero;stroke:none" transform="scale(1.67927 -1.67927)rotate(30 58.212 13.08)"/>
    <path d="M0 0s-.386 1.213-.604 2.074-1.004.66-1.004.66S-.866-.482-.6-.94c0 0 .74-.206.6.94" style="fill:#9da2a9;fill-opacity:1;fill-rule:nonzero;stroke:none" transform="scale(1.67927 -1.67927)rotate(30 43.576 49.231)"/>
    <path d="M0 0s.558 1.141 1.535 2.779.052 1.276-.298 1.034C.888 3.57-.662.363-.799-.141-.931-.649 0 0 0 0" style="fill:#9da2a9;fill-opacity:1;fill-rule:nonzero;stroke:none" transform="scale(1.67927 -1.67927)rotate(30 54.712 47.002)"/>
    <path d="M0 0s.011-1.271-.033-2.162c-.045-.887.766-.925.766-.925S.97.205.851.721c0 0-.648.413-.851-.721" style="fill:#9da2a9;fill-opacity:1;fill-rule:nonzero;stroke:none" transform="scale(1.67927 -1.67927)rotate(30 89.457 20.359)"/>
    <path d="M0 0s-.467-1.186-1.311-2.893c-.842-1.709.047-1.277.375-1.006.333.268 1.625 3.587 1.72 4.1C.879.717 0 0 0 0" style="fill:#9da2a9;fill-opacity:1;fill-rule:nonzero;stroke:none" transform="scale(1.67927 -1.67927)rotate(30 77.714 21.761)"/>
    <path d="M0 0c-.357.236-.389-.107-.389-.107-2.166-2.895-4.389-3.301-4.389-3.301-.288.132-.301-.123-.301-.123.067-.401.54-.143.54-.143C-2.045-3.486.145-.379.145-.379.369.018 0 0 0 0" style="fill:#9da2a9;fill-opacity:1;fill-rule:nonzero;stroke:none" transform="scale(1.67927 -1.67927)rotate(30 95.784 22.478)"/>
    <path d="M0 0s-1.145-.554-1.968-.894c-.821-.339-.511-1.089-.511-1.089S.6-.787 1.013-.458c0 0 .1.76-1.013.458" style="fill:#9da2a9;fill-opacity:1;fill-rule:nonzero;stroke:none" transform="scale(1.67927 -1.67927)rotate(30 76.167 9.026)"/>
    <path d="M0 0c-1.785-.669-.839-.961-.414-.991C.011-1.02 3.225.514 3.644.826c.422.311-.709.389-.709.389S1.785.672 0 0" style="fill:#9da2a9;fill-opacity:1;fill-rule:nonzero;stroke:none" transform="scale(1.67927 -1.67927)rotate(30 73.097 13.23)"/>
    <path d="M0 0c-3.611.163-5.198 1.775-5.198 1.775-.053.311-.27.18-.27.18-.293-.281.183-.528.183-.528C-3.727-.529.075-.594.075-.594c.454.037.231.333.231.333C.301.167 0 0 0 0" style="fill:#9da2a9;fill-opacity:1;fill-rule:nonzero;stroke:none" transform="scale(1.67927 -1.67927)rotate(30 80.626 3.953)"/>
    <path d="M0 0s-2.264.048-4.858 2.562c0 0-.084.333-.399.045 0 0-.371-.041-.087-.397 0 0 2.656-2.724 5.148-2.512 0 0 .506-.177.511.227 0 0-.053.249-.315.075" style="fill:#9da2a9;fill-opacity:1;fill-rule:nonzero;stroke:none" transform="scale(1.67927 -1.67927)rotate(30 83.978 73.541)"/>
    <path d="M0 0s-.152.202-.317-.066c0 0-2.068-.916-5.485.254 0 0-.22.267-.383-.128 0 0-.316-.193.093-.394 0 0 3.559-1.338 5.728-.089 0 0 .533.056.364.423" style="fill:#9da2a9;fill-opacity:1;fill-rule:nonzero;stroke:none" transform="scale(1.67927 -1.67927)rotate(30 67.796 77.086)"/>
    <path d="M0 0s2.066-.921 3.484-4.244c0 0-.05-.34.353-.196 0 0 .355-.106.23.334 0 0-1.39 3.536-3.77 4.31 0 0-.399.358-.559-.012 0 0-.049-.251.262-.192" style="fill:#9da2a9;fill-opacity:1;fill-rule:nonzero;stroke:none" transform="scale(1.67927 -1.67927)rotate(30 42.41 1.376)"/>
    <path d="M0 0c.416-.089.321.241.321.241.956 3.485 2.878 4.678 2.878 4.678.315-.016.235.225.235.225-.209.346-.556-.065-.556-.065C.626 3.992-.273.298-.273.298-.338-.153 0 0 0 0" style="fill:#9da2a9;fill-opacity:1;fill-rule:nonzero;stroke:none" transform="scale(1.67927 -1.67927)rotate(30 38.433 44.92)"/>
</svg>
