<svg xmlns="http://www.w3.org/2000/svg" width="88.337" height="100">
    <g id="black">
        <path d="M0 0a6.9 6.9 0 0 1 3.592 1.708 7 7 0 0 1 1.342 1.671c.326.572 11.761 19.972 12.074 20.942a6.85 6.85 0 0 1 .105 3.877 7 7 0 0 1-.674 1.657c-.283.496-11.474 20.355-12.078 21.052a6.87 6.87 0 0 1-5.197 2.385c-.607 0-23.293.147-24.033.032a6.88 6.88 0 0 1-4.918-3.376c-.324-.569-11.76-19.973-12.072-20.929a6.9 6.9 0 0 1 .564-5.557c.285-.498 11.469-20.347 12.078-21.05a6.87 6.87 0 0 1 3.274-2.1 6.8 6.8 0 0 1 1.916-.278C-23.422.034-.73-.112 0 0" clip-path="url(#clipPath23)" style="fill:#231f20;fill-opacity:1;fill-rule:nonzero;stroke:none" transform="scale(1.6505 -1.6505)rotate(30 112.48 71.57)"/>
        <path d="M0 0s3.301-.823 5.775-5.866 8.709-11.917 8.161-18.059c0 0 .183-4.857-5.227-13.566 0 0-5.959-10.633-9.166-10.45 0 0 4.398-.917 8.707 6.233 0 0 8.436 13.475 8.436 14.85 0 0 1.923 2.475.089 6.142 0 0-8.525 15.032-9.533 15.582C7.242-5.134 4.4.092 0 0" clip-path="url(#clipPath25)" style="fill:#656d69;fill-opacity:1;fill-rule:nonzero;stroke:none" transform="scale(1.6505 -1.6505)rotate(30 19.223 42.707)"/>
        <path d="M0 0s-3.066-.831-5.365-5.919c-2.299-5.089-8.088-12.024-7.576-18.222 0 0-.172-4.902 4.853-13.689 0 0 5.535-10.729 8.514-10.544 0 0-4.086-.925-8.09 6.289 0 0-7.832 13.596-7.832 14.983 0 0-1.787 2.498-.084 6.199 0 0 7.918 15.167 8.855 15.723C-6.725-5.18-4.088.093 0 0" clip-path="url(#clipPath27)" style="fill:#656d69;fill-opacity:1;fill-rule:nonzero;stroke:none" transform="scale(1.6505 -1.6505)rotate(30 29.442 .895)"/>
    </g>
    <g id="white">
        <path d="M0 0a6.9 6.9 0 0 1 3.592 1.708 7 7 0 0 1 1.342 1.671c.326.572 11.761 19.972 12.074 20.942a6.85 6.85 0 0 1 .105 3.877 7 7 0 0 1-.674 1.657c-.283.496-11.474 20.355-12.078 21.052a6.87 6.87 0 0 1-5.197 2.385c-.607 0-23.293.147-24.033.032a6.88 6.88 0 0 1-4.918-3.376c-.324-.569-11.76-19.973-12.072-20.929a6.9 6.9 0 0 1 .564-5.557c.285-.498 11.469-20.347 12.078-21.05a6.87 6.87 0 0 1 3.274-2.1 6.8 6.8 0 0 1 1.916-.278C-23.422.034-.73-.112 0 0" style="fill:#e3d2a2;fill-opacity:1;fill-rule:nonzero;stroke:none" transform="scale(1.6505 -1.6505)rotate(30 112.48 71.57)"/>
        <path d="M0 0s3.301-.823 5.775-5.866 8.709-11.917 8.161-18.059c0 0 .183-4.857-5.227-13.566 0 0-5.959-10.633-9.166-10.45 0 0 4.398-.917 8.707 6.233 0 0 8.436 13.475 8.436 14.85 0 0 1.923 2.475.089 6.142 0 0-8.525 15.032-9.533 15.582C7.242-5.134 4.4.092 0 0" style="fill:#ebe5b1;fill-opacity:1;fill-rule:nonzero;stroke:none" transform="scale(1.6505 -1.6505)rotate(30 19.223 42.707)"/>
        <path d="M0 0s-3.066-.831-5.365-5.919c-2.299-5.089-8.088-12.024-7.576-18.222 0 0-.172-4.902 4.853-13.689 0 0 5.535-10.729 8.514-10.544 0 0-4.086-.925-8.09 6.289 0 0-7.832 13.596-7.832 14.983 0 0-1.787 2.498-.084 6.199 0 0 7.918 15.167 8.855 15.723C-6.725-5.18-4.088.093 0 0" style="fill:#ebe5b1;fill-opacity:1;fill-rule:nonzero;stroke:none" transform="scale(1.6505 -1.6505)rotate(30 29.442 .895)"/>
    </g>
    <g id="Ant">
        <path d="M0 0s.232 5.079-.521 5.769c0 0-.315.307-.399.969 0 0-.068-.899-.455-1.06 0 0-.922-1.183-.307-5.623 0 0-1.492 3.252-.625 5.294 0 0 1.311 6.152.53 6.569l-.082.272s.722 1.103 1.675.063l-.078-.273s-.826.534.688-6.472C.426 5.508 1.43 3.454 0 0m1.457-3.646s-1.061-6.363.148-7.928c.09-.232.336-.4.633-.396a.7.7 0 0 1 .274.06l.004-.003c-.127-.329-.461-.931-1.381-1.616 0 0-.819.067-.928-.443 0 0-.473.345-1.527.055 0 0-.313.425-.823.415 0 0-1.181.727-1.152 1.432 0 0 .024-.006.066-.005.002.005.006 0 .006.003.327.002.592.214.641.491.465.775.814 2.771-.174 7.869 0 0 1.801 2.175 4.213.066m8.641 9.103c-.754.73-.899 1.272-1.891 1.422-.48.069-1.701-.236-2.197-.307-1.403-.201-2.66-.327-4.037-.646.004.073.004.14.002.21a18 18 0 0 1-.116 1.75c1.373.197 2.584.52 3.953.833.487.11 1.735.262 2.163.495.867.496.816 1.052 1.257 2.005 1.274 2.781 4.428 5.063 5.393 7.992-.086.006-.455.046-.506.045-.707-1.077-1.469-1.946-2.205-2.965-1.262-1.741-2.73-5.024-4.295-6.206-1.334-1.016-4.224-1.786-5.908-1.212-.477 2.609-1.551 4.438-2.772 4.419-1.207-.016-2.212-1.82-2.628-4.388-1.686-.495-4.416.172-5.727 1.106-1.598 1.138-3.166 4.373-4.479 6.075-.765.993-1.548 1.841-2.287 2.896-.054 0-.425-.049-.507-.056 1.052-2.903 4.271-5.085 5.632-7.828.467-.94.432-1.497 1.313-1.962.433-.227 1.691-.341 2.178-.436 1.304-.258 2.47-.529 3.763-.689-.06-.622-.09-1.28-.078-1.958 0-.006-.002-.008.002-.014-1.318.246-2.529.342-3.883.488-.494.059-1.724.328-2.207.242-.986-.177-1.115-.72-1.844-1.476-2.123-2.206-5.849-3.32-7.722-5.771l.463-.212c1.019.787 2.025 1.36 3.056 2.076 1.764 1.23 4.229 3.842 6.096 4.449 1.641.532 4.744.286 6.09-.894.139-1.776.537-3.339 1.094-4.423-1.41-.224-2.69-.54-4.118-.856-.556-.122-1.98-.284-2.464-.544-.993-.537-.936-1.139-1.43-2.173-1.459-3.018-5.053-5.497-6.154-8.674.101-.01.521-.051.58-.055.802 1.171 1.672 2.118 2.509 3.222 1.436 1.889 3.114 5.454 4.893 6.735C-7.338-.68-3.838.19-1.963-.583q.103-.107.213-.19c-1.951-.807-3.363-3.724-3.311-7.173.043-2.853 1.071-5.31 2.541-6.499 0 0 1.543-.456 1.897-1.819 0 0 1.078 1.783 1.853 1.634l.27.2c1.459 1.223 2.436 3.735 2.393 6.617C3.84-4.229 2.223-1.273.139-.665c.099.096.201.197.293.315L.43-.376c1.826.871 5.406.104 7.041-1.007 1.816-1.232 3.597-4.742 5.092-6.588.873-1.077 1.763-1.997 2.605-3.144.059.003.477.058.574.07-1.195 3.144-4.857 5.512-6.406 8.486-.529 1.022-.482 1.623-1.492 2.127-.496.248-1.922.369-2.481.471C3.879.318 2.557.612 1.09.784c.431 1.007.73 2.351.838 3.865.031.049.074.099.109.139h.002C3.297 6.073 6.5 6.436 8.189 5.943c1.883-.55 4.428-3.093 6.229-4.266C15.469.99 16.492.449 17.533-.306c.051.021.379.189.457.226-1.947 2.393-5.707 3.396-7.892 5.537" style="fill:#289ee0;fill-opacity:1;fill-rule:nonzero;stroke:#2187b2;stroke-width:.275;stroke-linecap:butt;stroke-linejoin:miter;stroke-miterlimit:4;stroke-dasharray:none;stroke-opacity:1" transform="scale(1.67927 -1.67927)rotate(30 77.764 37.952)"/>
        <path d="m0 0 .529.125S1.225-3.611.941-4.2c0 0-1.367-1.599-2.734-.687 0 0-.937 3.441 1.793 4.887m4.033.232.531-.109C7.334-1.238 6.5-4.705 6.5-4.705c-1.338-.952-2.754.601-2.754.601-.301.58.287 4.336.287 4.336m-8.635-4.749c.969-.104 1.831-.511 2.709-.838a32 32 0 0 1-.099-.532c.318-1.198 1.451-1.259 1.451-1.259 1.594-.581 6.562-.052 6.562-.052C6.77-6.962 7.055-5.9 7.055-5.9c.15.22.164.546.091.94.788.328 1.561.698 2.438.818.998.135 3.184-.818 3.828.363-.795.21-3.055.188-4.047.041-.638-.091-1.527-.55-2.295-.885q-.01.022-.011.04C7.225-.612 4.443.475 4.443.475 4.229 4.34 2.471 4.353 2.471 4.353l.121-.194c1.424-.999.422-1.906.422-1.906l-.01-.007c-.047.054-.07.088-.07.088s-.987-.075-1.377-.093l-.12.03a1 1 0 0 1-.093-.077q-.048.028-.049.03c-1.027.88.363 1.96.363 1.96l.072.157C-.004 3.984-.08.757-.08.304Q-.1.264-.123.225c-3.078-1.998-1.832-5.117-1.832-5.117s.004-.041.019-.084c-.808.314-1.783.796-2.459.87-.998.115-3.255.074-4.046-.161.675-1.162 2.836-.138 3.839-.25" style="fill:#289ee0;fill-opacity:1;fill-rule:nonzero;stroke:#2187b2;stroke-width:.275;stroke-linecap:butt;stroke-linejoin:miter;stroke-miterlimit:4;stroke-dasharray:none;stroke-opacity:1" transform="scale(1.67927 -1.67927)rotate(30 39.737 21.025)"/>
        <path d="M0 0c-.625-5.238.65-6.778.65-6.778.256-.252.364-.917.397-1.156-.012.361.307 1.086.307 1.086 1.302 1.739.445 6.953.445 6.953C.617.715 0 0 0 0" style="fill:#289ee0;fill-opacity:1;fill-rule:nonzero;stroke:#2187b2;stroke-width:.275;stroke-linecap:butt;stroke-linejoin:miter;stroke-miterlimit:4;stroke-dasharray:none;stroke-opacity:1" transform="scale(1.67927 -1.67927)rotate(30 85.576 36.948)"/>
    </g>
    <g id="Beetle">
        <path d="m0 0-.166.475-.139.248.053-.012-.146.419s6.113-.732 6.71.134l.25-.563q.047.018.092.038l.088-.421-.008-.002.11-.25S2.525-.598 0 0m-.199 2.924s-.008.204.006.472l-.086-.001c-.133.039.023.394.16.654.064.331.18.634.385.735 0 0 4.984-1.328 5.316-1.063l.07-.242c.385-.265.282-.662.282-.662l-.094.026.074-.251ZM-5.59-21.029l.377.839s.617 1.533-.576 3.81l.289 2.889 1.025.515.004-.049s1.229-6.592 6.227-7.542l.435-.297.383.419c.014-.003.028 0 .043 0 .028.021.063.038.092.056.09.237.637 2.054.674 8.964l.041.002c.133-3.006.334-6.204.638-8.822q.02.009.042.01l.183-.331s.195.016.522.089a1 1 0 0 1 .556.16c1.719.566 4.957 2.404 5.631 8.263v.016l1.104-.025.207-1.637.562-.384.225-2.044.279-.124 1-1.055 1.391-.488s-2.102 4.43-1.575 4.863c0 0-.738 3.502-3.136 3.91-.063 1.156-.252 2.321-.731 2.847l-.021.059 1.133.05.498 1.251.732-1.202 1.084.321-.152-2.874c.004.037.047.184.57-.533l.58-.793 1.002-1.054-.09-1.1.399.291.849-.649-.195 1.364s-.676-.169-.561.247c.123.416-1.625 6.092-1.625 6.092l-1.24.22.529.434-1.277 1.041-.387-.566-2.732-.115-.895 1.741L9.98-.792l.079 1.373 1.388-.487.241.829.333 1.796-.552.113.068 1.644-.842 3.66-.357-1.245-.084-1.238-.545-.024.307-.808s.08-1.912-.578-2.486l-.11-.691L7.217.147l-.11.177.174 1.233.256.422-.299.534-.695.246-.443.801 1.218.327-.57.524.647.847 4.222 7.027s-3.242 2.189-3.838 6.54c0 0-2.584-3.665-3.845-2.9l1.296-1.586-.607-1.805 2.164.639.434-.527-1.565-1.847.684.029.672.303.558-.25-1.675-2.535-.178.949-.926-.724-.045 1.093-.297.534-.4-.29.043-.957-.451.94-1.075-.457-.171.816-.809-.312-.4-.288-1.446 1.855 1.959-1.011-1.168 1.729.801.446.979-.508-.891 1.742 1.494.201 1.481.61-2.971 2.337-.197 1.362-.756-1.537-3.977-3.046s-1.396.628-1.234.085l.158-.54-.107-.687.945.314 1.955-4.162.744-1.477L.096 6.319l-1.092-.048.305-.671.304-.807-.232-.969.017-.409.172-.814-.828.099.172-.81.594-1.445a2.5 2.5 0 0 1-.635-.249L-1.158.12l-.99 1.039-.53-.434-.707.518.569 2.763-.555.113.09 1.095 1.246-.216-.209 1.633-.069 1.64-.781-.991s-1.91-3.368-1.482-3.76-1.131-2.376-.567-2.766c.565-.385 1.52-.342 1.52-.342l-.385-.566.455-1.075 1.026-1.599.144-.866-.459-.401-.037-.053L-3.9-2.747s-.37-.974-.774-1.129c-.402-.154-1.748-.76-1.748-.76l-1.131-2.372-1.008-2.097-1.027-1.548.438-.667.802.442.383.703.539.157.084 1.239.776 1.128.584-.801 1.24 3.066.978-.556c-.461-1.126-.916-2.668-.923-4.324-.575-.581-1.309-1.194-1.309-1.194l-.346-1.522-.586.936-.109-.69-.955-.038.166-3.963.709-.518 1.474-2.543L-6-21.044Z" style="fill:#9a7fc7;fill-opacity:1;fill-rule:nonzero;stroke:none" transform="scale(1.67927 -1.67927)rotate(30 66.43 28.11)"/>
        <path d="m0 0-.166.475-.139.248.053-.012-.146.419s6.113-.732 6.71.134l.25-.563q.047.018.092.038l.088-.421-.008-.002.11-.25S2.525-.598 0 0Zm-.199 2.924s-.008.204.006.472l-.086-.001c-.133.039.023.394.16.654.064.331.18.634.385.735 0 0 4.984-1.328 5.316-1.063l.07-.242c.385-.265.282-.662.282-.662l-.094.026.074-.251ZM-5.59-21.029l.377.839s.617 1.533-.576 3.81l.289 2.889 1.025.515.004-.049s1.229-6.592 6.227-7.542l.435-.297.383.419c.014-.003.028 0 .043 0 .028.021.063.038.092.056.09.237.637 2.054.674 8.964l.041.002c.133-3.006.334-6.204.638-8.822q.02.009.042.01l.183-.331s.195.016.522.089a1 1 0 0 1 .556.16c1.719.566 4.957 2.404 5.631 8.263v.016l1.104-.025.207-1.637.562-.384.225-2.044.279-.124 1-1.055 1.391-.488s-2.102 4.43-1.575 4.863c0 0-.738 3.502-3.136 3.91-.063 1.156-.252 2.321-.731 2.847l-.021.059 1.133.05.498 1.251.732-1.202 1.084.321-.152-2.874c.004.037.047.184.57-.533l.58-.793 1.002-1.054-.09-1.1.399.291.849-.649-.195 1.364s-.676-.169-.561.247c.123.416-1.625 6.092-1.625 6.092l-1.24.22.529.434-1.277 1.041-.387-.566-2.732-.115-.895 1.741L9.98-.792l.079 1.373 1.388-.487.241.829.333 1.796-.552.113.068 1.644-.842 3.66-.357-1.245-.084-1.238-.545-.024.307-.808s.08-1.912-.578-2.486l-.11-.691L7.217.147l-.11.177.174 1.233.256.422-.299.534-.695.246-.443.801 1.218.327-.57.524.647.847 4.222 7.027s-3.242 2.189-3.838 6.54c0 0-2.584-3.665-3.845-2.9l1.296-1.586-.607-1.805 2.164.639.434-.527-1.565-1.847.684.029.672.303.558-.25-1.675-2.535-.178.949-.926-.724-.045 1.093-.297.534-.4-.29.043-.957-.451.94-1.075-.457-.171.816-.809-.312-.4-.288-1.446 1.855 1.959-1.011-1.168 1.729.801.446.979-.508-.891 1.742 1.494.201 1.481.61-2.971 2.337-.197 1.362-.756-1.537-3.977-3.046s-1.396.628-1.234.085l.158-.54-.107-.687.945.314 1.955-4.162.744-1.477L.096 6.319l-1.092-.048.305-.671.304-.807-.232-.969.017-.409.172-.814-.828.099.172-.81.594-1.445a2.5 2.5 0 0 1-.635-.249L-1.158.12l-.99 1.039-.53-.434-.707.518.569 2.763-.555.113.09 1.095 1.246-.216-.209 1.633-.069 1.64-.781-.991s-1.91-3.368-1.482-3.76-1.131-2.376-.567-2.766c.565-.385 1.52-.342 1.52-.342l-.385-.566.455-1.075 1.026-1.599.144-.866-.459-.401-.037-.053L-3.9-2.747s-.37-.974-.774-1.129c-.402-.154-1.748-.76-1.748-.76l-1.131-2.372-1.008-2.097-1.027-1.548.438-.667.802.442.383.703.539.157.084 1.239.776 1.128.584-.801 1.24 3.066.978-.556c-.461-1.126-.916-2.668-.923-4.324-.575-.581-1.309-1.194-1.309-1.194l-.346-1.522-.586.936-.109-.69-.955-.038.166-3.963.709-.518 1.474-2.543L-6-21.044Z" style="fill:none;stroke:#ad8fcd;stroke-width:.275;stroke-linecap:butt;stroke-linejoin:miter;stroke-miterlimit:4;stroke-dasharray:none;stroke-opacity:1" transform="scale(1.67927 -1.67927)rotate(30 66.43 28.11)"/>
    </g>
    <path id="Grasshopper" d="M0 0c-.687-.834-2.551-.311-2.551-.311-.394.496.444 1.937.444 1.937C-.516.986.865 2.902.865 2.902 1.316 2.202 0 0 0 0m.07-18.861a.84.84 0 0 0-.22-.431s-3.139-1.825-6.543.267c0 0-.346 1.182-.037 1.632 0 0 .837-.637 2.332-.884L-3.156-.238s-1.883-.449-2.537.416c0 0-1.221 2.256-.743 2.935 0 0 1.299-1.971 2.918-1.395 0 0 .774-1.48.362-1.956.652-.448.748-18.093.748-18.096a9 9 0 0 1 2.406.583s.18-.609.072-1.11m-1.689-3.663-3.59-.038c-.406.367-.764.841-.92 1.456 0 0 1.545.818 2.727.429 0 0 2.55.073 2.537-.661 0 0-.289-.606-.754-1.186M-6.002 5.564s1.809.936 2.221.562c.416-.373-.043-2.067-.155-2.553-.115-.484-1.736-.211-2.019.225-.285.432-.047 1.766-.047 1.766m3.432 2.738c1.306-.892 1.892-1.049 1-1.61-.901-.56-.905-.846-2.219-.388-1.316.463 1.219 1.998 1.219 1.998m.547-5.717-1.342.027c-.666.133.469 3.152.469 3.152.533-.131.873-3.179.873-3.179M.312 5.854c.42-.123.198-1.998-.175-2.338-.373-.335-1.532-.088-1.532-.088s-.83 2.072-.513 2.553c.324.488 1.799-.002 2.22-.127m8.811-9.098c-.187.371-1.08-.054-1.146.698-.067.747-.442 1.481-.442 1.481L5.814 2.602l.241.764-.639.215-.727-.537s-2.3-.471-2.892-.914l-.401-.182a4 4 0 0 1-.482 1.455c.066.425.063.863-.041 1.11.566-.401 3.086-.653 3.086-.653l.814-.457.594.283-.373.731L6.045 8.23s.242.763.176 1.512c-.067.746.89.422 1.011.802.12.383-1.189 1.192-.992.704.201-.491.069-.749-.67-1.163-.736-.415-.515-1.154-.328-1.522.186-.365-.535-4.413-.888-3.93-.29.4-2.907 1.263-3.844 1.563a1 1 0 0 1-.17.253c.021.152.037.301.043.457.008.456-.069.897-.217 1.299-.193.713-.49 1.383-.725 1.241l-.025-.051a3.2 3.2 0 0 1-.848.626c.143 1.022.957 4.082 5.465.346 0 0 .758-.293.287.409 0 0-2.996 2.908-4.963 1.7 0 0-1.101-.662-1.421-2.222a2.95 2.95 0 0 1-1.541-.029c-.036.53-.52 5.121-6.499.988l-.072-.069s.127-.697.69-.291c0 0 4.568 3.725 5.351-.837a3.3 3.3 0 0 1-.847-.619c-.032.061-.053.097-.053.097-.209-.101-.389-.471-.535-.922a3.5 3.5 0 0 1-.383-1.536c-.002-.049 0-.088 0-.134-.047-.292-.074-.489-.074-.489s.043.015.111.048q.01-.104.035-.209a4 4 0 0 1-.195-.269.8.8 0 0 1-.254-.065l.004.028s-3.737-1.295-4.057-1.789c-.32-.493-1.318 3.526-1.154 3.896.16.371.328 1.117-.436 1.508-.763.391-.914.644-.75 1.142.166.495-1.09-.352-.943-.731.148-.377 1.084-.023 1.068-.774-.015-.749.28-1.505.28-1.505l1.31-3.777-.322-.738.609-.264.787.482s2.459.321 3.022.733c.076.017.16.043.244.073a4 4 0 0 1-.012-.331c0-.02.004-.047.002-.069-.008-.124-.017-.256-.017-.387a3.96 3.96 0 0 1-.514-1.877c-.004-.01-.004-.028-.004-.043 0-.011.006-.027.006-.041-.176.116-.354.22-.469.288-.035.025-.07.044-.111.067l-.047.024V1.83c-.795.385-2.775.726-2.775.726l-.76.516-.625-.237.293-.756-1.467-3.719s-.326-.743-.34-1.493c-.019-.75-.935-.354-1.101-.725-.161-.372 1.06-1.273.914-.771-.143.503.013.749.797 1.108.781.361.644 1.114.496 1.49-.149.378 1.017 4.355 1.314 3.847.287-.484 3.662-1.832 3.955-1.945l-.058-1.255c-.309-1.097-.606-2.563-.836-4.505-.862 1.101-2.586 1.983-2.586 1.983l-.742 1.622-.633-.79.258-2.411-1.639-11.994s-.36-2.401-.408-4.802c-.049-2.406-.952-1.184-1.129-2.383-.182-1.199.998-4.033.875-2.426-.123 1.61.051 2.406.847 3.59.797 1.187.694 3.596.563 4.802-.131 1.208 1.217 14.008 1.49 12.398.174-1 1.637-3.114 2.723-4.568a79 79 0 0 1-.061-1.939s-.834-5.105 1.367-5.947c.313-1.674.725-3.111 1.213-4.224l-.007-.006a3.1 3.1 0 0 1 .935-1.588c.477-.591.994-.918 1.545-.929.209-.02.41.026.6.117 1.371.552 2.595 3.044 3.396 6.628 2.18.822 1.395 5.908 1.395 5.908-.006.711-.024 1.39-.043 2.033C3.08-9.421 4.898-7.083 5.131-6.001c.344 1.599 1.158-11.247.98-12.445-.179-1.201-.381-3.603.366-4.822.748-1.218.886-2.025.699-3.625-.188-1.597 1.109 1.185.976 2.388-.129 1.205-1.082.024-1.031 2.428.047 2.401-.211 4.814-.211 4.814L5.766-5.212l.361 2.399-.606.815-.8-1.59s-2.58-1.183-3.1-2.564a39 39 0 0 1-.269 2.094L1.227-.011l-.069.013c.006.009.006.021.012.03.115.079.252.178.418.305.769.344 3.406 1.543 3.629 1.985.267.512 1.703-3.424 1.58-3.802-.121-.383-.207-1.139.599-1.476.803-.333.977-.575.868-1.08s1.049.429.859.792" style="fill:#42b23c;fill-opacity:1;fill-rule:nonzero;stroke:#3b913f;stroke-width:.275;stroke-linecap:butt;stroke-linejoin:miter;stroke-miterlimit:4;stroke-dasharray:none;stroke-opacity:1" transform="scale(1.67927 -1.67927)rotate(30 54.703 37.058)"/>
    <g id="Ladybug">
        <path d="m0 0-.112-.41.138-.551-.369-.139-.118-.621-.023-.292-.434-.315-.386-.213-.134-.355-.372.209-.254-.073-.24.004-.286.118-.251.486.159.298-.321.656.135.351-.042.327.165.508-.119.282.65.712.222.265.085-.093.506.147.14.008s.215.05.345.194l.352-.497.178-.318zm-4.781-7.606-.1-.66-.446.073-.396-.585-.149-.295-.594-.072h-.496l-.298-.294-.296.44-.297.073-.247.148-.25.292-.047.662.297.218-.049.879.296.294.099.369.396.439v.367l.993.366.344.146.051-.146.594-.147.148-.073s.249-.074.447 0l.146-.734.051-.44.098-.952zM.073 4.406l.885-1.515.861.689c.899-.184 1.593 1.256 1.593 1.256 1.12.23 1.669 1.98 1.669 1.98.637 1.69-.903.895-.903.895.903-.895.222-1.354.222-1.354-.643.436-1.189-.961-1.189-.961-.645.434-1.43-1.295-1.43-1.295l-.148.312c-.15.31-1.324 1.036-1.324 1.036l-.976.518-.624-.356c-.814 1.034-1.511 1.518-1.511 1.518-.034.017-.118.014-.236 0l-.009.031-1.884-.216c-.589-.825-2.331-1.452-2.833-1.622q-.132-.021-.247-.035c-2.515.232-.732-.764-.732-.764.268-.105.474-.282.632-.486.104-.21.214-.415.323-.607.169-.471.184-.897.184-.897.197-2.045-3.07-3.419-3.07-3.419l.048-15.794q.24.031.471.065l.013-1.67c3.369-1.39 5.889 1.267 7.083 2.961h-.354l-.221-.24-.221.359-.222.06-.186.12-.184.241-.039.539.223.179-.038.718.224.241.073.3.296.361v.298l.74.3.26.119.036-.119.443-.12.111-.059s.185-.061.334 0l.111-.6.024-.227q.295.595.557 1.17l.835.118-.145-.596-.802-1.578.931-.564c.255-.996 1.703-1.055 1.703-1.055.685-1.033 2.307-.804 2.307-.804 1.617.109.303 1.313.303 1.313-.303-1.313-.968-.832-.968-.832.057.849-1.291.78-1.291.78.054.846-1.661.869-1.661.869l.18.29c.18.29.226 1.805.226 1.805l-.029 1.221-.87.735C2.389-2.877 1.091 1.77-.464 4.402l.129.421z" style="fill:#d52646;fill-opacity:1;fill-rule:nonzero;stroke:none" transform="scale(1.67927 -1.67927)rotate(30 64.837 55.955)"/>
        <path d="m0 0 .181.317.35.497C.659.671.876.62.876.62l.138-.008.508-.146.085.093.221-.265.65-.713L2.359-.7l.166-.508-.044-.327.136-.352-.322-.655.16-.299-.252-.485-.286-.118-.238-.004-.255.073-.372-.21-.135.356-.385.212-.434.316-.024.292-.116.621-.369.139.137.55-.113.411zm4.1-7.927.097.952.051.441.147.733c.199-.073.447 0 .447 0l.148.073.593.148.051.145.345-.145.993-.366v-.367l.396-.44.098-.368.298-.294-.049-.88.296-.218-.048-.662-.248-.292-.249-.147-.296-.074-.298-.44-.297.295h-.496l-.592.071-.149.295-.399.585-.443-.072-.101.659ZM-.052 4.135l.13-.421c-1.554-2.633-2.854-7.279-.092-14.385l-.869-.734-.029-1.221s.045-1.516.226-1.806l.179-.29s-1.715-.022-1.661-.869c0 0-1.345.07-1.291-.779 0 0-.665-.482-.966.832 0 0-1.316-1.204.301-1.314 0 0 1.624-.228 2.309.804 0 0 1.447.06 1.702 1.056l.931.563-.802 1.578-.146.596.837-.117q.259-.576.557-1.17l.023.227.111.599c.149-.06.332 0 .332 0l.112.06.446.12.036.119.258-.119.74-.301v-.298l.296-.36.073-.301.223-.24-.037-.719.223-.179-.038-.539-.185-.241-.186-.119-.221-.061-.221-.359-.223.24h-.355c1.196-1.693 3.717-4.35 7.083-2.961l.015 1.67c.155-.021.309-.045.471-.064l.047 15.794S7.021-.2 7.218 1.845c0 0 .016.426.183.896q.166.291.325.608c.159.204.362.38.631.486 0 0 1.783.995-.733.764a4 4 0 0 0-.248.035c-.5.17-2.241.797-2.83 1.622l-1.883.216-.013-.032c-.117.014-.2.017-.235 0 0 0-.694-.484-1.511-1.517l-.624.355-.974-.517s-1.175-.727-1.326-1.036l-.146-.313s-.787 1.73-1.431 1.296c0 0-.548 1.396-1.189.961 0 0-.681.459.223 1.353 0 0-1.541.795-.904-.894 0 0 .549-1.75 1.668-1.981 0 0 .695-1.439 1.593-1.255l.862-.69.884 1.516z" style="fill:#d52646;fill-opacity:1;fill-rule:nonzero;stroke:none" transform="scale(1.67927 -1.67927)rotate(30 74.62 14.305)"/>
        <path d="M0 0c-.262.416-2.088-.027-2.088-.027l-1.045.594c-.029.606-.621 1.274-.621 1.274l-.515.558c.43-.175 1.565.219 1.565.219.451.712 1.076.598 1.076.598.856-.289 1.257-1.447 1.257-1.447C.758.579 0 0 0 0m-5.027 5.013s-.893.468-.367.978c0 0 .122.3 1.098-.168 0 0 .121-.896-.731-.81m-3.166 0c-.853-.086-.733.81-.733.81.975.468 1.097.168 1.097.168.529-.51-.364-.978-.364-.978m-1.173-3.172s-.59-.668-.62-1.274l-1.045-.594s-1.824.443-2.088.027c0 0-.757.579.373 1.769 0 0 .398 1.158 1.254 1.447 0 0 .627.114 1.077-.598 0 0 1.133-.394 1.566-.219zM8.378 5.269l.243.851-1.055-.851-.653.851-.729-.426c-1.058.512-2.598-1.193-2.598-1.193L2.608-.614 1.96-.786l-.082.43-.764-.324c-.22 2.269-2.347 4.14-2.347 4.14-.551.537-1.488-.189-1.488-.189.258 1.488-.067 2.203-.467 2.544.881.877 2.466 2.693 2.466 2.693.731.597.409 1.364.409 1.364-.491.938-.735-.258-.735-.258l-.079-1.022c-1.139-1.79-2.762-2.301-2.762-2.301a.8.8 0 0 1-.143-.159c-.04.001-.063-.003-.063-.003s-.717.447-1.399.776c-.435.211-.858.373-1.069.344l-.01-.002-.009.002c-.213.029-.634-.133-1.069-.344-.681-.329-1.4-.776-1.4-.776s-.091.009-.226-.009a1 1 0 0 1-.151.171s-1.624.511-2.763 2.301l-.08 1.022s-.246 1.196-.731.258c0 0-.325-.767.404-1.364 0 0 1.693-1.938 2.551-2.775-.357-.373-.615-1.087-.378-2.462 0 0-.934.726-1.486.189 0 0-2.184-1.92-2.358-4.229l-.062.069-.814.344-.081-.43-.65.172-.976 5.115s-1.543 1.705-2.598 1.193l-.732.426-.651-.851-1.055.851.244-.851h-.488s1.382-1.622 2.762-.768l1.869-.17-.486-.769s.81-4.176 1.299-4.348c0 0 1.624-2.046 3.493-2.556l.056-.016c.993-.765 2.475-1.206 3.713-1.515.979-.244 1.808-.405 2.124-.579 0 0 .916-.326-1.95-1.955 0 0-.049-.121-.094-.321a3.2 3.2 0 0 1-.029-1.347c.063-1.576 2.063-2.108 2.063-2.108a.3.3 0 0 0 .039.096c.147.088.496.278.7.293.207-.015.552-.205.701-.293a.3.3 0 0 0 .038-.096s2 .532 2.065 2.108c.111.537.04 1.038-.031 1.347-.047.2-.093.321-.093.321-2.867 1.629-1.949 1.955-1.949 1.955.316.174 1.145.335 2.122.579 1.269.317 2.79.77 3.782 1.57 1.81.569 3.361 2.517 3.361 2.517.486.172 1.299 4.348 1.299 4.348l-.487.769 1.869.17c1.379-.854 2.761.768 2.761.768Z" style="fill:#d52646;fill-opacity:1;fill-rule:nonzero;stroke:none" transform="scale(1.67927 -1.67927)rotate(30 46.6 41.89)"/>
    </g>
    <g id="Mosquito">
        <path d="m0 0-.01-.021-.004-.02C-.021-.09-.696-4.349-1.508-6.043c-.237.979-.867 3.158-1.995 4.436C-5.015.107-6.846 4.006-7.44 9.797l-.002.021-.624 2.039c.059.112.537.998.715 1.331.307-.329 1.882-2.022 1.95-2.091.019-.103.447-2.159.447-2.159l.034-.038C-3.438 7.186.088 2.624.085.498Q.085.218 0 0m-10.819-4.143c-.175-.311-1.505-2.717-1.875-4.155-.566 1.237-1.709 4.069-1.704 6.743 0 .955.146 1.889.521 2.723l.006.014.004.013c.599 2.038 2.346 8.162 2.349 10.268a1.8 1.8 0 0 1-.057.473c.083.123.62.881.84 1.192.249-.321 1.006-1.284 1.077-1.377v-.717c-.003-2.876-.098-12.759-1.161-15.177m-1.569 18.696s.242.967 2.174 1.445c0 0 3.503.963 4.224.115 0 0 .924-.492 1.053-1.258a.9.9 0 0 1 .009-.299c-.024-.229-.126-.476-.338-.736 0 0-2.294.485-3.865-.117 0 0-1.567.608-2.776-.115 0 0-.965-.482-.481.965m4.093-7.584c-.42.006-.741-.037-.991-.112q.012.441.018.858c.831-.344 1.359-.135 1.681.184.068-.43.14-.854.222-1.256-.381.331-.93.326-.93.326m.823-3.721c-.507.522-1.526-.045-1.962-.328q.04.73.068 1.457c.331-.18.635-.268.635-.268.907-.05 1.339.567 1.544 1.082.114-.229.155-.498.155-.764-.002-.517-.153-1.031-.245-1.296a.6.6 0 0 1-.195.117M-4.92 10.7c.169.245.304.527.392.853 0 0 .048.136.111.366q.012-.009.024-.014a44 44 0 0 0 1.959-.909c1.111-.311 1.02.449 1.02.449-.29.236-1.894.909-2.82 1.287q.042.247.077.519.06 0 .132.007c.883.095 2.153.16 2.153.16 1.121.271.671.889.671.889-.346.062-1.902-.109-2.912-.229q0 .304-.038.61c.87.513 2.297 1.375 2.542 1.643 0 0-.02.765-1.073.3 0 0-.934-.643-1.678-1.105-.262.669-.767 1.22-1.666 1.45 0 0-.295.045-.737.086.852 1.665-.268 2.565-.827 2.889 0 0-.417.259-1.018.343l-1.127 11.435.24-11.519-1.32-.743c-.247-.181-.397-.327-.397-.327-.559-1.185-.082-2.116.317-2.62-.546-.198-1.503-.616-2.066-1.283a1 1 0 0 1-.192.078c-.851.267-2.039.716-2.039.716-1.135.199-.97-.547-.97-.547.297-.197 1.839-.679 2.81-.972a1.6 1.6 0 0 1-.028-.739s-.029-.152-.044-.396c-.957.344-2.354.827-2.693.846 0 0-.579-.502.452-1.02 0 0 1.225-.348 2.064-.64q.101-.035.192-.049c.026-.268.076-.561.162-.858-.933-.402-2.406-1.053-2.676-1.281 0 0-.08-.765 1.023-.434a50 50 0 0 0 1.967.954c.197-.352.46-.689.824-.974-.37-2.063-1.23-5.437-2.163-8.606-.396-.899-.554-1.891-.556-2.899-.005-3.592 1.964-7.352 2.071-7.553l.393.137c-.126.68 1.081 3.166 1.923 4.669.293.671.516 1.852.685 3.281.152-.561.33-1.229.472-1.763-.064-.393-.016-.828.031-1.113a1.5 1.5 0 0 1-.356-.834 2 2 0 0 1-.011-.209c-.002-.996.71-2.162 1.292-2.954.144-1.231 2.149-2.913 2.149-2.913-.356.57.658 1.891.658 1.891.516 1.158-.738 2.041-.738 2.041-1.321.685-1.733-.176-1.733-.176a.9.9 0 0 1-.229-.262c-.487.713-.98 1.615-.98 2.363q0 .092.012.172.027.245.137.439c.331-.278 1.218-.993 1.775-1.112.478-.102.928.343 1.159.626l.803-1.226c.281.57-.23 1.104-.657 1.426l.015.021s.155 1.252-.001 1.865c-.16.617-.938.795-.938.795l-1.752.051a.83.83 0 0 1-.369-.257c-.149.56-.303 1.14-.417 1.559 1.238-.804 2.647.391 2.647.391.226 1.633.042 2.504-.192 2.967l.006.004.015.035c.015.037.205.493.296 1.065.83-2.696 1.907-4.626 2.865-5.712 1.382-1.564 2.011-4.72 2.018-4.751l.085-.44.266.362C-.462-5.385.342-.327.375-.105Q.47.156.474.477C.475 3.165-4.173 8.635-4.59 9.119c-.012.061-.198.961-.33 1.581" style="fill:#9da2a9;fill-opacity:1;fill-rule:nonzero;stroke:none" transform="scale(1.67927 -1.67927)rotate(30 86.734 57.578)"/>
        <path d="M0 0a45 45 0 0 0-.856 1.983c-.622.971-1.06.342-1.06.342.083-.521 1.563-3.475 1.563-3.475S.381-.804 0 0" style="fill:#9da2a9;fill-opacity:1;fill-rule:nonzero;stroke:none" transform="scale(1.67927 -1.67927)rotate(30 79.491 61.247)"/>
        <path d="M0 0c.104-.514 1.453-3.808 1.788-4.073.334-.261 1.233-.682.358 1.014C1.274-1.362.787-.187.787-.187S-.104.512 0 0" style="fill:#9da2a9;fill-opacity:1;fill-rule:nonzero;stroke:none" transform="scale(1.67927 -1.67927)rotate(30 67.692 49.658)"/>
        <path d="M0 0s.713.391.288 1.172c-.424.779-.97 1.932-.97 1.932-.674.933-1.075.28-1.075.28C-1.642 2.865 0 0 0 0" style="fill:#9da2a9;fill-opacity:1;fill-rule:nonzero;stroke:none" transform="scale(1.67927 -1.67927)rotate(30 71.235 64.002)"/>
        <path d="M0 0c-1.587 1.055-2.584 1.842-2.584 1.842s-1.122.178-.78-.219c.34-.398 3.125-2.615 3.545-2.682C.602-1.127 1.589-1.055 0 0" style="fill:#9da2a9;fill-opacity:1;fill-rule:nonzero;stroke:none" transform="scale(1.67927 -1.67927)rotate(30 63.17 56.444)"/>
        <path d="M0 0c-.233-.861-.636-2.066-.636-2.066-.157-1.141.581-.95.581-.95C.222-2.564 1.017.643 1.017.643S.233.855 0 0" style="fill:#9da2a9;fill-opacity:1;fill-rule:nonzero;stroke:none" transform="scale(1.67927 -1.67927)rotate(30 51.549 10.176)"/>
        <path d="M0 0c-.356.229-1.291.559-.259-1.045C.774-2.646 1.373-3.769 1.373-3.769s.956-.61.803-.11S.36-.23 0 0" style="fill:#9da2a9;fill-opacity:1;fill-rule:nonzero;stroke:none" transform="scale(1.67927 -1.67927)rotate(30 58.212 13.08)"/>
        <path d="M0 0s-.386 1.213-.604 2.074-1.004.66-1.004.66S-.866-.482-.6-.94c0 0 .74-.206.6.94" style="fill:#9da2a9;fill-opacity:1;fill-rule:nonzero;stroke:none" transform="scale(1.67927 -1.67927)rotate(30 43.576 49.231)"/>
        <path d="M0 0s.558 1.141 1.535 2.779.052 1.276-.298 1.034C.888 3.57-.662.363-.799-.141-.931-.649 0 0 0 0" style="fill:#9da2a9;fill-opacity:1;fill-rule:nonzero;stroke:none" transform="scale(1.67927 -1.67927)rotate(30 54.712 47.002)"/>
        <path d="M0 0s.011-1.271-.033-2.162c-.045-.887.766-.925.766-.925S.97.205.851.721c0 0-.648.413-.851-.721" style="fill:#9da2a9;fill-opacity:1;fill-rule:nonzero;stroke:none" transform="scale(1.67927 -1.67927)rotate(30 89.457 20.359)"/>
        <path d="M0 0s-.467-1.186-1.311-2.893c-.842-1.709.047-1.277.375-1.006.333.268 1.625 3.587 1.72 4.1C.879.717 0 0 0 0" style="fill:#9da2a9;fill-opacity:1;fill-rule:nonzero;stroke:none" transform="scale(1.67927 -1.67927)rotate(30 77.714 21.761)"/>
        <path d="M0 0c-.357.236-.389-.107-.389-.107-2.166-2.895-4.389-3.301-4.389-3.301-.288.132-.301-.123-.301-.123.067-.401.54-.143.54-.143C-2.045-3.486.145-.379.145-.379.369.018 0 0 0 0" style="fill:#9da2a9;fill-opacity:1;fill-rule:nonzero;stroke:none" transform="scale(1.67927 -1.67927)rotate(30 95.784 22.478)"/>
        <path d="M0 0s-1.145-.554-1.968-.894c-.821-.339-.511-1.089-.511-1.089S.6-.787 1.013-.458c0 0 .1.76-1.013.458" style="fill:#9da2a9;fill-opacity:1;fill-rule:nonzero;stroke:none" transform="scale(1.67927 -1.67927)rotate(30 76.167 9.026)"/>
        <path d="M0 0c-1.785-.669-.839-.961-.414-.991C.011-1.02 3.225.514 3.644.826c.422.311-.709.389-.709.389S1.785.672 0 0" style="fill:#9da2a9;fill-opacity:1;fill-rule:nonzero;stroke:none" transform="scale(1.67927 -1.67927)rotate(30 73.097 13.23)"/>
        <path d="M0 0c-3.611.163-5.198 1.775-5.198 1.775-.053.311-.27.18-.27.18-.293-.281.183-.528.183-.528C-3.727-.529.075-.594.075-.594c.454.037.231.333.231.333C.301.167 0 0 0 0" style="fill:#9da2a9;fill-opacity:1;fill-rule:nonzero;stroke:none" transform="scale(1.67927 -1.67927)rotate(30 80.626 3.953)"/>
        <path d="M0 0s-2.264.048-4.858 2.562c0 0-.084.333-.399.045 0 0-.371-.041-.087-.397 0 0 2.656-2.724 5.148-2.512 0 0 .506-.177.511.227 0 0-.053.249-.315.075" style="fill:#9da2a9;fill-opacity:1;fill-rule:nonzero;stroke:none" transform="scale(1.67927 -1.67927)rotate(30 83.978 73.541)"/>
        <path d="M0 0s-.152.202-.317-.066c0 0-2.068-.916-5.485.254 0 0-.22.267-.383-.128 0 0-.316-.193.093-.394 0 0 3.559-1.338 5.728-.089 0 0 .533.056.364.423" style="fill:#9da2a9;fill-opacity:1;fill-rule:nonzero;stroke:none" transform="scale(1.67927 -1.67927)rotate(30 67.796 77.086)"/>
        <path d="M0 0s2.066-.921 3.484-4.244c0 0-.05-.34.353-.196 0 0 .355-.106.23.334 0 0-1.39 3.536-3.77 4.31 0 0-.399.358-.559-.012 0 0-.049-.251.262-.192" style="fill:#9da2a9;fill-opacity:1;fill-rule:nonzero;stroke:none" transform="scale(1.67927 -1.67927)rotate(30 42.41 1.376)"/>
        <path d="M0 0c.416-.089.321.241.321.241.956 3.485 2.878 4.678 2.878 4.678.315-.016.235.225.235.225-.209.346-.556-.065-.556-.065C.626 3.992-.273.298-.273.298-.338-.153 0 0 0 0" style="fill:#9da2a9;fill-opacity:1;fill-rule:nonzero;stroke:none" transform="scale(1.67927 -1.67927)rotate(30 38.433 44.92)"/>
    </g>
    <g id="Pillbug">
        <path d="M0 0s-.638-.008-.537.265c.098.27.065.809.32.856 0 0 .382.096.749-.913C.532.208.458-.018 0 0" style="fill:#4dc3bb;fill-opacity:1;fill-rule:nonzero;stroke:none" transform="scale(1.67927 -1.67927)rotate(30 112.83 41.934)"/>
        <path d="M0 0s.636.007.532.276c-.105.269-.087.809-.341.851 0 0-.384.085-.729-.931 0 0 .079-.224.538-.196" style="fill:#4dc3bb;fill-opacity:1;fill-rule:nonzero;stroke:none" transform="scale(1.67927 -1.67927)rotate(30 110.475 50.346)"/>
        <path d="m0 0-.111.143S-1.585.028-2.122-.506l-.114.192s-4.959-.83-5.946-.455l-.052-.241-.602.042s-1.3-1.028-1.51-1.657c-.213-.63-.053-.146-.053-.146s-1.088-.3-1.08-1.072l-.489-.198-.089-.876-.302-.239-.545.044.047.48-.33.144-.112.001-.031.045-.829-.034-.829.015-.029-.046-.114-.005-.325-.147.06-.482-.546-.055-.284.215-.11.891-.493.187c-.009.771-1.104 1.047-1.104 1.047s.169-.48-.058.144c-.225.624-1.547 1.623-1.547 1.623l-.6-.056-.056.242c-.979-.398-5.956.319-5.956.319l-.108-.196c-.553.525-2.026.604-2.026.604l-.11-.145c-.989.616-2.295.216-2.295.216.01-.869 2.247-.699 2.247-.699l.222-.383c.059-.336 1.857.021 1.857.021l.166-.191c.223-.48 5.738-.274 5.738-.274l.271.151c-.158-.63 1.93-1.667 1.93-1.667-.431-.585.83-.957.83-.957l-.217-.243.041-.435-.036.002-.754-.974.221-.238s-1.299-.931-.529-1.357c0 0 .245-.128.598-.209a3.6 3.6 0 0 1 1.386.149q.101.056.199.134l.077.001q.227.106.453.189l.013.009a5 5 0 0 0 1.223.285l.098.01q.042.005.088.008l.063.003q.05.006.101.007l.058.004.102.004.081.001h.078l.101-.001.061-.002q.05 0 .1-.004.03-.003.066-.002l.086-.007.097-.007.052-.006c.716-.072 1.178-.252 1.178-.252l.013-.01q.229-.075.458-.178l.138.002a1.5 1.5 0 0 1 .264-.163 3.4 3.4 0 0 1 1.393-.065c.314.088.528.204.528.204.758.442-.562 1.344-.562 1.344l.215.244-.774.955-.016-.001.031.435-.222.239s1.252.399.81.973c0 0 2.062 1.084 1.891 1.71l.275-.142s5.516-.082 5.73.402l.161.194s1.805-.316 1.857.022l.213.389s2.242-.121 2.231.747C2.291.266.977.636 0 0" style="fill:#4dc3bb;fill-opacity:1;fill-rule:nonzero;stroke:none" transform="scale(1.67927 -1.67927)rotate(30 28.398 51.303)"/>
        <path d="m0 0 .574 1.229s-.015.41-.391.124L-.549.621a10.7 10.7 0 0 1-1.88 1.549S-1.863.393-3.616.759c0 0-.789-.175-1.719.148l-.004.027a6 6 0 0 1-.559.225l-.015.008s-.461.181-1.176.253l-.055.005-.096.008-.086.005-.066.004-.1.003-.06.001-.103.003q-.035-.002-.078-.002l-.08-.001-.1-.003-.06-.003-.099-.005-.067-.005-.087-.007-.095-.012-.055-.006a5 5 0 0 1-1.168-.278l-.016-.009a5 5 0 0 1-.555-.24l-.002-.026c-.922-.344-1.717-.186-1.717-.186-1.743-.406-1.216 1.385-1.216 1.385A10.7 10.7 0 0 1-14.861.497l-.708.678c-.381.277-.39-.131-.39-.131l.573-1.159c-1.774-2.254-1.904-4.44-1.904-4.44.102.724 1.73 1.563 1.73 1.563.199-.022.436-.039.701-.053.238-.039.394-.079.394-.079.384-.128.948-.214 1.622-.265 1.581-.413 3.492-.486 5.169-.43 1.679-.017 3.586.098 5.159.547.672.067 1.236.166 1.619.3 0 0 .154.043.393.089.263.02.498.042.697.068 0 0 1.647-.8 1.763-1.523 0 0-.175 2.146-1.957 4.338" style="fill:#4dc3bb;fill-opacity:1;fill-rule:nonzero;stroke:none" transform="scale(1.67927 -1.67927)rotate(30 48.624 43.882)"/>
        <path d="m0 0 .474-.137c.178.39.414.783.719 1.153C.811.78.252.395 0 0" style="fill:#4dc3bb;fill-opacity:1;fill-rule:nonzero;stroke:none" transform="scale(1.67927 -1.67927)rotate(30 66.73 14.433)"/>
        <path d="M0 0c.321-.368.569-.765.759-1.155l.473.149C.977-.613.396-.23 0 0" style="fill:#4dc3bb;fill-opacity:1;fill-rule:nonzero;stroke:none" transform="scale(1.67927 -1.67927)rotate(30 55.604 46.975)"/>
        <path d="m0 0-.657-.206-.078-.023-.474-.149A5.2 5.2 0 0 1-1.968.777 8 8 0 0 1-2.375 1a13 13 0 0 0-.698-.07c-.24-.045-.394-.087-.394-.087C-3.848.705-4.412.608-5.084.54c-1.571-.449-3.48-.561-5.158-.546-1.679-.055-3.588.017-5.168.43-.674.054-1.24.138-1.625.265 0 0-.155.039-.395.079-.264.014-.501.033-.7.053 0 0-.171-.088-.406-.231a5.2 5.2 0 0 1-.72-1.152l-.473.136-.087.026-.593.171c-.487.078-.268-.282-.268-.282l1.146-.767c-.311-.982-.303-1.777-.303-1.777.481.969 1.79 1.033 1.79 1.033.29-.121.835-.203 1.535-.256.322-.064.704-.11 1.129-.143 1.581-.412 3.491-.484 5.17-.43 1.678-.015 3.585.097 5.158.546.423.043.805.099 1.123.167.701.072 1.245.167 1.531.292 0 0 1.31-.034 1.812-.991 0 0-.008.77-.326 1.727l1.184.836S.484.089 0 0" style="fill:#4dc3bb;fill-opacity:1;fill-rule:nonzero;stroke:none" transform="scale(1.67927 -1.67927)rotate(30 56.07 51.036)"/>
        <path d="M0 0c-.32-.07-.7-.123-1.124-.166-1.573-.449-3.48-.563-5.158-.546-1.678-.056-3.588.016-5.17.43-.425.033-.806.078-1.127.14-.702.056-1.247.14-1.537.258 0 0-.352-.017-.757-.169l-.076-.091-.037-.004a3.3 3.3 0 0 1-.644-.985c-.925-1.636-.409-2.583-.409-2.583.476 1.308 2.998.661 2.998.661.385-.129.951-.213 1.624-.265 1.579-.414 3.491-.486 5.17-.429 1.676-.019 3.585.098 5.157.546.673.066 1.236.163 1.618.301 0 0 2.504.704 3.009-.593 0 0 .495.958-.465 2.572a3.3 3.3 0 0 1-.667.971l-.039.004c-.02.028-.05.059-.076.088a2.8 2.8 0 0 1-.763.152C1.246.167.699.072 0 0" style="fill:#4dc3bb;fill-opacity:1;fill-rule:nonzero;stroke:none" transform="scale(1.67927 -1.67927)rotate(30 63.639 45.228)"/>
        <path d="M0 0c.158-.214.282-.437.379-.659L.68-.46C.521-.229.277-.086 0 0" style="fill:#4dc3bb;fill-opacity:1;fill-rule:nonzero;stroke:none" transform="scale(1.67927 -1.67927)rotate(30 69.14 52.206)"/>
        <path d="m0 0 .296-.187q.133.32.35.631C.383.356.155.219 0 0" style="fill:#4dc3bb;fill-opacity:1;fill-rule:nonzero;stroke:none" transform="scale(1.67927 -1.67927)rotate(30 79.67 17.736)"/>
        <path d="m0 0-2.058-.071h-.016l-.197-.131-.301-.199a3.4 3.4 0 0 1-.379.659C-3.867.537-5.166.172-5.166.172c-.382-.134-.944-.233-1.618-.301-1.571-.449-3.479-.561-5.159-.546-1.677-.054-3.586.017-5.168.429-.672.053-1.239.138-1.623.266 0 0-1.307.335-2.217.036a3.4 3.4 0 0 1-.35-.631l-.296.186-.151.096h-.091l-1.983.023c-.49-.05-.16-.336-.16-.336l2.438-.778c-.136-.718-.055-1.281-.055-1.281.487.44-.223.433 1.029.735 1.253.304 3.175-.736 3.175-.736 1.638-.488 3.692-.574 5.481-.516 1.791-.017 3.842.114 5.468.64 0 0 1.899 1.082 3.158.808 1.26-.277.55-.284 1.047-.711 0 0 .067.55-.08 1.254l2.489.856S.491-.041 0 0" style="fill:#4dc3bb;fill-opacity:1;fill-rule:nonzero;stroke:none" transform="scale(1.67927 -1.67927)rotate(30 68.146 57.842)"/>
        <path d="M0 0c-1.259.274-3.158-.807-3.158-.807-1.625-.528-3.678-.659-5.467-.64-1.789-.059-3.845.026-5.481.517 0 0-1.924 1.038-3.176.735s-1.033-.699-1.039-.637c-.366-.729-.082-1.739-.082-1.739.924.493 4.983-1.002 4.983-1.002 1.487-.48 3.243-.572 4.824-.507 1.583-.027 3.335.103 4.813.614 0 0 4.024 1.587 4.957 1.116 0 0 .263 1.015-.119 1.739C1.05-.674 1.259-.274 0 0" style="fill:#4dc3bb;fill-opacity:1;fill-rule:nonzero;stroke:none" transform="scale(1.67927 -1.67927)rotate(30 74.641 53.026)"/>
        <path d="M0 0a.2.2 0 0 0 .039.022C.02.026.001.024-.017.026Q-.007.016 0 0" style="fill:#4dc3bb;fill-opacity:1;fill-rule:nonzero;stroke:none" transform="scale(1.67927 -1.67927)rotate(30 80.144 56.069)"/>
        <path d="m0 0-2.496.221c-.012-.067-.023-.104-.023-.104a.9.9 0 0 1-.36.081.2.2 0 0 1-.039-.022q-.008.015-.017.026C-4.296.255-7.475-1-7.475-1c-1.479-.51-3.23-.642-4.813-.614-1.581-.063-3.335.03-4.825.505 0 0-4.058 1.499-4.982 1.006l-.022.093-2.419-.265s-.396-.216.071-.363l2.028-.379.318.118q-.012-.037-.02-.072c-.104-.485.08-2.217.08-2.217 1.521.595 6.182-1.041 6.182-1.041a24 24 0 0 1 3.621-.219c1.045.005 2.256.087 3.614.302 0 0 4.622 1.739 6.158 1.177 0 0 .144 1.738.031 2.221l-.033.102.403-.14 2.022.423C.399-.206 0 0 0 0" style="fill:#4dc3bb;fill-opacity:1;fill-rule:nonzero;stroke:none" transform="scale(1.67927 -1.67927)rotate(30 79.013 61.601)"/>
        <path d="m0 0-3.223 1.074-.06-.009c.072.601.066 1.145-.138 1.359 0 0-.009.174-.108.403-1.903.069-5.509-1.286-5.509-1.286a23 23 0 0 0-3.612-.302 24 24 0 0 0-3.622.22s-3.636 1.274-5.532 1.161c-.095-.23-.1-.405-.1-.405-.199-.216-.194-.758-.109-1.357l-3.183-1.142s-.396-.374.206-.43l2.538.091.644.447c.158-.651.325-1.173.325-1.173.969 1.313 4.141.915 4.141.915 1.581-.224 3.238-.267 4.712-.232 1.477-.002 3.132.079 4.707.338 0 0 3.162.469 4.16-.821 0 0 .163.549.308 1.223l.718-.474 2.541-.034C.404-.365 0 0 0 0" style="fill:#4dc3bb;fill-opacity:1;fill-rule:nonzero;stroke:none" transform="scale(1.67927 -1.67927)rotate(30 91.042 65.633)"/>
        <path d="M0 0c-1.575-.259-3.231-.341-4.706-.336-1.477-.036-3.131.007-4.714.231 0 0-2.342.292-3.616-.459.317-.86.747-1.647.747-1.647.442-.672.765-.04.765-.04.587 1.02 2.394.557 2.394.557a10 10 0 0 1 1.045-.298c.998-.296 2.343-.608 3.44-.555 1.099-.029 2.435.314 3.426.633.393.1.754.208 1.038.321 0 0 1.795.503 2.41-.504 0 0 .334-.624.762.057 0 0 .4.778.697 1.629C2.411.357 0 0 0 0" style="fill:#4dc3bb;fill-opacity:1;fill-rule:nonzero;stroke:none" transform="scale(1.67927 -1.67927)rotate(30 97.231 51.465)"/>
        <path d="m0 0-.003-.008C-.001-.008 0-.008 0 0" style="fill:#4dc3bb;fill-opacity:1;fill-rule:nonzero;stroke:none" transform="scale(1.67927 -1.67927)rotate(30 86.966 19.705)"/>
        <path d="m0 0-.003.006Q-.005-.003 0 0" style="fill:#4dc3bb;fill-opacity:1;fill-rule:nonzero;stroke:none" transform="scale(1.67927 -1.67927)rotate(30 76.881 55.76)"/>
        <path d="M0 0a.9.9 0 0 0 .36-.081s.011.037.023.103l-.29.024A.3.3 0 0 1 0 0" style="fill:#4dc3bb;fill-opacity:1;fill-rule:nonzero;stroke:none" transform="scale(1.67927 -1.67927)rotate(30 80.083 56.13)"/>
        <path d="m0 0-.021.042-2.645 1.923h-.002q-.025.006-.052.007l-.083.003q.043.074.082.16c-.122.169-.281.29-.458.373l-.003.002c-.029.013-.057.028-.09.037l-.001.002a1 1 0 0 1-.087.033l-.005.002q-.048.015-.092.025l-.006.003-.091.023q-.004-.001-.007.001-.046.007-.09.018h-.009q-.044.008-.089.013h-.011l-.089.012h-.009l-.089.005-.012.002-.085.002h-.11l-.079-.001-.018-.001-.074-.004-.018-.002q-.036 0-.07-.004l-.022-.004-.064-.006-.025-.002-.056-.005a.1.1 0 0 0-.028-.004l-.048-.009-.033-.003-.04-.006-.039-.007-.026-.005-.047-.009q-.008 0-.014-.003a3 3 0 0 1-.224-.05 9 9 0 0 0-1.037-.321c-.929-.301-2.161-.619-3.218-.635-.07 0-.14-.002-.209.002-.067-.005-.14-.005-.208-.006-1.057-.008-2.296.283-3.231.561a9 9 0 0 0-1.044.299s-.086.021-.226.043q-.009.004-.015.004l-.046.008-.028.004-.038.005-.041.006-.031.003c-.018.004-.032.004-.05.007q-.014 0-.026.002l-.059.006-.022.002-.066.005-.02.002-.071.003h-.019l-.075.003-.017-.001q-.039.002-.079.001h-.014l-.083-.003h-.013q-.041.001-.087-.004l-.009-.001-.089-.009h-.01l-.09-.011h-.007l-.091-.017h-.007q-.049-.012-.092-.019-.001-.002-.008-.002l-.09-.025-.004-.001-.091-.029-.004-.003q-.044-.015-.088-.034l-.004-.002q-.043-.016-.087-.039l-.002-.002a1.2 1.2 0 0 1-.449-.386q.04-.08.082-.158-.038 0-.08-.004l-.054-.006h-.001l-2.599-1.983s-.011-.015-.023-.043c-.039-.092-.106-.31.154-.315a.7.7 0 0 1 .174.02l2.301.817.304.39.315.407c.17-.298.341-.423.503-.443.5.052.904 1.041.904 1.041.048.054.097.096.141.136.052.099.153.22.385.23a.4.4 0 0 0 .154.012.34.34 0 0 0 .237-.053c.736-.162.035-.678.035-.678-.924-.504-.508-1.919-.44-1.987l.032-.033c.202-.192.39-.264.551-.272.279.021.46.22.46.22.081.824.58 1.303.58 1.303.079.062.152.074.217.061l.003.001.004-.002c.128-.029.701-.599.961-.901.168-.24.288-.439.288-.439.293-1.066.902-1.166 1.162-1.157l.02-.001.056.006c.015 0 .027-.002.044-.004l.042.006.059-.005h.018c.263-.002.868.111 1.138 1.184 0 0 .114.202.277.444.25.304.798.893.944.926h.003A.2.2 0 0 0-6.942.7h.003c.041-.008.128-.06.128-.06.216-.13.515-.458.613-1.288 0 0 .186-.195.468-.209.16.011.347.086.544.283.01.012.022.021.032.035.066.068.45 1.494-.484 1.976 0 0-.715.5.018.678.056.039.134.07.237.06a.4.4 0 0 0 .156-.01c.23-.005.334-.123.386-.221q.07-.058.146-.132s.425-.982.927-1.02c.163.021.33.151.492.454l.324-.4.313-.384 2.318-.763a.7.7 0 0 1 .175-.018C.114-.308.042-.091 0 0" style="fill:#4dc3bb;fill-opacity:1;fill-rule:nonzero;stroke:none" transform="scale(1.67927 -1.67927)rotate(30 104.153 63.136)"/>
    </g>
    <g id="Queen">
        <path d="M0 0s-2.393-1.812-6.729-2.892L.545.449Q.281.238 0 0m-7.758-2.43c-3.961 2.559-7.777-.073-7.777-.073l-.315.496c.342 1.565 2.077 2.77 4.174 2.787 2.129.019 3.908-1.19 4.237-2.787zM-22.867-.29c-.194.157-.375.301-.557.436l7.338-3.206c-4.355 1.001-6.781 2.77-6.781 2.77M7.422 8.688S5.441 9.983 1.154 7.509c0 0-6.238-6.553-8.715-8.805l.153.202A3 3 0 0 1-7.943.071c.146.161.297.382.341.651 0 0 .596 1.22.897 1.457 0 0 .25.592.242 1.101 0 0 1.053 1.217 1.092 2.56 0 0 .139 1.372.389 1.651 0 0-.153.31-.104.43l.201.003-.049.118.301.079-.053.193.303.16.151.081-.102.118.254.041-.152.155.302.002.2.159.353.081-.002.117-.25-.002-.303-.08.047.157-.205.186-.4-.426-.557-.042.106-.316-.555-.281.103-.428-.248-.043.102-.193-.354-.28.008-.666s-.045-.587-.244-.981c0 0-.705-.479-.641-1.97 0 0-.396-1.059-1.048-1.654 0 0-.299-.787-.344-.984-.012-.045-.022-.074-.022-.088-.068-.045-.316-.206-.486-.346q-.081.06-.168.118c.16.269.246.559.244.87-.008.771-.572 1.444-1.418 1.83.215.587.567 2.199.567 2.199.232.274 1.675 2.854 1.675 2.854-.328.057-1.736-2.53-1.736-2.53-.115-.077-.613-2.086-.699-2.437a4.1 4.1 0 0 1-1.5.258 4.2 4.2 0 0 1-1.326-.227c-.11.414-.627 2.329-.74 2.401 0 0-1.454 2.561-1.782 2.501 0 0 1.49-2.555 1.729-2.825 0 0 .363-1.542.59-2.151-.93-.39-1.555-1.11-1.547-1.929.004-.323.107-.627.281-.903-.068-.05-.139-.1-.205-.156-.152.144-.492.355-.576.406-.002.019-.01.045-.022.09-.051.197-.361.98-.361.98-.664.582-1.08 1.634-1.08 1.634.037 1.494-.674 1.955-.674 1.955-.209.392-.264.978-.264.978l-.007.669-.356.272.1.196-.25.034.095.435-.56.268.098.317-.557.031-.408.421-.198-.189.049-.157-.303.075-.253-.004v-.116l.353-.075.205-.155h.305l-.151-.157.25-.034-.095-.12.148-.075.307-.157-.047-.196.303-.073-.051-.118h.205c.051-.118-.096-.432-.096-.432.252-.273.418-1.643.418-1.643.065-1.341 1.137-2.54 1.137-2.54.002-.509.262-1.096.262-1.096.306-.232.925-1.442.925-1.442.061-.331.28-.588.461-.747a3.5 3.5 0 0 1-.253-.458 3 3 0 0 1-.147-.433c-2.769 2.524-8.363 8.189-8.363 8.189-4.33 2.396-6.285 1.066-6.285 1.066-1.272-3.447 2.42-6.202 2.488-6.254-.276-.114-.371-.286-.371-.286-.922-1.695 2.949-4.566 2.949-4.566.23-.231 1.762-.462 3.637-.663-.91-.017-.348-.243-.348-.243-.367-1.035 1.139-1.583 1.139-1.583.23-.17 2.902.174 4.924.468l.031-.122a1.9 1.9 0 0 1-.904-.639s-1.29-1.078-1.704-1.194c0 0-.587-.543-.906-1.119 0 0-1.687-.847-2.568-2.338 0 0-.994-1.478-1.383-1.667 0 0-.066-.425-.184-.533l-.175.099-.03-.157-.314.058-.08-.247-.362-.032-.181-.011.012-.185-.247.078.039-.25-.265.148-.276-.079-.361.081-.072-.132.219-.119.316-.062-.143-.151.061-.309.615.282.514-.228.109.406.657.039.181.535.246-.08.033.271.483.142.416.749s.412.639.834.984c0 0 .914.192 1.805 1.895 0 0 1.011 1.002 1.957 1.346 0 0 .755.738.923.934.038.047.061.075.073.094.152.026.927.172.894.295l.033.552c.688-1.025 2.299-1.736 4.168-1.721 2 .02 3.686.863 4.258 2.016l.069-.847c-.036-.123.748-.258.896-.279.014-.02.035-.045.076-.095.17-.191.942-.917.942-.917.947-.327 1.982-1.309 1.982-1.309.92-1.688 1.836-1.863 1.836-1.863.426-.335.852-.969.852-.969l.431-.743.483-.131.039-.268.244.084.193-.533.658-.029.116-.401.505.234.624-.268.054.309-.144.151.312.061.221.129-.074.132-.362-.091-.275.075-.262-.152.028.251-.243-.083.012.18-.182.015-.365.022-.084.242-.31-.062-.035.157-.172-.101c-.121.107-.194.53-.194.53-.396.183-1.412 1.64-1.412 1.64-.912 1.476-2.609 2.29-2.609 2.29-.33.571-.93 1.103-.93 1.103-.412.113-1.724 1.166-1.724 1.166-.34.442-.829.608-1.073.666q.048.14.069.286c2.054-.265 5.041-.611 5.283-.426 0 0 1.496.578 1.109 1.605 0 0 .557.234-.351.239 1.871.236 3.392.492 3.623.725 0 0 3.816 2.944 2.863 4.619 0 0-.098.17-.375.283.064.045 3.709 2.87 2.379 6.296" style="fill:#f5a91e;fill-opacity:1;fill-rule:nonzero;stroke:#dd9b1e;stroke-width:.55;stroke-linecap:butt;stroke-linejoin:miter;stroke-miterlimit:2;stroke-dasharray:none;stroke-opacity:1" transform="scale(1.67927 -1.67927)rotate(30 58.861 55.383)"/>
        <path d="m0 0-.238-.252c-5.336-5.706-9.155.729-9.155.729a8 8 0 0 0-.152 1.484 7.9 7.9 0 0 0 .373 2.474s.076-5.414 4.483-2.41c0 0 3.933-2.745 4.414 1.805l.111.634s.103-.242.162-.516h.006A7.7 7.7 0 0 0 .25 2.052 7.6 7.6 0 0 0 0 0m3.809-4.952-.305-.005.15.204-.254.05.102.152-.154.099-.305.2.049.256-.305.099.049.152-.203-.002c-.053.148.097.557.097.557-.255.352-.421 2.122-.421 2.122C2.238.664 1.16 2.208 1.16 2.208c-.004.658-.265 1.416-.265 1.416-.305.301-.926 1.865-.926 1.865a1.8 1.8 0 0 1-.147.479 3.1 3.1 0 0 0-.547-.926.3.3 0 0 0 .049-.041c-3.465-2.526-6.666-.81-7.879.041-.33.08-.533.363-.687.716a5 5 0 0 0-.137.344 1.7 1.7 0 0 1-.209-.622s-.592-1.575-.894-1.879c0 0-.245-.763-.239-1.42 0 0-1.05-1.567-1.086-3.3 0 0-.134-1.773-.384-2.127 0 0 .156-.406.107-.559l-.203-.003.053-.15-.303-.103.051-.253-.299-.205-.151-.102.102-.15-.254-.054.154-.198-.304-.006-.2-.204-.353-.104.002-.152.254.004.299.101-.047-.202.205-.238.4.548.555.053-.104.406.553.361-.107.555.256.05-.104.256.35.355-.008.861s.043.759.242 1.268c0 0 .705.612.635 2.535 0 0 .176.615.486 1.249a7 7 0 0 1-.021-.666l.002-.068q-.002-.023 0-.053c.029-3.487 2.42-6.295 5.338-6.267C-1.691-4.355.65-1.504.619 1.982l-.002.065v.073c.158-.385.248-.672.248-.672-.031-1.923.682-2.522.682-2.522.207-.507.264-1.266.264-1.266l.007-.859.358-.351-.098-.255.254-.048-.098-.556.561-.35-.098-.406.557-.045.412-.542.197.243-.05.2.302-.099.256.005-.004.15-.355.099z" style="fill:#f5a91e;fill-opacity:1;fill-rule:nonzero;stroke:#dd9b1e;stroke-width:.55;stroke-linecap:butt;stroke-linejoin:miter;stroke-miterlimit:2;stroke-dasharray:none;stroke-opacity:1" transform="scale(1.67927 -1.67927)rotate(30 86.896 49.552)"/>
    </g>
    <path id="Spider" d="M0 0c-.25-.004-.455.135-.459.311-.004.177.195.322.445.328C.234.645.441.506.443.33.447.152.248.008 0 0m-3.836-.111c-.391-.006-.709.101-.713.248-.002.144.313.267.699.277.391.006.709-.103.711-.248.004-.145-.31-.27-.697-.277m-2.775.66c-.254-.154-.746.338-.746.338-.075.133.066.556.066.556.158.08.906-.257.906-.257.147-.235-.226-.637-.226-.637m-1.198-1.811s1.051-1.39.053-3.076c0 0-2.898-2.996-6.414.149 0 0-.654.888.078 2.951 0 0 2.871-2.901 6.283-.024m1.955-.134.797-.624c-.218-.009-.562-.603-.562-.603l-.389.771zm2.2-2.618c.209.041.476-.412.593-1.011.118-.598.043-1.12-.168-1.161-.21-.041-.476.413-.595 1.014-.119.598-.041 1.117.17 1.158m1.304-5.131s.385-1.308.051-1.566l-.447.232-.147 1.465s.291.108.543-.131m-13.396 7.606-.609-.772s-.151.76-.36.827l.959.5zm-2.418-3.041c-.193-.578-.518-.992-.721-.926-.203.069-.213.594-.017 1.174.191.58.515.994.718.926.205-.067.213-.592.02-1.174m-1.697-5.047-.473-.176c-.303.295.238 1.547.238 1.547.28.205.555.065.555.065zm5.279 10.846s-.477-.492-.756-.369c0 0-.42.351-.287.58 0 0 .756.369.928.308 0 0 .181-.388.115-.519M-18.123.062c-.391-.007-.709.102-.715.249 0 .142.311.267.703.275.389.006.707-.104.709-.246.004-.145-.308-.268-.697-.278m-3.834.063c-.246-.01-.457.133-.465.32-.008.188.184.35.436.364.246.009.455-.133.466-.323.008-.187-.187-.349-.437-.361m2.795 3.592c-.172-.164-.652.058-1.076.496-.428.439-.633.932-.461 1.096.172.166.654-.055 1.08-.497.426-.437.631-.931.457-1.095m-3.686 4.349c-.16-.177-.656.014-1.109.422-.455.408-.695.885-.533 1.061.158.178.654-.012 1.109-.422.451-.408.692-.883.533-1.061m8.452-3.562c-.417-.078-1.125 1.088-1.125 1.088-.008.345.267.488.267.488l.986-1.09zm-2.262 3.006c-.213-.018-.428.463-.479 1.072s.08 1.117.295 1.135c.215.017.428-.461.481-1.072.05-.608-.082-1.116-.297-1.135m9.668-.807s.295-.099.34-.441c0 0-.526-1.258-.946-1.246l-.205.463zm.633 2.58c-.051.608.082 1.115.295 1.135.214.018.427-.463.48-1.072.049-.608-.08-1.116-.297-1.133-.213-.018-.426.463-.478 1.07m3.06-2.996c.227.565.59.955.809.867.222-.088.218-.619-.01-1.185-.227-.571-.588-.959-.809-.871-.224.091-.216.621.01 1.189m2.106 5.402c.296.534.707.872.912.756.207-.117.136-.644-.162-1.179-.299-.534-.711-.87-.918-.754s-.133.644.168 1.177m4.746-9.843S1.76.85.557.719c0 0-.725.345-1.172-.006 0 0-2.145-.551-2.328-.221 0 0-.93.338-1.754.094 0 0-1.004 1.043-1.451.691 0 0-1.069.582-1.313.448l-.625.38c-.016.01-.027.022-.043.034l.549.297s2.994-.168 3.711.857c0 0 1.246 1.978 1.562 2.217 0 0 .655 1.222.448 1.722 0 0 .644 3.018 1.105 2.95 0 0 1.481 2.322 1.111 2.377 0 0 2.922 3.888 3.338 4.271-.42-.322-3.902-3.01-4.023-3.791 0 0-1.399-.545-1.83-3.402 0 0-.367-1.83-.477-1.908 0 0-.939-.614-1.287-2.922 0 0-2.873-1.547-4.057-1.276l-.011-.008c-.074.03-.151.065-.221.096.244.611.387.889.387.889.916.078 2.332 3.099 2.332 3.099.394 1.604 0 3.092 0 3.092.564 1.483-.74 5.772-.74 5.772-3.227 7.379-3.975 5.261-3.975 5.261 1.07-.22 2.027-2.259 2.584-3.722.109-.49.277-1.117.504-1.467l.008-.025c.179-1.289.685-5.485.685-5.485-.697-3.365.783-2.763-.195-3.304-.983-.543-1.203-2.26-1.865-2.417-.358-.082-.561-.455-.668-.779a25 25 0 0 1-.332.658c.506.332 1.211.83 1.207 1.028-.01.299.574 1.861.095 1.943-.474.086-.517-.158-.517-.158s-.028-.852-.092-1.219c-.049-.293-.564-.81-.947-1.115-.194.355-.324.58-.324.58-.885.285-1.614-.027-1.614-.027-.15-.241-.287-.465-.418-.684-.265.348-.74 1.227-.687 1.58.058.369.308 1.184.308 1.184s.037.246-.439.32c-.477.072-.434-1.59-.539-1.875-.088-.232.769-1.312 1.072-1.691a19 19 0 0 1-.459-.834c-.146.33-.42.783-.846.814-.675.051-1.152 1.721-2.203 2.108-1.05.386.504.013-.693 3.238 0 0-.131 4.224-.145 5.525 0 0 .024.192.075.498.134.53.302 1.25.367 1.746.359 1.422.959 3.051 1.834 3.375 0 0-1.057 1.985-3.139-5.798 0 0-.646-4.434.137-5.819 0 0-.168-1.529.461-3.056 0 0 1.859-2.772 2.779-2.713 0 0 .08-.118.236-.37l-.185.057c-1.02-.67-4.25-.219-4.25-.219-1.129 2.039-2.225 2.289-2.225 2.289-.127.036-1.111 1.623-1.111 1.623-1.4 2.53-2.9 2.551-2.9 2.551-.385.692-4.594 2-5.094 2.155.523-.211 4.619-2.84 4.619-2.84-.328-.18 1.869-1.844 1.869-1.844.41.227 2.063-2.377 2.063-2.377-.02-.545 1.019-1.463 1.019-1.463.381-.107 2.235-1.535 2.235-1.535 1.033-.707 3.779.49 3.779.49l.558-.078c0-.004-.002-.006-.002-.014a2 2 0 0 1-.466-.269L-14.529 2c-.25.131-1.305-.475-1.305-.475-.453.346-1.436-.72-1.436-.72-.826.226-1.751-.131-1.751-.131-.172-.33-2.334.172-2.334.172-.452.343-1.168-.018-1.168-.018-1.207.109-3.024 1.063-3.024 1.063l-.752-.024c.514-1.43 3.516-1.535 3.516-1.535.072-.459.906-.475.906-.475.129.247 3.258-.027 3.258-.027.455-.133 1.922.256 1.922.256.748-.184 1.22.516 1.22.516.457-.133 1.047.396 1.047.396l.578.18c.077-.405.36-.401.36-.401l.109.004a4 4 0 0 1-.435-.383l-.489-.152a12 12 0 0 0-.738-.762c-.883.254-3.293-2.056-3.293-2.056-.943-1.358-1.105-2.887-1.105-2.887-1.063-1.182-1.381-5.652-1.381-5.652.363-8.047 1.82-6.336 1.82-6.336-1.447.926-1.017 5.978-1.017 5.978a561 561 0 0 0 1.326 5.362c1.857 2.894.261 2.861 1.369 3.015 1.037.145 1.826 1.488 2.472 1.584-.224-.947-.195-2.168.274-3.746 0 0 .369-4.203 3.09-4.91 0 0 2.42-.859 3.972 5.029 0 0 .799 1.58.694 3.223.674.002 1.303-1.606 2.381-1.895 1.084-.295-.498-.058.984-3.166 0 0 .516-4.193.648-5.486 0 0-.203-5.064-1.753-5.807 0 0 1.234-1.877 2.595 6.063 0 0 .239 4.478-.666 5.783 0 0 .028 1.537-.738 3 0 0-2.104 2.594-3.01 2.451 0 0-.222.252-.642.848l-.514.238-.02-.051a3.4 3.4 0 0 1-1.045.862l.299.009.762-.22s.606-.514 1.057-.371c0 0 .488-.69 1.232-.492 0 0 1.475-.354 1.932-.213 0 0 3.115.336 3.25.091 0 0 .834.034.898.498 0 0 2.998.165 3.485 1.604z" style="fill:#a4572a;fill-opacity:1;fill-rule:nonzero;stroke:#ca642f;stroke-width:.187;stroke-linecap:butt;stroke-linejoin:miter;stroke-miterlimit:4;stroke-dasharray:none;stroke-opacity:1" transform="scale(1.67926 -1.67926)rotate(30 68.899 56.952)"/>
</svg>
