<svg xmlns="http://www.w3.org/2000/svg" width="89.877" height="100">
    <path d="M0 0s-.638-.008-.537.265c.098.27.065.809.32.856 0 0 .382.096.749-.913C.532.208.458-.018 0 0" style="fill:#4dc3bb;fill-opacity:1;fill-rule:nonzero;stroke:none" transform="scale(1.67927 -1.67927)rotate(30 112.83 41.934)"/>
    <path d="M0 0s.636.007.532.276c-.105.269-.087.809-.341.851 0 0-.384.085-.729-.931 0 0 .079-.224.538-.196" style="fill:#4dc3bb;fill-opacity:1;fill-rule:nonzero;stroke:none" transform="scale(1.67927 -1.67927)rotate(30 110.475 50.346)"/>
    <path d="m0 0-.111.143S-1.585.028-2.122-.506l-.114.192s-4.959-.83-5.946-.455l-.052-.241-.602.042s-1.3-1.028-1.51-1.657c-.213-.63-.053-.146-.053-.146s-1.088-.3-1.08-1.072l-.489-.198-.089-.876-.302-.239-.545.044.047.48-.33.144-.112.001-.031.045-.829-.034-.829.015-.029-.046-.114-.005-.325-.147.06-.482-.546-.055-.284.215-.11.891-.493.187c-.009.771-1.104 1.047-1.104 1.047s.169-.48-.058.144c-.225.624-1.547 1.623-1.547 1.623l-.6-.056-.056.242c-.979-.398-5.956.319-5.956.319l-.108-.196c-.553.525-2.026.604-2.026.604l-.11-.145c-.989.616-2.295.216-2.295.216.01-.869 2.247-.699 2.247-.699l.222-.383c.059-.336 1.857.021 1.857.021l.166-.191c.223-.48 5.738-.274 5.738-.274l.271.151c-.158-.63 1.93-1.667 1.93-1.667-.431-.585.83-.957.83-.957l-.217-.243.041-.435-.036.002-.754-.974.221-.238s-1.299-.931-.529-1.357c0 0 .245-.128.598-.209a3.6 3.6 0 0 1 1.386.149q.101.056.199.134l.077.001q.227.106.453.189l.013.009a5 5 0 0 0 1.223.285l.098.01q.042.005.088.008l.063.003q.05.006.101.007l.058.004.102.004.081.001h.078l.101-.001.061-.002q.05 0 .1-.004.03-.003.066-.002l.086-.007.097-.007.052-.006c.716-.072 1.178-.252 1.178-.252l.013-.01q.229-.075.458-.178l.138.002a1.5 1.5 0 0 1 .264-.163 3.4 3.4 0 0 1 1.393-.065c.314.088.528.204.528.204.758.442-.562 1.344-.562 1.344l.215.244-.774.955-.016-.001.031.435-.222.239s1.252.399.81.973c0 0 2.062 1.084 1.891 1.71l.275-.142s5.516-.082 5.73.402l.161.194s1.805-.316 1.857.022l.213.389s2.242-.121 2.231.747C2.291.266.977.636 0 0" style="fill:#4dc3bb;fill-opacity:1;fill-rule:nonzero;stroke:none" transform="scale(1.67927 -1.67927)rotate(30 28.398 51.303)"/>
    <path d="m0 0 .574 1.229s-.015.41-.391.124L-.549.621a10.7 10.7 0 0 1-1.88 1.549S-1.863.393-3.616.759c0 0-.789-.175-1.719.148l-.004.027a6 6 0 0 1-.559.225l-.015.008s-.461.181-1.176.253l-.055.005-.096.008-.086.005-.066.004-.1.003-.06.001-.103.003q-.035-.002-.078-.002l-.08-.001-.1-.003-.06-.003-.099-.005-.067-.005-.087-.007-.095-.012-.055-.006a5 5 0 0 1-1.168-.278l-.016-.009a5 5 0 0 1-.555-.24l-.002-.026c-.922-.344-1.717-.186-1.717-.186-1.743-.406-1.216 1.385-1.216 1.385A10.7 10.7 0 0 1-14.861.497l-.708.678c-.381.277-.39-.131-.39-.131l.573-1.159c-1.774-2.254-1.904-4.44-1.904-4.44.102.724 1.73 1.563 1.73 1.563.199-.022.436-.039.701-.053.238-.039.394-.079.394-.079.384-.128.948-.214 1.622-.265 1.581-.413 3.492-.486 5.169-.43 1.679-.017 3.586.098 5.159.547.672.067 1.236.166 1.619.3 0 0 .154.043.393.089.263.02.498.042.697.068 0 0 1.647-.8 1.763-1.523 0 0-.175 2.146-1.957 4.338" style="fill:#4dc3bb;fill-opacity:1;fill-rule:nonzero;stroke:none" transform="scale(1.67927 -1.67927)rotate(30 48.624 43.882)"/>
    <path d="m0 0 .474-.137c.178.39.414.783.719 1.153C.811.78.252.395 0 0" style="fill:#4dc3bb;fill-opacity:1;fill-rule:nonzero;stroke:none" transform="scale(1.67927 -1.67927)rotate(30 66.73 14.433)"/>
    <path d="M0 0c.321-.368.569-.765.759-1.155l.473.149C.977-.613.396-.23 0 0" style="fill:#4dc3bb;fill-opacity:1;fill-rule:nonzero;stroke:none" transform="scale(1.67927 -1.67927)rotate(30 55.604 46.975)"/>
    <path d="m0 0-.657-.206-.078-.023-.474-.149A5.2 5.2 0 0 1-1.968.777 8 8 0 0 1-2.375 1a13 13 0 0 0-.698-.07c-.24-.045-.394-.087-.394-.087C-3.848.705-4.412.608-5.084.54c-1.571-.449-3.48-.561-5.158-.546-1.679-.055-3.588.017-5.168.43-.674.054-1.24.138-1.625.265 0 0-.155.039-.395.079-.264.014-.501.033-.7.053 0 0-.171-.088-.406-.231a5.2 5.2 0 0 1-.72-1.152l-.473.136-.087.026-.593.171c-.487.078-.268-.282-.268-.282l1.146-.767c-.311-.982-.303-1.777-.303-1.777.481.969 1.79 1.033 1.79 1.033.29-.121.835-.203 1.535-.256.322-.064.704-.11 1.129-.143 1.581-.412 3.491-.484 5.17-.43 1.678-.015 3.585.097 5.158.546.423.043.805.099 1.123.167.701.072 1.245.167 1.531.292 0 0 1.31-.034 1.812-.991 0 0-.008.77-.326 1.727l1.184.836S.484.089 0 0" style="fill:#4dc3bb;fill-opacity:1;fill-rule:nonzero;stroke:none" transform="scale(1.67927 -1.67927)rotate(30 56.07 51.036)"/>
    <path d="M0 0c-.32-.07-.7-.123-1.124-.166-1.573-.449-3.48-.563-5.158-.546-1.678-.056-3.588.016-5.17.43-.425.033-.806.078-1.127.14-.702.056-1.247.14-1.537.258 0 0-.352-.017-.757-.169l-.076-.091-.037-.004a3.3 3.3 0 0 1-.644-.985c-.925-1.636-.409-2.583-.409-2.583.476 1.308 2.998.661 2.998.661.385-.129.951-.213 1.624-.265 1.579-.414 3.491-.486 5.17-.429 1.676-.019 3.585.098 5.157.546.673.066 1.236.163 1.618.301 0 0 2.504.704 3.009-.593 0 0 .495.958-.465 2.572a3.3 3.3 0 0 1-.667.971l-.039.004c-.02.028-.05.059-.076.088a2.8 2.8 0 0 1-.763.152C1.246.167.699.072 0 0" style="fill:#4dc3bb;fill-opacity:1;fill-rule:nonzero;stroke:none" transform="scale(1.67927 -1.67927)rotate(30 63.639 45.228)"/>
    <path d="M0 0c.158-.214.282-.437.379-.659L.68-.46C.521-.229.277-.086 0 0" style="fill:#4dc3bb;fill-opacity:1;fill-rule:nonzero;stroke:none" transform="scale(1.67927 -1.67927)rotate(30 69.14 52.206)"/>
    <path d="m0 0 .296-.187q.133.32.35.631C.383.356.155.219 0 0" style="fill:#4dc3bb;fill-opacity:1;fill-rule:nonzero;stroke:none" transform="scale(1.67927 -1.67927)rotate(30 79.67 17.736)"/>
    <path d="m0 0-2.058-.071h-.016l-.197-.131-.301-.199a3.4 3.4 0 0 1-.379.659C-3.867.537-5.166.172-5.166.172c-.382-.134-.944-.233-1.618-.301-1.571-.449-3.479-.561-5.159-.546-1.677-.054-3.586.017-5.168.429-.672.053-1.239.138-1.623.266 0 0-1.307.335-2.217.036a3.4 3.4 0 0 1-.35-.631l-.296.186-.151.096h-.091l-1.983.023c-.49-.05-.16-.336-.16-.336l2.438-.778c-.136-.718-.055-1.281-.055-1.281.487.44-.223.433 1.029.735 1.253.304 3.175-.736 3.175-.736 1.638-.488 3.692-.574 5.481-.516 1.791-.017 3.842.114 5.468.64 0 0 1.899 1.082 3.158.808 1.26-.277.55-.284 1.047-.711 0 0 .067.55-.08 1.254l2.489.856S.491-.041 0 0" style="fill:#4dc3bb;fill-opacity:1;fill-rule:nonzero;stroke:none" transform="scale(1.67927 -1.67927)rotate(30 68.146 57.842)"/>
    <path d="M0 0c-1.259.274-3.158-.807-3.158-.807-1.625-.528-3.678-.659-5.467-.64-1.789-.059-3.845.026-5.481.517 0 0-1.924 1.038-3.176.735s-1.033-.699-1.039-.637c-.366-.729-.082-1.739-.082-1.739.924.493 4.983-1.002 4.983-1.002 1.487-.48 3.243-.572 4.824-.507 1.583-.027 3.335.103 4.813.614 0 0 4.024 1.587 4.957 1.116 0 0 .263 1.015-.119 1.739C1.05-.674 1.259-.274 0 0" style="fill:#4dc3bb;fill-opacity:1;fill-rule:nonzero;stroke:none" transform="scale(1.67927 -1.67927)rotate(30 74.641 53.026)"/>
    <path d="M0 0a.2.2 0 0 0 .039.022C.02.026.001.024-.017.026Q-.007.016 0 0" style="fill:#4dc3bb;fill-opacity:1;fill-rule:nonzero;stroke:none" transform="scale(1.67927 -1.67927)rotate(30 80.144 56.069)"/>
    <path d="m0 0-2.496.221c-.012-.067-.023-.104-.023-.104a.9.9 0 0 1-.36.081.2.2 0 0 1-.039-.022q-.008.015-.017.026C-4.296.255-7.475-1-7.475-1c-1.479-.51-3.23-.642-4.813-.614-1.581-.063-3.335.03-4.825.505 0 0-4.058 1.499-4.982 1.006l-.022.093-2.419-.265s-.396-.216.071-.363l2.028-.379.318.118q-.012-.037-.02-.072c-.104-.485.08-2.217.08-2.217 1.521.595 6.182-1.041 6.182-1.041a24 24 0 0 1 3.621-.219c1.045.005 2.256.087 3.614.302 0 0 4.622 1.739 6.158 1.177 0 0 .144 1.738.031 2.221l-.033.102.403-.14 2.022.423C.399-.206 0 0 0 0" style="fill:#4dc3bb;fill-opacity:1;fill-rule:nonzero;stroke:none" transform="scale(1.67927 -1.67927)rotate(30 79.013 61.601)"/>
    <path d="m0 0-3.223 1.074-.06-.009c.072.601.066 1.145-.138 1.359 0 0-.009.174-.108.403-1.903.069-5.509-1.286-5.509-1.286a23 23 0 0 0-3.612-.302 24 24 0 0 0-3.622.22s-3.636 1.274-5.532 1.161c-.095-.23-.1-.405-.1-.405-.199-.216-.194-.758-.109-1.357l-3.183-1.142s-.396-.374.206-.43l2.538.091.644.447c.158-.651.325-1.173.325-1.173.969 1.313 4.141.915 4.141.915 1.581-.224 3.238-.267 4.712-.232 1.477-.002 3.132.079 4.707.338 0 0 3.162.469 4.16-.821 0 0 .163.549.308 1.223l.718-.474 2.541-.034C.404-.365 0 0 0 0" style="fill:#4dc3bb;fill-opacity:1;fill-rule:nonzero;stroke:none" transform="scale(1.67927 -1.67927)rotate(30 91.042 65.633)"/>
    <path d="M0 0c-1.575-.259-3.231-.341-4.706-.336-1.477-.036-3.131.007-4.714.231 0 0-2.342.292-3.616-.459.317-.86.747-1.647.747-1.647.442-.672.765-.04.765-.04.587 1.02 2.394.557 2.394.557a10 10 0 0 1 1.045-.298c.998-.296 2.343-.608 3.44-.555 1.099-.029 2.435.314 3.426.633.393.1.754.208 1.038.321 0 0 1.795.503 2.41-.504 0 0 .334-.624.762.057 0 0 .4.778.697 1.629C2.411.357 0 0 0 0" style="fill:#4dc3bb;fill-opacity:1;fill-rule:nonzero;stroke:none" transform="scale(1.67927 -1.67927)rotate(30 97.231 51.465)"/>
    <path d="m0 0-.003-.008C-.001-.008 0-.008 0 0" style="fill:#4dc3bb;fill-opacity:1;fill-rule:nonzero;stroke:none" transform="scale(1.67927 -1.67927)rotate(30 86.966 19.705)"/>
    <path d="m0 0-.003.006Q-.005-.003 0 0" style="fill:#4dc3bb;fill-opacity:1;fill-rule:nonzero;stroke:none" transform="scale(1.67927 -1.67927)rotate(30 76.881 55.76)"/>
    <path d="M0 0a.9.9 0 0 0 .36-.081s.011.037.023.103l-.29.024A.3.3 0 0 1 0 0" style="fill:#4dc3bb;fill-opacity:1;fill-rule:nonzero;stroke:none" transform="scale(1.67927 -1.67927)rotate(30 80.083 56.13)"/>
    <path d="m0 0-.021.042-2.645 1.923h-.002q-.025.006-.052.007l-.083.003q.043.074.082.16c-.122.169-.281.29-.458.373l-.003.002c-.029.013-.057.028-.09.037l-.001.002a1 1 0 0 1-.087.033l-.005.002q-.048.015-.092.025l-.006.003-.091.023q-.004-.001-.007.001-.046.007-.09.018h-.009q-.044.008-.089.013h-.011l-.089.012h-.009l-.089.005-.012.002-.085.002h-.11l-.079-.001-.018-.001-.074-.004-.018-.002q-.036 0-.07-.004l-.022-.004-.064-.006-.025-.002-.056-.005a.1.1 0 0 0-.028-.004l-.048-.009-.033-.003-.04-.006-.039-.007-.026-.005-.047-.009q-.008 0-.014-.003a3 3 0 0 1-.224-.05 9 9 0 0 0-1.037-.321c-.929-.301-2.161-.619-3.218-.635-.07 0-.14-.002-.209.002-.067-.005-.14-.005-.208-.006-1.057-.008-2.296.283-3.231.561a9 9 0 0 0-1.044.299s-.086.021-.226.043q-.009.004-.015.004l-.046.008-.028.004-.038.005-.041.006-.031.003c-.018.004-.032.004-.05.007q-.014 0-.026.002l-.059.006-.022.002-.066.005-.02.002-.071.003h-.019l-.075.003-.017-.001q-.039.002-.079.001h-.014l-.083-.003h-.013q-.041.001-.087-.004l-.009-.001-.089-.009h-.01l-.09-.011h-.007l-.091-.017h-.007q-.049-.012-.092-.019-.001-.002-.008-.002l-.09-.025-.004-.001-.091-.029-.004-.003q-.044-.015-.088-.034l-.004-.002q-.043-.016-.087-.039l-.002-.002a1.2 1.2 0 0 1-.449-.386q.04-.08.082-.158-.038 0-.08-.004l-.054-.006h-.001l-2.599-1.983s-.011-.015-.023-.043c-.039-.092-.106-.31.154-.315a.7.7 0 0 1 .174.02l2.301.817.304.39.315.407c.17-.298.341-.423.503-.443.5.052.904 1.041.904 1.041.048.054.097.096.141.136.052.099.153.22.385.23a.4.4 0 0 0 .154.012.34.34 0 0 0 .237-.053c.736-.162.035-.678.035-.678-.924-.504-.508-1.919-.44-1.987l.032-.033c.202-.192.39-.264.551-.272.279.021.46.22.46.22.081.824.58 1.303.58 1.303.079.062.152.074.217.061l.003.001.004-.002c.128-.029.701-.599.961-.901.168-.24.288-.439.288-.439.293-1.066.902-1.166 1.162-1.157l.02-.001.056.006c.015 0 .027-.002.044-.004l.042.006.059-.005h.018c.263-.002.868.111 1.138 1.184 0 0 .114.202.277.444.25.304.798.893.944.926h.003A.2.2 0 0 0-6.942.7h.003c.041-.008.128-.06.128-.06.216-.13.515-.458.613-1.288 0 0 .186-.195.468-.209.16.011.347.086.544.283.01.012.022.021.032.035.066.068.45 1.494-.484 1.976 0 0-.715.5.018.678.056.039.134.07.237.06a.4.4 0 0 0 .156-.01c.23-.005.334-.123.386-.221q.07-.058.146-.132s.425-.982.927-1.02c.163.021.33.151.492.454l.324-.4.313-.384 2.318-.763a.7.7 0 0 1 .175-.018C.114-.308.042-.091 0 0" style="fill:#4dc3bb;fill-opacity:1;fill-rule:nonzero;stroke:none" transform="scale(1.67927 -1.67927)rotate(30 104.153 63.136)"/>
</svg>
