<svg xmlns="http://www.w3.org/2000/svg" width="89.877" height="100">
    <path d="M0 0c-.25-.004-.455.135-.459.311-.004.177.195.322.445.328C.234.645.441.506.443.33.447.152.248.008 0 0m-3.836-.111c-.391-.006-.709.101-.713.248-.002.144.313.267.699.277.391.006.709-.103.711-.248.004-.145-.31-.27-.697-.277m-2.775.66c-.254-.154-.746.338-.746.338-.075.133.066.556.066.556.158.08.906-.257.906-.257.147-.235-.226-.637-.226-.637m-1.198-1.811s1.051-1.39.053-3.076c0 0-2.898-2.996-6.414.149 0 0-.654.888.078 2.951 0 0 2.871-2.901 6.283-.024m1.955-.134.797-.624c-.218-.009-.562-.603-.562-.603l-.389.771zm2.2-2.618c.209.041.476-.412.593-1.011.118-.598.043-1.12-.168-1.161-.21-.041-.476.413-.595 1.014-.119.598-.041 1.117.17 1.158m1.304-5.131s.385-1.308.051-1.566l-.447.232-.147 1.465s.291.108.543-.131m-13.396 7.606-.609-.772s-.151.76-.36.827l.959.5zm-2.418-3.041c-.193-.578-.518-.992-.721-.926-.203.069-.213.594-.017 1.174.191.58.515.994.718.926.205-.067.213-.592.02-1.174m-1.697-5.047-.473-.176c-.303.295.238 1.547.238 1.547.28.205.555.065.555.065zm5.279 10.846s-.477-.492-.756-.369c0 0-.42.351-.287.58 0 0 .756.369.928.308 0 0 .181-.388.115-.519M-18.123.062c-.391-.007-.709.102-.715.249 0 .142.311.267.703.275.389.006.707-.104.709-.246.004-.145-.308-.268-.697-.278m-3.834.063c-.246-.01-.457.133-.465.32-.008.188.184.35.436.364.246.009.455-.133.466-.323.008-.187-.187-.349-.437-.361m2.795 3.592c-.172-.164-.652.058-1.076.496-.428.439-.633.932-.461 1.096.172.166.654-.055 1.08-.497.426-.437.631-.931.457-1.095m-3.686 4.349c-.16-.177-.656.014-1.109.422-.455.408-.695.885-.533 1.061.158.178.654-.012 1.109-.422.451-.408.692-.883.533-1.061m8.452-3.562c-.417-.078-1.125 1.088-1.125 1.088-.008.345.267.488.267.488l.986-1.09zm-2.262 3.006c-.213-.018-.428.463-.479 1.072s.08 1.117.295 1.135c.215.017.428-.461.481-1.072.05-.608-.082-1.116-.297-1.135m9.668-.807s.295-.099.34-.441c0 0-.526-1.258-.946-1.246l-.205.463zm.633 2.58c-.051.608.082 1.115.295 1.135.214.018.427-.463.48-1.072.049-.608-.08-1.116-.297-1.133-.213-.018-.426.463-.478 1.07m3.06-2.996c.227.565.59.955.809.867.222-.088.218-.619-.01-1.185-.227-.571-.588-.959-.809-.871-.224.091-.216.621.01 1.189m2.106 5.402c.296.534.707.872.912.756.207-.117.136-.644-.162-1.179-.299-.534-.711-.87-.918-.754s-.133.644.168 1.177m4.746-9.843S1.76.85.557.719c0 0-.725.345-1.172-.006 0 0-2.145-.551-2.328-.221 0 0-.93.338-1.754.094 0 0-1.004 1.043-1.451.691 0 0-1.069.582-1.313.448l-.625.38c-.016.01-.027.022-.043.034l.549.297s2.994-.168 3.711.857c0 0 1.246 1.978 1.562 2.217 0 0 .655 1.222.448 1.722 0 0 .644 3.018 1.105 2.95 0 0 1.481 2.322 1.111 2.377 0 0 2.922 3.888 3.338 4.271-.42-.322-3.902-3.01-4.023-3.791 0 0-1.399-.545-1.83-3.402 0 0-.367-1.83-.477-1.908 0 0-.939-.614-1.287-2.922 0 0-2.873-1.547-4.057-1.276l-.011-.008c-.074.03-.151.065-.221.096.244.611.387.889.387.889.916.078 2.332 3.099 2.332 3.099.394 1.604 0 3.092 0 3.092.564 1.483-.74 5.772-.74 5.772-3.227 7.379-3.975 5.261-3.975 5.261 1.07-.22 2.027-2.259 2.584-3.722.109-.49.277-1.117.504-1.467l.008-.025c.179-1.289.685-5.485.685-5.485-.697-3.365.783-2.763-.195-3.304-.983-.543-1.203-2.26-1.865-2.417-.358-.082-.561-.455-.668-.779a25 25 0 0 1-.332.658c.506.332 1.211.83 1.207 1.028-.01.299.574 1.861.095 1.943-.474.086-.517-.158-.517-.158s-.028-.852-.092-1.219c-.049-.293-.564-.81-.947-1.115-.194.355-.324.58-.324.58-.885.285-1.614-.027-1.614-.027-.15-.241-.287-.465-.418-.684-.265.348-.74 1.227-.687 1.58.058.369.308 1.184.308 1.184s.037.246-.439.32c-.477.072-.434-1.59-.539-1.875-.088-.232.769-1.312 1.072-1.691a19 19 0 0 1-.459-.834c-.146.33-.42.783-.846.814-.675.051-1.152 1.721-2.203 2.108-1.05.386.504.013-.693 3.238 0 0-.131 4.224-.145 5.525 0 0 .024.192.075.498.134.53.302 1.25.367 1.746.359 1.422.959 3.051 1.834 3.375 0 0-1.057 1.985-3.139-5.798 0 0-.646-4.434.137-5.819 0 0-.168-1.529.461-3.056 0 0 1.859-2.772 2.779-2.713 0 0 .08-.118.236-.37l-.185.057c-1.02-.67-4.25-.219-4.25-.219-1.129 2.039-2.225 2.289-2.225 2.289-.127.036-1.111 1.623-1.111 1.623-1.4 2.53-2.9 2.551-2.9 2.551-.385.692-4.594 2-5.094 2.155.523-.211 4.619-2.84 4.619-2.84-.328-.18 1.869-1.844 1.869-1.844.41.227 2.063-2.377 2.063-2.377-.02-.545 1.019-1.463 1.019-1.463.381-.107 2.235-1.535 2.235-1.535 1.033-.707 3.779.49 3.779.49l.558-.078c0-.004-.002-.006-.002-.014a2 2 0 0 1-.466-.269L-14.529 2c-.25.131-1.305-.475-1.305-.475-.453.346-1.436-.72-1.436-.72-.826.226-1.751-.131-1.751-.131-.172-.33-2.334.172-2.334.172-.452.343-1.168-.018-1.168-.018-1.207.109-3.024 1.063-3.024 1.063l-.752-.024c.514-1.43 3.516-1.535 3.516-1.535.072-.459.906-.475.906-.475.129.247 3.258-.027 3.258-.027.455-.133 1.922.256 1.922.256.748-.184 1.22.516 1.22.516.457-.133 1.047.396 1.047.396l.578.18c.077-.405.36-.401.36-.401l.109.004a4 4 0 0 1-.435-.383l-.489-.152a12 12 0 0 0-.738-.762c-.883.254-3.293-2.056-3.293-2.056-.943-1.358-1.105-2.887-1.105-2.887-1.063-1.182-1.381-5.652-1.381-5.652.363-8.047 1.82-6.336 1.82-6.336-1.447.926-1.017 5.978-1.017 5.978a561 561 0 0 0 1.326 5.362c1.857 2.894.261 2.861 1.369 3.015 1.037.145 1.826 1.488 2.472 1.584-.224-.947-.195-2.168.274-3.746 0 0 .369-4.203 3.09-4.91 0 0 2.42-.859 3.972 5.029 0 0 .799 1.58.694 3.223.674.002 1.303-1.606 2.381-1.895 1.084-.295-.498-.058.984-3.166 0 0 .516-4.193.648-5.486 0 0-.203-5.064-1.753-5.807 0 0 1.234-1.877 2.595 6.063 0 0 .239 4.478-.666 5.783 0 0 .028 1.537-.738 3 0 0-2.104 2.594-3.01 2.451 0 0-.222.252-.642.848l-.514.238-.02-.051a3.4 3.4 0 0 1-1.045.862l.299.009.762-.22s.606-.514 1.057-.371c0 0 .488-.69 1.232-.492 0 0 1.475-.354 1.932-.213 0 0 3.115.336 3.25.091 0 0 .834.034.898.498 0 0 2.998.165 3.485 1.604z" style="fill:#a4572a;fill-opacity:1;fill-rule:nonzero;stroke:#ca642f;stroke-width:.187;stroke-linecap:butt;stroke-linejoin:miter;stroke-miterlimit:4;stroke-dasharray:none;stroke-opacity:1" transform="scale(1.67926 -1.67926)rotate(30 68.899 56.952)"/>
</svg>
