<?xml version="1.0" encoding="UTF-8" standalone="no"?>
<svg
   xml:space="preserve"
   width="88.338"
   height="104.242"
   preserveAspectRatio="none"
   version="1.1"
   id="svg7"
   sodipodi:docname="blackBeetle.svg"
   inkscape:version="1.4.2 (ebf0e940, 2025-05-08)"
   xmlns:inkscape="http://www.inkscape.org/namespaces/inkscape"
   xmlns:sodipodi="http://sodipodi.sourceforge.net/DTD/sodipodi-0.dtd"
   xmlns="http://www.w3.org/2000/svg"
   xmlns:svg="http://www.w3.org/2000/svg"><sodipodi:namedview
   id="namedview7"
   pagecolor="#ffffff"
   bordercolor="#000000"
   borderopacity="0.25"
   inkscape:showpageshadow="2"
   inkscape:pageopacity="0.0"
   inkscape:pagecheckerboard="0"
   inkscape:deskcolor="#d1d1d1"
   inkscape:zoom="0.460467"
   inkscape:cx="43.434165"
   inkscape:cy="52.120998"
   inkscape:window-width="1712"
   inkscape:window-height="1041"
   inkscape:window-x="0"
   inkscape:window-y="71"
   inkscape:window-maximized="0"
   inkscape:current-layer="svg7" />
    <defs
   id="defs3">
        <radialGradient
   id="a"
   cx="0"
   cy="0"
   r="160.8"
   fx="0"
   fy="0"
   gradientTransform="matrix(0.3135,0,0,0.24373,47.844,50.516)"
   gradientUnits="userSpaceOnUse"
   spreadMethod="pad">
            <stop
   offset="36.471%"
   stop-color="#c8c8c8"
   id="stop1" />
            <stop
   offset="66.667%"
   stop-color="#c8c8c8"
   id="stop2" />
            <stop
   offset="100%"
   stop-color="#c8c8c8"
   id="stop3" />
        </radialGradient>
    </defs>
    
    
    
    
    <g
   id="g12"
   inkscape:label="blackBeetle"><g
     id="g11"><g
       id="g10"><g
         id="g9"><g
           id="g8"><g
             id="g7"><path
               fill="#c8c8c8"
               d="M 53.16,61.058 C 50.360126,60.253072 49.416923,63.52589 51.571164,65.094446 53.414857,68.161526 55.315569,71.31455 58.102,73.627 58.07839,68.976395 55.111896,65.06557 53.16,61.058 Z"
               id="path3" /><path
               fill="#f0f0f0"
               d="m 58.457,74.496 c -1.53749,-3.882745 -3.49028,-7.608087 -6.273437,-10.746438 -1.254678,-1.50943 0.409875,1.317954 0.670756,1.960876 1.68456,3.376854 3.369121,6.753708 5.053681,10.130562 -0.716904,2.838383 1.07734,-0.237535 0.549,-1.346"
               style="stroke-width:0.307359"
               id="path4" /><path
               fill="#f0f0f0"
               d="m 58.692,47.176 c -0.395077,-1.803011 -0.744584,0.703344 0,0 z M 39.161,68.259 C 38.753956,67.023785 38.232732,70.718497 38.740666,69.738706 38.880777,69.245471 39.020889,68.752235 39.161,68.259 Z m -3.778,-6.901 c -0.688486,0.369591 0.152532,2.074017 0.07784,2.979284 0.13591,0.665928 0.340725,3.454034 0.392723,1.535539 C 35.942081,64.367227 35.514626,62.858534 35.383,61.358 Z m -1.74,-16.13 c -0.609115,0.558953 -0.430174,2.294243 0.790624,1.054364 C 34.620478,46.046831 33.814593,45.543029 33.643,45.228 Z M 32.248,40.496 C 31.173812,39.384051 30.05598,42.359823 31.427167,41.018253 31.700778,40.844169 31.974389,40.670084 32.248,40.496 Z m 19.625,1.345 c -0.254353,-0.919903 2.257306,-2.035569 1.092575,-1.838013 -1.276171,0.102386 -2.400442,0.279477 -1.222487,1.588793 l 0.08176,0.156848 z"
               style="stroke-width:0.307359"
               id="path5" /><path
               fill="#f0f0f0"
               d="m 63.535,57.353 c -0.87131,2.011248 1.866985,5.510444 1.28691,8.291965 0.175876,0.151326 0.150708,-3.97175 -0.39357,-5.407219 C 64.19559,59.25755 63.891787,58.294905 63.535,57.353 Z m -20.8,19.073 c -0.533,-1.187 -1.066,-2.374 -1.599,-3.561 -1.005294,0.885544 0.292803,1.97551 0.52805,2.97115 0.481064,1.609334 1.450772,2.755326 2.909778,3.593799 C 46.10252,80.656803 46.76777,82.563544 46.81,84.467 47.240363,81.773188 46.378507,78.825577 43.979883,77.286227 43.580979,76.977079 43.163638,76.692185 42.735,76.426 Z m -5.189,-5.239 c -0.508375,1.605821 0.394093,1.67575 0.979562,0.433034 C 38.125205,70.37639 39.066306,69.98887 37.546,71.187 Z m -3.291,-4.401 c -0.310662,1.20695 0.132374,2.271758 0.725081,3.30834 0.356288,-0.362339 0.115988,-2.083501 -0.498716,-2.831455 C 34.40591,67.103923 34.330455,66.944962 34.255,66.786 Z m 2.242,-10.4 c -0.765129,-0.08122 -2.518779,-1.83855 -2.370053,-0.370259 -0.451371,1.325591 1.408603,1.284968 2.188535,1.882748 0.458301,0.371681 0.850846,-1.29762 0.181518,-1.512489 z m -2.382,0.982 c -0.707455,1.342895 -2.309308,2.332625 -2.094592,4.005047 0.181704,0.39791 1.231173,-1.563797 1.758835,-2.106613 C 34.204501,58.74695 34.164375,57.997629 34.115,57.368 Z M 30.133,44.673 c -0.741479,0.546135 -2.337961,-0.533623 -1.44423,1.01587 0.244352,1.506872 1.780556,-0.133021 1.73083,1.70938 0.364467,1.080916 0.728933,2.161833 1.0934,3.24275 1.5274,0.915617 1.355605,-1.223666 2.479993,-0.715759 C 35.07282,50.932053 37.128491,49.682809 35.51,48.789 34.547141,48.626164 33.121852,47.53153 33.049839,49.163749 31.836405,49.593471 31.226104,48.554054 31.056972,47.41389 30.748982,46.50026 30.440991,45.58663 30.133,44.673 Z M 26.936,40.97 c -0.03847,-1.968938 0.670748,-0.705586 1.319454,0.296167 0.672849,0.961611 1.345697,1.923222 2.018546,2.884833 0.329361,-1.174514 -0.11663,-2.134646 -0.903737,-3.000461 C 28.637841,40.198885 28.058906,39.087266 27.234,38.232 c -0.109206,0.911387 -0.39409,1.813277 -0.298,2.738 z m -6.035,-8.421 c 0.367537,3.533635 1.185981,-1.993168 1.482633,-3.201879 0.305226,-1.431342 0.705283,-6.255146 0.224554,-2.449184 C 22.262718,28.8401 21.669272,30.73374 20.901,32.549 Z m 10.44,1.456 c 0.626475,-1.84094 1.401857,-0.243854 1.999566,-0.382608 0.379099,-1.496697 1.289602,-1.119841 2.297089,-0.401049 0.26256,-1.305445 0.550177,-1.663995 1.285287,-0.121743 0.491089,-0.0089 0.584821,-2.723033 1.459454,-0.855172 0.699283,1.037814 0.627221,-1.746961 -0.241548,-1.955929 -0.767552,-1.198116 -0.707459,2.762297 -1.490049,0.684729 -0.893762,-2.044951 -0.27626,1.63895 -1.455661,0.410635 -1.116123,-1.335329 -1.447287,0.698853 -2.041222,0.855968 -0.745053,-1.65183 -1.394788,-0.103235 -2.064971,0.758799 -1.128199,0.284951 -2.482737,0.141937 -3.697945,0.26237 1.206667,0.501333 2.413333,1.002667 3.62,1.504 0.11,-0.253333 0.22,-0.506667 0.33,-0.76 z m -0.33,-0.902 c 0.455715,-1.321855 -0.25426,-1.974154 -1.47708,-2.331882 -0.764659,-1.177238 -2.228679,1.00944 -0.92973,1.141536 0.80227,0.396782 1.60454,0.793564 2.40681,1.190346 z M 28.77,27.452 c -1.505041,0.880803 -0.429949,1.463713 0.667944,2.04399 1.085452,1.429756 1.591407,-0.257838 0.898691,-1.046048 C 29.814423,28.117295 29.292212,27.784647 28.77,27.452 Z m -3.496,-5.05 c -0.804667,-1.113333 -1.609333,-2.226667 -2.414,-3.34 -0.334051,1.178327 0.121588,2.131594 0.92639,2.985351 0.731233,0.814731 1.091701,2.248124 2.430218,2.049532 C 27.924406,24.328922 29.632203,24.560961 31.34,24.793 30.668527,24.007461 30.298892,22.718271 29.03472,22.921717 27.781147,22.748478 26.527573,22.575239 25.274,22.402 Z m 19.17,-1.52 c -4.315695,-0.552344 -8.68673,-2.54622 -11.129,-6.284 -0.805163,2.594966 -1.384776,5.488911 -3.589,7.313 0.440626,2.671528 2.192394,-1.668035 2.573001,-2.78186 0.426882,-0.694832 0.543333,-3.345643 1.206468,-2.551878 2.346795,3.213543 6.180977,5.227771 10.108531,5.634738 -0.121556,4.773747 6.18e-4,9.56646 -0.273564,14.32833 C 42.489128,37.620941 44.755022,38.560841 44.585,37.154 43.311579,36.918933 44.227538,35.29635 44.007039,34.393995 44.152692,29.889997 44.298346,25.385998 44.444,20.882 Z m -7.414,4.48 c -1.516272,-0.99812 -0.850703,1.042557 -0.987,1.96642 -0.05059,1.097029 0.452198,2.864865 0.530563,0.799947 C 36.725709,27.206245 36.877854,26.284122 37.03,25.362 Z m 14.514,18.584 c -1.006221,1.206082 0.0428,1.774251 1.099923,2.339908 0.902154,1.130314 1.811013,0.282142 2.719132,-0.347724 0.71032,-0.707118 2.337787,-0.87064 2.200576,-2.080093 0.150449,-0.964186 1.917608,0.08595 2.742369,-0.03809 1.219727,0.3186 3.174164,1.310778 4.22925,2.853797 1.998732,1.504884 3.270892,3.94894 5.530925,5.044439 0.962525,0.212006 1.819081,2.473883 1.678904,0.429152 0.03261,-1.155048 -1.263619,-1.894235 -2.23357,-2.312504 C 67.494386,48.143259 65.741172,46.014992 63.730622,44.249545 62.752616,42.554411 61.197131,42.648411 59.56312,42.367024 58.424184,41.930478 57.327948,41.587977 57.087693,43.130762 56.105877,43.9876 54.899986,44.651397 53.832,45.434 53.069333,44.938 52.306667,44.442 51.544,43.946 Z m -5.11,-4.258 c 0.300865,-1.210664 -1.191288,-1.523705 -2.053,-1.076 -0.944693,-0.419719 -1.892076,1.326248 -0.286371,1.445149 0.774992,-0.01077 2.351358,-0.37339 2.229371,0.969486 0.197568,0.567687 0.760014,2.962265 1.289724,1.821198 0.457663,-1.199274 1.306467,-2.387179 1.529143,-3.593283 -0.390992,-1.24591 -0.893948,1.385936 -1.334564,1.858713 C 47.314416,42.94414 46.773584,40.074016 46.434,39.688 Z m 2.367,-9.83 c -0.718979,-0.556014 -1.675274,-1.937568 -2.251211,-1.995989 -0.689912,1.157138 0.203003,1.938886 0.950944,2.755017 1.44065,1.639939 2.868881,3.288387 3.761267,5.303972 1.264664,-0.943708 1.163514,1.229778 1.682791,1.987266 0.368524,0.800589 0.588083,2.963245 0.618288,0.943122 C 53.600344,37.159047 52.688094,35.62115 52.187,34.038 51.000545,34.478378 50.11517,30.53279 48.801,29.859 m 25.675,32.084 c 0.77511,-2.491832 -2.689532,-2.96857 -3.931125,-4.584328 -2.02635,-1.560795 -2.854592,-4.060521 -5.403047,-5.046156 -2.374707,-1.469884 -5.14836,0.240808 -6.28164,-2.907766 -0.812586,-1.098252 -2.905374,0.855468 -0.587344,1.082812 1.487488,1.687363 2.20216,3.368655 4.713406,2.603688 2.397116,0.636107 4.740566,2.15715 5.85075,4.34075 1.676589,1.73802 3.695326,3.096147 5.639,4.511 z M 37.719,47.936 c -2.589749,-1.153684 -0.153293,2.943213 1.320508,1.015465 2.550561,-1.227782 5.476193,-2.892804 7.239833,-4.838741 -1.143353,-2.037807 -3.532928,2.29934 -5.336376,2.402878 C 39.912222,47.080356 38.841229,47.581093 37.719,47.936 Z m -1.646,-5.018 c -1.014752,0.612147 0.115409,2.720736 1.24888,1.249664 C 39.23592,43.207776 41.14996,42.247888 43.064,41.288 42.411508,39.913572 41.396786,40.532885 40.383454,41.144543 38.977969,41.846695 37.572485,42.548848 36.167,43.251 l -0.04805,-0.170226 z"
               style="stroke-width:0.307359"
               id="path6" /><path
               fill="url(#bS)"
               d="m 72.078,62.434 c 1.171951,-0.293483 3.553407,-0.321579 1.160875,-1.378 C 70.952286,59.553436 68.890938,57.67383 67.410547,55.499719 65.5358,53.524951 62.449693,52.862627 60.243531,52.925578 60.059514,51.060059 55.442775,49.967723 58.214402,48.973774 59.22346,48.708112 57.610052,46.321401 58.629,46.764 c 1.002784,0.67371 1.982146,1.208966 2.641111,-0.149757 0.697175,-0.511879 1.038042,1.650863 1.592563,2.209816 0.459162,1.415717 1.200791,1.959982 2.629959,2.194282 1.020317,0.649871 2.432911,0.642841 3.366363,1.272773 0.589217,1.718623 0.502368,1.077778 1.713814,0.818684 1.841798,0.612021 0.444702,-0.934162 -0.380314,-1.328328 -2.187903,-0.925468 -3.327231,-3.259607 -5.196246,-4.665282 -1.356504,-1.362363 -2.93241,-3.210169 -4.69025,-3.141066 -0.515361,-0.21511 -2.50297,-0.890988 -2.735815,-0.214168 0.205256,1.25654 -1.408525,1.434928 -2.141528,2.135358 -0.916458,0.589531 -1.834208,1.559954 -2.74479,0.415474 -0.917372,-0.581516 -2.238655,-1.037665 -1.197542,-2.227062 0.513385,-0.979455 0.914829,-1.954785 0.05963,-2.871114 -1.196219,-1.31102 0.970054,-0.968379 1.806884,-1.279553 0.176476,-0.808055 -0.460343,-2.06128 -0.767534,-2.987078 C 52.547068,35.12418 51.279319,36.348524 50.837355,35.145225 49.753519,32.834385 47.788229,31.12767 46.246,29.131 c -0.131254,1.246347 0.06844,2.419357 0.747215,3.486206 -0.777633,0.891594 -0.113682,1.048576 0.718929,1.962575 0.920609,1.425441 0.913673,3.095349 1.409255,4.620568 -0.06721,1.099615 -0.952101,2.175465 -1.330318,3.266041 -0.467538,1.830991 -1.081211,-0.363779 -1.413791,-1.101328 0.243057,-1.230952 -1.125615,-1.708891 -2.095767,-1.204239 -1.427219,-0.431854 -1.231874,-1.108279 -0.159736,-1.901778 0.404478,-0.627469 -1.767639,-0.599166 -0.730756,-2.076576 0.16295,-4.649539 0.13331,-9.314126 0.221969,-13.969469 -4.098922,-0.422712 -8.099953,-2.60149 -10.408,-6.062 -0.746904,2.424377 -1.299303,5.016311 -3.12,6.917 0.90642,0.242872 2.600291,-0.357117 2.982377,0.446984 0.139874,1.391672 0.279749,2.783344 0.419623,4.175016 0.851667,-0.886333 1.703333,-1.772667 2.555,-2.659 1.59548,0.03151 0.634257,1.598851 0.612668,2.601746 -0.480046,1.328943 -0.163718,2.214493 0.898398,0.854139 0.579912,-1.32574 1.995583,-0.921962 1.381141,0.537421 -0.06002,1.21725 -0.120149,2.434495 -0.181207,3.651694 -0.79787,-1.334709 -1.345666,-1.312947 -1.606975,0.262806 -0.388768,0.666179 -1.31953,-2.454481 -1.333805,-0.128709 -0.205983,1.197873 -1.97345,-1.470618 -2.199502,0.355703 -0.479618,1.938556 -1.29475,-1.429582 -1.911673,0.380175 -0.479677,1.32618 -1.1872,1.225153 -2.324463,0.54139 -0.767703,-0.371726 -2.987717,-1.000347 -0.926321,-0.871642 0.585913,-0.153623 3.409995,0.164903 1.92559,-0.42546 -0.577067,-0.593341 -2.756932,-0.692774 -2.145175,-1.652455 0.01675,-1.329593 1.979604,-0.702975 2.144213,-1.04195 C 29.663,29.493024 28.17188,28.980458 27.920411,28.324288 29.06499,27.152091 30.199639,25.97026 31.339,24.793 c -2.058333,-0.279333 -4.116667,-0.558667 -6.175,-0.838 -0.804667,-1.113333 -1.609333,-2.226667 -2.414,-3.34 0.443249,4.537518 -0.156457,9.151071 -1.537,13.486 2.890312,1.933777 5.713369,4.023742 8.653506,5.848083 0.688709,0.30899 3.307045,0.30032 1.635327,1.021664 -1.70086,0.558716 0.439295,1.249387 1.029917,1.886825 0.75488,0.649921 0.411569,2.014745 1.35046,2.631962 1.807779,1.014363 -1.603604,0.996303 0.028,1.974676 0.689744,0.750231 1.596165,1.26288 2.36679,1.92679 -0.37158,2.148119 -2.413111,-0.25544 -3.088155,0.663878 -0.07954,1.295463 -2.153102,0.761677 -2.016135,-0.418452 C 30.78914,48.499618 30.40557,47.362809 30.022,46.226 c -0.930562,1.063134 -1.956653,-1.136786 -1.391687,-1.451292 1.242763,-0.28762 2.077835,-0.723295 0.831569,-1.782187 C 28.687588,41.885681 27.913294,40.77884 27.139,39.672 c -0.545524,2.714028 -0.389297,5.575717 0.313875,8.24125 1.784638,1.405193 0.349925,6.859322 4.061328,4.351422 0.289938,0.01992 0.47569,1.797243 1.721797,2.112328 1.329047,0.745497 2.952518,1.132189 3.7,2.58 -0.08078,1.700581 -1.270335,0.558975 -2.257271,0.187724 -1.21773,-0.670782 -0.05968,2.247294 -1.412403,2.820299 -0.555681,0.881765 -1.617386,1.619851 -1.182775,2.782794 0.20925,3.387337 0.780551,6.769263 0.415449,10.165183 0.977511,1.168829 1.865878,0.11511 1.957475,-1.019323 -0.493422,-1.143671 1.206535,-1.572839 0.142435,-2.59942 C 33.881233,68.342691 34.291532,67.179689 34.302,66.09 c 1.302762,0.867509 1.768745,0.618709 1.273612,-0.912268 C 35.401742,63.904488 35.227871,62.631244 35.054,61.358 c 2.435906,-0.742041 2.048399,1.71235 2.61775,3.403 0.235514,1.707004 2.093868,3.133562 1.102783,4.85823 -0.678807,0.886085 0.175531,2.085779 -0.737839,2.621773 -1.216251,0.587888 0.138157,1.886633 0.221938,2.834014 0.603789,1.716661 1.207579,3.433322 1.811368,5.149983 2.056721,0.01534 3.601803,1.605477 5.39783,2.423218 0.847867,0.268604 0.210223,2.988387 1.34217,1.818782 0.08332,-2.807975 -1.797101,-5.187226 -4.185,-6.489 -0.658333,-1.466667 -1.316667,-2.933333 -1.975,-4.4 0.639096,-1.014101 1.071092,-2.113101 2.018188,-0.712576 2.51431,2.136069 5.048515,4.475424 8.426367,5.085611 2.094575,0.293236 6.75788,0.946739 6.813445,-2.110035 -2.105667,-4.221 -4.211333,-8.442 -6.317,-12.663 1.748097,1.784808 3.453667,4.314452 4.927375,6.567812 1.611807,1.282279 2.282959,5.929292 4.356894,5.473279 4.407183,-3.921924 4.80674,-10.623697 2.727708,-15.847032 -1.722745,-1.064434 0.675725,-3.507821 1.438652,-1.884558 0.543299,1.02111 1.311146,1.636621 2.374847,1.686951 0.623842,0.86485 1.247683,1.729699 1.871524,2.594548 0.950007,-0.180655 1.864115,0.478255 2.79,0.665 z M 35.572,43.154 c 2.221553,-0.378985 4.86016,-3.485043 6.672313,-2.750344 1.560471,0.958871 -0.143261,1.327274 -1.077633,1.834847 -1.703227,0.854166 -3.406453,1.708331 -5.10968,2.562497 -0.161667,-0.549 -0.323333,-1.098 -0.485,-1.647 z m 9.828,-0.49 c 1.512023,1.4279 0.362964,2.405425 -1.18392,3.237748 -2.101952,0.986723 -5.068333,4.381155 -7.210959,2.937125 -1.57333,-1.683225 3.535841,-1.989041 4.634644,-3.290757 C 42.979791,44.747518 44.56041,44.047151 45.401,42.664"
               style="fill:url(#a);stroke-width:0.315028"
               id="path7" /></g></g></g></g></g></g>
</svg>
