<svg xmlns="http://www.w3.org/2000/svg" xml:space="preserve" id="svg7" width="88.338" height="104.242" preserveAspectRatio="none" version="1.1">
    <defs id="defs3">
        <radialGradient id="a" cx="0" cy="0" r="160.8" fx="0" fy="0" gradientTransform="matrix(.3135 0 0 .24373 47.844 50.516)" gradientUnits="userSpaceOnUse" spreadMethod="pad">
            <stop id="stop1" offset="36.471%" stop-color="#c8c8c8"/>
            <stop id="stop2" offset="66.667%" stop-color="#c8c8c8"/>
            <stop id="stop3" offset="100%" stop-color="#c8c8c8"/>
        </radialGradient>
    </defs>
    <g id="g12">
        <g id="g11">
            <g id="g10">
                <g id="g9">
                    <g id="g8">
                        <g id="g7">
                            <path id="path3" fill="#c8c8c8" d="M53.16 61.058c-2.8-.805-3.743 2.468-1.589 4.036 1.844 3.068 3.745 6.22 6.531 8.533-.024-4.65-2.99-8.561-4.942-12.569"/>
                            <path id="path4" fill="#f0f0f0" d="M58.457 74.496c-1.537-3.883-3.49-7.608-6.273-10.746-1.255-1.51.41 1.318.67 1.96l5.054 10.131c-.717 2.838 1.077-.238.549-1.346" style="stroke-width:.307359"/>
                            <path id="path5" fill="#f0f0f0" d="M58.692 47.176c-.395-1.803-.745.703 0 0M39.161 68.259c-.407-1.235-.928 2.46-.42 1.48zm-3.778-6.901c-.688.37.153 2.074.078 2.98.136.665.34 3.453.393 1.535.088-1.506-.34-3.014-.471-4.515m-1.74-16.13c-.61.559-.43 2.294.79 1.054.187-.235-.618-.739-.79-1.054m-1.395-4.732c-1.074-1.112-2.192 1.864-.82.522zm19.625 1.345c-.254-.92 2.257-2.036 1.093-1.838-1.277.102-2.4.28-1.223 1.589l.082.157z" style="stroke-width:.307359"/>
                            <path id="path6" fill="#f0f0f0" d="M63.535 57.353c-.871 2.011 1.867 5.51 1.287 8.292.176.151.15-3.972-.394-5.407a23 23 0 0 0-.893-2.885m-20.8 19.073-1.599-3.561c-1.005.886.293 1.976.528 2.971.481 1.61 1.45 2.755 2.91 3.594 1.529 1.227 2.194 3.134 2.236 5.037.43-2.694-.431-5.641-2.83-7.18q-.6-.463-1.245-.861m-5.189-5.239c-.508 1.606.394 1.676.98.433-.4-1.244.54-1.631-.98-.433m-3.291-4.401c-.31 1.207.132 2.272.725 3.308.356-.362.116-2.083-.499-2.831zm2.242-10.4c-.765-.081-2.519-1.839-2.37-.37-.451 1.325 1.409 1.285 2.188 1.882.459.372.851-1.297.182-1.512m-2.382.982c-.707 1.343-2.31 2.333-2.095 4.005.182.398 1.232-1.564 1.76-2.107.425-.519.384-1.268.335-1.898m-3.982-12.695c-.741.546-2.338-.534-1.444 1.016.244 1.507 1.78-.133 1.73 1.71l1.094 3.242c1.527.916 1.356-1.224 2.48-.716 1.08 1.007 3.135-.242 1.517-1.136-.963-.163-2.388-1.257-2.46.375-1.214.43-1.824-.61-1.993-1.75zm-3.197-3.703c-.038-1.969.67-.706 1.32.296l2.018 2.885c.33-1.175-.117-2.135-.904-3-.732-.952-1.311-2.064-2.136-2.919-.11.911-.394 1.813-.298 2.738m-6.035-8.421c.368 3.534 1.186-1.993 1.483-3.202.305-1.431.705-6.255.224-2.45-.345 1.943-.939 3.837-1.707 5.652m10.44 1.456c.626-1.84 1.402-.244 2-.383.379-1.496 1.29-1.12 2.297-.4.262-1.306.55-1.665 1.285-.122.491-.01.585-2.723 1.46-.856.699 1.038.627-1.747-.242-1.956-.768-1.198-.708 2.763-1.49.685-.894-2.045-.276 1.64-1.456.41-1.116-1.334-1.447.7-2.041.857-.745-1.652-1.395-.103-2.065.759-1.128.285-2.483.142-3.698.262l3.62 1.504zm-.33-.902c.456-1.322-.254-1.974-1.477-2.332-.765-1.177-2.229 1.01-.93 1.142zm-2.241-5.651c-1.505.88-.43 1.464.668 2.044 1.085 1.43 1.591-.258.899-1.046zm-3.496-5.05-2.414-3.34c-.334 1.178.122 2.132.926 2.985.732.815 1.092 2.248 2.43 2.05l5.124.696c-.671-.786-1.041-2.075-2.305-1.871zm19.17-1.52c-4.316-.552-8.687-2.546-11.129-6.284-.805 2.595-1.385 5.489-3.589 7.313.44 2.672 2.192-1.668 2.573-2.782.427-.695.543-3.346 1.206-2.552 2.347 3.214 6.181 5.228 10.109 5.635-.122 4.774 0 9.566-.274 14.328-.85 1.08 1.415 2.02 1.245.614-1.273-.235-.357-1.858-.578-2.76zm-7.414 4.48c-1.516-.998-.85 1.043-.987 1.966-.05 1.097.452 2.865.53.8zm14.514 18.584c-1.006 1.206.043 1.774 1.1 2.34.902 1.13 1.81.282 2.72-.348.71-.707 2.337-.87 2.2-2.08.15-.964 1.917.086 2.742-.038 1.22.319 3.174 1.31 4.23 2.854 1.998 1.505 3.27 3.949 5.53 5.044.963.212 1.82 2.474 1.68.43.032-1.156-1.265-1.895-2.234-2.313-2.018-1.692-3.77-3.82-5.781-5.585-.978-1.696-2.534-1.602-4.168-1.883-1.139-.437-2.235-.779-2.475.764-.982.857-2.188 1.52-3.256 2.303zm-5.11-4.258c.3-1.21-1.191-1.524-2.053-1.076-.945-.42-1.892 1.326-.286 1.445.775-.01 2.351-.373 2.229.97.198.567.76 2.962 1.29 1.82.457-1.198 1.306-2.386 1.529-3.592-.391-1.246-.894 1.385-1.335 1.858-.494 1.831-1.034-1.039-1.374-1.425m2.367-9.83c-.719-.556-1.675-1.938-2.251-1.996-.69 1.157.203 1.939.95 2.755 1.441 1.64 2.87 3.288 3.762 5.304 1.265-.944 1.164 1.23 1.683 1.987.368.8.588 2.964.618.943.037-1.692-.875-3.23-1.376-4.813-1.186.44-2.072-3.505-3.386-4.179m25.675 32.084c.775-2.492-2.69-2.969-3.931-4.584-2.026-1.561-2.855-4.06-5.403-5.046-2.375-1.47-5.149.24-6.282-2.908-.812-1.099-2.905.855-.587 1.083 1.487 1.687 2.202 3.368 4.713 2.603 2.397.636 4.74 2.157 5.851 4.341 1.677 1.738 3.695 3.096 5.639 4.511M37.719 47.936c-2.59-1.154-.153 2.943 1.32 1.015 2.551-1.227 5.477-2.892 7.24-4.838-1.143-2.038-3.533 2.3-5.336 2.403-1.03.564-2.102 1.065-3.224 1.42m-1.646-5.018c-1.015.612.115 2.72 1.249 1.25l5.742-2.88c-.652-1.374-1.667-.755-2.68-.143l-4.217 2.106-.048-.17z" style="stroke-width:.307359"/>
                            <path id="path7" fill="url(#bS)" d="M72.078 62.434c1.172-.293 3.553-.322 1.16-1.378-2.286-1.503-4.347-3.382-5.827-5.556-1.875-1.975-4.961-2.637-7.167-2.574-.184-1.866-4.801-2.958-2.03-3.952 1.01-.266-.604-2.653.415-2.21 1.003.674 1.982 1.209 2.641-.15.697-.512 1.038 1.651 1.593 2.21.459 1.416 1.2 1.96 2.63 2.194 1.02.65 2.433.643 3.366 1.273.59 1.719.502 1.078 1.714.819 1.842.612.445-.934-.38-1.329-2.188-.925-3.328-3.26-5.197-4.665-1.356-1.362-2.932-3.21-4.69-3.14-.515-.216-2.503-.892-2.736-.215.205 1.256-1.408 1.435-2.141 2.135-.917.59-1.835 1.56-2.745.416-.918-.582-2.239-1.038-1.198-2.227.514-.98.915-1.955.06-2.871-1.196-1.311.97-.969 1.807-1.28.176-.808-.46-2.061-.768-2.987-.038-1.823-1.306-.598-1.748-1.802-1.083-2.31-3.049-4.017-4.591-6.014-.131 1.246.068 2.42.747 3.486-.777.892-.113 1.049.72 1.963.92 1.425.913 3.095 1.408 4.62-.067 1.1-.952 2.176-1.33 3.266-.467 1.831-1.081-.363-1.414-1.1.243-1.232-1.125-1.71-2.095-1.205-1.428-.432-1.232-1.108-.16-1.902.404-.627-1.768-.6-.731-2.077.163-4.65.133-9.314.222-13.969-4.099-.423-8.1-2.601-10.408-6.062-.747 2.424-1.3 5.016-3.12 6.917.906.243 2.6-.357 2.982.447l.42 4.175 2.555-2.659c1.595.032.634 1.599.613 2.602-.48 1.329-.164 2.214.898.854.58-1.326 1.996-.922 1.381.537l-.181 3.652c-.798-1.335-1.346-1.313-1.607.263-.389.666-1.32-2.455-1.334-.129-.206 1.198-1.973-1.47-2.2.356-.479 1.938-1.294-1.43-1.911.38-.48 1.326-1.187 1.225-2.324.541-.768-.371-2.988-1-.927-.871.586-.154 3.41.165 1.926-.426-.577-.593-2.757-.693-2.145-1.652.016-1.33 1.98-.703 2.144-1.042-.712-.603-2.203-1.116-2.455-1.772 1.145-1.172 2.28-2.354 3.419-3.531l-6.175-.838-2.414-3.34c.443 4.538-.156 9.151-1.537 13.486 2.89 1.934 5.713 4.024 8.654 5.848.688.31 3.307.3 1.635 1.022-1.701.558.44 1.25 1.03 1.887.755.65.411 2.014 1.35 2.632 1.808 1.014-1.603.996.028 1.974.69.75 1.596 1.263 2.367 1.927-.372 2.148-2.413-.255-3.088.664-.08 1.295-2.153.762-2.016-.419l-1.151-3.41c-.93 1.063-1.957-1.137-1.392-1.451 1.243-.288 2.078-.724.832-1.782l-2.323-3.321c-.546 2.714-.39 5.576.314 8.241 1.785 1.405.35 6.86 4.061 4.352.29.02.476 1.797 1.722 2.112 1.329.745 2.953 1.132 3.7 2.58-.08 1.7-1.27.559-2.257.188-1.218-.671-.06 2.247-1.413 2.82-.555.882-1.617 1.62-1.182 2.783.209 3.387.78 6.77.415 10.165.978 1.169 1.866.115 1.957-1.02-.493-1.143 1.207-1.572.143-2.599-.718-.951-.307-2.114-.297-3.204 1.303.868 1.769.619 1.274-.912l-.522-3.82c2.436-.742 2.048 1.712 2.618 3.403.235 1.707 2.094 3.134 1.103 4.858-.68.886.175 2.086-.738 2.622-1.217.588.138 1.887.222 2.834l1.811 5.15c2.057.015 3.602 1.605 5.398 2.423.848.269.21 2.989 1.342 1.819.083-2.808-1.797-5.187-4.185-6.489l-1.975-4.4c.64-1.014 1.071-2.113 2.018-.713 2.514 2.136 5.049 4.476 8.427 5.086 2.094.293 6.757.947 6.813-2.11l-6.317-12.663c1.748 1.785 3.454 4.314 4.927 6.568 1.612 1.282 2.283 5.93 4.357 5.473 4.407-3.922 4.807-10.624 2.728-15.847-1.723-1.064.676-3.508 1.439-1.884.543 1.02 1.31 1.636 2.374 1.686l1.872 2.595c.95-.18 1.864.478 2.79.665m-36.506-19.28c2.222-.379 4.86-3.485 6.672-2.75 1.56.959-.143 1.327-1.077 1.835l-5.11 2.562zm9.828-.49c1.512 1.428.363 2.405-1.184 3.238-2.102.986-5.068 4.38-7.21 2.937-1.574-1.683 3.535-1.99 4.634-3.29 1.34-.801 2.92-1.502 3.761-2.885" style="fill:url(#a);stroke-width:.315028"/>
                        </g>
                    </g>
                </g>
            </g>
        </g>
    </g>
</svg>
