<svg xmlns="http://www.w3.org/2000/svg" xml:space="preserve" id="svg5" width="88.338" height="100" version="1.1">
    <g id="blackLadybug" style="display:inline" transform="translate(-57.646 -60.29)">
        <path id="path61054-2" d="M111.536 70.794c-.066-.03-.147.062-.416.342-.365.385-.266 1.018-.607 1.412-.606.705-.721.122-1.37.093-.673-.03-1.358 1.186-1.983 1.642-.778.561-1.54 1.18-1.92 2.1-.733 1.802.054 3.199.731 4.85.602 1.483 1.241 2.98 1.674 4.526.294 1.04-.011 1.415-1.077 1.728-1.014.299-1.336-.073-2.175-.694-1.386-1.023-3.812-2.673-5.597-2.564-.68.042-1.475.996-2.11.944-.325-.03-.65-.615-.853-.949l-.022-.03c-.296-.535-.39-.78-.885-1.173-.231-.186-.488-.316-.698-.539-.013-.082-.057-.147-.049-.24.06-.608.53-1.394.672-1.838.379-1.19.6-2.199.725-3.433.071-.697.508-1.65.16-2.324-.132-.256-.696-.739-.96-.81-.51-.14-.094-.073-.645.102-1.22.394-1.213 1.363-.304 1.94.079.052.24.083.39.118-.256.47.118.765.389.698-.189.217-.54.427-.63.613-.375.776-.346 1.879-.698 2.745-.23.568-.443 1.156-.703 1.717-.457.986-.788 1.235-1.85 1.204a7.8 7.8 0 0 0-2.356.251c-1.85.49-2.757 1.856-3.886 3.321-.703.915-1.124 1.504-2.361 1.375-.768-.082-1.57-.26-2.324-.42-.643-.137-1.415-.276-1.946-.694-.399-.312-1.464-2.257-1.924-2.1v-.005c-2.352.801-.465 2.507.895 3.182 1.11.617 2.431.914 3.737 1.333l-1.311-.618c1.138.235 2.281.467 3.39.778-.019.178.025.325.208.42-.223 1.025.47 2.072 1.034 2.874-1.156.673-2.25 1.346-2.585 2.76-.254 1.082.258 2.024-.032 3.12-.234.87-.053.691.17 1.47.132.46-.147 1-.042 1.466.213.983.705.512.042 1.205-.483.503-1.355.489-1.716 1.098-.602-1.047-1.517-1.597-2.234-2.532-.395-.51-.574-1.209-1.007-1.684-.348-.384-.861-.565-1.189-.976-.592-.745-.424-1.065-1.316-1.344-.552-.174-1.174-.258-1.749-.34-1.021-.14-1.802-.004-2.756.442-.422.197-.95.641-1.412.713-.203.031-.553-.152-.736-.092-.514.176-.575.862-.943 1.15-.524.412-1.03.083-1.541.23-1.356.388-.339 2.003.432 2.59 1.437 1.099 3.584-.788 4.77-1.604.687-.468 1.226-1.058 1.946-.538.372.265.678.95.912 1.348.747 1.279 1.62 2.118 2.729 3.097 2.045 1.808 5.682 2.06 8.363 1.893 3.253-.208 6.497-.601 9.403-1.834.842-.358 2.279-1.216 3.481-1.146.056.615.618 1.152 1.082.597.1 1.282-1.703 3.583-1.839 4.387-.379 2.19 1.679 4.255 3.795 4.307 1.316.03 1.392-.72 2.16-1.413.746-.673 1.795-.2 2.58-.778 1.673-1.23 1.33-5.162-.502-6.114-.125-.062-.271-.062-.405-.092-.052-.052-.094-.137-.15-.165-.625-.33-2.006-.073-2.713-.062-.175.003-.24.03-.32.051-.12-.041-.247-.03-.362-.093-.913-.485-1.226-1.256-.773-2.148.768-1.52 2.797-2.653 3.94-3.918 1.075-1.183 2.13-2.418 2.985-3.768 1.51-2.387 3.566-5.324 3.512-8.279-.03-1.533-.39-3.558-.863-5-.217-.656-1.529-2.345-1.22-3.011.178-.392 1.736-1.01 2.105-1.226 1.054-.62 1.804-1.119 2.42-2.196.046-.083.096-.173.149-.256.013-.01.018-.031.027-.052.337-.53.72-1.105.277-1.695-.077-.105-.524-.256-.656-.405-.115-.132-.108-.585-.25-.704-.196-.163-.248-.303-.315-.33zm9.632 12.783c-.762-.003-1.677.549-1.647 1.071.007.135.066.192.107.278-.019-.006-.072-.031-.086-.031.064.112.611 1.313 1.024.858.084-.093.066-.18.037-.26.099.04.2.082.266.18.612.867-.596.852-.826 1.355-.243.533.332 1.127.022 1.78-.332.693-.682.886-.912 1.77-.193.737-.288 1.051-1.029 1.29-1.03.33-2.323-.483-3.273-.113-.994.387-.656 1.633-1.753 1.727-.926-.082-1.671-.603-2.564-.56-.006 0-.012.006-.016.006-.158.01-.308-.01-.48.04-.064.022-.108.063-.17.094-.05.02-.093.004-.144.03-.615.27-1.16.656-1.684 1.067-.1.082-.157.181-.246.266a.5.5 0 0 0-.085.072c-.008.02-.01.02-.017.042-1.083 1.119-1.402 2.71-2.27 4.061-.819 1.269-1.795 2.225-3.15 2.884.095.052.242.118.346.17l-.07.042c.077.03.128.005.198.02 1.794.898 4.47 1.777 4.84 3.913.182 1.047-.284 2.741-.73 3.673-.366.75-1.988 2.134-2.005 2.937-.007.343.564 1.054.72 1.343.544 1.007 1.085 2.005 1.626 3.012l4.29 7.958a454 454 0 0 0 4.942 8.891q.145.35.31.56c.174.308.34.621.516.928.71 1.23 1.347 2.584 2.602 3.342 1.186.721 2.388-.493 3.395-1.173 1.204-.816 2.16-1.173 3.012-2.441.608-.9 1.104-1.964 1.53-2.964.483-1.129 1.226-2.513 1.162-3.784-.025-.505-.153-.696-.341-.747a.3.3 0 0 0-.134-.093c-.203-.062-.428.082-.666.25-.45.166-.957.321-1.412-.122-1.072-1.044-1.177-2.91-.944-4.297.325-1.924 1.871-1.69 3.268-1.23.02-1.228-.189-2.155 1.268-2.485.058.955-.342 2.874.432 3.449.632.47 2.162.877 2.942.949 1.042.103 1.653-.377 2.623-.522.977-.15 1.604.203 2.564-.17.693-.268 1.414-.537 1.999-1.013.49-.394 1.029-.856.853-1.605-.101-.421-1.245-1.292-1.711-1.22-.591.093-.357.668-.56 1.178-.389.976-.578.398-1.423.501-.094.01-.156.041-.235.072-1-.072-2.226.083-2.75.182a1.8 1.8 0 0 0-.8-.118c-.332.031-.465.093-.608.144-.199-.114-.4-.307-.698-.704-.17-.226-.288-.5-.426-.757-.035-.093-.072-.218-.107-.293a5.9 5.9 0 0 0-.906-1.418c-.098-.134-.188-.276-.304-.394-.314-.32-.891-.71-1.263-.949-.257-.166-.829-.301-1.008-.448a1.1 1.1 0 0 1-.272-.357c-.121-.497-.053-1.083-.133-1.615-.145-.945-.362-1.893-.565-2.825-.74-3.39-2.245-6.559-4.216-9.398-1.12-1.608-2.221-3.467-3.641-4.834-.534-.513-1.244-.81-1.84-1.258-.283-.21-1.873-1.27-1.166-1.46.946-.256 1.452 1.593 2.537 1.06.5-.248.345-.524.565-.97.237-.476.43-.537.815-.901.724-.674.744-1.202.87-2.212.053-.426.023-.847.175-1.258.18-.486.605-.818.768-1.312.28-.857.051-2.28-.017-3.177-.04-.567-.12-1.305-.65-1.737-.179-.146-.418-.208-.672-.209zm-21.444 2.047c.455.051.904.228 1.306.464-.254.111-.487.222-.24.192.15-.02.242-.083.336-.138.045.03.1.04.144.072.426.296.847.749 1.087 1.215.484.925-.016.855-.82 1.46-.995.749-1.01 1.287-2.49 1.072-.88-.126-2.106-.411-2.884-.8-.169-.082-1.055-.092-1.055-.092.297-.537.958-.588 1.39-.976.254-.228.381-.529.587-.794.328-.428.704-.968 1.13-1.3.43-.336.965-.437 1.509-.38zM88.31 93.48c.122.294-.843 1.844-.88 2.212-.085.87.423 1.623.24 2.393-.24.353-.464.71-.575.864a2.6 2.6 0 0 1-.741.432c-.177.005-.366-.02-.666.041-.526.117-1.004.55-1.482.869-.009.006-.019.01-.027.02-.09.062-.187.093-.277.155a1.4 1.4 0 0 1-.405.165c-.237.042-.486-.051-.725-.192-.018-.092-.014-.137-.07-.277-.141-.361-.37-.574-.4-.938-.03-.359.014-.792.065-1.226l.122.01-.085-.41c.018-.187.046-.387.048-.555.007-.758.174-1.264.437-1.978 1.069-.768 2.182-.637 3.385-.98.146-.042.416-.188.65-.31.24.041.707.031.757.02.234-.061.433-.185.63-.314zm29.803 6.423c.23-.041.444-.051.618 0 .825.245 1.357 1.508 1.546 2.239.179.689.498 1.67.47 2.484q-.084.313-.134.634c-.17.43-.515.757-1.2.837-.432.051-1.86-.052-2.185-.31-.405-.33-.482-1.322-.8-1.812-.716-1.112-.647-1.886-.245-3.113.406-.337 1.243-.824 1.93-.96zm-23.46 6.269c-.798-.041-2.256.973-2.862 1.231-.815.35-1.465.46-2.35.47-.477 0-.977-.003-1.45-.062-.46-.062-.929-.316-1.355-.337-.821-.04-1.819.707-2.542 1.077-.859.438-1.32.974-1.471 1.994-.075.486.244 1.235-.08 1.647-.292.377-.812.189-1.21.335-.812.302-1.277 1.218-1.707 1.908-.365.582-.416 1.133-.677 1.7-.211.468-.423.576-.831.689-.59-.336-1.316-.618-1.546-.682-.517-.142-1.114-.16-1.605-.261-.466-.093-.776-.352-1.439-.219a4 4 0 0 0-.464.16c-.051-.01-.115-.02-.165-.041-1.393-.36-.078-1.644-1.066-2.09-.392-.177-1.748.377-1.85.853-1.464 1.02.958 2.282 1.61 2.799.87.693 1.08.913 2.212.81.805-.072 1.493.172 2.287.4.65.183 1.463.545 2.16.416.391-.073.67-.385 1.038-.49.477-.136.888.162 1.317.082.954-.176.605-1.03.592-1.775-.014-.718.155-1.134.442-1.77 1.278 1.938.459 4.932.912 7.186.79 3.947 3.374 7.424 6.13 10.266.077.083.157.16.234.24 1.027 1.231 3.366 3.679 4.5 3.896.131.135.27.272.298.39.111.461-.565 1.331-.501 1.977.081.789.475 1.306.9 1.945.149.221.29.417.432.625l-.005.006c.114.103.166.232.25.346.118.165.242.34.363.501.189.323.398.637.741.9.075.084.134.174.213.262-1.244.866-1.599 1.716-1.977 3.134-.603.291-1.256 2.141-1.797 2.532-.144-.082-.273-.17-.474-.24-.134-.36-.243-.856-.927-.554-.636.278-.504 1.054-.24 1.604.1.21.21.367.33.497-.022.45.012.904.347.681.126-.082.15-.221.138-.368.671.228 1.49-.214 2.271-.693 1.021-.626 1.423-1.624 2.042-2.607.547-.863 1.157-1.614 1.583-2.569.274-.616 1.318-2.311 1.098-2.985-.003-.009-.014-.01-.017-.02.132-.106.222-.205.187-.256-.08-.124-.362-.22-.677-.315-.598-.419-1.501-.674-1.738-1.242-.642-1.534 1.354-.406 1.76-.062-.163-1.421 1.227-2.934 2.606-2.996.517-.02 1.288.368 2.01.88a1.1 1.1 0 0 0-.315.352c.906.74 1.398 1.127 1.642 2.287.145.064.385-.046.416.112-.193.609-1.644 1.094-1.647 1.716-.004.722 1.318.892 1.828.997 1.272.259 2.492.573 3.79.677 1.735.136 3.214.092 4.766-.736 1.03-.554 2.481-1.278 3.3-2.084 1.108-1.091-.584-1.997-.726-3.204-.081-.67.122-.613-.1-1.188-.616-1.585-1.807-3.125-2.655-4.59a7226 7226 0 0 0-4.185-7.233c-2.025-3.499-4.157-6.956-6.087-10.512-.132-.242-.137-.594-.384-.757-.54-.354-1.975.197-2.617.176-1.714-.041-3.62-.8-4.611-2.244-.487-.71-1.137-2.048-1.194-2.958v-.123c0-.839.656-1.728 1.098-2.404a.7.7 0 0 0-.299-.093zm21.568 6.855c.878-.126 1.785.68 2.404 1.348.139.238.305.488.389.677.011-.062.02-.115.032-.175q.225.334.368.72c-.215 1.112-.089 2.199-.33 3.214-.39 1.625-1.185 2.608-2.831 2.873-.18.031-.38.083-.576.128-.17-.02-.332-.03-.517-.072-1.06-.226-1.147-.733-1.189-1.402.006-.062.027-.093.027-.155 0-.816-.532-1.546-.613-2.334-.042-.4-.002-.694-.027-.971.14-.633.369-1.28.41-1.962.373-.88 1.49-1.76 2.453-1.892zm3.3 2.873c.033.124.053.247.074.373-.023-.122-.056-.247-.075-.373m-32.426 2.356c.196-.02.41-.009.66.062.84.22 1.606.931 2.144 1.604.042.052.084.125.128.182.164.4.294 1.046.623.885.665 1.064 1.112 2.304.416 3.225-.644.372-1.236.71-2.095.544-.561-.108-1.337-.285-1.908-.544a11 11 0 0 1-.917-.874 4 4 0 0 1-.56-.777c-.22-.607-.326-1.27-.42-1.94a8.5 8.5 0 0 1 .271-1.6c.66-.28 1.07-.69 1.658-.762zm12.638 5.181a5.7 5.7 0 0 1 1.445.144c1.403.316 1.865 1.24 2.75 2.196.315.336 1.076.597 1.296.954.162.262.02.907-.027 1.237-.175 1.217-.41 1.495-1.365 2.004-.422.103-.833.29-1.247.458a5 5 0 0 1-1.866.02q-.423-.152-.858-.266c-.135-.03-.24-.082-.351-.122-.121-.062-.245-.112-.358-.182h-.005l-.005-.005c-.118-.072-.218-.17-.325-.256a6 6 0 0 1-.677-.784c-.106-.138-.202-.288-.304-.432-.414-.688-.905-1.554-.885-2.27.02-.882.928-1.684 1.445-2.282v-.006c.318-.28.82-.387 1.338-.406z" style="display:inline;fill:none;fill-opacity:1;fill-rule:nonzero;stroke:#9a9a9a;stroke-width:2;stroke-linecap:round;stroke-linejoin:round;stroke-dasharray:none;stroke-opacity:1" transform="translate(.088 .041)"/>
        <path id="path1-7" d="m121.236 92.799-3.416 1.972c.435.417.869.9 1.494.592.5-.248.344-.523.564-.969.237-.476.43-.538.815-.902.258-.24.427-.461.543-.693m-4.094 2.363-12.723 7.346c1.458.708 2.902 1.593 3.166 3.12.182 1.048-.282 2.743-.728 3.675-.366.75-1.989 2.132-2.006 2.935-.007.319.487.955.682 1.276l12.888-7.442c-.498-.048-1.014-.143-1.193-.285-.405-.33-.483-1.322-.8-1.812-.717-1.112-.647-1.887-.245-3.114.406-.337 1.243-.823 1.93-.959.23-.04.445-.05.619 0 .825.245 1.356 1.51 1.545 2.24.179.69.499 1.67.47 2.485l-.03.121 3.345-1.932q-.31-.486-.639-.96c-1.12-1.609-2.22-3.468-3.64-4.835-.534-.513-1.244-.81-1.84-1.257-.121-.09-.483-.335-.8-.602m-14.846 8.57-5.617 3.245-.002.001c-.285.484-.517.9-.562 1.168-.38 2.19 1.679 4.255 3.795 4.307 1.316.03 1.392-.719 2.16-1.412.746-.673 1.795-.2 2.58-.777 1.673-1.23 1.33-5.164-.502-6.116-.125-.062-.272-.061-.406-.091-.052-.052-.095-.136-.15-.164-.307-.162-.794-.183-1.296-.16m-8.441 4.875-11.945 6.897c.885 1.927.226 4.624.642 6.697.265 1.324.733 2.595 1.34 3.807l3.145-1.815a11 11 0 0 1-.893-.853 4 4 0 0 1-.559-.778c-.22-.607-.325-1.269-.42-1.939a8.5 8.5 0 0 1 .27-1.6c.66-.28 1.07-.69 1.658-.761v-.006c.196-.02.41-.008.66.062.84.22 1.607.93 2.145 1.604.042.052.085.124.129.181.164.4.294 1.046.623.885.172.276.33.565.457.856l11.803-6.815q-.126-.229-.25-.459c-.132-.242-.136-.593-.383-.756-.54-.354-1.975.197-2.617.176-1.714-.041-3.62-.8-4.612-2.244-.487-.71-1.138-2.05-1.195-2.96v-.12zm-12.541 7.24-4.871 2.813c.577.186 1.232.415 1.808.309.391-.073.672-.386 1.04-.49.477-.137.887.161 1.316.081.954-.176.605-1.03.592-1.775a3 3 0 0 1 .115-.937" style="display:inline;fill:#fff;fill-opacity:1;stroke-width:.307485"/>
        <path id="path2-1" d="M121.167 83.576c-.762-.003-1.676.55-1.646 1.072.007.135.066.192.107.278-.017-.006-.068-.029-.085-.032.064.112.61 1.315 1.023.86.084-.093.066-.182.037-.262.1.04.2.084.266.182.612.867-.596.85-.826 1.353-.243.533.333 1.129.023 1.782-.332.693-.682.885-.912 1.77-.193.736-.288 1.05-1.03 1.288-1.03.33-2.323-.481-3.273-.111-.994.387-.657 1.632-1.754 1.726-.926-.082-1.67-.603-2.562-.56h-.002l-.006.002-.002.002-.006.002h-.002c-.158.01-.307-.01-.479.04-.064.023-.108.064-.17.095-.05.02-.093.003-.144.029-.615.27-1.16.655-1.684 1.066-.1.082-.157.183-.246.268a.5.5 0 0 0-.086.07c-.008.02-.009.021-.015.043-1.083 1.12-1.404 2.71-2.272 4.06-.819 1.27-1.793 2.226-3.148 2.885.095.052.241.118.345.17l-.07.041c.077.03.127.006.197.022.511.256 1.094.509 1.674.79l12.723-7.345c-.424-.356-.77-.749-.365-.857.4-.109.722.16 1.042.467l3.416-1.973c.21-.418.248-.868.329-1.518.053-.426.021-.846.173-1.257.18-.486.605-.819.768-1.313.28-.857.052-2.28-.016-3.178-.04-.567-.12-1.304-.65-1.736-.179-.146-.418-.208-.672-.209zm-11.626 4.326L78.65 105.738c1.754.454 3.72.505 5.338.405 3.253-.208 6.37-.583 9.402-1.834 1.131-.413 2.279-1.035 3.48-.965.166.289.148.646.72.995.067.853-.344 1.677-.91 2.638l5.616-3.245c-.52.023-1.057.092-1.418.098-.175.003-.24.03-.32.05-.12-.04-.246-.03-.361-.093-.913-.485-1.227-1.254-.774-2.146.768-1.52 2.799-2.653 3.942-3.918 1.075-1.183 2.13-2.42 2.984-3.77 1.129-1.784 2.562-3.874 3.192-6.05zm-14.887 18.266v.004c-.798-.041-2.257.972-2.863 1.23-.815.35-1.465.461-2.35.471a12 12 0 0 1-1.45-.062c-.46-.062-.929-.315-1.355-.336-.82-.04-1.82.706-2.543 1.076-.859.438-1.32.974-1.47 1.994-.075.486.243 1.234-.08 1.646-.293.377-.812.19-1.21.336-.812.302-1.277 1.219-1.707 1.909-.365.582-.416 1.132-.677 1.699-.211.468-.422.576-.83.69a9 9 0 0 0-1.547-.682c-.517-.142-1.115-.161-1.606-.262-.466-.093-.774-.352-1.437-.219a4 4 0 0 0-.465.16c-.051-.01-.114-.02-.164-.04-1.393-.36-.079-1.645-1.067-2.09-.392-.178-1.747.377-1.85.853-1.463 1.02.958 2.282 1.61 2.799.87.693 1.08.911 2.211.808.805-.072 1.493.173 2.287.4q.17.05.352.108l4.871-2.812c.076-.266.187-.523.326-.832q.154.235.27.488l11.945-6.897c.029-.821.666-1.685 1.098-2.345a.7.7 0 0 0-.3-.094z" style="display:inline;fill:#ff9a56;fill-opacity:1;stroke-width:.307485"/>
        <path id="path3-1" d="m111.828 74.934-6.758 3.902c.187.791.557 1.56.9 2.396.602 1.483 1.241 2.982 1.674 4.528.294 1.04-.01 1.413-1.076 1.726-1.014.3-1.337-.072-2.176-.693-1.386-1.023-3.81-2.674-5.596-2.565-.68.042-1.476.998-2.11.946-.326-.03-.65-.615-.853-.95l-.023-.03-.004-.01L83.15 91.49c.21.426.482.828.73 1.182-1.156.673-2.249 1.346-2.584 2.76-.254 1.082.257 2.023-.033 3.119-.234.87-.053.691.17 1.47.132.46-.146 1-.04 1.465.212.983.703.512.04 1.205-.483.503-1.354.49-1.715 1.1-.602-1.047-1.517-1.598-2.234-2.533-.395-.51-.575-1.209-1.008-1.684-.348-.384-.86-.565-1.187-.976-.592-.745-.425-1.065-1.317-1.344a6 6 0 0 0-.555-.145l-8.246 4.762.096.076c1.437 1.1 3.584-.787 4.77-1.603.687-.468 1.227-1.06 1.947-.54.372.266.676.95.91 1.348.747 1.28 1.622 2.119 2.73 3.098.811.717 1.872 1.19 3.024 1.488h.002l30.89-17.836c.213-.735.334-1.48.32-2.226-.03-1.533-.39-3.558-.862-5-.217-.656-1.528-2.346-1.22-3.012.179-.392 1.735-1.01 2.104-1.227.798-.469 1.422-.87 1.946-1.503M99.32 85.607q.2-.009.404.012v.006c.455.051.905.227 1.307.463-.159.07-.312.14-.342.176l-.004.006v.006l.002.002v.002h.002l.006.002a.3.3 0 0 0 .096-.002c.15-.02.242-.082.336-.137.045.03.098.04.142.072.426.296.848.749 1.088 1.215.484.925-.016.854-.82 1.459-.995.749-1.01 1.287-2.49 1.072-.88-.126-2.105-.412-2.883-.8-.17-.083-1.055-.092-1.055-.092.297-.537.957-.587 1.389-.975.254-.228.382-.53.588-.795.328-.428.702-.967 1.128-1.299a1.92 1.92 0 0 1 1.106-.392zM88.31 93.48c.119.298-.844 1.844-.88 2.211-.086.87.422 1.625.24 2.395-.24.353-.464.71-.575.863a2.6 2.6 0 0 1-.742.432c-.177.005-.364-.02-.664.04-.526.118-1.004.551-1.482.87q-.016.007-.028.02c-.09.061-.187.094-.277.156a1.4 1.4 0 0 1-.404.164c-.237.042-.486-.05-.725-.192-.018-.092-.014-.137-.07-.277-.141-.361-.37-.573-.4-.937-.03-.36.013-.793.064-1.227l.123.01-.086-.41c.018-.187.047-.387.049-.555.007-.758.172-1.265.435-1.979 1.07-.768 2.184-.635 3.387-.978.146-.042.414-.189.648-.31.24.04.708.03.758.019.234-.061.432-.186.63-.315" style="display:inline;fill:#ef7627;fill-opacity:1;stroke-width:.307485"/>
        <path id="path4-5" d="M111.503 70.789c-.063.008-.155.111-.382.348-.365.385-.267 1.018-.608 1.412-.606.705-.722.12-1.37.092-.674-.03-1.358 1.186-1.983 1.642-.778.561-1.54 1.18-1.92 2.1-.362.89-.353 1.681-.17 2.453l6.758-3.902q0-.002.002-.002c.167-.203.323-.43.472-.69a6 6 0 0 1 .15-.256l.003-.002.002-.002c.01-.01.013-.03.021-.049.337-.53.72-1.105.278-1.695-.077-.105-.525-.255-.657-.404-.115-.132-.108-.584-.25-.703-.196-.163-.247-.303-.314-.33l.002-.006a.1.1 0 0 0-.033-.006zm-17.017 2.973-.006.002-.006.002c-.03.017-.051.08-.344.173-1.22.394-1.211 1.363-.302 1.94.079.052.238.082.388.117-.256.47.12.766.39.7-.188.216-.54.427-.63.613-.375.776-.345 1.878-.697 2.744-.23.568-.443 1.156-.703 1.717-.457.986-.79 1.236-1.852 1.205a7.8 7.8 0 0 0-2.355.25c-1.85.49-2.756 1.857-3.885 3.322-.703.915-1.125 1.504-2.362 1.375-.768-.082-1.57-.26-2.324-.42-.643-.137-1.416-.277-1.947-.695-.399-.312-1.464-2.257-1.924-2.1v-.006c-2.352.801-.463 2.509.897 3.184 1.11.617 2.43.913 3.736 1.332.539.018 1.277.07 2.078.16-.019.178.026.325.21.42-.126.573.036 1.153.302 1.693l12.656-7.306c-.292-.528-.389-.772-.88-1.163-.232-.186-.488-.316-.698-.539-.013-.082-.057-.147-.049-.24.06-.608.53-1.394.672-1.838.379-1.19.6-2.2.725-3.433.07-.697.508-1.65.16-2.325-.132-.256-.695-.737-.96-.808-.206-.057-.262-.081-.29-.076m-22.99 23.1c-.695 0-1.314.159-2.03.493-.422.197-.95.641-1.412.713-.203.031-.551-.151-.734-.092-.514.176-.576.863-.944 1.15-.524.413-1.03.084-1.54.231-1.301.373-.42 1.874.335 2.514l8.246-4.762c-.395-.084-.806-.14-1.195-.195a5 5 0 0 0-.726-.053" style="display:inline;fill:#d52d00;fill-opacity:1;stroke-width:.307485"/>
        <path id="path5-2" d="m124.062 102.816-3.346 1.93v.002a6 6 0 0 0-.103.512c-.17.43-.514.758-1.2.838-.193.023-.587.013-.992-.026l-12.888 7.442q.023.036.039.068c.544 1.007 1.084 2.005 1.625 3.012l3.129 5.802 3.654-2.11c.008-.034.018-.06.018-.102 0-.816-.533-1.546-.614-2.334-.042-.4 0-.694-.025-.971.14-.633.367-1.281.408-1.963.373-.88 1.49-1.76 2.453-1.893v.004c.878-.126 1.786.68 2.405 1.348.139.238.304.489.388.678l.033-.176q.225.334.368.72c-.108.556-.13 1.105-.155 1.641l8.602-4.966c-.073-.341-.15-.68-.223-1.018-.657-3.013-1.92-5.85-3.576-8.437zm-21.152 12.211-11.803 6.815c.363.831.475 1.69-.041 2.373-.644.372-1.237.709-2.096.543-.56-.108-1.337-.284-1.908-.543l-.025-.022-3.145 1.815c1.204 2.401 2.96 4.572 4.791 6.46.077.084.157.16.234.24.31.371.736.85 1.213 1.347l8.332-4.81a6 6 0 0 1-.324-.41c-.106-.137-.2-.289-.303-.433-.414-.688-.904-1.553-.884-2.27.02-.881.926-1.683 1.443-2.28v-.007c.318-.28.822-.387 1.34-.406l-.002-.002a5.7 5.7 0 0 1 1.445.145c1.403.316 1.865 1.24 2.75 2.195q.091.095.22.184l3.825-2.207c-1.7-2.9-3.446-5.78-5.062-8.727m16.61.873h.001c.033.124.053.247.074.373-.023-.122-.057-.247-.076-.373" style="display:inline;fill:#d162a4;fill-opacity:1;stroke-width:.307485"/>
        <path id="path6-7" d="m127.86 112.271-8.6 4.967c-.026.539-.056 1.064-.177 1.572-.39 1.625-1.184 2.609-2.83 2.874-.18.03-.38.083-.576.128-.17-.02-.332-.03-.517-.072-1.06-.226-1.148-.733-1.19-1.402a.3.3 0 0 1 .01-.053l-3.654 2.111 1.162 2.157a454 454 0 0 0 3.693 6.687l10.284-5.935c-.157-.807-.13-1.672-.006-2.403.325-1.924 1.87-1.69 3.267-1.23.02-1.228-.187-2.155 1.27-2.485.054.896-.295 2.64.3 3.327l2.833-1.635a3.4 3.4 0 0 1-.506-.569c-.17-.226-.288-.5-.426-.757-.035-.093-.073-.218-.108-.293a5.9 5.9 0 0 0-.906-1.418c-.098-.134-.187-.277-.303-.395-.314-.32-.891-.708-1.263-.947-.257-.166-.829-.302-1.008-.45a1.1 1.1 0 0 1-.271-.357c-.121-.497-.053-1.083-.133-1.615a31 31 0 0 0-.344-1.807zm-19.888 11.483-3.824 2.207c.364.254.896.48 1.074.77.162.261.022.908-.025 1.238-.175 1.217-.41 1.495-1.365 2.004-.422.103-.835.289-1.249.457a5 5 0 0 1-1.865.02 10 10 0 0 0-.857-.267c-.135-.03-.24-.08-.352-.12-.12-.063-.244-.112-.357-.182h-.006l-.006-.006c-.118-.072-.217-.17-.324-.256a6 6 0 0 1-.354-.375l-8.332 4.81c1.111 1.155 2.494 2.398 3.287 2.55.131.134.27.272.297.39.111.46-.564 1.33-.5 1.976.081.79.476 1.307.9 1.946.15.22.29.417.432.625l-.006.006c.114.103.166.231.25.345.118.165.243.341.364.502q.088.154.187.301l2.463-1.422c-.584-.35-1.334-.609-1.547-1.119-.642-1.534 1.354-.404 1.76-.06-.163-1.421 1.226-2.934 2.605-2.996.517-.02 1.288.367 2.01.879a1.1 1.1 0 0 0-.314.351l.242.2 10.469-6.046-.098-.166a7243 7243 0 0 0-4.183-7.232q-.386-.667-.776-1.33" style="display:inline;fill:#b55690;fill-opacity:1;stroke-width:.307485"/>
        <path id="path7" d="m139.742 119.05-.045.005c-.591.093-.358.667-.56 1.177-.39.976-.578.4-1.423.502-.094.01-.157.042-.236.073-1-.072-2.226.082-2.75.181a1.8 1.8 0 0 0-.799-.119c-.332.031-.464.094-.607.145a1.3 1.3 0 0 1-.194-.135l-2.832 1.635q.06.068.131.123c.632.47 2.162.877 2.942.949 1.042.103 1.653-.378 2.623-.523.977-.15 1.604.203 2.564-.17.693-.268 1.413-.536 1.998-1.012.49-.394 1.03-.857.854-1.606-.098-.407-1.175-1.238-1.666-1.224zm-14.278 6.255-10.283 5.935q.621 1.104 1.248 2.203.145.35.31.56c.175.309.34.622.516.929.71 1.23 1.347 2.583 2.602 3.341 1.186.721 2.387-.493 3.394-1.173 1.204-.816 2.16-1.174 3.012-2.442.608-.9 1.105-1.963 1.531-2.963.483-1.129 1.227-2.514 1.163-3.785-.025-.505-.154-.695-.342-.746a.3.3 0 0 0-.133-.094c-.203-.062-.428.082-.666.25-.45.166-.957.322-1.412-.12-.507-.495-.799-1.171-.94-1.895m-12.435 7.177-10.469 6.045c.753.62 1.18 1.036 1.4 2.088.299.035.52.137.416.113-.048.166-1.645 1.093-1.648 1.715-.004.722 1.318.893 1.828.998 1.272.26 2.493.572 3.791.676 1.735.136 3.214.094 4.766-.734 1.03-.554 2.482-1.278 3.3-2.084 1.109-1.091-.584-1.998-.726-3.205-.081-.67.122-.613-.1-1.188-.592-1.525-1.719-3.009-2.558-4.424m-15.225 8.791-2.463 1.422c.146.215.318.42.553.6.075.084.136.174.215.262-1.244.866-1.6 1.714-1.979 3.132-.603.291-1.255 2.143-1.796 2.534-.144-.082-.272-.17-.473-.24-.134-.36-.244-.857-.928-.555-.636.278-.504 1.053-.24 1.603.1.21.21.368.33.498 0 0 .13.17.484.313.671.228 1.49-.215 2.272-.694 1.02-.626 1.424-1.622 2.043-2.605.547-.863 1.156-1.615 1.582-2.57.274-.616 1.317-2.31 1.097-2.985v-.004H98.5l-.002-.002-.002-.002-.002-.002-.002-.002-.003-.004-.002-.002v-.002c.132-.106.22-.205.185-.256-.08-.124-.36-.221-.676-.316a3 3 0 0 0-.191-.123z" style="display:inline;fill:#a30262;fill-opacity:1;stroke-width:.307485"/>
    </g>
</svg>
