<svg xmlns="http://www.w3.org/2000/svg" xml:space="preserve" id="svg5" width="88.338" height="100" version="1.1">
    <g id="blackSpider" style="display:inline" transform="translate(-57.646 -60.29)">
        <path id="path49309-1" d="M110.951 72.717c-.564.008-1.128 1.846-1.328 2.276-.805 1.743-1.078 3.64-1.555 5.49-.284 1.096-.58 2.228-.617 3.366-.029 1.09.415 1.78.815 2.735a14.9 14.9 0 0 1 1.056 4.423c.096 1.229-.295 2.358-.038 3.584.195.935 1.087 2.156.978 3.105-.086.713-.875 1.434-1.289 1.955a31 31 0 0 1-2.3 2.567c-.444.447-1.417 2.101-2.059 1.299-.74-.929.792-2.228.943-3.14.205-1.257.096-2.614-.01-3.875-.095-1.168-.195-2.347-.553-3.47-.337-1.053-.992-1.914-1.56-2.85-1.278-2.105-2.4-4.315-4.112-6.116-1.487-1.561-2.962-3.181-4.586-4.6-1.594-1.394-3.429-2.383-5.258-3.412-.98-.55-2.08-1.656-3.253-1.742-.412-.029-.846.086-1.249.163-.067.01-.747.086-.49.104.341.575.427.893 1.102.874 1.063-.038 1.418.02 2.3.716.48.379.974.633 1.491.952 2.264 1.394 4.893 3.336 6.205 5.707.598 1.077 1.168 2.117 1.94 3.09.85 1.073 2.114 2.052 2.607 3.362.242.64.223 1.333.415 1.984.207.703.631 1.226 1.026 1.822.144.216.26.446.371.676-.057.135.048.31.203.494.284.772.41 1.59.3 2.42-.155 1.214.134 2.404-.028 3.593-.058.452-.16 1.12-.479 1.456-.363.39-.945.316-1.135-.261-.196-.596.455-1.175.478-1.783.006-.163-.038-.34-.067-.513.086-.524.039-1.443.02-1.56-.067-.418-.197-.829-.52-1.12-.037-.029-.202-.114-.335-.187-.32-.637-.765-1.065-1.357-.588-.826.666.765 2.531.844 3.367.058.644-.038 1.268-.706 1.456-.325.096-.682-.038-1.016.104-.96.391-1.93 1.304-2.716 1.975-.493.421-.576.562-1.031.123-.37-.358-.744-1.013-.993-1.48-.365-.688-.326-1.992-1.273-2.227-2.048-.51-.476 2.6-.148 3.154.228.387.507.728.809 1.047-.162-.174-.313-.342-.35-.316-.236.16.409.782.528.824.096.038.213.01.32.005-.038-.048-.085-.086-.123-.133.058.048.12.086.178.133h-.057c.65.704 1.521 1.512 2.246 1.249.106.108.198.243.276.479.057.183.483 1.408.43 1.466-.067.076-1.534-.49-1.827-.49-.096 0-.182-.008-.276-.01-.444-.176-.908-.18-1.392-.182-.116-.029-.227-.038-.346-.086-.733-.307-1.371-.876-2.128-1.12-.665-.217-1.03.171-1.648.152-1.436-.038-1.363-2.12-1.896-2.996-.654-1.075-1.735-1.307-2.597-2.039-.127-.128-.2-.206-.325-.326-.876-.976-1.334-2.456-1.975-3.579-.382-.67-.844-1.284-1.288-1.91-.177-.352-.351-.705-.554-1.037-.165-.273-.953-1.95-1.663-3.55-.226-1.061-.421-2.13-.692-3.184-.288-1.137-.843-2.427-.79-3.618.029-.624.81-2.789.163-3.184v-.01c-.456-.277-1.064.402-1.225.76-.218.492-.12 1.11-.067 1.62.114 1.159.32 2.308.513 3.455.38 2.25.229 4.722.854 6.912.261.905.856 1.676 1.294 2.503.472.889.863 1.817 1.308 2.72.554 1.126 1.023 2.355 2.049 3.13 1.005.753 1.189 1.288 1.58 2.428.14.412.321.78.528 1.126-.103.286.377.972.494 1.076.308.279.737.469 1.11.681.212.161.447.298.677.44.137.096.249.16.394.216a16.6 16.6 0 0 0 2.839 1.234c.928.308 1.819 1.285 2.794 1.314.307.008 1.06-.242 1.698-.331.199.21.443.367.686.375-.551.363-2.033.938-2.236 1.042-1.178.608-2.173 1.496-3.367 2.064-1.2.57-2.126.95-3.199.019-1.075-.938-2.072-1.207-3.51-1.052a4 4 0 0 1-.868-.005 13 13 0 0 0-1.526-.469c-1.379-.734-2.397-2.098-3.993-2.804-1.231-.542-2.538-.58-3.846-.31-.921.194-1.754.618-2.715.646-1.508.048-2.965-.057-4.473.099-.267.028-4.008.447-2.868 1.515.214.203 1.134-.18 1.358-.227.6-.131 1.19-.213 1.802-.232 1.356-.038 2.783-.058 4.117.222.588.124 1.185.275 1.688.622.521.358.82.92 1.353 1.264 1.021.652 2.094.51 3.174.119.882-.318 1.206-.419 2.054.076 1.089.638 2.097 1.283 3.263 1.753.125.047.168.114.261.168-.003.007-.01.007-.01.019-.085.244.841 1 1.274 1.185.37.285.824.358 1.304.448.74.139 1.312.193 2.029-.057.572-.2.856-.284 1.466-.104 1.224.358 2.235.29 3.357-.365.205-.12.404-.265.607-.394.321-.107.622-.253.834-.47.038-.038.038-.086.067-.123.516-.364 1.022-.738 1.52-1.1.69-.503.905-1.11 1.378-1.788.533-.758 2.25-1.148 1.51.223-.386.714-1.482 1.362-2.073 1.965-.577.59-1.223 1.163-1.733 1.816-.586.747-.79 1.5-1.619 2.044-2.145 1.406-3.86 3.202-6.54 3.535-1.071.134-1.404.803-2.311 1.263-.812.41-1.892.88-2.8 1.003-.439.066-.815-.125-1.243-.144-.605-.028-1.152.211-1.698.435-.326.135-.975.248-.884.676.067.336 1.102.551 1.372.637 1.385.422 2.692.316 4.014-.276 1.133-.509 1.352-.785 2.601-.43 1.224.35 1.672-.363 2.69-.952.795-.456 1.636-.83 2.43-1.293 1.777-1.036 3.802-1.777 5.321-3.19.851-.793 1.462-1.708 2.079-2.69.325-.521.873-2.19 1.757-1.92.619.188.181.993-.048 1.338-.305.465-.584.798-.82 1.308-.463 1.003-1.442 1.354-2.103 2.231-1.38 1.843-1.848 3.938-2.325 6.151-.212.978.02 1.91.4 2.829.217.528.566 1.034.687 1.594.116.552-.03 1.055-.086 1.605-.294 2.818.761 5.322 2.038 7.765 1.047 2.006 2.362 3.816 3.574 5.722.866 1.363 1.641 2.628 2.81 3.766.47.459.896.949 1.312 1.456.294.352.728 1.131 1.21 1.264.538.146.962-.298.84-.859-.133-.607-.917-.984-1.348-1.342-.866-.723-1.493-1.695-2.133-2.612-.88-1.254-1.773-2.504-2.394-3.914a15.6 15.6 0 0 1-1.17-4.266c-.114-.9-.086-1.8-.365-2.675-.486-1.515-1.462-2.932-1.723-4.512-.204-1.238.51-2.335.242-3.634-.162-.794-.93-1.648-.73-2.453.265-1.064 1.25-2.007 1.688-3.026.125-.292.286-1.494.533-1.669.277-.196.16 0 .33.257.373.568.466 1.46.785 2.088.254.498.547.986.85 1.456.69 1.071 1.522 1.966 2.453 2.83 1.424 1.319 2.883 2.786 4.705 3.519 2.047.825 3.655 1.828 5.8.508 1.005-.619 1.281-1.49 1.565-2.577.282-1.086.598-2.218.538-3.352-.096-1.836-.414-3.773-.72-5.588a39 39 0 0 0-.697-3.297c.086-.68-.38-1.92-.859-2.089-.148-.366-.193-.711.169-.927.896-.54 2.064.487 2.858.75.815.268 1.374.525 2.058 1.047 1.234.942 2.656 1.676 3.826 2.69.819.71 1.418 1.67 2.202 2.424.721.694 1.037 1.393 1.451 2.291.589 1.278 1.767 1.966 2.617 3.046.802 1.017 1.458 2.259 1.89 3.48.363 1.029.588 2.058 1.037 3.066.438.97.981 1.843 1.037 2.927.038.663 0 1.34-.193 1.975-.165.543-.572 1.17.168 1.496.896.39 1.061-.755 1.15-1.358.382-2.578-.478-4.743-1.204-7.133-.422-1.387-.488-2.884-1.121-4.196-.859-1.778-1.783-3.56-2.809-5.248-.698-1.15-1.424-2.48-2.434-3.391-.768-.694-1.73-.997-2.31-1.91-1.254-1.974-2.047-3.59-4.374-4.444-2.02-.74-3.935-1.605-6.096-1.09-.498.118-.984.377-1.496.33-.53-.048-.992-.376-1.55-.385-.254 0-.894.218-1.126.067-.37-.243-.25-.8.114-.938.458-.172 1.285.18 1.802.104.193-.03.37-.096.558-.144.84-.215 1.754-.346 2.557-.691 2.003-.856 3.853-1.823 5.642-3.066.95-.661 1.98-1.01 2.947-1.58.724-.428.991-1.365 1.54-1.98.673-.751 1.496-1.372 2.143-2.147.554-.663 1.342-1.91 1.412-2.779.029-.398.057-.732-.435-.918-.614-.235-.954.404-1.303.79-.752.828-1.488 1.582-2.182 2.468-.433.557-.972 1.11-1.62 1.412-.47.222-.915.251-1.293.637-.465.477-.631 1.217-1.076 1.708-.633.698-1.807 1.038-2.636 1.417-.758.347-1.575.604-2.31.993-1.122.595-1.218 1.154-2.528.785-1.046-.294-2.047.236-3.011.637-.01-.006-.008-.029-.02-.038-.006-.002-.028.057-.037.057-.029.01-.067.02-.096.038-.095.038-.784.42-.893.281-.167-.214.554-.91.661-1.032.803-.902 1.767-1.55 2.656-2.344 1.89-1.688 1.265-4.31 1.856-6.517.308-1.147.291-1.655-.076-2.814-.321-1-.742-1.838-1.21-2.764-.57-1.14-.655-2.59-.558-3.846.086-1.126.589-2.15.642-3.287a4.34 4.34 0 0 0-.449-2.202c-.197-.399-.442-.719-.523-1.175-.21-1.129.1-2.492.305-3.604.168-.896 1.124-3.003.321-3.84a.32.32 0 0 0-.241-.119zm-1.752 8.94c.028-.005.038.01.057.01.17.238.436.571.651.844.01.188.039.394.039.524-.01.233.019 1.625-.281 1.767-.889.422-1.798-2.851-.465-3.144zm-7.153 9.281c-.008.28.692.248.829.321.028.02.174.198.33.376.106.177.274.392.301.478.077.24.375 1.325-.005 1.373-.256.028-1.74-2.184-1.53-2.484.019-.028.048-.038.076-.066zm8.545 2.133c.067-.005.514.217.785.36.316.745.466 1.905.271 2.26-.716 1.306-1.73-1.434-1.293-2.477.076-.077.164-.139.237-.144zm-6.877 3.979c.057.184.251.212.46.197.296.52.294 1.682.232 1.906-.077.277-.459 1.318-.82 1.1-.207-.124-.1-3.014.128-3.203m18.567 3.603q.114-.002.168.067c.028.029-.01.107-.048.178a.56.56 0 0 0-.232-.168c-.038-.02-.205.029-.316.038.144-.057.29-.114.424-.114zm-.385.306c.291.187-.106.485-.114.686-.086.076-.211.219-.242.237-.298.17-.919.288-.962-.203-.02-.201.215-.386.478-.537.001.019-.028.028-.019.047.057.103.734-.318.859-.232zm-37.119 1.451c-.019.039-.038.048-.057.086-.116.321.877 1.89 1.254 1.738.112-.048.162-.156.187-.296.179.45.28.862.099.958-.45.237-1.884-2.192-1.53-2.478.009-.01.037-.002.047-.01zm31.767 2.251c.135.048.186.15-.067.41-.019.02-.2.086-.261.119.218-.157.403-.338.325-.529zm-.878.153c.185-.019.388.005.473.164a.27.27 0 0 1 .005.246c-.513.275-1.738.782-1.87.41-.077-.233.942-.694 1.066-.76.019-.01.076-.02.109-.03.067-.01.106-.018.216-.028zm-5.204 1.605c.476-.02.922.086 1.062.469.134.367-.343.347-.632.414-.646.155-1.48.428-2.142.212-.152-.047-.184-.098-.257-.148.038-.067.086-.116.118-.207.01-.029.029-.172.048-.252.19-.096.383-.195.578-.257v-.005c.25-.077.754-.21 1.23-.227zm-19.252.4c.536.076 1.33.344 1.742.578-.019.133.058.307.168.483-.268.229-.912.298-1.15.276-.398-.038-1.72-.748-1.23-1.313.049-.057.23-.057.47-.028zm-18.394 2.172c.531-.112 1.323.057 1.86.375.04.229.307.532.573.657.148 1.38-3.157.282-2.962-.613.049-.226.25-.36.528-.419zm41.033 1.24c.344-.02.707.13 1.027.206.265.058.58.102.888.153.004.058-.01.102.029.164-.11-.189.97.613.809.631.048-.006.067-.076.086-.123.038.12.1.293.118.34.077.197.122.324.188.44-.039.038-.039.096-.105.128-.46.24-2.031-.533-2.443-.651-.5-.144-2.27-.565-.928-1.205q.161-.071.336-.086zm-16.745 2.31c.048.236.175.46.335.612-.235.18-.538.353-.676.449-.287.2-.569.362-.825.602-.186.176-.493.786-.74.888-.287.119-.51.057-.622-.28-.14-.434.273-.776.553-1.047.31-.303 1.256-1.074 1.975-1.225m12.87.047c1.172.191 1.315 1.898 1.762 2.75.458.87.716 1.522.435 2.557-.647 2.392-3.412 4.45-5.697 5.07-1.033.279-2.367.34-3.525.187-.12-.038-.258-.048-.375-.086-.158-.057-.884-.432-1.447-.642-.567-.534-.928-1.294-1.283-2.019v-.005c-.485-.988-1.178-2.161.41-2.029 1.55.13 3.06.067 4.512-.553 1.305-.56 2.332-1.477 3.095-2.67.496-.778.951-2.749 2.113-2.558zm-26.204.139c.635.028 1.382.318 1.753.667-.174.156-.086.452.086.676-.35.299-1.222.242-1.926.005a3 3 0 0 0-.794-.44.5.5 0 0 1-.11-.241c-.038-.52.419-.695.993-.667zm36.052.123c-.029.347.435.611.736.637.184.02.38-.138.562-.095.274.4.626 1.18.617 1.545-.01.43-.185.396-.4.257-.616-.708-1.225-1.348-1.683-1.545-.12-.188-.19-.366-.128-.513v-.005a.5.5 0 0 1 .296-.282zm-26.746 4.75c.12.018.201.066.212.162 0 .006-.02.02-.02.03a3.6 3.6 0 0 0-.537.404c-.113.105-.106.142-.158.212a8 8 0 0 1-.844.504c-.274.12-1.103.419-1.25-.029-.144-.442 1.102-.927 1.358-1.022.171-.067.88-.311 1.24-.262zm3.006 1.82c.134.225.436.32.73.218-.202.87-.723 1.751-1.209 2.492-.019.039-.038.048-.066.086-.227-.244-.53-.39-.88-.345.003-.02-.002-.029 0-.048a3.48 3.48 0 0 1 .998-2.078c.101-.1.272-.206.424-.326zm30.069.543c.028-.005.067.01.095.02 0 .339.464.94.74.858a.24.24 0 0 0 .12-.086c.286.519.43 1.127.138 1.303-.048.03-.106.03-.169.02-.345-.399-.671-.765-.893-.889-.262-.415-.45-.856-.316-1.027a.46.46 0 0 1 .287-.187zm-40.776 1.832c.086.01.129.048.202.067-.178.126-.067.423.077.558-.56.287-1.993.404-1.393-.38.17-.222.695-.299 1.116-.247zm8.974 4.161c-.019.35.267.796.573.736.264.73.314 1.735-.193 1.93-.466.182-.914-2.484-.554-2.66.058-.03.116-.01.173-.006zm1.432 8.743c.337.077.669.49.918.973-.146-.181-.375-.293-.563-.144-.356.282.147.958.543.745.184-.097.167-.285.086-.46.421.907.502 1.988-.41 1.749-.349-.096-.895-1.344-1.037-2.143.152-.128.142-.354.039-.538.01-.019-.002-.086.019-.095a.46.46 0 0 1 .41-.086z" style="fill:none;fill-opacity:1;fill-rule:nonzero;stroke:#989898;stroke-width:2;stroke-linecap:round;stroke-linejoin:round;stroke-dasharray:none;stroke-opacity:1" transform="translate(.088 .041)"/>
        <path id="path1-6" d="m111.162 72.812.027.03zm.34.858c.02.33-.03.699-.11 1.07.08-.371.13-.74.11-1.07m-.196 8.314a4.3 4.3 0 0 1 .227 1.112 4.3 4.3 0 0 0-.227-1.112m-.08 3.326c-.143.54-.291 1.076-.334 1.64.043-.564.19-1.1.334-1.64m15.721 11.032c-.088.355-.26.747-.467 1.125.206-.378.379-.77.467-1.125m-14.805 4.328c-.165.687-.439 1.332-.936 1.894.497-.562.771-1.207.936-1.894m-3.554 5.221v.002h.001v-.002zm.001.002h.002v-.002zm-.004 0-.002.004zm.008.002.004.006v-.002l-.002-.004zm.004.008.008.02zm-.045.044c-.025.01-.057.02-.084.034.027-.014.06-.025.084-.034m.729 3.221c-.108.016-.243.043-.379.067.137-.024.27-.051.379-.067m3.182.041c-.431.102-.852.308-1.29.332.437-.024.86-.23 1.29-.332m8.683 2.892c.646.758 1.158 1.654 1.785 2.641-.627-.987-1.14-1.883-1.785-2.64m-6.94.774c.37.166.732.383 1.053.535-.321-.152-.683-.369-1.052-.535m-1.661.047h.002zm3.023.615c.611.201 1.077.397 1.56.702-.483-.305-.949-.5-1.56-.702m10.082 3.524c.394.429.745.918 1.07 1.422l.002-.002a10.5 10.5 0 0 0-1.072-1.42m1.07 1.422-2.728 1.576c.493.58.769 1.186 1.111 1.93.59 1.278 1.767 1.966 2.617 3.046.802 1.017 1.459 2.26 1.891 3.48.363 1.03.588 2.06 1.037 3.067.438.97.981 1.842 1.037 2.926.038.663 0 1.34-.193 1.975-.165.543-.572 1.17.168 1.496.896.39 1.061-.755 1.15-1.358.382-2.578-.477-4.742-1.203-7.132-.422-1.387-.488-2.884-1.121-4.196-.859-1.778-1.785-3.56-2.81-5.248-.306-.503-.618-1.04-.956-1.562m-4.691-.637c.551.605 1.037 1.286 1.625 1.852-.588-.566-1.074-1.247-1.625-1.852m-24.1 2.037a.2.2 0 0 0-.043.018q.026-.013.043-.018m.059.026q.007.01.014.025-.007-.015-.014-.025m28.166.052h.002a.2.2 0 0 1 .09.022c0 .339.464.94.74.857a.24.24 0 0 0 .121-.086c.286.52.429 1.127.137 1.303-.048.03-.105.03-.168.02-.345-.4-.673-.765-.895-.89-.262-.414-.448-.856-.314-1.027a.46.46 0 0 1 .287-.185l-.002-.012h.002zm-29.309 2.422c-.316.497-.69.986-.962 1.494.272-.508.646-.997.962-1.494m17.977 2.602c0 .128-.015.255-.023.383l.011-.008q.012-.188.012-.375m-.023.383-8.077 4.662.192.08c2.047.825 3.654 1.828 5.799.508 1.005-.62 1.282-1.49 1.566-2.577.226-.869.46-1.768.52-2.673m-18.461 1.982c.066.558-.032 1.08-.137 1.598.105-.518.203-1.04.137-1.598m-2.977 4.529q.002.173.01.344-.008-.17-.01-.344m.24 2.19.016.056zm.852 2.545c.047.11.085.225.135.335-.05-.11-.088-.224-.135-.335m.135.335.027.069.004-.002zm.03.067q.387.855.827 1.697c1.047 2.006 2.36 3.817 3.572 5.723.866 1.363 1.642 2.627 2.81 3.765.47.46.897.949 1.313 1.456.294.352.727 1.132 1.21 1.265.537.146.963-.298.841-.86-.133-.606-.918-.983-1.35-1.341-.865-.723-1.492-1.696-2.132-2.613-.88-1.254-1.772-2.504-2.393-3.914a15.6 15.6 0 0 1-1.172-4.266c-.114-.9-.084-1.799-.363-2.674-.006-.017-.016-.033-.021-.05l-1.6.923c.133.153.338.243.52.145.16-.084.166-.236.113-.389.393.892.451 1.91-.438 1.678-.248-.068-.589-.722-.82-1.38.03.086.055.171.088.255v.002zm.917-.834q-.031-.08-.059-.16c.018.055.04.104.059.16m2.225-.979.003-.002c-.148-.451-.34-.894-.54-1.336.201.443.388.886.537 1.338m-.538-1.337c-.349-.766-.73-1.528-.974-2.32.244.792.625 1.554.974 2.32m-1.855.931c-.006.02-.004.055-.008.074.004-.02.002-.054.008-.074m-.008.074q0 .005-.002.008zm.662.84" style="display:inline;fill:#2d2d2d;fill-opacity:1;stroke-width:.398931"/>
        <path id="path9" d="m110.95 72.717-.003.006h.002zm.214.095.025.03h.002zm.322 1.377c-.1.9-.514 1.933-.62 2.493-.102.556-.23 1.174-.306 1.794.077-.62.206-1.239.309-1.794.105-.56.518-1.592.617-2.493m-.979 5.662q.017.222.055.434h.002a4 4 0 0 1-.057-.434m.274 1.043c.096.188.206.367.304.567a4 4 0 0 1 .221.523 4 4 0 0 0-.219-.523c-.098-.2-.21-.38-.306-.567m.752 2.202a4 4 0 0 1 .002.566h.002a4 4 0 0 0-.004-.566m-.108 1.402c-.112.547-.282 1.079-.402 1.623.12-.544.29-1.076.402-1.623m-.402 1.623c-.06.272-.11.547-.13.828h.001a6 6 0 0 1 .129-.828m.238 4.236q.084.226.19.44h.002a5 5 0 0 1-.192-.44m.85 1.795c.204.45.388.908.549 1.408h.002c-.16-.5-.347-.958-.551-1.408m13.787 3.03q-.03.022-.059.046zm-.207.189c-.151.16-.287.349-.424.5.137-.151.273-.34.424-.5m-12.746-.084c-.023.319-.094.658-.21 1.088-.295 1.103-.285 2.311-.439 3.453.154-1.142.146-2.35.442-3.453.115-.43.184-.77.207-1.088m13.976.047-2.412 1.392c-.482.525-.97 1.034-1.424 1.614-.433.557-.973 1.11-1.62 1.412-.47.222-.916.25-1.294.637-.465.477-.63 1.218-1.076 1.709-.633.698-1.806 1.037-2.635 1.416-.758.347-1.575.605-2.31.994-1.122.595-1.217 1.154-2.527.785-1.046-.294-2.048.236-3.012.637v-.002h-.002l-.002-.002v-.002l-.002-.002-.004-.012-.031.02.013-.032h-.002c-.007.012-.018.037-.025.047l-.002.002h-.002l-.047.018-11.4 6.584c.049.233.175.453.334.603-.235.18-.538.353-.676.45-.287.2-.568.361-.824.601-.186.176-.494.787-.74.889-.288.119-.512.057-.624-.28-.14-.434.273-.775.553-1.046a7 7 0 0 1 .469-.393c-.078.06-.172.127-.237.182l-.002.002-2.816 1.625-.002.002-.008.01c-.586.747-.79 1.5-1.619 2.044-2.145 1.406-3.86 3.203-6.54 3.536-1.072.134-1.404.801-2.311 1.261-.812.41-1.893.881-2.801 1.004a1.4 1.4 0 0 1-.338.006h-.002l-2.545 1.471c.16.045.355.103.432.127 1.385.422 2.693.317 4.015-.275 1.133-.51 1.35-.785 2.6-.43 1.224.35 1.673-.364 2.691-.953.795-.456 1.636-.83 2.43-1.293 1.777-1.036 3.801-1.777 5.32-3.19.851-.793 1.463-1.707 2.08-2.69.325-.52.872-2.19 1.756-1.92.62.189.182.994-.047 1.339-.305.465-.584.796-.82 1.306-.463 1.003-1.443 1.356-2.104 2.233-1.38 1.843-1.847 3.937-2.324 6.15-.212.978.019 1.911.399 2.83.217.528.566 1.034.687 1.594.116.552-.03 1.054-.086 1.604-.226 2.17.35 4.156 1.21 6.07l1.007-.58v-.002a5.5 5.5 0 0 1-.305-1.018c.152-.128.142-.353.04-.537v-.002c.006-.017.003-.065.011-.086v-.002l.002-.002.002-.002.002-.002h.002a.46.46 0 0 1 .41-.086c.335.08.665.493.912.973-.146-.181-.374-.294-.562-.145-.193.153-.134.42.023.6l1.604-.926c-.492-1.495-1.45-2.899-1.707-4.46-.204-1.239.51-2.334.242-3.633-.162-.794-.929-1.649-.729-2.454.265-1.064 1.25-2.006 1.688-3.025.125-.292.286-1.495.533-1.67.104-.073.155-.09.184-.07.044.036.043.171.146.328.373.568.466 1.46.785 2.088.254.498.547.985.85 1.455.69 1.07 1.522 1.966 2.453 2.83 1.374 1.272 2.78 2.683 4.512 3.44h.002l8.088-4.67q.022-.337.006-.672c-.096-1.836-.415-3.773-.72-5.588a39 39 0 0 0-.696-3.297c.086-.68-.38-1.919-.86-2.088-.148-.366-.194-.712.168-.928.896-.54 2.066.487 2.86.75.815.268 1.372.525 2.056 1.047 1.234.942 2.657 1.676 3.827 2.69.819.71 1.419 1.67 2.203 2.423q.185.18.338.362l2.73-1.578c-.434-.671-.912-1.316-1.48-1.829-.768-.694-1.731-.997-2.311-1.91-1.254-1.974-2.046-3.589-4.373-4.443-2.02-.74-3.935-1.605-6.096-1.09-.498.118-.984.377-1.496.33-.53-.048-.993-.376-1.55-.385-.255 0-.894.218-1.126.067-.37-.243-.25-.8.114-.938.458-.172 1.285.18 1.802.104.193-.03.37-.097.557-.145.84-.215 1.756-.344 2.559-.69 2.003-.855 3.851-1.823 5.64-3.066.95-.66 1.98-1.01 2.948-1.58.724-.428.992-1.365 1.54-1.98.674-.751 1.496-1.372 2.143-2.147.554-.663 1.342-1.91 1.412-2.779.019-.256.037-.485-.084-.666m-50.545 29.182c-.116-.033-.19-.049-.314-.092.102.035.208.067.307.095zm19.221-11.143c.075-.059.143-.114.227-.174-.09.065-.148.112-.227.174m.504-.365.06-.04zm28.408-16.282c.206-.223.397-.46.606-.687l-.664.72zm-2.228 3.926q.114 0 .168.069l.002.002.004.004v.002c.014.034-.019.105-.053.17a.56.56 0 0 0-.232-.168c-.038-.02-.206.028-.317.037.144-.057.29-.114.424-.114zm-.434.293q.03 0 .049.012v.002c.291.187-.105.484-.113.685-.086.076-.211.22-.242.239-.298.17-.92.288-.963-.203-.02-.201.215-.386.478-.537v.004l-.002.002-.002.006c-.004.007-.012.015-.015.021v.002l-.002.002v.004l.002.002v.004l.002.002.002.002.002.002.002.002.002.002.002.002c.096.048.61-.256.798-.256zm-12.994 3.655q-.326.298-.629.634c-.053.061-.259.266-.432.483.173-.217.38-.422.434-.483q.302-.337.629-.634zm-1.06 1.117a1.4 1.4 0 0 0-.239.386c.036-.111.13-.251.238-.386m8.748-1.057h.004c.135.048.184.15-.069.41l-.002.002c-.028.022-.199.085-.258.117.218-.157.403-.338.325-.529m-.805.148h.07c.14.006.268.051.332.17a.27.27 0 0 1 .006.247c-.513.275-1.737.782-1.869.41-.077-.233.94-.694 1.064-.76.02-.01.077-.021.11-.031.067-.01.107-.018.217-.028v-.002q.034-.004.07-.006m-7.139 1.09.002.008zm-.14.088c-.067.027-.428.226-.674.291.245-.065.605-.263.674-.29m-.916.21q0 .013.004.027zm.017.062.006.01h.002zm2.908.16-.004.002c.476-.02.923.086 1.063.469.134.367-.344.347-.633.414-.646.155-1.48.427-2.142.21-.152-.046-.183-.098-.256-.148.038-.067.085-.116.117-.207.01-.029.03-.172.049-.252.19-.096.383-.194.578-.256v-.006c.25-.077.752-.21 1.228-.226m3.387 3.81-.004.002c.344-.02.707.131 1.027.207.265.058.58.102.887.153.004.051-.003.09.022.142v-.002h.002v-.002l.002-.002h.002l.002-.002h.004c.097.004.81.545.822.649v.002l-.002.002v.002h.002c.037-.018.053-.076.07-.117.038.12.1.292.117.34.077.196.122.325.188.44-.039.039-.04.096-.106.128-.46.24-2.029-.533-2.44-.65-.5-.145-2.273-.566-.93-1.206a1 1 0 0 1 .335-.086m-4.088 2.35a1 1 0 0 1 .21.012v-.002c1.171.19 1.314 1.898 1.761 2.75.458.87.717 1.521.436 2.556-.647 2.392-3.413 4.45-5.698 5.07-1.033.28-2.367.34-3.525.186-.12-.038-.258-.048-.375-.086-.158-.057-.884-.43-1.447-.64-.567-.534-.929-1.295-1.284-2.02v-.006c-.485-.988-1.177-2.161.41-2.03 1.55.13 3.06.068 4.512-.552 1.305-.56 2.333-1.477 3.096-2.67.465-.73.895-2.506 1.904-2.568m10.057.27v.002c-.03.347.435.61.736.636.184.02.38-.138.563-.095.274.4.626 1.18.617 1.544-.01.43-.185.397-.4.258-.616-.708-1.226-1.348-1.684-1.545-.12-.188-.189-.366-.127-.513v-.004a.5.5 0 0 1 .295-.283m-26.895 4.744a1 1 0 0 1 .15.006l-.001.002c.12.018.202.066.213.162l-.002.002v.002l-.002.002-.016.017v.004l-.002.002a3.6 3.6 0 0 0-.535.405c-.113.105-.106.14-.158.21a8 8 0 0 1-.846.505c-.274.12-1.103.42-1.25-.028-.144-.442 1.103-.928 1.36-1.023.149-.059.71-.253 1.09-.268zm3.153 1.826.002.002c.134.225.436.319.73.217-.202.87-.723 1.75-1.209 2.492-.019.039-.038.048-.066.086-.227-.244-.53-.39-.88-.346.004-.02-.001-.028 0-.047a3.48 3.48 0 0 1 .999-2.078c.1-.1.272-.206.424-.326m-11.032 2.36a2 2 0 0 1 .329.015l-.002.002c.086.01.13.047.203.066-.178.126-.068.424.076.559-.56.287-1.993.403-1.393-.381.128-.167.454-.252.787-.262m-8.726 1.552c-.162.067-.404.129-.596.227.191-.098.434-.16.596-.227m-.879.697.008.022zm.15.176q.056.038.125.072-.068-.034-.125-.072m.125.072.069.036zm18.522 1.67c.036 0 .072.007.107.01h.002c-.019.35.267.797.573.737.264.73.313 1.734-.194 1.93-.466.181-.913-2.485-.553-2.66a.14.14 0 0 1 .065-.016z" style="display:inline;fill:#9b59d0;fill-opacity:1;stroke-width:.398931"/>
        <path id="path32" d="M89.478 76.055c1.372.771 2.747 1.52 4.022 2.435-1.275-.914-2.65-1.664-4.022-2.435m18.011 7.336c-.003.047-.017.094-.02.142l.01-.006q.004-.067.011-.136zm-.011.136c-.008.108-.024.215-.027.323-.03 1.09.414 1.779.814 2.734a14.9 14.9 0 0 1 1.057 4.424c.096 1.229-.294 2.358-.037 3.584.195.935 1.085 2.154.976 3.103-.086.713-.875 1.434-1.289 1.955a31 31 0 0 1-2.299 2.569c-.444.447-1.416 2.1-2.058 1.299-.74-.93.79-2.23.941-3.141.205-1.257.097-2.614-.01-3.875-.095-1.168-.194-2.348-.552-3.47-.337-1.054-.993-1.914-1.561-2.85-.647-1.066-1.254-2.159-1.918-3.211l-2.031 1.172c.266.355.493.73.646 1.136.242.64.224 1.334.416 1.985.207.703.63 1.226 1.026 1.822.144.216.26.446.37.676-.056.135.049.31.204.494.284.772.41 1.59.3 2.42-.154 1.214.133 2.404-.029 3.593-.058.452-.16 1.12-.478 1.456-.363.39-.945.317-1.135-.26-.196-.596.456-1.175.479-1.783.006-.163-.04-.341-.069-.514.086-.524.04-1.444.022-1.56-.067-.419-.199-.829-.522-1.12-.037-.029-.2-.114-.334-.187-.32-.637-.765-1.065-1.357-.588-.826.666.765 2.531.844 3.367.058.644-.038 1.267-.706 1.455-.325.096-.683-.036-1.017.106-.96.39-1.929 1.303-2.715 1.974-.493.421-.576.562-1.031.123-.37-.358-.743-1.013-.992-1.48-.365-.688-.327-1.992-1.274-2.227-2.048-.51-.476 2.6-.148 3.154.202.344.444.65.707.938-.109-.116-.203-.208-.24-.209h-.004l-.002.002h-.002c-.236.16.408.782.527.824.095.038.212.011.318.006.65.704 1.521 1.511 2.246 1.248.106.108.198.243.276.479.055.178.464 1.354.433 1.463l-.002.002v.002h-.002v.002h-.002l-.006.002c-.146.036-1.534-.494-1.818-.494-.096 0-.181-.008-.275-.01-.444-.176-.909-.18-1.393-.182-.116-.03-.227-.038-.346-.086-.733-.307-1.37-.877-2.127-1.121-.665-.217-1.03.171-1.648.152-1.436-.038-1.364-2.12-1.897-2.996-.654-1.075-1.735-1.307-2.597-2.039-.127-.128-.2-.206-.324-.326-.684-.761-1.113-1.83-1.573-2.795.13.272.256.553.387.832l-2.226 1.285c.346.647.744 1.255 1.34 1.705 1.005.753 1.189 1.29 1.58 2.43.14.412.32.779.527 1.125-.103.286.377.972.494 1.076.308.279.737.47 1.11.682.212.16.448.297.678.439.137.096.247.16.392.217a16.6 16.6 0 0 0 2.84 1.232c.928.308 1.82 1.286 2.795 1.315.307.008 1.06-.241 1.697-.33.2.21.443.367.686.375-.551.363-2.034.937-2.237 1.04-1.178.609-2.173 1.497-3.367 2.065-1.2.57-2.124.95-3.197.02-1.075-.938-2.074-1.208-3.512-1.053a4 4 0 0 1-.867-.006 13 13 0 0 0-1.525-.469c-1.38-.734-2.399-2.097-3.995-2.803-1.23-.542-2.537-.58-3.845-.31-.921.194-1.754.618-2.715.646-1.508.048-2.965-.058-4.473.098-.092.01-.62.087-1.197.201l-1.855 1.07a.75.75 0 0 0 .183.245c.214.203 1.136-.18 1.36-.227a10 10 0 0 1 1.8-.232c1.356-.038 2.784-.058 4.118.222.587.124 1.186.274 1.689.621.521.358.819.92 1.352 1.264 1.02.652 2.093.51 3.173.12.882-.319 1.207-.42 2.055.075 1.089.638 2.098 1.284 3.264 1.754.125.047.166.114.26.168v.002l-.003.002-.003.004-.002.002v.002l-.002.002v.006c-.085.244.84.999 1.273 1.184.37.285.825.36 1.305.45.74.138 1.312.19 2.029-.06.572-.2.857-.283 1.467-.103 1.224.358 2.233.29 3.355-.365.205-.12.405-.264.608-.393.32-.107.622-.254.834-.47.038-.039.037-.087.066-.124.516-.364 1.024-.737 1.522-1.1.69-.502.904-1.11 1.377-1.788.533-.758 2.25-1.149 1.51.222-.387.714-1.482 1.364-2.073 1.967-.574.587-1.216 1.157-1.725 1.805l2.819-1.627.002-.002c.42-.358 1.156-.89 1.742-1.014l.002.008 11.406-6.586a.2.2 0 0 0-.053.024c-.095.038-.783.42-.892.28-.167-.213.553-.91.66-1.032.803-.902 1.767-1.55 2.656-2.344 1.89-1.688 1.265-4.309 1.856-6.516.308-1.147.29-1.655-.076-2.814-.321-1-.741-1.838-1.21-2.764-.57-1.14-.655-2.591-.558-3.847.086-1.126.59-2.15.643-3.288a4.34 4.34 0 0 0-.45-2.2l-.008-.014-1.379.797c.074.093.14.18.208.267.01.188.039.394.039.524-.01.233.018 1.625-.282 1.767-.554.263-1.117-.912-1.138-1.904v.023zm2.223-1.283c-.153-.194-.315-.397-.43-.557.116.162.274.363.428.559zM63.603 108.86l.043-.026a9 9 0 0 0-.777.184c.246-.071.487-.11.734-.159m-.734.158c-.032.009-.057.02-.088.029zm17.525-9.854c-.25-.467-.479-.952-.71-1.424.232.473.45.962.7 1.43zm-3.146-18.367c-.045.471-.175 1.017-.276 1.463.101-.446.231-.992.276-1.463m31.425 1.297-.02.047zm-.078.207q-.01.036-.017.074zm-.053.275-.006.057zm-12.958.252c.597 1.077 1.169 2.117 1.94 3.09-.771-.973-1.342-2.013-1.94-3.09m4.912 2.643c.246.33.468.679.695 1.023-.227-.345-.45-.692-.695-1.023m1.55 5.466c-.008.28.692.25.829.323.028.02.174.197.33.375.106.177.273.392.3.478.077.24.377 1.325-.004 1.373-.256.028-1.74-2.184-1.53-2.484.018-.028.048-.037.075-.065m-24.714 2.237c.298.637.716 1.225 1.044 1.845-.328-.62-.746-1.208-1.044-1.845m33.26-.104c.066-.005.513.219.784.362.316.745.467 1.904.272 2.26-.716 1.305-1.732-1.434-1.295-2.477.076-.077.165-.14.238-.145m15.708 1.961c-.451.01-.738.514-1.033.84q-.412.451-.816.889l2.47-1.426c-.066-.1-.176-.186-.351-.252a.7.7 0 0 0-.27-.05m-22.586 2.02c.057.184.25.21.46.195.295.52.294 1.682.232 1.906-.077.277-.46 1.32-.82 1.102-.208-.124-.1-3.014.128-3.203m-18.945 5.36h.008c-.019.038-.038.047-.057.085-.116.321.877 1.89 1.254 1.738.112-.048.163-.157.188-.297.179.45.278.863.097.96-.45.236-1.883-2.193-1.529-2.48l.002-.001h.002l.004-.002h.002l.03-.004zm8.398 1.2c.058.048.12.086.178.133h-.054c-.038-.048-.086-.086-.124-.133m15.422 2.28v.002h-.002v.002c-.005.007-.01.022-.017.035l.031-.02q-.001-.007-.006-.013v-.002l-.002-.002-.002-.002zm-17.685.906c.081-.003.186.003.306.017v.004c.536.076 1.33.345 1.743.579-.02.133.058.308.168.484-.268.229-.913.297-1.15.275-.399-.038-1.721-.747-1.231-1.312.024-.029.082-.044.164-.047m-17.649 2.16c.472.015 1.018.17 1.42.408.04.23.309.533.575.658.148 1.38-3.158.282-2.963-.613.049-.226.25-.36.529-.42q.201-.041.44-.033m-11.195.387-.053.03zm-.088.056-.06.045q.028-.023.06-.045m-.222.241q-.01.02-.016.043.007-.023.016-.043m-.03.1-.004.036q0-.019.004-.037m21.842 2.983q.1-.003.207.002h.004c.634.03 1.38.318 1.75.667-.174.156-.086.451.086.675-.35.3-1.222.243-1.926.006a3 3 0 0 0-.795-.44.5.5 0 0 1-.11-.241c-.032-.455.313-.646.784-.668zm-5.543 10.17c-.605-.028-1.151.212-1.697.436-.326.135-.976.248-.885.676.045.228.536.4.932.513l2.554-1.474c-.304-.03-.59-.137-.904-.15" style="display:inline;fill:#fff;fill-opacity:1;stroke-width:.398931"/>
        <path id="path11" d="M110.95 72.717c-.563.008-1.127 1.845-1.327 2.275-.805 1.743-1.078 3.64-1.555 5.49-.258.995-.525 2.02-.6 3.051l1.059-.611c-.018-.608.166-1.152.674-1.264l-.002-.002c.026-.005.04.01.056.012.118.164.283.374.444.578l1.38-.799c-.195-.393-.435-.711-.515-1.162-.21-1.129.1-2.491.305-3.603.168-.896 1.125-3.003.322-3.84a.32.32 0 0 0-.242-.12zm-24.726 1.595c-.412-.029-.845.086-1.248.163-.052.007-.481.058-.543.087h-.002l-.002.002v.004l.002.002h.002a.2.2 0 0 0 .053.008c.34.575.426.894 1.101.875 1.063-.038 1.42.021 2.301.717.48.379.973.632 1.49.951 2.264 1.394 4.893 3.336 6.205 5.707.598 1.077 1.17 2.117 1.942 3.09.586.74 1.368 1.435 1.959 2.225l2.031-1.172c-.647-1.027-1.348-2.016-2.193-2.904-1.487-1.561-2.962-3.181-4.586-4.6-1.594-1.394-3.429-2.383-5.258-3.412-.98-.55-2.08-1.656-3.254-1.742zm-9.44 5.393c-.412-.008-.865.522-1.001.824-.218.492-.122 1.111-.069 1.621.114 1.16.321 2.308.514 3.455.38 2.25.229 4.723.854 6.913.26.905.856 1.674 1.294 2.501.472.89.862 1.818 1.307 2.721.233.473.451.962.701 1.43l2.237-1.291c-.263-.559-.508-1.122-.79-1.615-.381-.67-.845-1.285-1.289-1.91-.177-.353-.35-.706-.552-1.038-.165-.273-.954-1.95-1.664-3.55-.226-1.061-.42-2.13-.692-3.184-.288-1.137-.844-2.426-.79-3.617.028-.624.81-2.79.163-3.186v-.01a.44.44 0 0 0-.222-.064m-13.138 29.129c-.964.188-2.137.537-1.898 1.096z" style="display:inline;fill:#fff433;fill-opacity:1;stroke-width:.398931"/>
    </g>
</svg>
