<svg xmlns="http://www.w3.org/2000/svg" xml:space="preserve" id="svg5" width="88.338" height="100" version="1.1">
    <g id="blackBeetle" style="display:inline">
        <path id="path26210-2" d="m32.129 9.633-.037.004-.004.013c-.113.023-.239.13-.387.364-.295.467-.01 1.363-.045 1.894a6.6 6.6 0 0 1-.252 1.487 20 20 0 0 1-1.21 3.154 9 9 0 0 1-.503.93c-.027-.009-.035-.042-.054-.053h-.002l-.006-.002h-.006c-.12.002-.437.385-.566.736-.26.17-.512.346-.545.713-.067.82 1.165 1.223 1.724 1.586.304.2.888.452 1.072.812.228.452.024 1.026.194 1.51.267.79.959 1.265 1.742.826.551-.31 1.685-2.2 2.516-1.562.539.419-.275 1.54-.41 2.035-.309 1.154.123 2.133 1.345 1.346.408-.263 1.213-1.18 1.71-.93.762.387.196 2.393.228 3.041.012.316.225 1.28-.057 1.48-.424.297-.253-.169-.643-.32a.8.8 0 0 0-.375-.068h-.011c-.615.09-.424 1.339-.977 1.539-.09-.01-.18-.012-.287-.057-.223-.09-.693-.822-1.111-1.375-.057-.09-.113-.23-.164-.287-.034-.034-.102-.055-.147-.101-.022-.022-.034-.022-.056-.045-.301-.25-.702-.458-.82.144-.069.332.41.789.474 1.108.248 1.196-.483.692-1.094.256-.13-.14-.254-.214-.379-.235-.077-.043-.237-.172-.28-.176h-.001c-.595.102-.4.932-.416 1.493-.124.298-.333.38-.772-.055-.2-.505-.359-1.178-.691-1.272-.572-.164-.894 1.323-1.006 1.739-.384 1.4-.446.947-1.556.404-.068-.034-.167-.045-.247-.068-.034-.023-.055-.046-.101-.069-.575-.224-.656-.203-1.076-.68-.08-.09-.128-.138-.188-.208-.045-.388.39-.293.768-.405.71-.21.872-.524.742-.838.045-.034.056-.101-.057-.361-.216-.473-.51-.361-.86-.416-.022-.012-.044-.033-.067-.045-.224-.102-.305-.168-.452-.252-.158-.123-.303-.218-.48-.355-.575-.818 3.54-.712 2.322-2.13-.18-.21-.471-.332-.765-.45q-.172-.126-.346-.246c-.101-.068-.34-.18-.51-.282-.113-.156-.169-.354-.123-.63.115-.715 1.311-1.663 1.738-2.282.12-.176.233-.436.362-.674.277-.282.525-.598.486-.87-.045-.336-.27-.433-.531-.485-.045-.034-.047-.082-.104-.104-.212-.09-.518-.078-.83-.066-.637-.143-1.26-.322-1.908-.416-.818-.116-1.903-.046-2.602-.527-.145-.102-.517-.58-.882-1.018-.22-.4-.435-.794-.809-.988v.006c-1.517-.795-.63 1.925-.643 2.521-.034 1.57-.78 3.134-1.463 4.512-.512 1.038-.727 2.161-1.199 3.199-.315.69-.856 1.288-1.304 1.879-2.423-.995-2.642 1.547-1.416 2.912.034.114.12.2.246.252.266.225.56.41.923.496.688.163 1.091-.314 1.645-.379.266.18.62.363 1 .543.09.115.175.237.275.334.604.586 1.425 1.02 2.112 1.486 2.057 1.39 3.872 2.817 6.26 3.516.327.09 1.232.2 1.304.643.056.34-.665.51-.777.777-.295.723.813 1.415 1.24 1.838.9.89 1.006 1.285 1.445 2.44.212.56.77.839 1.006 1.322.182.37.16.47.024.59-.056-.01-.114-.022-.164-.004-.198.068-.229.187-.202.304-.469.336-.439.365.008.865.283.315.593.587.836.942.343.495 1.84 2.492.813 2.656-.49.08-.82-.226-1.135-.474l-.012-.004c-.374-.292-.725-.507-1.275.066-.142.148-.227.292-.326.422a.9.9 0 0 1-.276.193c-.034.023-.057.046-.09.057-.146.057-.279.057-.41.057a1.84 1.84 0 0 1-.838-.344c-.36-.34-.617-.866-.83-1.43-.155-.69-.227-1.456-.404-2-.183-.58-.322-1.429-.777-1.873-.251-.243-.94-.237-.926-.625.012-.535 1.234-1.076 1.43-1.627.09-.264.112-.392.056-.672-.176-.834-.988-1.793-1.451-2.504-.463-.714-1.457-2.931-2.248-1.525-.467.83-.724 2.32-.51 3.238.08.348.48.757.492 1.096.011.476-.258.406-.39.766-.067.19-.136.29-.176.515-.16.84.112 2.402.42 3.205.356.93 1.273 1.442 1.457 2.512.191 1.126-.574 2.265-.135 3.35.723 1.79 1.54-.09 2.574.13.52.113.728.681 1.147.977.436.31.947.592 1.398.883 1.697 1.09 3.934 1.27 4.92 3.258.607 1.223-.417 1.335-1.27.953a19 19 0 0 0-.77-.51c-.41-.373-.95-.87-1.294-.63-.53.37-.235 2.125-.666 2.784-.6.902-1.892 1.397-2.248 2.451-.243.72.2 1.173.205 1.86 0 .596-.15 1.03-.021 1.65.128.623.209 1.12.217 1.75.022 2.052.509 4.699-.371 6.64-.323.703-.72 1.15-.194 1.878.152.209.393.399.656.549.102.133.258.25.528.293a.86.86 0 0 0 .63-.118c.8-.204 1-1.084 1.077-1.894.009-.08.003-.18.006-.27a3 3 0 0 0 .068-.293c.034-.159.113-.455.068-.666.023-.079.011-.16.057-.228.28-.5.61-.49.525-1.094-.09-.615-.732-1.217-.918-1.855v-.004a1.06 1.06 0 0 1 .012-.65c.256-.73 1.178-.57 1.557-1.23.046-.08.022-.172.045-.255.48-.011.155-1.087-.069-1.82q-.069-.453-.164-.9c-.023-.4.01-.792-.035-1.194-.022-.256-.167-.515-.18-.762q.002-.195.057-.38c.255-.558.842-.988 1.543-.813.767.19.839 1.458.967 2.166.215 1.218.476 2.426.883 3.592.408 1.174 1.126 2.398.703 3.668-.2.59-.631 1.096-.867 1.671-.196.48-.117 1.118-.42 1.534-.272.37-.738.413-.914.912-.271.77.293.79-.35 1.392-.48.447-.668.35-.504 1.082.131.615.524 1.242.815 1.797.486.934 1.058 1.824 1.642 2.703.248.376.526.728.713 1.135.136.3.188.615.387.895.555.779.858.5 1.592.41.755-.102 1.994 1.114 2.601 1.521.823.547 1.623.926 2.102 1.825.34.63.697 3.047 1.879 1.837.303-.309.35-.766.326-1.246.068-.62.069-1.349.057-1.41-.187-1.042-.811-2.091-1.422-2.941-.978-1.358-2.73-2.119-3.551-3.524-.8-1.37-1.27-2.754-1.774-4.228-.068-.208-.184-.567-.375-.774.176-.198 1.079-.716 1.192-.724h.004c.29.023.952 1.16 1.176 1.379.894.887 1.762 1.84 2.765 2.603 2.193 1.662 5.066 2.787 7.746 3.307 1.278.246 2.615.372 3.897.129.902-.171 2.54-.056 3.248-.55.334-.232.461-.56.484-.925.068-.068.142-.115.2-.252.483-1.185-1.836-5.492-4.1-9.336-.35-.766-.691-1.537-1.05-2.299-.155-.33-2.025-3.407-1.589-3.767.423-.348 1.453 1.921 1.649 2.27.715 1.285 1.423 2.575 2.17 3.837 1.233 2.077 2.821 3.884 3.843 6.096.368.803.866 2.547 2.06 2.26.959-.233 1.88-1.902 2.358-2.668 1.038-1.674 1.997-3.1 2.469-5.057V73.7l.006-.017c.602-1.85.804-3.955.683-5.85-.08-1.194-.326-2.415-.63-3.604a21 21 0 0 0-.54-2.359 4 4 0 0 0-.173-.396c-.13-.527-.266-.897-.493-1.288.121.034.732.17.9.13.325-.09.676-.632.968-.62.503.022.74 1.134 1 1.502.505.72 1.228.572 1.867 1.102.716.59.824 1.5 1.379 2.164.592.703 1.583.727 2.418.918.148.034.275.056.414.09.247.15.518.226.691.166.426.079.858.13 1.352.09.847-.069 2.441-.256 2.533-.919.038.02.17.04.201.06l.002.001h.002v.002c.08-.12-.133-.356-.44-.621a2.5 2.5 0 0 0-.38-.38c-.651-.517-1.383-.757-2.006-1.352-.36-.34-.722-.67-1.102-.989-.768-.65-1.584-1.285-2.361-1.953-.73-.88-1.231-1.9-2.07-2.715-.884-.85-1.824-1.555-2.967-2.006-.81-.316-1.669-.729-2.55-.709-.976.023-1.898.36-2.769-.214-.463-.31-2.04-2.61-3.34-3.58v-.002c0-.01-.01-.023-.011-.032v-.002c.045-.44.868-.867 1.088-1.246.034-.056.045-.128.056-.193.258.068.333-.022.305-.45-.012-.185-.102-.354-.176-.527.034-.08.079-.146.18-.17.204-.045.787.288 1.066.291.426 0 .886-.154 1.27-.326.538-.236.818-.658 1.293-.222.32.296.618 1.251.889 1.68.368.586.54 1.362 1 1.882.452.504 1.233.763 1.836 1.018.62.264 1.192.548 1.779.884.55.315 1.384.524 1.82.995.443.478.429 1.306 1.264 1.363.324.022.632-.223.959-.246.38-.022.76.144 1.123.234.55.14 1.446.256 1.375-.59l-.002-.002v-.002c-.005-.01-.02-.03-.022-.04v-.007c.09-.19-.322-.817-.79-1.422-.024-.046-.08-.114-.09-.14-.16-.313-.472-.963-.795-1.111-.08-.034-.218-.024-.329-.024-.416-.234-.824-.165-1.271-.385-.203-.102-.381-.303-.564-.492-.13-.145-.265-.283-.399-.433l-.14-.141a9 9 0 0 0-.34-.402c-.99-1.07-1.975-2.086-3.077-3.032-1.154-.992-2.031-2.213-3.13-3.248-.515-.483-.695-.655-1.373-.543-.372.068-.495.296-.914.164-.26-.08-.524-.436-.784-.568-.93-.48-2.107-.929-2.662.023-.755 1.298-1.318 2.164-2.592 2.983-1.21.779-1.629 1.41-2.943.562-.23-.15-1.265-1.073-2.1-1.714-.09-.423-.034-.881.194-1.352.308-.623.882-.94.877-1.68-.001-.193-.102-.356-.17-.525.102-.448-.113-.947-.432-1.387.068-.6.845-.505 1.563-.889.235-.127.36-.267.496-.41h.002c.005 0 .025-.007.031-.007v.002h.002v-.006l-.002-.002-.002-.002-.002-.006v-.006c0-.01.121-.11.18-.213.128.12.303.29.355.3h.008l.154-.104c-.003 0-.185-.267-.249-.69.057-.502-.269-1.015-.532-1.657-.283-.699-.446-2.482-.994-2.937-.293-.246-.523-.145-.748-.057-.226-.034-.434-.046-.65-.205-.153-.269-.273-.803-.42-1.053-.667-1.13-1.493-2.164-2.36-3.142-.755-.855-1.346-1.823-2.117-2.662-.442-.483-1.154-1.506-1.474-.684-.36.923.715 2.918 1.058 3.768.255.635.118.827.131 1.474.003.195.033.34.078.461.113.378.59.912.906.996.66.767 1.248 2.22 1.352 3.158.102.886-.19 1.724.057 2.61.199.696.307.905.035 1.61-.204.51-.496.95-.739 1.437-.495.975-.322 1.568-1.328 2.119-.132-.97-.578-1.956-.965-2.89.007-.474-.045-.928-.38-1.247-.33-.312-.642-.28-.953-.205-.128-.007-.176-.045-.35-.045-.397-.004-.603.011-.873-.129-.205-.269-.6-.93-1.006-1.205.09-.485 1.591-1.434.291-1.72a.45.45 0 0 1-.326-.256c-.102-.377.102-.89.17-1.228.068-.19.15-.397.175-.557.12-.763.13-1.468.114-2.187 0-.034.008-.07.01-.104.09-2.504.08-4.986.363-7.486a39 39 0 0 0 .22-3.213c.024-.81.394-1.853.024-2.604-.057-.102-.14-.136-.205-.215a1 1 0 0 0-.28-.292c-.701-.472-1.744-.25-2.564-.51-1.606-.507-3.165-1.489-4.51-2.475-1.115-.81-2.13-1.746-3.084-2.736-.102-.102-.84-1.027-1.41-1.551-.133-.255-.27-.49-.447-.49m9.973 28.888q.105-.007.209.016l-.004.004c.32.067.722.505.802.813.16.599-.227.666-.742.818-.863.255-1.4.615-2.17 1.07-.848.5-1.72.747-2.627 1.082-1.183.444-2.21 1.234-3.365 1.697-.19.08-.397.068-.596.034-.023-.004-.045 0-.068-.006-.08-.022-.15-.078-.228-.115-.123-.068-.253-.133-.34-.264-.194-.302-.188-1.017-.352-1.424.524-.522 2.177-.663 2.645-.8 1.234-.369 2.361-.92 3.515-1.48.615-.303 1.26-.507 1.89-.779.399-.175.936-.636 1.43-.666m3.828 3.854a1 1 0 0 1 .246.016c.376.079.65.409.719 1.209.022.263-.067.495-.215.703-.243.18-.555.313-.85.52-.48.333-.952.665-1.428.99a24.5 24.5 0 0 1-2.959 1.671c-.08.034-.16.08-.24.118-1 .456-2.05.735-3.084 1.105-.643.227-1.268.45-1.93.158-.36-.156-1.183-.774-.976-1.281v-.006c.2-.487 2.62-1.149 3.03-1.34.918-.428 1.827-.868 2.75-1.287 1.058-.479 2.03-1.068 3.013-1.683.563-.352 1.324-.856 1.924-.893" style="display:inline;fill:none;fill-opacity:1;fill-rule:nonzero;stroke:#9a9a9a;stroke-width:2;stroke-linecap:round;stroke-linejoin:round;stroke-dasharray:none;stroke-opacity:1"/>
        <path id="path26210-2-4" d="M89.733 69.94c-.113.023-.238.13-.386.363-.295.467-.01 1.364-.045 1.895a6.6 6.6 0 0 1-.251 1.486c-.3 1.07-.732 2.152-1.211 3.154a9 9 0 0 1-.503.93c-.034-.01-.034-.056-.068-.056-.12.002-.438.386-.567.737-.26.17-.512.347-.545.714-.067.82 1.167 1.222 1.726 1.585.304.2.887.453 1.071.813.228.452.023 1.026.193 1.51.267.789.96 1.264 1.743.825.551-.311 1.685-2.2 2.516-1.562.539.419-.274 1.541-.41 2.036-.308 1.154.123 2.132 1.345 1.345.408-.263 1.213-1.181 1.709-.93.763.387.196 2.394.228 3.042.012.316.226 1.28-.056 1.48-.424.296-.253-.17-.643-.321a.8.8 0 0 0-.375-.068h-.011c-.615.09-.424 1.338-.977 1.538-.09-.009-.181-.011-.287-.056-.223-.09-.693-.822-1.111-1.375-.057-.09-.114-.23-.165-.287-.034-.034-.101-.056-.146-.102-.022-.022-.034-.022-.056-.045-.301-.249-.701-.456-.82.146-.068.332.411.787.474 1.106.248 1.196-.482.693-1.093.257-.13-.14-.255-.213-.38-.234-.08-.045-.246-.181-.281-.176-.595.102-.4.931-.416 1.492-.124.298-.333.38-.772-.056-.2-.505-.358-1.176-.69-1.27-.572-.164-.895 1.322-1.007 1.738-.384 1.401-.446.947-1.556.404-.068-.034-.166-.045-.246-.068-.034-.023-.056-.045-.102-.068-.575-.224-.656-.204-1.076-.68-.08-.09-.127-.14-.187-.21-.045-.388.388-.292.766-.404.711-.21.873-.523.743-.837.045-.034.057-.102-.056-.362-.216-.473-.511-.36-.86-.415-.023-.012-.046-.034-.069-.046-.224-.102-.303-.167-.45-.251-.158-.123-.303-.22-.48-.357-.575-.818 3.54-.712 2.322-2.129-.18-.21-.472-.332-.766-.45a18 18 0 0 0-.346-.246c-.101-.068-.34-.18-.509-.281-.113-.156-.169-.355-.123-.632.115-.714 1.31-1.662 1.737-2.281.12-.176.233-.435.362-.673.277-.282.525-.599.486-.872-.045-.335-.27-.433-.532-.485-.045-.034-.045-.08-.102-.102-.212-.09-.518-.08-.83-.068-.637-.143-1.26-.321-1.908-.415-.818-.116-1.904-.046-2.603-.527-.145-.102-.518-.58-.883-1.018-.22-.4-.434-.794-.808-.988v.006c-1.517-.795-.63 1.926-.643 2.522-.034 1.57-.78 3.132-1.462 4.51-.512 1.038-.728 2.162-1.2 3.2-.315.69-.856 1.287-1.304 1.878-2.423-.995-2.642 1.548-1.416 2.913.034.114.12.2.246.252.266.225.561.41.924.497.688.163 1.09-.315 1.644-.38.266.18.62.364 1 .544.09.115.175.236.275.333.604.586 1.425 1.019 2.112 1.486 2.057 1.39 3.872 2.817 6.26 3.516.327.09 1.233.2 1.305.643.056.34-.666.51-.778.777-.295.723.813 1.414 1.24 1.837.9.891 1.006 1.286 1.445 2.44.212.56.771.839 1.007 1.322.182.371.158.471.022.591-.056-.009-.114-.023-.164-.005-.198.068-.227.188-.2.305-.469.336-.44.366.007.866.283.315.593.586.836.941.343.495 1.84 2.492.813 2.656-.49.08-.82-.226-1.135-.474l-.011-.005c-.374-.292-.726-.505-1.276.068-.142.148-.228.291-.327.421a.9.9 0 0 1-.275.194c-.034.023-.057.045-.09.056-.146.057-.279.057-.41.057a1.84 1.84 0 0 1-.837-.345c-.36-.34-.617-.864-.83-1.428-.155-.69-.228-1.456-.405-2-.183-.58-.323-1.429-.778-1.873-.251-.243-.937-.238-.924-.626.012-.535 1.232-1.075 1.428-1.626.09-.264.113-.393.057-.673-.176-.834-.988-1.793-1.451-2.504-.463-.714-1.456-2.932-2.247-1.526-.467.83-.724 2.322-.51 3.24.08.348.48.755.492 1.094.011.476-.26.407-.392.767-.067.19-.135.29-.175.515-.16.839.113 2.403.421 3.206.356.93 1.273 1.44 1.457 2.51.191 1.126-.574 2.266-.135 3.351.723 1.79 1.54-.09 2.574.13.52.113.728.681 1.147.977.436.31.947.592 1.398.883 1.697 1.09 3.934 1.27 4.92 3.258.607 1.223-.418 1.335-1.27.953q-.373-.26-.772-.51c-.41-.373-.948-.869-1.292-.63-.531.37-.236 2.125-.667 2.784-.6.902-1.891 1.397-2.247 2.451-.243.719.2 1.173.205 1.86 0 .596-.151 1.03-.022 1.65.128.623.208 1.119.216 1.75.022 2.052.51 4.698-.37 6.64-.323.702-.72 1.15-.193 1.877.152.209.393.4.656.55.102.133.256.25.526.293a.86.86 0 0 0 .632-.117c.8-.204 1-1.086 1.076-1.896.009-.079.003-.18.006-.269a3 3 0 0 0 .068-.292c.034-.159.113-.456.068-.667.023-.079.011-.16.057-.228.28-.5.61-.49.526-1.094-.09-.615-.732-1.217-.918-1.855v-.005a1.06 1.06 0 0 1 .011-.65c.256-.73 1.177-.569 1.556-1.228.046-.08.023-.174.046-.257.48-.011.156-1.087-.068-1.82a16 16 0 0 0-.164-.9c-.023-.4.01-.792-.035-1.194-.022-.256-.168-.513-.18-.76a1.4 1.4 0 0 1 .056-.381c.255-.557.843-.988 1.544-.813.767.191.838 1.457.966 2.165.215 1.218.476 2.426.883 3.592.408 1.174 1.125 2.398.702 3.668-.2.59-.63 1.098-.866 1.673-.196.479-.118 1.117-.421 1.533-.272.371-.737.413-.913.912-.271.771.293.79-.35 1.393-.48.447-.667.35-.503 1.082.131.615.522 1.241.813 1.796.486.934 1.06 1.824 1.644 2.703.248.376.526.728.713 1.135.136.3.187.615.386.895.555.779.857.5 1.591.41.755-.102 1.996 1.114 2.603 1.521.823.547 1.621.926 2.1 1.825.34.63.697 3.047 1.879 1.837.303-.309.352-.766.327-1.246.068-.621.068-1.349.056-1.41-.187-1.042-.81-2.092-1.421-2.942-.978-1.358-2.729-2.117-3.551-3.522-.8-1.37-1.27-2.756-1.773-4.23-.068-.208-.184-.565-.375-.772.178-.202 1.105-.734 1.194-.726.29.023.952 1.161 1.176 1.38.894.887 1.764 1.841 2.767 2.604 2.193 1.662 5.066 2.786 7.746 3.306 1.278.246 2.614.372 3.896.129.902-.171 2.54-.057 3.247-.55.334-.233.462-.56.485-.924.068-.068.143-.115.2-.252.484-1.185-1.837-5.493-4.101-9.337-.35-.766-.69-1.537-1.048-2.299-.156-.331-2.026-3.407-1.59-3.767.423-.348 1.453 1.922 1.649 2.27.715 1.286 1.424 2.575 2.17 3.837 1.234 2.077 2.822 3.884 3.844 6.096.368.803.865 2.546 2.06 2.259.958-.233 1.878-1.902 2.357-2.668 1.038-1.674 1.997-3.098 2.469-5.055 0-.008.004-.011.005-.022.602-1.85.806-3.955.685-5.85-.08-1.194-.328-2.415-.632-3.604a21 21 0 0 0-.538-2.358 4 4 0 0 0-.175-.397c-.13-.527-.265-.896-.492-1.287.121.034.732.17.901.129.324-.09.674-.632.966-.62.503.022.74 1.135 1 1.503.505.719 1.228.57 1.867 1.1.716.591.825 1.501 1.38 2.165.592.703 1.582.727 2.417.918.148.034.276.056.415.09.247.15.518.225.691.165.426.079.857.13 1.351.09.847-.068 2.442-.255 2.534-.918.045.022.22.045.204.068.09-.118-.129-.357-.439-.626a2.5 2.5 0 0 0-.38-.38c-.651-.516-1.384-.757-2.007-1.352-.359-.34-.72-.67-1.1-.988-.768-.65-1.586-1.286-2.363-1.954-.73-.88-1.231-1.901-2.07-2.715-.884-.85-1.824-1.555-2.967-2.006-.81-.316-1.668-.728-2.55-.708-.975.023-1.897.358-2.768-.216-.463-.31-2.04-2.61-3.34-3.58 0-.012-.011-.023-.011-.034.045-.44.868-.868 1.088-1.247.034-.056.045-.128.056-.193.258.068.333-.023.305-.45-.012-.186-.102-.354-.176-.527.034-.08.08-.146.181-.17.204-.045.786.289 1.065.292.426 0 .886-.155 1.27-.327.538-.236.817-.658 1.292-.222.32.296.618 1.252.889 1.68.368.587.54 1.363 1 1.883.452.504 1.234.762 1.837 1.017.62.264 1.192.548 1.779.884.551.315 1.384.524 1.82.995.443.478.428 1.306 1.263 1.363.324.022.632-.223.959-.246.38-.022.76.144 1.123.234.551.14 1.446.256 1.375-.59-.001-.01-.023-.034-.023-.046v-.005c.09-.19-.321-.816-.79-1.421-.023-.046-.08-.114-.09-.14-.16-.313-.473-.964-.796-1.112-.08-.034-.217-.023-.328-.023-.416-.234-.823-.166-1.27-.386-.203-.102-.383-.302-.566-.491-.13-.145-.264-.284-.398-.434l-.14-.14a9 9 0 0 0-.34-.404c-.99-1.07-1.975-2.084-3.077-3.03-1.154-.992-2.031-2.213-3.13-3.248-.515-.483-.696-.656-1.374-.544-.372.068-.494.296-.913.164-.26-.08-.524-.435-.784-.567-.931-.48-2.107-.93-2.662.022-.755 1.298-1.318 2.165-2.592 2.984-1.21.779-1.629 1.409-2.943.562-.23-.15-1.265-1.074-2.1-1.715-.09-.423-.034-.88.194-1.351.308-.623.882-.94.877-1.68-.001-.193-.102-.356-.17-.525.102-.448-.113-.947-.432-1.387.068-.6.844-.506 1.562-.89.235-.127.362-.267.497-.41 0 .003.034-.009.034-.006.003-.008-.007-.011-.005-.023.068-.068.139-.137.18-.21.139.131.33.318.363.299-.003 0-.158-.524-.222-.743.057-.501-.141-1.066-.404-1.708-.283-.699-.447-2.482-.995-2.937-.293-.246-.523-.145-.748-.057-.226-.034-.434-.045-.65-.204-.153-.269-.274-.803-.421-1.053-.667-1.131-1.491-2.164-2.358-3.142-.755-.855-1.347-1.823-2.118-2.662-.442-.483-1.154-1.507-1.474-.685-.36.923.716 2.918 1.059 3.768.255.635.116.827.129 1.474.003.195.034.34.079.462.113.378.59.911.907.995.659.767 1.247 2.221 1.351 3.16.102.886-.189 1.722.057 2.608.199.696.306.906.034 1.61-.204.511-.494.951-.737 1.438-.495.975-.322 1.567-1.328 2.118-.132-.969-.579-1.955-.966-2.89.007-.473-.045-.927-.38-1.246-.33-.312-.643-.28-.954-.205-.128-.007-.176-.045-.35-.045-.397-.004-.602.01-.872-.13-.205-.269-.601-.93-1.007-1.204.09-.485 1.592-1.433.292-1.72a.45.45 0 0 1-.327-.257c-.102-.377.102-.891.17-1.229.068-.19.15-.396.176-.556.12-.763.129-1.469.113-2.188 0-.034.009-.068.011-.102.09-2.504.08-4.988.362-7.488a39 39 0 0 0 .222-3.212c.023-.81.393-1.852.023-2.603-.057-.102-.14-.137-.205-.216a1 1 0 0 0-.28-.292c-.702-.472-1.743-.25-2.563-.51-1.606-.507-3.165-1.488-4.51-2.474-1.115-.811-2.13-1.748-3.084-2.738-.102-.102-.84-1.026-1.41-1.55-.142-.272-.29-.521-.485-.486zm10.22 28.89c.32.067.722.504.802.812.16.599-.227.667-.742.819-.863.255-1.4.615-2.17 1.07-.848.499-1.72.748-2.627 1.083-1.183.444-2.21 1.233-3.364 1.696-.19.08-.398.068-.597.034-.023-.004-.045 0-.068-.006-.08-.022-.15-.079-.229-.116-.123-.068-.253-.133-.34-.264-.194-.302-.186-1.015-.35-1.422.524-.522 2.176-.663 2.644-.801 1.234-.368 2.362-.92 3.516-1.48.615-.304 1.259-.506 1.89-.778.455-.2 1.091-.773 1.638-.65zm3.868 3.849c.376.079.652.41.72 1.21.022.263-.068.494-.216.702-.243.18-.553.315-.848.521-.48.334-.952.664-1.428.989a24.5 24.5 0 0 1-2.96 1.673c-.08.034-.16.079-.24.116-1 .456-2.049.737-3.083 1.107-.643.227-1.268.449-1.93.157-.36-.156-1.185-.774-.978-1.281v-.005c.2-.487 2.62-1.149 3.03-1.34.919-.428 1.828-.868 2.75-1.287 1.059-.479 2.03-1.07 3.013-1.685.644-.402 1.545-1.002 2.17-.877" style="display:inline;fill:#0038a8;fill-opacity:1;fill-rule:nonzero;stroke:none;stroke-width:3.99375" transform="translate(-57.558 -60.248)"/>
        <path id="path24" d="m32.129 9.633-.037.004-.004.013c-.113.023-.239.13-.387.364-.295.467-.01 1.363-.045 1.894a6.6 6.6 0 0 1-.252 1.487 20 20 0 0 1-1.21 3.154 9 9 0 0 1-.503.93c-.027-.009-.035-.042-.054-.053h-.002l-.006-.002h-.006c-.12.002-.437.385-.566.736-.26.17-.512.346-.545.713-.067.82 1.165 1.223 1.724 1.586.304.2.888.452 1.072.812.228.452.024 1.026.194 1.51.267.79.959 1.265 1.742.826.551-.31 1.685-2.2 2.516-1.562.539.419-.275 1.54-.41 2.035-.309 1.154.123 2.133 1.345 1.346.408-.263 1.213-1.18 1.71-.93.762.387.196 2.393.228 3.041.012.316.225 1.28-.057 1.48-.424.297-.253-.169-.643-.32a.8.8 0 0 0-.375-.068h-.011c-.615.09-.424 1.339-.977 1.539-.09-.01-.18-.012-.287-.057-.223-.09-.693-.822-1.111-1.375-.057-.09-.113-.23-.164-.287-.034-.034-.102-.055-.147-.101-.022-.022-.034-.022-.056-.045-.301-.25-.702-.458-.82.144-.069.332.41.789.474 1.108.248 1.196-.483.692-1.094.256-.13-.14-.254-.214-.379-.235-.077-.043-.237-.172-.28-.176h-.001c-.595.102-.4.932-.416 1.493-.124.298-.333.38-.772-.055-.2-.505-.359-1.178-.691-1.272-.572-.164-.894 1.323-1.006 1.739-.384 1.4-.446.947-1.556.404-.068-.034-.167-.045-.247-.068-.034-.023-.055-.046-.101-.069-.575-.224-.656-.203-1.076-.68-.08-.09-.128-.138-.188-.208-.045-.388.39-.293.768-.405.71-.21.872-.524.742-.838.045-.034.056-.101-.057-.361-.216-.473-.51-.361-.86-.416-.022-.012-.044-.033-.067-.045-.224-.102-.305-.168-.452-.252-.158-.123-.303-.218-.48-.355-.575-.818 3.54-.712 2.322-2.13-.18-.21-.471-.332-.765-.45q-.172-.126-.346-.246c-.101-.068-.34-.18-.51-.282-.113-.156-.169-.354-.123-.63.115-.715 1.311-1.663 1.738-2.282.12-.176.233-.436.362-.674.277-.282.525-.598.486-.87-.045-.336-.27-.433-.531-.485-.045-.034-.047-.082-.104-.104-.212-.09-.518-.078-.83-.066-.637-.143-1.26-.322-1.908-.416-.818-.116-1.903-.046-2.602-.527-.145-.102-.517-.58-.882-1.018-.22-.4-.435-.794-.809-.988v.006c-1.517-.795-.63 1.925-.643 2.521-.034 1.57-.78 3.134-1.463 4.512-.512 1.038-.727 2.161-1.199 3.199-.315.69-.856 1.288-1.304 1.879-2.423-.995-2.642 1.547-1.416 2.912.034.114.12.2.246.252.266.225.56.41.923.496.688.163 1.091-.314 1.645-.379.266.18.62.363 1 .543.09.115.175.237.275.334.604.586 1.425 1.02 2.112 1.486 2.057 1.39 3.872 2.817 6.26 3.516.327.09 1.232.2 1.304.643.056.34-.665.51-.777.777-.295.723.813 1.415 1.24 1.838.9.89 1.006 1.285 1.445 2.44.212.56.77.839 1.006 1.322.182.37.16.47.024.59-.056-.01-.114-.022-.164-.004-.198.068-.229.187-.202.304-.469.336-.439.365.008.865.283.315.593.587.836.942.343.495 1.84 2.492.813 2.656-.49.08-.82-.226-1.135-.474l-.012-.004c-.374-.292-.725-.507-1.275.066-.142.148-.227.292-.326.422a.9.9 0 0 1-.276.193c-.034.023-.057.046-.09.057-.146.057-.279.057-.41.057a1.84 1.84 0 0 1-.838-.344c-.36-.34-.617-.866-.83-1.43-.155-.69-.227-1.456-.404-2-.183-.58-.322-1.429-.777-1.873-.251-.243-.94-.237-.926-.625.012-.535 1.234-1.076 1.43-1.627.09-.264.112-.392.056-.672-.176-.834-.988-1.793-1.451-2.504-.463-.714-1.457-2.931-2.248-1.525-.467.83-.724 2.32-.51 3.238.08.348.48.757.492 1.096.011.476-.258.406-.39.766-.067.19-.136.29-.176.515-.16.84.112 2.402.42 3.205.356.93 1.273 1.442 1.457 2.512.191 1.126-.574 2.265-.135 3.35.723 1.79 1.54-.09 2.574.13.52.113.728.681 1.147.977.436.31.947.592 1.398.883 1.697 1.09 3.934 1.27 4.92 3.258.607 1.223-.417 1.335-1.27.953a19 19 0 0 0-.77-.51c-.41-.373-.95-.87-1.294-.63-.53.37-.235 2.125-.666 2.784-.6.902-1.892 1.397-2.248 2.451-.243.72.2 1.173.205 1.86q0 .127-.008.246l37-21.363q-.06-.06-.125-.12c-.515-.482-.695-.654-1.373-.542-.372.068-.495.296-.914.164-.26-.08-.523-.437-.783-.569-.93-.48-2.107-.928-2.662.024-.755 1.298-1.318 2.163-2.592 2.982-1.21.78-1.63 1.41-2.943.563-.23-.15-1.265-1.074-2.1-1.715-.09-.423-.034-.88.194-1.352.308-.623.882-.94.877-1.68-.001-.192-.102-.356-.17-.525.102-.448-.113-.947-.432-1.387.068-.6.845-.504 1.563-.888.47-.034.69-.105 1.06-.35h.008v-.002c-.003 0 .02-.523-.044-.742.057-.501-.32-1.065-.583-1.707-.283-.7-.446-2.483-.994-2.938-.293-.246-.523-.145-.748-.057-.226-.034-.434-.046-.65-.205-.153-.269-.273-.802-.42-1.052-.667-1.131-1.493-2.165-2.36-3.143-.755-.855-1.346-1.823-2.117-2.662-.442-.483-1.155-1.506-1.475-.684-.36.923.716 2.918 1.059 3.768.255.635.118.827.13 1.474.004.195.034.34.079.461.113.378.59.912.906.996.66.767 1.248 2.22 1.352 3.159.102.886-.19 1.723.056 2.61.2.695.308.904.036 1.608-.204.511-.496.95-.739 1.438-.495.975-.322 1.568-1.328 2.12-.132-.97-.578-1.957-.965-2.892.007-.473-.045-.927-.38-1.246-.33-.312-.643-.28-.954-.205-.128-.007-.175-.045-.35-.045-.396-.004-.602.011-.872-.129-.205-.269-.6-.93-1.006-1.205.09-.485 1.59-1.433.29-1.72a.45.45 0 0 1-.325-.256c-.102-.377.102-.89.17-1.228.068-.19.15-.397.175-.557.12-.763.13-1.468.114-2.187 0-.034.008-.07.01-.104.09-2.504.08-4.986.363-7.486a39 39 0 0 0 .22-3.213c.024-.81.394-1.853.024-2.604-.057-.102-.14-.135-.205-.214a1 1 0 0 0-.28-.293c-.701-.472-1.744-.25-2.564-.51-1.606-.507-3.165-1.489-4.51-2.475-1.115-.81-2.13-1.746-3.084-2.736-.102-.102-.84-1.027-1.41-1.551-.133-.255-.27-.49-.447-.49m9.973 28.888q.105-.007.209.016l-.004.004c.32.067.722.505.802.813.16.599-.227.666-.742.818-.863.255-1.4.615-2.17 1.07-.848.5-1.72.747-2.627 1.082-1.183.444-2.21 1.234-3.365 1.697-.19.08-.397.068-.596.034-.023-.004-.045 0-.068-.006-.08-.022-.15-.078-.228-.115-.123-.068-.253-.133-.34-.264-.194-.302-.188-1.017-.352-1.424.524-.522 2.177-.663 2.645-.8 1.234-.369 2.361-.92 3.515-1.48.615-.303 1.26-.507 1.89-.779.399-.175.936-.636 1.43-.666m3.828 3.854a1 1 0 0 1 .246.016c.376.079.65.409.719 1.209.022.263-.067.495-.215.703-.243.18-.555.313-.85.52-.48.333-.952.665-1.428.99a24.5 24.5 0 0 1-2.959 1.671c-.08.034-.16.08-.24.118-1 .456-2.05.735-3.084 1.105-.643.227-1.268.45-1.93.158-.36-.156-1.183-.774-.976-1.281v-.006c.2-.487 2.62-1.149 3.03-1.34.918-.428 1.827-.868 2.75-1.287 1.058-.479 2.03-1.068 3.013-1.683.563-.352 1.324-.856 1.924-.893" style="display:inline;fill:#9b4f96;fill-opacity:1;fill-rule:nonzero;stroke:none;stroke-width:3.99375"/>
        <path id="path3-4" d="m32.129 9.633-.037.004-.004.013c-.113.023-.239.13-.387.364-.295.467-.01 1.363-.045 1.894a6.6 6.6 0 0 1-.252 1.487 20 20 0 0 1-1.21 3.154 9 9 0 0 1-.503.93c-.027-.009-.035-.042-.054-.053h-.002l-.006-.002h-.006c-.12.002-.437.385-.566.736-.26.17-.512.346-.545.713-.067.82 1.165 1.223 1.724 1.586.304.2.888.452 1.072.812.228.452.024 1.026.194 1.51.267.79.959 1.265 1.742.826.551-.31 1.685-2.2 2.516-1.562.539.419-.275 1.54-.41 2.035-.309 1.154.123 2.133 1.345 1.346.408-.263 1.213-1.18 1.71-.93.762.387.196 2.393.228 3.041.012.316.225 1.28-.057 1.48-.424.297-.253-.169-.643-.32a.8.8 0 0 0-.375-.068h-.011c-.615.09-.424 1.339-.977 1.539-.09-.01-.18-.012-.287-.057-.223-.09-.693-.822-1.111-1.375-.057-.09-.113-.23-.164-.287-.034-.034-.102-.055-.147-.101-.022-.022-.034-.022-.056-.045-.301-.25-.702-.458-.82.144-.069.332.41.789.474 1.108.248 1.196-.483.692-1.094.256-.13-.14-.254-.214-.379-.235-.077-.043-.237-.172-.28-.176h-.001c-.595.102-.4.932-.416 1.493-.124.298-.333.38-.772-.055-.2-.505-.359-1.178-.691-1.272-.572-.164-.894 1.323-1.006 1.739-.384 1.4-.446.947-1.556.404-.068-.034-.167-.045-.247-.068-.034-.023-.055-.046-.101-.069-.575-.224-.656-.203-1.076-.68-.08-.09-.128-.138-.188-.208-.045-.388.39-.293.768-.405.71-.21.872-.524.742-.838.045-.034.056-.101-.057-.361-.216-.473-.51-.361-.86-.416-.022-.012-.044-.033-.067-.045-.224-.102-.305-.168-.452-.252-.158-.123-.303-.218-.48-.355-.575-.818 3.54-.712 2.322-2.13-.18-.21-.471-.332-.765-.45a18 18 0 0 0-.346-.246c-.101-.068-.34-.18-.51-.282-.113-.156-.169-.354-.123-.63.115-.715 1.311-1.663 1.738-2.282.12-.176.233-.436.362-.674.277-.282.525-.598.486-.87-.045-.336-.27-.433-.531-.485-.045-.034-.047-.082-.104-.104-.212-.09-.518-.078-.83-.066-.637-.143-1.26-.322-1.908-.416-.818-.116-1.903-.046-2.602-.527-.145-.102-.517-.58-.882-1.018-.22-.4-.435-.794-.809-.988v.006c-1.517-.795-.63 1.925-.643 2.521-.034 1.57-.78 3.134-1.463 4.512-.512 1.038-.727 2.161-1.199 3.199-.315.69-.856 1.288-1.304 1.879-2.423-.995-2.642 1.547-1.416 2.912.034.114.12.2.246.252.266.225.56.41.923.496.688.163 1.091-.314 1.645-.379.266.18.62.363 1 .543.09.115.175.237.275.334.604.586 1.425 1.02 2.112 1.486 2.057 1.39 3.872 2.817 6.26 3.516.327.09 1.232.2 1.304.643.056.34-.665.51-.777.777-.295.723.813 1.415 1.24 1.838.9.89 1.006 1.285 1.445 2.44.212.56.77.839 1.006 1.322q.034.069.059.127l5.064-2.924c-1.163.447-2.178 1.22-3.316 1.677-.19.08-.397.068-.596.034-.023-.004-.045 0-.068-.006-.08-.022-.15-.078-.229-.115-.123-.068-.253-.133-.34-.264-.194-.302-.187-1.017-.351-1.424.524-.522 2.176-.663 2.644-.8 1.234-.369 2.362-.92 3.516-1.48.615-.303 1.26-.507 1.89-.779.456-.2 1.092-.773 1.64-.65l-.005.004c.259.054.57.35.723.623l1.463-.844c-.22-.313-.558-.829-.904-1.062.09-.485 1.59-1.434.29-1.72a.45.45 0 0 1-.325-.257c-.102-.377.102-.89.17-1.228.068-.19.15-.397.175-.557.12-.763.13-1.468.114-2.187 0-.034.008-.07.01-.104.09-2.504.08-4.986.363-7.486a39 39 0 0 0 .22-3.213c.024-.81.394-1.853.024-2.604-.057-.102-.14-.136-.205-.215a1 1 0 0 0-.28-.292c-.701-.472-1.744-.25-2.564-.51-1.606-.507-3.165-1.489-4.51-2.475-1.115-.81-2.13-1.746-3.084-2.736-.102-.102-.84-1.027-1.41-1.551-.133-.255-.27-.49-.447-.49m14.738 15.404c-.118.012-.223.103-.303.309-.36.923.716 2.917 1.059 3.767.255.635.118.828.13 1.475.004.195.034.339.079.46.113.379.59.913.906.997.634.738 1.203 2.111 1.338 3.05l3.479-2.01c-.215-.03-.413-.047-.62-.198-.152-.27-.272-.803-.42-1.053-.666-1.131-1.492-2.165-2.359-3.143-.755-.855-1.346-1.823-2.117-2.662-.331-.362-.816-1.028-1.172-.992M24.781 37.752c-.198-.003-.394.13-.58.459-.467.83-.724 2.32-.51 3.238.08.348.48.757.493 1.096.01.476-.259.406-.391.766-.067.19-.136.29-.176.515-.16.84.112 2.402.42 3.205.33.863 1.143 1.364 1.406 2.285l2.83-1.632a5 5 0 0 0-.156-.647c-.183-.58-.322-1.429-.777-1.873-.251-.243-.939-.237-.926-.625.012-.535 1.234-1.076 1.43-1.627.09-.264.112-.392.056-.672-.176-.834-.988-1.793-1.45-2.504-.355-.546-1.021-1.976-1.669-1.984" style="display:inline;fill:#d60270;fill-opacity:1;stroke-width:5.26313"/>
    </g>
</svg>
