<svg xmlns="http://www.w3.org/2000/svg" xml:space="preserve" id="svg5" width="88.338" height="100" version="1.1">
    <g id="blackMosquito" style="display:inline" transform="translate(-57.646 -60.29)">
        <path id="path18178-8" d="M106.353 70.623c-.175-.02-.37.041-.563.163-1.28 1.528-1.839 3.294-1.817 5.304.002.16.027.51.041.795-.037.428-.086.852-.105 1.29-.029.714.539 4.614 1.417 3.576.195.002.409-.207.642-.806-.113-.03-.192-.102-.284-.153.164-1.823-.574-3.68-.485-5.583.15-.556.287-1.12.29-1.595.188-.545.434-1.044.795-1.644.241-.402.895-.339.522-1-.12-.21-.279-.323-.453-.348zm-22.198 7.953c.077.207.177.41.258.616.876 3.146 2.53 5.806 4.092 8.69q1.935 3.571 3.87 7.136c.426.784.874 2.28 1.75 2.85-.496.52-2.062 2.42-1.47 3.243-.089.041-.174.072-.263.148a1 1 0 0 0-.295.168c-.14 1.014.026 2.16.637 3.013.28.392.535.83 1.074.916-.361-.051 1.283-.324 1.507-.3-1.3.518-2.32 1.545-2.334 3.08.004.134.279.982.606 1.043.029.005.037-.007.063-.005-.01.061-.04.127-.041.18h-.006c-.172.04-.386.225-.716.284a1 1 0 0 0-.19.04c.138-.15.244-.31.269-.485.187-1.333-4.698-.384-5.525.238.003.453.3.755.727.953-.161.01-.304.04-.469.05-.008.042-.013.092-.021.137-.094.005-.174.03-.269.03l-.121.69c1.093 0 2.167-.134 3.26-.101.733.02 2.376.487 2.865.116.04-.03.044-.082.078-.116.067-.02.164-.02.211-.051.106-.082.146-.194.21-.295-.027.698-.065 1.343.875 1.554.152.04 1.02-.134 1.612-.253-.083.04-.17.03-.248.102.029.356.44 1.46.97 2.423-.114-.072-.218-.157-.338-.221.02.16.098.301.142.453a4 4 0 0 0-.432-.28c.173 1.536 1.659 2.617 1.986 4.372q.48 2.54.948 5.087c.845 4.548 1.505 8.705 3.339 12.961 1.388 3.218 3.395 5.196 6.11 7.331.405.32 2.516 2.442 2.911 1.907.025-.03.014-.071.032-.102.114.02.208.007.264-.071.168-.228.128-.454 0-.68.052-.051.096-.061.158-.142.233-.324-.114-2.18-.121-2.586-.056-2.908.845-7.444-1.07-9.917-.23-.62-.498-1.217-.853-1.753.051.35.116.69.174 1.037-.147-.296-.289-.596-.469-.87.299 2.068.772 4.056.88 6.163.108 2.114-.134 3.952.237 6.077.072-.37.11-.804.173-1.2.033.34.06.677.122 1.032.033-.17.047-.373.079-.548l.01.87c-2.315.133-4.771-3.457-5.914-5.23-1.485-2.305-2.38-4.29-2.886-6.968-.532-2.825-1.032-5.651-1.564-8.473-.354-1.875-.45-5.331-1.896-6.931.04-.04.086-.04.126-.092.353-.477-1.059-3.587-2.38-3.834.01-.004.067-.007.073-.01 1.118-.536.287-1.075.758-1.732.33-.461.857-.544 1.428-.537-.215.102-.518.198-.632.289a.1.1 0 0 0-.01.04c-.074.042-.233.092-.284.132q-.172.726-.348 1.46c1.273-.177 1.936-.818 2.986.199.529.51.811 1.535 1.117 2.164a57 57 0 0 1 1.785 4.066c.053-.208.099-.336.153-.5.045.112.097.219.142.332.178-.694.382-1.078.358-1.612.264.213.63.274 1.048.338.14.02 1.616-.174 2.028-.443.293.55-.695 1.248-1.243 1.39-.496.133-1.297-.193-1.48.082-.29.431.354 1.342.822 1.707a1 1 0 0 0-.411-.041c.05.071.08.138.126.206a1 1 0 0 0-.416-.041c.913 1.185 1.1 2.563 1.67 3.897.102.697.517 1.486 1.132 1.886-.135-.02-.225-.072-.39-.082.83 1.435.858 3.11 1.638 4.508.516.928.652.979 1.432.627.188.986.693 1.635 1.365 2.149-.13-.01-.26-.03-.385 0 1.129 1.955 2.917 5.116 5.804 3.876a2.7 2.7 0 0 0 .59-.326c.695-.371.468-.58-.063-.732.458-.02.847-.194 1.232-.384.019.21.098.432-.042.495.73-.324 1.165-.618 2.017-.516-.117-.07-.248-.107-.374-.158.073-.01.154-.02.232-.02.316.12.642.214.827-.03.284-.382-.526-1.282-.785-1.454-.863-.579-1.38.005-2.027-1.001-.346-.536-.198-1.165-.68-1.733-1.208-1.42-2.713-.813-4.087-.04-.546.308-1.332 1.053-1.99.874-.743-.2-.663-1.076-1.554-1.027.109-.05.185-.082.321-.148.269-.123 1.126-.445 1.57-.758.281-.154.525-.31.563-.452.065-.232-.645-.051-.927-.005 1.229-.238 2.393-1.37 2.36-2.481-.022-.69-.443-1.645-.806-2.238-.288-.475-1.739-1.442-1.775-1.801-.056-.61.387-.481.827-.27l-.237.137c1.7 2.944 4.852 4.145 7.779 5.493 1.873.866 2.7 1.845 4.16 3.197.425.392.89.607 1.333.974.406.331 1.134 1.584 1.49 1.706.362.127.453.007.464-.168.608.061.104-.872-.085-1.169a2.1 2.1 0 0 0-.485-.527c.072.02.138.061.211.071-.647-2.674-4.34-4.55-6.573-5.63-2.775-1.34-5.26-2.812-7.457-4.987a48.5 48.5 0 0 1-5.403-6.346c-.456-.643-3.121-4.643-4.767-5.972a.82.82 0 0 0 .438-.316q-.074-.454-.158-.901l.194-.326c-.004.318 0 1.33-.01 1.332.881-.506 1.268-.277 2.16-.147.47.07 1.108.438 1.585.05a.76.76 0 0 0 .532-.389c.07-.117.063-.193.1-.294.172.528.404 1.034.732 1.5-.22-.22-.42-.387-.653-.626.456.795 1.072 2.029 1.738 2.644.783.72 2.182 1.063 3.128 1.595 2.312 1.305 4.724 2.39 7.057 3.682 3.675 2.027 5.279 5.748 6.293 9.585-.257-1.138-.5-2.279-.774-3.413q.178.442.337.896c.043.164.095.297.137.469.173.705 2.082 8.312 1.96 8.384 1.25-.723-.62-7.69-.954-9.064-.812-3.34-1.99-5.71-4.877-7.694-2.505-1.726-5.334-2.826-8.12-3.976-1.493-.615-3.091-1.075-4.03-2.402-.475-.674-.622-2.265-1.132-3.023.165-.03.275-.04.495-.102 1.176-.331 2.842-.04 3.892-.585 1.676-.87.294-1.57-.932-1.596-.899-.02-3.678 1.128-3.797-.04-.083-.829 1.178-1.386 2.064-1.802-.603.39-1.17.846-1.78 1.301.594-.004 1.481-.354 2.27-.826.806-.433 1.556-1.011 1.828-1.543-.345.081-.66.2-.964.332.366-.225.705-.487.748-.827.086-.718-.548-1.024-1.138-.768a34 34 0 0 0-3.623 1.985c-.25.155-.352.27-.506.396.354-.37.107-.87-.31-1.333.138.03.286.041.42.005.006.124-.029.246-.004.37l.3-.46c.007.102-.024.194-.005.29.026-.04.239-.369.395-.605.484-.468.911-1.452 1.153-1.949.572-1.18.534-2.889-1.39-2.18v.005c-.66 1.258-1.11 2.546-1.685 3.823-.226-.146-.46-.294-.632-.352-1.176-.403-3.545.167-4.25-.459-.313-.277-.427-1.417-.732-1.827-.532-.712-1.142-.946-1.991-1.133a5.5 5.5 0 0 0-1.285-.141c-.508.01-.937.128-1.37.316-.11-.52-.582-1.06-1.026-1.791l-4.514-7.431c-1.647-2.712-3.232-5.686-5.345-8.1-.115-.265-.258-.519-.369-.785.053.204.135.39.195.59-.222-.246-.418-.52-.653-.753zm21.761 3.117c-.27 0-.512.061-.711.206-.043.13.012.331.116.564-.021.01-.043.01-.063.03.011.02.03.041.042.061a.44.44 0 0 0-.337.117c.568 1.089 1.354 1.674 2.048 2.638.788 1.097.68 1.485 2.302 1.211-.024-.05-.072-.091-.1-.136.134-.01.22-.003.39-.03-.03-.062-.085-.11-.122-.169.297.051.559.04.711-.168.881-1.183-2.38-4.316-4.276-4.319zm3.797 5.414c-.292-.117-.713-.02-1.3.432-.47.756-.333 1.422-.049 2.07-.094 1.198-.19 2.395-.242 3.597-.021.504-.3 2.09.142 2.48.282.247.743.198 1.012-.05.279-.072.467-.289.463-.627.064.051.135.071.221.03.665-.338.235-3.581.31-4.376.081-.873.32-3.203-.557-3.555zM68.971 93.16c-1.065.02-2.424.285-1.695 1.184-.037.009-.08 0-.116.011.633.903 4.087 1.163 5.277 1.67 1.075.456 3.754 2.636 4.624 2.132-.029.02-.242-.104-.364-.158.262.062.498.082.659-.01-.019.01-.178-.082-.237-.105.084-.02.179-.02.242-.071 1.323-1.05-2.1-2.757-2.812-3.123-1.474-.756-3.059-1.225-4.687-1.49a5 5 0 0 0-.89-.042zm8.79 5.203a1.3 1.3 0 0 0-.574.04c-.175.218-.262.484-.295.775l-.01-.04.027.384c.004.225.006.443.048.68.018.279.037.448.068.794-.134-.579-.274-1.196-.432-1.69.076.93.276 7.526 2.154 6.088.15-.051.304-.137.48-.311-.125-.104-.225-.236-.333-.358 1.032-.384.126-2.223-.016-3.212-.132-.935.021-2.963-1.116-3.15zm37.06 1.396c-1.077.05-1.988.294-1.61.995l.004.005c-.046.01-.1.02-.137.041.491 1.42 6.317 2.454 7.926 1.29.296-.135.528-.313.638-.542q-.231.043-.464.071c.232-.105.458-.193.711-.368-.518-1.377-3.352-1.265-4.455-1.39a17 17 0 0 0-2.612-.106zm23.737.05c-.282-.07-.608.082-.732.564-1.201 1.071-2.38 2.044-3.792 2.828-.554.309-5.288 1.976-5.414 1.764.157.273.449.412.785.496-.196.091-.41.147-.585.274.013.005.043 0 .058.005-.114.061-.246.092-.353.168.68.262 2.629-.212 3.434-.406.97-.237 1.907-.692 2.802-1.127.467-.226.987-.49 1.511-.78 1.381-.727 2.84-1.688 3.371-3.038-.111.071-.212.148-.321.221.007-.02.019-.03.026-.05-.166.108-.316.22-.479.331.36-.66.063-1.157-.31-1.253zm-41.616.306c1.069.03 1.99.407 2.138 1.011-.838-.534-1.859-.973-2.817-.838.253-.081.52-.178.679-.173m-1.48.464-.053.03a2.1 2.1 0 0 0-.58.348c-.123.467-.055.879.1 1.238-.283.821 1.398 1.843 2.08 1.843 1.011-.003 2.919-1.789 3.893-2.249.704-.333 3.418-.487 4.892-.04l-.02.004c-.273.072-.428.162-.538.263-1.116.445.22 1.422.764 1.886.06-.092.079-.207.131-.306.052.04.12.102.163.136.202-.312.356-.66.438-1.021-.005.02.013.04.005.061a1.2 1.2 0 0 0 .431-.243c-.785.69-.33 1.078-.005 2.276.04.142.054.223.085.347-.142-.478-.391-.909-.616-1.022-.622-.308-2.314.263-2.997.569-.837.37-1.742.752-2.454 1.338-.733.604-1.067 1.216-1.98 1.58-1.161.463-1.88.407-2.765 1.474-.662.798-.94 2.008-1.796.664-.189-.299-.027-1.032-.268-1.27.043-.188.081-.383.152-.542.419-.936 1.273-1.97 1.196-3.033.035-.02.053-.03.084-.051h.01c1.5-.666.352-.7-.453-1.501-.397-.4-1.013-1.609-1.727-2.128.547-.136 1.2-.4 1.827-.658zm27.865.663c-.35-.02-.683.082-.985.358.005.122.078.278.169.437l-.337-.279c.213.369.536.741.848 1.111-.392-.323-.781-.648-1.143-.942 1.186 2.052 4.105 4.45 6.467 3.67-.135-.006-.267-.04-.4-.06.233-.021.47-.042.695-.117a5 5 0 0 1-.864-.121c1.082-.686-1-2-1.474-2.344-.747-.545-1.925-1.663-2.976-1.717zm-24.695.948-.047.051c-.379.36-.705.554-1.006.637.105-.061.212-.11.316-.184.246-.15.497-.312.737-.506zm-18.553 2.923a1.5 1.5 0 0 0-.474.082 1 1 0 0 0-.064.653c-.094-.124-.21-.254-.284-.374-.066.178-.046.376.015.58-.106-.138-.23-.28-.31-.41-.709 1.894 6.467 5.532 7.657 4.486-.082.004-.178-.02-.263-.03.22-.02.435-.041.553-.148-.219.007-.46-.02-.7-.061 1.828-.803-2.05-2.743-2.523-3.034-.881-.544-2.433-1.767-3.608-1.753zm35.422.158c-.34-.05-.63.03-.822.343-.043.26.242.699.67 1.195-.173-.12-.34-.259-.522-.342 1.287 2.229 3.469 4.026 5.946 4.745a.38.38 0 0 0 0-.295c.1.03.193.092.295.122.055-.122.019-.239-.047-.358.135-.004.256-.03.326-.105 1.05-1.14-2.114-2.723-2.812-3.265-.553-.432-2.015-1.871-3.033-2.039zm-8.221.02c.114.488.21.851.332 1.064-.014.251.015.492.042.732-.461-.314-1.336-.33-2.176-.258.525-.17 1.268.135 1.67-.284.258-.268.25-.775.132-1.253zm-3.376 1.654c.13-.071.28-.071.458.03-.201.042-.48.093-.579.127v.105c-.043.01-.123.02-.158.03.085-.119.175-.236.28-.294zm-22.588.585c.223.125.453.25.637.358.484.282 1.994 1.258 3.113 1.748-1.281-.422-2.616-1.225-3.75-2.106m20.682 2.391c.116.857.276 1.755.547 2.65-.328-.76-.415-1.642-.647-2.302-.062-.172-.06-.237-.08-.338.054-.01.13.007.18-.01m20.892.985c-.334-.01-.678.109-1.027.452.039.071.251.297.353.427a.4.4 0 0 0-.232.051c.029.051.09.102.121.153-.149-.05-.293-.061-.416.02.978 1.694 3.602 3.74 5.551 3.966-.06-.132-.182-.234-.28-.347.191.05.395.158.575.179-.065-.143-.193-.254-.3-.374a.55.55 0 0 0 .358-.27c.45-.823-1.474-2.05-1.901-2.327-.869-.561-1.8-1.879-2.802-1.922zm-30.904 1.048c-1.258 0-2.392.125-3.607.474-.263.579-.06.91.358 1.1-.057-.007-.118-.01-.174-.02.223 1.093 1.563.826 2.375.795-.055-.071-.128-.102-.19-.158.163-.01.346 0 .485-.005-.194-.247-.44-.386-.7-.49 1.106-.122 2.283-.449 2.664-.795 1.133-1.036.014-.901-1.21-.901m2.918.595c-.23 0-.496.05-.822.158-.01.01-.097.102-.132.136-.06.02-.099.01-.163.03-.075.082-.936.936-.821.99.539.266 2.47.337 3.107.072-.022-.041-.042-.062-.063-.092.123-.02.274-.04.358-.071-.445-.764-.777-1.222-1.464-1.222zm-7.72 1.285c-.885.102-1.197 1.29-1.697 1.864-1.168 1.338-2.59 2.309-3.697 3.74-.155.312.061.433.358.49h-.126c-.536.607.348.84.7.837.177 0 .397-.122.617-.274.47-.215 1.038-.772 1.206-1.09-.012.007-.02.01-.032.02.17-.139.329-.27.553-.568.34-.452.61-.937.922-1.396a1.9 1.9 0 0 0 .647-.748c.528-.444 1.218-.847 1.401-1.564.22-.845.067-1.41-.853-1.306zm7.894.258c-.158-.051-.398.071-.759.437-.691.647-2.518 2.496-2.064 3.597-.02.007-.057.01-.074.02-.37 1.225.932 1.173 1.517.669.27-.127.5-.309.558-.547.065-.266-.005-.415-.137-.506.129-.138.266-.26.374-.442v.168c.095-.124.19-.256.295-.38v.212c.36-.471.83-.929 1.117-1.443.14-.245.345-1.065.463-1.18-.13.125-.251.261-.379.39.028-.062.067-.2.09-.222-.314.304-.614.626-.917.943.182-.696.271-1.604-.084-1.717zm43.364.269c-.567.106-1.32.772-1.722.953-1.248.564-2.552.532-3.871.405-.982-.091-4-1.057-4.524-.49-.468.385-.32.688.09.938-.13.002-.273-.01-.359.05.356 1.209 4.516 1.369 5.757 1.502 1.09.115 1.34.07 2.354-.364.313-.133 2.057-1.245 2.233-1.159.048-.03.076-.061.12-.092.034-.007.156-.081.17-.081-.02-.01-.05-.007-.069-.02.352-.27.585-.587.522-1.007-.087-.571-.36-.71-.7-.648zm-34.222 1.211c.06.051.132.092.195.148a.95.95 0 0 0 .263.442.9.9 0 0 1-.3-.148c-.004-.02 0-.03-.005-.05-.031-.13-.103-.26-.153-.39zm-5.614.637c.05.005.1.04.148.03.041.113.07.23.11.343-.077-.133-.173-.248-.258-.374zm7.336 3.381c.344.071.689-.02.996.153.09.051.915.688.9.685.522.162.378.582 1.054.437.348-.071.541-.971.653-.99.088-.02.171.021.258.031-.092.35-.233.95-.48 1.275-.415.02-1.457-.484-1.506-.03-.194-.005-.342.04-.305.257.111.677 1.124.687 1.827.231.6-.25 1.068-.813.896-1.595.44.264.788.8.858 1.38.155 1.29-.16.777-1.048 1.158-.205.092-.69.16-1.006.3-.295.136-.165.723-.69.737-1.136.041-.463-1.36-1.143-1.374-.047-.001-.068.04-.11.04.215-.588.452-1.062-.21-1.88a3.7 3.7 0 0 0-.944-.816zm-14.25.295c-.603.54-.562 1.287-.39 2.064-.026-.05-.042-.102-.069-.147.252 1.222-.017 2.668.095 3.934.054.656.608 3.309 1.116 2.385.135.072.273-.071.406-.469.039.051.085.082.121.142.892-1.01.135-2.942.095-4.16-.05-1.478.66-3.383-1.375-3.75zm18.163.03c.063.01.13 0 .19.02-.028.108-.054.21-.09.333a1.7 1.7 0 0 0-.1-.353M81 120.957q-.285.013-.669.126c-1.11.942-1.654 2.458-2.538 3.597-.717.918-1.013 1.456-.169 1.317-.047.03-.102.04-.147.071.002.01.008.01.01.02-.1.052-.214.082-.305.148.207.753.65.692 1.048.38.378-.129.768-.58.942-1.016-.142-.01-.28.03-.421.04 1.021-.458 1.792-1.303 2.575-2.322.806-1.054 1.004-2.436-.326-2.36zm32.631 1.949c.246.245.484.517.801.853.35.372.746.662 1.137.959-.773-.542-1.448-1.14-1.938-1.812m-4.35 2.464c-.112.062-.138.225-.137.416-.082-.113-.21-.19-.32-.28.15-.04.297-.04.457-.136m-32.836 1.433c-.704.03-1.59.874-2.091 1.116-1.072.521-2.136.565-3.286.748-1.733.28-3.423.041-5.256.051v.005c.056.384.306.662.632.89l-.1-.005-.1.364c1.226.35 2.538.388 3.85.32.78-.02 1.491-.08 1.911-.152.03-.005.144-.04.185-.051.214-.03.443-.03.653-.061l-.353-.02c.135-.041.263-.072.442-.127.067-.01.14-.01.206-.02l-.11-.005c1.722-.544 4.812-1.777 4.039-2.755a.71.71 0 0 0-.622-.29zm15.91 2.59q-.223.045-.474.249c-.065.206-.008.585.1 1.016-.012-.02-.058-.072-.069-.092.028.03.043.071.069.102.08.316.232.676.379 1.053a23 23 0 0 1-.737-.984c.74.712 1.008 2.311 1.5 3.217.137.252 1.467 2.818 1.675 1.912.002-.01-.007-.03-.005-.04.139.091.252.08.3-.132.011-.051-.014-.122-.017-.18.078.02.163.082.237.072 1.315-.14-.685-2.926-.99-3.613-.334-.75-.925-2.81-1.97-2.58zm22.588 4.899c.48.264.992.54 1.538.78-.161-.041-.355-.072-.474-.112-.336-.118-.694-.37-1.064-.668m-12.73.284c.072.209.156.418.232.627-.084-.208-.171-.415-.231-.627m11.429 1.612a.48.48 0 0 0-.158.257c-.045-.02-.095-.081-.137-.091a.46.46 0 0 0-.174.463c.615.942.86 1.655 1.723 2.38.91.77 1.966 1.267 2.99 1.85.81.463 1.502 1.283 2.308 1.664.895.42 2.038.391 2.991.748-.077-.118-.207-.203-.3-.311.167.04.34.061.5.116.11.136.225.27.31.42-.1-1.085.388-2.459.259-3.412-.194-1.384-1.965-2.878-3.429-2.849-1.69.03-1.972 1.666-3.723.921-1.05-.445-2.095-1.3-2.839-2.138.047.107.096.168.142.27-.163-.142-.323-.252-.463-.29zm-18.428.395c-.148.002-.338.04-.574.143-.827 1.438-.869 3.218-1.616 4.76-.41.853-.821 1.932-1.375 2.686-.223.306-2.403 1.799-2.36 1.996.206 1.003 2.464-1.089 2.766-1.437.73-.845 1.128-1.813 1.495-2.881.396-1.15.636-1.866 1.38-2.786.393-.481 1.323-2.501.284-2.48zm.059 2.296a9 9 0 0 0-.464 1.117c.049-.321.119-.61.169-.948-.788 1.539-1.075 3.676-1.97 5.082-.308.487-1.306 1.525-2.18 2.038-.26.115-.503.177-.696.127-.011.071-.001.107-.005.163-.101.01-.205.03-.29.005-.113.75.22.607.616.284.353-.161.883-.722 1.148-.921.799-.605 1.45-.935 2.044-1.765 1.168-1.636 1.343-3.251 1.627-5.182zm11.886 3.055c.026.02.048.05.073.081-.025-.03-.049-.05-.073-.081m.21.21c.336.32.688.602 1.033.897a10 10 0 0 1-1.032-.896" style="display:inline;fill:none;fill-opacity:1;fill-rule:nonzero;stroke:#9a9a9a;stroke-width:2;stroke-linecap:round;stroke-linejoin:round;stroke-dasharray:none;stroke-opacity:1" transform="translate(.088 .041)"/>
        <path id="path1-2" d="M106.287 70.62a.95.95 0 0 0-.496.165c-1.28 1.528-1.84 3.295-1.819 5.305.002.16.027.51.041.795-.037.428-.084.853-.103 1.29-.03.715.538 4.615 1.416 3.577.195.002.41-.208.642-.807-.113-.03-.193-.101-.285-.152.164-1.823-.573-3.681-.484-5.584.15-.556.288-1.12.29-1.596.189-.545.435-1.042.796-1.642.24-.402.894-.34.521-1-.12-.21-.279-.325-.453-.35v.002zm-22.131 7.956c.077.207.177.41.258.615.876 3.146 2.53 5.808 4.091 8.692l3.87 7.135c.426.784.874 2.28 1.75 2.85-.496.52-2.061 2.42-1.47 3.243-.088.041-.174.073-.263.149a1 1 0 0 0-.295.168c-.14 1.014.026 2.158.637 3.011.272.382.521.805 1.031.907l-.002-.002-.002-.002h-.002v-.002h-.002v-.01l.002-.002.002-.002c.095-.088 1.36-.29 1.555-.27-1.3.518-2.32 1.545-2.334 3.08.004.134.278.982.605 1.043.03.005.037-.008.063-.006-.01.061-.04.127-.041.18h-.006c-.172.04-.387.226-.717.285a1 1 0 0 0-.19.04c.139-.15.245-.31.27-.485.187-1.333-4.698-.384-5.525.238.003.453.3.755.726.953-.16.01-.303.039-.468.049-.008.042-.014.092-.022.137-.094.005-.172.03-.267.03l-.122.69c1.093 0 2.167-.134 3.26-.101.733.02 2.376.488 2.865.117.04-.03.045-.083.079-.117.067-.02.164-.02.21-.051.107-.082.145-.194.21-.295-.028.698-.066 1.344.874 1.555.152.04 1.022-.135 1.614-.254-.083.04-.17.03-.248.101.029.356.438 1.461.968 2.424-.114-.072-.217-.157-.337-.22.02.16.098.3.142.453a4 4 0 0 0-.431-.282c.173 1.536 1.657 2.618 1.984 4.373q.48 2.541.95 5.088c.844 4.548 1.503 8.705 3.337 12.961 1.388 3.218 3.396 5.195 6.111 7.33.405.32 2.516 2.442 2.91 1.907.026-.03.016-.071.034-.102.114.02.207.008.263-.07.168-.228.128-.454 0-.68.052-.051.097-.062.159-.143.233-.324-.115-2.18-.122-2.585-.056-2.908.845-7.445-1.07-9.918-.23-.62-.498-1.216-.853-1.752.05.35.115.69.173 1.037-.147-.296-.288-.597-.468-.871.299 2.068.773 4.057.88 6.164.109 2.114-.134 3.95.237 6.076.072-.37.11-.803.174-1.2.033.34.059.677.12 1.032.034-.17.047-.372.079-.547l.012.87c-2.315.132-4.771-3.458-5.914-5.231-1.485-2.305-2.381-4.29-2.887-6.967-.532-2.825-1.033-5.65-1.565-8.473-.354-1.875-.45-5.331-1.896-6.931.04-.04.087-.04.127-.092.353-.477-1.06-3.587-2.381-3.834l.006-.002c.015-.003.053-.006.066-.008h.002c1.118-.536.287-1.076.758-1.733.33-.46.857-.544 1.428-.537-.215.102-.519.198-.633.29a.1.1 0 0 0-.01.038c-.074.042-.232.093-.283.133l-.348 1.46c1.273-.178 1.937-.819 2.987.198.529.51.809 1.535 1.115 2.164a57 57 0 0 1 1.785 4.067c.053-.208.1-.336.154-.5.045.112.096.219.141.332.178-.694.383-1.077.36-1.611.263.213.628.273 1.046.337.14.02 1.618-.174 2.03-.443.293.55-.697 1.249-1.245 1.39-.496.134-1.297-.192-1.48.083-.29.43.354 1.342.822 1.707a1 1 0 0 0-.41-.041c.05.07.08.137.125.205a1 1 0 0 0-.416-.041c.913 1.185 1.1 2.562 1.67 3.896.102.697.518 1.487 1.133 1.887-.135-.02-.226-.072-.39-.082.83 1.435.858 3.11 1.638 4.508.516.928.652.979 1.432.627.188.986.693 1.634 1.365 2.148-.13-.01-.26-.03-.385 0 1.129 1.955 2.918 5.117 5.805 3.877a2.7 2.7 0 0 0 .59-.326c.695-.371.466-.58-.065-.732.458-.02.848-.193 1.233-.383.018.203.093.418-.03.488.722-.322 1.157-.611 2.004-.51-.117-.07-.247-.107-.373-.158.073-.01.154-.02.232-.02.317.12.642.213.827-.03.284-.383-.526-1.282-.785-1.454-.863-.579-1.38.004-2.028-1.002-.346-.536-.198-1.164-.68-1.732-1.208-1.42-2.711-.812-4.085-.04-.546.309-1.333 1.053-1.99.874-.744-.2-.664-1.076-1.555-1.027.109-.05.186-.081.322-.147.269-.123 1.124-.447 1.568-.76.281-.154.527-.309.565-.45.065-.233-.646-.053-.928-.007 1.229-.238 2.392-1.37 2.36-2.48-.023-.69-.442-1.646-.805-2.239-.288-.475-1.74-1.441-1.776-1.8-.056-.61.386-.481.826-.27l-.236.137c1.7 2.944 4.852 4.146 7.78 5.494 1.872.866 2.7 1.843 4.16 3.195.425.392.889.608 1.332.975.406.33 1.134 1.585 1.49 1.707.362.127.454.007.465-.168.608.06.103-.873-.086-1.17a2.1 2.1 0 0 0-.485-.527c.072.02.138.062.211.072-.647-2.674-4.34-4.55-6.574-5.63-2.775-1.34-5.26-2.812-7.457-4.987a48.5 48.5 0 0 1-5.402-6.346c-.456-.643-3.122-4.644-4.768-5.973a.82.82 0 0 0 .44-.316 38 38 0 0 0-.159-.9l.194-.327c-.004.318 0 1.33-.01 1.332.88-.506 1.268-.276 2.16-.146.47.07 1.107.437 1.584.049a.76.76 0 0 0 .533-.389c.07-.117.063-.194.1-.295a5.6 5.6 0 0 0 .732 1.5c-.22-.22-.421-.386-.654-.625.456.795 1.072 2.03 1.738 2.645.783.72 2.183 1.061 3.129 1.593 2.312 1.305 4.724 2.392 7.057 3.684 3.675 2.027 5.279 5.747 6.293 9.584-.257-1.138-.5-2.278-.774-3.412q.178.442.336.894c.043.164.095.297.137.47.173.704 2.083 8.312 1.96 8.384 1.25-.723-.618-7.69-.952-9.065-.812-3.34-1.992-5.709-4.88-7.693-2.504-1.726-5.332-2.826-8.118-3.976-1.493-.615-3.09-1.076-4.03-2.403-.475-.674-.622-2.263-1.132-3.021.165-.03.276-.042.496-.104 1.176-.33 2.84-.039 3.89-.584 1.676-.87.295-1.57-.931-1.595-.9-.02-3.678 1.127-3.797-.041-.083-.83 1.178-1.385 2.064-1.801-.603.39-1.171.846-1.781 1.3.594-.003 1.482-.354 2.271-.826.806-.433 1.557-1.01 1.829-1.543-.345.081-.661.2-.965.332.366-.225.705-.488.748-.828.086-.718-.549-1.023-1.139-.767a34 34 0 0 0-3.623 1.986c-.25.155-.352.269-.506.395.354-.37.109-.87-.308-1.332.138.03.285.04.42.004.005.124-.03.247-.005.37l.3-.46c.006.102-.024.195-.005.29.026-.04.239-.369.395-.605.484-.468.91-1.452 1.152-1.949.572-1.18.536-2.889-1.388-2.18v.004c-.66 1.258-1.111 2.547-1.686 3.824-.226-.146-.46-.293-.633-.351-1.176-.403-3.545.167-4.25-.46-.313-.276-.427-1.417-.732-1.827-.532-.712-1.141-.946-1.99-1.133a5.5 5.5 0 0 0-1.286-.14c-.508.01-.936.128-1.369.316-.11-.52-.583-1.06-1.027-1.791l-4.514-7.432c-1.647-2.712-3.23-5.685-5.344-8.1-.115-.264-.258-.519-.369-.785.053.204.134.39.194.59-.222-.246-.418-.52-.653-.754zm21.76 3.117c-.27 0-.512.06-.711.205-.043.13.013.332.117.565-.021.01-.045.01-.065.03.011.02.031.042.043.062a.44.44 0 0 0-.338.117c.568 1.089 1.355 1.673 2.05 2.637.787 1.097.68 1.484 2.302 1.21-.024-.05-.074-.09-.102-.134.134-.01.221-.004.391-.032-.03-.062-.084-.109-.121-.168.297.051.559.04.71-.167.882-1.183-2.38-4.318-4.276-4.32zm3.552 5.37c-.269-.001-.614.137-1.054.476-.47.756-.333 1.422-.05 2.07-.093 1.198-.19 2.396-.241 3.598-.021.504-.302 2.088.14 2.478.282.247.745.2 1.014-.048.279-.072.467-.29.463-.627.064.05.134.07.22.029.665-.338.234-3.582.31-4.377.08-.873.32-3.203-.558-3.555a.7.7 0 0 0-.244-.045m-40.496 6.095-.002.002c-1.065.02-2.422.285-1.693 1.184-.037.009-.081 0-.117.011.633.903 4.087 1.163 5.277 1.67 1.072.455 3.737 2.621 4.615 2.135-.05 0-.242-.11-.355-.16.259.061.493.079.654-.01-.033-.002-.177-.084-.232-.105.084-.02.179-.022.242-.073 1.323-1.05-2.1-2.757-2.813-3.123-1.474-.756-3.057-1.225-4.685-1.49a5 5 0 0 0-.89-.04m8.08 5.002.004-.002h-.002zm.565.19a1.3 1.3 0 0 0-.43.052c-.175.218-.262.485-.295.776l-.01-.04.028.383c.004.225.005.443.047.68.018.28.037.449.068.795-.134-.579-.274-1.195-.432-1.69.076.93.277 7.526 2.155 6.088.15-.05.302-.136.478-.31-.125-.104-.224-.237-.332-.36 1.032-.383.126-2.221-.016-3.21-.132-.935.02-2.964-1.117-3.15a1 1 0 0 0-.144-.014m37.205 1.406v.004c-1.077.05-1.99.293-1.612.994l.004.006c-.046.01-.1.02-.136.04.49 1.42 6.317 2.454 7.926 1.29.296-.135.528-.312.638-.541q-.232.043-.465.07c.232-.105.458-.192.711-.367-.518-1.377-3.352-1.266-4.455-1.39a17 17 0 0 0-2.611-.106m23.574.037c-.235.014-.47.188-.57.58-1.201 1.071-2.38 2.044-3.791 2.828-.546.304-5.143 1.925-5.407 1.774.159.265.446.403.778.486-.196.09-.411.146-.586.273l.002.002c.012.003.038 0 .053.002l.004.002c-.114.061-.247.092-.354.168.68.262 2.629-.212 3.434-.406.97-.237 1.907-.692 2.802-1.127.467-.226.988-.49 1.512-.78 1.381-.726 2.838-1.688 3.37-3.038-.112.07-.212.147-.321.22.007-.02.018-.028.025-.048-.166.108-.315.219-.478.33.36-.66.062-1.156-.31-1.252v.002a.5.5 0 0 0-.163-.016m-41.453.322c1.069.03 1.989.408 2.137 1.012-.838-.534-1.859-.975-2.817-.84.253-.08.52-.177.68-.172m-1.483.457.002.006-.052.031a2.1 2.1 0 0 0-.58.348 1.85 1.85 0 0 0 .1 1.238c-.284.821 1.397 1.842 2.08 1.842 1.01-.003 2.918-1.788 3.892-2.248.704-.333 3.418-.486 4.892-.039l-.019.004c-.273.072-.43.16-.54.262-1.115.445.22 1.422.765 1.886.06-.092.079-.207.13-.306.052.04.122.103.165.137a3.2 3.2 0 0 0 .437-1.014c0 .017.013.035.006.053a1.2 1.2 0 0 0 .43-.243c-.785.69-.33 1.078-.004 2.276.04.142.053.223.084.347-.142-.478-.39-.908-.616-1.021-.622-.308-2.315.262-2.998.568-.837.37-1.74.752-2.453 1.338-.733.604-1.067 1.216-1.98 1.58-1.161.463-1.88.408-2.766 1.475-.662.798-.939 2.008-1.795.664-.189-.3-.026-1.034-.267-1.272.043-.188.081-.382.152-.54.419-.937 1.272-1.97 1.195-3.034.035-.02.053-.03.084-.05h.01c1.5-.667.352-.702-.453-1.503-.397-.4-1.013-1.607-1.727-2.126.547-.136 1.2-.4 1.827-.659zm27.868.666v.004a1.3 1.3 0 0 0-.987.358c.005.122.08.278.17.437l-.338-.28c.213.37.538.742.85 1.112-.392-.323-.783-.647-1.145-.941 1.186 2.052 4.105 4.45 6.467 3.67-.135-.006-.265-.04-.398-.06.233-.022.468-.043.693-.118a5 5 0 0 1-.863-.121c1.082-.686-1-2-1.475-2.344-.747-.545-1.923-1.663-2.974-1.717m-24.696.95-.047.051c-.379.36-.704.556-1.005.639.105-.061.21-.112.314-.186a7 7 0 0 0 .738-.505m-18.554 2.915.002.01a1.5 1.5 0 0 0-.475.082 1 1 0 0 0-.064.653c-.094-.124-.21-.253-.284-.373-.066.178-.045.376.016.58-.106-.138-.23-.28-.31-.41-.71 1.894 6.466 5.532 7.656 4.486-.082.004-.177-.021-.262-.031.22-.02.435-.042.553-.149a3.6 3.6 0 0 1-.701-.06c1.828-.803-2.05-2.742-2.524-3.033-.88-.544-2.432-1.768-3.607-1.754zm35.298.155c-.285-.014-.529.081-.697.355-.043.26.242.7.67 1.196-.173-.12-.34-.26-.521-.342 1.287 2.229 3.468 4.027 5.945 4.746a.38.38 0 0 0 0-.295c.1.03.193.091.295.121.055-.122.019-.238-.047-.357.135-.004.256-.03.326-.106 1.05-1.14-2.114-2.724-2.812-3.266-.553-.432-2.016-1.87-3.034-2.039a1 1 0 0 0-.125-.013m-8.095.035c.114.487.21.85.332 1.062-.014.251.014.493.04.733-.46-.314-1.335-.332-2.175-.26.525-.17 1.268.136 1.67-.283.258-.268.25-.774.133-1.252m-3.22 1.603a.5.5 0 0 1 .302.079c-.201.042-.481.093-.58.127v.105c-.043.01-.123.02-.158.03.084-.119.175-.233.279-.292l.002-.002a.4.4 0 0 1 .154-.047m-22.745.633c.223.125.453.252.637.36.484.282 1.994 1.258 3.113 1.748-1.281-.422-2.616-1.227-3.75-2.108m20.682 2.393c.116.857.275 1.753.546 2.648-.328-.76-.414-1.64-.646-2.3-.062-.172-.06-.237-.08-.338.054-.01.13.007.18-.01m20.892.984c-.334-.01-.678.108-1.027.451.039.071.251.298.353.428a.4.4 0 0 0-.232.05c.029.052.09.102.121.153-.149-.05-.293-.06-.416.022.978 1.694 3.602 3.739 5.55 3.965-.06-.132-.18-.233-.279-.346.191.05.395.157.575.178-.065-.143-.192-.253-.3-.373a.55.55 0 0 0 .358-.272c.45-.823-1.473-2.049-1.9-2.326-.87-.561-1.8-1.879-2.803-1.922zm-30.039 1.043c-.26-.004-.557.004-.863.004h-.002c-1.258 0-2.393.126-3.608.475-.263.579-.058.91.36 1.1-.057-.008-.118-.01-.174-.02.223 1.093 1.563.826 2.375.795-.055-.071-.13-.102-.191-.158.163-.01.347 0 .486-.004-.194-.247-.441-.387-.701-.49 1.106-.123 2.283-.45 2.664-.796.85-.777.432-.895-.346-.906m2.055.6c-.23 0-.496.05-.822.158-.01.01-.098.103-.133.137-.06.02-.098.009-.162.029-.071.078-.845.847-.832.977l.002.006.002.002v.002h.002v.002h.002l.002.002c.328.162 1.175.25 1.93.236-.146.047-.334.184-.577.43-.69.647-2.518 2.496-2.064 3.597-.02.007-.058.01-.075.02-.37 1.225.933 1.172 1.518.668.27-.127.5-.31.559-.547.065-.266-.005-.415-.137-.506.129-.138.265-.26.373-.441v.168c.095-.124.19-.257.295-.381v.213c.36-.471.83-.93 1.117-1.444.135-.237.332-1.01.451-1.166-.125.122-.243.252-.367.377.024-.054.057-.167.08-.209-.31.3-.607.617-.906.93.18-.69.268-1.59-.076-1.715.407-.018.77-.069.986-.158-.022-.041-.042-.062-.063-.092.123-.02.274-.041.358-.072-.445-.764-.776-1.221-1.463-1.221zm-7.559 1.28a2 2 0 0 0-.164.01l.002-.005c-.885.102-1.197 1.29-1.697 1.863-1.168 1.338-2.59 2.31-3.697 3.74-.155.312.062.434.359.49h-.127c-.536.608.347.841.7.838.176 0 .396-.123.616-.275.47-.215 1.04-.772 1.207-1.09l-.023.014a2.8 2.8 0 0 0 .545-.56c.34-.453.61-.938.922-1.397a1.9 1.9 0 0 0 .646-.748c.528-.444 1.218-.848 1.4-1.565.207-.792.085-1.337-.689-1.316zm51.22.505a1 1 0 0 0-.122.014l-.002.013c-.567.106-1.32.772-1.723.953-1.248.564-2.552.532-3.87.405-.983-.091-4-1.057-4.524-.49-.468.385-.32.689.09.939-.13.002-.274-.011-.36.049.356 1.209 4.517 1.369 5.758 1.502 1.09.115 1.34.07 2.353-.364.313-.133 2.059-1.246 2.235-1.16.048-.03.075-.06.119-.091.032-.007.14-.072.166-.08-.02-.009-.046-.008-.065-.02.352-.27.585-.588.522-1.008-.076-.5-.295-.67-.576-.662zm-34.347 1.238c.06.051.133.093.196.149a.95.95 0 0 0 .263.441.9.9 0 0 1-.3-.148c-.005-.02 0-.03-.005-.05-.03-.13-.104-.26-.154-.39zm-5.613.637c.05.005.1.04.148.03.041.112.07.23.11.343-.077-.133-.173-.247-.258-.373m7.338 3.38c.343.07.688-.02.994.153.09.051.915.689.9.686.522.162.377.582 1.053.437.34-.07.535-.93.649-.988l.002-.002h.004c.088-.02.17.021.257.031-.092.35-.233.95-.48 1.276-.415.02-1.457-.486-1.506-.032-.194-.005-.342.041-.305.258.111.677 1.124.687 1.827.23.6-.25 1.068-.811.896-1.593.44.264.787.799.857 1.379.155 1.29-.158.777-1.046 1.158-.205.092-.69.16-1.006.3-.295.137-.167.723-.692.737-1.136.041-.462-1.36-1.142-1.375-.047 0-.068.041-.11.041.215-.588.451-1.063-.21-1.88a3.7 3.7 0 0 0-.942-.815zm-14.252.296c-.603.54-.563 1.287-.39 2.064-.027-.05-.042-.101-.07-.146.253 1.222-.015 2.667.097 3.933.054.656.607 3.31 1.115 2.385.135.072.273-.07.406-.469.04.051.085.083.121.143.892-1.01.136-2.942.096-4.16-.05-1.478.66-3.383-1.375-3.75m18.164.03c.063.01.13 0 .19.02-.029.108-.054.21-.09.332a1.7 1.7 0 0 0-.1-.351M81 120.958q-.285.014-.668.127c-1.11.942-1.656 2.457-2.54 3.596-.717.918-1.011 1.455-.167 1.316-.047.03-.104.041-.149.072l.002.002v.002l.002.002v.002l.002.002.002.002.002.002v.004l.002.002c-.1.052-.216.083-.307.149.207.753.651.69 1.05.379.377-.13.767-.58.94-1.016-.141-.01-.278.031-.42.041 1.022-.458 1.792-1.303 2.575-2.322.806-1.054 1.004-2.436-.326-2.36zm32.63 1.95c.246.244.484.517.801.853.138.146.287.272.436.398-.471-.39-.907-.8-1.237-1.252m-4.357 2.468c-.105.066-.13.224-.129.41-.082-.113-.21-.19-.32-.28.147-.039.292-.04.449-.13m-32.828 1.428c-.704.03-1.591.875-2.092 1.117-1.072.52-2.135.565-3.285.748-1.733.28-3.423.04-5.256.05v.005c.056.384.307.662.633.89l-.102-.006-.1.366c1.227.35 2.538.388 3.85.32.78-.02 1.492-.08 1.912-.152.03-.005.145-.04.186-.051.214-.03.442-.032.652-.063l-.353-.02c.135-.04.262-.071.441-.126.067-.01.141-.01.207-.02l-.11-.006c1.723-.544 4.813-1.776 4.04-2.754a.71.71 0 0 0-.623-.29zm16.1 2.572a.8.8 0 0 0-.192.018q-.222.046-.473.25c-.065.206-.006.584.102 1.015-.007-.011-.027-.034-.043-.055q.02.035.043.065c.08.316.232.676.379 1.053a23 23 0 0 1-.307-.395c.44.8.686 1.922 1.069 2.627.137.252 1.467 2.818 1.675 1.912v-.004c0-.009-.005-.024-.006-.033v-.002c.14.091.253.08.301-.133.011-.05-.014-.121-.017-.18.078.02.164.083.238.073 1.315-.14-.685-2.926-.99-3.613-.313-.704-.852-2.559-1.78-2.598m-.49 1.951a2.5 2.5 0 0 0-.432-.59 23 23 0 0 0 .431.59m22.888 2.967c.48.264.993.54 1.539.78-.161-.042-.356-.072-.475-.112-.336-.118-.694-.37-1.064-.668m-1.3 1.892v.002a.48.48 0 0 0-.157.258c-.045-.02-.097-.082-.139-.092a.46.46 0 0 0-.174.463c.615.942.862 1.656 1.725 2.381.91.77 1.964 1.267 2.988 1.85.81.463 1.503 1.283 2.309 1.664.895.42 2.037.391 2.99.748-.077-.118-.206-.203-.299-.31.167.04.34.06.5.115.11.136.226.27.31.42-.1-1.085.388-2.46.259-3.413-.194-1.384-1.964-2.876-3.428-2.847-1.69.03-1.974 1.665-3.725.92-1.05-.445-2.094-1.299-2.838-2.137.047.107.097.168.143.27-.163-.142-.325-.253-.465-.291m-18.429.399a1.5 1.5 0 0 0-.574.142c-.827 1.438-.868 3.218-1.615 4.76-.41.853-.821 1.932-1.375 2.686-.221.303-2.368 1.779-2.36 1.994v.002c.207 1.003 2.464-1.09 2.766-1.438.73-.845 1.127-1.812 1.494-2.88.396-1.15.637-1.866 1.381-2.786.393-.48 1.322-2.501.283-2.48m.059 2.295v.004l.002-.004zm0 .004a9 9 0 0 0-.463 1.113c.05-.32.118-.61.168-.947-.788 1.539-1.074 3.676-1.969 5.082-.308.487-1.305 1.524-2.18 2.037-.26.115-.504.177-.697.127-.01.07 0 .108-.004.164-.1.01-.206.029-.29.004-.114.75.22.606.617.283.353-.16.881-.72 1.146-.92.8-.605 1.451-.935 2.045-1.765 1.167-1.636 1.343-3.248 1.627-5.178m11.887 3.05c.026.02.049.052.074.083-.025-.03-.05-.051-.074-.082" style="display:inline;fill:#21b1ff;fill-opacity:1;stroke-width:25.6135"/>
        <path id="path2-16" d="M106.287 70.62a.95.95 0 0 0-.496.165c-1.28 1.528-1.84 3.295-1.819 5.305.002.16.027.51.041.795-.037.428-.084.853-.103 1.29-.03.715.538 4.615 1.416 3.577.195.002.41-.208.642-.807-.113-.03-.193-.101-.285-.152.164-1.823-.573-3.681-.484-5.584.15-.556.288-1.12.29-1.596.189-.545.435-1.042.796-1.642.24-.402.894-.34.521-1-.12-.21-.279-.325-.453-.35v.002zm-22.131 7.956c.077.207.177.41.258.615.876 3.146 2.53 5.808 4.091 8.692l3.87 7.135c.426.784.874 2.28 1.75 2.85-.496.52-2.061 2.42-1.47 3.243-.088.041-.174.073-.263.149a1 1 0 0 0-.295.168c-.14 1.014.026 2.158.637 3.011.272.382.521.805 1.031.907l-.002-.002-.002-.002h-.002v-.002h-.002v-.01l.002-.002.002-.002c.095-.088 1.36-.29 1.555-.27-1.3.518-2.32 1.545-2.334 3.08.004.134.278.982.605 1.043.03.005.037-.008.063-.006-.01.061-.04.127-.041.18h-.006c-.172.04-.387.226-.717.285a1 1 0 0 0-.19.04c.139-.15.245-.31.27-.485.187-1.333-4.698-.384-5.525.238.003.453.3.755.726.953-.16.01-.303.039-.468.049-.008.042-.014.092-.022.137-.094.005-.172.03-.267.03l-.122.69c1.093 0 2.167-.134 3.26-.101.733.02 2.376.488 2.865.117.04-.03.045-.083.079-.117.067-.02.164-.02.21-.051.107-.082.145-.194.21-.295-.028.698-.066 1.344.874 1.555.152.04 1.022-.135 1.614-.254-.083.04-.17.03-.248.101.029.356.438 1.461.968 2.424-.114-.072-.217-.157-.337-.22.02.16.098.3.142.453a4 4 0 0 0-.431-.282c.173 1.536 1.657 2.618 1.984 4.373q.48 2.541.95 5.088c.26 1.41.504 2.78.77 4.13l1.643-.95q-.395-2.172-.803-4.342c-.354-1.875-.45-5.331-1.896-6.931.04-.04.087-.04.127-.092.353-.477-1.06-3.587-2.38-3.834l.005-.002c.015-.003.053-.006.066-.008h.002c1.118-.536.287-1.076.758-1.733.33-.46.857-.544 1.428-.537-.215.102-.519.198-.633.29a.1.1 0 0 0-.01.038c-.074.042-.232.093-.283.133l-.348 1.46c1.273-.178 1.937-.819 2.987.198.529.51.809 1.535 1.115 2.164a57 57 0 0 1 1.785 4.067c.053-.208.1-.336.154-.5.045.112.096.219.141.332.178-.694.383-1.077.36-1.611.263.213.628.273 1.046.337.14.02 1.618-.174 2.03-.443.293.55-.697 1.249-1.245 1.39-.496.134-1.297-.192-1.48.083-.29.43.354 1.342.822 1.707a1 1 0 0 0-.41-.041c.05.07.08.137.125.205a1 1 0 0 0-.416-.041c.913 1.185 1.1 2.562 1.67 3.896.044.302.149.621.3.918l1.306-.754c-.875-.114-.318-1.354-.958-1.367-.047 0-.067.041-.109.041.215-.588.451-1.063-.21-1.88a3.7 3.7 0 0 0-.942-.815c.343.07.688-.02.994.152.09.051.915.689.9.686.522.162.377.582 1.053.437.34-.069.535-.93.648-.988l.002-.002h.004c.088-.02.171.021.258.031-.092.35-.233.95-.48 1.276-.415.02-1.457-.486-1.506-.032-.194-.005-.342.041-.305.258.111.677 1.123.687 1.826.23.6-.25 1.069-.811.897-1.593.44.264.787.799.857 1.379.024.197.038.352.04.474l1.677-.968a48.5 48.5 0 0 1-5.03-5.971c-.455-.643-3.12-4.644-4.767-5.973a.82.82 0 0 0 .44-.316 38 38 0 0 0-.158-.9l.193-.327c-.004.318 0 1.33-.01 1.332.88-.506 1.268-.276 2.16-.146.47.07 1.107.437 1.584.049a.76.76 0 0 0 .533-.389c.07-.117.063-.194.1-.295a5.6 5.6 0 0 0 .732 1.5c-.22-.22-.421-.386-.654-.625.456.795 1.072 2.03 1.738 2.645.783.72 2.183 1.061 3.13 1.593 2.311 1.305 4.723 2.392 7.056 3.684l.062.033 1.807-1.043c-2.442-1.628-5.175-2.693-7.867-3.804-1.493-.615-3.09-1.076-4.03-2.403-.475-.674-.622-2.263-1.132-3.021.165-.03.276-.042.496-.104 1.176-.33 2.84-.039 3.89-.584 1.676-.87.295-1.57-.931-1.596-.9-.02-3.678 1.127-3.797-.04-.083-.83 1.178-1.385 2.064-1.801-.603.39-1.17.845-1.78 1.3.593-.004 1.482-.354 2.27-.826.807-.433 1.557-1.01 1.829-1.543-.345.081-.661.2-.965.332.366-.225.705-.488.748-.828.086-.718-.549-1.023-1.139-.767a34 34 0 0 0-3.623 1.986c-.25.155-.352.269-.506.395.354-.37.109-.87-.308-1.332.138.03.286.04.42.004.006.124-.03.247-.004.37l.298-.46c.007.102-.022.195-.004.29.026-.04.239-.369.395-.605.484-.468.91-1.452 1.152-1.949.572-1.18.536-2.889-1.388-2.18v.004c-.66 1.258-1.11 2.547-1.686 3.824-.226-.146-.46-.293-.633-.351-1.176-.403-3.545.167-4.25-.46-.313-.276-.427-1.417-.732-1.827-.532-.712-1.141-.946-1.99-1.133a5.5 5.5 0 0 0-1.286-.14c-.508.01-.936.128-1.369.316-.11-.52-.583-1.06-1.027-1.791l-4.514-7.432c-1.647-2.712-3.23-5.686-5.343-8.1-.115-.265-.259-.519-.37-.785.053.204.134.39.194.59-.222-.246-.418-.52-.653-.754zm21.76 3.117c-.27 0-.512.06-.711.205-.043.13.013.332.117.565-.021.01-.045.01-.065.03.011.02.031.042.043.062a.44.44 0 0 0-.338.117c.568 1.089 1.355 1.673 2.05 2.637.787 1.097.68 1.484 2.302 1.21-.024-.05-.074-.09-.102-.134.134-.01.221-.004.391-.032-.03-.062-.084-.109-.121-.168.297.051.559.04.71-.167.882-1.183-2.38-4.318-4.276-4.32zm3.552 5.37c-.269-.001-.614.137-1.054.476-.47.756-.333 1.422-.05 2.07-.093 1.198-.19 2.396-.241 3.598-.021.504-.302 2.088.14 2.478.282.247.745.2 1.014-.048.279-.072.467-.29.463-.627.064.05.134.07.22.029.665-.338.234-3.582.31-4.377.08-.873.32-3.203-.558-3.555a.7.7 0 0 0-.244-.045m-40.496 6.095-.002.002c-1.065.02-2.422.285-1.693 1.184-.037.009-.081 0-.117.011.633.903 4.087 1.163 5.277 1.67 1.072.455 3.737 2.621 4.615 2.135-.05 0-.242-.11-.355-.16.259.061.493.079.654-.01-.033-.002-.177-.084-.232-.105.084-.02.179-.022.242-.073 1.323-1.05-2.1-2.757-2.813-3.123-1.474-.756-3.057-1.225-4.685-1.49a5 5 0 0 0-.89-.04m8.08 5.002.004-.002h-.002zm.565.19a1.3 1.3 0 0 0-.43.052c-.175.218-.262.485-.295.776l-.01-.04.028.383c.004.225.005.443.047.68.018.28.037.449.068.795-.134-.579-.274-1.195-.432-1.69.076.93.277 7.526 2.155 6.088.15-.05.302-.136.478-.31-.125-.104-.224-.237-.332-.36 1.032-.383.126-2.221-.016-3.21-.132-.935.02-2.964-1.117-3.15a1 1 0 0 0-.144-.014m37.205 1.406v.004c-1.077.05-1.99.293-1.612.994l.004.006c-.046.01-.1.02-.136.04.49 1.42 6.317 2.454 7.926 1.29.296-.135.528-.312.638-.541q-.232.043-.465.07c.232-.105.458-.192.711-.367-.518-1.377-3.352-1.266-4.455-1.39a17 17 0 0 0-2.611-.106m23.574.037c-.235.014-.47.188-.57.58-1.201 1.071-2.38 2.044-3.791 2.828-.546.304-5.143 1.925-5.407 1.774.159.265.446.403.778.486-.196.09-.411.146-.586.273l.002.002c.012.003.038 0 .053.002l.004.002c-.114.061-.247.092-.354.168.68.262 2.629-.212 3.434-.406.97-.237 1.907-.692 2.802-1.127.467-.226.988-.49 1.512-.78 1.381-.726 2.838-1.688 3.37-3.038-.112.07-.212.147-.321.22.007-.02.018-.028.025-.048-.166.108-.315.219-.478.33.36-.66.062-1.156-.31-1.252v.002a.5.5 0 0 0-.163-.016m-41.453.322c1.069.03 1.989.408 2.137 1.012-.838-.534-1.859-.975-2.817-.84.253-.08.52-.177.68-.172m-1.483.457.002.006-.052.031a2.1 2.1 0 0 0-.58.348 1.85 1.85 0 0 0 .1 1.238c-.284.821 1.397 1.842 2.08 1.842 1.01-.003 2.918-1.788 3.892-2.248.704-.333 3.418-.486 4.892-.039l-.019.004c-.273.072-.43.16-.54.262-1.115.445.22 1.422.765 1.886.06-.092.079-.207.13-.306.052.04.122.103.165.137a3.2 3.2 0 0 0 .437-1.014c0 .017.013.035.006.053a1.2 1.2 0 0 0 .43-.243c-.785.69-.33 1.078-.004 2.276.04.142.053.223.084.347-.142-.478-.39-.908-.616-1.021-.622-.308-2.315.262-2.998.568-.837.37-1.74.752-2.453 1.338-.733.604-1.067 1.216-1.98 1.58-1.161.463-1.88.408-2.766 1.475-.662.798-.939 2.008-1.795.664-.189-.3-.026-1.034-.267-1.272.043-.188.081-.382.152-.54.419-.937 1.272-1.97 1.195-3.034.035-.02.053-.03.084-.05h.01c1.5-.667.352-.702-.453-1.503-.397-.4-1.013-1.607-1.727-2.126.547-.136 1.2-.4 1.827-.659zm27.868.666v.004a1.3 1.3 0 0 0-.987.358c.005.122.08.278.17.437l-.338-.28c.213.37.538.742.85 1.112-.392-.323-.783-.647-1.145-.941 1.186 2.052 4.105 4.45 6.467 3.67-.135-.006-.265-.04-.398-.06.233-.022.468-.043.693-.118a5 5 0 0 1-.863-.121c1.082-.686-1-2-1.475-2.344-.747-.545-1.923-1.663-2.974-1.717m-24.696.95-.047.051c-.379.36-.704.556-1.005.639.105-.061.21-.112.314-.186a7 7 0 0 0 .738-.505m-18.554 2.915.002.01a1.5 1.5 0 0 0-.475.082 1 1 0 0 0-.064.653c-.094-.124-.21-.253-.284-.373-.066.178-.045.376.016.58-.106-.138-.23-.28-.31-.41-.71 1.894 6.466 5.532 7.656 4.486-.082.004-.177-.021-.262-.031.22-.02.435-.042.553-.149a3.6 3.6 0 0 1-.701-.06c1.828-.803-2.05-2.742-2.524-3.033-.88-.544-2.432-1.768-3.607-1.754zm35.298.155c-.285-.014-.529.081-.697.355-.043.26.242.7.67 1.196-.173-.12-.34-.26-.521-.342 1.287 2.229 3.468 4.027 5.945 4.746a.38.38 0 0 0 0-.295c.1.03.193.091.295.121.055-.122.019-.238-.047-.357.135-.004.256-.03.326-.106 1.05-1.14-2.114-2.724-2.812-3.266-.553-.432-2.016-1.87-3.034-2.039a1 1 0 0 0-.125-.013m-8.095.035c.114.487.21.85.332 1.062-.014.251.014.493.04.733-.46-.314-1.335-.332-2.175-.26.525-.17 1.268.136 1.67-.283.258-.268.25-.774.133-1.252m-3.22 1.603a.5.5 0 0 1 .302.079c-.201.042-.481.093-.58.127v.105c-.043.01-.123.02-.158.03.084-.119.175-.233.279-.292l.002-.002a.4.4 0 0 1 .154-.047m-22.745.633c.223.125.453.252.637.36.484.282 1.994 1.258 3.113 1.748-1.281-.422-2.616-1.227-3.75-2.108m20.682 2.393c.116.857.275 1.753.546 2.648-.328-.76-.414-1.64-.646-2.3-.062-.172-.06-.237-.08-.338.054-.01.13.007.18-.01m20.892.984c-.334-.01-.678.108-1.027.451.039.071.251.298.353.428a.4.4 0 0 0-.232.05c.029.052.09.102.121.153-.149-.05-.293-.06-.416.022.473.82 1.332 1.72 2.312 2.459l2.215-1.28c-.226-.16-.419-.285-.523-.353-.87-.561-1.8-1.879-2.803-1.922zm-30.039 1.043c-.26-.004-.557.004-.863.004h-.002c-1.258 0-2.393.126-3.608.475-.263.579-.058.91.36 1.1-.057-.008-.118-.01-.174-.02.223 1.093 1.563.826 2.375.795-.055-.071-.13-.102-.191-.158.163-.01.347 0 .486-.004-.194-.247-.441-.387-.701-.49 1.106-.123 2.283-.45 2.664-.796.85-.777.432-.895-.346-.906m2.055.6c-.23 0-.496.05-.822.158-.01.01-.098.103-.133.137-.06.02-.098.009-.162.029-.071.078-.845.847-.832.977l.002.006.002.002v.002h.002v.002h.002l.002.002c.328.162 1.175.25 1.93.236-.146.047-.334.184-.577.43-.69.647-2.518 2.496-2.064 3.597-.02.007-.058.01-.075.02-.37 1.225.933 1.172 1.518.668.27-.127.5-.31.559-.547.065-.266-.005-.415-.137-.506.129-.138.265-.26.373-.441v.168c.095-.124.19-.257.295-.381v.213c.36-.471.83-.93 1.117-1.444.135-.237.332-1.01.451-1.166-.125.122-.243.252-.367.377.024-.054.057-.167.08-.209-.31.3-.607.617-.906.93.18-.69.268-1.59-.076-1.715.407-.018.77-.069.986-.158-.022-.041-.042-.062-.063-.092.123-.02.274-.041.358-.072-.445-.764-.776-1.221-1.463-1.221zm-7.559 1.28a2 2 0 0 0-.164.01l.002-.005c-.885.102-1.197 1.29-1.697 1.863-1.168 1.338-2.59 2.31-3.697 3.74-.155.312.062.434.359.49h-.127c-.536.608.347.841.7.838.176 0 .396-.123.616-.275.47-.215 1.04-.772 1.207-1.09l-.023.014a2.8 2.8 0 0 0 .545-.56c.34-.453.61-.938.922-1.397a1.9 1.9 0 0 0 .646-.748c.528-.444 1.218-.848 1.4-1.565.207-.792.085-1.337-.689-1.316zm16.873 1.743c.06.051.133.093.196.149a.95.95 0 0 0 .263.441.9.9 0 0 1-.3-.148c-.005-.02 0-.03-.005-.05-.03-.13-.104-.26-.154-.39zm-5.613.637c.05.005.1.04.148.03.041.112.07.23.11.343-.077-.133-.173-.247-.258-.373m-6.914 3.676c-.603.54-.563 1.287-.39 2.064-.027-.05-.042-.101-.07-.146.253 1.222-.015 2.667.097 3.933.054.656.607 3.31 1.115 2.385.135.072.273-.07.406-.469.04.051.085.083.121.143.892-1.01.136-2.942.096-4.16-.05-1.478.66-3.383-1.375-3.75m18.164.03c.063.01.13 0 .19.02-.029.108-.054.21-.09.332a1.7 1.7 0 0 0-.1-.351M81 120.958q-.285.014-.668.127c-1.11.942-1.656 2.457-2.54 3.596-.717.918-1.011 1.455-.167 1.316-.047.03-.104.041-.149.072l.002.002v.002l.002.002v.002l.002.002.002.002.002.002v.004l.002.002c-.1.052-.216.083-.307.149.207.753.651.69 1.05.379.377-.13.767-.58.94-1.016-.141-.01-.278.031-.42.041 1.022-.458 1.792-1.303 2.575-2.322.806-1.054 1.004-2.436-.326-2.36zm28.822 1.697c-.236.063-.553.127-.781.229-.132.06-.18.21-.239.36zm-33.377 4.149c-.704.03-1.591.875-2.092 1.117-1.072.52-2.135.565-3.285.748-1.733.28-3.423.04-5.256.05v.005c.056.384.307.662.633.89l-.102-.006-.1.366c1.227.35 2.538.388 3.85.32.78-.02 1.492-.08 1.912-.152.03-.005.145-.04.186-.051.214-.03.442-.032.652-.063l-.353-.02c.135-.04.262-.071.441-.126.067-.01.141-.01.207-.02l-.11-.006c1.723-.544 4.813-1.776 4.04-2.754a.71.71 0 0 0-.623-.29zm16.078 2.572a1 1 0 0 0-.17.018q-.222.046-.473.25c-.065.206-.006.584.102 1.015-.007-.011-.027-.034-.043-.055q.02.035.043.065c.08.316.232.676.379 1.053a23 23 0 0 1-.307-.395c.209.38.374.833.531 1.28l1.614-.93v-.002c-.328-.832-.848-2.288-1.676-2.3m-.469 1.951a2.5 2.5 0 0 0-.431-.59 23 23 0 0 0 .431.59m-.115-.723" style="display:inline;fill:#ffd800;fill-opacity:1;stroke-width:25.6135"/>
        <path id="path3-8" d="M106.287 70.62a.95.95 0 0 0-.496.165c-1.28 1.528-1.84 3.295-1.819 5.305.002.16.027.51.041.795-.037.428-.084.853-.103 1.29-.03.715.538 4.615 1.416 3.577.195.002.41-.208.642-.807-.113-.03-.193-.101-.285-.152.164-1.823-.573-3.681-.484-5.584.15-.556.288-1.12.29-1.596.189-.545.435-1.042.796-1.642.24-.402.894-.34.521-1-.12-.21-.279-.325-.453-.35v.002zm-22.131 7.956c.077.207.177.41.258.615.876 3.146 2.53 5.808 4.091 8.692l3.87 7.135c.426.784.874 2.28 1.75 2.85-.496.52-2.061 2.42-1.47 3.243-.088.041-.174.073-.263.149a1 1 0 0 0-.295.168c-.082.593-.06 1.23.096 1.828L94.37 102c-.229-.3-.476-.58-.737-.77.547-.136 1.2-.4 1.826-.658l.002.006-.052.031a2.1 2.1 0 0 0-.58.348c-.076.286-.08.552-.036.797l2.463-1.422a2.9 2.9 0 0 0-.994-.045c.253-.08.52-.177.68-.172q.31.009.596.055l3.207-1.852c-.067-.207-.143-.392-.233-.513-.532-.712-1.141-.946-1.99-1.133a5.5 5.5 0 0 0-1.285-.14c-.508.01-.936.128-1.37.316-.11-.52-.583-1.06-1.027-1.791l-4.513-7.432c-1.647-2.712-3.231-5.686-5.344-8.1-.115-.265-.258-.519-.37-.785.054.204.134.39.194.59-.222-.246-.417-.52-.652-.754zm21.76 3.117c-.27 0-.512.06-.711.205-.043.13.013.332.117.565-.021.01-.045.01-.065.03.011.02.031.042.043.062a.44.44 0 0 0-.338.117c.568 1.089 1.355 1.673 2.05 2.637.787 1.097.68 1.484 2.302 1.21-.024-.05-.074-.09-.102-.134.134-.01.221-.004.391-.032-.03-.062-.084-.109-.121-.168.297.051.559.04.71-.167.882-1.183-2.38-4.318-4.276-4.32zm3.552 5.37c-.269-.001-.614.137-1.054.476-.47.756-.333 1.422-.05 2.07-.093 1.198-.19 2.396-.241 3.598-.008.189-.054.528-.082.9l2.29-1.322v-.002c-.023-.877-.096-1.757-.062-2.121.081-.873.32-3.203-.557-3.555a.7.7 0 0 0-.244-.045m-40.496 6.095-.002.002c-1.065.02-2.422.285-1.693 1.184-.037.009-.081 0-.117.011.633.903 4.087 1.163 5.277 1.67 1.072.455 3.737 2.621 4.615 2.135-.05 0-.242-.11-.355-.16.259.061.493.079.654-.01-.033-.002-.177-.084-.232-.105.084-.02.179-.022.242-.073 1.323-1.05-2.1-2.757-2.813-3.123-1.474-.756-3.057-1.225-4.685-1.49a5 5 0 0 0-.89-.04m8.08 5.002.004-.002h-.002zm.565.19a1.3 1.3 0 0 0-.43.052c-.175.218-.262.485-.295.776l-.01-.04.028.383c.004.225.005.443.047.68.018.28.037.449.068.795-.134-.579-.274-1.195-.432-1.69.076.93.277 7.526 2.155 6.088.15-.05.302-.136.478-.31-.125-.104-.224-.237-.332-.36 1.032-.383.126-2.221-.016-3.21-.132-.935.02-2.964-1.117-3.15a1 1 0 0 0-.144-.014m2.46 6.753.003.01a1.5 1.5 0 0 0-.475.082 1 1 0 0 0-.064.653c-.094-.124-.21-.253-.284-.373-.066.178-.045.376.016.58-.106-.138-.23-.28-.31-.41-.361.963 1.317 2.376 3.21 3.396l.73-.422a16 16 0 0 1-1.587-1.09c.223.125.453.252.637.36.208.121.606.37 1.082.654l1.789-1.031c-.524-.32-.993-.565-1.139-.654-.88-.544-2.432-1.768-3.607-1.754z" style="display:inline;fill:#ff218c;fill-opacity:1;stroke-width:25.6135"/>
    </g>
</svg>
