<svg xmlns="http://www.w3.org/2000/svg" xml:space="preserve" id="svg5" width="88.338" height="100" version="1.1">
    <g id="whiteBeetle" style="display:inline">
        <path id="path1-8" d="M44.07 5.005a10.383 10.205 89.999 0 0-4.768 1.38c-.78.459-30.074 17.41-30.94 18.12a10.398 10.22 89.999 0 0-3.82 8.135c.006.99-.293 35.028.016 36.515a10.428 10.25 89.999 0 0 4.851 6.848c.737.437 29.868 17.964 31.173 18.424a10.383 10.205 89.999 0 0 5.771.274 10.277 10.101 89.999 0 0 2.672-1.083c.778-.457 30.078-17.414 30.934-18.112a10.428 10.25 89.999 0 0 3.352-4.95 10.58 10.398 89.999 0 0 .485-3.201c-.005-.995.297-35.028-.02-36.534a10.353 10.175 89.999 0 0-2.745-5.154 10.58 10.398 89.999 0 0-2.099-1.66C78.2 23.572 49.054 6.036 47.76 5.58a10.383 10.205 89.999 0 0-3.69-.575" style="fill:#0038a8;fill-opacity:1;stroke-width:5.38047"/>
        <path id="path2-9" d="M44.07 5.005a10.383 10.205 89.999 0 0-4.768 1.38c-.78.459-30.074 17.41-30.94 18.12a10.398 10.22 89.999 0 0-3.82 8.135c.006.99-.293 35.028.016 36.515a10.428 10.25 89.999 0 0 4.851 6.848l2.934 1.76 71.566-41.318v-.001c-.019-3.107-.059-5.269-.134-5.624a10.353 10.175 89.999 0 0-2.744-5.153 10.58 10.398 89.999 0 0-2.099-1.66C78.2 23.572 49.054 6.036 47.76 5.58a10.383 10.205 89.999 0 0-3.69-.575" style="fill:#9b4f96;fill-opacity:1;stroke-width:5.38047"/>
        <path id="path3-27" d="M44.07 5.005a10.383 10.205 89.999 0 0-4.768 1.38c-.78.459-30.074 17.41-30.94 18.12a10.398 10.22 89.999 0 0-3.82 8.135c.004.76-.171 21.027-.113 31.053l71.677-41.382C68.614 17.815 48.82 5.954 47.759 5.58a10.383 10.205 89.999 0 0-3.69-.576" style="fill:#d60270;fill-opacity:1;stroke-width:5.38047"/>
        <path id="path41" d="m32.129 9.633-.037.004-.004.013c-.113.023-.239.13-.387.364-.295.467-.01 1.363-.045 1.894a6.6 6.6 0 0 1-.252 1.487 20 20 0 0 1-1.21 3.154 9 9 0 0 1-.503.93c-.027-.009-.035-.042-.054-.053h-.002l-.006-.002h-.006c-.12.002-.437.385-.566.736-.26.17-.512.346-.545.713-.067.82 1.165 1.223 1.724 1.586.304.2.888.452 1.072.812.228.452.024 1.026.194 1.51.267.79.959 1.265 1.742.826.551-.31 1.685-2.2 2.516-1.562.539.419-.275 1.54-.41 2.035-.309 1.154.123 2.133 1.345 1.346.408-.263 1.213-1.18 1.71-.93.762.387.196 2.393.228 3.041.012.316.225 1.28-.057 1.48-.424.297-.253-.169-.643-.32a.8.8 0 0 0-.375-.068h-.011c-.615.09-.424 1.339-.977 1.539-.09-.01-.18-.012-.287-.057-.223-.09-.693-.822-1.111-1.375-.057-.09-.113-.23-.164-.287-.034-.034-.102-.055-.147-.101-.022-.022-.034-.022-.056-.045-.301-.25-.702-.458-.82.144-.069.332.41.789.474 1.108.248 1.196-.483.692-1.094.256-.13-.14-.254-.214-.379-.235-.077-.043-.237-.172-.28-.176h-.001c-.595.102-.4.932-.416 1.493-.124.298-.333.38-.772-.055-.2-.505-.359-1.178-.691-1.272-.572-.164-.894 1.323-1.006 1.739-.384 1.4-.446.947-1.556.404-.068-.034-.167-.045-.247-.068-.034-.023-.055-.046-.101-.069-.575-.224-.656-.203-1.076-.68-.08-.09-.128-.138-.188-.208-.045-.388.39-.293.768-.405.71-.21.872-.524.742-.838.045-.034.056-.101-.057-.361-.216-.473-.51-.361-.86-.416-.022-.012-.044-.033-.067-.045-.224-.102-.305-.168-.452-.252-.158-.123-.303-.218-.48-.355-.575-.818 3.54-.712 2.322-2.13-.18-.21-.471-.332-.765-.45q-.172-.126-.346-.246c-.101-.068-.34-.18-.51-.282-.113-.156-.169-.354-.123-.63.115-.715 1.311-1.663 1.738-2.282.12-.176.233-.436.362-.674.277-.282.525-.598.486-.87-.045-.336-.27-.433-.531-.485-.045-.034-.047-.082-.104-.104-.212-.09-.518-.078-.83-.066-.637-.143-1.26-.322-1.908-.416-.818-.116-1.903-.046-2.602-.527-.145-.102-.517-.58-.882-1.018-.22-.4-.435-.794-.809-.988v.006c-1.517-.795-.63 1.925-.643 2.521-.034 1.57-.78 3.134-1.463 4.512-.512 1.038-.727 2.161-1.199 3.199-.315.69-.856 1.288-1.304 1.879-2.423-.995-2.642 1.547-1.416 2.912.034.114.12.2.246.252.266.225.56.41.923.496.688.163 1.091-.314 1.645-.379.266.18.62.363 1 .543.09.115.175.237.275.334.604.586 1.425 1.02 2.112 1.486 2.057 1.39 3.872 2.817 6.26 3.516.327.09 1.232.2 1.304.643.056.34-.665.51-.777.777-.295.723.813 1.415 1.24 1.838.9.89 1.006 1.285 1.445 2.44.212.56.77.839 1.006 1.322.182.37.16.47.024.59-.056-.01-.114-.022-.164-.004-.198.068-.229.187-.202.304-.469.336-.439.365.008.865.283.315.593.587.836.942.343.495 1.84 2.492.813 2.656-.49.08-.82-.226-1.135-.474l-.012-.004c-.374-.292-.725-.507-1.275.066-.142.148-.227.292-.326.422a.9.9 0 0 1-.276.193c-.034.023-.057.046-.09.057-.146.057-.279.057-.41.057a1.84 1.84 0 0 1-.838-.344c-.36-.34-.617-.866-.83-1.43-.155-.69-.227-1.456-.404-2-.183-.58-.322-1.429-.777-1.873-.251-.243-.94-.237-.926-.625.012-.535 1.234-1.076 1.43-1.627.09-.264.112-.392.056-.672-.176-.834-.988-1.793-1.451-2.504-.463-.714-1.457-2.931-2.248-1.525-.467.83-.724 2.32-.51 3.238.08.348.48.757.492 1.096.011.476-.258.406-.39.766-.067.19-.136.29-.176.515-.16.84.112 2.402.42 3.205.356.93 1.273 1.442 1.457 2.512.191 1.126-.574 2.265-.135 3.35.723 1.79 1.54-.09 2.574.13.52.113.728.681 1.147.977.436.31.947.592 1.398.883 1.697 1.09 3.934 1.27 4.92 3.258.607 1.223-.417 1.335-1.27.953a19 19 0 0 0-.77-.51c-.41-.373-.95-.87-1.294-.63-.53.37-.235 2.125-.666 2.784-.6.902-1.892 1.397-2.248 2.451-.243.72.2 1.173.205 1.86 0 .596-.15 1.03-.021 1.65.128.623.209 1.12.217 1.75.022 2.052.509 4.699-.371 6.64-.323.703-.72 1.15-.194 1.878.152.209.393.399.656.549.102.133.258.25.528.293a.86.86 0 0 0 .63-.118c.8-.204 1-1.084 1.077-1.894.009-.08.003-.18.006-.27a3 3 0 0 0 .068-.293c.034-.159.113-.455.068-.666.023-.079.011-.16.057-.228.28-.5.61-.49.525-1.094-.09-.615-.732-1.217-.918-1.855v-.004a1.06 1.06 0 0 1 .012-.65c.256-.73 1.178-.57 1.557-1.23.046-.08.022-.172.045-.255.48-.011.155-1.087-.069-1.82q-.069-.453-.164-.9c-.023-.4.01-.792-.035-1.194-.022-.256-.167-.515-.18-.762q.002-.195.057-.38c.255-.558.842-.988 1.543-.813.767.19.839 1.458.967 2.166.215 1.218.476 2.426.883 3.592.408 1.174 1.126 2.398.703 3.668-.2.59-.631 1.096-.867 1.671-.196.48-.117 1.118-.42 1.534-.272.37-.738.413-.914.912-.271.77.293.79-.35 1.392-.48.447-.668.35-.504 1.082.131.615.524 1.242.815 1.797.486.934 1.058 1.824 1.642 2.703.248.376.526.728.713 1.135.136.3.188.615.387.895.555.779.858.5 1.592.41.755-.102 1.994 1.114 2.601 1.521.823.547 1.623.926 2.102 1.825.34.63.697 3.047 1.879 1.837.303-.309.35-.766.326-1.246.068-.62.069-1.349.057-1.41-.187-1.042-.811-2.091-1.422-2.941-.978-1.358-2.73-2.119-3.551-3.524-.8-1.37-1.27-2.754-1.774-4.228-.068-.208-.184-.567-.375-.774.176-.198 1.079-.716 1.192-.724h.004c.29.023.952 1.16 1.176 1.379.894.887 1.762 1.84 2.765 2.603 2.193 1.662 5.066 2.787 7.746 3.307 1.278.246 2.615.372 3.897.129.902-.171 2.54-.056 3.248-.55.334-.232.461-.56.484-.925.068-.068.142-.115.2-.252.483-1.185-1.836-5.492-4.1-9.336-.35-.766-.691-1.537-1.05-2.299-.155-.33-2.025-3.407-1.589-3.767.423-.348 1.453 1.921 1.649 2.27.715 1.285 1.423 2.575 2.17 3.837 1.233 2.077 2.821 3.884 3.843 6.096.368.803.866 2.547 2.06 2.26.959-.233 1.88-1.902 2.358-2.668 1.038-1.674 1.997-3.1 2.469-5.057V73.7l.006-.017c.602-1.85.804-3.955.683-5.85-.08-1.194-.326-2.415-.63-3.604a21 21 0 0 0-.54-2.359 4 4 0 0 0-.173-.396c-.13-.527-.266-.897-.493-1.288.121.034.732.17.9.13.325-.09.676-.632.968-.62.503.022.74 1.134 1 1.502.505.72 1.228.572 1.867 1.102.716.59.824 1.5 1.379 2.164.592.703 1.583.727 2.418.918.148.034.275.056.414.09.247.15.518.226.691.166.426.079.858.13 1.352.09.847-.069 2.441-.256 2.533-.919.038.02.17.04.201.06l.002.001h.002v.002c.08-.12-.133-.356-.44-.621a2.5 2.5 0 0 0-.38-.38c-.651-.517-1.383-.757-2.006-1.352-.36-.34-.722-.67-1.102-.989-.768-.65-1.584-1.285-2.361-1.953-.73-.88-1.231-1.9-2.07-2.715-.884-.85-1.824-1.555-2.967-2.006-.81-.316-1.669-.729-2.55-.709-.976.023-1.898.36-2.769-.214-.463-.31-2.04-2.61-3.34-3.58v-.002c0-.01-.01-.023-.011-.032v-.002c.045-.44.868-.867 1.088-1.246.034-.056.045-.128.056-.193.258.068.333-.022.305-.45-.012-.185-.102-.354-.176-.527.034-.08.079-.146.18-.17.204-.045.787.288 1.066.291.426 0 .886-.154 1.27-.326.538-.236.818-.658 1.293-.222.32.296.618 1.251.889 1.68.368.586.54 1.362 1 1.882.452.504 1.233.763 1.836 1.018.62.264 1.192.548 1.779.884.55.315 1.384.524 1.82.995.443.478.429 1.306 1.264 1.363.324.022.632-.223.959-.246.38-.022.76.144 1.123.234.55.14 1.446.256 1.375-.59l-.002-.002v-.002c-.005-.01-.02-.03-.022-.04v-.007c.09-.19-.322-.817-.79-1.422-.024-.046-.08-.114-.09-.14-.16-.313-.472-.963-.795-1.111-.08-.034-.218-.024-.329-.024-.416-.234-.824-.165-1.271-.385-.203-.102-.381-.303-.564-.492-.13-.145-.265-.283-.399-.433l-.14-.141a9 9 0 0 0-.34-.402c-.99-1.07-1.975-2.086-3.077-3.032-1.154-.992-2.031-2.213-3.13-3.248-.515-.483-.695-.655-1.373-.543-.372.068-.495.296-.914.164-.26-.08-.524-.436-.784-.568-.93-.48-2.107-.929-2.662.023-.755 1.298-1.318 2.164-2.592 2.983-1.21.779-1.629 1.41-2.943.562-.23-.15-1.265-1.073-2.1-1.714-.09-.423-.034-.881.194-1.352.308-.623.882-.94.877-1.68-.001-.193-.102-.356-.17-.525.102-.448-.113-.947-.432-1.387.068-.6.845-.505 1.563-.889.235-.127.36-.267.496-.41h.002c.005 0 .025-.007.031-.007v.002h.002v-.006l-.002-.002-.002-.002-.002-.006v-.006c0-.01.121-.11.18-.213.128.12.303.29.355.3h.008l.154-.104c-.003 0-.185-.267-.249-.69.057-.502-.269-1.015-.532-1.657-.283-.699-.446-2.482-.994-2.937-.293-.246-.523-.145-.748-.057-.226-.034-.434-.046-.65-.205-.153-.269-.273-.803-.42-1.053-.667-1.13-1.493-2.164-2.36-3.142-.755-.855-1.346-1.823-2.117-2.662-.442-.483-1.154-1.506-1.474-.684-.36.923.715 2.918 1.058 3.768.255.635.118.827.131 1.474.003.195.033.34.078.461.113.378.59.912.906.996.66.767 1.248 2.22 1.352 3.158.102.886-.19 1.724.057 2.61.199.696.307.905.035 1.61-.204.51-.496.95-.739 1.437-.495.975-.322 1.568-1.328 2.119-.132-.97-.578-1.956-.965-2.89.007-.474-.045-.928-.38-1.247-.33-.312-.642-.28-.953-.205-.128-.007-.176-.045-.35-.045-.397-.004-.603.011-.873-.129-.205-.269-.6-.93-1.006-1.205.09-.485 1.591-1.434.291-1.72a.45.45 0 0 1-.326-.256c-.102-.377.102-.89.17-1.228.068-.19.15-.397.175-.557.12-.763.13-1.468.114-2.187 0-.034.008-.07.01-.104.09-2.504.08-4.986.363-7.486a39 39 0 0 0 .22-3.213c.024-.81.394-1.853.024-2.604-.057-.102-.14-.136-.205-.215a1 1 0 0 0-.28-.292c-.701-.472-1.744-.25-2.564-.51-1.606-.507-3.165-1.489-4.51-2.475-1.115-.81-2.13-1.746-3.084-2.736-.102-.102-.84-1.027-1.41-1.551-.133-.255-.27-.49-.447-.49m9.973 28.888q.105-.007.209.016l-.004.004c.32.067.722.505.802.813.16.599-.227.666-.742.818-.863.255-1.4.615-2.17 1.07-.848.5-1.72.747-2.627 1.082-1.183.444-2.21 1.234-3.365 1.697-.19.08-.397.068-.596.034-.023-.004-.045 0-.068-.006-.08-.022-.15-.078-.228-.115-.123-.068-.253-.133-.34-.264-.194-.302-.188-1.017-.352-1.424.524-.522 2.177-.663 2.645-.8 1.234-.369 2.361-.92 3.515-1.48.615-.303 1.26-.507 1.89-.779.399-.175.936-.636 1.43-.666m3.828 3.854a1 1 0 0 1 .246.016c.376.079.65.409.719 1.209.022.263-.067.495-.215.703-.243.18-.555.313-.85.52-.48.333-.952.665-1.428.99a24.5 24.5 0 0 1-2.959 1.671c-.08.034-.16.08-.24.118-1 .456-2.05.735-3.084 1.105-.643.227-1.268.45-1.93.158-.36-.156-1.183-.774-.976-1.281v-.006c.2-.487 2.62-1.149 3.03-1.34.918-.428 1.827-.868 2.75-1.287 1.058-.479 2.03-1.068 3.013-1.683.563-.352 1.324-.856 1.924-.893" style="display:inline;fill:none;fill-opacity:1;fill-rule:nonzero;stroke:#9a9a9a;stroke-width:2;stroke-linecap:round;stroke-linejoin:round;stroke-dasharray:none;stroke-opacity:1"/>
        <path id="path92" d="m32.129 9.633-.037.004-.004.013c-.113.023-.239.13-.387.364-.295.467-.01 1.363-.045 1.894a6.6 6.6 0 0 1-.252 1.487 20 20 0 0 1-1.21 3.154 9 9 0 0 1-.503.93c-.027-.009-.035-.042-.054-.053h-.002l-.006-.002h-.006c-.12.002-.437.385-.566.736-.26.17-.512.346-.545.713-.067.82 1.165 1.223 1.724 1.586.304.2.888.452 1.072.812.228.452.024 1.026.194 1.51.267.79.959 1.265 1.742.826.551-.31 1.685-2.2 2.516-1.562.539.419-.275 1.54-.41 2.035-.309 1.154.123 2.133 1.345 1.346.408-.263 1.213-1.18 1.71-.93.762.387.196 2.393.228 3.041.012.316.225 1.28-.057 1.48-.424.297-.253-.169-.643-.32a.8.8 0 0 0-.375-.068h-.011c-.615.09-.424 1.339-.977 1.539-.09-.01-.18-.012-.287-.057-.223-.09-.693-.822-1.111-1.375-.057-.09-.113-.23-.164-.287-.034-.034-.102-.055-.147-.101-.022-.022-.034-.022-.056-.045-.301-.25-.702-.458-.82.144-.069.332.41.789.474 1.108.248 1.196-.483.692-1.094.256-.13-.14-.254-.214-.379-.235-.077-.043-.237-.172-.28-.176h-.001c-.595.102-.4.932-.416 1.493-.124.298-.333.38-.772-.055-.2-.505-.359-1.178-.691-1.272-.572-.164-.894 1.323-1.006 1.739-.384 1.4-.446.947-1.556.404-.068-.034-.167-.045-.247-.068-.034-.023-.055-.046-.101-.069-.575-.224-.656-.203-1.076-.68-.08-.09-.128-.138-.188-.208-.045-.388.39-.293.768-.405.71-.21.872-.524.742-.838.045-.034.056-.101-.057-.361-.216-.473-.51-.361-.86-.416-.022-.012-.044-.033-.067-.045-.224-.102-.305-.168-.452-.252-.158-.123-.303-.218-.48-.355-.575-.818 3.54-.712 2.322-2.13-.18-.21-.471-.332-.765-.45q-.172-.126-.346-.246c-.101-.068-.34-.18-.51-.282-.113-.156-.169-.354-.123-.63.115-.715 1.311-1.663 1.738-2.282.12-.176.233-.436.362-.674.277-.282.525-.598.486-.87-.045-.336-.27-.433-.531-.485-.045-.034-.047-.082-.104-.104-.212-.09-.518-.078-.83-.066-.637-.143-1.26-.322-1.908-.416-.818-.116-1.903-.046-2.602-.527-.145-.102-.517-.58-.882-1.018-.22-.4-.435-.794-.809-.988v.006c-1.517-.795-.63 1.925-.643 2.521-.034 1.57-.78 3.134-1.463 4.512-.512 1.038-.727 2.161-1.199 3.199-.315.69-.856 1.288-1.304 1.879-2.423-.995-2.642 1.547-1.416 2.912.034.114.12.2.246.252.266.225.56.41.923.496.688.163 1.091-.314 1.645-.379.266.18.62.363 1 .543.09.115.175.237.275.334.604.586 1.425 1.02 2.112 1.486 2.057 1.39 3.872 2.817 6.26 3.516.327.09 1.232.2 1.304.643.056.34-.665.51-.777.777-.295.723.813 1.415 1.24 1.838.9.89 1.006 1.285 1.445 2.44.212.56.77.839 1.006 1.322.182.37.16.47.024.59-.056-.01-.114-.022-.164-.004-.198.068-.229.187-.202.304-.469.336-.439.365.008.865.283.315.593.587.836.942.343.495 1.84 2.492.813 2.656-.49.08-.82-.226-1.135-.474l-.012-.004c-.374-.292-.725-.507-1.275.066-.142.148-.227.292-.326.422a.9.9 0 0 1-.276.193c-.034.023-.057.046-.09.057-.146.057-.279.057-.41.057a1.84 1.84 0 0 1-.838-.344c-.36-.34-.617-.866-.83-1.43-.155-.69-.227-1.456-.404-2-.183-.58-.322-1.429-.777-1.873-.251-.243-.94-.237-.926-.625.012-.535 1.234-1.076 1.43-1.627.09-.264.112-.392.056-.672-.176-.834-.988-1.793-1.451-2.504-.463-.714-1.457-2.931-2.248-1.525-.467.83-.724 2.32-.51 3.238.08.348.48.757.492 1.096.011.476-.258.406-.39.766-.067.19-.136.29-.176.515-.16.84.112 2.402.42 3.205.356.93 1.273 1.442 1.457 2.512.191 1.126-.574 2.265-.135 3.35.723 1.79 1.54-.09 2.574.13.52.113.728.681 1.147.977.436.31.947.592 1.398.883 1.697 1.09 3.934 1.27 4.92 3.258.607 1.223-.417 1.335-1.27.953a19 19 0 0 0-.77-.51c-.41-.373-.95-.87-1.294-.63-.53.37-.235 2.125-.666 2.784-.6.902-1.892 1.397-2.248 2.451-.243.72.2 1.173.205 1.86 0 .596-.15 1.03-.021 1.65.128.623.209 1.12.217 1.75.022 2.052.509 4.699-.371 6.64-.323.703-.72 1.15-.194 1.878.152.209.393.399.656.549.102.133.258.25.528.293a.86.86 0 0 0 .63-.118c.8-.204 1-1.084 1.077-1.894.009-.08.003-.18.006-.27a3 3 0 0 0 .068-.293c.034-.159.113-.455.068-.666.023-.079.011-.16.057-.228.28-.5.61-.49.525-1.094-.09-.615-.732-1.217-.918-1.855v-.004a1.06 1.06 0 0 1 .012-.65c.256-.73 1.178-.57 1.557-1.23.046-.08.022-.172.045-.255.48-.011.155-1.087-.069-1.82q-.069-.453-.164-.9c-.023-.4.01-.792-.035-1.194-.022-.256-.167-.515-.18-.762q.002-.195.057-.38c.255-.558.842-.988 1.543-.813.767.19.839 1.458.967 2.166.215 1.218.476 2.426.883 3.592.408 1.174 1.126 2.398.703 3.668-.2.59-.631 1.096-.867 1.671-.196.48-.117 1.118-.42 1.534-.272.37-.738.413-.914.912-.271.77.293.79-.35 1.392-.48.447-.668.35-.504 1.082.131.615.524 1.242.815 1.797.486.934 1.058 1.824 1.642 2.703.248.376.526.728.713 1.135.136.3.188.615.387.895.555.779.858.5 1.592.41.755-.102 1.994 1.114 2.601 1.521.823.547 1.623.926 2.102 1.825.34.63.697 3.047 1.879 1.837.303-.309.35-.766.326-1.246.068-.62.069-1.349.057-1.41-.187-1.042-.811-2.091-1.422-2.941-.978-1.358-2.73-2.119-3.551-3.524-.8-1.37-1.27-2.754-1.774-4.228-.068-.208-.184-.567-.375-.774.176-.198 1.079-.716 1.192-.724h.004c.29.023.952 1.16 1.176 1.379.894.887 1.762 1.84 2.765 2.603 2.193 1.662 5.066 2.787 7.746 3.307 1.278.246 2.615.372 3.897.129.902-.171 2.54-.056 3.248-.55.334-.232.461-.56.484-.925.068-.068.142-.115.2-.252.483-1.185-1.836-5.492-4.1-9.336-.35-.766-.691-1.537-1.05-2.299-.155-.33-2.025-3.407-1.589-3.767.423-.348 1.453 1.921 1.649 2.27.715 1.285 1.423 2.575 2.17 3.837 1.233 2.077 2.821 3.884 3.843 6.096.368.803.866 2.547 2.06 2.26.959-.233 1.88-1.902 2.358-2.668 1.038-1.674 1.997-3.1 2.469-5.057V73.7l.006-.017c.602-1.85.804-3.955.683-5.85-.08-1.194-.326-2.415-.63-3.604a21 21 0 0 0-.54-2.359 4 4 0 0 0-.173-.396c-.13-.527-.266-.897-.493-1.288.121.034.732.17.9.13.325-.09.676-.632.968-.62.503.022.74 1.134 1 1.502.505.72 1.228.572 1.867 1.102.716.59.824 1.5 1.379 2.164.592.703 1.583.727 2.418.918.148.034.275.056.414.09.247.15.518.226.691.166.426.079.858.13 1.352.09.847-.069 2.441-.256 2.533-.919.038.02.17.04.201.06l.002.001h.002v.002c.08-.12-.133-.356-.44-.621a2.5 2.5 0 0 0-.38-.38c-.651-.517-1.383-.757-2.006-1.352-.36-.34-.722-.67-1.102-.989-.768-.65-1.584-1.285-2.361-1.953-.73-.88-1.231-1.9-2.07-2.715-.884-.85-1.824-1.555-2.967-2.006-.81-.316-1.669-.729-2.55-.709-.976.023-1.898.36-2.769-.214-.463-.31-2.04-2.61-3.34-3.58v-.002c0-.01-.01-.023-.011-.032v-.002c.045-.44.868-.867 1.088-1.246.034-.056.045-.128.056-.193.258.068.333-.022.305-.45-.012-.185-.102-.354-.176-.527.034-.08.079-.146.18-.17.204-.045.787.288 1.066.291.426 0 .886-.154 1.27-.326.538-.236.818-.658 1.293-.222.32.296.618 1.251.889 1.68.368.586.54 1.362 1 1.882.452.504 1.233.763 1.836 1.018.62.264 1.192.548 1.779.884.55.315 1.384.524 1.82.995.443.478.429 1.306 1.264 1.363.324.022.632-.223.959-.246.38-.022.76.144 1.123.234.55.14 1.446.256 1.375-.59l-.002-.002v-.002c-.005-.01-.02-.03-.022-.04v-.007c.09-.19-.322-.817-.79-1.422-.024-.046-.08-.114-.09-.14-.16-.313-.472-.963-.795-1.111-.08-.034-.218-.024-.329-.024-.416-.234-.824-.165-1.271-.385-.203-.102-.381-.303-.564-.492-.13-.145-.265-.283-.399-.433l-.14-.141a9 9 0 0 0-.34-.402c-.99-1.07-1.975-2.086-3.077-3.032-1.154-.992-2.031-2.213-3.13-3.248-.515-.483-.695-.655-1.373-.543-.372.068-.495.296-.914.164-.26-.08-.524-.436-.784-.568-.93-.48-2.107-.929-2.662.023-.755 1.298-1.318 2.164-2.592 2.983-1.21.779-1.629 1.41-2.943.562-.23-.15-1.265-1.073-2.1-1.714-.09-.423-.034-.881.194-1.352.308-.623.882-.94.877-1.68-.001-.193-.102-.356-.17-.525.102-.448-.113-.947-.432-1.387.068-.6.845-.505 1.563-.889.235-.127.36-.267.496-.41h.002c.005 0 .025-.007.031-.007v.002h.002v-.006l-.002-.002-.002-.002-.002-.006v-.006c0-.01.121-.11.18-.213.128.12.303.29.355.3h.008l.154-.104c-.003 0-.185-.267-.249-.69.057-.502-.269-1.015-.532-1.657-.283-.699-.446-2.482-.994-2.937-.293-.246-.523-.145-.748-.057-.226-.034-.434-.046-.65-.205-.153-.269-.273-.803-.42-1.053-.667-1.13-1.493-2.164-2.36-3.142-.755-.855-1.346-1.823-2.117-2.662-.442-.483-1.154-1.506-1.474-.684-.36.923.715 2.918 1.058 3.768.255.635.118.827.131 1.474.003.195.033.34.078.461.113.378.59.912.906.996.66.767 1.248 2.22 1.352 3.158.102.886-.19 1.724.057 2.61.199.696.307.905.035 1.61-.204.51-.496.95-.739 1.437-.495.975-.322 1.568-1.328 2.119-.132-.97-.578-1.956-.965-2.89.007-.474-.045-.928-.38-1.247-.33-.312-.642-.28-.953-.205-.128-.007-.176-.045-.35-.045-.397-.004-.603.011-.873-.129-.205-.269-.6-.93-1.006-1.205.09-.485 1.591-1.434.291-1.72a.45.45 0 0 1-.326-.256c-.102-.377.102-.89.17-1.228.068-.19.15-.397.175-.557.12-.763.13-1.468.114-2.187 0-.034.008-.07.01-.104.09-2.504.08-4.986.363-7.486a39 39 0 0 0 .22-3.213c.024-.81.394-1.853.024-2.604-.057-.102-.14-.136-.205-.215a1 1 0 0 0-.28-.292c-.701-.472-1.744-.25-2.564-.51-1.606-.507-3.165-1.489-4.51-2.475-1.115-.81-2.13-1.746-3.084-2.736-.102-.102-.84-1.027-1.41-1.551-.133-.255-.27-.49-.447-.49m9.973 28.888q.105-.007.209.016l-.004.004c.32.067.722.505.802.813.16.599-.227.666-.742.818-.863.255-1.4.615-2.17 1.07-.848.5-1.72.747-2.627 1.082-1.183.444-2.21 1.234-3.365 1.697-.19.08-.397.068-.596.034-.023-.004-.045 0-.068-.006-.08-.022-.15-.078-.228-.115-.123-.068-.253-.133-.34-.264-.194-.302-.188-1.017-.352-1.424.524-.522 2.177-.663 2.645-.8 1.234-.369 2.361-.92 3.515-1.48.615-.303 1.26-.507 1.89-.779.399-.175.936-.636 1.43-.666m3.828 3.854a1 1 0 0 1 .246.016c.376.079.65.409.719 1.209.022.263-.067.495-.215.703-.243.18-.555.313-.85.52-.48.333-.952.665-1.428.99a24.5 24.5 0 0 1-2.959 1.671c-.08.034-.16.08-.24.118-1 .456-2.05.735-3.084 1.105-.643.227-1.268.45-1.93.158-.36-.156-1.183-.774-.976-1.281v-.006c.2-.487 2.62-1.149 3.03-1.34.918-.428 1.827-.868 2.75-1.287 1.058-.479 2.03-1.068 3.013-1.683.563-.352 1.324-.856 1.924-.893" style="display:inline;fill:#000;fill-opacity:1;fill-rule:nonzero;stroke:none;stroke-width:2;stroke-linecap:round;stroke-linejoin:round;stroke-dasharray:none;stroke-opacity:1"/>
    </g>
</svg>
