<svg xmlns="http://www.w3.org/2000/svg" id="svg5" width="88.338" height="100" version="1.1">
    <g id="ant" transform="translate(-57.646 -60.289)">
        <path id="path19230-5" d="M112.563 72.099c-.359-.124-.858.087-1.024.441-.01.022-.003.055-.01.077-.14.137-.288.284-.442.611-.453.954-.357 1.782-.345 2.729.01 1.14-.114.654-.26 3.096-.12 1.998-.023 2.195-.131 4.528-.077 1.67-.113 2.503-.21 3.199-.274 2.036-.66 2.818-.35 4.24.147.665.296.803.26 1.29-.007.122-.054.225-.076.334-.165.044-.33.13-.3.16.098.087-.625 1.205-1.263 1.912-.098.11-.144.187-.214.278-.572.617-.792.88-1.081 1.211-.179.18-.238.278-.533.532-1.356 1.171-2.106 1.682-2.496 1.891-.316.167-.53.348-.736.504a4 4 0 0 1-.465.272c-.098.032-.197.065-.31.065-.11 0-.346-.087-.765-.379-.212-.233-.446-.565-.815-1.002-.344-.41-.907-1.061-1.642-1.653-.364-.29-.962-.766-1.874-1.11-.212-.076-.462-.17-.752-.243-.403-.163-.822-.31-1.347-.266-.453.033-.758.185-1.246.413q-.016.007-.033.022c-.11.044-.209.11-.316.17-.442.223-.854.47-1.15.934-.247.387-.437.846-.344.912.009.006.043-.044.065-.044-.065.178-.134.287-.192.622-.022.154-.099.607-.033 1.257.055.54.15.694.486 1.907.004.022.116.45.34 1.308.333 1.27.351 1.293.396 1.41-.055.176-.113.53-.362.9-.088.13-.224.182-.334.266-.11.077-.3.2-.425.295-.256.11-.546.193-.917.334-.592.228-.171.136-2.316 1.206-1.735.87-2.092.97-2.405 1.047a5.8 5.8 0 0 1-1.908.141c-.622-.066-1.036-.227-2.717-1.03-1.314-.63-1.677-.828-2.763-1.353-1.475-.712-1.573-.735-1.952-.928-.164-.077-.404-.208-.635-.323-1.149-.658-1.304-.925-2.411-1.478-.29-.147-.349-.159-2.157-.877-1.109-.53-1.437-.641-2.496-1.2-.658-.348-1.366-.584-2.004-.963-.534-.321-1.017-.664-1.534-.51a1 1 0 0 0-.249.125c-.033.009-.066-.007-.11.006-.316.11-.718.398-.73.765-.004.258.184.455.385.668.336.348.692.506.804.56l.13.066c1.687 1.753 4.386 2.647 5.927 3.193 2.079.738 3.49 1.426 6.323 2.813.087.044.076.044.152.088.113.066.148.11.311.198.077.044.252.11.311.136 3.073 1.586 3.582 2.18 4.93 2.327 2.705.295 5.129-1.09 6.46-2.067.516-.187 1.038-.364 1.545-.577.95-.393 1.301-.615 1.726-.452.38.139.603.49.85.877.242.383.43.673.35.963-.088.336-.488.468-1.099.708-.65.254-1.27.576-1.919.827-.61.239-1.577.625-2.643 1.12a38 38 0 0 0-1.857.935c-.955.51-1.245.695-1.42.815-.077.022-.128.066-.21.077-.174.021-.326.021-.493.135-.197.134-.346.391-.396.663-.088.088-.182.161-.261.26-.445.565-.397.882-.849 2.203-.34.989-.36.798-.9 2.236-.623 1.642-.496 1.635-.867 2.411-.584 1.225-.862 1.163-1.353 2.287-.055.137-.055.185-.087.295-.334.656-.432 1.46-.946 2.592-.556 1.221-.93 1.31-1.46 2.751-.162.444-.29.9-.329 1.178-.077.204-.098.32-.26.65-.244.491-.542 1.018-.658 1.818-.124.857.088 1.18.21 1.319.043.043.312.327.656.305.313-.022.556-.292.973-1.042a14 14 0 0 0 .781-1.613c.534-1.314.727-1.261 1.28-2.525.452-1.024.327-1.063.86-2.547.181-.51.247-.637 1.302-3.08.758-1.75 1.136-2.631 1.375-3.192.387-.911.795-1.813 1.166-2.728l.006-.006c.169-.356.333-.704.402-1.014.153-.38.264-.62.436-.838.371-.46 1.028-.827 2.326-1.545.55-.301 1.196-.66 2.112-1.081 1.178-.545 1.081-.413 2.202-.935 1.113-.518 1.34-.715 1.947-.78.309-.033 1.019-.111 1.664.271.453.27.454.522 1.212 1.63.61.893.92 1.345 1.438 1.778.273.223.755.576 1.273.9.044.022.099.077.147.099.473.602.674 1.112 1.087 1.149.022.002.043-.022.076-.022.022.066.055.122.055.18-.055.371-.769.43-1.545.753-.433.182-.574.317-2.417 1.874a606 606 0 0 1-1.789 1.517c-1.855 1.507-2.118 1.487-2.632 2.202-.669.931-.878 1.88-.974 2.344-.213 1.004-.033 1.277-.099 2.796-.033.772-.076.654-.373 3.023-.274 2.202-.231 2.259-.425 3.538-.24 1.569-.314 1.52-.476 2.734-.209 1.592-.065 1.525-.271 3.442-.217 2.032-.331 3.05-.47 3.696-.066.27-.182.807-.147 1.523.022.606.066 1.444.668 1.873.033.022.562.388 1.076.199.541-.198.722-.873.849-1.376.066-.228.066-.403.076-.588.044-.123.1-.285.113-.317.344-1.074.248-1.829.256-2.78.003-.54.032-.207.345-2.994.131-1.201.118-1.204.3-2.966.336-3.223.358-3.031.396-3.793.099-1.912-.098-1.965.044-3.6.066-.746.163-1.313.238-1.777.076-.249.136-.479.221-.753.402-1.32.615-1.753.877-2.15.24-.36.504-.669 1.455-1.524a48 48 0 0 1 2.627-2.201c1.113-.87 1.756-1.374 2.649-1.942l1.302-.82c.22.065.503.182.588.418.135.382-.347.78-.668 1.341-.298.53-.325 1.097-.368 2.202-.044.997-.088 2.253.232 3.969.34 1.777.893 3.025 1.46 4.296.561 1.264 1.51 3.36 3.391 5.644 1.125 1.368 2.05 2.151 3.159 3.102 1.155.981 1.755 1.351 2.485 1.58.479.15 1.22.376 2.174.321.958-.055 1.483-.358 2.043-.01.329.2.343.419.787.639a2.07 2.07 0 0 0 1.07.204c.243-.022.91-.077 1.245-.583.236-.356.199-.762.176-.99-.055-.56-.292-.656-.272-1.07.011-.348.196-.52.52-.99 0 0 .38-.546.844-1.512.332-.7.426-1.285.538-2.027.282-1.827.087-3.372.006-3.905-.306-2.099-1-3.552-1.834-5.31-.055-.126-.11-.19-.17-.311-.055-.11-.077-.183-.136-.306-.033-.066-.174-.253-.198-.295-.996-1.898-1.937-3.307-2.214-3.68-1.12-1.514-2.143-2.872-3.94-4.097-1.831-1.249-3.19-1.491-3.707-1.557-.626-.077-1.508.329-1.732-.022-.135-.22.043-.559.098-.668.263-.51.771-.705 1.2-.894 1.24-.555.9-.687 2.151-1.251.789-.356.85-.269 2.395-.833 1.426-.517 1.238-.536 1.794-.69.479-.132 1.922-.532 3.499-.1.386.11.146.088 2.349 1.11.676.312.734.325 1.862.844 1.167.533 1.759.808 2.157 1.013 1.155.596 1.146.718 2.066 1.206 1.252.66 1.492.554 3.215 1.296 1.14.49.866.462 2.763 1.347 0 0 1.018.472 3.368 1.206.43.131.999.298 1.624.087.152-.054.784-.276.957-.832.2-.638-.346-1.272-.481-1.426-.53-.615-1.132-.692-2.19-1.07-.523-.187-1.074-.474-1.484-.685-.246-.14-.334-.235-.742-.413-.475-.208-.955-.36-1.268-.46-.725-.311-1.4-.618-2.422-.979-.13-.043-.359-.112-.46-.146-.163-.066-.273-.116-.526-.215-.962-.375-1.703-.62-2.881-1.002-1.91-.623-2.11-.62-2.814-.98a14 14 0 0 1-1.755-1.086c-.819-.607-.92-.833-1.585-1.234-.293-.182-.972-.593-1.811-.747-.367-.066-.977-.124-2.91.452-.626.19-.986.314-3.385 1.234-1.603.615-2.41.924-2.541 1.008-.908.591-1.442 1.256-2.327 1.194-.159-.01-.495-.043-.77-.271-.088-.077-.113-.203-.164-.3a21 21 0 0 1-.266-.781c-.033-.18-.055-.314-.11-.555-.077-.332-.221-.753-.515-1.596-.32-.941-.484-1.398-.617-1.67-.139-.495-.207-.827-.17-1.12.077-.623.37-1.059.651-1.473.337-.487.685-.819 1.914-1.788 1.252-.986 1.14-.838 1.805-1.387 1.295-1.066 1.386-1.357 2.151-1.721.754-.355 1.428-.437 1.784-.48.576-.067.878-.012 2.343.152 2.191.259 1.947.192 2.785.312 1.46.204 1.428.276 2.576.43 1.356.19 1.507.11 3.311.277.634.066 1.81.178 3.317.413 1.16.182 2.341.212 3.504.374.279.044.958.137 1.58-.227.162-.099.507-.308.622-.702.151-.537-.222-1.027-.334-1.178-.185-.24-.424-.395-.691-.532-.066-.033-.12-.055-.187-.088-.076-.032-.144-.076-.232-.112a7.4 7.4 0 0 0-2.31-.442c-2.527-.152-1.878-.211-3.362-.255-1.747-.044-1.734.055-3.164-.022-.708-.033-1.463-.11-2.966-.266-1.41-.151-2.13-.233-2.814-.368-.184-.033-.734-.164-1.104-.249-.59-.2-1.038-.379-1.754-.504-.642-.11-.98-.163-1.433-.087-.402.065-.602.186-1.8.877-1.371.792-1.257.716-1.454.844-.66.425-1.098.776-1.829 1.364-.847.68-1.27 1.02-1.811 1.556-.367.364-.659.69-1.33 1.33-.734.704-1.017.914-1.376.895-.158-.004-.285-.077-.413-.147a5 5 0 0 1-.215-.442c-.111-.26-.232-.547-.209-.838.044-.634.767-.981 1.528-1.5.19-.131.85-.734 2.168-1.936.661-.607 1.256-1.21 2.435-2.428.788-.812 1.098-1.162 1.245-1.75.135-.533-.002-.733.175-1.471.022-.088.055-.117.077-.193.258-.033.504-.17.634-.368.248-.378.077-.825-.077-1.596a3 3 0 0 0-.054-.46c-.033-.29-.055-.652-.099-1.51-.055-1.245-.077-1.867.006-2.56.066-.54.13-.658.164-1.222.006-.099-.002-.126 0-.204.269-2.021.43-2.92.504-3.99.055-.858.044-1.194.033-1.552.011-.3.033-.588.088-1.16.065-.708.148-1.374.209-1.857.135-1.109.172-1.258.153-1.675a7 7 0 0 0-.209-1.121 3 3 0 0 0-.077-.283c-.01-.043-.01-.065-.032-.11-.21-.583-.321-.91-.635-1.018zm-28.326 3.306a.53.53 0 0 0-.3.146c-.196.2-.232.567-.136.833.11.292.45.447 1.235.9.176.194.288.325.446.34.022.002.033-.022.066-.033.286.183.446.309.43.413-.021.131-.214.158-.723.413-.055.033-.422.219-.77.447-.588.387-.631.565-.844.554-.178-.01-.338-.159-.47-.35l-.033-.066c-.065-.157-.12-.396-.203-.77.01-.428.181-.746-.011-1.132-.011-.022-.237-.444-.538-.447-.607-.011-.993 1.365-1.229 2.185v.005c-.223.79-.065 1.29.011 1.874.077.572.287 1.001.578 1.585.247.51.373.76.64.996.417.363.395.55.48.82.088.297-.224.588-.527.99-.49.65-.683 1.238-.922 1.965a6.2 6.2 0 0 0-.232 2.672c.065.513.162 1.292.656 2.088.758 1.228 1.829 1.543 1.794 1.92-.128.009-.43.032-.877.098-.618.098-1.07.299-1.574.543a13 13 0 0 0-1.534.413c-.974.336-.694.446-2.626 1.381-.387.187-1.05.497-1.846 1.064-.672.479-.897.76-.95 1.098a1.19 1.19 0 0 0 .412 1.058c.286.232.647.26.99.21.364.11.8.227 1.025-.022a.6.6 0 0 0 .125-.385c.4-.208.694-.455 1.222-.854.526-.398 1.11-.726 2.282-1.387 1.097-.616 1.73-.93 2.332-1.098.364-.077.726-.155 1.092-.16a5 5 0 0 1 .617.034c.065.01.136.022.203.044.226.043.457.123.685.266.022.01.044.033.066.044.314.22.435.41.684.594.174.15.369.288.674.38.356.098.703.076 1.387.021a9 9 0 0 0 1.964-.384c.974-.305.893-.456 2.021-.889 1.457-.564 1.691-.357 2.31-.86.44-.359.444-.56 1.132-1.132.32-.262.572-.423 1.07-.752 1.04-.68 1.064-.584 1.511-.94.044-.033.088-.099.125-.13.365-.176.67-.384.697-.674.002-.022-.01-.033-.01-.055.155-.176.25-.239.464-.493.579-.683.661-.873.707-1.024.158-.48.099-.943.055-1.33-.044-.36-.088-.362-.193-1.053-.066-.4-.066-.474-.125-.679-.143-.483-.303-.533-.31-.781-.009-.309.233-.467.639-.911.576-.634.424-.672.934-1.229.243-.266.697-.759 1.342-1.115.01-.006.022-.005.033-.011-.011.022-.099.066-.099.088.044.114.552.054.889-.033a2.9 2.9 0 0 0 1.2-.617c1.268-.368 1.982-.767 2.422-1.098.792-.592.818-.948.81-1.087-.022-.35-.282-.57-.413-.668-.022-.033-.01-.066-.033-.088-.301-.387-.869-.35-1.008-.34-.39.023-.688.209-.997.448-.405.201-.813.473-1.437.911-.499.35-1.086.711-2.072 1.325-.587.254-1.07.488-1.427.872-.389.235-.615.392-.82.64-.367.443-.551.853-.76 1.07-.123.087-.156.087-.237.135-.022.006-.044.033-.077.033-.197 0-.336-.152-.73-.673-.885-1.172-.927-1.403-1.302-1.778-.217-.212-.686-.453-1.625-.917-.087-.044-.11-.044-.186-.077-.088-.054-.17-.155-.266-.209a6 6 0 0 0-1.597-.628c-.032-.009-.11-.011-.146-.022-.808-.246-1.255-.367-1.727-.283-.155.022-.291.066-.413.088-.077-.022-.322-.134-.702-.51-.055-.15-.099-.317-.193-.538-.25-.58-.588-.944-1.013-1.403-.259-.279-.575-.616-1.092-.94-.055-.033-.11-.033-.16-.066-.126-.131-.329-.372-.451-.447-.17-.11-.657-.394-1.24-.328-.088.01-.168.043-.249.065-.39-.11-.764-.195-.996-.153zm7.24 6.685c.51.01.865.227 1.665.752.839.55 1.257.825 1.466 1.003.36.298.703.67 1.364 1.404a.5.5 0 0 1 .066.076c.305.432.6.83.684 1.058.077.203.162.4.295.533-.022.066-.099.19-.147.294-.242.088-.393.177-.82.267-.607.123-1.013.204-1.596.237-.435.022-.718.022-.957-.022a.7.7 0 0 0-.087-.146c-.175-.11-.158-.21-.447-.77-.314-.607-.375-.554-.595-1.025-.232-.494-.172-.56-.408-1.063-.158-.34-.199-.349-.532-.928-.715-1.24-.646-1.423-.6-1.5.12-.185.448-.174.657-.17zM84.6 85.713c.24.281.575.678.996 1.138.652.71.876.893 1.313 1.437.503.623.751 1.054.872 1.274.293.532.46.854.475 1.302.011.356-.077.606-.248 1.104-.11.304-.2.523-.3.707-.312.259-.523.509-.828.674-.137.044-.268.066-.357.088a3 3 0 0 1-.357.055c-.13-.007-.262-.008-.402-.077-.347-.167-.426-.458-.78-1.15-.527-1.008-.609-.862-.918-1.573-.01-.033-.033-.088-.044-.12a7.4 7.4 0 0 1-.226-1.03 9.4 9.4 0 0 1-.066-1.54c.004-.255.01-.423.022-.606.156-.326.333-.533.418-1.018.011-.088.011-.174.022-.266a2.3 2.3 0 0 1 .408-.397zM94.97 96.87c.202.022.345.088.374.098.51.22.685.725.956 1.297.197.413.668 1.088 1.608 2.428.444.638.845 1.132 1.641 2.129.715.896 1.074 1.345 1.545 1.85.878.936.982.864 1.472 1.478.576.715.478.867 1.274 2.208.734 1.236.906 1.254 1.528 2.406.174.316.488.92.793 1.732.228.599.973 2.328.838 2.394-.005.003-.087-.098-.098-.11-.088-.189-.189-.335-.295-.605-.217-.541-.249-.736-.441-1.296-.099-.267-.31-.89-.612-1.512a10 10 0 0 0-1.454-2.157c-.448-.525-.354-.316-1.263-1.29-.316-.34-.609-.667-1.103-1.019-.269-.19-.434-.248-.6-.311-.023-.011-.034-.022-.056-.033-.155-.055-.265-.077-.35-.066-.132-.033-.248-.098-.397-.076-.076.008-.554.087-.82.475-.278.41-.165.9-.055 1.33.182.73.513 1.201.85 1.704.737 1.101 1.11 1.65 1.318 2.044.777 1.457.59 1.452 1.296 2.604.178.288.31.474.47.713-.43-.315-.909-.67-1.115-.826a8.6 8.6 0 0 1-1.41-1.365c-.548-.68-.833-1.279-1.25-2.168-.279-.579-.466-.973-.64-1.545-.294-.974-.18-1.219-.436-2.281-.193-.804-.27-.703-.656-1.947-.453-1.442-.33-1.5-.697-2.548-.197-.564-.126-.25-1.019-2.31 0 0-.332-.754-.888-1.709-.14-.24-.412-.694-.945-1.008-.168-.098-.376-.202-.544-.164.077-.12.214-.311.476-.441.255-.127.511-.134.713-.11zm-1.42 1.45c.002.117-.007.188 0 .333.021.576.032.862.13 1.217.116.406.219.488.616 1.246.426.811.42.898.606 1.268-.436-.693-.624-.91-.883-1.427-.212-.433-.386-.789-.475-1.302-.077-.445-.055-.78-.022-1.217.006-.077.022-.055.033-.12zm16.415 22.093c.458-.001 1.003.076 1.529.373.313.17.68.453 1.46 1.693.77 1.221 1.032 1.93 1.5 2.83.893 1.74 1.114 1.437 2.157 3.272 1.426 2.504.963 2.984 2.01 3.838.47.382 1.247.841 1.862 1.8.22.344.374.676.413 1.07.033.293-.033.57-.125.923a1 1 0 0 0-.227.065c-.364.193-.396.398-.849.855-.263.27-.479.43-.804.673-.332.244-.757.561-1.375.844-.437.2-.75.35-1.217.396-.329.033-.583.002-1.07-.054-.476-.055-.717-.088-.894-.21-.395-.255-.517-.7-.572-.905-.099-.344-.055-.536-.044-1.059.008-.24.022-.975-.066-1.624a6 6 0 0 0-.43-1.563c-.077-.174-.331-.77-.85-1.471-.404-.55-.586-.63-1.12-1.217-.34-.372-.723-.91-1.5-1.976-.789-1.09-.678-.975-1.381-1.942-.87-1.19-.924-1.193-1.121-1.579-.433-.847-.485-1.437-.787-1.46-.293-.022-.55.501-.64.679a2.1 2.1 0 0 0-.214.849c-.011.247.01.447.033.549.055.308.211.628.52 1.25.228.46.396.806.674 1.269.394.645.74 1.09 1.115 1.573.6.766.727.86 1.002 1.206-.369-.38-.778-.764-1.608-1.743-1.383-1.635-1.574-2.244-1.635-2.48-.165-.6-.148-1.124-.099-1.625.022-.232.033-.468.066-.684a7 7 0 0 1 .832-2.468c.174-.301.311-.538.567-.804.7-.739 1.558-.937 1.879-1.014a4.3 4.3 0 0 1 1.008-.13zm.515 1.194c-.18-.01-.315 0-.362.006-.236.033-.425.126-.804.311-.326.16-.484.241-.538.357a.5.5 0 0 0-.222.066c-.127.099-.193.299-.164.781.066.963.444 1.685.629 2.032.355.684.698 1.373 1.053 2.06.903 1.736.624 1.831 1.358 3.188.228.421.82 1.197 1.998 2.75.256.333.98 1.267 2.078 1.812.2.099.49.225.752.113.355-.15.502-.687.493-1.144.007.002.044.055.044.055.099-.044-.159-.758-.402-1.681-.348-1.337-.206-1.375-.452-2.225-.193-.665-.559-1.334-1.285-2.671a49 49 0 0 0-1.234-2.135c-1.43-2.38-1.29-1.805-1.568-2.45-.155-.36-.316-.811-.765-1.059a1.5 1.5 0 0 0-.611-.17z" style="fill:#3574a5;fill-opacity:1;fill-rule:nonzero;stroke:none;stroke-width:3.86436"/>
    </g>
</svg>
