<svg xmlns="http://www.w3.org/2000/svg" id="svg5" width="88.338" height="100" version="1.1">
    <g id="beetle" transform="translate(-57.646 -60.289)">
        <path id="path26210-2" d="M89.733 69.94c-.113.023-.238.13-.386.363-.295.467-.01 1.364-.045 1.895a6.6 6.6 0 0 1-.251 1.486c-.3 1.07-.732 2.152-1.211 3.154a9 9 0 0 1-.503.93c-.034-.01-.034-.056-.068-.056-.12.002-.438.386-.567.737-.26.17-.512.347-.545.714-.067.82 1.167 1.222 1.726 1.585.304.2.887.453 1.071.813.228.452.023 1.026.193 1.51.267.789.96 1.264 1.743.825.551-.311 1.685-2.2 2.516-1.562.539.419-.274 1.541-.41 2.036-.308 1.154.123 2.132 1.345 1.345.408-.263 1.213-1.181 1.709-.93.763.387.196 2.394.228 3.042.012.316.226 1.28-.056 1.48-.424.296-.253-.17-.643-.321a.8.8 0 0 0-.375-.068h-.011c-.615.09-.424 1.338-.977 1.538-.09-.009-.181-.011-.287-.056-.223-.09-.693-.822-1.111-1.375-.057-.09-.114-.23-.165-.287-.034-.034-.101-.056-.146-.102-.022-.022-.034-.022-.056-.045-.301-.249-.701-.456-.82.146-.068.332.411.787.474 1.106.248 1.196-.482.693-1.093.257-.13-.14-.255-.213-.38-.234-.08-.045-.246-.181-.281-.176-.595.102-.4.931-.416 1.492-.124.298-.333.38-.772-.056-.2-.505-.358-1.176-.69-1.27-.572-.164-.895 1.322-1.007 1.738-.384 1.401-.446.947-1.556.404-.068-.034-.166-.045-.246-.068-.034-.023-.056-.045-.102-.068-.575-.224-.656-.204-1.076-.68-.08-.09-.127-.14-.187-.21-.045-.388.388-.292.766-.404.711-.21.873-.523.743-.837.045-.034.057-.102-.056-.362-.216-.473-.511-.36-.86-.415-.023-.012-.046-.034-.069-.046-.224-.102-.303-.167-.45-.251-.158-.123-.303-.22-.48-.357-.575-.818 3.54-.712 2.322-2.129-.18-.21-.472-.332-.766-.45a18 18 0 0 0-.346-.246c-.101-.068-.34-.18-.509-.281-.113-.156-.169-.355-.123-.632.115-.714 1.31-1.662 1.737-2.281.12-.176.233-.435.362-.673.277-.282.525-.599.486-.872-.045-.335-.27-.433-.532-.485-.045-.034-.045-.08-.102-.102-.212-.09-.518-.08-.83-.068-.637-.143-1.26-.321-1.908-.415-.818-.116-1.904-.046-2.603-.527-.145-.102-.518-.58-.883-1.018-.22-.4-.434-.794-.808-.988v.006c-1.517-.795-.63 1.926-.643 2.522-.034 1.57-.78 3.132-1.462 4.51-.512 1.038-.728 2.162-1.2 3.2-.315.69-.856 1.287-1.304 1.878-2.423-.995-2.642 1.548-1.416 2.913.034.114.12.2.246.252.266.225.561.41.924.497.688.163 1.09-.315 1.644-.38.266.18.62.364 1 .544.09.115.175.236.275.333.604.586 1.425 1.019 2.112 1.486 2.057 1.39 3.872 2.817 6.26 3.516.327.09 1.233.2 1.305.643.056.34-.666.51-.778.777-.295.723.813 1.414 1.24 1.837.9.891 1.006 1.286 1.445 2.44.212.56.771.839 1.007 1.322.182.371.158.471.022.591-.056-.009-.114-.023-.164-.005-.198.068-.227.188-.2.305-.469.336-.44.366.007.866.283.315.593.586.836.941.343.495 1.84 2.492.813 2.656-.49.08-.82-.226-1.135-.474l-.011-.005c-.374-.292-.726-.505-1.276.068-.142.148-.228.291-.327.421a.9.9 0 0 1-.275.194c-.034.023-.057.045-.09.056-.146.057-.279.057-.41.057a1.84 1.84 0 0 1-.837-.345c-.36-.34-.617-.864-.83-1.428-.155-.69-.228-1.456-.405-2-.183-.58-.323-1.429-.778-1.873-.251-.243-.937-.238-.924-.626.012-.535 1.232-1.075 1.428-1.626.09-.264.113-.393.057-.673-.176-.834-.988-1.793-1.451-2.504-.463-.714-1.456-2.932-2.247-1.526-.467.83-.724 2.322-.51 3.24.08.348.48.755.492 1.094.011.476-.26.407-.392.767-.067.19-.135.29-.175.515-.16.839.113 2.403.421 3.206.356.93 1.273 1.44 1.457 2.51.191 1.126-.574 2.266-.135 3.351.723 1.79 1.54-.09 2.574.13.52.113.728.681 1.147.977.436.31.947.592 1.398.883 1.697 1.09 3.934 1.27 4.92 3.258.607 1.223-.418 1.335-1.27.953q-.373-.26-.772-.51c-.41-.373-.948-.869-1.292-.63-.531.37-.236 2.125-.667 2.784-.6.902-1.891 1.397-2.247 2.451-.243.719.2 1.173.205 1.86 0 .596-.151 1.03-.022 1.65.128.623.208 1.119.216 1.75.022 2.052.51 4.698-.37 6.64-.323.702-.72 1.15-.193 1.877.152.209.393.4.656.55.102.133.256.25.526.293a.86.86 0 0 0 .632-.117c.8-.204 1-1.086 1.076-1.896.009-.079.003-.18.006-.269a3 3 0 0 0 .068-.292c.034-.159.113-.456.068-.667.023-.079.011-.16.057-.228.28-.5.61-.49.526-1.094-.09-.615-.732-1.217-.918-1.855v-.005a1.06 1.06 0 0 1 .011-.65c.256-.73 1.177-.569 1.556-1.228.046-.08.023-.174.046-.257.48-.011.156-1.087-.068-1.82a16 16 0 0 0-.164-.9c-.023-.4.01-.792-.035-1.194-.022-.256-.168-.513-.18-.76a1.4 1.4 0 0 1 .056-.381c.255-.557.843-.988 1.544-.813.767.191.838 1.457.966 2.165.215 1.218.476 2.426.883 3.592.408 1.174 1.125 2.398.702 3.668-.2.59-.63 1.098-.866 1.673-.196.479-.118 1.117-.421 1.533-.272.371-.737.413-.913.912-.271.771.293.79-.35 1.393-.48.447-.667.35-.503 1.082.131.615.522 1.241.813 1.796.486.934 1.06 1.824 1.644 2.703.248.376.526.728.713 1.135.136.3.187.615.386.895.555.779.857.5 1.591.41.755-.102 1.996 1.114 2.603 1.521.823.547 1.621.926 2.1 1.825.34.63.697 3.047 1.879 1.837.303-.309.352-.766.327-1.246.068-.621.068-1.349.056-1.41-.187-1.042-.81-2.092-1.421-2.942-.978-1.358-2.729-2.117-3.551-3.522-.8-1.37-1.27-2.756-1.773-4.23-.068-.208-.184-.565-.375-.772.178-.202 1.105-.734 1.194-.726.29.023.952 1.161 1.176 1.38.894.887 1.764 1.841 2.767 2.604 2.193 1.662 5.066 2.786 7.746 3.306 1.278.246 2.614.372 3.896.129.902-.171 2.54-.057 3.247-.55.334-.233.462-.56.485-.924.068-.068.143-.115.2-.252.484-1.185-1.837-5.493-4.101-9.337-.35-.766-.69-1.537-1.048-2.299-.156-.331-2.026-3.407-1.59-3.767.423-.348 1.453 1.922 1.649 2.27.715 1.286 1.424 2.575 2.17 3.837 1.234 2.077 2.822 3.884 3.844 6.096.368.803.865 2.546 2.06 2.259.958-.233 1.878-1.902 2.357-2.668 1.038-1.674 1.997-3.098 2.469-5.055 0-.008.004-.011.005-.022.602-1.85.806-3.955.685-5.85-.08-1.194-.328-2.415-.632-3.604a21 21 0 0 0-.538-2.358 4 4 0 0 0-.175-.397c-.13-.527-.265-.896-.492-1.287.121.034.732.17.901.129.324-.09.674-.632.966-.62.503.022.74 1.135 1 1.503.505.719 1.228.57 1.867 1.1.716.591.825 1.501 1.38 2.165.592.703 1.582.727 2.417.918.148.034.276.056.415.09.247.15.518.225.691.165.426.079.857.13 1.351.09.847-.068 2.442-.255 2.534-.918.045.022.22.045.204.068.09-.118-.129-.357-.439-.626a2.5 2.5 0 0 0-.38-.38c-.651-.516-1.384-.757-2.007-1.352-.359-.34-.72-.67-1.1-.988-.768-.65-1.586-1.286-2.363-1.954-.73-.88-1.231-1.901-2.07-2.715-.884-.85-1.824-1.555-2.967-2.006-.81-.316-1.668-.728-2.55-.708-.975.023-1.897.358-2.768-.216-.463-.31-2.04-2.61-3.34-3.58 0-.012-.011-.023-.011-.034.045-.44.868-.868 1.088-1.247.034-.056.045-.128.056-.193.258.068.333-.023.305-.45-.012-.186-.102-.354-.176-.527.034-.08.08-.146.181-.17.204-.045.786.289 1.065.292.426 0 .886-.155 1.27-.327.538-.236.817-.658 1.292-.222.32.296.618 1.252.889 1.68.368.587.54 1.363 1 1.883.452.504 1.234.762 1.837 1.017.62.264 1.192.548 1.779.884.551.315 1.384.524 1.82.995.443.478.428 1.306 1.263 1.363.324.022.632-.223.959-.246.38-.022.76.144 1.123.234.551.14 1.446.256 1.375-.59-.001-.01-.023-.034-.023-.046v-.005c.09-.19-.321-.816-.79-1.421-.023-.046-.08-.114-.09-.14-.16-.313-.473-.964-.796-1.112-.08-.034-.217-.023-.328-.023-.416-.234-.823-.166-1.27-.386-.203-.102-.383-.302-.566-.491-.13-.145-.264-.284-.398-.434l-.14-.14a9 9 0 0 0-.34-.404c-.99-1.07-1.975-2.084-3.077-3.03-1.154-.992-2.031-2.213-3.13-3.248-.515-.483-.696-.656-1.374-.544-.372.068-.494.296-.913.164-.26-.08-.524-.435-.784-.567-.931-.48-2.107-.93-2.662.022-.755 1.298-1.318 2.165-2.592 2.984-1.21.779-1.629 1.409-2.943.562-.23-.15-1.265-1.074-2.1-1.715-.09-.423-.034-.88.194-1.351.308-.623.882-.94.877-1.68-.001-.193-.102-.356-.17-.525.102-.448-.113-.947-.432-1.387.068-.6.844-.506 1.562-.89.235-.127.362-.267.497-.41 0 .003.034-.009.034-.006.003-.008-.007-.011-.005-.023.068-.068.139-.137.18-.21.139.131.33.318.363.299-.003 0-.158-.524-.222-.743.057-.501-.141-1.066-.404-1.708-.283-.699-.447-2.482-.995-2.937-.293-.246-.523-.145-.748-.057-.226-.034-.434-.045-.65-.204-.153-.269-.274-.803-.421-1.053-.667-1.131-1.491-2.164-2.358-3.142-.755-.855-1.347-1.823-2.118-2.662-.442-.483-1.154-1.507-1.474-.685-.36.923.716 2.918 1.059 3.768.255.635.116.827.129 1.474.003.195.034.34.079.462.113.378.59.911.907.995.659.767 1.247 2.221 1.351 3.16.102.886-.189 1.722.057 2.608.199.696.306.906.034 1.61-.204.511-.494.951-.737 1.438-.495.975-.322 1.567-1.328 2.118-.132-.969-.579-1.955-.966-2.89.007-.473-.045-.927-.38-1.246-.33-.312-.643-.28-.954-.205-.128-.007-.176-.045-.35-.045-.397-.004-.602.01-.872-.13-.205-.269-.601-.93-1.007-1.204.09-.485 1.592-1.433.292-1.72a.45.45 0 0 1-.327-.257c-.102-.377.102-.891.17-1.229.068-.19.15-.396.176-.556.12-.763.129-1.469.113-2.188 0-.034.009-.068.011-.102.09-2.504.08-4.988.362-7.488a39 39 0 0 0 .222-3.212c.023-.81.393-1.852.023-2.603-.057-.102-.14-.137-.205-.216a1 1 0 0 0-.28-.292c-.702-.472-1.743-.25-2.563-.51-1.606-.507-3.165-1.488-4.51-2.474-1.115-.811-2.13-1.748-3.084-2.738-.102-.102-.84-1.026-1.41-1.55-.142-.272-.29-.521-.485-.486zm10.22 28.89c.32.067.722.504.802.812.16.599-.227.667-.742.819-.863.255-1.4.615-2.17 1.07-.848.499-1.72.748-2.627 1.083-1.183.444-2.21 1.233-3.364 1.696-.19.08-.398.068-.597.034-.023-.004-.045 0-.068-.006-.08-.022-.15-.079-.229-.116-.123-.068-.253-.133-.34-.264-.194-.302-.186-1.015-.35-1.422.524-.522 2.176-.663 2.644-.801 1.234-.368 2.362-.92 3.516-1.48.615-.304 1.259-.506 1.89-.778.455-.2 1.091-.773 1.638-.65zm3.868 3.849c.376.079.652.41.72 1.21.022.263-.068.494-.216.702-.243.18-.553.315-.848.521-.48.334-.952.664-1.428.989a24.5 24.5 0 0 1-2.96 1.673c-.08.034-.16.079-.24.116-1 .456-2.049.737-3.083 1.107-.643.227-1.268.449-1.93.157-.36-.156-1.185-.774-.978-1.281v-.005c.2-.487 2.62-1.149 3.03-1.34.919-.428 1.828-.868 2.75-1.287 1.059-.479 2.03-1.07 3.013-1.685.644-.402 1.545-1.002 2.17-.877" style="fill:#7a4fab;fill-opacity:1;fill-rule:nonzero;stroke:none;stroke-width:3.99375"/>
    </g>
</svg>
