<svg xmlns="http://www.w3.org/2000/svg" id="svg5" width="88.338" height="100" version="1.1">
    <g id="pillbug" transform="translate(-57.646 -60.289)">
        <path id="path18874-1" d="M111.197 70.291c-.097.043-.215.185-.439.273-.075.032-.178.115-.262.156-.006-.022.022-.065 0-.087.001.001-.496.367-.539.4-.628.4-1.282.885-1.757 1.252-.162.126-.313.266-.472.395-3.367 2.51-9.864 7.292-10.042 6.978.107.187 1.007-.216 2.29-.946q-1.312.792-2.652 1.563c-2.076 1.2-2.193 3.592-2.724 5.733-.266 1.07-.532 1.645-.25 2.769.137.554.847 1.72-.311 1.735-.41.008-.607-.678-1.184-.662-.388.008-.777.439-1.085.618-.432.254-1.118.386-1.479.739-.117.11-.706.984-.584.995a.8.8 0 0 1-.108-.41c.043-.01.347 1.311-.523 1.311-.383 0-.687-.777-.923-.979-.794-.683-1.8-.71-2.758-.8a26 26 0 0 0-2.446-.685 32 32 0 0 1-.54-.2c-1.598-.6-2.675-.064-4.125.757-2.506 1.42-4.565 2.528-7.29 3.397-.942.3-1.862.653-2.792.98-1.332.47-3.098.602-4.142 1.612-1.276 1.23.846 1.077 1.529.928a22 22 0 0 0 3.42-1.023c1.69-.373 3.456-.803 3.436-.895-.01-.065-.397-.032-.918.054.985-.306 1.952-.643 2.83-1.23 1.435-.956 3.23-2.365 4.855-2.907 1.681-.559 4.07.317 5.65.928 1.237.482 1.315.449 1.3 1.607-.008.76.154 1.512.223 2.252-.01.184.002.32.043.478-.003.508-.172.553.339.934.334.254.954.309 1.357.244 1.256-.197 1.993-1.51 2.658-2.435.956-1.337 2.72-2.57 4.359-2.858 1.518-.27 3.995-.277 4.932-1.874 1.013-1.736-2.271-2.261-3.186-3.086a2 2 0 0 1-.195-.24c-.064-.085-.144-.175-.189-.272a1.9 1.9 0 0 1-.15-.733c-.009-.195.043-.406.076-.612.032-.176.032-.325.086-.528.01-.043.086-.316.116-.411.26-.781.617-1.58.78-2.174.188-.691.188-1.274.717-1.802.622-.618 1.64-.89 2.407-1.295 1.333-.71 2.713-1.533 3.932-2.425 1.15-.842 2.083-1.953 3.275-2.747.387-.258.777-.364 1.011-.79.236-.424.065-.678.4-1.061.57-.642 1.628-.702 2.103-1.518.129-.224.385-.78.256-1.073-.137-.313-.215-.375-.311-.334zm-9.603 7.401q-.781.518-1.585 1.001c.447-.254 1.066-.681 1.585-1m4.32 10.804c-.043-.002-.107.022-.156.033-.006 0-.01-.006-.021-.006s-.011.01-.032.01c-.033.01-.054.004-.086.022-.022.009-.022.033-.043.043-.476.163-.346.905-.445 1.29-.021.043-.032.108-.075.14-.37.305-1.368.074-2.263-.076-.462-.234-.928-.407-1.38-.156-.857.479-.005 1.058.076 1.757.086.713.086.72-.656 1.206-.915.612-2.19 1.614-3.276 1.808-.454.075-.897-.011-1.35.064-.022.001-.065-.005-.076-.005a.4.4 0 0 0-.097.021l-.006.006c-.59.075-2.574.6-2.524 1.429a11.7 11.7 0 0 0-2.62 2.185c-.747.843-1.686 1.718-2.73 2.185-.451.205-.893.34-1.39.097-.383-.19-.98-1.722-1.117-1.707l-.006.01c-.296.033-.752 2.813-1.09 3.12-.706.638-1.273-.178-1.896.086-1.002.433-.021.788.418.962.043.022.053.022.096.043.236.183.48.33.723.4.097.108.189.195.262.473.064.242.043.548-.006.862a32 32 0 0 1-.075-.718c-.308-.006-.32 1.109-.228 2.33a.3.3 0 0 1-.022.075c-.086.873-.12 1.763.076 2.625.053.243.73 2.55 1.095 2.485.22-.032.504-2.427.751-2.78.263-.38.7-.652 1.173-.878 1.258-.225 3.614-1.238 5.533-2.218a67 67 0 0 0 3.731-1.88c2.164-1.173 4.359-2.464 6.378-3.864.733-.506 1.42-1.136 2.107-1.774 1.233-.883 2.986-2.217 3.331-2.425.272-.163.496-.275.729-.39.942-.244 1.714.125 2.696.134.428.006.546.033.59-.043.086.011.323.065.334.054.086-.112-.126-.394-.45-.734-.297-.528-1.053-1.013-1.418-1.279-.419-.305-.858-.667-1.307-1.011l-.086-.076a.2.2 0 0 1-.054-.032c-.385-.29-.774-.573-1.167-.779-.282-.146-.698-.199-1.007-.328-.132-.097-.269-.184-.372-.3-.26-.46-.043-1.068-.177-1.59-.022-.097-.076-.243-.118-.378.006-.277-.054-.505-.295-.523zm8.391 6.829c-.69-.133-.739.703-1.134.89-.604.277-.097.116-.934.064-.232-.01-.473.009-.711.022-.122-.022-.23-.076-.356-.076-.733 0-1.468.022-2.125.356-.365.188-.655.494-.939.801-.736.59-1.408 1.322-2.163 1.907-1.465 1.135-2.814 2.224-4.37 3.253-2.567 1.7-5.683 3.871-8.686 4.615-1.612.405-3.34.982-4.804 1.83-.136.054-.693.197-.69.217.009.054.11.065.184.086-1.016.672-1.093 1.007-1.568 2.152-.174.418-.253.665-.679.912-.326.193-.967.053-1.207.361-.983 1.257 1.242.647 1.352.651.887.01.978.817 1.25 1.546.098.266.643 1.852.901 1.768.497-.16.284-1.626.44-1.98.085-.204.237-.385.417-.55.29.003 1.532-.581 3.002-1.313.504-.14 1.083-.303 1.43-.433 1.746-.657 3.487-1.385 5.104-2.319 2.98-1.712 6.73-3.097 9.125-5.622 1.192-1.256 2.418-1.99 3.803-2.997.641-.462 1.096-1.09 1.885-1.356.482-.164.78-.154 1.251-.076.172.022.75.413 1.068.378.118.054.293.171.323.139.006-.006-.13-.182-.15-.218.126-.275-1.268-1.862-1.418-2.207-.175-.395-.331-.553-.123-.995.123-.086.264-.185.384-.367.255-.137.542-.238.629-.478.17-.47.011-.858-.49-.957zm-.344 6.06c-.342-.042-.664-.021-.94.097-.219.086-1.084.829-2.074 1.69-2.846 2.157-5.534 4.473-8.624 6.295-1.836 1.08-3.68 2.344-5.694 3.075-.904.268-1.865.514-2.057.556-.27.065-2.577.736-3.854 1.313-.021.006-.032.01-.043.021-.096.043-.217.086-.3.134-.484.204-.923.434-1.134.717h-.006c-.097.13-.154.357-.218.573.003-.001-.003-.043 0-.043-.152-.002-.2.487-.194 1.134-.076.889-.065 1.848-.022 2.33.043.437 1.087 2.547 1.474 2.463.136-.021.505-1.306.661-1.496.433-.527 1.084-.898 1.68-1.206 1.116-.566 2.283-.853 3.475-1.196 2.593-.736 4.887-1.948 7.206-3.28 4.275-2.456 7.888-5.567 11.805-8.486.574-.425.95-.777 1.68-.867.398-.054 1.131.267 1.412.133.043-.021.065-.064.097-.096.137.043.38.13.4.112.125-.13-.548-1.091-1.145-1.852-.065-.086-.167-.25-.211-.3-.022-.022-.075-.054-.097-.076-.12-.135-.311-.409-.378-.456-.585-.42-1.578-.964-2.508-1.179-.053-.01-.125-.043-.177-.054h-.022c-.064-.01-.132-.043-.195-.053zm8.446 2.72c-.947.181-2.743 1.887-3.38 2.146-.62.258-1.274.108-1.908.323-.054.021-.107.064-.161.086-.022.009-.054.032-.075.043-.616.271-1.247.725-1.78 1.095-1.382.96-2.514 2.302-3.831 3.364-2.038 1.648-4.241 3.115-6.511 4.432-.736.43-1.492.89-2.263 1.318-.001-.01.032-.032.021-.043.011.021-.175.112-.228.156-.62.339-1.261.615-1.902.878-1.205.385-2.513.732-2.785.812-.56.164-5.349 1.745-5.589 2.475-.164.126-.358.232-.5.372-.262.262-.356.626-.645.873-.421.36-1.078.512-1.557.79-.34.196-2.071.925-2.09 1.156-.086 1.173 3.845-.568 4.187-.461.797.258 1.126 2.888 1.885 1.195.258-.584.032-.8.5-1.268.334-.333 1.096-.626 1.551-.823 1.504-.646 3.09-.325 4.643-.74.076-.02.14-.053.211-.074.14-.022.544-.076.595-.087.177-.043 2.105-.808 3.242-1.467 1.85-.927 3.64-2.003 5.422-2.97 1.51-.82 2.995-1.978 4.103-3.303.98-1.173 2.008-2.646 3.192-3.625.584-.486 1.425-.906 2.135-1.157.616-.216.708.076 1.24-.021.179-.033.25-.086.34-.139.031.002.139.043.149.032.008-.01-.033-.064-.033-.086.294-.275-.156-.74-.356-1.245-.387-.969.054-.94.857-1.54.494-.369 2.957-1.86 1.662-2.475a.6.6 0 0 0-.344-.022zm-2.452 6.494c-1.998.206-3.007 2.11-4.31 3.581-2.106 2.38-4.889 4.056-7.573 5.7-1.922 1.18-3.904 2.52-6.06 3.286-.697.198-1.023.256-1.546.378-2.21.324-5.418.138-6.506 2.118-.748 1.363-.557 2.195.31 3.448.623.898.735.468 1.14-.033.26-.119.568-.273.996-.523a9 9 0 0 1-.472.076c.021-.011.032-.033.053-.054 2.084-1.12 4.955-1.211 7.229-1.652 1.256-.242 2.4-.738 3.509-1.323.7-.28 1.25-.547 1.323-.762.536-.313 1.075-.614 1.613-.923 1.917-1.1 4.033-2.149 5.7-3.614.983-.865 1.557-2.044 2.324-3.08.726-.979 1.714-1.82 2.696-2.58.378-.191.863-.491 1.546-.952.436-.217.781-.452.98-.718l.064-.043c.003-.01-.011-.032-.011-.054.032-.064.118-.132.116-.205-.011-.503-.664-1.176-1.307-1.618-.008-.01-.032-.043-.043-.043-.021-.011-.043-.011-.064-.033-.295-.19-.58-.342-.796-.372a3.8 3.8 0 0 0-.917-.021zm-23.548 17.96c.717-.12 1.683-.33 1.606-.572-.086-.282-.842.127-1.606.573m30.688-16.208c-.37.086-.676.385-.985.662-1.864.82-4.443 2.174-4.526 2.569-.006.021.008.032.006.053a15 15 0 0 0-1.957 1.624c-.608.602-1.09 1.255-1.557 1.918-.15.108-.281.334-.411.585-.197.282-.389.558-.6.839-.484.646-1.12 1.17-1.791 1.657-.075.054-.152.097-.2.144-1.08.752-2.267 1.392-3.32 2.058-3.409 2.156-6.595 3.457-10.626 3.981-1.344.174-2.577.5-3.815 1.095a38 38 0 0 0-2.09 1.118c-1.04.589-2.51 1.17-3.292 2.107-.683.82.032 1.058.806.929.835-.144 1.493-.771 2.18-1.212.603-.389 1.03-.336 1.379-.075.188.56.714 1.237 1.072 1.623-.01-.032-.021-.075-.043-.11.033.075.065.114.097.182-.021-.021-.043-.054-.064-.075.118.328.226.583.305.634.011.006.043-.012.054-.006v.006c.155.187.365.263.79.177.645-.129 1.51-.873 2.152-1.15 1.742-.749 3.548-1.24 5.416-1.563 2.497-.43 4.532-1.58 6.722-2.814 2.422-1.366 4.78-2.75 6.534-4.932 1.131-1.405 2.36-2.812 3.803-3.909.763-.577 2.952-1.242 2.997-2.119.076-1.469-2.28-2.006-.628-3.464.509-.452 1.215-.652 1.746-1.073.373-.295.736-.834.718-1.184.043-.097.054-.184.006-.25-.006-.01-.097.032-.108.032-.124-.112-.357-.154-.778-.054zm-1.43 8.118c-.65.022-1.248.77-2.079 1.48a31.6 31.6 0 0 0-3.503 3.513c-1.09 1.28-2.343 2.309-3.737 3.231-2.02 1.336-4.115 2.837-6.378 3.737-1.897.75-3.968.608-5.843 1.306-.763.281-4.643 1.293-4.844 1.969-.35 1.17 1.917 1.956 1.052 3.208-.399.581-1.054 1.039-1.48 1.657-.36.528-1.98 1.662-1.985 2.258-.003.993 1.352.269 2.441-.39.38.195 1.34-.475 1.902-1.15.525-.342 1.069-.66 1.54-.557.342.075.348.674.868.39.372-.202.096-.635.244-.985.645-1.507 3.102-2.377 4.393-3.147 1.116-.668 2.293-1.119 3.447-1.707a84 84 0 0 0 7.835-4.538c1.421-.928 3.054-2.672 4.776-3.736.168-.033.44-.198.723-.378-.156.054-.208.075-.333.116.193-.107.387-.19.584-.272-.086.064-.167.108-.25.156a54 54 0 0 1 1.317-.45c.149-.033.45-.007.69 0 .6.12 1.548.562 1.896.333.258-.168.18-.432.043-.706-.022-.292-.22-.564-.423-.818-.043-.12-.086-.239-.043-.323.108-.17 1.57-.26 1.896-.378.847-.307 1.702-.747 2.48-1.195.395-.226 1.034-.66.706-.995.011-.033.054-.054.054-.076.19-.754-1.38-.01-1.863.108-.118.032-.301.075-.439.112-.166-.008-.325-.022-.518-.022-.836-.008-1.626.537-2.407.556-.446-.032-.921-.667-1.268-1.056-.065-.122-.108-.215-.2-.345-.493-.667-.905-.914-1.296-.9zm1.975 6.956c-1.006.065-2.28.805-3.092 1.363-1.064.539-1.959 1.094-1.99 1.412-2.35 1.74-4.775 3.427-7.335 4.81-1.769.952-3.439 1.834-5.31 2.563-1.397.543-3.223 1.136-4.332 2.169v-.006c-.338.315-1.057.911-1.084 1.423-.032.745.484.666 1.013 1.046.603.437 2 2.277 2.607.751.12-.296.087-.55.076-.817.064-.188.107-.384.128-.6.021-.044.021-.076.043-.113.375-.592 1.196-1.037 1.807-1.318 1.006-.459 2.025-.584 3.103-.739.736-.107 1.473-.345 2.207-.639.141-.043.243-.097.318-.144a18 18 0 0 0 2.29-1.185c.408-.228.777-.467 1.14-.739.23-.158.478-.316.695-.472 1.97-1.42 3.39-4.043 5.622-5.049 1.036-.47 1.73.233 2.725.139 1.112-.108.741-1.745.672-2.675-.021-.344-.124-.589-.261-.773a.74.74 0 0 0-.378-.3c-.043-.021-.086-.021-.133-.043-.043-.01-.076-.032-.128-.043-.008 0-.043.022-.054.022-.117-.022-.22-.054-.35-.043zm-.006 4.682c-.961-.032-1.679.404-2.352.94-.329.21-.607.429-.762.628-.065.065-.139.108-.206.167-2.46 2.277-4.707 4.324-7.75 5.838-1.154.574-2.396.818-3.626 1.101.043-.032.178-.097.172-.117-.086-.271-2.764.698-3.136 1.168-.18.097-.37.143-.545.256v.006c-.671.437-1.216 2.452-1.535 3.17-.34.777-2.01 3.344-1.29 4.008.907.835 1.993-.996 2.391-1.523.012-.022.097-.195.128-.24.257-.356.432-.694.573-1.05.54-1.008 1.17-2.186 1.19-2.186.064 0 .117.065.172.111.075.22.173.368.317.34.165.16.356.201.623-.285.259-.471-.13-1.194-.043-1.73.086-.538.665-1.584 1.402-1.261.307.132-.086 1.48.043 2.046.193.9 1.898 3.404 2.574 1.54.097-.266.054-.604-.021-.957.053-.493.01-1.122-.15-1.529.086-.291.316-.518.84-.59.18-.02.347-.01.51.012.196.064.35.109.668.25.895.48 1.616 1.467 2.49 1.724 1.455.425 2.578-.769 2.559-2.09-.022-1.188-.25-2.068.205-3.214.634-1.606 1.544-.618 2.569.205.535.43.683.888 1.279.24.307-.334.274-.8.172-1.224.011-.44-.239-.835-.579-1.19-.054-.065-.086-.108-.144-.172-.054-.054-.086-.108-.15-.15-.175-.194-.357-.414-.517-.506-.097-.053-.328-.053-.511-.064-.286-.108-.572-.19-.806-.195-.022 0-.032.011-.054.011-.19-.086-.322-.212-.262-.49.316-1.445 2.61.002 3.209.134.121.022.677.147.84.065.713-.353-.009-.423.271-.673.51-.46.844.043 1.568.172.756.137 3.048-.413 3.66-.895.41-.327.338-.54.133-.706-.001-.008.008-.011.006-.021-.032-.166-.366-.23-.812-.256-.343-.065-.708-.146-.945-.167-1.45-.125-2.945-.602-4.377-.651zm-3.414 7.112a.8.8 0 0 0-.318.097c-.945.55-.14 3.292 1.307 1.524.353-.432.054-1.069-.411-1.396a.2.2 0 0 0-.075-.054c-.163-.097-.325-.187-.506-.172zm-6.912 3.943a.55.55 0 0 0-.267.116c-1.253 1.108 1.762 2.663 2.213 1.273.196-.608-1.208-1.513-1.946-1.39z" style="fill:#40afa1;fill-opacity:1;fill-rule:nonzero;stroke:none;stroke-width:3.79595"/>
    </g>
</svg>
