<svg xmlns="http://www.w3.org/2000/svg" id="svg5" width="88.338" height="100" version="1.1">
    <g id="spider" transform="translate(-57.646 -60.289)">
        <path id="path49309-1" d="M110.951 72.717c-.564.008-1.128 1.846-1.328 2.276-.805 1.743-1.078 3.64-1.555 5.49-.284 1.096-.58 2.228-.617 3.366-.029 1.09.415 1.78.815 2.735a14.9 14.9 0 0 1 1.056 4.423c.096 1.229-.295 2.358-.038 3.584.195.935 1.087 2.156.978 3.105-.086.713-.875 1.434-1.289 1.955a31 31 0 0 1-2.3 2.567c-.444.447-1.417 2.101-2.059 1.299-.74-.929.792-2.228.943-3.14.205-1.257.096-2.614-.01-3.875-.095-1.168-.195-2.347-.553-3.47-.337-1.053-.992-1.914-1.56-2.85-1.278-2.105-2.4-4.315-4.112-6.116-1.487-1.561-2.962-3.181-4.586-4.6-1.594-1.394-3.429-2.383-5.258-3.412-.98-.55-2.08-1.656-3.253-1.742-.412-.029-.846.086-1.249.163-.067.01-.747.086-.49.104.341.575.427.893 1.102.874 1.063-.038 1.418.02 2.3.716.48.379.974.633 1.491.952 2.264 1.394 4.893 3.336 6.205 5.707.598 1.077 1.168 2.117 1.94 3.09.85 1.073 2.114 2.052 2.607 3.362.242.64.223 1.333.415 1.984.207.703.631 1.226 1.026 1.822.144.216.26.446.371.676-.057.135.048.31.203.494.284.772.41 1.59.3 2.42-.155 1.214.134 2.404-.028 3.593-.058.452-.16 1.12-.479 1.456-.363.39-.945.316-1.135-.261-.196-.596.455-1.175.478-1.783.006-.163-.038-.34-.067-.513.086-.524.039-1.443.02-1.56-.067-.418-.197-.829-.52-1.12-.037-.029-.202-.114-.335-.187-.32-.637-.765-1.065-1.357-.588-.826.666.765 2.531.844 3.367.058.644-.038 1.268-.706 1.456-.325.096-.682-.038-1.016.104-.96.391-1.93 1.304-2.716 1.975-.493.421-.576.562-1.031.123-.37-.358-.744-1.013-.993-1.48-.365-.688-.326-1.992-1.273-2.227-2.048-.51-.476 2.6-.148 3.154.228.387.507.728.809 1.047-.162-.174-.313-.342-.35-.316-.236.16.409.782.528.824.096.038.213.01.32.005-.038-.048-.085-.086-.123-.133.058.048.12.086.178.133h-.057c.65.704 1.521 1.512 2.246 1.249.106.108.198.243.276.479.057.183.483 1.408.43 1.466-.067.076-1.534-.49-1.827-.49-.096 0-.182-.008-.276-.01-.444-.176-.908-.18-1.392-.182-.116-.029-.227-.038-.346-.086-.733-.307-1.371-.876-2.128-1.12-.665-.217-1.03.171-1.648.152-1.436-.038-1.363-2.12-1.896-2.996-.654-1.075-1.735-1.307-2.597-2.039-.127-.128-.2-.206-.325-.326-.876-.976-1.334-2.456-1.975-3.579-.382-.67-.844-1.284-1.288-1.91-.177-.352-.351-.705-.554-1.037-.165-.273-.953-1.95-1.663-3.55-.226-1.061-.421-2.13-.692-3.184-.288-1.137-.843-2.427-.79-3.618.029-.624.81-2.789.163-3.184v-.01c-.456-.277-1.064.402-1.225.76-.218.492-.12 1.11-.067 1.62.114 1.159.32 2.308.513 3.455.38 2.25.229 4.722.854 6.912.261.905.856 1.676 1.294 2.503.472.889.863 1.817 1.308 2.72.554 1.126 1.023 2.355 2.049 3.13 1.005.753 1.189 1.288 1.58 2.428.14.412.321.78.528 1.126-.103.286.377.972.494 1.076.308.279.737.469 1.11.681.212.161.447.298.677.44.137.096.249.16.394.216a16.6 16.6 0 0 0 2.839 1.234c.928.308 1.819 1.285 2.794 1.314.307.008 1.06-.242 1.698-.331.199.21.443.367.686.375-.551.363-2.033.938-2.236 1.042-1.178.608-2.173 1.496-3.367 2.064-1.2.57-2.126.95-3.199.019-1.075-.938-2.072-1.207-3.51-1.052a4 4 0 0 1-.868-.005 13 13 0 0 0-1.526-.469c-1.379-.734-2.397-2.098-3.993-2.804-1.231-.542-2.538-.58-3.846-.31-.921.194-1.754.618-2.715.646-1.508.048-2.965-.057-4.473.099-.267.028-4.008.447-2.868 1.515.214.203 1.134-.18 1.358-.227.6-.131 1.19-.213 1.802-.232 1.356-.038 2.783-.058 4.117.222.588.124 1.185.275 1.688.622.521.358.82.92 1.353 1.264 1.021.652 2.094.51 3.174.119.882-.318 1.206-.419 2.054.076 1.089.638 2.097 1.283 3.263 1.753.125.047.168.114.261.168-.003.007-.01.007-.01.019-.085.244.841 1 1.274 1.185.37.285.824.358 1.304.448.74.139 1.312.193 2.029-.057.572-.2.856-.284 1.466-.104 1.224.358 2.235.29 3.357-.365.205-.12.404-.265.607-.394.321-.107.622-.253.834-.47.038-.038.038-.086.067-.123.516-.364 1.022-.738 1.52-1.1.69-.503.905-1.11 1.378-1.788.533-.758 2.25-1.148 1.51.223-.386.714-1.482 1.362-2.073 1.965-.577.59-1.223 1.163-1.733 1.816-.586.747-.79 1.5-1.619 2.044-2.145 1.406-3.86 3.202-6.54 3.535-1.071.134-1.404.803-2.311 1.263-.812.41-1.892.88-2.8 1.003-.439.066-.815-.125-1.243-.144-.605-.028-1.152.211-1.698.435-.326.135-.975.248-.884.676.067.336 1.102.551 1.372.637 1.385.422 2.692.316 4.014-.276 1.133-.509 1.352-.785 2.601-.43 1.224.35 1.672-.363 2.69-.952.795-.456 1.636-.83 2.43-1.293 1.777-1.036 3.802-1.777 5.321-3.19.851-.793 1.462-1.708 2.079-2.69.325-.521.873-2.19 1.757-1.92.619.188.181.993-.048 1.338-.305.465-.584.798-.82 1.308-.463 1.003-1.442 1.354-2.103 2.231-1.38 1.843-1.848 3.938-2.325 6.151-.212.978.02 1.91.4 2.829.217.528.566 1.034.687 1.594.116.552-.03 1.055-.086 1.605-.294 2.818.761 5.322 2.038 7.765 1.047 2.006 2.362 3.816 3.574 5.722.866 1.363 1.641 2.628 2.81 3.766.47.459.896.949 1.312 1.456.294.352.728 1.131 1.21 1.264.538.146.962-.298.84-.859-.133-.607-.917-.984-1.348-1.342-.866-.723-1.493-1.695-2.133-2.612-.88-1.254-1.773-2.504-2.394-3.914a15.6 15.6 0 0 1-1.17-4.266c-.114-.9-.086-1.8-.365-2.675-.486-1.515-1.462-2.932-1.723-4.512-.204-1.238.51-2.335.242-3.634-.162-.794-.93-1.648-.73-2.453.265-1.064 1.25-2.007 1.688-3.026.125-.292.286-1.494.533-1.669.277-.196.16 0 .33.257.373.568.466 1.46.785 2.088.254.498.547.986.85 1.456.69 1.071 1.522 1.966 2.453 2.83 1.424 1.319 2.883 2.786 4.705 3.519 2.047.825 3.655 1.828 5.8.508 1.005-.619 1.281-1.49 1.565-2.577.282-1.086.598-2.218.538-3.352-.096-1.836-.414-3.773-.72-5.588a39 39 0 0 0-.697-3.297c.086-.68-.38-1.92-.859-2.089-.148-.366-.193-.711.169-.927.896-.54 2.064.487 2.858.75.815.268 1.374.525 2.058 1.047 1.234.942 2.656 1.676 3.826 2.69.819.71 1.418 1.67 2.202 2.424.721.694 1.037 1.393 1.451 2.291.589 1.278 1.767 1.966 2.617 3.046.802 1.017 1.458 2.259 1.89 3.48.363 1.029.588 2.058 1.037 3.066.438.97.981 1.843 1.037 2.927.038.663 0 1.34-.193 1.975-.165.543-.572 1.17.168 1.496.896.39 1.061-.755 1.15-1.358.382-2.578-.478-4.743-1.204-7.133-.422-1.387-.488-2.884-1.121-4.196-.859-1.778-1.783-3.56-2.809-5.248-.698-1.15-1.424-2.48-2.434-3.391-.768-.694-1.73-.997-2.31-1.91-1.254-1.974-2.047-3.59-4.374-4.444-2.02-.74-3.935-1.605-6.096-1.09-.498.118-.984.377-1.496.33-.53-.048-.992-.376-1.55-.385-.254 0-.894.218-1.126.067-.37-.243-.25-.8.114-.938.458-.172 1.285.18 1.802.104.193-.03.37-.096.558-.144.84-.215 1.754-.346 2.557-.691 2.003-.856 3.853-1.823 5.642-3.066.95-.661 1.98-1.01 2.947-1.58.724-.428.991-1.365 1.54-1.98.673-.751 1.496-1.372 2.143-2.147.554-.663 1.342-1.91 1.412-2.779.029-.398.057-.732-.435-.918-.614-.235-.954.404-1.303.79-.752.828-1.488 1.582-2.182 2.468-.433.557-.972 1.11-1.62 1.412-.47.222-.915.251-1.293.637-.465.477-.631 1.217-1.076 1.708-.633.698-1.807 1.038-2.636 1.417-.758.347-1.575.604-2.31.993-1.122.595-1.218 1.154-2.528.785-1.046-.294-2.047.236-3.011.637-.01-.006-.008-.029-.02-.038-.006-.002-.028.057-.037.057-.029.01-.067.02-.096.038-.095.038-.784.42-.893.281-.167-.214.554-.91.661-1.032.803-.902 1.767-1.55 2.656-2.344 1.89-1.688 1.265-4.31 1.856-6.517.308-1.147.291-1.655-.076-2.814-.321-1-.742-1.838-1.21-2.764-.57-1.14-.655-2.59-.558-3.846.086-1.126.589-2.15.642-3.287a4.34 4.34 0 0 0-.449-2.202c-.197-.399-.442-.719-.523-1.175-.21-1.129.1-2.492.305-3.604.168-.896 1.124-3.003.321-3.84a.32.32 0 0 0-.241-.119zm-1.752 8.94c.028-.005.038.01.057.01.17.238.436.571.651.844.01.188.039.394.039.524-.01.233.019 1.625-.281 1.767-.889.422-1.798-2.851-.465-3.144zm-7.153 9.281c-.008.28.692.248.829.321.028.02.174.198.33.376.106.177.274.392.301.478.077.24.375 1.325-.005 1.373-.256.028-1.74-2.184-1.53-2.484.019-.028.048-.038.076-.066zm8.545 2.133c.067-.005.514.217.785.36.316.745.466 1.905.271 2.26-.716 1.306-1.73-1.434-1.293-2.477.076-.077.164-.139.237-.144zm-6.877 3.979c.057.184.251.212.46.197.296.52.294 1.682.232 1.906-.077.277-.459 1.318-.82 1.1-.207-.124-.1-3.014.128-3.203m18.567 3.603q.114-.002.168.067c.028.029-.01.107-.048.178a.56.56 0 0 0-.232-.168c-.038-.02-.205.029-.316.038.144-.057.29-.114.424-.114zm-.385.306c.291.187-.106.485-.114.686-.086.076-.211.219-.242.237-.298.17-.919.288-.962-.203-.02-.201.215-.386.478-.537.001.019-.028.028-.019.047.057.103.734-.318.859-.232zm-37.119 1.451c-.019.039-.038.048-.057.086-.116.321.877 1.89 1.254 1.738.112-.048.162-.156.187-.296.179.45.28.862.099.958-.45.237-1.884-2.192-1.53-2.478.009-.01.037-.002.047-.01zm31.767 2.251c.135.048.186.15-.067.41-.019.02-.2.086-.261.119.218-.157.403-.338.325-.529zm-.878.153c.185-.019.388.005.473.164a.27.27 0 0 1 .005.246c-.513.275-1.738.782-1.87.41-.077-.233.942-.694 1.066-.76.019-.01.076-.02.109-.03.067-.01.106-.018.216-.028zm-5.204 1.605c.476-.02.922.086 1.062.469.134.367-.343.347-.632.414-.646.155-1.48.428-2.142.212-.152-.047-.184-.098-.257-.148.038-.067.086-.116.118-.207.01-.029.029-.172.048-.252.19-.096.383-.195.578-.257v-.005c.25-.077.754-.21 1.23-.227zm-19.252.4c.536.076 1.33.344 1.742.578-.019.133.058.307.168.483-.268.229-.912.298-1.15.276-.398-.038-1.72-.748-1.23-1.313.049-.057.23-.057.47-.028zm-18.394 2.172c.531-.112 1.323.057 1.86.375.04.229.307.532.573.657.148 1.38-3.157.282-2.962-.613.049-.226.25-.36.528-.419zm41.033 1.24c.344-.02.707.13 1.027.206.265.058.58.102.888.153.004.058-.01.102.029.164-.11-.189.97.613.809.631.048-.006.067-.076.086-.123.038.12.1.293.118.34.077.197.122.324.188.44-.039.038-.039.096-.105.128-.46.24-2.031-.533-2.443-.651-.5-.144-2.27-.565-.928-1.205q.161-.071.336-.086zm-16.745 2.31c.048.236.175.46.335.612-.235.18-.538.353-.676.449-.287.2-.569.362-.825.602-.186.176-.493.786-.74.888-.287.119-.51.057-.622-.28-.14-.434.273-.776.553-1.047.31-.303 1.256-1.074 1.975-1.225m12.87.047c1.172.191 1.315 1.898 1.762 2.75.458.87.716 1.522.435 2.557-.647 2.392-3.412 4.45-5.697 5.07-1.033.279-2.367.34-3.525.187-.12-.038-.258-.048-.375-.086-.158-.057-.884-.432-1.447-.642-.567-.534-.928-1.294-1.283-2.019v-.005c-.485-.988-1.178-2.161.41-2.029 1.55.13 3.06.067 4.512-.553 1.305-.56 2.332-1.477 3.095-2.67.496-.778.951-2.749 2.113-2.558zm-26.204.139c.635.028 1.382.318 1.753.667-.174.156-.086.452.086.676-.35.299-1.222.242-1.926.005a3 3 0 0 0-.794-.44.5.5 0 0 1-.11-.241c-.038-.52.419-.695.993-.667zm36.052.123c-.029.347.435.611.736.637.184.02.38-.138.562-.095.274.4.626 1.18.617 1.545-.01.43-.185.396-.4.257-.616-.708-1.225-1.348-1.683-1.545-.12-.188-.19-.366-.128-.513v-.005a.5.5 0 0 1 .296-.282zm-26.746 4.75c.12.018.201.066.212.162 0 .006-.02.02-.02.03a3.6 3.6 0 0 0-.537.404c-.113.105-.106.142-.158.212a8 8 0 0 1-.844.504c-.274.12-1.103.419-1.25-.029-.144-.442 1.102-.927 1.358-1.022.171-.067.88-.311 1.24-.262zm3.006 1.82c.134.225.436.32.73.218-.202.87-.723 1.751-1.209 2.492-.019.039-.038.048-.066.086-.227-.244-.53-.39-.88-.345.003-.02-.002-.029 0-.048a3.48 3.48 0 0 1 .998-2.078c.101-.1.272-.206.424-.326zm30.069.543c.028-.005.067.01.095.02 0 .339.464.94.74.858a.24.24 0 0 0 .12-.086c.286.519.43 1.127.138 1.303-.048.03-.106.03-.169.02-.345-.399-.671-.765-.893-.889-.262-.415-.45-.856-.316-1.027a.46.46 0 0 1 .287-.187zm-40.776 1.832c.086.01.129.048.202.067-.178.126-.067.423.077.558-.56.287-1.993.404-1.393-.38.17-.222.695-.299 1.116-.247zm8.974 4.161c-.019.35.267.796.573.736.264.73.314 1.735-.193 1.93-.466.182-.914-2.484-.554-2.66.058-.03.116-.01.173-.006zm1.432 8.743c.337.077.669.49.918.973-.146-.181-.375-.293-.563-.144-.356.282.147.958.543.745.184-.097.167-.285.086-.46.421.907.502 1.988-.41 1.749-.349-.096-.895-1.344-1.037-2.143.152-.128.142-.354.039-.538.01-.019-.002-.086.019-.095a.46.46 0 0 1 .41-.086z" style="fill:#993c1e;fill-opacity:1;fill-rule:nonzero;stroke:none;stroke-width:2.32696"/>
    </g>
</svg>
