<svg xmlns="http://www.w3.org/2000/svg" width="138.443" height="134.672">
    <filter id="a" width="1.051" height="1.057" x="-.026" y="-.029" style="color-interpolation-filters:sRGB">
        <feGaussianBlur stdDeviation=".636"/>
    </filter>
    <path d="M0 0a6.9 6.9 0 0 1 3.592 1.708 7 7 0 0 1 1.342 1.671c.326.572 11.761 19.972 12.074 20.942a6.85 6.85 0 0 1 .105 3.877 7 7 0 0 1-.674 1.657c-.283.496-11.474 20.355-12.078 21.052a6.87 6.87 0 0 1-5.197 2.385c-.607 0-23.293.147-24.033.032a6.88 6.88 0 0 1-4.918-3.376c-.324-.569-11.76-19.973-12.072-20.929a6.9 6.9 0 0 1 .564-5.557c.285-.498 11.469-20.347 12.078-21.05a6.87 6.87 0 0 1 3.274-2.1 6.8 6.8 0 0 1 1.916-.278C-23.422.034-.73-.112 0 0" style="opacity:.549569;fill:#999;fill-opacity:1;fill-rule:nonzero;stroke:none;filter:url(#a)" transform="scale(1.67927 -1.67927)rotate(30 138.975 93.394)"/>
</svg>
