<svg xmlns="http://www.w3.org/2000/svg" width="89.912" height="103.235">
    <path d="m28.707 65.695-1.195.69-1.196-.69m-2.164-1.249-2.39-1.38m-2.164-1.25-2.392-1.38m-2.163-1.249-2.391-1.38m-2.164-1.25-1.196-.69v-1.38m0-2.499v-2.761m0-2.498v-2.761m0-2.499v-2.76m0-2.5v-1.38l1.196-.69m2.164-1.25 2.39-1.38m2.164-1.249 2.392-1.38m2.163-1.25 2.391-1.38M26.316 25l1.196-.69 1.195.69m2.164 1.25 2.391 1.38m2.163 1.25 2.392 1.38m2.163 1.25 2.392 1.38m2.163 1.249 1.196.69v1.38m0 2.5v2.76m0 2.499v2.76m0 2.499v2.761m0 2.498v1.38l-1.196.691m-2.163 1.25-2.392 1.38m-2.163 1.25-2.392 1.38m-2.163 1.249-2.391 1.38m-2.164 1.25-1.195.69" style="opacity:1;fill:none;stroke:#d33682;stroke-width:1.10471;stroke-linecap:round;stroke-linejoin:bevel;stroke-miterlimit:0;stroke-dasharray:none;stroke-opacity:1" transform="translate(-20.932 -57.076)scale(2.3949)"/>
</svg>
