<?xml version="1.0" encoding="UTF-8" standalone="no"?>
<svg
   xml:space="preserve"
   width="88.338"
   height="104.242"
   preserveAspectRatio="none"
   version="1.1"
   id="svg15"
   sodipodi:docname="blackLadybug.svg"
   inkscape:version="1.4.2 (ebf0e940, 2025-05-08)"
   xmlns:inkscape="http://www.inkscape.org/namespaces/inkscape"
   xmlns:sodipodi="http://sodipodi.sourceforge.net/DTD/sodipodi-0.dtd"
   xmlns="http://www.w3.org/2000/svg"
   xmlns:svg="http://www.w3.org/2000/svg"><sodipodi:namedview
   id="namedview15"
   pagecolor="#ffffff"
   bordercolor="#000000"
   borderopacity="0.25"
   inkscape:showpageshadow="2"
   inkscape:pageopacity="0.0"
   inkscape:pagecheckerboard="0"
   inkscape:deskcolor="#d1d1d1"
   inkscape:zoom="0.460467"
   inkscape:cx="43.434165"
   inkscape:cy="52.120998"
   inkscape:window-width="1712"
   inkscape:window-height="1041"
   inkscape:window-x="0"
   inkscape:window-y="71"
   inkscape:window-maximized="0"
   inkscape:current-layer="svg15" />
    <defs
   id="defs8">
        <radialGradient
   id="a"
   cx="0"
   cy="0"
   r="127.25"
   fx="0"
   fy="0"
   gradientTransform="translate(34.288 54.104)scale(.31383)"
   gradientUnits="userSpaceOnUse"
   spreadMethod="pad">
            <stop
   offset="0%"
   stop-color="#c8c8c8"
   id="stop1" />
            <stop
   offset="42.745%"
   stop-color="#c8c8c8"
   id="stop2" />
            <stop
   offset="100%"
   stop-color="#dcdcdc"
   id="stop3" />
        </radialGradient>
        <radialGradient
   id="c"
   cx="0"
   cy="0"
   r="148.188"
   fx="0"
   fy="0"
   gradientTransform="translate(53.588 54.889)scale(.31383)"
   gradientUnits="userSpaceOnUse"
   spreadMethod="pad">
            <stop
   offset="0%"
   stop-color="#c8c8c8"
   id="stop4" />
            <stop
   offset="42.745%"
   stop-color="#c8c8c8"
   id="stop5" />
            <stop
   offset="100%"
   stop-color="#dcdcdc"
   id="stop6" />
        </radialGradient>
        <linearGradient
   id="b"
   x1="94.85"
   x2="20.55"
   y1="149.337"
   y2="106.563"
   gradientTransform="translate(8.9 -10.686)scale(.31383)"
   gradientUnits="userSpaceOnUse"
   spreadMethod="pad">
            <stop
   offset="0%"
   stop-color="#c8c8c8"
   id="stop7" />
            <stop
   offset="100%"
   stop-color="#dcdcdc"
   id="stop8" />
        </linearGradient>
    </defs>
    
    
    
    
    
    
    
    <g
   id="blackLadybug"><path
     fill="#f0f0f0"
     d="m 64.698,63.707 q 0.063,1.444 0.832,2.464 0.769,1.02 1.82,0.988 0.408,-0.016 0.769,-0.172 0.313,-0.157 0.58,-0.424 l -0.25,-1.381 q -0.597,0.58 -1.35,0.596 -1.052,0.032 -1.82,-0.988 -0.377,-0.487 -0.581,-1.083 m -6.936,12.192 -0.69,-1.177 -0.628,0.377 1.318,2.385 z m -11.768,3.438 q 0.33,-0.173 0.612,-0.471 0.188,-0.204 0.33,-0.44 0.439,-0.753 0.297,-1.773 -0.062,-0.439 -0.22,-0.863 -0.015,0.989 -0.658,1.695 -0.283,0.298 -0.612,0.47 z m -8.724,1.616 q -0.11,0.172 -0.517,0.58 -0.832,0.754 -0.863,1.726 -0.047,1.005 -1.444,-0.172 l -0.251,0.753 q 0.063,0.47 0.251,1.38 l 0.156,-1.223 q 0.282,0.314 0.533,0.533 1.067,0.88 1.538,-0.125 -0.141,-0.22 -0.172,-0.424 -0.095,-0.533 0.502,-1.067 0.408,-0.408 0.894,-0.659 -0.486,-0.737 0.58,-1.726 0.503,-0.486 1.068,-0.816 l -0.487,-0.33 Q 38.87,79.29 38.54,78.866 q -0.156,0.125 -0.706,0.769 -0.549,0.627 -0.565,1.318 m 0.88,-5.116 0.658,0.738 2.48,1.57 -0.55,-1.9 -1.27,-0.91 z M 36.988,48.252 q -0.126,-0.267 -0.235,-0.533 v 0.517 q 0.157,0.738 0.486,1.397 0.91,1.977 4.127,2.385 1.647,0.173 3.044,0 L 57.104,74.77 V 73.139 L 44.017,49.787 q -0.202,0.165 -0.345,0.472 -0.146,0.322 0.03,0.69 -2.305,0.376 -4.126,-0.628 -1.914,-0.612 -2.589,-2.07 m 10.23,16.663 v -0.047 q -0.03,-0.36 -0.14,-0.737 -0.048,-0.173 -0.11,-0.33 -0.032,0.8 -0.502,1.46 -0.11,0.156 -0.236,0.282 -0.063,0.078 -0.141,0.141 -0.706,0.644 -1.852,0.706 -1.176,0.063 -2.26,-0.518 -0.187,-0.094 -0.36,-0.204 -0.126,-0.078 -0.235,-0.156 -0.377,-0.267 -0.675,-0.581 -0.22,-0.22 -0.392,-0.44 -0.361,-0.486 -0.565,-1.05 -0.016,0.266 0.031,0.548 0.031,0.236 0.11,0.503 0.204,0.753 0.675,1.38 0.172,0.22 0.392,0.44 0.298,0.314 0.675,0.58 0.11,0.079 0.235,0.157 0.173,0.11 0.36,0.204 1.084,0.58 2.26,0.518 1.146,-0.063 1.852,-0.706 0.079,-0.063 0.141,-0.141 0.126,-0.126 0.236,-0.283 0.549,-0.769 0.502,-1.726 m 6.967,-8.128 q 0,0.11 0.015,0.22 l 0.063,0.408 q 0.173,1.192 0.926,2.102 0.094,0.11 0.188,0.204 0.298,0.314 0.644,0.534 0.376,0.235 0.8,0.33 0.11,0.015 0.188,0.015 0.188,0.032 0.377,0.032 0.282,0 0.549,-0.063 0.031,-0.016 0.078,-0.016 0.55,-0.141 1.02,-0.533 l 0.032,-0.032 q 0.266,-0.22 0.502,-0.533 0.8,-1.052 0.831,-2.495 v -0.283 q -0.015,-0.8 -0.25,-1.49 v 0.392 q -0.032,1.444 -0.832,2.495 -0.236,0.314 -0.502,0.533 l -0.032,0.032 q -0.47,0.392 -1.02,0.533 -0.047,0 -0.078,0.016 -0.267,0.063 -0.55,0.063 -0.188,0 -0.376,-0.032 -0.078,0 -0.188,-0.015 -0.424,-0.095 -0.8,-0.33 -0.346,-0.22 -0.644,-0.533 -0.094,-0.095 -0.188,-0.204 -0.502,-0.612 -0.753,-1.35"
     style="stroke-width:0.313827"
     id="path8" /><path
     fill="#f0f0f0"
     d="m 79.809,58.953 q 0,-0.299 -0.346,-0.393 l -1.475,-0.25 q 0.581,1.788 -0.376,1.568 -0.33,-0.753 -1.49,-0.502 l -0.864,0.157 q -0.549,-0.22 -1.851,-0.157 l -0.597,0.236 q -0.266,0.094 -0.314,0.062 -0.533,-0.91 -0.988,-1.945 L 69.86,54.841 68.087,54.528 q 0.126,0.674 0.22,1.365 l 1.804,0.33 1.648,2.886 q 0.204,0.456 0.33,0.785 l 0.03,0.063 v 0.016 q 0.22,0.58 0.22,0.784 v 0.58 l 1.319,-0.58 q 1.02,-0.235 1.475,0.094 0.157,0.11 0.25,0.314 l 0.99,-0.408 q 0.752,-0.157 1.16,0.094 0.22,0.141 0.33,0.408 1.004,0.126 0.91,-1.098 -0.031,-0.377 -0.173,-0.879 l 1.162,0.487 q 0.188,0.172 0.266,0.36 z m -67.395,-23.804 -1.38,0.172 -0.503,1.68 -1.631,0.235 v 0.863 l 2.15,0.33 0.235,-1.727 h 1.412 q 0.737,-0.988 2.793,-0.831 0.173,0.031 0.36,0.062 l 0.44,0.095 q 0.565,0.125 1.099,0.266 l 5.601,6.59 1.067,-0.25 -0.25,-0.738 1.412,-0.172 0.156,0.078 q -0.313,-0.675 -0.486,-1.444 l -1.334,0.157 v 0.487 l -0.816,0.502 -5.602,-6.59 q -0.91,-0.252 -1.898,-0.424 -2.056,-0.157 -2.825,0.659 m 12.71,-2.4 -0.58,2.4 q -0.314,2.37 0.188,4.174 -0.141,-1.287 0.063,-2.793 l 0.58,-2.401 q 0.252,-1.051 1.428,-1.789 0.267,-0.173 0.455,-0.251 -0.486,-0.565 -0.753,-1.098 -1.13,0.721 -1.38,1.757 m 23.724,-13.901 -0.063,-0.032 -1.004,0.66 1.318,0.752 q 1.067,3.186 1.506,4.99 0.173,-2.275 -1.145,-5.382 l -0.267,0.031 q -0.173,-0.486 -0.345,-1.02 m -2.385,-0.423 0.25,1.38 q 0.33,-1.082 0.66,-1.882 0.91,-1.899 2.055,-1.977 l 0.753,-1.161 1.648,0.659 0.816,-2.056 0.33,1.397 0.659,-0.408 -0.252,-1.381 -0.47,-0.393 h -0.534 l -0.8,0.958 h -1.553 l -0.848,1.004 q -1.145,0.078 -2.055,1.977 -0.408,0.988 -0.66,1.883 m -10.7,-3.029 q 0.266,-0.564 0.988,-0.11 0.235,0.173 0.643,0.707 0,-1.412 -0.847,-1.82 -0.644,-0.283 -0.832,-0.063 -0.204,0.204 -0.078,0.722 z M 31.37,33.832 q -0.267,0.659 -1.209,1.16 l -0.988,1.727 q -0.753,0.251 -1.49,0.502 -1.476,0.66 -1.57,1.146 -0.204,-0.048 -0.33,-0.346 0.063,0.408 0.142,0.958 0.11,0.69 0.439,0.768 0.094,-0.486 1.57,-1.145 0.737,-0.251 1.49,-0.502 l 0.988,-1.726 q 1.758,-0.926 1.146,-2.48 z m 28.558,2.809 -0.189,-0.346 -2.479,-1.49 -0.91,-0.157 0.173,0.659 q 8.834,5.147 11.376,18.186 -1.836,-11.125 -7.971,-16.852 m 1.93,6.778 q -0.032,-0.69 -0.251,-1.27 0,1.302 -0.738,2.259 -0.11,0.14 -0.204,0.266 -0.267,0.267 -0.549,0.456 -0.078,0.047 -0.141,0.094 -0.44,0.22 -0.957,0.235 -0.33,0.016 -0.628,-0.063 -0.706,-0.188 -1.271,-0.863 -0.392,-0.455 -0.596,-1.004 v 0.047 q 0.031,1.365 0.847,2.338 0.565,0.675 1.271,0.863 0.298,0.079 0.628,0.063 0.518,-0.016 0.957,-0.236 0.063,-0.047 0.141,-0.094 0.283,-0.188 0.55,-0.455 0.093,-0.125 0.203,-0.266 0.77,-0.989 0.738,-2.37"
     style="stroke-width:0.313827"
     id="path9" /><path
     fill="#f0f0f0"
     d="m 24.967,52.268 q -0.11,1.161 0.252,2.762 0.266,1.24 0.815,2.73 -0.156,-0.675 -0.25,-1.35 -0.016,-0.046 -0.016,-0.078 v -0.016 q -0.016,-0.047 -0.016,-0.094 v -0.031 q -0.047,-0.126 -0.047,-0.283 -0.016,-0.047 -0.016,-0.094 h 0.016 L 25.689,55.799 Q 25.642,55.422 25.611,55.029 25.517,53.9 25.548,52.77 Z m 11.454,20.713 -0.314,0.957 0.236,1.318 0.659,-1.805 q -0.298,-0.235 -0.58,-0.47 m 9.477,-23.098 0.235,1.24 q 1.02,-1.413 1.57,-2.637 1.098,-2.463 0.439,-4.064 -0.016,1.177 -0.69,2.684 -0.032,0.062 -0.048,0.125 -0.252,0.578 -0.643,1.318 -0.375,0.74 -0.863,1.334 m -6.355,-6.512 -0.393,-0.47 q -0.36,1.066 -1.506,2.965 l 0.251,1.38 q 1.742,-2.933 1.648,-3.875 m -5.178,18.422 q 0.816,-0.863 0.627,-2.228 -0.063,-0.44 -0.22,-0.832 -0.015,0.988 -0.658,1.679 -0.816,0.863 -2.166,0.753 -1.365,-0.11 -2.448,-1.145 -0.298,-0.267 -0.518,-0.565 -0.062,-0.063 -0.094,-0.126 -0.266,-0.376 -0.423,-0.769 l -0.016,0.361 q 0,0.063 0.016,0.126 0.047,0.282 0.125,0.549 0.173,0.58 0.55,1.114 0.03,0.063 0.094,0.126 0.22,0.298 0.517,0.564 1.083,1.036 2.448,1.146 1.35,0.11 2.166,-0.753 M 14.752,50.636 q -0.423,0.298 -0.266,0.77 l 0.22,1.207 q -0.048,-0.33 0.25,-0.565 0.016,-0.015 0.047,-0.031 0.346,-0.173 0.785,-0.204 0.173,-0.031 0.36,-0.031 -0.062,0.235 -0.109,0.439 -0.078,0.377 -0.047,0.659 0.047,0.91 0.989,0.957 0.062,-0.141 0.156,-0.235 0.393,-0.408 1.319,-0.016 0.282,0.141 0.564,0.345 0.22,0.142 0.424,0.314 0.079,-0.157 0.22,-0.235 0.44,-0.267 1.506,0.235 0.47,0.204 0.863,0.44 0.236,0.14 0.455,0.298 v -0.565 q -0.078,-0.33 0.502,-1.49 l 1.475,-2.559 h 1.24 q 0.251,-1.318 0.58,-2.542 l 0.33,-0.91 0.33,-0.172 v -0.079 l 2.887,-1.145 q 1.726,0.737 5.35,0 l 0.408,-0.173 q 0.864,-0.596 1.381,-0.816 l 0.016,-0.063 q 0.424,-0.753 0.424,-1.16 v -0.048 q -0.722,0.204 -1.726,0.518 -0.063,0.016 -0.11,0.031 -1.475,0.424 -2.715,0.644 -2.29,0.423 -3.766,0.157 H 29 q -0.502,0.125 -1.051,0.188 l -1.255,0.486 v 0.079 l -0.33,0.172 -0.33,0.91 q -0.329,1.225 -0.58,2.543 h -1.24 q -0.345,-0.11 -0.847,0.486 -1.648,2.62 -1.287,4.017 -0.533,-0.33 -1.302,-0.518 -0.91,-0.22 -1.57,-0.282 -0.36,0.031 -1.145,-0.283 -0.8,-0.33 -1.333,0.047 0.345,-1.647 -0.848,-1.914 -0.643,-0.141 -1.13,0.094 M 60.979,29.704 q 0.157,-1.24 0.894,-1.161 0.456,-0.848 -0.376,-1.381 -0.628,0.031 -0.769,1.161 -0.094,0.565 -0.298,0.879 -0.455,0.188 -0.706,1.757 -0.079,0.816 -0.487,1.052 v 0.172 q -0.25,-0.157 -1.49,-0.33 l -3.044,-0.078 -0.581,1.067 q -1.318,-0.486 -2.464,-0.816 l -0.988,-0.172 -0.33,0.172 -2.134,1.507 -0.25,0.282 q -0.126,0.33 -0.299,0.675 -1.02,2.008 -3.829,4.676 l -0.14,0.141 q -0.424,0.408 -0.77,0.753 -0.737,0.706 -1.13,1.13 -0.439,0.44 -0.502,0.534 l 0.157,0.58 q 0.832,0.58 4.206,0.58 l 0.408,0.409 q 0.89,1.08 1.082,1.663 0.051,0.155 0.079,0.251 -0.007,-0.72 -0.283,-1.49 -0.282,-0.754 -1.004,-1.664 l -0.125,-0.078 q -0.565,-0.182 -1.224,-0.173 -0.832,0 -1.24,-0.157 -0.173,-0.094 -0.173,-0.22 0,-0.376 1.318,-1.035 l 0.503,-0.236 0.33,-0.235 q 2.557,-2.887 2.714,-4.707 l 2.557,-1.805 0.33,-0.173 0.988,0.173 q 1.146,0.33 2.464,0.816 l 0.58,-1.067 3.045,0.078 q 1.24,0.173 1.49,0.33 l 0.455,0.314 h 0.032 q -0.079,-0.785 0,-1.538 0.25,-1.569 1.004,-1.49 -0.094,-0.581 0,-1.146"
     style="stroke-width:0.313827"
     id="path10" /><path
     fill="#f0f0f0"
     d="m 47.924,26.942 -0.8,0.879 q -1.318,-1.899 -4.206,-3.123 l -2.542,-0.91 q -0.753,-0.172 -2.244,0.77 -0.768,-1.821 -1.945,-2.323 l -0.267,1.208 q 1.522,0.283 2.464,2.495 1.49,-0.941 2.243,-0.769 l 2.542,0.91 q 2.888,1.224 4.206,3.123 l 0.831,-1.067 0.487,0.58 0.737,-0.831 -0.408,-1.208 -0.596,0.266 z m -11.25,-9.195 -0.315,-0.675 q -0.392,2.982 -2.165,5.147 l -0.078,0.079 q -1.413,-0.079 -2.637,0 -1.49,0.172 -1.82,0.423 -0.486,0.157 -1.24,1.318 l -1.395,2.308 q -3.719,1.38 -6.512,-0.989 l -0.91,-1.412 q -0.33,-0.408 -0.659,-0.565 -0.659,-0.33 -0.565,0.738 l 0.235,0.737 q 0.016,0.032 0.048,0.063 0.11,-0.376 0.533,-0.157 0.33,0.157 0.66,0.565 l 0.91,1.412 q 2.73,1.428 5.146,1.177 0.36,-0.031 0.706,-0.11 l 0.33,0.079 0.33,-0.157 1.38,-2.26 0.016,-0.047 q 0.753,-1.16 1.24,-1.318 0.329,-0.25 1.82,-0.424 l 0.611,-0.03 q 0.958,-0.032 2.025,0.03 l 0.078,-0.078 0.078,-0.33 q 0.816,-0.878 1.334,-2.024 0.675,-1.522 0.816,-3.499 m 2.213,10.733 -0.502,-0.188 -1.224,0.831 1.977,0.738 q 0.831,0.502 1.16,0.988 h 2.95 q 1.366,-1.223 1.727,-1.6 v -0.643 q -0.126,-0.251 -0.47,-0.518 -0.456,0.44 -1.507,1.38 h -2.95 q -0.33,-0.486 -1.161,-0.988 m -4.66,-4.205 q -0.942,0.063 -1.35,0.282 -0.047,0.016 -0.079,0.032 l -0.172,0.33 q -0.33,1.16 1.318,1.066 1.318,-0.565 0.424,-1.726 -0.063,0 -0.142,0.016 m -4.911,2.667 q -0.063,-0.031 -0.141,-0.047 -0.298,-0.25 -0.989,0.47 -0.235,0.236 -0.502,0.597 l 0.424,0.58 q 0.565,0.503 1.318,0 0.831,-1.302 -0.11,-1.6"
     style="stroke-width:0.313827"
     id="path11" /><path
     fill="url(#bS)"
     d="m 26.944,46.745 -0.329,0.172 -0.33,0.91 q -0.329,1.224 -0.58,2.542 h -1.24 l -1.475,2.558 q -0.58,1.161 -0.502,1.49 v 0.566 q -0.22,-0.157 -0.455,-0.298 -0.392,-0.236 -0.863,-0.44 -1.067,-0.502 -1.506,-0.235 -0.141,0.078 -0.22,0.235 -0.204,-0.172 -0.424,-0.314 -0.282,-0.204 -0.564,-0.345 -0.926,-0.392 -1.319,0.016 -0.094,0.094 -0.156,0.235 -0.942,-0.047 -0.989,-0.957 -0.031,-0.282 0.047,-0.659 0.047,-0.204 0.11,-0.44 -0.188,0 -0.361,0.032 -0.44,0.031 -0.785,0.204 -0.03,0.016 -0.047,0.031 -0.298,0.236 -0.25,0.565 0.062,0.471 0.862,1.146 l 1.318,0.988 q 1.57,0.816 2.73,0.487 l 1.225,0.659 q 1.318,0.502 2.07,-0.157 l 1.727,0.33 0.078,-2.888 0.251,-0.91 0.581,0.502 q -0.031,1.13 0.063,2.26 0.031,0.392 0.078,0.769 l 0.016,0.015 h -0.016 q 0,0.047 0.016,0.094 0,0.157 0.047,0.283 v 0.031 q 0,0.047 0.016,0.094 v 0.016 q 0,0.032 0.015,0.079 0.095,0.674 0.251,1.349 l 0.032,0.126 q 1.867,7.924 10.356,15.095 0.283,0.235 0.58,0.47 l -0.658,1.805 1.647,2.809 q 0.314,0.486 0.55,0.8 0.329,0.424 0.517,0.518 l 0.487,0.33 q -0.565,0.329 -1.067,0.815 -1.067,0.989 -0.58,1.726 -0.487,0.251 -0.895,0.66 -0.597,0.533 -0.502,1.066 0.031,0.204 0.172,0.424 -0.47,1.004 -1.538,0.125 -0.25,-0.22 -0.533,-0.533 l -0.157,1.224 q 0.157,1.161 1.648,0.424 2.557,-0.989 2.714,-2.966 1.977,-1.318 1.57,-2.966 l 0.91,-1.569 -2.48,-1.57 -0.659,-0.737 1.318,-0.502 1.271,0.91 q -0.015,-0.078 -0.031,-0.14 -0.188,-1.335 0.628,-2.198 0.815,-0.878 2.165,-0.768 1.365,0.094 2.463,1.13 0.738,0.69 1.052,1.521 0.157,0.424 0.22,0.863 0.14,1.02 -0.299,1.774 -0.14,0.235 -0.33,0.439 -0.282,0.298 -0.611,0.47 7.704,3.296 11.768,-1.851 l -1.318,-2.385 0.628,-0.377 0.031,0.047 -12.694,-22.752 q -1.397,0.173 -3.044,0 -3.217,-0.408 -4.127,-2.385 -0.33,-0.66 -0.486,-1.397 v -1.16 l 0.486,-1.225 q 0.424,-0.753 0.424,-1.16 0.047,-0.487 -0.69,-0.158 -0.518,0.22 -1.382,0.816 l -0.407,0.173 q -3.625,0.737 -5.351,0 l -2.887,1.145 z m 20.274,18.122 v 0.047 q 0.047,0.957 -0.502,1.726 -0.11,0.157 -0.236,0.283 -0.062,0.078 -0.141,0.141 -0.706,0.643 -1.852,0.706 -1.176,0.063 -2.26,-0.518 -0.187,-0.094 -0.36,-0.204 -0.126,-0.078 -0.235,-0.157 -0.377,-0.266 -0.675,-0.58 -0.22,-0.22 -0.392,-0.44 -0.471,-0.627 -0.675,-1.38 -0.079,-0.267 -0.11,-0.503 -0.047,-0.282 -0.031,-0.549 0,-0.392 0.125,-0.753 0.11,-0.36 0.345,-0.69 0.283,-0.393 0.66,-0.644 l -0.016,-0.015 h 0.031 q 0.644,-0.44 1.585,-0.487 1.49,-0.078 2.84,0.895 1.193,0.847 1.648,2.055 0.062,0.157 0.11,0.33 0.11,0.376 0.14,0.737 M 34.994,59.565 q 0.189,1.365 -0.627,2.228 -0.816,0.863 -2.166,0.753 -1.365,-0.11 -2.448,-1.146 -0.298,-0.266 -0.517,-0.564 -0.063,-0.063 -0.095,-0.126 -0.376,-0.533 -0.549,-1.114 -0.078,-0.267 -0.125,-0.55 -0.016,-0.062 -0.016,-0.125 l 0.016,-0.36 0.015,-0.566 q 0.126,-0.674 0.597,-1.176 0.298,-0.314 0.674,-0.503 0.236,-0.11 0.487,-0.172 0.063,-0.032 0.141,-0.032 0.408,-0.078 0.879,-0.047 1.365,0.11 2.463,1.13 0.738,0.706 1.052,1.538 0.156,0.392 0.22,0.832"
     style="fill:url(#a);stroke-width:0.313827"
     id="path12" /><path
     fill="url(#bU)"
     d="m 35.764,15.393 q 0,0.314 0.156,0.785 l 0.44,0.894 0.313,0.675 q -0.141,1.977 -0.816,3.5 -0.518,1.145 -1.334,2.024 L 34.445,23.6 34.367,23.678 Q 33.3,23.616 32.342,23.648 l -0.612,0.03 q -1.49,0.173 -1.82,0.424 -0.486,0.157 -1.24,1.318 l -0.015,0.047 -1.38,2.26 -0.33,0.157 -0.33,-0.079 q -0.345,0.079 -0.706,0.11 -2.417,0.251 -5.147,-1.177 l -0.91,-1.412 q -0.33,-0.408 -0.659,-0.565 -0.424,-0.22 -0.533,0.157 -0.063,0.204 -0.032,0.58 l 0.236,0.738 q 0.502,0.738 1.412,0.91 l 5.931,1.899 q -0.047,0.173 -0.063,0.345 -0.078,0.738 0.361,1.6 0.267,0.534 0.753,1.099 -0.188,0.078 -0.455,0.251 -1.176,0.738 -1.428,1.789 l -0.58,2.4 q -0.204,1.507 -0.063,2.794 0.047,0.533 0.157,1.035 0.173,0.77 0.486,1.444 l -0.156,-0.079 -1.413,0.173 0.251,0.738 -1.067,0.25 -5.601,-6.59 q -0.534,-0.14 -1.099,-0.266 l -0.44,-0.095 q -0.187,-0.031 -0.36,-0.062 -2.056,-0.157 -2.793,0.831 h -1.413 l -0.236,1.726 -2.15,-0.33 0.99,0.99 -0.66,0.407 q 3.295,1.24 4.535,-1.145 l 2.793,-1.24 -0.079,1.49 q 4.614,5.352 5.445,5.18 l 2.385,0.752 q 2.025,0.424 3.64,0.267 0.55,-0.063 1.052,-0.188 h 0.094 q 1.475,0.266 3.766,-0.157 1.24,-0.22 2.715,-0.644 0.047,-0.015 0.11,-0.03 1.004,-0.315 1.726,-0.519 1.35,-0.376 1.726,-0.376 l 0.015,0.015 0.393,0.471 q 0.094,0.942 -1.648,3.876 l 0.173,0.58 q 0.33,1.067 1.035,1.93 l 0.471,0.565 q 1.821,1.004 4.127,0.628 -0.177,-0.368 -0.031,-0.69 0.143,-0.307 0.345,-0.471 0.718,-0.408 1.082,-0.361 0.368,0.043 0.707,0.377 l 0.094,0.078 q 0.488,-0.593 0.863,-1.334 0.39,-0.74 0.643,-1.318 0.188,-0.973 -0.188,-2.008 V 45.207 Q 47.19,45.111 47.138,44.956 46.946,44.373 46.056,43.293 l -0.408,-0.408 q -3.374,0 -4.206,-0.58 l -0.157,-0.581 q 0.063,-0.095 0.503,-0.534 0.392,-0.424 1.13,-1.13 0.345,-0.345 0.768,-0.753 l 0.141,-0.141 q 2.81,-2.668 3.83,-4.676 0.172,-0.345 0.297,-0.675 l 0.251,-0.282 q 1.93,-2.26 2.542,-6.057 0.298,-0.345 -0.14,-2.26 -0.44,-1.804 -1.507,-4.99 l -1.318,-0.753 1.004,-0.659 1.553,-1.067 q 1.648,0.079 2.636,-1.647 0.503,-0.816 0.66,-1.726 l -0.66,0.408 -0.329,-1.397 -0.816,2.056 -1.648,-0.66 -0.753,1.162 q -1.145,0.078 -2.055,1.977 -0.33,0.8 -0.66,1.883 l 2.307,6.873 0.408,1.208 -0.737,0.831 -0.487,-0.58 -0.831,1.067 q -1.318,-1.899 -4.206,-3.123 l -2.542,-0.91 q -0.753,-0.172 -2.243,0.769 -0.942,-2.212 -2.464,-2.495 l 0.267,-1.208 1.051,-4.739 q 0.455,-1.098 0.157,-1.506 -0.408,-0.534 -0.643,-0.706 -0.722,-0.455 -0.989,0.11 m -6.59,11.501 q 0.078,0.016 0.141,0.047 0.941,0.298 0.11,1.6 -0.753,0.503 -1.318,0 l -0.424,-0.58 q 0.267,-0.36 0.502,-0.596 0.69,-0.722 0.989,-0.47 m 3.703,-2.339 q 0.408,-0.22 1.35,-0.282 0.078,-0.016 0.14,-0.016 0.895,1.161 -0.423,1.726 -1.648,0.094 -1.318,-1.067 l 0.172,-0.33 q 0.032,-0.015 0.079,-0.03 m -7.171,11.327 q 0.063,-0.894 0.926,-1.694 0.863,-0.832 2.26,-0.863 0.815,-0.032 1.02,-0.047 l 1.459,0.549 0.188,0.063 q 0.612,1.553 -1.146,2.479 l -0.988,1.726 q -0.753,0.25 -1.49,0.502 -1.476,0.659 -1.57,1.145 -0.33,-0.078 -0.44,-0.768 -0.078,-0.55 -0.14,-0.958 -0.063,-0.486 -0.095,-0.753 -0.062,-0.502 0.016,-1.38 m 17.621,-8.427 q 0.753,0.314 1.177,0.628 0.345,0.266 0.47,0.518 v 0.643 q -0.36,0.376 -1.725,1.6 h -2.95 q -0.33,-0.486 -1.161,-0.988 l -1.977,-0.738 q 0.737,-0.502 1.224,-0.831 0.737,-0.487 0.91,-0.565 0.298,-0.126 1.051,-0.644 0.753,-0.517 2.981,0.377"
     style="fill:url(#b);stroke-width:0.313827"
     id="path13" /><path
     fill="url(#c)"
     d="m 62.532,27.303 q -0.047,-0.298 -0.11,-0.518 -0.345,-1.16 -1.035,-0.91 -0.047,0.016 -0.078,0.032 l -0.832,0.831 q 0.643,0.173 1.02,0.424 0.832,0.533 0.376,1.38 -0.737,-0.078 -0.894,1.162 -0.094,0.565 0,1.145 -0.753,-0.078 -1.004,1.491 -0.079,0.753 0,1.538 v 0.016 l -0.032,-0.016 -0.455,-0.314 q -0.25,-0.157 -1.49,-0.33 l -3.044,-0.078 -0.581,1.067 q -1.318,-0.486 -2.464,-0.816 l -0.988,-0.172 -0.33,0.172 -2.557,1.805 q -0.157,1.82 -2.715,4.707 l -0.33,0.235 -0.502,0.236 q -1.318,0.659 -1.318,1.035 0,0.126 0.173,0.22 0.408,0.157 1.24,0.157 0.659,-0.009 1.224,0.173 l 0.125,0.078 0.863,0.58 q 0.66,0.487 0.989,1.146 0.22,0.298 0.36,0.643 0.66,1.6 -0.439,4.064 -0.549,1.224 -1.569,2.637 l 12.851,22.658 0.66,-0.502 1.333,2.385 q 6.59,-0.769 7.72,-9.101 -0.267,0.267 -0.58,0.424 -0.361,0.156 -0.77,0.172 -1.05,0.032 -1.82,-0.988 -0.768,-1.02 -0.831,-2.464 v -0.063 q -0.047,-1.506 0.675,-2.573 0.706,-1.083 1.757,-1.114 0.33,-0.016 0.628,0.094 0.235,0.063 0.47,0.22 0.283,0.172 0.55,0.486 l -0.142,-1.899 1.146,-0.816 0.25,0.989 0.174,2.887 1.726,0.079 q 1.24,1.24 3.295,0.157 1.804,0.91 3.954,-0.738 0.863,-0.565 0.879,-1.067 0,-0.11 -0.032,-0.22 -0.078,-0.188 -0.266,-0.36 L 78.6,59.282 q 0.142,0.502 0.173,0.879 0.094,1.224 -0.91,1.098 -0.11,-0.267 -0.33,-0.408 -0.408,-0.25 -1.16,-0.094 l -0.99,0.408 q -0.093,-0.204 -0.25,-0.314 -0.455,-0.33 -1.475,-0.094 l -1.318,0.58 v -0.58 q 0,-0.204 -0.22,-0.784 v -0.016 l -0.031,-0.063 q -0.126,-0.33 -0.33,-0.785 l -1.648,-2.887 -1.804,-0.33 q -0.094,-0.69 -0.22,-1.364 -0.094,-0.534 -0.188,-1.036 -2.542,-13.04 -11.376,-18.186 l -0.173,-0.66 0.91,0.158 2.48,1.49 0.737,-1.741 q 1.396,-0.408 1.24,-3.045 1.396,-1.24 0.815,-4.205 m -2.698,12.961 q 0.235,0.063 0.439,0.204 0.063,0 0.11,0.063 0.314,0.22 0.612,0.55 0.392,0.47 0.612,1.066 0.22,0.58 0.25,1.271 0.032,1.381 -0.737,2.37 -0.11,0.14 -0.204,0.266 -0.266,0.267 -0.549,0.455 -0.078,0.047 -0.141,0.095 -0.44,0.22 -0.957,0.235 -0.33,0.016 -0.628,-0.063 -0.706,-0.188 -1.271,-0.863 -0.816,-0.973 -0.847,-2.338 v -0.314 q 0.015,-0.204 0.047,-0.392 -0.016,-0.078 0.015,-0.141 0.095,-0.597 0.361,-1.099 0.126,-0.22 0.283,-0.439 0.016,-0.031 0.063,-0.078 l 0.627,-0.581 q 0.487,-0.33 1.036,-0.36 0.063,-0.017 0.125,-0.017 0.393,-0.015 0.754,0.11 m -0.926,13.102 q 0.267,0.22 0.518,0.534 0.455,0.565 0.706,1.24 l 0.015,0.015 v 0.032 q 0.236,0.69 0.251,1.49 v 0.283 q -0.03,1.443 -0.831,2.495 -0.236,0.314 -0.502,0.533 l -0.032,0.032 q -0.47,0.392 -1.02,0.533 -0.047,0 -0.078,0.016 -0.267,0.063 -0.55,0.063 -0.188,0 -0.376,-0.032 -0.078,0 -0.188,-0.016 -0.424,-0.094 -0.8,-0.329 -0.346,-0.22 -0.644,-0.534 -0.094,-0.094 -0.188,-0.204 -0.753,-0.91 -0.926,-2.102 L 54.2,57.007 q -0.015,-0.11 -0.015,-0.22 v -0.063 q -0.016,-0.455 0.062,-0.863 0.048,-0.298 0.11,-0.58 0.063,-0.251 0.173,-0.47 0.188,-0.44 0.486,-0.817 l 0.236,-0.298 0.125,-0.126 q 0.377,-0.376 0.8,-0.58 0.126,-0.063 0.267,-0.11 0.345,-0.125 0.753,-0.125 0.079,0 0.157,0.015 0.393,0.016 0.738,0.141 l 0.031,0.016 q 0.408,0.141 0.785,0.44"
     style="fill:url(#c);stroke-width:0.313827"
     id="path14" /><path
     d="m 61.058,24.526 -0.832,0.831 0.25,1.381 0.833,-0.831 q 0.031,-0.016 0.078,-0.032 0.69,-0.25 1.036,0.91 -0.047,-0.408 -0.142,-0.863 -0.33,-1.804 -1.223,-1.396"
     style="stroke-width:0.313827"
     id="path15" /></g>
</svg>
