<svg xmlns="http://www.w3.org/2000/svg" xml:space="preserve" id="svg93" width="94.184" height="109.117" preserveAspectRatio="none" version="1.1">
    <g id="last_move_to">
      <path id="path55-4" fill="url(#c)" d="M90.782 25.17q-.887-1.012-2.46-2.025-9.218-5.759-18.186-11.17Q52.485 1.069 51.515.703q-3.246-1.187-6.86-.367-1.924.454-3.162 1.292-2.108 1.186-18.354 10.803Q5.488 22.97 4.785 23.512 2.058 25.816.82 29.48.3 31.313.3 33.32.217 39.865.2 45.432L0 74.769q.033 2.478.117 2.897.4 1.702 1.104 3.142.856 1.747 2.159 3.106.87.995 2.46 2.007 35.301 21.903 36.807 22.444 3.514 1.291 6.843.366 1.84-.453 3.162-1.274 35.67-20.977 36.641-21.815l.084-.087q2.727-2.287 3.948-5.952.536-1.745.536-3.857.167-11.274.267-21.99.017-1.36.05-2.652v-9.32q.034-9.65-.15-10.384-.87-3.752-3.246-6.23" style="fill:#d33682;stroke-width:.341757"/>
    </g>
</svg>
