<svg xmlns="http://www.w3.org/2000/svg" width="332" height="359" preserveAspectRatio="none">
  <g id="shadow">
    <defs>
        <filter id="a" width="140%" height="140%" x="-20%" y="-20%" color-interpolation-filters="sRGB">
            <feColorMatrix in="SourceGraphic" result="result1" values="1 0 0 0 0 0 1 0 0 0 0 0 1 0 0 0 0 0 0.6080000000000001 0"/>
        </filter>
    </defs>
    <g filter="url(#a)" transform="translate(0 .6)scale(.87152)">
        <path fill-opacity=".004" d="m339.45 73.8-.55-.35q-27.75-16.65-54.75-32.2l.2.05Q224 5.55 220.3 5.05l-.45-.15q-22.45-8.15-47.4-2.7l-.4.1Q157.3 5.6 147.7 12q-10.35 5.7-53.45 30.15l-.2.1Q36.55 75.2 34.4 77.15q-.8.65-1.75 1.35-18.9 15-27.35 39.1-.45 1.3-.8 2.45Q1.05 131.7.9 144.4v.65Q.65 163.6.6 179.4L0 263.45v1.05q.2 15.15 1.4 17.7l.4 1.7q5.9 24.15 21.8 40.1 6.2 7.05 17.55 14l.5.3q112.3 66.8 119.05 68.55 25.1 8.75 48.9 2.25 13-3.2 22.35-8.95 113.2-63.85 115.95-67.05.25-.2.45-.4 18.5-14.95 26.8-38.8.2-.7.4-1.15 3.85-11.5 3.95-25.35v-.8q.5-32.05.8-62.5.05-3.5.15-6.75V169.3q.15-39.05-2.05-42.25-5.9-23.5-21.45-39.2-6.3-7.15-17.5-14.05m-1.4 1.05.55.35q10.95 6.75 17.15 13.8 15.4 15.55 21.15 38.9l-.1-.45q2.15 2.9 2 41.85v28q-.1 3.3-.15 6.8-.3 30.45-.8 62.5v.75q-.1 13.6-3.85 24.9-.2.4-.4 1.1-8.15 23.4-26.3 38.1-.2.15-.45.4-2.75 3.15-115.5 66.75-9.1 5.6-21.6 8.75-23.6 6.65-48.5-2.05-6.75-1.8-118.75-68.4l-.45-.3q-11.3-6.9-17.4-13.9-15.5-15.6-21.25-39.2-.2-.85-.4-1.65-1.15-2.5-1.35-17.35v-1.05l.6-84.05q.05-15.8.3-34.35v-.65q.15-12.5 3.5-23.9.35-1.1.8-2.35Q15.15 94.5 33.7 79.8q.9-.7 1.7-1.35 2.1-1.95 59.5-34.75l.15-.1q43-24.4 53.4-30.15 9.45-6.3 23.95-9.55l.4-.1q24.5-5.35 46.5 2.65l.45.15q3.7.55 63.75 36.15 26.9 15.55 54.55 32.1"/>
        <path fill-opacity=".016" d="m338.6 75.2-.55-.35Q310.4 58.3 283.5 42.75 223.45 7.15 219.75 6.6l-.45-.15q-22-8-46.5-2.65l-.4.1q-14.5 3.25-23.95 9.55-10.4 5.75-53.4 30.15l-.15.1Q37.5 76.5 35.4 78.45q-.8.65-1.7 1.35-18.55 14.7-26.85 38.35-.45 1.25-.8 2.35-3.35 11.4-3.5 23.9v.65q-.25 18.55-.3 34.35l-.6 84.05v1.05q.2 14.85 1.35 17.35.2.8.4 1.65 5.75 23.6 21.25 39.2 6.1 7 17.4 13.9l.45.3q112 66.6 118.75 68.4 24.9 8.7 48.5 2.05 12.5-3.15 21.6-8.75 112.75-63.6 115.5-66.75.25-.25.45-.4 18.15-14.7 26.3-38.1.2-.7.4-1.1 3.75-11.3 3.85-24.9v-.75q.5-32.05.8-62.5.05-3.5.15-6.8v-28q.15-38.95-2-41.85l.1.45q-5.75-23.35-21.15-38.9-6.2-7.05-17.15-13.8m-1.4 1.1.5.3q10.6 6.5 16.6 13.25 15.15 15.2 20.9 38 2.1 2.9 1.95 41.45v27.95q-.1 3.3-.15 6.8-.3 30.5-.8 62.55v.75q-.1 13.3-3.8 24.4-.2.4-.35 1.1-7.95 22.85-25.7 37.2-.25.25-.55.5-2.75 3.15-115.9 66.95-8.7 5.25-20.6 8.25-23.05 6.45-47.4-2-5.3-.9-118.55-68.3l-.45-.25q-10.7-6.55-16.65-13.2Q10.75 306.55 5 283.1q-.2-.8-.35-1.55-1.15-2.45-1.35-17.1v-.95l.6-84.05q.05-15.85.3-34.4v-.6Q4.35 132.2 7.65 121q.35-1.05.75-2.3 8.15-23.2 26.35-37.65.9-.65 1.65-1.25 2.1-1.95 59.3-34.7l.15-.05q43.5-24.7 53.6-30.3 9.2-6.1 23.3-9.25l.4-.1q24-5.25 45.6 2.6l.45.15q3.6.55 63.05 35.75.2.1.4.25 26.9 15.55 54.55 32.15"/>
        <path fill-opacity=".024" d="m337.7 76.6-.5-.3q-27.65-16.6-54.55-32.15-.2-.15-.4-.25Q222.8 8.7 219.2 8.15l-.45-.15q-21.6-7.85-45.6-2.6l-.4.1q-14.1 3.15-23.3 9.25-10.1 5.6-53.6 30.3l-.15.05Q38.5 77.85 36.4 79.8q-.75.6-1.65 1.25Q16.55 95.5 8.4 118.7q-.4 1.25-.75 2.3-3.3 11.2-3.45 23.45v.6q-.25 18.55-.3 34.4l-.6 84.05v.95q.2 14.65 1.35 17.1.15.75.35 1.55 5.75 23.45 21.25 38.9 5.95 6.65 16.65 13.2l.45.25q113.25 67.4 118.55 68.3 24.35 8.45 47.4 2 11.9-3 20.6-8.25 113.15-63.8 115.9-66.95.3-.25.55-.5 17.75-14.35 25.7-37.2.15-.7.35-1.1 3.7-11.1 3.8-24.4v-.75q.5-32.05.8-62.55.05-3.5.15-6.8V169.3q.15-38.55-1.95-41.45-5.75-22.8-20.9-38-6-6.75-16.6-13.25m-1.35 1.1.5.3q10.35 6.35 16.25 13 14.9 14.9 20.5 37.3 2.05 2.85 1.9 41v27.9q-.1 3.3-.15 6.85-.3 30.5-.8 62.55v.7q-.1 13.1-3.7 23.95-.2.4-.35 1.05-7.85 22.4-25.2 36.5-.3.25-.55.5-2.75 3.1-115.45 66.65-.1.05-.15.1l-.2.1q-8.5 5.1-20.05 8-22.65 6.35-46.45-1.95-5.25-.95-118.25-68.15l-.45-.25q-10.65-6.5-16.45-13.1-15.1-15.1-20.7-37.95-.2-.8-.35-1.55-1.1-2.4-1.3-16.75v-.95l.6-84.05q.05-15.85.3-34.4v-.6q.15-12 3.4-23 .3-1 .7-2.2 8-22.75 25.85-36.9.85-.65 1.55-1.25 2.15-1.9 59.2-34.55l.15-.1q43.4-24.65 53.55-30.2 9-6 22.9-9.15l.35-.05q23.55-5.15 44.7 2.5l.45.15q3.6.6 63.15 35.9l-.4-.25Q308.5 61 336.35 77.7"/>
        <path fill-opacity=".031" d="m336.85 78-.5-.3Q308.5 61 281.4 45.35l.4.25q-59.55-35.3-63.15-35.9l-.45-.15q-21.15-7.65-44.7-2.5l-.35.05q-13.9 3.15-22.9 9.15-10.15 5.55-53.55 30.2l-.15.1Q39.5 79.2 37.35 81.1q-.7.6-1.55 1.25-17.85 14.15-25.85 36.9-.4 1.2-.7 2.2-3.25 11-3.4 23v.6q-.25 18.55-.3 34.4l-.6 84.05v.95q.2 14.35 1.3 16.75.15.75.35 1.55 5.6 22.85 20.7 37.95 5.8 6.6 16.45 13.1l.45.25q113 67.2 118.25 68.15 23.8 8.3 46.45 1.95 11.55-2.9 20.05-8l.2-.1q.05-.05.15-.1Q342 332.4 344.75 329.3q.25-.25.55-.5 17.35-14.1 25.2-36.5.15-.65.35-1.05 3.6-10.85 3.7-23.95v-.7q.5-32.05.8-62.55.05-3.55.15-6.85v-27.9q.15-38.15-1.9-41-5.6-22.4-20.5-37.3-5.9-6.65-16.25-13m-1.35 1.1.5.3q10.45 6.45 16.25 13.1 14.3 14.5 19.75 36.2 2 2.8 1.85 40.6v27.85q-.1 3.35-.15 6.9-.3 30.5-.8 62.55v.7q-.1 12.8-3.65 23.45-.15.35-.3 1-7.75 22.15-24.95 36-.15.1-.3.25-2.75 3.1-115.3 66.6-8.6 5.2-20.45 8.1-21.9 5.95-44.95-2.1-5.25-.95-117.95-67.95l-.45-.25q-10.7-6.55-16.5-13.2-14.5-14.75-19.9-36.85-.2-.75-.35-1.5Q6.8 278.5 6.6 264.4v-.9l.6-84.05q.05-15.85.3-34.4v-.55q.1-11.8 3.3-22.6.35-.95.7-2.1 7.85-22.3 25.3-36.2.85-.6 1.55-1.15 2.1-1.9 59-34.45l.15-.1q43.5-24.7 53.55-30.25 8.85-5.9 22.45-8.95l.35-.05q23.05-5.05 43.8 2.5l.4.15q3.6.55 62.95 35.7 26.85 15.55 54.5 32.1"/>
        <path fill-opacity=".039" d="m336 79.4-.5-.3Q307.85 62.55 281 47q-59.35-35.15-62.95-35.7l-.4-.15q-20.75-7.55-43.8-2.5l-.35.05q-13.6 3.05-22.45 8.95Q141 23.2 97.5 47.9l-.15.1q-56.9 32.55-59 34.45-.7.55-1.55 1.15-17.45 13.9-25.3 36.2-.35 1.15-.7 2.1-3.2 10.8-3.3 22.6v.55q-.25 18.55-.3 34.4l-.6 84.05v.9q.2 14.1 1.25 16.45.15.75.35 1.5 5.4 22.1 19.9 36.85 5.8 6.65 16.5 13.2l.45.25q112.7 67 117.95 67.95 23.05 8.05 44.95 2.1 11.85-2.9 20.45-8.1 112.55-63.5 115.3-66.6.15-.15.3-.25 17.2-13.85 24.95-36 .15-.65.3-1 3.55-10.65 3.65-23.45v-.7q.5-32.05.8-62.55.05-3.55.15-6.9V169.3q.15-37.8-1.85-40.6-5.45-21.7-19.75-36.2-5.8-6.65-16.25-13.1m-1.35 1.1.45.3q9.9 6.1 15.55 12.4 14.35 14.35 19.8 35.95 1.9 3 1.75 40.15v27.85q-.1 3.3-.15 6.85-.3 30.5-.8 62.6v.65q-.1 12.55-3.55 23-.15.35-.3.95-7.55 21.65-24.35 35.2-.2.15-.4.35-2.75 3.05-114.7 66.15-8.5 5.3-20.35 8.2l-.5.1q-.1 0-.2.05-21.15 5.55-43.35-2.2-5.2-.95-117.65-67.85l-.45-.25q-10.15-6.2-15.75-12.5-14.5-14.5-19.9-36.5-.15-.75-.3-1.4-1.05-2.35-1.25-16.15v-.9l.6-84.05q.05-16.05.3-34.95.1-11.55 3.25-22.1.3-.95.65-2.05 7.7-21.85 24.8-35.45.8-.6 1.45-1.15 2.15-1.9 58.85-34.35l.15-.05q44.2-25.1 53.85-30.45 8.6-5.6 21.7-8.55l.35-.1q22.6-4.9 42.9 2.45l.4.15q3.55.55 62.65 35.55l-.4-.2q27.05 15.65 54.9 32.3"/>
        <path fill-opacity=".047" d="m335.1 80.8-.45-.3q-27.85-16.65-54.9-32.3l.4.2q-59.1-35-62.65-35.55l-.4-.15q-20.3-7.35-42.9-2.45l-.35.1q-13.1 2.95-21.7 8.55-9.65 5.35-53.85 30.45l-.15.05Q41.45 81.85 39.3 83.75q-.65.55-1.45 1.15-17.1 13.6-24.8 35.45-.35 1.1-.65 2.05-3.15 10.55-3.25 22.1-.25 18.9-.3 34.95l-.6 84.05v.9q.2 13.8 1.25 16.15.15.65.3 1.4 5.4 22 19.9 36.5 5.6 6.3 15.75 12.5l.45.25q112.45 66.9 117.65 67.85 22.2 7.75 43.35 2.2.1-.05.2-.05l.5-.1q11.85-2.9 20.35-8.2 111.95-63.1 114.7-66.15.2-.2.4-.35 16.8-13.55 24.35-35.2.15-.6.3-.95 3.45-10.45 3.55-23v-.65q.5-32.1.8-62.6.05-3.55.15-6.85V169.3q.15-37.15-1.75-40.15-5.45-21.6-19.8-35.95-5.65-6.3-15.55-12.4m-1.3 1.15.45.25q9.85 6.05 15.4 12.3 13.95 14.05 19.2 35.1 1.85 3.05 1.7 39.7v27.8q-.1 3.35-.15 6.9-.3 30.5-.8 62.6v.65q-.1 12.3-3.45 22.5-.2.35-.35.9-7.35 21.2-23.8 34.45-.2.2-.4.35-2.75 3.05-114.95 66.35-8.15 4.9-19.3 7.65-21.2 5.85-43.55-2.05l.25.1q-5.15-1-117.35-67.7l-.35-.25q-10.1-6.15-15.6-12.4-14.1-14.2-19.35-35.6-.15-.7-.3-1.35-1-2.3-1.2-15.85v-.8l.6-84.05q.05-15.85.3-34.45v-.5q.1-11.35 3.2-21.7.25-.9.6-1.95 7.55-21.4 24.3-34.7.75-.55 1.4-1.1 2.1-1.9 58.7-34.25l.1-.1q44.05-25 53.8-30.35 8.4-5.55 21.35-8.45l.3-.1q22.1-4.8 42 2.4l.4.15q3.5.6 62.35 35.45 26.85 15.55 54.5 32.1"/>
        <path fill-opacity=".055" d="m334.25 82.2-.45-.25q-27.65-16.55-54.5-32.1Q220.45 15 216.95 14.4l-.4-.15q-19.9-7.2-42-2.4l-.3.1q-12.95 2.9-21.35 8.45-9.75 5.35-53.8 30.35l-.1.1Q42.4 83.2 40.3 85.1q-.65.55-1.4 1.1-16.75 13.3-24.3 34.7-.35 1.05-.6 1.95-3.1 10.35-3.2 21.7v.5q-.25 18.6-.3 34.45l-.6 84.05v.8q.2 13.55 1.2 15.85.15.65.3 1.35 5.25 21.4 19.35 35.6 5.5 6.25 15.6 12.4l.35.25q112.2 66.7 117.35 67.7l-.25-.1q22.35 7.9 43.55 2.05 11.15-2.75 19.3-7.65 112.2-63.3 114.95-66.35.2-.15.4-.35 16.45-13.25 23.8-34.45.15-.55.35-.9 3.35-10.2 3.45-22.5v-.65q.5-32.1.8-62.6.05-3.55.15-6.9v-27.8q.15-36.65-1.7-39.7-5.25-21.05-19.2-35.1-5.55-6.25-15.4-12.3m-1.3 1.15.45.25q9.75 6.05 15.25 12.25 13.45 13.65 18.55 34.1 1.8 2.75 1.7 39.35v27.75q-.1 3.35-.15 6.95-.3 30.5-.8 62.6v.6q-.1 12.05-3.4 22.05-.15.3-.3.85-7.2 20.75-23.25 33.7-.25.2-.45.4-2.75 3-114.3 65.9-8 4.9-19.05 7.7-20.9 5.8-42.85-1.95-7.3-2.35-116.8-67.45l-.35-.25q-9.85-6-15.25-12.1-13.8-13.9-18.95-34.9l-.3-1.3q-.95-2.25-1.15-15.5v-.8l.6-84.05q.05-15.85.3-34.45v-.5q.1-11.1 3.1-21.25.3-.85.6-1.85 7.4-20.95 23.8-34 .7-.5 1.35-1 2.1-1.9 58.5-34.15l.15-.1q44.1-25.05 53.8-30.35 8.2-5.45 20.85-8.3l.3-.05q21.65-4.75 41.1 2.3l.4.15q3.5.6 61.7 35.1.15.1.35.2 26.9 15.55 54.5 32.1"/>
        <path fill-opacity=".063" d="m333.4 83.6-.45-.25q-27.6-16.55-54.5-32.1-.2-.1-.35-.2-58.2-34.5-61.7-35.1l-.4-.15q-19.45-7.05-41.1-2.3l-.3.05q-12.65 2.85-20.85 8.3-9.7 5.3-53.8 30.35l-.15.1Q43.4 84.55 41.3 86.45q-.65.5-1.35 1-16.4 13.05-23.8 34-.3 1-.6 1.85-3 10.15-3.1 21.25v.5q-.25 18.6-.3 34.45l-.6 84.05v.8q.2 13.25 1.15 15.5l.3 1.3q5.15 21 18.95 34.9 5.4 6.1 15.25 12.1l.35.25q109.5 65.1 116.8 67.45 21.95 7.75 42.85 1.95 11.05-2.8 19.05-7.7 111.55-62.9 114.3-65.9.2-.2.45-.4 16.05-12.95 23.25-33.7.15-.55.3-.85 3.3-10 3.4-22.05v-.6q.5-32.1.8-62.6.05-3.6.15-6.95V169.3q.1-36.6-1.7-39.35-5.1-20.45-18.55-34.1-5.5-6.2-15.25-12.25m-1.3 1.15.4.25q9.2 5.7 14.5 11.55 13.75 13.7 18.8 34.5l-.15-.7q1.75 2.7 1.6 38.95V197q-.1 3.35-.15 6.95-.3 30.55-.8 62.65v.55q-.05 11.8-3.3 21.6-.15.3-.3.85-7.05 20.2-22.7 32.9-.25.2-.5.45-2.8 2.95-114.4 65.9-7.85 4.75-18.6 7.4-20.25 5.55-41.6-1.95l.25.1Q160 393.35 48.4 326.95l-.35-.2q-9.65-5.9-14.85-11.8-13.55-13.6-18.6-34.2-.15-.65-.25-1.25-.95-2.2-1.15-15.2v-.75l.6-84.05q.05-15.85.3-34.45v-.45q.1-10.9 3.05-20.8.25-.85.6-1.8 7.2-20.5 23.2-33.25.7-.5 1.3-1 2.15-1.85 58.4-34.05l.1-.05q44.85-25.5 54.1-30.55 7.95-5.2 20.1-7.95l.3-.05q21.15-4.65 40.2 2.25l.35.15q3.5.65 61.5 35 27 15.6 54.8 32.25"/>
        <path fill-opacity=".071" d="m332.5 85-.4-.25Q304.3 68.1 277.3 52.5q-58-34.35-61.5-35l-.35-.15q-19.05-6.9-40.2-2.25l-.3.05q-12.15 2.75-20.1 7.95-9.25 5.05-54.1 30.55l-.1.05Q44.4 85.9 42.25 87.75q-.6.5-1.3 1-16 12.75-23.2 33.25-.35.95-.6 1.8-2.95 9.9-3.05 20.8v.45q-.25 18.6-.3 34.45l-.6 84.05v.75q.2 13 1.15 15.2.1.6.25 1.25 5.05 20.6 18.6 34.2 5.2 5.9 14.85 11.8l.35.2q111.6 66.4 116.75 67.45l-.25-.1q21.35 7.5 41.6 1.95 10.75-2.65 18.6-7.4 111.6-62.95 114.4-65.9.25-.25.5-.45 15.65-12.7 22.7-32.9.15-.55.3-.85 3.25-9.8 3.3-21.6v-.55q.5-32.1.8-62.65.05-3.6.15-6.95v-27.7q.15-36.25-1.6-38.95l.15.7q-5.05-20.8-18.8-34.5-5.3-5.85-14.5-11.55m-1.25 1.2.4.2q9.15 5.65 14.35 11.45 13.1 13.15 18.05 32.95 1.7 2.65 1.55 38.5v27.65q-.1 3.4-.15 7-.3 30.55-.8 62.65v.55q-.05 11.5-3.25 21.05-.15.35-.25.85-6.85 19.6-21.95 31.95-.4.3-.75.65-2.8 2.95-113.85 65.6-7.9 4.85-18.95 7.55-19.55 5.15-40.1-2-6.2-1.8-116.3-67.25l-.35-.2q-9.35-5.75-14.5-11.55-13.25-13.3-18.2-33.45-.15-.6-.25-1.15-.9-2.15-1.1-14.9v-.75l.6-84.05q.05-15.85.3-34.45v-.2q.05-10.75 3-20.6.25-.8.55-1.7 7.05-20.05 22.7-32.5.7-.5 1.25-.95 2.1-1.85 58.2-33.95l.1-.05q44.6-25.35 54-30.5 7.8-5.15 19.75-7.85l.3-.05q20.7-4.5 39.3 2.2l.35.15q3.45.65 61.5 35.05l-.3-.2q27 15.65 54.8 32.3"/>
        <path fill-opacity=".078" d="m331.65 86.4-.4-.2q-27.8-16.65-54.8-32.3l.3.2q-58.05-34.4-61.5-35.05l-.35-.15q-18.6-6.7-39.3-2.2l-.3.05q-11.95 2.7-19.75 7.85-9.4 5.15-54 30.5l-.1.05q-56.1 32.1-58.2 33.95-.55.45-1.25.95-15.65 12.45-22.7 32.5-.3.9-.55 1.7-2.95 9.85-3 20.6v.2q-.25 18.6-.3 34.45l-.6 84.05v.75q.2 12.75 1.1 14.9.1.55.25 1.15 4.95 20.15 18.2 33.45 5.15 5.8 14.5 11.55l.35.2q110.1 65.45 116.3 67.25 20.55 7.15 40.1 2 11.05-2.7 18.95-7.55 111.05-62.65 113.85-65.6.35-.35.75-.65 15.1-12.35 21.95-31.95.1-.5.25-.85 3.2-9.55 3.25-21.05v-.55q.5-32.1.8-62.65.05-3.6.15-7V169.3q.15-35.85-1.55-38.5Q359.1 111 346 97.85q-5.2-5.8-14.35-11.45m-1.25 1.2.4.25q8.9 5.45 13.95 11.15 12.85 12.85 17.7 32.2 1.65 2.65 1.5 38.1v27.6q-.1 3.4-.15 7.05-.3 30.5-.8 62.65v.5q-.05 11.25-3.15 20.6-.15.3-.25.8-6.75 19.3-21.7 31.45-.25.2-.5.45-2.8 2.9-114.05 65.65Q216 390.5 205.9 393l-.25.1q-19.2 5.2-39.45-1.85-5.05-1.1-116.1-67.15l-.35-.15q-9.3-5.7-14.3-11.45Q22.6 299.55 17.8 280q-.1-.6-.25-1.15-.85-2.1-1.05-14.55v-.7l.6-84.05q.05-15.9.3-34.5v-.2q.05-10.55 2.9-20.15.25-.75.55-1.6 6.85-19.6 22.2-31.8.6-.45 1.15-.9 2.1-1.8 58.05-33.85l.15-.05q45.35-25.75 54.2-30.6 7.6-4.95 19.1-7.55l.25-.05q20.25-4.4 38.45 2.15l.3.15q3.4.65 60.95 34.75.15.05.3.15 26.85 15.55 54.45 32.1"/>
        <path fill-opacity=".086" d="m330.8 87.85-.4-.25q-27.6-16.55-54.45-32.1-.15-.1-.3-.15-57.55-34.1-60.95-34.75l-.3-.15q-18.2-6.55-38.45-2.15l-.25.05q-11.5 2.6-19.1 7.55-8.85 4.85-54.2 30.6l-.15.05Q46.3 88.6 44.2 90.4q-.55.45-1.15.9-15.35 12.2-22.2 31.8-.3.85-.55 1.6-2.85 9.6-2.9 20.15v.2q-.25 18.6-.3 34.5l-.6 84.05v.7q.2 12.45 1.05 14.55.15.55.25 1.15 4.8 19.55 17.65 32.5 5 5.75 14.3 11.45l.35.15q111.05 66.05 116.1 67.15 20.25 7.05 39.45 1.85l.25-.1q10.1-2.5 17.45-6.95Q334.6 323.3 337.4 320.4q.25-.25.5-.45 14.95-12.15 21.7-31.45.1-.5.25-.8 3.1-9.35 3.15-20.6v-.5q.5-32.15.8-62.65.05-3.65.15-7.05v-27.6q.15-35.45-1.5-38.1-4.85-19.35-17.7-32.2-5.05-5.7-13.95-11.15M329.55 89l.35.25q8.7 5.3 13.65 10.85 12.55 12.55 17.3 31.55 1.55 2.75 1.45 37.65v27.55q-.1 3.45-.15 7.05-.3 30.55-.8 62.7v.5q-.05 11-3.1 20.1-.15.3-.25.75-6.5 18.8-21 30.6-.35.25-.65.55-2.8 2.9-113.45 65.3-7.5 4.6-17.85 7.1l.45-.1q-18.9 5.25-38.75-1.7-5.05-1.1-115.8-67l-.3-.2q-8.7-5.3-13.6-10.65-12.9-12.8-17.65-32.25-.1-.55-.25-1.1-.85-2.05-1-14.25v-.65l.6-84.05q.05-15.9.3-34.5v-.3q.05-10.25 2.85-19.55.2-.75.5-1.55 6.7-19.15 21.7-31.05.6-.45 1.1-.85Q47.3 89.9 103.1 58l.1-.05q45.55-25.9 54.3-30.7 7.35-4.75 18.55-7.25l.25-.05q19.75-4.35 37.55 2.1l.3.1q3.4.7 60.95 34.8l-.3-.2q27 15.6 54.75 32.25"/>
        <path fill-opacity=".098" d="m329.9 89.25-.35-.25Q301.8 72.35 274.8 56.75l.3.2q-57.55-34.1-60.95-34.8l-.3-.1q-17.8-6.45-37.55-2.1l-.25.05q-11.2 2.5-18.55 7.25-8.75 4.8-54.3 30.7l-.1.05Q47.3 89.9 45.2 91.75q-.5.4-1.1.85-15 11.9-21.7 31.05-.3.8-.5 1.55-2.8 9.3-2.85 19.55v.3q-.25 18.6-.3 34.5l-.6 84.05v.65q.15 12.2 1 14.25.15.55.25 1.1 4.75 19.45 17.65 32.25 4.9 5.35 13.6 10.65l.3.2q110.75 65.9 115.8 67 19.85 6.95 38.75 1.7l-.45.1q10.35-2.5 17.85-7.1 110.65-62.4 113.45-65.3.3-.3.65-.55 14.5-11.8 21-30.6.1-.45.25-.75 3.05-9.1 3.1-20.1v-.5q.5-32.15.8-62.7.05-3.6.15-7.05V169.3q.1-34.9-1.45-37.65-4.75-19-17.3-31.55-4.95-5.55-13.65-10.85m-1.2 1.2.35.2q8.45 5.2 13.25 10.55 12.35 12.35 16.95 30.9 1.5 2.85 1.4 37.2v27.5q-.1 3.45-.15 7.1-.3 30.55-.8 62.7v.45q-.05 10.75-3 19.65-.15.3-.25.7-6.45 18.5-20.75 30.1-.2.15-.4.35-2.8 2.85-113.25 65.15-.1 0-.15.05l-.1.1q-7.05 4.25-16.75 6.65-18.4 5.1-37.75-1.65-5-1.15-115.5-66.85l-.3-.2q-8.85-5.4-13.65-10.85Q25.6 297.9 21 279.2q-.1-.55-.2-1.05-.85-2-1-13.9v-.65l.6-84.05q.05-15.85.3-34.5v-.2q.05-10.05 2.8-19.2.2-.7.45-1.45 6.55-18.7 21.15-30.3.6-.45 1.1-.85 2.1-1.8 57.7-33.6l.1-.05q44.8-25.45 54-30.5 7.25-4.8 18.4-7.3l.25-.05q19.3-4.2 36.65 2.05l.25.1q3.4.7 60.45 34.5.1.1.25.15 26.85 15.55 54.45 32.1"/>
        <path fill-opacity=".106" d="m329.05 90.65-.35-.2q-27.6-16.55-54.45-32.1-.15-.05-.25-.15-57.05-33.8-60.45-34.5l-.25-.1q-17.35-6.25-36.65-2.05l-.25.05q-11.15 2.5-18.4 7.3-9.2 5.05-54 30.5l-.1.05q-55.6 31.8-57.7 33.6-.5.4-1.1.85-14.6 11.6-21.15 30.3-.25.75-.45 1.45-2.75 9.15-2.8 19.2v.2q-.25 18.65-.3 34.5l-.6 84.05v.65q.15 11.9 1 13.9.1.5.2 1.05 4.6 18.7 16.85 31.05 4.8 5.45 13.65 10.85l.3.2q110.5 65.7 115.5 66.85 19.35 6.75 37.75 1.65 9.7-2.4 16.75-6.65l.1-.1q.05-.05.15-.05 110.45-62.3 113.25-65.15.2-.2.4-.35 14.3-11.6 20.75-30.1.1-.4.25-.7 2.95-8.9 3-19.65v-.45q.5-32.15.8-62.7.05-3.65.15-7.1v-27.5q.1-34.35-1.4-37.2-4.6-18.55-16.95-30.9-4.8-5.35-13.25-10.55m-1.2 1.2.35.2q8.35 5.15 13.1 10.5 11.9 12 16.4 30 1.4 3.1 1.3 36.75v27.45q-.1 3.45-.15 7.15-.3 30.55-.8 62.7v.45q-.05 10.45-2.9 19.15-.15.25-.25.65-6.35 18.2-20.5 29.55l-.15.15q-2.8 2.85-113.05 65-7.1 4.4-17 6.8-17.7 4.75-36.35-1.75-5-1.2-115.25-66.75l-.25-.15q-8.6-5.25-13.25-10.55-12-12.1-16.5-30.35-.1-.5-.2-.95-.8-2-.95-13.65v-.6l.6-84.05q.05-15.85.3-34.5v-.25q.05-9.8 2.7-18.7.2-.65.45-1.35 6.4-18.25 20.65-29.6.55-.4 1-.75 2.1-1.8 57.6-33.55l.05-.05q45.2-25.65 54.15-30.55 7-4.6 17.85-7.05l.2-.05q18.8-4.1 35.75 2l.25.1q3.35.75 60.15 34.4.15.05.25.15 26.85 15.5 54.45 32.05"/>
        <path fill-opacity=".114" d="m328.2 92.05-.35-.2Q300.25 75.3 273.4 59.8q-.1-.1-.25-.15Q216.35 26 213 25.25l-.25-.1q-16.95-6.1-35.75-2l-.2.05q-10.85 2.45-17.85 7.05-8.95 4.9-54.15 30.55l-.05.05Q49.25 92.6 47.15 94.4q-.45.35-1 .75-14.25 11.35-20.65 29.6-.25.7-.45 1.35-2.65 8.9-2.7 18.7v.25q-.25 18.65-.3 34.5l-.6 84.05v.6q.15 11.65.95 13.65.1.45.2.95 4.5 18.25 16.5 30.35 4.65 5.3 13.25 10.55l.25.15q110.25 65.55 115.25 66.75 18.65 6.5 36.35 1.75 9.9-2.4 17-6.8 110.25-62.15 113.05-65l.15-.15q14.15-11.35 20.5-29.55.1-.4.25-.65 2.85-8.7 2.9-19.15v-.45q.5-32.15.8-62.7.05-3.7.15-7.15V169.3q.1-33.65-1.3-36.75-4.5-18-16.4-30-4.75-5.35-13.1-10.5m-1.15 1.2.3.2q7.95 4.9 12.55 10 11.9 11.9 16.25 29.9l-.1-.5q1.45 2.55 1.3 36.45v27.45q-.1 3.45-.15 7.1-.3 30.6-.8 62.75v.4q-.05 10.25-2.85 18.7-.1.25-.2.65-6.1 17.5-19.65 28.5-.25.2-.5.45-2.8 2.8-112.85 64.85-7.05 4.3-16.85 6.65-17.2 4.5-35.3-1.85-6.45-2.1-114.75-66.5l-.25-.15q-8.15-5-12.65-10-11.95-11.9-16.35-29.9l-.2-.9q-.75-1.95-.9-13.3v-.6l.6-84.05q.05-15.9.3-34.5v-.15q.05-9.6 2.65-18.3.2-.6.4-1.3 6.25-17.8 20.15-28.85.5-.4.95-.75 2.1-1.75 57.4-33.4l.1-.05q45.25-25.7 54.1-30.55 6.85-4.5 17.4-6.9l.2-.05q18.35-4 34.85 1.95l.25.1q3.3.75 60.1 34.4 26.85 15.5 54.5 32.05"/>
        <path fill-opacity=".122" d="m327.35 93.45-.3-.2Q299.4 76.7 272.55 61.2q-56.8-33.65-60.1-34.4l-.25-.1q-16.5-5.95-34.85-1.95l-.2.05q-10.55 2.4-17.4 6.9-8.85 4.85-54.1 30.55l-.1.05q-55.3 31.65-57.4 33.4-.45.35-.95.75-13.9 11.05-20.15 28.85-.2.7-.4 1.3-2.6 8.7-2.65 18.3v.15q-.25 18.6-.3 34.5l-.6 84.05v.6q.15 11.35.9 13.3l.2.9q4.4 18 16.35 29.9 4.5 5 12.65 10l.25.15q108.3 64.4 114.75 66.5 18.1 6.35 35.3 1.85 9.8-2.35 16.85-6.65Q330.4 318.1 333.2 315.3q.25-.25.5-.45 13.55-11 19.65-28.5.1-.4.2-.65 2.8-8.45 2.85-18.7v-.4q.5-32.15.8-62.75.05-3.65.15-7.1V169.3q.15-33.9-1.3-36.45l.1.5q-4.35-18-16.25-29.9-4.6-5.1-12.55-10m-1.15 1.25.25.15q7.95 4.9 12.4 9.9 11.5 11.55 15.7 29l-.1-.45q1.35 2.5 1.25 36v27.4q-.1 3.45-.15 7.15-.3 30.6-.8 62.75v.4q-.05 9.95-2.75 18.2-.15.25-.2.6-5.95 17.05-19.2 27.8-.25.2-.45.45-2.85 2.75-112.65 64.7-6.7 4.1-16.05 6.35l.35-.05q-17.1 4.7-35.05-1.65-6.45-2.15-114.45-66.35l-.25-.15q-7.95-4.85-12.3-9.75-11.6-11.6-15.9-29.15-.1-.45-.2-.85-.75-1.85-.9-13v-.5l.6-84.05q.05-15.9.3-34.55v-.25q.05-9.25 2.6-17.75.15-.55.35-1.2 6.1-17.3 19.65-28.1.45-.4.85-.7 2.1-1.75 57.25-33.3l.1-.05q45.1-25.6 54.05-30.55 6.7-4.4 17-6.75h.2q17.9-3.9 33.95 1.85l.25.1q3.3.75 59.85 34.25 26.85 15.55 54.45 32.1"/>
        <path fill-opacity=".129" d="m326.45 94.85-.25-.15q-27.6-16.55-54.45-32.1-56.55-33.5-59.85-34.25l-.25-.1Q195.6 22.5 177.7 26.4h-.2q-10.3 2.35-17 6.75-8.95 4.95-54.05 30.55l-.1.05Q51.2 95.3 49.1 97.05q-.4.3-.85.7-13.55 10.8-19.65 28.1-.2.65-.35 1.2-2.55 8.5-2.6 17.75v.25q-.25 18.65-.3 34.55l-.6 84.05v.5q.15 11.15.9 13 .1.4.2.85 4.3 17.55 15.9 29.15 4.35 4.9 12.3 9.75l.25.15q108 64.2 114.45 66.35 17.95 6.35 35.05 1.65l-.35.05q9.35-2.25 16.05-6.35 109.8-61.95 112.65-64.7.2-.25.45-.45 13.25-10.75 19.2-27.8.05-.35.2-.6 2.7-8.25 2.75-18.2v-.4q.5-32.15.8-62.75.05-3.7.15-7.15v-27.4q.1-33.5-1.25-36l.1.45q-4.2-17.45-15.7-29-4.45-5-12.4-9.9m-1.1 1.25.25.15q7.7 4.75 12.05 9.65 11.05 11.1 15.2 27.8 1.3 2.5 1.2 35.6v27.35q-.1 3.5-.15 7.2-.3 30.55-.8 62.75v.35q-.05 9.7-2.7 17.75-.1.2-.15.55-5.8 16.6-18.65 27.05-.3.25-.5.45-2.85 2.8-112.9 64.85-6.25 3.7-14.85 5.85-16.55 4.55-33.9-1.55-.1 0-.15-.05-6.25-2.1-114.15-66.25l-.2-.1q-8.1-4.95-12.4-9.9-11-11.2-15.1-28l-.2-.8q-.7-1.8-.85-12.65v-.5l.6-84.05q.05-15.9.3-34.55v-.15q.05-9.1 2.5-17.4.2-.5.4-1.1 5.9-16.85 19.05-27.4.45-.3.85-.6 2.1-1.75 57.1-33.25l.05-.05q45.85-26 54.3-30.65 6.45-4.2 16.3-6.4l.2-.05q17.4-3.8 33.05 1.8l.25.1q3.25.8 59.35 34 26.9 15.6 54.65 32.2"/>
        <path fill-opacity=".137" d="m325.6 96.25-.25-.15Q297.6 79.5 270.7 63.9q-56.1-33.2-59.35-34l-.25-.1q-15.65-5.6-33.05-1.8l-.2.05q-9.85 2.2-16.3 6.4-8.45 4.65-54.3 30.65l-.05.05q-55 31.5-57.1 33.25-.4.3-.85.6-13.15 10.55-19.05 27.4-.2.6-.4 1.1-2.45 8.3-2.5 17.4v.15q-.25 18.65-.3 34.55l-.6 84.05v.5q.15 10.85.85 12.65l.2.8q4.1 16.8 15.1 28 4.3 4.95 12.4 9.9l.2.1q107.9 64.15 114.15 66.25.05.05.15.05 17.35 6.1 33.9 1.55 8.6-2.15 14.85-5.85 110.05-62.05 112.9-64.85.2-.2.5-.45 12.85-10.45 18.65-27.05.05-.35.15-.55 2.65-8.05 2.7-17.75v-.35q.5-32.2.8-62.75.05-3.7.15-7.2V169.3q.1-33.1-1.2-35.6-4.15-16.7-15.2-27.8-4.35-4.9-12.05-9.65m-1.1 1.25.25.15q7.25 4.5 11.45 9.1 11 10.9 15.1 27.4 1.2 2.65 1.1 35.15v27.3q-.1 3.5-.15 7.2-.3 30.6-.8 62.8v.35q-.05 9.45-2.6 17.25-.1.2-.2.5-5.6 16.1-18 26.25-.3.25-.6.55-2.85 2.7-112.2 64.4-6.25 3.8-14.9 5.95l-.35.05q-.15.05-.25.1-15.75 4.15-32.35-1.65-.1-.05-.15-.05-6.25-2.1-113.85-66.1l-.2-.15q-7.45-4.55-11.6-9.1-11.1-11-15.15-27.75l-.2-.7q-.65-1.8-.8-12.4v-.45l.6-84.05q.05-15.9.3-34.55v-.25Q29 136 31.4 128q.15-.5.35-1.05 5.75-16.4 18.55-26.65.4-.3.75-.6Q53.2 97.95 108 66.6l.1-.05q45.6-25.9 54.2-30.6 6.25-4.15 15.95-6.3l.15-.05q16.95-3.7 32.15 1.75l.2.1q3.25.8 59.3 34l-.2-.1Q296.8 80.9 324.5 97.5"/>
        <path fill-opacity=".145" d="m324.75 97.65-.25-.15q-27.7-16.6-54.65-32.15l.2.1q-56.05-33.2-59.3-34l-.2-.1q-15.2-5.45-32.15-1.75l-.15.05q-9.7 2.15-15.95 6.3-8.6 4.7-54.2 30.6l-.1.05Q53.2 97.95 51.05 99.7q-.35.3-.75.6-12.8 10.25-18.55 26.65-.2.55-.35 1.05-2.4 8-2.45 16.8v.25q-.25 18.65-.3 34.55l-.6 84.05v.45q.15 10.6.8 12.4l.2.7q4.05 16.75 15.15 27.75 4.15 4.55 11.6 9.1l.2.15q107.6 64 113.85 66.1.05 0 .15.05 16.6 5.8 32.35 1.65.1-.05.25-.1l.35-.05q8.65-2.15 14.9-5.95 109.35-61.7 112.2-64.4.3-.3.6-.55 12.4-10.15 18-26.25.1-.3.2-.5 2.55-7.8 2.6-17.25v-.35q.5-32.2.8-62.8.05-3.7.15-7.2v-27.3q.1-32.5-1.1-35.15-4.1-16.5-15.1-27.4-4.2-4.6-11.45-9.1m10.45 10.45q10.55 10.55 14.5 26.45 1.15 2.65 1.05 34.75v27.25q-.1 3.5-.15 7.25v.05q-.3 30.6-.8 62.75v.3q-.05 9.2-2.55 16.8-.1.15-.15.45-5.45 15.65-17.5 25.5-.3.3-.6.55-2.85 2.7-112 64.3-6.3 3.8-15.05 5.9-15.3 4-31.45-1.6-4.85-1.3-113.65-66l-.2-.15q-7.4-4.5-11.45-9.05-10.6-10.65-14.55-26.75-.1-.35-.15-.7-.65-1.75-.8-12.05v-.45l.6-84.05q.05-15.9.3-34.55v-.25q.05-8.55 2.35-16.35.15-.45.35-.95 5.6-15.95 18.05-25.9.4-.3.7-.55 2.1-1.75 56.8-33l.05-.05q46.45-26.4 54.5-30.75 6-3.9 15.2-6l.15-.05q16.45-3.6 31.25 1.75l.2.05q3.2.8 59 33.9l-.15-.15q26.9 15.6 54.6 32.2l.2.1q7.25 4.5 11.35 9.05"/>
        <path fill-opacity=".153" d="M349.7 134.55q-3.95-15.9-14.5-26.45-4.1-4.55-11.35-9.05l-.2-.1q-27.7-16.6-54.6-32.2l.15.15q-55.8-33.1-59-33.9l-.2-.05q-14.8-5.35-31.25-1.75l-.15.05q-9.2 2.1-15.2 6-8.05 4.35-54.5 30.75l-.05.05q-54.7 31.25-56.8 33-.3.25-.7.55-12.45 9.95-18.05 25.9-.2.5-.35.95-2.3 7.8-2.35 16.35v.25q-.25 18.65-.3 34.55l-.6 84.05v.45q.15 10.3.8 12.05.05.35.15.7 3.95 16.1 14.55 26.75 4.05 4.55 11.45 9.05l.2.15q108.8 64.7 113.65 66 16.15 5.6 31.45 1.6 8.75-2.1 15.05-5.9 109.15-61.6 112-64.3.3-.25.6-.55 12.05-9.85 17.5-25.5.05-.3.15-.45 2.5-7.6 2.55-16.8v-.3q.5-32.15.8-62.75v-.05q.05-3.75.15-7.25V169.3q.1-32.1-1.05-34.75m-15.5-25.1q10.1 10.25 13.9 25.65 1.1 2.95 1 34.2v27.2q-.1 3.55-.15 7.3v.05q-.3 30.55-.8 62.75v.3q-.05 8.9-2.45 16.3-.1.15-.15.4-5.35 15.4-17.25 25.05-.2.1-.35.3-2.85 2.65-111.8 64.1-5.9 3.6-14.05 5.6l-.15.05q-.2.05-.35.1-14.95 3.9-30.65-1.6h.1q-4.8-1.3-113.35-65.85l-.2-.1q-7.15-4.4-11.1-8.75-10.3-10.4-14.15-26.05-.1-.35-.15-.65-.6-1.7-.75-11.75v-.35l.6-84.05q.05-15.9.3-34.6v-.25q.05-8.3 2.3-15.9.15-.4.3-.85 5.45-15.5 17.55-25.2.35-.25.65-.5 2.1-1.7 56.6-32.9h.05q46.6-26.5 54.5-30.8 5.85-3.8 14.75-5.8h.15q16-3.5 30.35 1.65l.2.05q3.15.85 58.7 33.75l-.15-.1q26.9 15.55 54.6 32.15l.2.1q7.2 4.45 11.2 9"/>
        <path fill-opacity=".161" d="M348.1 135.1q-3.8-15.4-13.9-25.65-4-4.55-11.2-9l-.2-.1q-27.7-16.6-54.6-32.15l.15.1q-55.55-32.9-58.7-33.75l-.2-.05q-14.35-5.15-30.35-1.65h-.15q-8.9 2-14.75 5.8-7.9 4.3-54.5 30.8h-.05q-54.5 31.2-56.6 32.9-.3.25-.65.5-12.1 9.7-17.55 25.2-.15.45-.3.85-2.25 7.6-2.3 15.9v.25q-.25 18.7-.3 34.6l-.6 84.05v.35q.15 10.05.75 11.75.05.3.15.65Q36.1 292.1 46.4 302.5q3.95 4.35 11.1 8.75l.2.1q108.55 64.55 113.35 65.85h-.1q15.7 5.5 30.65 1.6.15-.05.35-.1l.15-.05q8.15-2 14.05-5.6 108.95-61.45 111.8-64.1.15-.2.35-.3 11.9-9.65 17.25-25.05.05-.25.15-.4 2.4-7.4 2.45-16.3v-.3q.5-32.2.8-62.75v-.05q.05-3.75.15-7.3v-27.2q.1-31.25-1-34.2m-1.55.5v.1q1 3.6.9 33.6v27.15q-.1 3.55-.15 7.3v.05q-.3 30.6-.8 62.8v.25q-.05 8.65-2.35 15.85-.1.15-.15.4-5.1 14.6-16.3 23.85l-.8.7q-2.9 2.7-111.95 64.2-5.6 3.3-13.3 5.2-.1.05-.2.05-14.6 3.95-29.95-1.5l.1.05q-4.8-1.3-113.05-65.7l-.2-.1q-6.9-4.25-10.7-8.45-10.1-10.1-13.8-25.35-.1-.3-.15-.55-.55-1.7-.7-11.45v-.35l.6-84.05q.05-15.9.3-34.6v-.2q.05-8.1 2.25-15.45.1-.4.25-.8 5.3-15.05 17.05-24.45.3-.25.55-.45 2.1-1.7 56.45-32.8l.05-.05q46.4-26.3 54.45-30.7 5.65-3.75 14.35-5.7h.15q15.5-3.4 29.45 1.6l.2.05q3.15.85 58.4 33.6l-.15-.05q26.9 15.55 54.6 32.1l.2.1q6.5 4.05 10.35 8.2 10.25 10.1 14.05 25.55"/>
        <path fill-opacity=".173" d="M346.55 135.7v-.1q-3.8-15.45-14.05-25.55-3.85-4.15-10.35-8.2l-.2-.1q-27.7-16.55-54.6-32.1l.15.05q-55.25-32.75-58.4-33.6l-.2-.05q-13.95-5-29.45-1.6h-.15q-8.7 1.95-14.35 5.7-8.05 4.4-54.45 30.7l-.05.05Q56.1 102 54 103.7q-.25.2-.55.45-11.75 9.4-17.05 24.45-.15.4-.25.8-2.2 7.35-2.25 15.45v.2q-.25 18.7-.3 34.6L33 263.7v.35q.15 9.75.7 11.45.05.25.15.55 3.7 15.25 13.8 25.35 3.8 4.2 10.7 8.45l.2.1q108.25 64.4 113.05 65.7l-.1-.05q15.35 5.45 29.95 1.5.1 0 .2-.05 7.7-1.9 13.3-5.2 109.05-61.5 111.95-64.2l.8-.7q11.2-9.25 16.3-23.85.05-.25.15-.4 2.3-7.2 2.35-15.85v-.25q.5-32.2.8-62.8v-.05q.05-3.75.15-7.3V169.3q.1-30-.9-33.6m-1.6.35-.05-.25q1 2.35.9 33.5v27.1q-.1 3.6-.15 7.35v.05q-.3 30.6-.8 62.8v.25q-.05 8.35-2.3 15.35-.05.1-.1.35-5 14.3-16 23.3-.35.3-.6.55-2.85 2.65-111.4 63.8l-.3.2q-5.45 3.25-12.9 5.05l-.35.1h-.05q-14.05 3.7-28.8-1.5l.1.05q-4.8-1.35-112.8-65.55l-.15-.1q-6.7-4.1-10.35-8.2-9.8-9.75-13.4-24.6-.1-.25-.15-.5-.5-1.65-.65-11.15v-.3l.6-84.05q.05-15.9.3-34.6v-.2q.05-7.85 2.15-15 .1-.35.25-.7 5.15-14.6 16.5-23.75.3-.2.55-.4 2.1-1.65 56.3-32.65l.05-.05q47.25-26.85 54.7-30.9 5.4-3.45 13.65-5.3l.1-.05q15.05-3.3 28.55 1.55l.15.05q3.15.85 58.2 33.5l-.15-.1q26.85 15.55 54.55 32.1l.15.1q6.75 4.15 10.55 8.45 9.6 9.7 13.15 24.35"/>
        <path fill-opacity=".18" d="m344.9 135.8.05.25q-3.55-14.65-13.15-24.35-3.8-4.3-10.55-8.45l-.15-.1q-27.7-16.55-54.55-32.1l.15.1q-55.05-32.65-58.2-33.5l-.15-.05q-13.5-4.85-28.55-1.55l-.1.05q-8.25 1.85-13.65 5.3-7.45 4.05-54.7 30.9l-.05.05Q57.1 103.35 55 105q-.25.2-.55.4-11.35 9.15-16.5 23.75-.15.35-.25.7-2.1 7.15-2.15 15v.2q-.25 18.7-.3 34.6l-.6 84.05v.3q.15 9.5.65 11.15.05.25.15.5 3.6 14.85 13.4 24.6 3.65 4.1 10.35 8.2l.15.1q108 64.2 112.8 65.55l-.1-.05q14.75 5.2 28.8 1.5h.05l.35-.1q7.45-1.8 12.9-5.05l.3-.2q108.55-61.15 111.4-63.8.25-.25.6-.55 11-9 16-23.3.05-.25.1-.35 2.25-7 2.3-15.35v-.25q.5-32.2.8-62.8v-.05q.05-3.75.15-7.35v-27.1q.1-31.15-.9-33.5m-1.55.65-.05-.25q.95 2.35.85 33.1v27.05q-.1 3.6-.15 7.4v.05q-.3 30.6-.8 62.8v.2q-.05 8.15-2.2 14.9-.1.1-.1.3-4.9 14-15.75 22.8-.2.15-.35.35-2.9 2.6-111.2 63.65-5.5 3.35-13.15 5.15-13.55 3.6-27.8-1.4l-.05-.05q-5.45-1.8-112.4-65.4l-.1-.05q-6.65-4.1-10.25-8.15-9.3-9.4-12.8-23.65-.05-.25-.1-.45-.5-1.55-.65-10.8v-.3l.6-84.05q.05-15.9.3-34.6v-.15q.05-7.65 2.1-14.6l.2-.6q5-14.15 16-23 .25-.2.45-.35 2.1-1.7 56.15-32.6h.05q47.45-27 54.75-30.9 5.2-3.4 13.15-5.15l.1-.05q14.6-3.15 27.7 1.5l.1.05q3.1.9 57.75 33.3.05 0 .15.05 26.8 15.5 54.4 32.05l.15.1q6.5 4 10.15 8.1 9.35 9.45 12.8 23.65"/>
        <path fill-opacity=".188" d="m343.3 136.2.05.25q-3.45-14.2-12.8-23.65-3.65-4.1-10.15-8.1l-.15-.1q-27.6-16.55-54.4-32.05-.1-.05-.15-.05-54.65-32.4-57.75-33.3l-.1-.05q-13.1-4.65-27.7-1.5l-.1.05q-7.95 1.75-13.15 5.15-7.3 3.9-54.75 30.9h-.05q-54.05 30.9-56.15 32.6-.2.15-.45.35-11 8.85-16 23l-.2.6q-2.05 6.95-2.1 14.6v.15q-.25 18.7-.3 34.6l-.6 84.05v.3q.15 9.25.65 10.8.05.2.1.45 3.5 14.25 12.8 23.65 3.6 4.05 10.25 8.15l.1.05q106.95 63.6 112.4 65.4l.05.05q14.25 5 27.8 1.4 7.65-1.8 13.15-5.15 108.3-61.05 111.2-63.65.15-.2.35-.35Q336 296 340.9 282q0-.2.1-.3 2.15-6.75 2.2-14.9v-.2q.5-32.2.8-62.8v-.05q.05-3.8.15-7.4V169.3q.1-30.75-.85-33.1m-14.2-22.55q9.2 9.15 12.6 23 .9 2.3.8 32.65v27q-.1 3.6-.15 7.45-.3 30.65-.8 62.85v.2q0 7.85-2.15 14.4-.05.1-.1.25-4.6 13.25-14.75 21.7l-.8.7q-2.9 2.6-111 63.55-5.3 3.2-12.7 4.95-13.15 3.45-26.95-1.4l.1.05q-4.7-1.4-112.15-65.3l-.1-.1q-6.1-3.7-9.5-7.4-9.35-9.25-12.8-23.35l-.1-.4q-.45-1.5-.6-10.45v-.25l.6-84.05q.05-15.95.3-34.65v-.15q.05-7.35 2.05-14.1.05-.3.15-.6 4.8-13.65 15.5-22.2.2-.2.4-.35 2.1-1.65 55.95-32.45l.05-.05q47.15-26.75 54.65-30.8 5.05-3.3 12.8-5.05h.1q14.1-3.1 26.8 1.4l.1.05q3.05.95 57.6 33.25l-.1-.1q26.85 15.55 54.5 32.1l.15.1q6.05 3.75 9.55 7.55"/>
        <path fill-opacity=".196" d="M341.7 136.65q-3.4-13.85-12.6-23-3.5-3.8-9.55-7.55l-.15-.1q-27.65-16.55-54.5-32.1l.1.1q-54.55-32.3-57.6-33.25l-.1-.05q-12.7-4.5-26.8-1.4h-.1q-7.75 1.75-12.8 5.05-7.5 4.05-54.65 30.8l-.05.05Q59.05 106 56.95 107.65q-.2.15-.4.35-10.7 8.55-15.5 22.2-.1.3-.15.6-2 6.75-2.05 14.1v.15q-.25 18.7-.3 34.65l-.6 84.05v.25q.15 8.95.6 10.45l.1.4q3.45 14.1 12.8 23.35 3.4 3.7 9.5 7.4l.1.1Q168.5 369.6 173.2 371l-.1-.05q13.8 4.85 26.95 1.4 7.4-1.75 12.7-4.95 108.1-60.95 111-63.55l.8-.7q10.15-8.45 14.75-21.7.05-.15.1-.25 2.15-6.55 2.15-14.4v-.2q.5-32.2.8-62.85.05-3.85.15-7.45v-27q.1-30.35-.8-32.65m-1.6.5.05.1q.8 3 .7 32.05v27q-.1 3.6-.15 7.4v.05q-.3 30.6-.8 62.85v.15q0 7.6-2.05 13.95-.05.05-.1.2-4.55 13.1-14.7 21.35-.2.15-.4.35-2.85 2.55-110.95 63.5-5.05 2.95-12 4.65l.25-.05q-12.75 3.45-26.2-1.3h-.1q-5.4-1.9-111.75-65.15l-.1-.05q-6.2-3.75-9.5-7.5-8.8-8.85-12.05-22.25l-.1-.3q-.45-1.5-.55-10.2v-.2l.6-84.05q.05-15.95.3-34.65v-.1q0-7.15 1.95-13.7l.2-.5q4.65-13.2 14.95-21.5.15-.15.35-.25 2.1-1.65 55.8-32.4h.05q47.35-26.85 54.65-30.85 4.85-3.15 12.35-4.85h.05q13.65-3 25.9 1.35l.1.05q3.05.95 57.3 33.1l-.1-.05q26.85 15.5 54.5 32.05l.1.1q5.8 3.55 9.15 7.2 9 8.9 12.3 22.45"/>
        <path fill-opacity=".204" d="m340.15 137.25-.05-.1q-3.3-13.55-12.3-22.45-3.35-3.65-9.15-7.2l-.1-.1q-27.65-16.55-54.5-32.05l.1.05q-54.25-32.15-57.3-33.1l-.1-.05q-12.25-4.35-25.9-1.35h-.05q-7.5 1.7-12.35 4.85-7.3 4-54.65 30.85h-.05q-53.7 30.75-55.8 32.4-.2.1-.35.25-10.3 8.3-14.95 21.5l-.2.5q-1.95 6.55-1.95 13.7v.1q-.25 18.7-.3 34.65l-.6 84.05v.2q.1 8.7.55 10.2l.1.3q3.25 13.4 12.05 22.25 3.3 3.75 9.5 7.5l.1.05q106.35 63.25 111.75 65.15h.1q13.45 4.75 26.2 1.3l-.25.05q6.95-1.7 12-4.65 108.1-60.95 110.95-63.5.2-.2.4-.35 10.15-8.25 14.7-21.35.05-.15.1-.2 2.05-6.35 2.05-13.95v-.15q.5-32.25.8-62.85v-.05q.05-3.8.15-7.4v-27q.1-29.05-.7-32.05m-13.25-21.1q8.5 8.55 11.65 21.45.75 2.95.65 31.7v26.95q-.1 3.6-.15 7.45-.3 30.65-.8 62.9v.15q0 7.35-2 13.45-.05.05-.05.15-4.4 12.7-14.25 20.65-.2.15-.35.3-2.85 2.55-110.7 63.35l.2-.1q-4.85 2.9-11.55 4.55-12.3 3.3-25.25-1.25h-.1q-5.35-1.9-111.45-65l-.1-.05q-5.95-3.65-9.15-7.25Q45 287 41.85 274.1q-.05-.2-.05-.3-.45-1.45-.55-9.85v-.2l.6-84.05q.05-15.9.3-34.65v-.1q.05-6.9 1.9-13.2.05-.2.15-.45 4.45-12.75 14.4-20.75.15-.15.3-.25 2.1-1.6 55.65-32.25h.05q47.05-26.75 54.5-30.8 4.7-3.1 12.05-4.75h.05q13.15-2.85 25 1.35h.05q3.05.95 57 32.9l.05.05q26.85 15.5 54.4 32.05l.1.05q5.85 3.6 9.1 7.25"/>
        <path fill-opacity=".212" d="M338.55 137.6q-3.15-12.9-11.65-21.45-3.25-3.65-9.1-7.25l-.1-.05Q290.15 92.3 263.3 76.8l-.05-.05q-53.95-31.95-57-32.9h-.05q-11.85-4.2-25-1.35h-.05q-7.35 1.65-12.05 4.75-7.45 4.05-54.5 30.8h-.05Q61 108.7 58.9 110.3q-.15.1-.3.25-9.95 8-14.4 20.75-.1.25-.15.45-1.85 6.3-1.9 13.2v.1q-.25 18.75-.3 34.65l-.6 84.05v.2q.1 8.4.55 9.85 0 .1.05.3Q45 287 53.5 295.55q3.2 3.6 9.15 7.25l.1.05q106.1 63.1 111.45 65h.1q12.95 4.55 25.25 1.25 6.7-1.65 11.55-4.55l-.2.1q107.85-60.8 110.7-63.35.15-.15.35-.3 9.85-7.95 14.25-20.65 0-.1.05-.15 2-6.1 2-13.45v-.15q.5-32.25.8-62.9.05-3.85.15-7.45V169.3q.1-28.75-.65-31.7m-1.6.4-.05-.1q.75 2.2.65 31.4v26.9q-.1 3.65-.15 7.5-.3 30.65-.8 62.9v.1q0 7.1-1.9 12.95-.05.05-.05.2-4.25 12.05-13.5 19.7l-.1.1q-.25.15-.5.4-2.85 2.5-110.3 63.1-.1 0-.15.05-4.7 2.8-11.15 4.35-11.8 3.1-24.2-1.25h.05q-4.6-1.45-111.2-64.85l-.1-.05q-5.5-3.4-8.55-6.7-8.4-8.35-11.5-21 0-.15-.05-.25-.4-1.4-.5-9.55v-.15l.6-84.05q.05-15.9.3-34.65v-.1q0-6.65 1.85-12.75 0-.15.1-.35 4.3-12.3 13.9-20 .15-.1.25-.2 2.1-1.6 55.5-32.15v-.05q47.5-26.95 54.65-30.8 4.5-2.95 11.45-4.5l.05-.05q12.7-2.75 24.1 1.3h.05q3 1 56.7 32.8.05 0 .1.05 26.8 15.5 54.35 32l.1.05q5.4 3.35 8.55 6.75 8.35 8.3 11.45 20.95"/>
        <path fill-opacity=".22" d="m336.9 137.9.05.1q-3.1-12.65-11.45-20.95-3.15-3.4-8.55-6.75l-.1-.05q-27.55-16.5-54.35-32-.05-.05-.1-.05-53.7-31.8-56.7-32.8h-.05q-11.4-4.05-24.1-1.3l-.05.05q-6.95 1.55-11.45 4.5-7.15 3.85-54.65 30.8v.05Q62 110.05 59.9 111.65q-.1.1-.25.2-9.6 7.7-13.9 20-.1.2-.1.35-1.85 6.1-1.85 12.75v.1q-.25 18.75-.3 34.65l-.6 84.05v.15q.1 8.15.5 9.55.05.1.05.25 3.1 12.65 11.5 21 3.05 3.3 8.55 6.7l.1.05q106.6 63.4 111.2 64.85h-.05q12.4 4.35 24.2 1.25 6.45-1.55 11.15-4.35.05-.05.15-.05 107.45-60.6 110.3-63.1.25-.25.5-.4l.1-.1q9.25-7.65 13.5-19.7 0-.15.05-.2 1.9-5.85 1.9-12.95v-.1q.5-32.25.8-62.9.05-3.85.15-7.5v-26.9q.1-29.2-.65-31.4m-1.6.5v-.1q.7 2.2.6 31v26.85q-.1 3.65-.15 7.5v.05q-.3 30.65-.8 62.9v.1q0 6.8-1.8 12.45-.05.05-.05.15-4.1 11.7-13.15 19.05l-.1.1-.35.35q-2.9 2.45-110.1 62.9-4.55 2.75-10.85 4.25l.15-.05q-11.4 3.05-23.4-1.15h.05q-4.6-1.5-110.9-64.75h-.05q-5.5-3.35-8.45-6.65-7.95-7.95-10.9-20.05 0-.1-.05-.2-.35-1.35-.45-9.2l.6-84.15q.05-15.95.3-34.7V145q0-6.45 1.75-12.35.05-.1.1-.25 4.15-11.85 13.4-19.3.05-.05.15-.1 2.1-1.6 55.35-32.1 47.4-26.9 54.6-30.8.05-.05.1-.05.05-.05.15-.05l.1-.1q4.25-2.7 10.7-4.15h.05q12.2-2.7 23.2 1.2h.05q2.95 1 56.45 32.7h.05q26.8 15.5 54.35 32l.05.05q5.4 3.3 8.4 6.65 7.95 8 10.85 20.05"/>
        <path fill-opacity=".227" d="M335.3 138.3v.1q-2.9-12.05-10.85-20.05-3-3.35-8.4-6.65l-.05-.05q-27.55-16.5-54.35-32h-.05q-53.5-31.7-56.45-32.7h-.05q-11-3.9-23.2-1.2h-.05q-6.45 1.45-10.7 4.15l-.1.1q-.1 0-.15.05-.05 0-.1.05-7.2 3.9-54.6 30.8-53.25 30.5-55.35 32.1-.1.05-.15.1-9.25 7.45-13.4 19.3-.05.15-.1.25-1.75 5.9-1.75 12.35v.05q-.25 18.75-.3 34.7l-.6 84.15q.1 7.85.45 9.2.05.1.05.2 2.95 12.1 10.9 20.05 2.95 3.3 8.45 6.65h.05q106.3 63.25 110.9 64.75h-.05q12 4.2 23.4 1.15l-.15.05q6.3-1.5 10.85-4.25 107.2-60.45 110.1-62.9l.35-.35.1-.1Q329 291 333.1 279.3q0-.1.05-.15 1.8-5.65 1.8-12.45v-.1q.5-32.25.8-62.9v-.05q.05-3.85.15-7.5V169.3q.1-28.8-.6-31m-1.6.5v-.05q.65 2.1.55 30.55v26.8q-.1 3.65-.15 7.55-.3 30.7-.8 62.95v.05q0 6.55-1.75 12v.1q-4 11.4-12.85 18.55-.15.1-.25.2-2.9 2.45-109.95 62.85l.05-.05q-4.35 2.55-10.4 4h.1q-10.9 2.95-22.4-1.1h.05q-4.55-1.55-110.6-64.6h-.05q-5.25-3.2-8.1-6.35l.15.1q-7.75-7.75-10.65-19.45v-.1q-.35-1.3-.45-8.95l.6-84.1q.05-15.95.3-34.7V145q0-6.2 1.7-11.85 0-.1.05-.2 4-11.4 12.9-18.55l.1-.1q2.1-1.6 55.15-31.95h.05Q164.8 55.2 171.7 51.5q4.1-2.75 10.55-4.15 11.75-2.6 22.3 1.15h.05q2.95 1 56.2 32.55h-.05q26.8 15.5 54.4 32.05h.05q5.15 3.2 8.05 6.4 7.65 7.65 10.45 19.3"/>
        <path fill-opacity=".235" d="M333.7 138.75v.05q-2.8-11.65-10.45-19.3-2.9-3.2-8.05-6.4h-.05q-27.6-16.55-54.4-32.05h.05Q207.55 49.5 204.6 48.5h-.05q-10.55-3.75-22.3-1.15-6.45 1.4-10.55 4.15-6.9 3.7-54.65 30.85H117Q63.95 112.7 61.85 114.3l-.1.1q-8.9 7.15-12.9 18.55-.05.1-.05.2-1.7 5.65-1.7 11.85v.05q-.25 18.75-.3 34.7l-.6 84.1q.1 7.65.45 8.95v.1q2.9 11.7 10.65 19.45l-.15-.1q2.85 3.15 8.1 6.35h.05q106.05 63.05 110.6 64.6h-.05q11.5 4.05 22.4 1.1h-.1q6.05-1.45 10.4-4l-.05.05q107.05-60.4 109.95-62.85.1-.1.25-.2 8.85-7.15 12.85-18.55v-.1q1.75-5.45 1.75-12v-.05q.5-32.25.8-62.95.05-3.9.15-7.55v-26.8q.1-28.45-.55-30.55m-1.1 30.55v26.75q-.1 3.7-.15 7.6-.3 30.65-.8 62.95v.05q0 6.3-1.65 11.5l-.05.05q-3.8 10.95-12.3 17.8l.15-.1-.25.25q-.1.05-.15.1-2.9 2.4-109.75 62.65h.05q-4.15 2.45-9.9 3.8h.05q-10.45 2.8-21.45-1.1h.05q-4.55-1.5-110.35-64.4v-.05q-5-3.05-7.7-6.05l.05.1q-7.45-7.45-10.2-18.7v-.05q-.3-1.25-.4-8.6l.6-84.1q.05-15.95.3-34.7 0-6 1.65-11.45v-.1q3.85-10.95 12.35-17.8.05-.05.1-.05 2.05-1.6 55-31.85 48.35-27.45 54.85-30.95 0-.05.05-.05 3.85-2.5 9.85-3.85 11.25-2.45 21.4 1.1 2.95 1.05 55.95 32.45 26.8 15.45 54.35 32h.05q4.85 3 7.65 6.05l.05.05q7.35 7.35 10.05 18.55.6 2.1.5 30.15"/>
        <path fill-opacity=".247" d="M332.6 196.05V169.3q.1-28.05-.5-30.15-2.7-11.2-10.05-18.55l-.05-.05q-2.8-3.05-7.65-6.05h-.05q-27.55-16.55-54.35-32-53-31.4-55.95-32.45-10.15-3.55-21.4-1.1-6 1.35-9.85 3.85-.05 0-.05.05-6.5 3.5-54.85 30.95-52.95 30.25-55 31.85-.05 0-.1.05-8.5 6.85-12.35 17.8v.1q-1.65 5.45-1.65 11.45-.25 18.75-.3 34.7l-.6 84.1q.1 7.35.4 8.6v.05q2.75 11.25 10.2 18.7l-.05-.1q2.7 3 7.7 6.05v.05q105.8 62.9 110.35 64.4h-.05q11 3.9 21.45 1.1h-.05q5.75-1.35 9.9-3.8h-.05q106.85-60.25 109.75-62.65.05-.05.15-.1l.25-.25-.15.1q8.5-6.85 12.3-17.8l.05-.05q1.65-5.2 1.65-11.5v-.05q.5-32.3.8-62.95.05-3.9.15-7.6"/>
    </g>
  </g>
</svg>
