<svg xmlns="http://www.w3.org/2000/svg" xmlns:xlink="http://www.w3.org/1999/xlink" xml:space="preserve" width="88.337" height="104.229" preserveAspectRatio="none">
    <defs>
        <linearGradient id="a" x1="-.025" x2="281.425" y1="239.25" y2="239.25" gradientUnits="userSpaceOnUse" spreadMethod="pad">
            <stop offset="0%" stop-color="#D7D7D7"/>
            <stop offset="43.529%" stop-color="#CCCACA"/>
            <stop offset="48.627%" stop-color="#E1E1E1"/>
            <stop offset="54.902%" stop-color="#C4C4C4"/>
            <stop offset="100%" stop-color="#C9C9C9"/>
        </linearGradient>
        <linearGradient id="c" x1="195.55" x2="3.15" y1="266.462" y2="156.038" gradientUnits="userSpaceOnUse" spreadMethod="pad">
            <stop offset="38.431%" stop-color="#FCFCFC"/>
            <stop offset="100%" stop-color="#EEE"/>
        </linearGradient>
        <linearGradient id="d" x1="85.512" x2="111.088" y1="8.875" y2="62.525" gradientTransform="translate(.016 .165)scale(.31379)" gradientUnits="userSpaceOnUse" spreadMethod="pad">
            <stop offset="0%" stop-color="#FCFCFC" stop-opacity=".698"/>
            <stop offset="81.961%" stop-color="#FFF" stop-opacity="0"/>
        </linearGradient>
        <linearGradient id="f" x1="-.025" x2="281.425" y1="239.25" y2="239.25" gradientUnits="userSpaceOnUse" spreadMethod="pad">
            <stop offset="0%" stop-color="#D7D7D7" stop-opacity=".596"/>
            <stop offset="43.529%" stop-color="#CCCACA" stop-opacity=".596"/>
            <stop offset="48.627%" stop-color="#E1E1E1" stop-opacity=".596"/>
            <stop offset="54.902%" stop-color="#C4C4C4" stop-opacity=".596"/>
            <stop offset="100%" stop-color="#C9C9C9" stop-opacity=".596"/>
        </linearGradient>
        <linearGradient id="g" x1="-.025" x2="281.425" y1="239.25" y2="239.25" gradientUnits="userSpaceOnUse" spreadMethod="pad">
            <stop offset="0%" stop-color="#D7D7D7" stop-opacity=".898"/>
            <stop offset="43.529%" stop-color="#CCCACA" stop-opacity=".898"/>
            <stop offset="48.627%" stop-color="#E1E1E1" stop-opacity=".898"/>
            <stop offset="54.902%" stop-color="#C4C4C4" stop-opacity=".898"/>
            <stop offset="100%" stop-color="#C9C9C9" stop-opacity=".898"/>
        </linearGradient>
        <linearGradient id="h" x1="-.025" x2="281.425" y1="239.25" y2="239.25" gradientUnits="userSpaceOnUse" spreadMethod="pad">
            <stop offset="0%" stop-color="#D7D7D7" stop-opacity=".698"/>
            <stop offset="43.529%" stop-color="#CCCACA" stop-opacity=".698"/>
            <stop offset="48.627%" stop-color="#E1E1E1" stop-opacity=".698"/>
            <stop offset="54.902%" stop-color="#C4C4C4" stop-opacity=".698"/>
            <stop offset="100%" stop-color="#C9C9C9" stop-opacity=".698"/>
        </linearGradient>
        <linearGradient id="i" x1="-.025" x2="281.425" y1="239.25" y2="239.25" gradientUnits="userSpaceOnUse" spreadMethod="pad">
            <stop offset="0%" stop-color="#D7D7D7" stop-opacity=".796"/>
            <stop offset="43.529%" stop-color="#CCCACA" stop-opacity=".796"/>
            <stop offset="48.627%" stop-color="#E1E1E1" stop-opacity=".796"/>
            <stop offset="54.902%" stop-color="#C4C4C4" stop-opacity=".796"/>
            <stop offset="100%" stop-color="#C9C9C9" stop-opacity=".796"/>
        </linearGradient>
        <linearGradient id="j" x1="-.025" x2="281.425" y1="239.25" y2="239.25" gradientUnits="userSpaceOnUse" spreadMethod="pad">
            <stop offset="0%" stop-color="#D7D7D7" stop-opacity=".294"/>
            <stop offset="43.529%" stop-color="#CCCACA" stop-opacity=".294"/>
            <stop offset="48.627%" stop-color="#E1E1E1" stop-opacity=".294"/>
            <stop offset="54.902%" stop-color="#C4C4C4" stop-opacity=".294"/>
            <stop offset="100%" stop-color="#C9C9C9" stop-opacity=".294"/>
        </linearGradient>
        <linearGradient id="k" x1="-.025" x2="281.425" y1="239.25" y2="239.25" gradientUnits="userSpaceOnUse" spreadMethod="pad">
            <stop offset="0%" stop-color="#D7D7D7" stop-opacity=".094"/>
            <stop offset="43.529%" stop-color="#CCCACA" stop-opacity=".094"/>
            <stop offset="48.627%" stop-color="#E1E1E1" stop-opacity=".094"/>
            <stop offset="54.902%" stop-color="#C4C4C4" stop-opacity=".094"/>
            <stop offset="100%" stop-color="#C9C9C9" stop-opacity=".094"/>
        </linearGradient>
        <linearGradient id="l" x1="-.025" x2="281.425" y1="239.25" y2="239.25" gradientUnits="userSpaceOnUse" spreadMethod="pad">
            <stop offset="0%" stop-color="#D7D7D7" stop-opacity=".196"/>
            <stop offset="43.529%" stop-color="#CCCACA" stop-opacity=".196"/>
            <stop offset="48.627%" stop-color="#E1E1E1" stop-opacity=".196"/>
            <stop offset="54.902%" stop-color="#C4C4C4" stop-opacity=".196"/>
            <stop offset="100%" stop-color="#C9C9C9" stop-opacity=".196"/>
        </linearGradient>
        <linearGradient id="m" x1="-.025" x2="281.425" y1="239.25" y2="239.25" gradientUnits="userSpaceOnUse" spreadMethod="pad">
            <stop offset="0%" stop-color="#D7D7D7" stop-opacity=".498"/>
            <stop offset="43.529%" stop-color="#CCCACA" stop-opacity=".498"/>
            <stop offset="48.627%" stop-color="#E1E1E1" stop-opacity=".498"/>
            <stop offset="54.902%" stop-color="#C4C4C4" stop-opacity=".498"/>
            <stop offset="100%" stop-color="#C9C9C9" stop-opacity=".498"/>
        </linearGradient>
        <linearGradient id="n" x1="-.025" x2="281.425" y1="239.25" y2="239.25" gradientUnits="userSpaceOnUse" spreadMethod="pad">
            <stop offset="0%" stop-color="#D7D7D7" stop-opacity=".396"/>
            <stop offset="43.529%" stop-color="#CCCACA" stop-opacity=".396"/>
            <stop offset="48.627%" stop-color="#E1E1E1" stop-opacity=".396"/>
            <stop offset="54.902%" stop-color="#C4C4C4" stop-opacity=".396"/>
            <stop offset="100%" stop-color="#C9C9C9" stop-opacity=".396"/>
        </linearGradient>
        <linearGradient xlink:href="#a" id="b" x1="-.025" x2="281.425" y1="239.25" y2="239.25" gradientUnits="userSpaceOnUse" spreadMethod="pad"/>
        <linearGradient xlink:href="#a" id="e" x1="-.025" x2="281.425" y1="239.25" y2="239.25" gradientUnits="userSpaceOnUse" spreadMethod="pad"/>
        <filter id="o" width="1" height="1" x="0" y="0" color-interpolation-filters="sRGB">
            <feColorMatrix in="SourceGraphic" result="result1" values="1 0 0 0 0 0 1 0 0 0 0 0 1 0 0 0 0 0 0.44 0"/>
        </filter>
    </defs>
    <path fill="url(#a)" d="M281.45 146.4q-.1 3.7-.15 7.6-.3 30.7-.8 63 0 6.05-1.6 11.05-3.65 10.5-11.8 17.05l-.25.25q-2.9 2.4-109.5 62.5-3.95 2.35-9.45 3.65-9.95 2.65-20.45-1.05-4.5-1.55-110-64.3-4.75-2.9-7.35-5.75-3.894-3.894-6.45-8.9-2.104-4.124-3.3-9-.25-1.2-.35-8.3-.1 25.5.35 27.75 1.196 4.99 3.3 9.15 2.556 5.083 6.45 8.95 3.4 3.45 7.35 5.8 105.5 62.75 110 64.3 3.15 1.1 6.4 1.6 5.35.8 11.05 0 1.5-.2 3-.55 4.2-1.05 9.45-3.65 106.6-60.15 109.5-62.75h.25q8.15-6.55 11.8-17.05 1.6-5.55 1.6-11.3.5-32.05.8-62.75.15-15.5.15-27.3" style="fill:url(#b)" transform="translate(.016 .003)scale(.31379)"/>
    <path fill="url(#c)" d="M271.3 72.1q-2.65-2.9-7.35-5.8-27.55-16.5-54.35-32Q156.85 3.05 153.95 2q-9.7-3.4-20.5-1.05-5.75 1.3-9.45 3.7-6.3 3.4-54.85 30.95Q16.4 65.8 14.3 67.35q-8.15 6.6-11.85 17.1Q.9 89.7.9 95.45q-.25 18.75-.3 34.7L0 214.2q.1 7.1.35 8.3 1.196 4.876 3.3 9 2.556 5.006 6.45 8.9 2.6 2.85 7.35 5.75 105.5 62.75 110 64.3 10.5 3.7 20.45 1.05 5.5-1.3 9.45-3.65 106.6-60.1 109.5-62.5l.25-.25q8.15-6.55 11.8-17.05 1.6-5 1.6-11.05.5-32.3.8-63 .05-3.9.15-7.6v-26.7q.1-27.65-.45-29.75-2.6-10.75-9.7-17.85" style="fill:url(#c)" transform="translate(.016 .003)scale(.31379)"/>
    <path fill="url(#d)" d="M85.147 22.789q-.831-.91-2.306-1.82-8.645-5.178-17.055-10.041Q49.234 1.122 48.324.792 45.28-.275 41.891.462q-1.804.409-2.965 1.162-1.977 1.067-17.211 9.712-16.553 9.476-17.212 9.962Q1.946 23.37.785 26.664q-.487 1.648-.487 3.452Q.22 35.999.204 41.004L.016 67.378q.031 2.228.11 2.605.375 1.53 1.035 2.824.802 1.57 2.024 2.793.816.894 2.307 1.804 33.104 19.69 34.517 20.177 3.294 1.16 6.417.33 1.725-.409 2.965-1.146 33.45-18.859 34.36-19.612l.078-.078q2.558-2.056 3.703-5.35.502-1.57.502-3.468.157-10.135.251-19.769.016-1.224.047-2.385v-8.378q.032-8.676-.141-9.335-.816-3.373-3.044-5.601" style="fill:url(#d);stroke-width:.31379"/>
    <path fill="url(#a)" d="M.25 192.25q-.042-.404-.1-.8L0 214.2q-.002.556 0 1.1l-.05 9.3q.046.855.05 1.65l3.65 5.25v.05q2.572 4.972 6.45 8.85 2.6 2.85 7.35 5.75 105.5 62.75 110 64.3 10.5 3.7 20.45 1.05 5.5-1.3 9.45-3.65 106.6-60.1 109.5-62.5l.25-.25q8.15-6.55 11.8-17.05 1.6-5 1.6-11.05.044-2.831.05-5.65.213-4.34.4-8.7.194-13.433.3-26.65-.83 17.592-1.7 35.35-.006 2.806-.05 5.6v.05q.001 5.885-1.55 10.75v-.05q-3.55 10.246-11.5 16.6-.013.061-.05.1l-.2.15q-2.89 2.409-109.35 62.4v.05q-3.837 2.27-9.2 3.5-9.67 2.592-19.9-1-4.464-1.558-109.8-64.2-4.578-2.815-7.1-5.6-.025.014-.05 0-4.491-4.508-7.15-10.55-1.426-3.226-2.35-6.9v.05l-.05-.65q-.155-1.649-.25-6.35-.131-6.851-.3-14.35-.125-4.947-.45-8.7" style="fill:url(#e)" transform="translate(.016 .003)scale(.31379)"/>
    <path fill="url(#f)" d="M281.45 110.55q.006-11.913-.2-17-2.747 57.878-5.7 117.8-.007 2.782-.05 5.55v.1q.006 5.214-1.35 9.5v-.1q-3.135 9.105-10.2 14.8-.14.147-.3.3-2.909 2.321-108.75 62-.046.03-.1.05-3.37 1.973-8.05 3.05-.056.051-.15.05-8.501 2.25-17.5-.95h-.05q-4.391-1.599-109-63.85-.026.014-.05 0-3.99-2.45-6.2-4.85-.088-.043-.2-.15-5.988-6.05-8.35-15.2-.007-.174-.05-.35l.05.15q-.144-.936-.25-6.15l-.3-14.95q-.548-25.523-2.35-43.6-.906-8.842-1.85-13.2l-.1 12.2q.745 3.6 1.45 10.35.488 4.923.85 10.55.646 9.55.95 21.2.04 1.547.05 3.1.156 6.876.3 14.35.11 5.295.25 6.35l-.05-.1q.037.05.05.1 2.381 9.593 8.65 15.9.087.093.15.15 2.302 2.479 6.45 5 104.821 62.358 109.25 63.95 9.32 3.295 18.1.95.08.013.1 0 4.866-1.147 8.35-3.2.04-.009.05-.05 104.59-58.926 108.85-62l.05-.1q.185-.13.35-.3 7.265-5.841 10.5-15.25 1.405-4.38 1.4-9.7v-.05q.043-2.806.05-5.6 2.527-51.18 4.9-100.8" style="fill:url(#f)" transform="translate(.016 .003)scale(.31379)"/>
    <path fill="url(#g)" d="M281.3 173.7q.116-11.97.15-21.75-1.437 29.469-2.9 59.4-.006 2.806-.05 5.6v.05q.002 5.72-1.5 10.45v-.05q-3.449 9.942-11.15 16.15-.089.06-.2.1l-.2.2q-4.285 3.168-109.1 62.25.002.014-.05 0-3.686 2.227-8.85 3.45-.035.013-.1 0-9.34 2.51-19.25-1-4.463-1.577-109.65-64.15l.05.05q-4.468-2.73-6.95-5.4 0-.035-.05-.1-5.17-5.18-7.85-12.5-.782-2.114-1.35-4.45v.1q-.03-.166-.05-.45-.155-1.509-.25-6.35-.131-6.851-.3-14.35-.224-9.933-.95-17.4-.23-2.569-.5-4.2l-.1 12.1q.058.396.1.8.325 3.753.45 8.7.169 7.499.3 14.35.095 4.701.25 6.35l.05.65v-.05q.924 3.674 2.35 6.9 2.659 6.042 7.15 10.55.025.014.05 0 2.522 2.785 7.1 5.6 105.336 62.642 109.8 64.2 10.23 3.592 19.9 1 5.363-1.23 9.2-3.5v-.05q106.46-59.991 109.35-62.4l.2-.15q.037-.039.05-.1 7.95-6.354 11.5-16.6v.05q1.551-4.865 1.55-10.75v-.05q.044-2.794.05-5.6.87-17.758 1.7-35.35.039-1.145.05-2.3" style="fill:url(#g)" transform="translate(.016 .003)scale(.31379)"/>
    <path fill="url(#h)" d="M281.45 119.7q.018-4.987 0-9.15-2.373 49.62-4.9 100.8-.007 2.794-.05 5.6v.05q.005 5.32-1.4 9.7-3.235 9.409-10.5 15.25-.165.17-.35.3l-.05.1q-4.26 3.074-108.85 62-.009.041-.05.05-3.484 2.053-8.35 3.2-.02.013-.1 0-8.78 2.345-18.1-.95-4.429-1.592-109.25-63.95-4.148-2.521-6.45-5-.063-.057-.15-.15-6.269-6.307-8.65-15.9-.013-.05-.05-.1l.05.1q-.14-1.055-.25-6.35-.144-7.474-.3-14.35-.01-1.553-.05-3.1-.304-11.65-.95-21.2-.362-5.627-.85-10.55-.705-6.75-1.45-10.35L.35 167.4q.476 2.661.95 7.4.09.92.15 1.85.944 10.076 1.25 24.3.156 6.876.3 14.35.096 5.018.25 6.35.008.148 0 .25v-.15q.202.747.4 1.45 2.534 8.998 8.55 15.05.075.079.1.1 2.391 2.592 6.65 5.2.049.04.05.05 104.974 62.429 109.4 64h.05q9.59 3.402 18.65 1 .066-.012.1-.05 5.015-1.154 8.6-3.3.053.003.05-.05 104.7-58.981 108.95-62.1l.15-.15q.148-.091.25-.2 7.514-6.024 10.85-15.7v.05q1.454-4.557 1.45-10.1v-.05q.043-2.806.05-5.6 1.995-40.33 3.9-79.65z" style="fill:url(#h)" transform="translate(.016 .003)scale(.31379)"/>
    <path fill="url(#i)" d="M281.45 146.4v-14.7q-1.905 39.32-3.9 79.65-.007 2.794-.05 5.6v.05q.004 5.543-1.45 10.1v-.05q-3.336 9.676-10.85 15.7-.102.109-.25.2l-.15.15q-4.25 3.119-108.95 62.1.003.053-.05.05-3.585 2.146-8.6 3.3-.034.038-.1.05-9.06 2.402-18.65-1h-.05q-4.426-1.571-109.4-64-.001-.01-.05-.05-4.259-2.608-6.65-5.2-.025-.021-.1-.1-6.016-6.052-8.55-15.05-.198-.703-.4-1.45v.15q.008-.102 0-.25-.154-1.332-.25-6.35-.144-7.474-.3-14.35-.306-14.224-1.25-24.3-.06-.93-.15-1.85-.474-4.739-.95-7.4l-.1 11.95q.27 1.631.5 4.2.726 7.467.95 17.4.169 7.499.3 14.35.096 4.841.25 6.35.02.284.05.45v-.1q.568 2.336 1.35 4.45 2.68 7.32 7.85 12.5.05.065.05.1 2.482 2.67 6.95 5.4l-.05-.05q105.187 62.573 109.65 64.15 9.91 3.51 19.25 1 .065.013.1 0 5.164-1.223 8.85-3.45.052.014.05 0 104.815-59.082 109.1-62.25l.2-.2q.111-.04.2-.1 7.701-6.208 11.15-16.15v.05q1.502-4.73 1.5-10.45v-.05q.043-2.794.05-5.6 1.463-29.931 2.9-59.4z" style="fill:url(#i)" transform="translate(.016 .003)scale(.31379)"/>
    <path fill="url(#j)" d="M279.65 85.4q-.399-1.08-.85-2.15-3.047 62.788-6.25 128.1-.007 2.756-.05 5.5v.15q-.003 4.707-1.25 8.6l.1-.2q-2.87 8.293-9.25 13.45-.176.173-.35.3-2.924 2.297-108.35 61.7-.056.083-.15.1-3.018 1.781-7.2 2.75-.09.052-.2.05-7.662 2.002-15.75-.85l-.05-.05q-4.355-1.633-108.45-63.55-.012-.002-.05-.05-3.556-2.152-5.55-4.25-.126-.114-.25-.25-5.2-5.283-7.35-13.1-.115-.433-.25-.9-.064-1.021-.15-5.45l-.3-15.6q-.84-40.44-3.75-69.1Q2.396 115.103.75 108q-.06 6.016-.1 11.7 1.429 6.203 2.75 19.65 2.553 24.897 3.3 61L7 215.3q.092 4.665.2 5.7.081.327.15.65 2.228 8.255 7.7 13.8.111.122.2.2 2.084 2.212 5.75 4.45.063.048.1.05 104.246 62.025 108.6 63.65l.05.05q8.408 2.947 16.35.85.109.014.2 0 4.344-1.038 7.45-2.9.093-.006.15-.05 105.272-59.354 108.45-61.8.203-.158.35-.3 6.63-5.353 9.6-13.9l-.1.15q1.296-4.016 1.3-8.9v-.1q.043-2.781.05-5.55 3.149-64.171 6.1-125.95" style="fill:url(#j)" transform="translate(.016 .003)scale(.31379)"/>
    <path fill="url(#k)" d="M277.85 81.2q-.422-.862-.9-1.75-3.076 64.604-6.4 131.9-.007 2.744-.05 5.5v.15q0 4.213-1.05 7.75-.021.087-.05.15l-.05.1q-2.668 7.544-8.55 12.3-.254.24-.55.5-5.244 3.523-107.8 61.35-.104.06-.25.1-2.753 1.608-6.6 2.5-.125.052-.3.05-7.052 1.85-14.55-.8h-.05q-4.333-1.697-108.15-63.45l.1.05q-3.303-2.009-5.15-3.95-.164-.149-.35-.35-4.637-4.718-6.7-11.65-.209-.75-.4-1.55l.1.35q-.06-.817-.15-5.15l-.3-15.6Q8.604 148.68 5 112.55 3.356 96.581 1.6 87.8q-.7 3.706-.7 7.65-.005.395 0 .8 1.832 7.876 3.55 25.05 3.254 32.365 4.25 78.4l.3 15.6q.078 4.145.15 5.2.145.582.3 1.15 2.102 7.37 7 12.35.161.187.3.3 1.938 2.056 5.4 4.15l-.1-.05q103.98 61.873 108.3 63.55h.1q7.768 2.745 15.1.85.162-.023.25-.05 4.046-.95 6.95-2.65.095-.029.15-.1 102.585-57.815 107.95-61.45.313-.231.6-.5 6.09-4.91 8.85-12.75 1.198-3.758 1.2-8.3v-.15q.043-2.756.05-5.5 3.283-66.31 6.3-130.15" style="fill:url(#k)" transform="translate(.016 .003)scale(.31379)"/>
    <path fill="url(#l)" d="M278.8 83.25q-.442-1.03-.95-2.05-3.017 63.84-6.3 130.15-.007 2.744-.05 5.5v.15q-.002 4.542-1.2 8.3-2.76 7.84-8.85 12.75-.287.269-.6.5-5.365 3.635-107.95 61.45-.055.071-.15.1-2.904 1.7-6.95 2.65-.089.027-.25.05-7.332 1.895-15.1-.85h-.1q-4.32-1.677-108.3-63.55l.1.05q-3.462-2.094-5.4-4.15-.139-.113-.3-.3-4.898-4.98-7-12.35-.155-.568-.3-1.15-.072-1.055-.15-5.2l-.3-15.6q-.996-46.035-4.25-78.4Q2.732 104.126.9 96.25.81 102.262.75 108q1.646 7.103 3.2 22.6 2.91 28.66 3.75 69.1l.3 15.6q.086 4.429.15 5.45.135.467.25.9 2.15 7.817 7.35 13.1.124.136.25.25 1.994 2.098 5.55 4.25.038.048.05.05 104.095 61.917 108.45 63.55l.05.05q8.088 2.852 15.75.85.11.002.2-.05 4.182-.969 7.2-2.75.094-.017.15-.1 105.426-59.403 108.35-61.7.174-.127.35-.3 6.38-5.157 9.25-13.45l-.1.2q1.247-3.893 1.25-8.6v-.15q.043-2.744.05-5.5 3.203-65.312 6.25-128.1" style="fill:url(#l)" transform="translate(.016 .003)scale(.31379)"/>
    <path fill="url(#m)" d="M281 89.95q-.222-.917-.5-1.8-2.868 60.523-5.95 123.2-.007 2.769-.05 5.55v.1q-.005 4.958-1.3 9.05-.001.1-.05.15-3.042 8.748-9.8 14.2-.254.23-.5.45-5.03 3.467-108.45 61.75-.057.068-.15.1-3.22 1.892-7.75 2.95-.055.026-.15.05-8.221 2.155-16.9-.9l-.05-.05q-4.39-1.605-108.85-63.75-.001.014-.05 0-3.83-2.364-6-4.65-.063-.092-.15-.2-5.75-5.8-8.05-14.5-.028-.187-.1-.4-.1-.904-.2-5.95l-.3-14.95q-.648-30.495-2.85-52.3-1.098-11-2.25-16.3l-.1 11.8q.944 4.358 1.85 13.2 1.802 18.077 2.35 43.6L5 215.3q.106 5.214.25 6.15l-.05-.15q.043.176.05.35 2.363 9.15 8.35 15.2.112.107.2.15 2.21 2.4 6.2 4.85.024.014.05 0 104.609 62.251 109 63.85h.05q8.999 3.2 17.5.95.094.001.15-.05 4.68-1.077 8.05-3.05.054-.02.1-.05 105.841-59.679 108.75-62 .16-.153.3-.3 7.065-5.695 10.2-14.8v.1q1.356-4.286 1.35-9.5v-.1q.043-2.768.05-5.55 2.953-59.922 5.7-117.8-.084-2.965-.25-3.6" style="fill:url(#m)" transform="translate(.016 .003)scale(.31379)"/>
    <path fill="url(#n)" d="M280.5 88.15q-.374-1.396-.85-2.75-2.951 61.779-6.1 125.95-.007 2.769-.05 5.55v.1q-.004 4.884-1.3 8.9l.1-.15q-2.97 8.547-9.6 13.9-.147.142-.35.3-3.178 2.446-108.45 61.8-.057.044-.15.05-3.106 1.862-7.45 2.9-.091.014-.2 0-7.942 2.097-16.35-.85l-.05-.05q-4.354-1.625-108.6-63.65-.037-.002-.1-.05-3.666-2.238-5.75-4.45-.089-.078-.2-.2-5.472-5.545-7.7-13.8-.069-.323-.15-.65-.108-1.035-.2-5.7l-.3-14.95q-.747-36.103-3.3-61Q2.079 125.903.65 119.7q-.034 5.373-.05 10.45v1.6q1.152 5.3 2.25 16.3 2.202 21.805 2.85 52.3L6 215.3q.1 5.046.2 5.95.072.213.1.4 2.3 8.7 8.05 14.5.087.108.15.2 2.17 2.286 6 4.65.049.014.05 0 104.46 62.145 108.85 63.75l.05.05q8.679 3.055 16.9.9.095-.024.15-.05 4.53-1.058 7.75-2.95.093-.032.15-.1 103.42-58.283 108.45-61.75.246-.22.5-.45 6.758-5.452 9.8-14.2.049-.05.05-.15 1.295-4.092 1.3-9.05v-.1q.043-2.781.05-5.55 3.082-62.677 5.95-123.2" style="fill:url(#n)" transform="translate(.016 .003)scale(.31379)"/>
    <g fill="#999" style="filter:url(#o)" transform="translate(1.38 63.61)scale(.31379)">
        <path fill-opacity=".467" d="m16.9 65.7.5-.9q-2-1.15-4-2.35l-1.9-1.2-.55.85 1.9 1.2q2.05 1.2 4.05 2.4"/>
        <path fill-opacity=".388" d="m7.65 58.15-.7.75q1.9 1.75 4 3.2l.55-.85q-2-1.4-3.85-3.1"/>
        <path fill-opacity=".149" d="m4.85 53.7-.8.7q1.05 1.3 2.3 2.55h.05q.6.6 1.25 1.2l.7-.7-1.2-1.2q-1.25-1.2-2.3-2.55"/>
        <path fill-opacity=".086" d="M2.7 52.6q.65.9 1.35 1.8l.8-.7q-.7-.85-1.3-1.7Zm23.6 15.15.6-.8q-3.1-1.85-6.25-3.7-.9-.55-1.8-1.05l-.45.85q.95.6 1.9 1.15 3.05 1.8 6 3.55"/>
        <path fill-opacity=".169" d="m3.3 55 .75-.6q-.7-.9-1.35-1.8l-.75.6q.6.9 1.35 1.8"/>
        <path fill-opacity=".247" d="m4.05 54.4-.75.6q1.1 1.4 2.35 2.65.6.6 1.3 1.25l.7-.75q-.65-.6-1.25-1.2h-.05Q5.1 55.7 4.05 54.4"/>
        <path fill-opacity=".047" d="m.85 51.55.9-.45q-.6-.9-1.1-1.9l-.65.85q.4.75.85 1.5m12.3 7.15-.55.85q.9.6 1.8 1.15 2 1.2 4 2.35l.45-.85Q16.9 61 14.9 59.85q-.9-.55-1.75-1.15"/>
        <path fill-opacity=".078" d="m1.75 51.1-.9.45q.5.8 1.1 1.65l.75-.6q-.5-.75-.95-1.5"/>
        <path fill-opacity=".067" d="M3.55 52q-.5-.65-.9-1.35l-.9.45q.45.75.95 1.5Z"/>
        <path fill-opacity=".039" d="m4.35 51.4-.8.6q.6.85 1.3 1.7l.75-.65q-.65-.8-1.25-1.65M1.3 48.3l-.65.9q.5 1 1.1 1.9l.9-.45q-.7-1.15-1.35-2.35"/>
        <path fill-opacity=".059" d="M7.85 55.5q-1.2-1.15-2.25-2.45l-.75.65q1.05 1.35 2.3 2.55l1.2 1.2.7-.75q-.6-.55-1.2-1.15z"/>
        <path fill-opacity=".11" d="m12.05 60.4.55-.85q-1.85-1.3-3.55-2.85l-.7.75q1.75 1.6 3.7 2.95"/>
        <path fill-opacity=".188" d="m12.6 59.55-.55.85q.9.65 1.85 1.2 2 1.2 4 2.35l.5-.9q-2-1.15-4-2.35-.9-.55-1.8-1.15"/>
        <path fill-opacity=".176" d="m11.5 61.25.55-.85q-1.95-1.35-3.7-2.95l-.7.7q1.85 1.7 3.85 3.1"/>
        <path fill-opacity=".267" d="m12.05 60.4-.55.85 1.9 1.2q2 1.2 4 2.35l.5-.85q-2-1.15-4-2.35-.95-.55-1.85-1.2"/>
        <path fill-opacity=".027" d="m12.6 59.55.55-.85q-1.75-1.2-3.4-2.7l-.7.7q1.7 1.55 3.55 2.85"/>
        <path fill-opacity=".318" d="m26.3 67.75-.55.85q4.55 2.65 8.9 5.25l.5-.85q-4.3-2.6-8.85-5.25"/>
        <path fill-opacity=".259" d="M26.3 67.75q-2.95-1.75-6-3.55-.95-.55-1.9-1.15l-.5.9q1 .6 2.05 1.25 2.95 1.7 5.8 3.4z"/>
        <path fill-opacity=".576" d="m24.6 70.25.6-.85-5.6-3.3-2.2-1.3-.5.9q1.2.7 2.35 1.4 2.7 1.55 5.35 3.15"/>
        <path fill-opacity=".678" d="m25.2 69.4-.6.85q4.6 2.7 9 5.3l.55-.9q-4.4-2.55-8.95-5.25"/>
        <path fill-opacity=".137" d="m26.9 66.95-.6.8q4.55 2.65 8.85 5.25l.55-.85q-4.3-2.55-8.8-5.2"/>
        <path fill-opacity=".349" d="m25.2 69.4.55-.8q-2.85-1.7-5.8-3.4-1.05-.65-2.05-1.25l-.5.85 2.2 1.3z"/>
        <path fill-opacity=".478" d="m25.75 68.6-.55.8q4.55 2.7 8.95 5.25l.5-.8q-4.35-2.6-8.9-5.25"/>
        <path fill-opacity=".796" d="M276 35.9q.15-2.7.15-5.25l.25-12.05q-.7 8.3-1.45 17.3h.05q-.15 4.8-1.5 9.5-3.35 9.65-10.7 15.8-.45.1-.8.4-3 2.55-109.75 62.4-.1 0-.1.05-5 2.4-9 3.4-1.4.35-2.8.55-5.5.75-10.55 0-3.1-.5-6.1-1.55-4.05-1.4-89.55-51.8l-.55.9q85.7 50.5 89.8 51.85 3.05 1.05 6.25 1.55 5.2.8 10.8 0h.05q1.4-.2 2.85-.5 4.15-1.05 9.25-3.5 0-.05.05-.05 107-59.95 110-62.55.25-.2.55-.25 7.75-6.35 11.25-16.35v.05q1.4-4.9 1.55-9.9"/>
        <path fill-opacity=".196" d="M275.25 8.65h-.05q-2.05 12.7-3.25 27.25h.05q-.15 4.3-1.3 8.5-3.05 8.6-9.5 14.15-.65.3-1.3.85-2.9 2.45-109.05 61.95-.05 0-.05.05-.05 0-.05.05h-.1q-4.5 2.2-8.15 3.15h-.1q-1.25.3-2.45.45h-.05q-5 .7-9.65 0-2.85-.45-5.55-1.35-4.05-1.5-89-51.55l-.55.85q85.15 50.15 89.2 51.65h.05q2.75.95 5.7 1.35 4.8.7 9.95 0h.05q1.3-.15 2.6-.45 3.8-.95 8.45-3.2 106.5-59.7 109.5-62.2.5-.5 1.1-.7 6.7-5.7 9.8-14.5 1.3-4.45 1.45-9.05h-.05q1.2-14.55 2.3-27.25"/>
        <path fill-opacity=".596" d="m276.4 18.6.2-17.45q-1.5 20.6-2.65 34.75h.05q-.15 4.75-1.45 9.35-3.25 9.15-10.3 15.05-.5.2-.95.6-2.95 2.5-109.65 62.3-4.85 2.35-8.75 3.3h.05q-1.4.3-2.75.5-5.3.7-10.25 0-3-.5-5.9-1.4-4.1-1.45-89.4-51.75l-.5.8q85.5 50.4 89.55 51.8 3 1.05 6.1 1.55 5.05.75 10.55 0 1.4-.2 2.8-.55 4-1 9-3.4 0-.05.1-.05Q259 64.15 262 61.6q.35-.3.8-.4 7.35-6.15 10.7-15.8 1.35-4.7 1.5-9.5h-.05q.75-9 1.45-17.3"/>
        <path fill-opacity=".396" d="m276.6 1.15.05-1.15-1.4 8.65q-1.1 12.7-2.3 27.25h.05q-.15 4.6-1.45 9.05-3.1 8.8-9.8 14.5-.6.2-1.1.7-3 2.5-109.5 62.2-4.65 2.25-8.45 3.2-1.3.3-2.6.45h-.05q-5.15.7-9.95 0-2.95-.4-5.7-1.35h-.05q-4.05-1.5-89.2-51.65l-.5.85q85.3 50.3 89.4 51.75 2.9.9 5.9 1.4 4.95.7 10.25 0 1.35-.2 2.75-.5h-.05q3.9-.95 8.75-3.3 106.7-59.8 109.65-62.3.45-.4.95-.6 7.05-5.9 10.3-15.05 1.3-4.6 1.45-9.35h-.05q1.15-14.15 2.65-34.75"/>
    </g>
</svg>
