<svg xmlns="http://www.w3.org/2000/svg" xml:space="preserve" id="svg5" width="88.338" height="100" version="1.1">
    <g id="blackPillbug" style="display:inline" transform="translate(-57.646 -60.29)">
        <path id="path18874-1-1" d="M111.197 70.291c-.097.043-.215.185-.439.273-.075.032-.178.115-.262.156-.006-.022.022-.065 0-.087a3.5 3.5 0 0 1-.503.427c-.628.4-1.318.858-1.793 1.225-.162.126-.313.266-.472.395-3.367 2.51-9.838 7.394-10.042 6.978.27-.438.047.27-.362.617-2.076 1.2-2.193 3.592-2.724 5.733-.266 1.07-.532 1.645-.25 2.769.137.554.847 1.72-.311 1.735-.41.008-.607-.678-1.184-.662-.388.008-.777.439-1.085.618-.432.254-1.118.386-1.479.739-.117.11-.706.984-.584.995a.8.8 0 0 1-.108-.41c.043-.01.347 1.311-.523 1.311-.383 0-.687-.777-.923-.979-.794-.683-1.8-.71-2.758-.8a26 26 0 0 0-2.446-.685q-.27-.098-.54-.2c-1.598-.6-2.675-.064-4.125.757-2.506 1.42-4.565 2.528-7.29 3.397-.942.3-1.862.653-2.792.98-1.332.47-3.098.602-4.142 1.612-1.276 1.23.846 1.077 1.529.928a22 22 0 0 0 3.42-1.023c1.69-.373 3.456-.803 3.436-.895-.01-.065-.397-.032-.918.054.985-.306 1.952-.643 2.83-1.23 1.435-.956 3.23-2.365 4.855-2.907 1.681-.559 4.07.317 5.65.928 1.237.482 1.315.449 1.3 1.607-.008.76.154 1.512.223 2.252-.01.184.002.32.043.478-.003.508-.172.553.339.934.334.254.954.309 1.357.244 1.256-.197 1.993-1.51 2.658-2.435.956-1.337 2.72-2.57 4.359-2.858 1.518-.27 3.995-.277 4.932-1.874 1.013-1.736-2.271-2.261-3.186-3.086a2 2 0 0 1-.195-.24c-.064-.085-.144-.175-.189-.272a1.9 1.9 0 0 1-.15-.733c-.009-.195.043-.406.076-.612.032-.176.032-.325.086-.528.01-.043.086-.316.116-.411.26-.781.617-1.58.78-2.174.188-.691.188-1.274.717-1.802.622-.618 1.64-.89 2.407-1.295 1.333-.71 2.713-1.533 3.932-2.425 1.15-.842 2.083-1.953 3.275-2.747.387-.258.777-.364 1.011-.79.236-.424.065-.678.4-1.061.57-.642 1.628-.702 2.103-1.518.129-.224.385-.78.256-1.073-.137-.313-.215-.375-.311-.334zm-5.283 18.206c-.043-.002-.107.022-.156.033-.006 0-.01-.006-.021-.006s-.011.01-.032.01c-.033.01-.054.004-.086.022-.022.009-.022.033-.043.043-.476.163-.346.905-.445 1.29-.021.043-.032.108-.075.14-.37.305-1.368.074-2.263-.076-.462-.234-.928-.407-1.38-.156-.857.479-.005 1.058.076 1.757.086.713.086.72-.656 1.206-.915.612-2.19 1.614-3.276 1.808-.454.075-.897-.011-1.35.064-.022.001-.065-.005-.076-.005a.4.4 0 0 0-.097.021l-.006.006c-.59.075-2.574.6-2.524 1.429a11.7 11.7 0 0 0-2.62 2.185c-.747.843-1.686 1.718-2.73 2.185-.451.205-.893.34-1.39.097-.383-.19-.98-1.722-1.117-1.707l-.006.01c-.296.033-.752 2.813-1.09 3.12-.706.638-1.273-.178-1.896.086-1.002.433-.021.788.418.962.043.022.053.022.096.043.236.183.48.33.723.4.097.108.189.195.262.473.082.31-.029.4-.081.144-.308-.006-.32 1.109-.228 2.33a.3.3 0 0 1-.022.075c-.086.873-.12 1.763.076 2.625.053.243.73 2.55 1.095 2.485.22-.032.504-2.427.751-2.78.263-.38.7-.652 1.173-.878 1.258-.225 3.614-1.238 5.533-2.218a67 67 0 0 0 3.731-1.88c2.164-1.173 4.359-2.464 6.378-3.864.733-.506 1.42-1.136 2.107-1.774 1.233-.883 2.986-2.217 3.331-2.425.272-.163.496-.275.729-.39.942-.244 1.714.125 2.696.134.428.006.546.033.59-.043.086.011.323.065.334.054.086-.112-.126-.394-.45-.734-.297-.528-1.053-1.013-1.418-1.279-.419-.305-.858-.667-1.307-1.011l-.086-.076a.2.2 0 0 1-.054-.032c-.385-.29-.774-.573-1.167-.779-.282-.146-.698-.199-1.007-.328-.132-.097-.269-.184-.372-.3-.26-.46-.043-1.068-.177-1.59-.022-.097-.076-.243-.118-.378.006-.277-.054-.505-.295-.523zm8.391 6.829c-.69-.133-.739.703-1.134.89-.604.277-.097.116-.934.064-.232-.01-.473.009-.711.022-.122-.022-.23-.076-.356-.076-.733 0-1.468.022-2.125.356-.365.188-.655.494-.939.801-.736.59-1.408 1.322-2.163 1.907-1.465 1.135-2.814 2.224-4.37 3.253-2.567 1.7-5.683 3.871-8.686 4.615-1.612.405-3.36.905-4.823 1.753a4 4 0 0 0-.505.236c-.157.125-.21.078-.36.214-.178.25-.715.937-1.19 2.082-.174.418-.253.665-.679.912-.326.193-.967.053-1.207.361-.983 1.257 1.242.647 1.352.651.887.01.978.817 1.25 1.546.098.266.643 1.852.901 1.768.497-.16.284-1.626.44-1.98.085-.204.237-.385.417-.55.29.003 1.532-.581 3.002-1.313.504-.14 1.083-.303 1.43-.433 1.746-.657 3.487-1.385 5.104-2.319 2.98-1.712 6.73-3.097 9.125-5.622 1.192-1.256 2.418-1.99 3.803-2.997.641-.462 1.096-1.09 1.885-1.356.482-.164.78-.154 1.251-.076.172.022.75.413 1.068.378.118.054.293.171.323.139.006-.006-.13-.182-.15-.218.126-.275-1.268-1.862-1.418-2.207-.175-.395-.331-.553-.123-.995.123-.086.264-.185.384-.367.255-.137.542-.238.629-.478.17-.47.011-.858-.49-.957zm-.344 6.06c-.342-.042-.664-.021-.94.097-.219.086-1.084.829-2.074 1.69-2.846 2.157-5.534 4.473-8.624 6.295-1.836 1.08-3.68 2.344-5.694 3.075-.904.268-1.865.514-2.057.556-.27.065-2.577.736-3.854 1.313-.021.006-.032.01-.043.021-.096.043-.217.086-.3.134-.484.204-.923.434-1.134.717h-.006c-.16.139-.317.185-.38.401.32-.095-.025-.638-.032 1.263-.076.889-.065 1.848-.022 2.33.043.437 1.087 2.547 1.474 2.463.136-.021.505-1.306.661-1.496.433-.527 1.084-.898 1.68-1.206 1.116-.566 2.283-.853 3.475-1.196 2.593-.736 4.887-1.948 7.206-3.28 4.275-2.456 7.888-5.567 11.805-8.486.574-.425.95-.777 1.68-.867.398-.054 1.131.267 1.412.133.043-.021.065-.064.097-.096.137.043.38.13.4.112.125-.13-.548-1.091-1.145-1.852-.065-.086-.167-.25-.211-.3-.022-.022-.075-.054-.097-.076-.12-.135-.311-.409-.378-.456-.585-.42-1.578-.964-2.508-1.179-.053-.01-.125-.043-.177-.054h-.022c-.064-.01-.132-.043-.195-.053zm8.446 2.72c-.947.181-2.743 1.887-3.38 2.146-.62.258-1.274.108-1.908.323-.054.021-.107.064-.161.086-.022.009-.054.032-.075.043-.616.271-1.247.725-1.78 1.095-1.382.96-2.514 2.302-3.831 3.364-2.038 1.648-4.241 3.115-6.511 4.432-.736.43-1.492.89-2.263 1.318-.001-.01.032-.032.021-.043.011.021-.175.112-.228.156-.62.339-1.261.615-1.902.878-1.205.385-2.513.732-2.785.812-.56.164-5.349 1.745-5.589 2.475-.164.126-.358.232-.5.372-.262.262-.356.626-.645.873-.421.36-1.078.512-1.557.79-.34.196-2.071.925-2.09 1.156-.086 1.173 3.845-.568 4.187-.461.797.258 1.126 2.888 1.885 1.195.258-.584.032-.8.5-1.268.334-.333 1.096-.626 1.551-.823 1.504-.646 3.09-.325 4.643-.74.076-.02.14-.053.211-.074.14-.022.544-.076.595-.087.177-.043 2.105-.808 3.242-1.467 1.85-.927 3.64-2.003 5.422-2.97 1.51-.82 2.995-1.978 4.103-3.303.98-1.173 2.008-2.646 3.192-3.625.584-.486 1.425-.906 2.135-1.157.616-.216.708.076 1.24-.021.179-.033.25-.086.34-.139.031.002.139.043.149.032.008-.01-.033-.064-.033-.086.294-.275-.156-.74-.356-1.245-.387-.969.054-.94.857-1.54.494-.369 2.957-1.86 1.662-2.475a.6.6 0 0 0-.344-.022zm-2.452 6.494c-1.998.206-3.007 2.11-4.31 3.581-2.106 2.38-4.889 4.056-7.573 5.7-1.922 1.18-3.904 2.52-6.06 3.286-.697.198-1.023.256-1.546.378-2.21.324-5.418.138-6.506 2.118-.748 1.363-.557 2.195.31 3.448.623.898.735.468 1.14-.033.311-.077.48-.253.524-.447.021-.011.889-.327.923-.45 1.521-.647 4.955-1.212 7.229-1.653 1.256-.242 1.53-.341 2.639-.926.7-.28 1.25-.547 1.323-.762.536-.313 1.075-.614 1.613-.923 1.917-1.1 4.033-2.149 5.7-3.614.983-.865 1.557-2.044 2.324-3.08.726-.979 1.714-1.82 2.696-2.58.378-.191.863-.491 1.546-.952.436-.217.781-.452.98-.718l.064-.043c.003-.01-.011-.032-.011-.054.032-.064.118-.132.116-.205-.011-.503-.664-1.176-1.307-1.618-.008-.01-.032-.043-.043-.043-.021-.011-.043-.011-.064-.033-.295-.19-.58-.342-.796-.372a3.8 3.8 0 0 0-.917-.021zm7.14 1.753c-.37.086-.676.385-.985.662-1.864.82-4.443 2.174-4.526 2.569-.006.021.008.032.006.053a15 15 0 0 0-1.957 1.624c-.608.602-1.09 1.255-1.557 1.918-.15.108-.281.334-.411.585-.197.282-.389.558-.6.839-.484.646-1.12 1.17-1.791 1.657-.075.054-.152.097-.2.144-1.08.752-2.267 1.392-3.32 2.058-3.409 2.156-6.595 3.457-10.626 3.981-1.344.174-2.577.5-3.815 1.095q-1.062.526-2.09 1.118c-1.04.589-2.51 1.17-3.292 2.107-.683.82.032 1.058.806.929.835-.144 1.493-.771 2.18-1.212.603-.389 1.03-.336 1.379-.075.188.56.714 1.237 1.072 1.623-.01-.032-.021-.075-.043-.11.033.075.065.114.097.182-.021-.021-.043-.054-.064-.075.118.328.226.583.305.634.011.006.043-.012.054-.006v.006c.155.187.365.263.79.177.645-.129 1.51-.873 2.152-1.15 1.742-.749 3.548-1.24 5.416-1.563 2.497-.43 4.532-1.58 6.722-2.814 2.422-1.366 4.78-2.75 6.534-4.932 1.131-1.405 2.36-2.812 3.803-3.909.763-.577 2.952-1.242 2.997-2.119.076-1.469-2.28-2.006-.628-3.464.509-.452 1.215-.652 1.746-1.073.373-.295.736-.834.718-1.184.043-.097.054-.184.006-.25-.006-.01-.097.032-.108.032-.124-.112-.357-.154-.778-.054zm-1.43 8.118c-.65.022-1.248.77-2.079 1.48a31.6 31.6 0 0 0-3.503 3.513c-1.09 1.28-2.343 2.309-3.737 3.231-2.02 1.336-4.115 2.837-6.378 3.737-1.897.75-3.968.608-5.843 1.306-.763.281-4.643 1.293-4.844 1.969-.35 1.17 1.917 1.956 1.052 3.208-.399.581-1.054 1.039-1.48 1.657-.36.528-1.98 1.662-1.985 2.258-.003.993 1.352.269 2.441-.39.38.195 1.34-.475 1.902-1.15.525-.342 1.069-.66 1.54-.557.342.075.348.674.868.39.372-.202.096-.635.244-.985.645-1.507 3.102-2.377 4.393-3.147 1.116-.668 2.293-1.119 3.447-1.707a84 84 0 0 0 7.835-4.538c1.421-.928 3.054-2.672 4.776-3.736.168-.033.44-.198.723-.378-.156.054-.208.075-.333.116.193-.107.387-.19.584-.272-.086.064-.167.108-.25.156a54 54 0 0 1 1.317-.45c.149-.033.45-.007.69 0 .6.12 1.548.562 1.896.333.258-.168.18-.432.043-.706-.022-.292-.22-.564-.423-.818-.043-.12-.086-.239-.043-.323.108-.17 1.57-.26 1.896-.378.847-.307 1.702-.747 2.48-1.195.395-.226 1.034-.66.706-.995.011-.033.054-.054.054-.076.19-.754-1.38-.01-1.863.108-.118.032-.301.075-.439.112-.166-.008-.325-.022-.518-.022-.836-.008-1.626.537-2.407.556-.446-.032-.921-.667-1.268-1.056-.065-.122-.108-.215-.2-.345-.493-.667-.905-.914-1.296-.9zm1.975 6.956c-1.006.065-2.28.805-3.092 1.363-1.064.539-1.959 1.094-1.99 1.412-2.35 1.74-4.775 3.427-7.335 4.81-1.769.952-3.439 1.834-5.31 2.563-1.397.543-3.223 1.136-4.332 2.169v-.006c-.338.315-1.057.911-1.084 1.423-.032.745.484.666 1.013 1.046.603.437 2 2.277 2.607.751.12-.296.087-.55.076-.817.064-.188.107-.384.128-.6.021-.044.021-.076.043-.113.375-.592 1.196-1.037 1.807-1.318 1.006-.459 2.025-.584 3.103-.739.736-.107 1.473-.345 2.207-.639.141-.043.243-.097.318-.144a18 18 0 0 0 2.29-1.185c.408-.228.777-.467 1.14-.739.23-.158.478-.316.695-.472 1.97-1.42 3.39-4.043 5.622-5.049 1.036-.47 1.73.233 2.725.139 1.112-.108.741-1.745.672-2.675-.021-.344-.124-.589-.261-.773a.74.74 0 0 0-.378-.3c-.043-.021-.086-.021-.133-.043-.043-.01-.076-.032-.128-.043-.008 0-.043.022-.054.022-.117-.022-.22-.054-.35-.043zm-.006 4.682c-.961-.032-1.679.404-2.352.94-.329.21-.607.429-.762.628-.065.065-.139.108-.206.167-2.46 2.277-4.707 4.324-7.75 5.838-1.154.574-2.396.818-3.626 1.101.043-.032.178-.097.172-.117-.086-.271-2.764.698-3.136 1.168-.18.097-.37.143-.545.256v.006c-.671.437-1.216 2.452-1.535 3.17-.34.777-2.01 3.344-1.29 4.008.907.835 1.993-.996 2.391-1.523.012-.022.097-.195.128-.24.257-.356.432-.694.573-1.05.54-1.008 1.17-2.186 1.19-2.186.064 0 .117.065.172.111.075.22.173.368.317.34.165.16.356.201.623-.285.259-.471-.13-1.194-.043-1.73.086-.538.665-1.584 1.402-1.261.307.132-.086 1.48.043 2.046.193.9 1.898 3.404 2.574 1.54.097-.266.054-.604-.021-.957.053-.493.01-1.122-.15-1.529.086-.291.316-.518.84-.59.18-.02.347-.01.51.012.196.064.35.109.668.25.895.48 1.616 1.467 2.49 1.724 1.455.425 2.578-.769 2.559-2.09-.022-1.188-.25-2.068.205-3.214.634-1.606 1.544-.618 2.569.205.535.43.683.888 1.279.24.307-.334.274-.8.172-1.224.011-.44-.239-.835-.579-1.19-.054-.065-.086-.108-.144-.172-.054-.054-.086-.108-.15-.15-.175-.194-.357-.414-.517-.506-.097-.053-.328-.053-.511-.064-.286-.108-.572-.19-.806-.195-.022 0-.032.011-.054.011-.19-.086-.322-.212-.262-.49.316-1.445 2.61.002 3.209.134.121.022.677.147.84.065.713-.353-.009-.423.271-.673.51-.46.844.043 1.568.172.756.137 3.048-.413 3.66-.895.41-.327.338-.54.133-.706-.001-.008.008-.011.006-.021-.032-.166-.366-.23-.812-.256-.343-.065-.708-.146-.945-.167-1.45-.125-2.945-.602-4.377-.651zm-3.414 7.112a.8.8 0 0 0-.318.097c-.945.55-.14 3.292 1.307 1.524.353-.432.054-1.069-.411-1.396a.2.2 0 0 0-.075-.054c-.163-.097-.325-.187-.506-.172zm-6.912 3.943a.55.55 0 0 0-.267.116c-1.253 1.108 1.762 2.663 2.213 1.273.196-.608-1.208-1.513-1.946-1.39z" style="fill:none;fill-opacity:1;fill-rule:nonzero;stroke:#9a9a9a;stroke-width:2;stroke-linecap:round;stroke-linejoin:round;stroke-dasharray:none;stroke-opacity:1" transform="translate(.088 .041)"/>
        <path id="path66" d="M111.246 70.275a.1.1 0 0 0-.045.012l-.004.004c-.097.043-.216.185-.44.273-.075.032-.177.116-.261.157v-.002c-.003-.019.012-.052.008-.075l-.002-.002v-.002l-.004-.005-.002-.002-.54.4c-.628.4-1.28.885-1.755 1.252-.162.126-.314.265-.473.394-3.328 2.481-4.601 4.011-9.854 6.989-.257.342-.583.816-.55.607-2.076 1.2-2.194 3.592-2.725 5.733-.266 1.07-.532 1.645-.25 2.769.137.554.848 1.72-.31 1.734-.41.008-.607-.678-1.184-.662-.388.008-.778.44-1.086.62-.432.253-1.118.385-1.479.738-.104.098-.588.81-.6.965l-.013-.026c.035.388-.03.957-.601.957-.383 0-.686-.776-.922-.978-.794-.683-1.802-.711-2.76-.801a26 26 0 0 0-2.445-.686q-.27-.096-.54-.199c-1.597-.6-2.674-.065-4.124.756-2.506 1.42-4.566 2.53-7.291 3.398-.942.3-1.861.652-2.791.979-1.332.47-3.099.603-4.143 1.613-1.276 1.23.846 1.077 1.53.928a22 22 0 0 0 3.42-1.023c1.69-.373 3.455-.803 3.435-.895v-.004h-.002v-.004h-.002c-.002-.002.202-.079.082-.026-.07-.042.254-.093.306-.165.985-.306.65-.39 1.528-.977 1.435-.956 3.23-2.366 4.855-2.908 1.681-.56 4.07.319 5.65.93 1.238.482 1.314.447 1.3 1.605-.009.76.153 1.512.222 2.252-.01.184.002.32.043.478-.003.508-.171.553.34.934.334.254.954.31 1.357.244 1.256-.197 1.994-1.51 2.659-2.435.956-1.337 2.718-2.57 4.357-2.858 1.518-.27 3.997-.276 4.934-1.873 1.013-1.736-2.273-2.26-3.188-3.086a2 2 0 0 1-.193-.24c-.064-.085-.145-.174-.19-.271a1.9 1.9 0 0 1-.15-.735c-.01-.195.043-.405.076-.611.032-.176.032-.325.086-.528.01-.043.085-.317.115-.412.26-.78.618-1.58.781-2.173.188-.691.188-1.275.717-1.803.622-.618 1.64-.89 2.407-1.295 1.333-.71 2.712-1.532 3.931-2.424 1.15-.842 2.084-1.954 3.276-2.748.387-.258.777-.363 1.011-.789.236-.424.066-.678.4-1.06.57-.643 1.627-.704 2.102-1.52.13-.224.385-.78.256-1.072-.116-.264-.188-.35-.266-.346zM89.677 92.146a1.1 1.1 0 0 0-.074-.351v-.002h-.004a.8.8 0 0 0 .078.353m16.237-3.65c-.043-.002-.108.022-.157.033h-.004l-.006-.004-.006-.002h-.006l-.002.002h-.004l-.002.002-.006.004h-.002l-.002.002h-.014c-.033.01-.054.006-.086.024l-.01.006c-.01.008-.016.022-.025.03l-.008.007c-.476.163-.346.904-.445 1.289-.021.043-.031.108-.074.14-.37.305-1.37.074-2.264-.076-.462-.234-.927-.407-1.38-.156-.856.479-.004 1.059.077 1.758.086.713.086.719-.656 1.205-.915.612-2.191 1.614-3.277 1.808-.454.075-.897-.01-1.35.065-.022 0-.065-.006-.076-.006a.4.4 0 0 0-.096.022l-.006.005c-.59.075-2.575.601-2.525 1.43a11.7 11.7 0 0 0-2.62 2.184c-.746.843-1.686 1.718-2.73 2.185-.45.205-.893.34-1.39.098-.38-.189-.973-1.698-1.116-1.707l-.007.01c-.296.033-.752 2.812-1.09 3.119-.706.638-1.272-.178-1.895.086-1.002.433-.02.789.418.963.043.022.053.022.096.043.236.183.48.33.722.4.097.108.19.195.262.473.031.209.082.203-.08.144-.308-.006-.32 1.107-.228 2.328a.3.3 0 0 1-.022.077c-.086.873-.12 1.763.076 2.625.053.243.729 2.549 1.094 2.484.22-.032.505-2.426.752-2.78.263-.38.699-.652 1.172-.878 1.258-.225 3.614-1.237 5.533-2.217a67 67 0 0 0 3.73-1.881c2.164-1.173 4.36-2.463 6.38-3.863.732-.506 1.42-1.138 2.107-1.776 1.233-.883 2.985-2.215 3.33-2.423a10 10 0 0 1 .728-.391c.942-.244 1.716.126 2.698.135.428.006.546.033.59-.043.08.01.294.057.33.054h.004v-.002c.086-.112-.126-.392-.45-.732-.297-.528-1.055-1.013-1.42-1.28-.419-.304-.857-.667-1.306-1.011l-.086-.076a.2.2 0 0 1-.053-.031c-.385-.29-.775-.574-1.168-.78-.282-.146-.697-.199-1.006-.328-.132-.097-.27-.185-.373-.3-.26-.46-.043-1.069-.177-1.59-.022-.098-.076-.242-.118-.377.006-.277-.053-.506-.295-.524zm8.212 6.816c-.524.032-.597.735-.955.905-.604.277-.096.114-.933.062-.232-.01-.473.01-.711.024-.122-.022-.232-.076-.358-.076-.733 0-1.468.021-2.125.355-.365.188-.653.494-.937.8-.736.59-1.41 1.324-2.164 1.909-1.465 1.135-2.813 2.223-4.37 3.252-2.566 1.7-5.684 3.871-8.687 4.615-1.612.405-3.338.982-4.802 1.83-.155.015-.282.132-.423.198-.03.06-.157.084-.083.105-1.016.672-1.094 1.007-1.569 2.152-.174.418-.254.665-.68.912-.326.193-.967.054-1.207.362-.983 1.257 1.242.646 1.352.65.887.01.978.816 1.25 1.545.098.266.644 1.854.902 1.77.497-.16.284-1.627.44-1.98.085-.205.238-.387.418-.552.29.003 1.532-.58 3.002-1.312.504-.14 1.082-.304 1.43-.434 1.745-.657 3.486-1.384 5.103-2.318 2.98-1.712 6.73-3.096 9.125-5.621 1.192-1.256 2.418-1.991 3.803-2.998.64-.462 1.095-1.09 1.884-1.356.482-.164.781-.154 1.252-.076.172.022.75.412 1.069.377.107.049.262.15.312.145h.002l.002-.002h.002l.002-.002h.002v-.004c-.01-.025-.131-.181-.15-.215.126-.275-1.268-1.862-1.418-2.207-.175-.395-.331-.552-.123-.994.123-.086.265-.186.385-.368.255-.137.542-.238.629-.478.17-.47.01-.858-.49-.957l-.003-.004a.7.7 0 0 0-.177-.014zm-.418 6.055a1.6 1.6 0 0 0-.687.115c-.219.086-1.084.83-2.074 1.692-2.846 2.157-5.533 4.473-8.623 6.295-1.836 1.08-3.682 2.343-5.696 3.074-.904.268-1.864.515-2.056.557-.27.065-2.577.735-3.854 1.312-.02.006-.032.01-.043.022-.096.043-.217.084-.3.132-.484.204-.922.434-1.133.717h-.006c-.097.13-.155.355-.219.57v-.039c-.152-.002-.2.486-.193 1.133-.076.89-.067 1.848-.024 2.33.043.437 1.088 2.547 1.475 2.463l.006-.002c.14-.059.5-1.307.654-1.494.433-.527 1.086-.897 1.682-1.205 1.116-.566 2.282-.852 3.474-1.195 2.593-.736 4.886-1.95 7.205-3.282 4.275-2.456 7.888-5.567 11.805-8.486.574-.425.952-.775 1.682-.865.398-.054 1.13.267 1.412.133.043-.021.064-.066.096-.098.128.04.352.12.396.115h.002v-.002h.002c.125-.13-.548-1.09-1.145-1.851-.065-.086-.166-.251-.21-.301-.022-.022-.076-.054-.098-.076-.12-.135-.31-.408-.377-.455-.585-.42-1.58-.965-2.51-1.18-.053-.01-.124-.044-.176-.055h-.021c-.064-.01-.132-.043-.195-.053l.002-.002a3 3 0 0 0-.252-.019zm8.834 2.723a.6.6 0 0 0-.138.015c-.948.185-2.74 1.888-3.377 2.147-.62.258-1.274.107-1.908.322-.054.021-.106.064-.16.086-.023.009-.056.032-.077.043-.616.271-1.246.726-1.779 1.096-1.382.96-2.513 2.301-3.83 3.363-2.038 1.648-4.242 3.117-6.512 4.434-.735.43-1.491.886-2.262 1.314v-.002l.002-.002v-.002l.02-.023v-.01h-.002v.006h-.002c-.02.03-.179.108-.227.148-.62.34-1.26.616-1.902.879-1.205.385-2.513.733-2.785.813-.56.164-5.348 1.744-5.588 2.474-.164.126-.358.231-.5.371-.262.262-.355.626-.644.873-.421.36-1.078.513-1.557.791-.34.196-2.073.926-2.092 1.157-.086 1.173 3.846-.568 4.188-.461.797.258 1.125 2.886 1.884 1.193.258-.584.032-.8.5-1.268.334-.333 1.096-.625 1.551-.822 1.504-.646 3.092-.325 4.645-.74.076-.02.14-.053.21-.074.14-.022.543-.075.594-.086.177-.043 2.106-.81 3.243-1.469 1.85-.927 3.64-2.002 5.421-2.969 1.51-.82 2.996-1.977 4.104-3.302.98-1.173 2.007-2.646 3.191-3.625.584-.486 1.425-.908 2.135-1.159.616-.216.708.078 1.24-.02.18-.032.25-.087.34-.14.027.002.117.035.145.035l.002-.002h.004v-.006c-.002-.016-.03-.057-.034-.078v-.002c.295-.275-.157-.74-.357-1.246-.387-.969.054-.939.857-1.539.495-.369 2.958-1.86 1.663-2.474a.6.6 0 0 0-.205-.04zm-2.134 6.476a4 4 0 0 0-.46.018l.007.016c-1.998.206-3.008 2.11-4.31 3.582-2.107 2.38-4.89 4.055-7.573 5.699-1.922 1.18-3.905 2.52-6.06 3.287-.698.198-1.023.255-1.546.377-2.21.324-5.417.137-6.505 2.117-.748 1.363-.559 2.196.308 3.45.623.897.736.467 1.14-.034.26-.119 1.401-.816 1.829-1.066 1.364-.505 4.678-.857 5.978-1.086 1.256-.242 2.4-.74 3.508-1.324.7-.28 1.251-.547 1.324-.762.536-.313 1.076-.613 1.614-.922 1.917-1.1 4.032-2.15 5.699-3.615.983-.865 1.557-2.044 2.324-3.08.726-.98 1.714-1.82 2.696-2.58.378-.191.863-.49 1.546-.952.436-.217.782-.452.98-.718l.063-.043h.002v-.004l-.002-.002c-.002-.012-.01-.03-.01-.047.032-.064.118-.132.116-.205-.011-.503-.664-1.178-1.307-1.62a.3.3 0 0 0-.035-.039l-.004-.002-.002-.002h-.002c-.021-.01-.044-.01-.065-.033-.295-.19-.579-.34-.795-.37a4 4 0 0 0-.459-.04zm7.078 1.733a2 2 0 0 0-.39.054c-.37.086-.676.386-.985.663-1.864.82-4.445 2.173-4.528 2.568v.014c.002.013.008.023.007.039a15 15 0 0 0-1.958 1.625c-.608.602-1.09 1.255-1.556 1.918-.15.108-.28.333-.41.584-.197.282-.389.559-.6.84-.484.646-1.12 1.169-1.791 1.656-.075.054-.153.097-.201.144-1.08.752-2.267 1.393-3.32 2.059-3.41 2.156-6.594 3.456-10.625 3.98-1.344.174-2.577.5-3.815 1.094a38 38 0 0 0-2.092 1.12c-1.04.588-2.509 1.17-3.29 2.107-.684.82.032 1.056.806.927.835-.144 1.493-.77 2.18-1.21.603-.39 1.03-.338 1.379-.077.188.56.714 1.237 1.072 1.623l-.022-.062c.025.048.05.082.075.135-.021-.021-.042-.054-.063-.075.118.328.226.582.305.633v.002h.004c.011 0 .035-.008.047-.008h.002v.006c.155.187.366.264.79.178.646-.129 1.51-.873 2.153-1.15 1.742-.75 3.548-1.24 5.416-1.563 2.497-.43 4.53-1.58 6.72-2.814 2.423-1.366 4.782-2.75 6.536-4.932 1.13-1.405 2.36-2.811 3.803-3.908.763-.577 2.95-1.242 2.996-2.12.076-1.468-2.28-2.006-.627-3.464.509-.452 1.215-.651 1.746-1.072.373-.295.735-.834.717-1.184.043-.097.053-.184.006-.25v-.002h-.006c-.02 0-.084.03-.1.033h-.002c-.078-.07-.197-.113-.379-.111m-1.82 8.172c-.65.022-1.25.77-2.08 1.48a31.6 31.6 0 0 0-3.503 3.514c-1.09 1.28-2.344 2.308-3.738 3.23-2.02 1.336-4.114 2.837-6.377 3.737-1.897.75-3.968.608-5.843 1.306-.763.281-4.643 1.293-4.844 1.969-.35 1.17 1.917 1.957 1.052 3.209-.398.581-1.054 1.038-1.48 1.656-.36.528-1.98 1.662-1.984 2.258-.003.993 1.35.268 2.44-.39.38.194 1.34-.474 1.901-1.149.525-.342 1.07-.662 1.541-.559.342.075.348.675.868.391.372-.202.096-.634.244-.984.645-1.507 3.101-2.379 4.392-3.149 1.116-.668 2.294-1.119 3.448-1.707a84 84 0 0 0 7.836-4.537c1.42-.928 3.053-2.672 4.775-3.736.168-.033.44-.197.723-.377-.156.054-.207.074-.332.115a6 6 0 0 1 .584-.271c-.086.064-.167.108-.25.156q.654-.235 1.316-.451c.149-.033.45-.007.69 0 .6.12 1.548.563 1.896.334.258-.168.18-.433.043-.707-.022-.292-.22-.565-.424-.819-.043-.12-.086-.238-.043-.322.108-.17 1.57-.259 1.897-.377.847-.307 1.702-.747 2.48-1.195.395-.226 1.033-.661.705-.996.01-.03.048-.053.055-.073v-.004c.19-.754-1.38-.009-1.863.11-.118.032-.302.074-.44.111-.166-.008-.324-.022-.517-.022-.836-.008-1.626.536-2.407.555-.446-.032-.92-.666-1.267-1.055-.065-.122-.11-.215-.201-.345-.493-.667-.904-.915-1.295-.9zm2.066 6.955a1 1 0 0 0-.094.002c-1.005.066-2.278.805-3.09 1.363-1.064.539-1.959 1.092-1.99 1.41-2.35 1.74-4.776 3.428-7.336 4.81-1.769.953-3.437 1.834-5.308 2.563-1.397.543-3.223 1.137-4.332 2.17v-.006c-.338.315-1.057.91-1.084 1.422-.032.745.482.667 1.011 1.047.603.437 2 2.278 2.608.752.12-.296.087-.552.076-.819.064-.188.108-.383.129-.6.02-.043.02-.075.043-.112.375-.592 1.195-1.038 1.806-1.319 1.006-.459 2.026-.583 3.104-.738.736-.107 1.473-.345 2.207-.639.141-.043.241-.097.316-.144a18 18 0 0 0 2.291-1.186c.408-.228.776-.466 1.14-.738.23-.158.477-.317.694-.473 1.97-1.42 3.391-4.043 5.623-5.049 1.036-.47 1.73.233 2.725.14 1.112-.109.741-1.745.672-2.675a1.4 1.4 0 0 0-.262-.773.74.74 0 0 0-.377-.301c-.043-.021-.085-.021-.133-.043-.043-.01-.076-.032-.128-.043l-.002.002h-.002c-.01.004-.035.018-.047.022h-.002c-.088-.017-.169-.04-.258-.045m-.107 4.683c-.956-.028-1.672.406-2.342.94-.33.21-.609.43-.764.629-.065.065-.138.107-.205.166-2.46 2.277-4.707 4.324-7.75 5.838-1.154.574-2.395.818-3.625 1.101.039-.029.153-.086.17-.111v-.002h.002v-.004c-.086-.271-2.765.698-3.137 1.168-.18.097-.37.143-.545.256v.006c-.67.437-1.216 2.452-1.535 3.17-.34.777-2.01 3.343-1.29 4.007.906.835 1.994-.994 2.392-1.521.012-.022.096-.195.127-.24.257-.356.433-.695.574-1.051.54-1.008 1.17-2.186 1.19-2.186.063 0 .116.066.171.112.075.22.173.367.317.34.165.16.356.2.623-.286.259-.47-.13-1.194-.043-1.73.086-.538.665-1.585 1.402-1.262.307.132-.086 1.481.043 2.047.193.9 1.898 3.403 2.574 1.54.097-.267.054-.605-.021-.958.053-.493.01-1.12-.15-1.527.085-.291.315-.518.84-.59.18-.02.348-.01.51.012.197.064.35.109.669.25.895.48 1.614 1.465 2.488 1.722 1.455.425 2.58-.769 2.56-2.09-.021-1.188-.25-2.067.206-3.213.634-1.606 1.543-.617 2.568.206.535.43.683.888 1.28.24.306-.334.273-.8.171-1.225.011-.44-.24-.834-.58-1.19-.054-.064-.084-.107-.142-.171-.054-.054-.087-.109-.15-.15-.176-.195-.358-.414-.518-.506-.097-.053-.327-.054-.51-.065-.286-.108-.573-.19-.807-.195-.022 0-.032.012-.054.012-.19-.086-.322-.213-.262-.49.316-1.446 2.61 0 3.209.132.12.022.677.149.84.067.713-.353-.01-.424.271-.674.51-.46.844.043 1.568.172.756.137 3.049-.413 3.66-.895.41-.327.338-.54.133-.707v-.004l.002-.002.002-.006.002-.002v-.006c-.032-.166-.366-.23-.812-.256-.343-.065-.708-.147-.945-.168-1.447-.124-2.938-.6-4.368-.65zm-3.34 7.11a.8.8 0 0 0-.383.1c-.945.55-.14 3.29 1.306 1.523.353-.432.055-1.07-.41-1.397a.2.2 0 0 0-.076-.052c-.143-.085-.283-.166-.437-.174m-6.83 3.933q-.077-.001-.147.01v.002a.55.55 0 0 0-.267.116c-1.253 1.108 1.761 2.663 2.212 1.273.184-.57-1.037-1.4-1.798-1.4z" style="display:inline;fill:#ffd800;fill-opacity:1;fill-rule:nonzero;stroke:none;stroke-width:3.79595"/>
        <path id="path18874-1" d="M104.564 98.297a15.64 15.64 0 0 0-14.117 8.383 43 43 0 0 0 2.004-.96 67 67 0 0 0 3.73-1.88c2.164-1.173 4.36-2.464 6.38-3.864.695-.48 1.35-1.074 2.003-1.68m2.289.207c-.296.273-.596.544-.91.787-1.465 1.135-2.813 2.223-4.37 3.252-2.566 1.7-5.684 3.871-8.687 4.615a23 23 0 0 0-3.12 1.008 15.6 15.6 0 0 0-1.104 5.951c.468-.133 1.563-.651 2.824-1.28.504-.14 1.083-.303 1.43-.433 1.746-.657 3.486-1.384 5.103-2.318 2.98-1.712 6.73-3.096 9.125-5.621 1.192-1.256 2.418-1.991 3.803-2.998.448-.324.807-.729 1.252-1.033a15.6 15.6 0 0 0-5.346-1.93m6.758 2.863c-.212.004-.41.039-.59.115-.219.086-1.084.83-2.074 1.692-2.846 2.157-5.533 4.473-8.623 6.295-1.836 1.08-3.682 2.343-5.696 3.074-.904.268-1.864.515-2.056.557-.27.065-2.577.735-3.854 1.312-.02.006-.16.075-.17.086-.097.043-.09.02-.173.068-.484.204-.922.434-1.133.717h-.006c-.097.13-.155.355-.219.57.026-.135-.052.006-.051 0-.095-.001-.099.152-.125.454a15.7 15.7 0 0 0 1.664 4.998c.155-.398.333-.943.43-1.06.433-.528 1.086-.898 1.682-1.206 1.116-.566 2.282-.852 3.474-1.195 2.593-.736 4.886-1.95 7.205-3.281 4.275-2.456 7.888-5.568 11.805-8.487.574-.425.952-.775 1.682-.865.146-.02.337.01.535.05a15.6 15.6 0 0 0-3.707-3.894m4.416 5.067c-.303.02-.608.038-.908.14-.054.021-.106.064-.16.086-.022.01-.056.032-.077.043-.616.271-1.246.726-1.779 1.096-1.382.96-2.513 2.301-3.83 3.363-2.038 1.648-4.242 3.117-6.512 4.434-.735.43-1.491.886-2.262 1.314v-.002l.002-.002v-.002l.02-.023v-.01h-.002v.006h-.002c-.02.03-.179.108-.227.148-.62.34-1.26.616-1.902.879-1.205.385-2.513.733-2.785.813-.56.164-5.348 1.744-5.588 2.474-.164.126-.358.231-.5.371-.2.2-.302.459-.467.68a15.6 15.6 0 0 0 2.266 2.828c.226-.55.025-.767.48-1.223.334-.333 1.096-.625 1.551-.822 1.504-.646 3.092-.325 4.645-.74.076-.02.14-.053.21-.074.14-.022.543-.075.594-.086.177-.043 2.106-.81 3.243-1.469 1.85-.927 3.64-2.002 5.421-2.969 1.51-.82 2.996-1.977 4.104-3.302.98-1.173 2.007-2.646 3.191-3.625.584-.486 1.425-.908 2.135-1.159.174-.06.308-.082.42-.082a15.6 15.6 0 0 0-1.281-3.086zm1.57 4.222c-1.765.382-2.73 2.145-3.953 3.526-2.106 2.38-4.888 4.055-7.572 5.699-1.922 1.18-3.905 2.52-6.06 3.287-.698.198-1.023.255-1.546.377-2.21.324-5.418.137-6.506 2.117l-.003.006a15.6 15.6 0 0 0 3.466 2.316c1.852-.582 4.007-.712 5.793-1.058 1.256-.242 2.4-.74 3.508-1.324.7-.28 1.251-.547 1.324-.762.536-.313 1.076-.613 1.614-.922 1.917-1.1 4.032-2.15 5.699-3.615.983-.865 1.557-2.044 2.324-3.08.61-.822 1.403-1.545 2.223-2.205a15.6 15.6 0 0 0-.31-4.362zm-.023 6.664c-.58.586-1.046 1.218-1.498 1.86-.15.108-.28.333-.41.584-.197.282-.389.558-.6.84-.484.645-1.12 1.169-1.791 1.656-.075.054-.153.097-.201.144-1.08.752-2.268 1.393-3.32 2.059-3.41 2.156-6.595 3.456-10.626 3.98-.604.079-1.187.188-1.757.338a15.64 15.64 0 0 0 20.203-11.46m-21.707 10.574c.568-.014-.23.08 0 0" style="display:inline;fill:#7902aa;fill-opacity:1;fill-rule:nonzero;stroke:none;stroke-width:3.79595"/>
        <path id="circle1-7-3" d="M38.341 140.915a11 11 0 0 0-4.365-1.163c-.613.03-1.236.051-1.86.057a11.02 11.02 0 0 0-7.35 4.075c1.679.265 3.38.463 5.078.463 3.437.007 7.376.683 10.713-.306.452-.134.886-.233 1.314-.31a11 11 0 0 0-3.53-2.816m4.468 4.136c-2.967.414-5.912.886-8.928.914-2.13.017-4.36.188-6.47-.186a44 44 0 0 1-2.06-.546 30 30 0 0 0-1.316-.316 11 11 0 0 0-1.62 4.726c.628.133 1.247.3 1.88.458 2.614.66 5.207.755 7.881.761 4.15.01 8.128-.618 12.177-1.156a11 11 0 0 0-1.544-4.655m1.589 6.06c-1.206.241-2.404.606-3.614.795-2.589.408-5.232.578-7.856.583-.851.004-1.735.023-2.616.007l.001-.002h.003v-.002l.03-.01v-.003l.001-.002.001-.002.001-.002.001-.002h-.001l-.001.001-.001.002-.001.002h-.002c-.033.015-.209.004-.27.014a19 19 0 0 1-2.087-.19c-1.236-.269-2.543-.622-2.819-.688a46 46 0 0 0-2.804-.535 11 11 0 0 0 .81 3.84c.738.358 1.46.759 2.277.978.076.02.148.024.22.041.132.051.507.207.557.223.175.051 2.228.351 3.542.349 2.066.122 4.153.086 6.18.14 1.718.045 3.583-.215 5.205-.809.774-.283 1.602-.635 2.44-.94a11 11 0 0 0 .803-3.789zm-1.841 5.756c-2.87.855-5.933.912-8.904.989-2.255.06-4.642.23-6.893-.184-.702-.177-1.012-.29-1.526-.446-.355-.14-.728-.31-1.111-.486a11.02 11.02 0 0 0 9.257 5.04 11.02 11.02 0 0 0 9.177-4.913" style="display:inline;fill:#ffd800;fill-opacity:1;stroke:none" transform="rotate(-30)"/>
    </g>
</svg>
