<svg xmlns="http://www.w3.org/2000/svg" xml:space="preserve" id="svg5" width="88.338" height="100" version="1.1">
    <g id="blackAnt" style="display:inline" transform="translate(-57.646 -60.29)">
        <path id="path19230-5" d="M112.563 72.099c-.359-.124-.858.087-1.024.441-.01.022-.003.055-.01.077-.14.137-.288.284-.442.611-.453.954-.357 1.782-.345 2.729.01 1.14-.114.654-.26 3.096-.12 1.998-.023 2.195-.131 4.528-.077 1.67-.113 2.503-.21 3.199-.274 2.036-.66 2.818-.35 4.24.147.665.296.803.26 1.29-.007.122-.054.225-.076.334-.165.044-.33.13-.3.16.098.087-.625 1.205-1.263 1.912-.098.11-.144.187-.214.278-.572.617-.792.88-1.081 1.211-.179.18-.238.278-.533.532-1.356 1.171-2.106 1.682-2.496 1.891-.316.167-.53.348-.736.504a4 4 0 0 1-.465.272c-.098.032-.197.065-.31.065-.11 0-.346-.087-.765-.379-.212-.233-.446-.565-.815-1.002-.344-.41-.907-1.061-1.642-1.653-.364-.29-.962-.766-1.874-1.11-.212-.076-.462-.17-.752-.243-.403-.163-.822-.31-1.347-.266-.453.033-.758.185-1.246.413q-.016.007-.033.022c-.11.044-.209.11-.316.17-.442.223-.854.47-1.15.934-.247.387-.437.846-.344.912.009.006.043-.044.065-.044-.065.178-.134.287-.192.622-.022.154-.099.607-.033 1.257.055.54.15.694.486 1.907.004.022.116.45.34 1.308.333 1.27.351 1.293.396 1.41-.055.176-.113.53-.362.9-.088.13-.224.182-.334.266-.11.077-.3.2-.425.295-.256.11-.546.193-.917.334-.592.228-.171.136-2.316 1.206-1.735.87-2.092.97-2.405 1.047a5.8 5.8 0 0 1-1.908.141c-.622-.066-1.036-.227-2.717-1.03-1.314-.63-1.677-.828-2.763-1.353-1.475-.712-1.573-.735-1.952-.928-.164-.077-.404-.208-.635-.323-1.149-.658-1.304-.925-2.411-1.478-.29-.147-.349-.159-2.157-.877-1.109-.53-1.437-.641-2.496-1.2-.658-.348-1.366-.584-2.004-.963-.534-.321-1.017-.664-1.534-.51a1 1 0 0 0-.249.125c-.033.009-.066-.007-.11.006-.316.11-.718.398-.73.765-.004.258.184.455.385.668.336.348.692.506.804.56l.13.066c1.687 1.753 4.386 2.647 5.927 3.193 2.079.738 3.49 1.426 6.323 2.813.087.044.076.044.152.088.113.066.148.11.311.198.077.044.252.11.311.136 3.073 1.586 3.582 2.18 4.93 2.327 2.705.295 5.129-1.09 6.46-2.067.516-.187 1.038-.364 1.545-.577.95-.393 1.301-.615 1.726-.452.38.139.603.49.85.877.242.383.43.673.35.963-.088.336-.488.468-1.099.708-.65.254-1.27.576-1.919.827-.61.239-1.577.625-2.643 1.12a38 38 0 0 0-1.857.935c-.955.51-1.245.695-1.42.815-.077.022-.128.066-.21.077-.174.021-.326.021-.493.135-.197.134-.346.391-.396.663-.088.088-.182.161-.261.26-.445.565-.397.882-.849 2.203-.34.989-.36.798-.9 2.236-.623 1.642-.496 1.635-.867 2.411-.584 1.225-.862 1.163-1.353 2.287-.055.137-.055.185-.087.295-.334.656-.432 1.46-.946 2.592-.556 1.221-.93 1.31-1.46 2.751-.162.444-.29.9-.329 1.178-.077.204-.098.32-.26.65-.244.491-.542 1.018-.658 1.818-.124.857.088 1.18.21 1.319.043.043.312.327.656.305.313-.022.556-.292.973-1.042a14 14 0 0 0 .781-1.613c.534-1.314.727-1.261 1.28-2.525.452-1.024.327-1.063.86-2.547.181-.51.247-.637 1.302-3.08.758-1.75 1.136-2.631 1.375-3.192.387-.911.795-1.813 1.166-2.728l.006-.006c.169-.356.333-.704.402-1.014.153-.38.264-.62.436-.838.371-.46 1.028-.827 2.326-1.545.55-.301 1.196-.66 2.112-1.081 1.178-.545 1.081-.413 2.202-.935 1.113-.518 1.34-.715 1.947-.78.309-.033 1.019-.111 1.664.271.453.27.454.522 1.212 1.63.61.893.92 1.345 1.438 1.778.273.223.755.576 1.273.9.044.022.099.077.147.099.473.602.674 1.112 1.087 1.149.022.002.043-.022.076-.022.022.066.055.122.055.18-.055.371-.769.43-1.545.753-.433.182-.574.317-2.417 1.874a606 606 0 0 1-1.789 1.517c-1.855 1.507-2.118 1.487-2.632 2.202-.669.931-.878 1.88-.974 2.344-.213 1.004-.033 1.277-.099 2.796-.033.772-.076.654-.373 3.023-.274 2.202-.231 2.259-.425 3.538-.24 1.569-.314 1.52-.476 2.734-.209 1.592-.065 1.525-.271 3.442-.217 2.032-.331 3.05-.47 3.696-.066.27-.182.807-.147 1.523.022.606.066 1.444.668 1.873.033.022.562.388 1.076.199.541-.198.722-.873.849-1.376.066-.228.066-.403.076-.588.044-.123.1-.285.113-.317.344-1.074.248-1.829.256-2.78.003-.54.032-.207.345-2.994.131-1.201.118-1.204.3-2.966.336-3.223.358-3.031.396-3.793.099-1.912-.098-1.965.044-3.6.066-.746.163-1.313.238-1.777.076-.249.136-.479.221-.753.402-1.32.615-1.753.877-2.15.24-.36.504-.669 1.455-1.524a48 48 0 0 1 2.627-2.201c1.113-.87 1.756-1.374 2.649-1.942l1.302-.82c.22.065.503.182.588.418.135.382-.347.78-.668 1.341-.298.53-.325 1.097-.368 2.202-.044.997-.088 2.253.232 3.969.34 1.777.893 3.025 1.46 4.296.561 1.264 1.51 3.36 3.391 5.644 1.125 1.368 2.05 2.151 3.159 3.102 1.155.981 1.755 1.351 2.485 1.58.479.15 1.22.376 2.174.321.958-.055 1.483-.358 2.043-.01.329.2.343.419.787.639a2.07 2.07 0 0 0 1.07.204c.243-.022.91-.077 1.245-.583.236-.356.199-.762.176-.99-.055-.56-.292-.656-.272-1.07.011-.348.196-.52.52-.99 0 0 .38-.546.844-1.512.332-.7.426-1.285.538-2.027.282-1.827.087-3.372.006-3.905-.306-2.099-1-3.552-1.834-5.31-.055-.126-.11-.19-.17-.311-.055-.11-.077-.183-.136-.306-.033-.066-.174-.253-.198-.295-.996-1.898-1.937-3.307-2.214-3.68-1.12-1.514-2.143-2.872-3.94-4.097-1.831-1.249-3.19-1.491-3.707-1.557-.626-.077-1.508.329-1.732-.022-.135-.22.043-.559.098-.668.263-.51.771-.705 1.2-.894 1.24-.555.9-.687 2.151-1.251.789-.356.85-.269 2.395-.833 1.426-.517 1.238-.536 1.794-.69.479-.132 1.922-.532 3.499-.1.386.11.146.088 2.349 1.11.676.312.734.325 1.862.844 1.167.533 1.759.808 2.157 1.013 1.155.596 1.146.718 2.066 1.206 1.252.66 1.492.554 3.215 1.296 1.14.49.866.462 2.763 1.347 0 0 1.018.472 3.368 1.206.43.131.999.298 1.624.087.152-.054.784-.276.957-.832.2-.638-.346-1.272-.481-1.426-.53-.615-1.132-.692-2.19-1.07-.523-.187-1.074-.474-1.484-.685-.246-.14-.334-.235-.742-.413-.475-.208-.955-.36-1.268-.46-.725-.311-1.4-.618-2.422-.979-.13-.043-.359-.112-.46-.146-.163-.066-.273-.116-.526-.215-.962-.375-1.703-.62-2.881-1.002-1.91-.623-2.11-.62-2.814-.98a14 14 0 0 1-1.755-1.086c-.819-.607-.92-.833-1.585-1.234-.293-.182-.972-.593-1.811-.747-.367-.066-.977-.124-2.91.452-.626.19-.986.314-3.385 1.234-1.603.615-2.41.924-2.541 1.008-.908.591-1.442 1.256-2.327 1.194-.159-.01-.495-.043-.77-.271-.088-.077-.113-.203-.164-.3a21 21 0 0 1-.266-.781c-.033-.18-.055-.314-.11-.555-.077-.332-.221-.753-.515-1.596-.32-.941-.484-1.398-.617-1.67-.139-.495-.207-.827-.17-1.12.077-.623.37-1.059.651-1.473.337-.487.685-.819 1.914-1.788 1.252-.986 1.14-.838 1.805-1.387 1.295-1.066 1.386-1.357 2.151-1.721.754-.355 1.428-.437 1.784-.48.576-.067.878-.012 2.343.152 2.191.259 1.947.192 2.785.312 1.46.204 1.428.276 2.576.43 1.356.19 1.507.11 3.311.277.634.066 1.81.178 3.317.413 1.16.182 2.341.212 3.504.374.279.044.958.137 1.58-.227.162-.099.507-.308.622-.702.151-.537-.222-1.027-.334-1.178-.185-.24-.424-.395-.691-.532-.066-.033-.12-.055-.187-.088-.076-.032-.144-.076-.232-.112a7.4 7.4 0 0 0-2.31-.442c-2.527-.152-1.878-.211-3.362-.255-1.747-.044-1.734.055-3.164-.022-.708-.033-1.463-.11-2.966-.266-1.41-.151-2.13-.233-2.814-.368-.184-.033-.734-.164-1.104-.249-.59-.2-1.038-.379-1.754-.504-.642-.11-.98-.163-1.433-.087-.402.065-.602.186-1.8.877-1.371.792-1.257.716-1.454.844-.66.425-1.098.776-1.829 1.364-.847.68-1.27 1.02-1.811 1.556-.367.364-.659.69-1.33 1.33-.734.704-1.017.914-1.376.895-.158-.004-.285-.077-.413-.147a5 5 0 0 1-.215-.442c-.111-.26-.232-.547-.209-.838.044-.634.767-.981 1.528-1.5.19-.131.85-.734 2.168-1.936.661-.607 1.256-1.21 2.435-2.428.788-.812 1.098-1.162 1.245-1.75.135-.533-.002-.733.175-1.471.022-.088.055-.117.077-.193.258-.033.504-.17.634-.368.248-.378.077-.825-.077-1.596a3 3 0 0 0-.054-.46c-.033-.29-.055-.652-.099-1.51-.055-1.245-.077-1.867.006-2.56.066-.54.13-.658.164-1.222.006-.099-.002-.126 0-.204.269-2.021.43-2.92.504-3.99.055-.858.044-1.194.033-1.552.011-.3.033-.588.088-1.16.065-.708.148-1.374.209-1.857.135-1.109.172-1.258.153-1.675a7 7 0 0 0-.209-1.121 3 3 0 0 0-.077-.283c-.01-.043-.01-.065-.032-.11-.21-.583-.321-.91-.635-1.018zm-28.326 3.306a.53.53 0 0 0-.3.146c-.196.2-.232.567-.136.833.11.292.45.447 1.235.9.176.194.288.325.446.34.022.002.033-.022.066-.033.286.183.446.309.43.413-.021.131-.214.158-.723.413-.055.033-.422.219-.77.447-.588.387-.631.565-.844.554-.178-.01-.338-.159-.47-.35l-.033-.066c-.065-.157-.12-.396-.203-.77.01-.428.181-.746-.011-1.132-.011-.022-.237-.444-.538-.447-.607-.011-.993 1.365-1.229 2.185v.005c-.223.79-.065 1.29.011 1.874.077.572.287 1.001.578 1.585.247.51.373.76.64.996.417.363.395.55.48.82.088.297-.224.588-.527.99-.49.65-.683 1.238-.922 1.965a6.2 6.2 0 0 0-.232 2.672c.065.513.162 1.292.656 2.088.758 1.228 1.829 1.543 1.794 1.92-.128.009-.43.032-.877.098-.618.098-1.07.299-1.574.543a13 13 0 0 0-1.534.413c-.974.336-.694.446-2.626 1.381-.387.187-1.05.497-1.846 1.064-.672.479-.897.76-.95 1.098a1.19 1.19 0 0 0 .412 1.058c.286.232.647.26.99.21.364.11.8.227 1.025-.022a.6.6 0 0 0 .125-.385c.4-.208.694-.455 1.222-.854.526-.398 1.11-.726 2.282-1.387 1.097-.616 1.73-.93 2.332-1.098.364-.077.726-.155 1.092-.16a5 5 0 0 1 .617.034c.065.01.136.022.203.044.226.043.457.123.685.266.022.01.044.033.066.044.314.22.435.41.684.594.174.15.369.288.674.38.356.098.703.076 1.387.021a9 9 0 0 0 1.964-.384c.974-.305.893-.456 2.021-.889 1.457-.564 1.691-.357 2.31-.86.44-.359.444-.56 1.132-1.132.32-.262.572-.423 1.07-.752 1.04-.68 1.064-.584 1.511-.94.044-.033.088-.099.125-.13.365-.176.67-.384.697-.674.002-.022-.01-.033-.01-.055.155-.176.25-.239.464-.493.579-.683.661-.873.707-1.024.158-.48.099-.943.055-1.33-.044-.36-.088-.362-.193-1.053-.066-.4-.066-.474-.125-.679-.143-.483-.303-.533-.31-.781-.009-.309.233-.467.639-.911.576-.634.424-.672.934-1.229.243-.266.697-.759 1.342-1.115.01-.006.022-.005.033-.011-.011.022-.099.066-.099.088.044.114.552.054.889-.033a2.9 2.9 0 0 0 1.2-.617c1.268-.368 1.982-.767 2.422-1.098.792-.592.818-.948.81-1.087-.022-.35-.282-.57-.413-.668-.022-.033-.01-.066-.033-.088-.301-.387-.869-.35-1.008-.34-.39.023-.688.209-.997.448-.405.201-.813.473-1.437.911-.499.35-1.086.711-2.072 1.325-.587.254-1.07.488-1.427.872-.389.235-.615.392-.82.64-.367.443-.551.853-.76 1.07-.123.087-.156.087-.237.135-.022.006-.044.033-.077.033-.197 0-.336-.152-.73-.673-.885-1.172-.927-1.403-1.302-1.778-.217-.212-.686-.453-1.625-.917-.087-.044-.11-.044-.186-.077-.088-.054-.17-.155-.266-.209a6 6 0 0 0-1.597-.628c-.032-.009-.11-.011-.146-.022-.808-.246-1.255-.367-1.727-.283-.155.022-.291.066-.413.088-.077-.022-.322-.134-.702-.51-.055-.15-.099-.317-.193-.538-.25-.58-.588-.944-1.013-1.403-.259-.279-.575-.616-1.092-.94-.055-.033-.11-.033-.16-.066-.126-.131-.329-.372-.451-.447-.17-.11-.657-.394-1.24-.328-.088.01-.168.043-.249.065-.39-.11-.764-.195-.996-.153zm7.24 6.685c.51.01.865.227 1.665.752.839.55 1.257.825 1.466 1.003.36.298.703.67 1.364 1.404a.5.5 0 0 1 .066.076c.305.432.6.83.684 1.058.077.203.162.4.295.533-.022.066-.099.19-.147.294-.242.088-.393.177-.82.267-.607.123-1.013.204-1.596.237-.435.022-.718.022-.957-.022a.7.7 0 0 0-.087-.146c-.175-.11-.158-.21-.447-.77-.314-.607-.375-.554-.595-1.025-.232-.494-.172-.56-.408-1.063-.158-.34-.199-.349-.532-.928-.715-1.24-.646-1.423-.6-1.5.12-.185.448-.174.657-.17zM84.6 85.713c.24.281.575.678.996 1.138.652.71.876.893 1.313 1.437.503.623.751 1.054.872 1.274.293.532.46.854.475 1.302.011.356-.077.606-.248 1.104-.11.304-.2.523-.3.707-.312.259-.523.509-.828.674-.137.044-.268.066-.357.088a3 3 0 0 1-.357.055c-.13-.007-.262-.008-.402-.077-.347-.167-.426-.458-.78-1.15-.527-1.008-.609-.862-.918-1.573-.01-.033-.033-.088-.044-.12a7.4 7.4 0 0 1-.226-1.03 9.4 9.4 0 0 1-.066-1.54c.004-.255.01-.423.022-.606.156-.326.333-.533.418-1.018.011-.088.011-.174.022-.266a2.3 2.3 0 0 1 .408-.397ZM94.97 96.87c.202.022.345.088.374.098.51.22.685.725.956 1.297.197.413.668 1.088 1.608 2.428.444.638.845 1.132 1.641 2.129.715.896 1.074 1.345 1.545 1.85.878.936.982.864 1.472 1.478.576.715.478.867 1.274 2.208.734 1.236.906 1.254 1.528 2.406.174.316.488.92.793 1.732.228.599.973 2.328.838 2.394-.005.003-.087-.098-.098-.11-.088-.189-.189-.335-.295-.605-.217-.541-.249-.736-.441-1.296-.099-.267-.31-.89-.612-1.512a10 10 0 0 0-1.454-2.157c-.448-.525-.354-.316-1.263-1.29-.316-.34-.609-.667-1.103-1.019-.269-.19-.434-.248-.6-.311-.023-.011-.034-.022-.056-.033-.155-.055-.265-.077-.35-.066-.132-.033-.248-.098-.397-.076-.076.008-.554.087-.82.475-.278.41-.165.9-.055 1.33.182.73.513 1.201.85 1.704.737 1.101 1.11 1.65 1.318 2.044.777 1.457.59 1.452 1.296 2.604.178.288.31.474.47.713-.43-.315-.909-.67-1.115-.826a8.6 8.6 0 0 1-1.41-1.365c-.548-.68-.833-1.279-1.25-2.168-.279-.579-.466-.973-.64-1.545-.294-.974-.18-1.219-.436-2.281-.193-.804-.27-.703-.656-1.947-.453-1.442-.33-1.5-.697-2.548-.197-.564-.126-.25-1.019-2.31 0 0-.332-.754-.888-1.709-.14-.24-.412-.694-.945-1.008-.168-.098-.376-.202-.544-.164.077-.12.214-.311.476-.441.255-.127.511-.134.713-.11zm-1.42 1.45c.002.117-.007.188 0 .333.021.576.032.862.13 1.217.116.406.219.488.616 1.246.426.811.42.898.606 1.268-.436-.693-.624-.91-.883-1.427-.212-.433-.386-.789-.475-1.302-.077-.445-.055-.78-.022-1.217.006-.077.022-.055.033-.12zm16.415 22.093c.458-.001 1.003.076 1.529.373.313.17.68.453 1.46 1.693.77 1.221 1.032 1.93 1.5 2.83.893 1.74 1.114 1.437 2.157 3.272 1.426 2.504.963 2.984 2.01 3.838.47.382 1.247.841 1.862 1.8.22.344.374.676.413 1.07.033.293-.033.57-.125.923a1 1 0 0 0-.227.065c-.364.193-.396.398-.849.855-.263.27-.479.43-.804.673-.332.244-.757.561-1.375.844-.437.2-.75.35-1.217.396-.329.033-.583.002-1.07-.054-.476-.055-.717-.088-.894-.21-.395-.255-.517-.7-.572-.905-.099-.344-.055-.536-.044-1.059.008-.24.022-.975-.066-1.624a6 6 0 0 0-.43-1.563c-.077-.174-.331-.77-.85-1.471-.404-.55-.586-.63-1.12-1.217-.34-.372-.723-.91-1.5-1.976-.789-1.09-.678-.975-1.381-1.942-.87-1.19-.924-1.193-1.121-1.579-.433-.847-.485-1.437-.787-1.46-.293-.022-.55.501-.64.679a2.1 2.1 0 0 0-.214.849c-.011.247.01.447.033.549.055.308.211.628.52 1.25.228.46.396.806.674 1.269.394.645.74 1.09 1.115 1.573.6.766.727.86 1.002 1.206-.369-.38-.778-.764-1.608-1.743-1.383-1.635-1.574-2.244-1.635-2.48-.165-.6-.148-1.124-.099-1.625.022-.232.033-.468.066-.684a7 7 0 0 1 .832-2.468c.174-.301.311-.538.567-.804.7-.739 1.558-.937 1.879-1.014a4.3 4.3 0 0 1 1.008-.13zm.515 1.194c-.18-.01-.315 0-.362.006-.236.033-.425.126-.804.311-.326.16-.484.241-.538.357a.5.5 0 0 0-.222.066c-.127.099-.193.299-.164.781.066.963.444 1.685.629 2.032.355.684.698 1.373 1.053 2.06.903 1.736.624 1.831 1.358 3.188.228.421.82 1.197 1.998 2.75.256.333.98 1.267 2.078 1.812.2.099.49.225.752.113.355-.15.502-.687.493-1.144.007.002.044.055.044.055.099-.044-.159-.758-.402-1.681-.348-1.337-.206-1.375-.452-2.225-.193-.665-.559-1.334-1.285-2.671a49 49 0 0 0-1.234-2.135c-1.43-2.38-1.29-1.805-1.568-2.45-.155-.36-.316-.811-.765-1.059a1.5 1.5 0 0 0-.611-.17z" style="display:inline;fill:none;fill-opacity:1;fill-rule:nonzero;stroke:#9a9a9a;stroke-width:2;stroke-linecap:round;stroke-linejoin:round;stroke-dasharray:none;stroke-opacity:1" transform="translate(.088 .041)"/>
        <path id="path50" d="M112.35 72.062c-.322-.004-.677.191-.811.479-.01.022-.003.054-.01.076-.14.137-.288.284-.442.611-.453.954-.358 1.782-.346 2.729.01 1.14-.113.654-.26 3.096-.12 1.998-.022 2.196-.13 4.529-.077 1.67-.114 2.501-.211 3.197-.274 2.036-.66 2.818-.35 4.24.147.665.296.804.26 1.291-.007.122-.054.225-.076.334-.14.038-.279.107-.3.145v.002l-.003.002v.008h.002v.002l.002.002.002.002.002.002.002.006c.046.145-.651 1.217-1.27 1.902-.097.11-.142.187-.212.278-.572.617-.793.88-1.082 1.21-.18.18-.239.278-.534.532-1.356 1.17-2.106 1.683-2.496 1.892-.316.167-.53.348-.736.504a4 4 0 0 1-.465.272c-.098.032-.195.064-.308.064-.11 0-.347-.087-.766-.379-.212-.233-.446-.565-.815-1.002-.344-.41-.907-1.06-1.642-1.652-.364-.29-.961-.767-1.873-1.111-.212-.076-.464-.17-.754-.243-.403-.163-.82-.31-1.346-.265-.453.033-.758.184-1.246.412a.1.1 0 0 0-.033.023c-.11.044-.21.11-.316.17-.442.223-.855.47-1.15.934-.248.387-.438.846-.345.912h.006v-.002h.002c.012-.008.034-.034.051-.041l.002-.002h.006c-.065.178-.135.288-.193.623-.022.154-.1.606-.033 1.256.055.54.15.695.486 1.908.004.022.116.449.34 1.307.333 1.27.351 1.293.396 1.41-.055.176-.112.53-.361.9-.088.13-.224.182-.334.266-.11.077-.3.2-.426.295-.256.11-.545.193-.916.334-.592.228-.171.137-2.316 1.207-1.735.87-2.094.97-2.407 1.047a5.8 5.8 0 0 1-1.906.14c-.622-.066-1.038-.226-2.719-1.029-1.314-.63-1.675-.828-2.761-1.353-1.475-.712-1.574-.735-1.953-.928-.164-.077-.404-.21-.635-.324-1.15-.658-1.303-.924-2.41-1.477-.29-.147-.35-.159-2.159-.877-1.109-.53-1.437-.642-2.496-1.201-.658-.348-1.366-.584-2.004-.963-.534-.321-1.016-.664-1.533-.51a1 1 0 0 0-.25.125c-.033.01-.065-.007-.11.006-.315.11-.718.399-.73.766-.004.258.186.455.387.668.336.348.69.506.803.56l.13.065c1.688 1.753 4.385 2.647 5.926 3.193 2.08.738 3.492 1.426 6.325 2.813.087.044.076.044.152.088.113.066.148.11.31.199.078.044.252.109.311.135 3.073 1.586 3.582 2.18 4.93 2.328 2.705.295 5.13-1.09 6.46-2.067.517-.187 1.039-.365 1.546-.578.95-.393 1.3-.614 1.724-.451.38.139.605.49.852.877.242.383.43.673.35.963-.089.336-.49.467-1.1.707-.65.254-1.27.577-1.918.828a46 46 0 0 0-2.645 1.12 38 38 0 0 0-1.855.935c-.955.51-1.245.694-1.42.814-.077.022-.129.067-.211.078-.174.021-.325.021-.492.135-.197.134-.347.39-.397.662-.088.088-.182.16-.261.26-.445.565-.396.882-.848 2.203-.34.989-.36.798-.9 2.236-.623 1.642-.497 1.636-.868 2.412-.584 1.225-.862 1.162-1.353 2.286-.055.137-.054.186-.086.296-.334.656-.433 1.46-.947 2.592-.556 1.221-.93 1.31-1.46 2.75-.161.444-.29.9-.33 1.178-.076.204-.097.32-.26.65-.243.491-.541 1.019-.657 1.819-.124.857.089 1.18.21 1.318.044.043.313.327.657.305.313-.022.556-.291.973-1.041a14 14 0 0 0 .78-1.614c.535-1.314.727-1.26 1.28-2.525.452-1.024.326-1.063.86-2.547.18-.51.247-.637 1.302-3.08.758-1.75 1.136-2.63 1.375-3.191.387-.911.795-1.814 1.166-2.729l.006-.006c.17-.356.333-.703.402-1.013.153-.38.264-.62.436-.838.371-.46 1.028-.827 2.326-1.545.55-.301 1.195-.661 2.111-1.082 1.178-.545 1.083-.412 2.204-.934 1.113-.518 1.34-.716 1.947-.781.309-.033 1.019-.11 1.664.271.453.27.453.523 1.21 1.631.61.893.92 1.345 1.438 1.778.273.223.756.576 1.274.9.044.022.098.076.146.098.473.602.675 1.113 1.088 1.15.022.002.043-.023.076-.023.022.066.055.123.055.181-.055.371-.769.43-1.545.752-.433.182-.573.318-2.416 1.875a606 606 0 0 1-1.789 1.516c-1.855 1.507-2.119 1.488-2.633 2.203-.669.93-.878 1.88-.974 2.344-.213 1.004-.032 1.276-.098 2.795-.033.772-.076.654-.373 3.023-.274 2.202-.232 2.26-.426 3.54-.24 1.568-.314 1.518-.476 2.732-.21 1.592-.064 1.526-.27 3.443-.217 2.032-.332 3.05-.47 3.695-.067.27-.182.808-.147 1.524.022.606.066 1.444.668 1.873.033.022.562.388 1.076.199.541-.198.72-.874.848-1.377.066-.228.066-.403.076-.588.044-.123.1-.284.113-.316.344-1.074.248-1.829.256-2.78.003-.54.033-.207.346-2.994.13-1.2.117-1.205.299-2.967.336-3.223.358-3.03.396-3.793.099-1.912-.097-1.964.045-3.6.066-.745.163-1.312.238-1.776.076-.25.136-.48.22-.754.403-1.32.616-1.752.878-2.149.24-.36.504-.67 1.455-1.525a48 48 0 0 1 2.627-2.201c1.113-.87 1.755-1.374 2.648-1.942l1.303-.82c.22.065.503.182.588.418.135.382-.347.78-.668 1.342-.298.53-.326 1.096-.37 2.2-.043.998-.087 2.254.233 3.97.34 1.777.894 3.025 1.461 4.296.561 1.264 1.51 3.361 3.39 5.645 1.126 1.368 2.05 2.15 3.159 3.102 1.155.98 1.754 1.35 2.484 1.58.48.15 1.222.375 2.176.32.958-.055 1.483-.358 2.043-.01.33.2.341.419.785.639a2.07 2.07 0 0 0 1.07.205c.244-.022.912-.078 1.247-.584.236-.356.198-.763.175-.99-.055-.56-.291-.655-.271-1.069.011-.348.196-.52.52-.99 0 0 .38-.546.843-1.512.332-.7.425-1.285.537-2.027a13.3 13.3 0 0 0 .008-3.906c-.306-2.1-1-3.551-1.834-5.309-.055-.126-.111-.192-.171-.313-.055-.11-.076-.181-.135-.304-.033-.066-.175-.253-.2-.295-.995-1.898-1.935-3.309-2.212-3.682-1.12-1.514-2.143-2.87-3.94-4.095-1.83-1.25-3.19-1.491-3.707-1.557-.626-.077-1.508.327-1.732-.024-.135-.22.042-.558.097-.667.263-.51.77-.704 1.2-.893 1.24-.555.901-.688 2.152-1.252.789-.356.85-.268 2.395-.832 1.426-.517 1.237-.537 1.793-.691.479-.132 1.923-.532 3.5-.1.386.11.146.087 2.35 1.11.675.311.732.326 1.86.845 1.167.533 1.759.807 2.157 1.012 1.155.596 1.146.719 2.066 1.207 1.252.66 1.492.553 3.215 1.295 1.14.49.867.462 2.764 1.347 0 0 1.017.471 3.367 1.205.43.131 1 .3 1.625.088.152-.054.784-.276.957-.832.2-.638-.346-1.271-.48-1.425-.53-.615-1.134-.693-2.192-1.07-.523-.188-1.074-.475-1.484-.686-.246-.14-.333-.234-.74-.412-.476-.208-.957-.361-1.27-.461-.725-.311-1.4-.618-2.422-.979-.13-.043-.358-.112-.459-.146-.163-.066-.274-.116-.527-.215-.962-.375-1.703-.62-2.881-1.002-1.91-.623-2.109-.62-2.813-.98a14 14 0 0 1-1.756-1.087c-.819-.607-.919-.831-1.584-1.232-.293-.182-.973-.594-1.812-.748-.367-.066-.977-.123-2.91.453-.626.19-.986.312-3.385 1.232-1.603.615-2.41.924-2.541 1.008-.908.591-1.441 1.258-2.326 1.196-.16-.01-.495-.044-.77-.272-.088-.077-.113-.204-.164-.3a21 21 0 0 1-.267-.78c-.033-.18-.055-.316-.11-.557-.077-.332-.221-.752-.515-1.595-.32-.941-.483-1.398-.616-1.67-.139-.495-.208-.826-.171-1.12.077-.622.37-1.058.652-1.472.337-.487.685-.82 1.914-1.79 1.252-.985 1.14-.837 1.805-1.386 1.295-1.066 1.385-1.356 2.15-1.72.754-.356 1.43-.438 1.785-.481.576-.067.877-.012 2.342.152 2.191.26 1.947.193 2.785.313 1.46.204 1.428.276 2.576.43 1.356.19 1.507.11 3.31.277.635.066 1.812.177 3.32.412 1.16.182 2.34.213 3.503.375.28.044.958.136 1.58-.228.162-.1.506-.308.621-.702.151-.537-.222-1.026-.334-1.177-.185-.24-.424-.397-.691-.534-.066-.033-.119-.055-.186-.088-.076-.032-.144-.075-.232-.11a7.4 7.4 0 0 0-2.31-.442c-2.528-.152-1.878-.212-3.362-.256-1.747-.044-1.734.055-3.164-.022-.708-.033-1.464-.11-2.967-.265-1.41-.151-2.13-.234-2.814-.37-.184-.032-.734-.162-1.104-.247-.59-.2-1.038-.38-1.754-.504-.642-.11-.98-.164-1.433-.088-.402.065-.601.186-1.8.877-1.37.792-1.257.716-1.454.844-.66.425-1.097.777-1.828 1.365-.847.68-1.27 1.018-1.81 1.554-.368.364-.66.69-1.33 1.33-.735.705-1.019.916-1.378.897-.158-.004-.284-.078-.412-.148a5 5 0 0 1-.215-.442c-.11-.26-.232-.547-.209-.838.044-.634.767-.98 1.528-1.5.19-.13.85-.733 2.167-1.935.661-.607 1.257-1.21 2.436-2.428.788-.812 1.097-1.162 1.244-1.75.135-.533 0-.735.176-1.473.022-.088.054-.115.076-.191.258-.033.505-.171.635-.37.248-.377.076-.824-.078-1.595a3 3 0 0 0-.053-.459c-.033-.29-.055-.654-.1-1.512-.054-1.245-.077-1.865.007-2.558.066-.54.13-.659.164-1.223.006-.099-.002-.125 0-.203.269-2.021.43-2.92.504-3.99.055-.858.044-1.195.033-1.553.01-.3.033-.588.088-1.16a55 55 0 0 1 .209-1.858c.135-1.109.17-1.256.152-1.673a7 7 0 0 0-.21-1.121 3 3 0 0 0-.075-.284c-.01-.043-.01-.064-.031-.109-.21-.583-.323-.912-.637-1.02l.004-.015a.7.7 0 0 0-.215-.037zm-28.112 3.342a.53.53 0 0 0-.301.147c-.196.2-.233.568-.137.834.11.292.452.445 1.237.898.176.194.287.327.445.342.022.002.033-.022.066-.033.286.183.446.308.43.412-.021.13-.214.159-.723.414-.055.033-.421.217-.77.445-.587.387-.632.566-.845.555-.178-.01-.337-.159-.469-.35l-.033-.066c-.065-.157-.12-.396-.203-.77.01-.428.18-.746-.012-1.132-.01-.022-.236-.445-.537-.448-.607-.01-.992 1.366-1.228 2.186v.006c-.223.79-.067 1.289.01 1.873.077.572.287 1.002.578 1.586.247.51.373.76.64.996.417.363.396.548.48.818.089.297-.224.588-.527.99-.49.65-.682 1.238-.921 1.965a6.2 6.2 0 0 0-.233 2.672c.065.513.162 1.294.656 2.09.758 1.228 1.828 1.543 1.793 1.92-.128.009-.43.032-.877.098-.618.098-1.07.299-1.574.543a13 13 0 0 0-1.533.412c-.974.336-.693.445-2.625 1.38-.387.187-1.052.498-1.848 1.065-.672.479-.896.76-.949 1.098a1.19 1.19 0 0 0 .412 1.058c.286.232.647.26.99.21.364.11.8.227 1.026-.022a.6.6 0 0 0 .125-.385c.4-.208.693-.455 1.22-.854s1.112-.725 2.284-1.386c1.097-.616 1.73-.932 2.332-1.1.364-.077.726-.153 1.092-.158a5 5 0 0 1 .617.033c.065.01.136.023.203.045.226.043.455.123.683.266.022.01.045.032.067.043.314.22.434.41.683.593.174.15.37.29.674.381.356.098.705.077 1.389.022a9 9 0 0 0 1.963-.385c.974-.305.893-.456 2.021-.889 1.457-.564 1.692-.356 2.31-.86.44-.358.444-.56 1.132-1.132.32-.262.572-.423 1.07-.752 1.04-.68 1.065-.583 1.512-.94.044-.032.088-.1.125-.13.365-.176.668-.384.695-.674.002-.022-.01-.033-.01-.055.155-.176.251-.24.465-.494.58-.683.661-.872.707-1.023.158-.48.099-.943.055-1.33-.044-.36-.089-.362-.194-1.053-.066-.4-.066-.475-.125-.68-.143-.483-.301-.531-.308-.78-.01-.308.233-.467.639-.911.576-.634.423-.672.933-1.229.243-.266.697-.759 1.342-1.115q.015-.006.031-.01c-.013.02-.08.058-.096.08v.004h-.002v.002c.044.114.552.056.89-.03a2.9 2.9 0 0 0 1.2-.618c1.268-.368 1.982-.769 2.422-1.1.792-.592.819-.947.81-1.086-.021-.35-.282-.57-.413-.668-.022-.033-.01-.066-.034-.088-.3-.387-.868-.35-1.007-.34-.39.024-.687.209-.996.448-.405.2-.814.474-1.438.912-.499.35-1.086.71-2.072 1.324-.587.254-1.07.487-1.428.871-.389.235-.613.393-.818.64-.367.444-.553.854-.762 1.071-.123.087-.155.087-.236.135-.022.006-.044.033-.077.033-.197 0-.336-.153-.73-.674-.885-1.172-.928-1.402-1.303-1.777-.217-.212-.686-.452-1.625-.916-.087-.044-.11-.045-.185-.078-.088-.054-.17-.155-.266-.21a6 6 0 0 0-1.598-.626c-.032-.009-.11-.012-.146-.023-.808-.246-1.255-.368-1.727-.284-.155.022-.29.066-.412.088-.077-.022-.323-.134-.703-.51-.055-.15-.097-.316-.191-.537-.25-.58-.589-.943-1.014-1.402-.259-.279-.575-.617-1.092-.941-.055-.033-.11-.034-.16-.067-.126-.13-.329-.37-.451-.445-.17-.11-.657-.394-1.24-.328-.088.01-.167.042-.248.064-.39-.11-.764-.194-.996-.152zm7.074 6.686q.095-.002.174 0c.505.012.861.23 1.656.752.84.55 1.258.826 1.467 1.004.36.298.702.67 1.363 1.404a.5.5 0 0 1 .067.074c.305.432.6.83.683 1.059.077.203.162.4.295.533-.022.066-.098.19-.146.295-.242.088-.394.176-.82.266-.608.123-1.013.205-1.596.238-.435.022-.718.02-.957-.024a.7.7 0 0 0-.088-.144c-.175-.11-.159-.212-.448-.772-.314-.607-.373-.552-.593-1.023-.232-.494-.173-.562-.409-1.065-.158-.34-.2-.348-.533-.927-.715-1.24-.645-1.423-.6-1.5.09-.139.299-.166.485-.17m-6.713 3.625c.24.28.576.677.996 1.136.652.71.878.892 1.315 1.436a8.4 8.4 0 0 1 .87 1.275c.294.532.46.853.475 1.301.011.356-.077.608-.248 1.106-.11.304-.199.523-.299.707-.311.259-.523.509-.828.674-.137.044-.268.065-.357.087a3 3 0 0 1-.357.055c-.13-.007-.263-.007-.403-.076-.347-.167-.425-.458-.78-1.15-.526-1.008-.608-.864-.917-1.575-.01-.033-.032-.087-.043-.119a7.4 7.4 0 0 1-.227-1.03 9.4 9.4 0 0 1-.066-1.54c.004-.255.01-.423.021-.606.156-.326.333-.532.418-1.017.011-.088.013-.176.024-.268a2.3 2.3 0 0 1 .406-.396M94.818 96.85q.085.002.16.012l-.008.006c.202.022.344.09.373.1.51.22.686.725.957 1.297.197.413.668 1.087 1.608 2.427.444.638.844 1.132 1.64 2.13.715.895 1.074 1.344 1.545 1.849.878.936.983.864 1.473 1.478.576.715.477.866 1.273 2.207.734 1.236.908 1.255 1.53 2.407.174.316.488.92.793 1.732.224.59.948 2.275.841 2.39l-.002.003-.002.002h-.002v-.002c-.013-.01-.085-.098-.095-.11-.088-.189-.19-.333-.295-.603-.217-.541-.25-.737-.442-1.297-.099-.267-.31-.89-.613-1.512a10 10 0 0 0-1.453-2.156c-.448-.525-.355-.317-1.264-1.291-.316-.34-.607-.668-1.101-1.02-.27-.19-.436-.247-.602-.31-.023-.011-.033-.022-.055-.033-.154-.055-.266-.078-.351-.067-.132-.033-.248-.096-.397-.074-.076.008-.554.087-.82.475-.278.41-.165.9-.055 1.33.182.73.513 1.2.85 1.703.737 1.1 1.11 1.65 1.318 2.045.777 1.457.591 1.451 1.297 2.603.178.288.31.474.47.713-.43-.315-.908-.67-1.114-.826a8.6 8.6 0 0 1-1.41-1.365c-.548-.68-.833-1.28-1.25-2.168-.28-.58-.467-.973-.641-1.545-.294-.974-.18-1.22-.436-2.281-.193-.804-.27-.704-.656-1.948-.453-1.442-.33-1.498-.697-2.546-.197-.564-.127-.251-1.02-2.311 0 0-.33-.754-.886-1.709-.14-.24-.413-.694-.946-1.008-.168-.098-.377-.202-.545-.164a1.2 1.2 0 0 1 .477-.441c.191-.096.384-.124.553-.121zm-1.268 1.49c.001.105-.006.176 0 .312.021.576.031.862.13 1.217.115.406.22.488.616 1.246.426.811.42.9.606 1.27-.436-.693-.624-.911-.883-1.428-.212-.433-.386-.79-.475-1.303-.077-.445-.054-.78-.021-1.217.005-.066.017-.059.027-.097m16.414 22.072c.458-.001 1.004.076 1.53.373.313.17.68.453 1.46 1.693.77 1.221 1.033 1.93 1.5 2.83.894 1.74 1.114 1.439 2.157 3.274 1.426 2.504.963 2.984 2.01 3.838.47.382 1.248.84 1.863 1.799.22.344.373.676.412 1.07.033.293-.033.57-.125.924a1 1 0 0 0-.227.064c-.364.193-.396.399-.85.856-.262.27-.479.429-.804.672-.332.244-.757.56-1.375.843-.437.2-.75.35-1.217.397-.329.033-.583 0-1.07-.055-.476-.055-.716-.087-.893-.209-.395-.255-.517-.7-.572-.904-.099-.344-.056-.538-.045-1.06.008-.24.024-.975-.064-1.624a6 6 0 0 0-.432-1.562c-.077-.174-.33-.772-.85-1.473-.403-.55-.585-.63-1.119-1.217-.34-.372-.723-.908-1.5-1.974-.789-1.09-.677-.977-1.38-1.944-.87-1.19-.925-1.192-1.122-1.578-.433-.847-.485-1.438-.787-1.46-.293-.023-.55.5-.64.679a2.1 2.1 0 0 0-.192.617c.013-.155.023-.308.045-.453a7 7 0 0 1 .832-2.469c.174-.3.313-.536.569-.802.7-.74 1.558-.937 1.879-1.014a4.3 4.3 0 0 1 1.007-.131m.286 1.191a1 1 0 0 0-.131.01c-.236.033-.426.126-.805.311-.326.16-.483.241-.537.357a.5.5 0 0 0-.223.067c-.127.099-.193.3-.164.781.066.963.444 1.684.63 2.031.354.684.697 1.374 1.052 2.06.903 1.737.623 1.831 1.357 3.188.228.421.82 1.197 1.998 2.75.256.333.98 1.268 2.078 1.813.2.099.49.225.752.113.355-.15.503-.687.494-1.144h.002l.002.002c.012.011.04.052.04.052l.002-.002s.005 0 .006-.002l.002-.002v-.002l.002-.002c.063-.1-.183-.792-.415-1.672-.347-1.337-.205-1.374-.45-2.224-.194-.665-.56-1.333-1.286-2.67a49 49 0 0 0-1.234-2.137c-1.43-2.38-1.29-1.804-1.569-2.449-.155-.36-.314-.81-.763-1.059a1.5 1.5 0 0 0-.612-.17l.002.004a3 3 0 0 0-.23-.004m-4.641 3.944c-.008.231.011.418.033.515.055.308.213.628.522 1.25.228.46.395.807.673 1.27.394.645.74 1.09 1.116 1.572.6.766.727.86 1.002 1.205-.37-.38-.78-.763-1.61-1.742-1.383-1.635-1.574-2.244-1.635-2.48-.16-.587-.147-1.1-.101-1.59" style="display:inline;fill:#708;fill-opacity:1;stroke-width:.161664"/>
        <path id="path51" d="M112.35 72.062c-.322-.004-.677.191-.811.479-.01.022-.003.054-.01.076-.14.137-.288.284-.442.611-.453.954-.358 1.782-.346 2.729.01 1.14-.113.654-.26 3.096-.12 1.998-.022 2.196-.13 4.529-.077 1.67-.114 2.501-.211 3.197-.274 2.036-.66 2.818-.35 4.24.147.665.296.804.26 1.291-.007.122-.054.225-.076.334-.14.038-.279.107-.3.145v.002l-.003.002v.008h.002v.002l.002.002.002.002.002.002.002.006c.046.145-.651 1.217-1.27 1.902-.097.11-.142.187-.212.278-.572.617-.793.88-1.082 1.21-.18.18-.239.278-.534.532-1.356 1.17-2.106 1.683-2.496 1.892-.316.167-.53.348-.736.504a4 4 0 0 1-.465.272c-.098.032-.195.064-.308.064-.11 0-.347-.087-.766-.379-.212-.233-.446-.565-.815-1.002-.344-.41-.907-1.06-1.642-1.652-.364-.29-.961-.767-1.873-1.111-.212-.076-.464-.17-.754-.243-.403-.163-.82-.31-1.346-.265-.453.033-.758.184-1.246.412a.1.1 0 0 0-.033.023c-.11.044-.21.11-.316.17-.442.223-.855.47-1.15.934-.248.387-.438.846-.345.912h.006v-.002h.002c.012-.008.034-.034.051-.041l.002-.002h.006c-.065.178-.135.288-.193.623-.022.154-.1.606-.033 1.256.055.54.15.695.486 1.908.004.022.116.449.34 1.307.333 1.27.351 1.293.396 1.41-.055.176-.112.53-.361.9-.088.13-.224.182-.334.266-.11.077-.3.2-.426.295-.256.11-.545.193-.916.334-.592.228-.171.137-2.316 1.207-1.735.87-2.094.97-2.407 1.047a5.8 5.8 0 0 1-1.906.14c-.622-.066-1.038-.226-2.719-1.029-1.314-.63-1.675-.828-2.761-1.353-1.475-.712-1.574-.735-1.953-.928-.164-.077-.404-.21-.635-.324-1.15-.658-1.303-.924-2.41-1.477-.29-.147-.35-.159-2.159-.877-1.109-.53-1.437-.642-2.496-1.201-.658-.348-1.366-.584-2.004-.963-.534-.321-1.016-.664-1.533-.51a1 1 0 0 0-.25.125c-.033.01-.065-.007-.11.006-.315.11-.718.399-.73.766-.004.258.186.455.387.668.336.348.69.506.803.56l.13.065c1.688 1.753 4.385 2.647 5.926 3.193 2.08.738 3.492 1.426 6.325 2.813.087.044.076.044.152.088.113.066.148.11.31.199.078.044.252.109.311.135 3.073 1.586 3.582 2.18 4.93 2.328 2.705.295 5.13-1.09 6.46-2.067.517-.187 1.039-.365 1.546-.578.95-.393 1.3-.614 1.724-.451.38.139.605.49.852.877.242.383.43.673.35.963-.089.336-.49.467-1.1.707-.65.254-1.27.577-1.918.828a46 46 0 0 0-2.645 1.12 38 38 0 0 0-1.855.935c-.955.51-1.245.694-1.42.814-.077.022-.129.067-.211.078-.174.021-.325.021-.492.135-.197.134-.347.39-.397.662-.088.088-.182.16-.261.26-.445.565-.396.882-.848 2.203-.34.989-.36.798-.9 2.236-.623 1.642-.497 1.636-.868 2.412-.584 1.225-.862 1.162-1.353 2.286-.055.137-.054.186-.086.296-.334.656-.433 1.46-.947 2.592-.556 1.221-.93 1.31-1.46 2.75-.161.444-.29.9-.33 1.178-.076.204-.097.32-.26.65-.243.491-.541 1.019-.657 1.819-.124.857.089 1.18.21 1.318.044.043.313.327.657.305.313-.022.556-.291.973-1.041a14 14 0 0 0 .78-1.614c.535-1.314.727-1.26 1.28-2.525.452-1.024.326-1.063.86-2.547.18-.51.247-.637 1.302-3.08.758-1.75 1.136-2.63 1.375-3.191.387-.911.795-1.814 1.166-2.729l.006-.006c.17-.356.333-.703.402-1.013.153-.38.264-.62.436-.838.371-.46 1.028-.827 2.326-1.545.55-.301 1.195-.661 2.111-1.082 1.178-.545 1.083-.412 2.204-.934 1.113-.518 1.34-.716 1.947-.781.309-.033 1.019-.11 1.664.271.453.27.453.523 1.21 1.631.61.893.92 1.345 1.438 1.778.273.223.756.576 1.274.9.044.022.098.076.146.098.473.602.675 1.113 1.088 1.15.022.002.043-.023.076-.023.022.066.055.123.055.181-.055.371-.769.43-1.545.752-.433.182-.573.318-2.416 1.875a606 606 0 0 1-1.789 1.516c-1.855 1.507-2.119 1.488-2.633 2.203-.669.93-.878 1.88-.974 2.344-.213 1.004-.032 1.276-.098 2.795-.033.772-.076.654-.373 3.023-.274 2.202-.232 2.26-.426 3.54-.24 1.568-.314 1.518-.476 2.732-.21 1.592-.064 1.526-.27 3.443-.217 2.032-.332 3.05-.47 3.695a5 5 0 0 0-.11.58l3-1.732v-.313c.003-.54.033-.207.346-2.994.13-1.2.117-1.205.299-2.967.336-3.223.358-3.03.396-3.793.099-1.912-.097-1.964.045-3.6.066-.745.163-1.312.238-1.776.076-.25.136-.48.22-.754.403-1.32.616-1.752.878-2.149.24-.36.504-.67 1.455-1.525a48 48 0 0 1 2.627-2.201c1.113-.87 1.755-1.374 2.648-1.942l1.303-.82c.22.065.503.182.588.418.135.382-.347.78-.668 1.342-.298.53-.326 1.096-.37 2.2-.043.998-.087 2.254.233 3.97.34 1.777.894 3.025 1.461 4.296.46 1.037 1.18 2.632 2.461 4.432l5.29-3.053a7.6 7.6 0 0 0-.61-.966c-.404-.55-.585-.63-1.12-1.217-.34-.372-.722-.909-1.5-1.975-.788-1.09-.677-.976-1.38-1.943-.87-1.19-.924-1.192-1.121-1.578-.433-.847-.485-1.438-.787-1.461-.293-.022-.551.501-.641.68a2.1 2.1 0 0 0-.191.617c.012-.156.022-.309.044-.454a7 7 0 0 1 .833-2.468c.174-.301.312-.537.568-.803.7-.739 1.558-.937 1.879-1.014a4.3 4.3 0 0 1 1.008-.13c.458-.002 1.003.075 1.529.373.313.17.68.453 1.46 1.693.77 1.22 1.033 1.93 1.5 2.83.894 1.74 1.114 1.438 2.157 3.273.475.834.74 1.441.922 1.914l4.521-2.609c-.156-.342-.32-.688-.49-1.047-.055-.126-.112-.191-.172-.312-.055-.11-.075-.182-.134-.305-.033-.066-.176-.253-.2-.295-.996-1.898-1.936-3.309-2.213-3.682-1.12-1.514-2.142-2.87-3.939-4.095-1.831-1.25-3.19-1.49-3.707-1.557-.626-.077-1.508.328-1.732-.023-.135-.22.042-.56.097-.668.263-.51.77-.704 1.2-.893 1.24-.555.9-.688 2.152-1.252.789-.356.85-.268 2.394-.832 1.426-.517 1.237-.537 1.793-.691.48-.132 1.923-.532 3.5-.1.386.11.147.088 2.35 1.11.676.312.733.326 1.861.845 1.167.533 1.759.807 2.157 1.012 1.155.596 1.146.719 2.066 1.207 1.252.66 1.492.553 3.215 1.295 1.14.49.866.463 2.763 1.348 0 0 .47.218 1.5.586h.002l3.446-1.99c-.423-.252-.938-.37-1.67-.632-.523-.187-1.075-.474-1.485-.685-.246-.14-.332-.234-.74-.412-.475-.208-.956-.361-1.27-.461-.724-.311-1.4-.618-2.421-.979-.13-.043-.358-.112-.46-.146-.162-.066-.274-.116-.527-.215-.962-.375-1.702-.62-2.88-1.002-1.91-.623-2.109-.62-2.813-.98a14 14 0 0 1-1.756-1.086c-.819-.607-.919-.832-1.584-1.233-.293-.182-.973-.594-1.812-.748-.367-.066-.977-.123-2.91.453-.626.19-.986.313-3.385 1.233-1.603.615-2.41.924-2.541 1.008-.908.59-1.441 1.257-2.326 1.195-.16-.01-.495-.044-.77-.272-.088-.077-.113-.203-.164-.3a21 21 0 0 1-.268-.78c-.033-.18-.054-.315-.109-.556-.077-.332-.222-.753-.516-1.596-.32-.941-.482-1.398-.615-1.67-.139-.495-.209-.826-.172-1.12.077-.622.372-1.058.653-1.472.337-.487.685-.82 1.914-1.789 1.252-.986 1.14-.838 1.804-1.387 1.295-1.066 1.386-1.356 2.15-1.72a5.6 5.6 0 0 1 1.786-.48c.576-.068.877-.012 2.342.152 2.19.259 1.947.192 2.785.312 1.46.204 1.428.276 2.576.43 1.356.19 1.507.11 3.31.277.635.066 1.812.177 3.32.412 1.16.182 2.34.213 3.503.375.279.044.958.136 1.58-.228.162-.1.506-.307.621-.701.151-.537-.222-1.027-.334-1.178-.185-.24-.424-.396-.691-.533-.066-.033-.119-.055-.186-.088-.076-.032-.144-.076-.232-.112a7.4 7.4 0 0 0-2.31-.441c-2.528-.152-1.878-.212-3.362-.256-1.747-.044-1.734.056-3.164-.021-.708-.033-1.464-.11-2.967-.266-1.41-.151-2.13-.234-2.814-.37-.184-.032-.734-.162-1.104-.247-.59-.2-1.038-.38-1.754-.504-.642-.11-.98-.164-1.433-.088-.402.065-.601.186-1.8.877-1.37.792-1.257.716-1.454.844-.66.425-1.097.777-1.828 1.365-.847.68-1.27 1.019-1.811 1.555-.367.364-.66.69-1.33 1.33-.734.704-1.018.915-1.377.896-.158-.004-.284-.078-.412-.148a5 5 0 0 1-.215-.442c-.111-.26-.232-.547-.209-.838.044-.634.766-.98 1.527-1.5.19-.13.85-.733 2.168-1.935.661-.607 1.257-1.21 2.436-2.428.788-.812 1.097-1.162 1.244-1.75.135-.533-.001-.734.176-1.472.022-.088.054-.116.076-.192.258-.033.505-.171.635-.369.248-.378.076-.825-.078-1.596a3 3 0 0 0-.053-.459c-.033-.29-.056-.653-.1-1.511-.055-1.245-.077-1.866.006-2.559.066-.54.13-.659.164-1.223.006-.099-.002-.125 0-.203.27-2.02.43-2.92.504-3.99.055-.858.045-1.195.034-1.553.01-.3.032-.588.087-1.16a55 55 0 0 1 .21-1.857c.134-1.11.17-1.257.152-1.674a7 7 0 0 0-.21-1.121 3 3 0 0 0-.075-.283c-.01-.043-.01-.065-.032-.11-.21-.583-.322-.911-.636-1.02l.004-.015a.7.7 0 0 0-.215-.037zm-28.112 3.342a.53.53 0 0 0-.301.147c-.196.2-.233.568-.137.834.11.292.452.445 1.237.898.176.194.287.327.445.342.022.002.033-.022.066-.033.286.183.446.308.43.412-.021.13-.214.159-.723.414-.055.033-.421.217-.77.445-.587.387-.632.566-.845.555-.178-.01-.337-.159-.469-.35l-.033-.066c-.065-.157-.12-.396-.203-.77.01-.428.18-.746-.012-1.132-.01-.022-.236-.445-.537-.448-.607-.01-.992 1.366-1.228 2.186v.006c-.223.79-.067 1.289.01 1.873.077.572.287 1.002.578 1.586.247.51.373.76.64.996.417.363.396.548.48.818.089.297-.224.588-.527.99-.49.65-.682 1.238-.921 1.965a6.2 6.2 0 0 0-.233 2.672c.065.513.162 1.294.656 2.09.758 1.228 1.828 1.543 1.793 1.92-.128.009-.43.032-.877.098-.618.098-1.07.299-1.574.543a13 13 0 0 0-1.533.412c-.974.336-.693.445-2.625 1.38-.387.187-1.052.498-1.848 1.065-.672.479-.896.76-.949 1.098a1.19 1.19 0 0 0 .412 1.058c.286.232.647.26.99.21.364.11.8.227 1.026-.022a.6.6 0 0 0 .125-.385c.4-.208.693-.455 1.22-.854s1.112-.725 2.284-1.386c1.097-.616 1.73-.932 2.332-1.1.364-.077.726-.153 1.092-.158a5 5 0 0 1 .617.033c.065.01.136.023.203.045.226.043.455.123.683.266.022.01.045.032.067.043.314.22.434.41.683.593.174.15.37.29.674.381.356.098.705.077 1.389.022a9 9 0 0 0 1.963-.385c.974-.305.893-.456 2.021-.889 1.457-.564 1.692-.356 2.31-.86.44-.358.444-.56 1.132-1.132.32-.262.572-.423 1.07-.752 1.04-.68 1.065-.583 1.512-.94.044-.032.088-.1.125-.13.365-.176.668-.384.695-.674.002-.022-.01-.033-.01-.055.155-.176.251-.24.465-.494.58-.683.661-.872.707-1.023.158-.48.099-.943.055-1.33-.044-.36-.089-.362-.194-1.053-.066-.4-.066-.475-.125-.68-.143-.483-.301-.531-.308-.78-.01-.308.233-.467.639-.911.576-.634.423-.672.933-1.229.243-.266.697-.759 1.342-1.115q.015-.006.031-.01c-.013.02-.08.058-.096.08v.004h-.002v.002c.044.114.552.056.89-.03a2.9 2.9 0 0 0 1.2-.618c1.268-.368 1.982-.769 2.422-1.1.792-.592.819-.947.81-1.086-.021-.35-.282-.57-.413-.668-.022-.033-.01-.066-.034-.088-.3-.387-.868-.35-1.007-.34-.39.024-.687.209-.996.448-.405.2-.814.474-1.438.912-.499.35-1.086.71-2.072 1.324-.587.254-1.07.487-1.428.871-.389.235-.613.393-.818.64-.367.444-.553.854-.762 1.071-.123.087-.155.087-.236.135-.022.006-.044.033-.077.033-.197 0-.336-.153-.73-.674-.885-1.172-.928-1.402-1.303-1.777-.217-.212-.686-.452-1.625-.916-.087-.044-.11-.045-.185-.078-.088-.054-.17-.155-.266-.21a6 6 0 0 0-1.598-.626c-.032-.009-.11-.012-.146-.023-.808-.246-1.255-.368-1.727-.284-.155.022-.29.066-.412.088-.077-.022-.323-.134-.703-.51-.055-.15-.097-.316-.191-.537-.25-.58-.589-.943-1.014-1.402-.259-.279-.575-.617-1.092-.941-.055-.033-.11-.034-.16-.067-.126-.13-.329-.37-.451-.445-.17-.11-.657-.394-1.24-.328-.088.01-.167.042-.248.064-.39-.11-.764-.194-.996-.152zm7.074 6.686q.095-.002.174 0c.505.012.861.23 1.656.752.84.55 1.258.826 1.467 1.004.36.298.702.67 1.363 1.404a.5.5 0 0 1 .067.074c.305.432.6.83.683 1.059.077.203.162.4.295.533-.022.066-.098.19-.146.295-.242.088-.394.176-.82.266-.608.123-1.013.205-1.596.238-.435.022-.718.02-.957-.024a.7.7 0 0 0-.088-.144c-.175-.11-.159-.212-.448-.772-.314-.607-.373-.552-.593-1.023-.232-.494-.173-.562-.409-1.065-.158-.34-.2-.348-.533-.927-.715-1.24-.645-1.423-.6-1.5.09-.139.299-.166.485-.17m-6.713 3.625c.24.28.576.677.996 1.136.652.71.878.892 1.315 1.436a8.4 8.4 0 0 1 .87 1.275c.294.532.46.853.475 1.301.011.356-.077.608-.248 1.106-.11.304-.199.523-.299.707-.311.259-.523.509-.828.674-.137.044-.268.065-.357.087a3 3 0 0 1-.357.055c-.13-.007-.263-.007-.403-.076-.347-.167-.425-.458-.78-1.15-.526-1.008-.608-.864-.917-1.575-.01-.033-.032-.087-.043-.119a7.4 7.4 0 0 1-.227-1.03 9.4 9.4 0 0 1-.066-1.54c.004-.255.01-.423.021-.606.156-.326.333-.532.418-1.017.011-.088.013-.176.024-.268a2.3 2.3 0 0 1 .406-.396M94.818 96.85q.085.002.16.012l-.008.006c.202.022.344.09.373.1.51.22.686.725.957 1.297.197.413.668 1.087 1.608 2.427.444.638.844 1.132 1.64 2.13.715.895 1.074 1.344 1.545 1.849.878.936.983.864 1.473 1.478.576.715.477.866 1.273 2.207.734 1.236.908 1.255 1.53 2.407.174.316.488.92.793 1.732.224.59.948 2.275.841 2.39l-.002.003-.002.002h-.002v-.002c-.013-.01-.085-.098-.095-.11-.088-.189-.19-.333-.295-.603-.217-.541-.25-.737-.442-1.297-.099-.267-.31-.89-.613-1.512a10 10 0 0 0-1.453-2.156c-.448-.525-.355-.317-1.264-1.291-.316-.34-.607-.668-1.101-1.02-.27-.19-.436-.247-.602-.31-.023-.011-.033-.022-.055-.033-.154-.055-.266-.078-.351-.067-.132-.033-.248-.096-.397-.074-.076.008-.554.087-.82.475-.278.41-.165.9-.055 1.33.182.73.513 1.2.85 1.703.737 1.1 1.11 1.65 1.318 2.045.777 1.457.591 1.451 1.297 2.603.178.288.31.474.47.713-.43-.315-.908-.67-1.114-.826a8.6 8.6 0 0 1-1.41-1.365c-.548-.68-.833-1.28-1.25-2.168-.28-.58-.467-.973-.641-1.545-.294-.974-.18-1.22-.436-2.281-.193-.804-.27-.704-.656-1.948-.453-1.442-.33-1.498-.697-2.546-.197-.564-.127-.251-1.02-2.311 0 0-.33-.754-.886-1.709-.14-.24-.413-.694-.946-1.008-.168-.098-.377-.202-.545-.164a1.2 1.2 0 0 1 .477-.441c.191-.096.384-.124.553-.121zm-1.268 1.49c.001.105-.006.176 0 .312.021.576.031.862.13 1.217.115.406.22.488.616 1.246.426.811.42.9.606 1.27-.436-.693-.624-.911-.883-1.428-.212-.433-.386-.79-.475-1.303-.077-.445-.054-.78-.021-1.217.005-.066.017-.059.027-.097m16.7 23.263a1 1 0 0 0-.131.01c-.236.033-.426.126-.805.311-.326.16-.483.241-.537.357a.5.5 0 0 0-.223.067c-.127.099-.193.3-.164.781.066.963.444 1.684.63 2.031.354.684.697 1.374 1.052 2.06.903 1.737.623 1.831 1.357 3.188.218.403.77 1.129 1.846 2.547l2.892-1.67c-.07-.438-.068-.65-.226-1.197-.193-.665-.56-1.333-1.285-2.67a49 49 0 0 0-1.235-2.137c-1.43-2.38-1.29-1.804-1.568-2.449-.155-.36-.315-.81-.764-1.058a1.5 1.5 0 0 0-.611-.17l.002.004a3 3 0 0 0-.23-.004zm-4.641 3.944c-.008.231.011.418.033.515.055.308.213.628.522 1.25.228.46.395.807.673 1.27.394.645.74 1.09 1.116 1.572.6.766.727.86 1.002 1.205-.37-.38-.78-.763-1.61-1.742-1.383-1.635-1.574-2.244-1.635-2.48-.16-.587-.147-1.1-.101-1.59" style="display:inline;fill:#004cff;fill-opacity:1;stroke-width:.161664"/>
        <path id="path52" d="M112.35 72.062c-.322-.004-.677.191-.811.479-.01.022-.003.054-.01.076-.14.137-.288.284-.442.611-.453.954-.358 1.782-.346 2.729.01 1.14-.113.654-.26 3.096-.12 1.998-.022 2.196-.13 4.529-.077 1.67-.114 2.501-.211 3.197-.274 2.036-.66 2.818-.35 4.24.147.665.296.804.26 1.291-.007.122-.054.225-.076.334-.14.038-.279.107-.3.145v.002l-.003.002v.008h.002v.002l.002.002.002.002.002.002.002.006c.046.145-.651 1.217-1.27 1.902-.097.11-.142.187-.212.278-.572.617-.793.88-1.082 1.21-.18.18-.239.278-.534.532-1.356 1.17-2.106 1.683-2.496 1.892-.316.167-.53.348-.736.504a4 4 0 0 1-.465.272c-.098.032-.195.064-.308.064-.11 0-.347-.087-.766-.379-.212-.233-.446-.565-.815-1.002-.344-.41-.907-1.06-1.642-1.652-.364-.29-.961-.767-1.873-1.111-.212-.076-.464-.17-.754-.243-.403-.163-.82-.31-1.346-.265-.453.033-.758.184-1.246.412a.1.1 0 0 0-.033.023c-.11.044-.21.11-.316.17-.442.223-.855.47-1.15.934-.248.387-.438.846-.345.912h.006v-.002h.002c.012-.008.034-.034.051-.041l.002-.002h.006c-.065.178-.135.288-.193.623-.022.154-.1.606-.033 1.256.055.54.15.695.486 1.908.004.022.116.449.34 1.307.333 1.27.351 1.293.396 1.41-.055.176-.112.53-.361.9-.088.13-.224.182-.334.266-.11.077-.3.2-.426.295-.256.11-.545.193-.916.334-.592.228-.171.137-2.316 1.207-1.735.87-2.094.97-2.407 1.047a5.8 5.8 0 0 1-1.906.14c-.622-.066-1.038-.226-2.719-1.029-1.314-.63-1.675-.828-2.761-1.353-1.475-.712-1.574-.735-1.953-.928-.164-.077-.404-.21-.635-.324-1.15-.658-1.303-.924-2.41-1.477-.29-.147-.35-.159-2.159-.877-1.109-.53-1.437-.642-2.496-1.201-.658-.348-1.366-.584-2.004-.963-.534-.321-1.016-.664-1.533-.51a1 1 0 0 0-.25.125c-.033.01-.065-.007-.11.006-.315.11-.718.399-.73.766-.004.258.186.455.387.668.336.348.69.506.803.56l.13.065c1.688 1.753 4.385 2.647 5.926 3.193 2.08.738 3.492 1.426 6.325 2.813.087.044.076.044.152.088.113.066.148.11.31.199.078.044.252.109.311.135 3.073 1.586 3.582 2.18 4.93 2.328 2.705.295 5.13-1.09 6.46-2.067.517-.187 1.039-.365 1.546-.578.95-.393 1.3-.614 1.724-.451.38.139.605.49.852.877.242.383.43.673.35.963-.089.336-.49.467-1.1.707-.65.254-1.27.577-1.918.828a46 46 0 0 0-2.645 1.12 38 38 0 0 0-1.855.935c-.955.51-1.245.694-1.42.814-.077.022-.129.067-.211.078-.174.021-.325.021-.492.135-.197.134-.347.39-.397.662-.088.088-.182.16-.261.26-.445.565-.396.882-.848 2.203-.34.989-.36.798-.9 2.236-.623 1.642-.497 1.636-.868 2.412-.584 1.225-.862 1.162-1.353 2.286-.055.137-.054.186-.086.296-.334.656-.433 1.46-.947 2.592-.556 1.221-.93 1.31-1.46 2.75-.161.444-.29.9-.33 1.178-.076.204-.097.32-.26.65-.243.491-.541 1.019-.657 1.819-.124.857.089 1.18.21 1.318.044.043.313.327.657.305.313-.022.556-.291.973-1.041a14 14 0 0 0 .78-1.614c.535-1.314.727-1.26 1.28-2.525.452-1.024.326-1.063.86-2.547.18-.51.247-.637 1.302-3.08.758-1.75 1.136-2.63 1.375-3.191.387-.911.795-1.814 1.166-2.729l.006-.006c.17-.356.333-.703.402-1.013.153-.38.264-.62.436-.838.371-.46 1.028-.827 2.326-1.545.55-.301 1.195-.661 2.111-1.082 1.178-.545 1.083-.412 2.204-.934 1.113-.518 1.34-.716 1.947-.781.309-.033 1.019-.11 1.664.271.453.27.453.523 1.21 1.631.61.893.92 1.345 1.438 1.778.273.223.756.576 1.274.9.044.022.098.076.146.098.473.602.675 1.113 1.088 1.15.022.002.043-.023.076-.023.022.066.055.123.055.181-.055.371-.769.43-1.545.752-.433.182-.573.318-2.416 1.875a606 606 0 0 1-1.789 1.516c-1.855 1.507-2.119 1.488-2.633 2.203-.669.93-.878 1.88-.974 2.344-.213 1.004-.032 1.276-.098 2.795a7 7 0 0 1-.086.9l2.375-1.37v-.001c.04-.142.082-.287.13-.445.403-1.32.616-1.752.878-2.149.24-.36.504-.67 1.455-1.525a48 48 0 0 1 2.627-2.201c1.113-.87 1.755-1.374 2.648-1.942l1.303-.82c.22.065.503.182.588.418.135.382-.347.78-.668 1.342-.298.53-.326 1.096-.37 2.2l-.005.165 3.459-1.996.002-.002q.039-.045.084-.09c.644-.68 1.42-.901 1.79-.992l5.143-2.969c-1.376-.77-2.383-.947-2.812-1.002-.626-.077-1.509.328-1.733-.023-.135-.22.043-.56.098-.668.263-.51.77-.704 1.2-.893 1.24-.555.9-.688 2.152-1.252.789-.356.85-.268 2.394-.832 1.426-.517 1.237-.537 1.793-.691.48-.132 1.923-.532 3.5-.1.333.095.2.092 1.574.746l2.49-1.437a14 14 0 0 1-.726-.494c-.819-.607-.919-.832-1.584-1.233-.293-.182-.973-.594-1.812-.748-.367-.066-.977-.123-2.91.453-.626.19-.986.313-3.385 1.233-1.603.615-2.41.923-2.541 1.007-.908.591-1.441 1.258-2.326 1.196-.16-.01-.495-.044-.77-.272-.088-.077-.113-.203-.164-.3a21 21 0 0 1-.268-.78c-.033-.18-.054-.315-.109-.556-.077-.332-.222-.753-.516-1.596-.32-.941-.482-1.398-.615-1.67-.139-.495-.209-.826-.172-1.12.077-.622.372-1.058.653-1.472.337-.487.685-.82 1.914-1.789 1.252-.986 1.14-.838 1.804-1.387 1.295-1.066 1.386-1.356 2.15-1.72a5.6 5.6 0 0 1 1.786-.48c.576-.068.877-.012 2.342.152 2.19.259 1.947.192 2.785.312 1.46.204 1.428.276 2.576.43 1.356.19 1.507.11 3.31.277.635.066 1.812.177 3.319.412 1.16.182 2.34.213 3.504.375.279.044.958.136 1.58-.228.162-.1.506-.308.621-.702.151-.537-.222-1.026-.334-1.177-.185-.24-.424-.396-.691-.533-.066-.033-.119-.055-.186-.088-.076-.032-.144-.076-.232-.112a7.4 7.4 0 0 0-2.31-.441c-2.528-.152-1.878-.212-3.362-.256-1.747-.044-1.734.056-3.164-.021-.708-.033-1.464-.11-2.967-.266-1.41-.151-2.13-.234-2.815-.37-.184-.032-.733-.162-1.103-.247-.59-.2-1.038-.38-1.754-.504-.642-.11-.98-.164-1.434-.088-.402.065-.6.186-1.798.877-1.371.792-1.258.716-1.455.844-.66.425-1.098.777-1.829 1.365-.847.68-1.27 1.019-1.81 1.555-.367.364-.66.69-1.33 1.33-.734.704-1.018.915-1.377.896-.158-.004-.284-.078-.412-.148a5 5 0 0 1-.215-.442c-.111-.26-.232-.547-.21-.838.045-.634.767-.98 1.528-1.5.19-.13.85-.733 2.168-1.935.661-.607 1.257-1.21 2.436-2.428.788-.812 1.097-1.162 1.244-1.75.135-.533-.001-.734.176-1.472.022-.088.054-.116.076-.192.258-.033.505-.171.635-.369.248-.378.076-.825-.078-1.596a3 3 0 0 0-.053-.459c-.033-.29-.056-.653-.1-1.511-.055-1.245-.077-1.866.006-2.559.066-.54.13-.659.164-1.223.006-.099-.002-.125 0-.203.27-2.02.43-2.92.504-3.99.055-.858.044-1.195.033-1.553.011-.3.033-.588.088-1.16a55 55 0 0 1 .21-1.857c.134-1.11.17-1.257.152-1.674a7 7 0 0 0-.21-1.121 3 3 0 0 0-.076-.283c-.01-.043-.009-.065-.03-.11-.21-.583-.323-.911-.637-1.02l.004-.015a.7.7 0 0 0-.215-.037zm-28.112 3.342a.53.53 0 0 0-.301.147c-.196.2-.233.568-.137.834.11.292.452.445 1.237.898.176.194.287.327.445.342.022.002.033-.022.066-.033.286.183.446.308.43.412-.021.13-.214.159-.723.414-.055.033-.421.217-.77.445-.587.387-.632.566-.845.555-.178-.01-.337-.159-.469-.35l-.033-.066c-.065-.157-.12-.396-.203-.77.01-.428.18-.746-.012-1.132-.01-.022-.236-.445-.537-.448-.607-.01-.992 1.366-1.228 2.186v.006c-.223.79-.067 1.289.01 1.873.077.572.287 1.002.578 1.586.247.51.373.76.64.996.417.363.396.548.48.818.089.297-.224.588-.527.99-.49.65-.682 1.238-.921 1.965a6.2 6.2 0 0 0-.233 2.672c.065.513.162 1.294.656 2.09.758 1.228 1.828 1.543 1.793 1.92-.128.009-.43.032-.877.098-.618.098-1.07.299-1.574.543a13 13 0 0 0-1.533.412c-.974.336-.693.445-2.625 1.38-.387.187-1.052.498-1.848 1.065-.672.479-.896.76-.949 1.098a1.19 1.19 0 0 0 .412 1.058c.286.232.647.26.99.21.364.11.8.227 1.026-.022a.6.6 0 0 0 .125-.385c.4-.208.693-.455 1.22-.854s1.112-.725 2.284-1.386c1.097-.616 1.73-.932 2.332-1.1.364-.077.726-.153 1.092-.158a5 5 0 0 1 .617.033c.065.01.136.023.203.045.226.043.455.123.683.266.022.01.045.032.067.043.314.22.434.41.683.593.174.15.37.29.674.381.356.098.705.077 1.389.022a9 9 0 0 0 1.963-.385c.974-.305.893-.456 2.021-.889 1.457-.564 1.692-.356 2.31-.86.44-.358.444-.56 1.132-1.132.32-.262.572-.423 1.07-.752 1.04-.68 1.065-.583 1.512-.94.044-.032.088-.1.125-.13.365-.176.668-.384.695-.674.002-.022-.01-.033-.01-.055.155-.176.251-.24.465-.494.58-.683.661-.872.707-1.023.158-.48.099-.943.055-1.33-.044-.36-.089-.362-.194-1.053-.066-.4-.066-.475-.125-.68-.143-.483-.301-.531-.308-.78-.01-.308.233-.467.639-.911.576-.634.423-.672.933-1.229.243-.266.697-.759 1.342-1.115q.015-.006.031-.01c-.013.02-.08.058-.096.08v.004h-.002v.002c.044.114.552.056.89-.03a2.9 2.9 0 0 0 1.2-.618c1.268-.368 1.982-.769 2.422-1.1.792-.592.819-.947.81-1.086-.021-.35-.282-.57-.413-.668-.022-.033-.01-.066-.034-.088-.3-.387-.868-.35-1.007-.34-.39.024-.687.209-.996.448-.405.2-.814.474-1.438.912-.499.35-1.086.71-2.072 1.324-.587.254-1.07.487-1.428.871-.389.235-.613.393-.818.64-.367.444-.553.854-.762 1.071-.123.087-.155.087-.236.135-.022.006-.044.033-.077.033-.197 0-.336-.153-.73-.674-.885-1.172-.928-1.402-1.303-1.777-.217-.212-.686-.452-1.625-.916-.087-.044-.11-.045-.185-.078-.088-.054-.17-.155-.266-.21a6 6 0 0 0-1.598-.626c-.032-.009-.11-.012-.146-.023-.808-.246-1.255-.368-1.727-.284-.155.022-.29.066-.412.088-.077-.022-.323-.134-.703-.51-.055-.15-.097-.316-.191-.537-.25-.58-.589-.943-1.014-1.402-.259-.279-.575-.617-1.092-.941-.055-.033-.11-.034-.16-.067-.126-.13-.329-.37-.451-.445-.17-.11-.657-.394-1.24-.328-.088.01-.167.042-.248.064-.39-.11-.764-.194-.996-.152zm7.074 6.686q.095-.002.174 0c.505.012.861.23 1.656.752.84.55 1.258.826 1.467 1.004.36.298.702.67 1.363 1.404a.5.5 0 0 1 .067.074c.305.432.6.83.683 1.059.077.203.162.4.295.533-.022.066-.098.19-.146.295-.242.088-.394.176-.82.266-.608.123-1.013.205-1.596.238-.435.022-.718.02-.957-.024a.7.7 0 0 0-.088-.144c-.175-.11-.159-.212-.448-.772-.314-.607-.373-.552-.593-1.023-.232-.494-.173-.562-.409-1.065-.158-.34-.2-.348-.533-.927-.715-1.24-.645-1.423-.6-1.5.09-.139.299-.166.485-.17m-6.713 3.625c.24.28.576.677.996 1.136.652.71.878.892 1.315 1.436a8.4 8.4 0 0 1 .87 1.275c.294.532.46.853.475 1.301.011.356-.077.608-.248 1.106-.11.304-.199.523-.299.707-.311.259-.523.509-.828.674-.137.044-.268.065-.357.087a3 3 0 0 1-.357.055c-.13-.007-.263-.007-.403-.076-.347-.167-.425-.458-.78-1.15-.526-1.008-.608-.864-.917-1.575-.01-.033-.032-.087-.043-.119a7.4 7.4 0 0 1-.227-1.03 9.4 9.4 0 0 1-.066-1.54c.004-.255.01-.423.021-.606.156-.326.333-.532.418-1.017.011-.088.013-.176.024-.268a2.3 2.3 0 0 1 .406-.396M94.818 96.85q.085.002.16.012l-.008.006c.202.022.344.09.373.1.51.22.686.725.957 1.297.197.413.668 1.087 1.608 2.427.444.638.844 1.132 1.64 2.13.715.895 1.074 1.344 1.545 1.849.878.936.983.864 1.473 1.478.576.715.477.866 1.273 2.207.734 1.236.908 1.255 1.53 2.407.174.316.488.92.793 1.732.224.59.948 2.275.841 2.39l-.002.003-.002.002h-.002v-.002c-.013-.01-.085-.098-.095-.11-.088-.189-.19-.333-.295-.603-.217-.541-.25-.737-.442-1.297-.099-.267-.31-.89-.613-1.512a10 10 0 0 0-1.453-2.156c-.448-.525-.355-.317-1.264-1.291-.316-.34-.607-.668-1.101-1.02-.27-.19-.436-.247-.602-.31-.023-.011-.033-.022-.055-.033-.154-.055-.266-.078-.351-.067-.132-.033-.248-.096-.397-.074-.076.008-.554.087-.82.475-.278.41-.165.9-.055 1.33.182.73.513 1.2.85 1.703.737 1.1 1.11 1.65 1.318 2.045.777 1.457.591 1.451 1.297 2.603.178.288.31.474.47.713-.43-.315-.908-.67-1.114-.826a8.6 8.6 0 0 1-1.41-1.365c-.548-.68-.833-1.28-1.25-2.168-.28-.58-.467-.973-.641-1.545-.294-.974-.18-1.22-.436-2.281-.193-.804-.27-.704-.656-1.948-.453-1.442-.33-1.498-.697-2.546-.197-.564-.127-.251-1.02-2.311 0 0-.33-.754-.886-1.709-.14-.24-.413-.694-.946-1.008-.168-.098-.377-.202-.545-.164a1.2 1.2 0 0 1 .477-.441c.191-.096.384-.124.553-.121zm-1.268 1.49c.001.105-.006.176 0 .312.021.576.031.862.13 1.217.115.406.22.488.616 1.246.426.811.42.9.606 1.27-.436-.693-.624-.911-.883-1.428-.212-.433-.386-.79-.475-1.303-.077-.445-.054-.78-.021-1.217.005-.066.017-.059.027-.097" style="display:inline;fill:#028121;fill-opacity:1;stroke-width:.161664"/>
        <path id="path53" d="M112.35 72.062c-.322-.004-.677.191-.811.479-.01.022-.003.054-.01.076-.14.137-.288.284-.442.611-.453.954-.358 1.782-.346 2.729.01 1.14-.113.654-.26 3.096-.12 1.998-.022 2.196-.13 4.529-.077 1.67-.114 2.501-.211 3.197-.274 2.036-.66 2.818-.35 4.24.147.665.296.804.26 1.291-.007.122-.054.225-.076.334-.14.038-.279.107-.3.145v.002l-.003.002v.008h.002v.002l.002.002.002.002.002.002.002.006c.046.145-.651 1.217-1.27 1.902-.097.11-.142.187-.212.278-.572.617-.793.88-1.082 1.21-.18.18-.239.278-.534.532-1.356 1.17-2.106 1.683-2.496 1.892-.316.167-.53.348-.736.504a4 4 0 0 1-.465.272c-.098.032-.195.064-.308.064-.11 0-.347-.087-.766-.379-.212-.233-.446-.565-.815-1.002-.344-.41-.907-1.06-1.642-1.652-.364-.29-.961-.767-1.873-1.111-.212-.076-.464-.17-.754-.243-.403-.163-.82-.31-1.346-.265-.453.033-.758.184-1.246.412a.1.1 0 0 0-.033.023c-.11.044-.21.11-.316.17-.442.223-.855.47-1.15.934-.248.387-.438.846-.345.912h.006v-.002h.002c.012-.008.034-.034.051-.041l.002-.002h.006c-.065.178-.135.288-.193.623-.022.154-.1.606-.033 1.256.055.54.15.695.486 1.908.004.022.116.449.34 1.307.333 1.27.351 1.293.396 1.41-.055.176-.112.53-.361.9-.088.13-.224.182-.334.266-.11.077-.3.2-.426.295-.256.11-.545.193-.916.334-.592.228-.171.137-2.316 1.207-1.735.87-2.094.97-2.407 1.047a5.8 5.8 0 0 1-1.906.14c-.622-.066-1.038-.226-2.719-1.029-1.314-.63-1.675-.828-2.761-1.353-1.475-.712-1.574-.735-1.953-.928-.164-.077-.404-.21-.635-.324-1.15-.658-1.303-.924-2.41-1.477-.29-.147-.35-.159-2.159-.877-1.109-.53-1.437-.642-2.496-1.201-.658-.348-1.366-.584-2.004-.963-.534-.321-1.016-.664-1.533-.51a1 1 0 0 0-.25.125c-.033.01-.065-.007-.11.006-.315.11-.718.399-.73.766-.004.258.186.455.387.668.336.348.69.506.803.56l.13.065c1.688 1.753 4.385 2.647 5.926 3.193 2.08.738 3.492 1.426 6.325 2.813.087.044.076.044.152.088.113.066.148.11.31.199.078.044.252.109.311.135 3.073 1.586 3.582 2.18 4.93 2.328 2.705.295 5.13-1.09 6.46-2.067.517-.187 1.039-.365 1.546-.578.95-.393 1.3-.614 1.724-.451.38.139.605.49.852.877.242.383.43.673.35.963-.089.336-.49.467-1.1.707-.65.254-1.27.577-1.918.828a46 46 0 0 0-2.645 1.12 38 38 0 0 0-1.855.935c-.955.51-1.245.694-1.42.814-.077.022-.129.067-.211.078-.174.021-.325.021-.492.135-.197.134-.347.39-.397.662-.088.088-.182.16-.261.26-.445.565-.396.882-.848 2.203-.34.989-.36.798-.9 2.236-.487 1.282-.516 1.56-.682 1.989l2.656-1.534v-.002a69 69 0 0 0 .668-1.574l.006-.006c.17-.356.333-.704.402-1.014.153-.38.264-.62.436-.837.371-.46 1.028-.827 2.326-1.545.55-.301 1.195-.661 2.111-1.082 1.178-.545 1.083-.412 2.204-.934 1.113-.518 1.34-.716 1.947-.781.309-.033 1.019-.11 1.664.271.209.125.322.245.457.448l2.35-1.356-.018-.039c-.279-.579-.467-.973-.64-1.545-.295-.974-.18-1.22-.436-2.281-.193-.804-.27-.703-.656-1.947-.453-1.442-.33-1.5-.698-2.547-.197-.564-.126-.25-1.02-2.31 0 0-.33-.755-.886-1.71-.14-.24-.412-.694-.945-1.008-.168-.098-.377-.202-.545-.164a1.2 1.2 0 0 1 .476-.441c.255-.127.511-.134.713-.11l-.008.006c.202.022.345.09.374.1.51.22.686.725.957 1.297.197.413.667 1.088 1.607 2.428.444.638.845 1.131 1.64 2.128.716.896 1.075 1.345 1.546 1.85.878.936.982.865 1.472 1.479.576.715.478.866 1.274 2.207l.08.13 2.845-1.642q-.012-.149.004-.281c.077-.623.372-1.059.653-1.473.337-.487.685-.82 1.914-1.79 1.252-.985 1.14-.837 1.804-1.386 1.295-1.066 1.386-1.356 2.15-1.72a5.6 5.6 0 0 1 1.786-.48c.576-.068.877-.013 2.342.151.52.062.904.106 1.197.137h.002l3.658-2.113-.408-.041c-1.41-.151-2.13-.234-2.814-.37-.184-.032-.734-.162-1.104-.247-.59-.2-1.038-.38-1.754-.504-.642-.11-.98-.164-1.433-.088-.402.065-.601.186-1.8.877-1.37.792-1.257.716-1.454.844-.66.425-1.097.777-1.828 1.365-.847.68-1.27 1.018-1.81 1.554-.368.364-.66.69-1.331 1.33-.734.705-1.018.916-1.377.897-.158-.004-.284-.078-.412-.148a5 5 0 0 1-.215-.442c-.11-.26-.232-.547-.209-.838.044-.634.766-.98 1.527-1.5.19-.13.85-.733 2.168-1.935.661-.607 1.257-1.21 2.436-2.428.788-.812 1.097-1.162 1.244-1.75.135-.533 0-.735.176-1.473.022-.088.054-.115.076-.191.258-.033.505-.171.635-.37.248-.377.076-.824-.078-1.595a3 3 0 0 0-.053-.459c-.033-.29-.056-.654-.1-1.512-.055-1.245-.077-1.865.006-2.558.066-.54.13-.659.165-1.223.006-.099-.002-.125 0-.203.269-2.021.43-2.92.503-3.99.055-.858.045-1.195.034-1.553.01-.3.033-.588.088-1.16a55 55 0 0 1 .209-1.858c.135-1.109.17-1.256.152-1.673a7 7 0 0 0-.21-1.121 3 3 0 0 0-.075-.284c-.01-.043-.01-.064-.032-.109-.21-.583-.322-.912-.636-1.02l.004-.015a.7.7 0 0 0-.215-.037zm-28.112 3.342a.53.53 0 0 0-.301.147c-.196.2-.233.568-.137.834.11.292.452.445 1.237.898.176.194.287.327.445.342.022.002.033-.022.066-.033.286.183.446.308.43.412-.021.13-.214.159-.723.414-.055.033-.421.217-.77.445-.587.387-.632.566-.845.555-.178-.01-.337-.159-.469-.35l-.033-.066c-.065-.157-.12-.396-.203-.77.01-.428.18-.746-.012-1.132-.01-.022-.236-.445-.537-.448-.607-.01-.992 1.366-1.228 2.186v.006c-.223.79-.067 1.289.01 1.873.077.572.287 1.002.578 1.586.247.51.373.76.64.996.417.363.396.548.48.818.089.297-.224.588-.527.99-.49.65-.682 1.238-.921 1.965a6.2 6.2 0 0 0-.233 2.672c.065.513.162 1.294.656 2.09.758 1.228 1.828 1.543 1.793 1.92-.128.009-.43.032-.877.098-.618.098-1.07.299-1.574.543a13 13 0 0 0-1.533.412c-.974.336-.693.445-2.625 1.38-.387.187-1.052.498-1.848 1.065-.672.479-.896.76-.949 1.098a1.19 1.19 0 0 0 .412 1.058c.286.232.647.26.99.21.364.11.8.227 1.026-.022a.6.6 0 0 0 .125-.385c.4-.208.693-.455 1.22-.854s1.112-.725 2.284-1.386c1.097-.616 1.73-.932 2.332-1.1.364-.077.726-.153 1.092-.158a5 5 0 0 1 .617.033c.065.01.136.023.203.045.226.043.455.123.683.266.022.01.045.032.067.043.314.22.434.41.683.593.174.15.37.29.674.381.356.098.705.077 1.389.022a9 9 0 0 0 1.963-.385c.974-.305.893-.456 2.021-.889 1.457-.564 1.692-.356 2.31-.86.44-.358.444-.56 1.132-1.132.32-.262.572-.423 1.07-.752 1.04-.68 1.065-.583 1.512-.94.044-.032.088-.1.125-.13.365-.176.668-.384.695-.674.002-.022-.01-.033-.01-.055.155-.176.251-.24.465-.494.58-.683.661-.872.707-1.023.158-.48.099-.943.055-1.33-.044-.36-.089-.362-.194-1.053-.066-.4-.066-.475-.125-.68-.143-.483-.301-.531-.308-.78-.01-.308.233-.467.639-.911.576-.634.423-.672.933-1.229.243-.266.697-.759 1.342-1.115q.015-.006.031-.01c-.013.02-.08.058-.096.08v.004h-.002v.002c.044.114.552.056.89-.03a2.9 2.9 0 0 0 1.2-.618c1.268-.368 1.982-.769 2.422-1.1.792-.592.819-.947.81-1.086-.021-.35-.282-.57-.413-.668-.022-.033-.01-.066-.034-.088-.3-.387-.868-.35-1.007-.34-.39.024-.687.209-.996.448-.405.2-.814.474-1.438.912-.499.35-1.086.71-2.072 1.324-.587.254-1.07.487-1.428.871-.389.235-.613.393-.818.64-.367.444-.553.854-.762 1.071-.123.087-.155.087-.236.135-.022.006-.044.033-.077.033-.197 0-.336-.153-.73-.674-.885-1.172-.928-1.402-1.303-1.777-.217-.212-.686-.452-1.625-.916-.087-.044-.11-.045-.185-.078-.088-.054-.17-.155-.266-.21a6 6 0 0 0-1.598-.626c-.032-.009-.11-.012-.146-.023-.808-.246-1.255-.368-1.727-.284-.155.022-.29.066-.412.088-.077-.022-.323-.134-.703-.51-.055-.15-.097-.316-.191-.537-.25-.58-.589-.943-1.014-1.402-.259-.279-.575-.617-1.092-.941-.055-.033-.11-.034-.16-.067-.126-.13-.329-.37-.451-.445-.17-.11-.657-.394-1.24-.328-.088.01-.167.042-.248.064-.39-.11-.764-.194-.996-.152zm7.074 6.686q.095-.002.174 0c.505.012.861.23 1.656.752.84.55 1.258.826 1.467 1.004.36.298.702.67 1.363 1.404a.5.5 0 0 1 .067.074c.305.432.6.83.683 1.059.077.203.162.4.295.533-.022.066-.098.19-.146.295-.242.088-.394.176-.82.266-.608.123-1.013.205-1.596.238-.435.022-.718.02-.957-.024a.7.7 0 0 0-.088-.144c-.175-.11-.159-.212-.448-.772-.314-.607-.373-.552-.593-1.023-.232-.494-.173-.562-.409-1.065-.158-.34-.2-.348-.533-.927-.715-1.24-.645-1.423-.6-1.5.09-.139.299-.166.485-.17m-6.713 3.625c.24.28.576.677.996 1.136.652.71.878.892 1.315 1.436a8.4 8.4 0 0 1 .87 1.275c.294.532.46.853.475 1.301.011.356-.077.608-.248 1.106-.11.304-.199.523-.299.707-.311.259-.523.509-.828.674-.137.044-.268.065-.357.087a3 3 0 0 1-.357.055c-.13-.007-.263-.007-.403-.076-.347-.167-.425-.458-.78-1.15-.526-1.008-.608-.864-.917-1.575-.01-.033-.032-.087-.043-.119a7.4 7.4 0 0 1-.227-1.03 9.4 9.4 0 0 1-.066-1.54c.004-.255.01-.423.021-.606.156-.326.333-.532.418-1.017.011-.088.013-.176.024-.268a2.3 2.3 0 0 1 .406-.396M93.55 98.34c.001.105-.006.176 0 .312.021.576.031.862.13 1.217.115.406.22.488.616 1.246.426.811.42.9.606 1.27-.436-.693-.624-.911-.883-1.428-.212-.433-.386-.79-.475-1.303-.077-.445-.054-.78-.021-1.217.005-.066.017-.059.027-.097m6.834 8.07-.054.006c-.076.008-.555.087-.82.475-.279.41-.165.9-.055 1.33.182.73.512 1.2.85 1.703l.314.47 2.966-1.712a15 15 0 0 1-.75-.762c-.316-.34-.607-.668-1.101-1.02-.27-.19-.436-.247-.602-.31-.023-.011-.032-.022-.054-.033-.155-.055-.267-.078-.352-.067-.115-.029-.218-.082-.342-.08" style="display:inline;fill:#fe0;fill-opacity:1;stroke-width:.161664"/>
        <path id="path54" d="M112.35 72.062c-.322-.004-.677.191-.811.479-.01.022-.003.054-.01.076-.14.137-.288.284-.442.611-.453.954-.358 1.782-.346 2.729.01 1.14-.113.654-.26 3.096-.12 1.998-.022 2.196-.13 4.529-.077 1.67-.114 2.501-.211 3.197-.22 1.629-.51 2.456-.46 3.45l2.669-1.542c-.05-1.126-.065-1.72.014-2.378.066-.54.13-.66.164-1.223.006-.1-.002-.125 0-.203.269-2.021.43-2.92.504-3.99.055-.858.044-1.195.033-1.553.01-.3.033-.588.088-1.16a55 55 0 0 1 .209-1.858c.135-1.109.171-1.257.152-1.674a7 7 0 0 0-.209-1.12 3 3 0 0 0-.076-.284c-.01-.043-.01-.064-.031-.11-.21-.582-.323-.91-.637-1.019l.004-.015a.7.7 0 0 0-.215-.038m-28.112 3.342a.53.53 0 0 0-.301.147c-.196.2-.233.568-.137.834.11.292.452.445 1.237.898.176.194.287.327.445.342.022.002.033-.022.066-.033.286.183.446.308.43.412-.021.13-.214.159-.723.414-.055.033-.421.217-.77.445-.587.387-.632.566-.845.555-.178-.01-.337-.159-.469-.35l-.033-.066c-.065-.157-.12-.396-.203-.77.01-.428.18-.746-.012-1.132-.01-.022-.236-.445-.537-.448-.607-.01-.992 1.366-1.228 2.186v.006c-.223.79-.067 1.289.01 1.873.077.572.287 1.002.578 1.586.247.51.373.76.64.996.417.363.396.548.48.818.089.297-.224.588-.527.99-.49.65-.682 1.238-.921 1.965a6.2 6.2 0 0 0-.233 2.672c.065.513.162 1.294.656 2.09.758 1.228 1.828 1.543 1.793 1.92-.128.009-.43.032-.877.098-.618.098-1.07.299-1.574.543a13 13 0 0 0-1.533.412c-.974.336-.693.445-2.625 1.38-.387.187-1.052.498-1.848 1.065-.672.479-.896.76-.949 1.098a1.19 1.19 0 0 0 .412 1.058c.286.232.647.26.99.21.364.11.8.227 1.026-.022a.6.6 0 0 0 .125-.385c.4-.208.693-.455 1.22-.854s1.112-.725 2.284-1.386c1.097-.616 1.73-.932 2.332-1.1.364-.077.726-.153 1.092-.158a5 5 0 0 1 .617.033c.065.01.136.023.203.045.226.043.455.123.683.266.022.01.045.032.067.043.314.22.434.41.683.593.174.15.37.29.674.381.356.098.705.077 1.389.022a9 9 0 0 0 1.963-.385c.974-.305.893-.456 2.021-.889 1.457-.564 1.692-.356 2.31-.86.44-.358.444-.56 1.132-1.132.32-.262.572-.423 1.07-.752 1.04-.68 1.065-.583 1.512-.94.044-.032.088-.1.125-.13.365-.176.668-.384.695-.674.002-.022-.01-.033-.01-.055.155-.176.251-.24.465-.494.58-.683.661-.872.707-1.023.158-.48.099-.943.055-1.33-.044-.36-.089-.362-.194-1.053-.066-.4-.066-.475-.125-.68-.143-.483-.301-.531-.308-.78-.01-.308.233-.467.639-.911.576-.634.423-.672.933-1.229.243-.266.697-.759 1.342-1.115q.015-.006.031-.01c-.013.02-.08.058-.096.08v.004h-.002v.002c.044.114.552.056.89-.03a2.9 2.9 0 0 0 1.2-.618c1.268-.368 1.982-.769 2.422-1.1.792-.592.819-.947.81-1.086-.021-.35-.282-.57-.413-.668-.022-.033-.01-.066-.034-.088-.3-.387-.868-.35-1.007-.34-.39.024-.687.209-.996.448-.405.2-.814.474-1.438.912-.499.35-1.086.71-2.072 1.324-.587.254-1.07.487-1.428.871-.389.235-.613.393-.818.64-.367.444-.553.854-.762 1.071-.123.087-.155.087-.236.135-.022.006-.044.033-.077.033-.197 0-.336-.153-.73-.674-.885-1.172-.928-1.402-1.303-1.777-.217-.212-.686-.452-1.625-.916-.087-.044-.11-.045-.185-.078-.088-.054-.17-.155-.266-.21a6 6 0 0 0-1.598-.626c-.032-.009-.11-.012-.146-.023-.808-.246-1.255-.368-1.727-.284-.155.022-.29.066-.412.088-.077-.022-.323-.134-.703-.51-.055-.15-.097-.316-.191-.537-.25-.58-.589-.943-1.014-1.402-.259-.279-.575-.617-1.092-.941-.055-.033-.11-.034-.16-.067-.126-.13-.329-.37-.451-.445-.17-.11-.657-.394-1.24-.328-.088.01-.167.042-.248.064-.39-.11-.764-.194-.996-.152zm7.074 6.686q.095-.002.174 0c.505.012.861.23 1.656.752.84.55 1.258.826 1.467 1.004.36.298.702.67 1.363 1.404a.5.5 0 0 1 .067.074c.305.432.6.83.683 1.059.077.203.162.4.295.533-.022.066-.098.19-.146.295-.242.088-.394.176-.82.266-.608.123-1.013.205-1.596.238-.435.022-.718.02-.957-.024a.7.7 0 0 0-.088-.144c-.175-.11-.159-.212-.448-.772-.314-.607-.373-.552-.593-1.023-.232-.494-.173-.562-.409-1.065-.158-.34-.2-.348-.533-.927-.715-1.24-.645-1.423-.6-1.5.09-.139.299-.166.485-.17m-6.713 3.625c.24.28.576.677.996 1.136.652.71.878.892 1.315 1.436a8.4 8.4 0 0 1 .87 1.275c.294.532.46.853.475 1.301.011.356-.077.608-.248 1.106-.11.304-.199.523-.299.707-.311.259-.523.509-.828.674-.137.044-.268.065-.357.087a3 3 0 0 1-.357.055c-.13-.007-.263-.007-.403-.076-.347-.167-.425-.458-.78-1.15-.526-1.008-.608-.864-.917-1.575-.01-.033-.032-.087-.043-.119a7.4 7.4 0 0 1-.227-1.03 9.4 9.4 0 0 1-.066-1.54c.004-.255.01-.423.021-.606.156-.326.333-.532.418-1.017.011-.088.013-.176.024-.268a2.3 2.3 0 0 1 .406-.396m10.975 9.094q-.094 0-.192.007c-.453.033-.758.184-1.246.412a.1.1 0 0 0-.033.024c-.11.044-.21.11-.316.17-.442.223-.855.47-1.15.933-.248.387-.438.847-.345.913h.006v-.002h.002c.012-.008.034-.034.051-.042l.002-.002h.006c-.065.178-.135.289-.193.624-.022.154-.1.605-.033 1.255.04.39.1.579.257 1.11l1.14-.656v-.002c-.058-.396-.037-.713-.007-1.116.005-.066.017-.059.028-.097 0 .105-.007.176 0 .312.013.376.022.629.054.858l1.655-.956c-.146-.246-.416-.675-.927-.976-.168-.098-.376-.202-.544-.164a1.2 1.2 0 0 1 .476-.441c.255-.127.511-.134.713-.11l-.008.006c.202.022.344.09.373.1.436.188.629.583.844 1.05l2.988-1.726a6.4 6.4 0 0 0-1.693-.969c-.212-.076-.464-.169-.754-.242-.353-.143-.717-.273-1.154-.273m-29.268 4.408a.9.9 0 0 0-.287.037 1 1 0 0 0-.25.125c-.033.009-.065-.007-.11.006-.315.11-.718.398-.73.765-.004.258.186.455.387.668.336.348.69.507.803.56l.13.065c1.688 1.753 4.385 2.648 5.926 3.194 2.08.738 3.492 1.425 6.325 2.812.087.044.076.044.152.088.113.066.147.111.31.2.052.029.146.068.221.099h.002l2.164-1.25c-.844-.41-1.248-.621-2.14-1.053-1.475-.712-1.575-.735-1.954-.928-.164-.077-.403-.209-.634-.324-1.15-.658-1.304-.923-2.41-1.476-.29-.147-.35-.16-2.159-.877-1.109-.53-1.437-.642-2.496-1.201-.658-.348-1.366-.584-2.004-.963-.434-.261-.834-.536-1.246-.547" style="display:inline;fill:#ff8d00;fill-opacity:1;stroke-width:.161664"/>
        <path id="path55" d="M112.35 72.062c-.322-.004-.677.191-.811.479-.01.022-.003.054-.01.076-.14.137-.288.284-.442.611-.242.51-.328.984-.353 1.46l2.494-1.44v-.004c-.01-.043-.01-.064-.031-.11-.21-.582-.323-.91-.637-1.019l.004-.016a.7.7 0 0 0-.215-.037zm-28.112 3.342a.53.53 0 0 0-.301.147c-.196.2-.233.568-.137.834.11.292.452.445 1.237.898.176.194.287.327.445.342.022.002.033-.022.066-.033.286.183.446.308.43.412-.021.13-.214.159-.723.414-.055.033-.421.217-.77.445-.587.387-.632.566-.845.555-.178-.01-.337-.159-.469-.35l-.033-.066c-.065-.157-.12-.396-.203-.77.01-.428.18-.746-.012-1.132-.01-.022-.236-.445-.537-.448-.607-.01-.992 1.366-1.228 2.186v.006c-.223.79-.067 1.289.01 1.873.077.572.287 1.002.578 1.586.247.51.373.76.64.996.417.363.396.548.48.818.089.297-.224.588-.527.99-.49.65-.682 1.238-.921 1.965a6.2 6.2 0 0 0-.233 2.672c.055.437.134 1.068.461 1.736l2.27-1.31a7 7 0 0 1-.12-.627 9.4 9.4 0 0 1-.066-1.541c.004-.255.01-.423.022-.606.156-.326.332-.532.417-1.017.011-.088.013-.176.024-.268a2.3 2.3 0 0 1 .406-.396c.24.28.576.677.996 1.137.652.71.878.891 1.315 1.435l.084.106 5.22-3.014c-.07-.21-.093-.35-.254-.692-.158-.34-.2-.348-.533-.927-.715-1.24-.645-1.423-.6-1.5.12-.185.45-.174.659-.17.505.012.861.23 1.656.752.84.55 1.258.826 1.467 1.004q.052.043.105.09l2.225-1.284v-.002c-.291-.428-.395-.611-.64-.857-.218-.212-.687-.452-1.626-.916-.087-.044-.11-.045-.185-.078-.088-.054-.17-.155-.266-.21a6 6 0 0 0-1.597-.626c-.032-.01-.11-.013-.147-.024-.808-.246-1.254-.367-1.726-.283-.155.022-.29.066-.413.088-.077-.022-.323-.134-.703-.51-.055-.15-.097-.316-.191-.537-.25-.58-.589-.943-1.014-1.402-.259-.28-.575-.618-1.092-.942-.055-.033-.11-.033-.16-.066-.126-.131-.329-.37-.45-.445-.17-.11-.658-.394-1.241-.328-.088.01-.167.042-.248.064-.39-.11-.764-.194-.996-.152zM66.285 99.217a1 1 0 0 0-.266.037 1 1 0 0 0-.25.125c-.033.009-.065-.007-.11.006-.315.11-.718.398-.73.765-.004.258.186.455.387.668l.059.057 2.054-1.186c-.394-.24-.764-.47-1.144-.472" style="display:inline;fill:#e50000;fill-opacity:1;stroke-width:.161664"/>
    </g>
</svg>
