<svg xmlns="http://www.w3.org/2000/svg" xml:space="preserve" id="svg5" width="88.338" height="100" version="1.1">
    <g id="blackQueen" style="display:inline" transform="translate(-57.646 -60.29)">
        <path id="path36" fill="url(#J)" d="m119.441 117.833-1.688-2.074q-.51-.07-1.6-.844l-1.844-1.494q-.404.932-.616 1.512-1.335 3.305-3.813 5.15-1.195.879-2.654 1.423-2.918 1.125-6.328.74l-1.774-.459q-.457-.246-.475-.457 0 .74.193 1.213.14.72.228 1.336.054.492.089.897l.034.42q.036.827-.069 1.196l.949 2.55.087 2.16q.281 2.443 1.213 4.236 1.494 3.005 1.406 3.85l.475.65.194.193-.281.193.192.194-.386.475.018.016.175.229-.299.967.3.211-.388.264.036.017.439.176-.562.37-.071.474-.493.58.107.176.457-.176.386-.493.089.334v.054l.579.192.175-1.335.827-.545-.545-.58.545-1.125-.439-.475-.3-.28.37-.388-.07-1.037-.862-1.581q-.668-1.213-.826-2.268.123-.37.141-.756.017-.439-.088-.914-.264-1.282-1.39-3.023-.297-1.23-.386-2.548l.247.493.333.65.176.175q.686 1.16 1.512 2.127 2.126 2.532 5.273 3.62 4.236 1.582 7.821-.474 3.568-2.074 4.219-6.59.228-1.407.156-2.796-.14-2.285-1.124-4.552-.316-.702-.72-1.405v-.106l.932.755q.087.123.158.265.052.07.105.158.105.175.194.333.51.844 1.037 1.442 1.001 1.142 1.986 1.3.633.493 1.23 1.3.21.282.386.581l.827 1.3.86.3.088.474.475-.088.37.914 1.23.105.176.773 1.036-.492 1.125.493.088-.58-.264-.3.65-.086.388-.3-.194-.157-.668.156-.457-.156h-.105l-.457.28.105-.474-.493.105v-.28h-.386l-.633-.106-.193-.475-.562.193v-.299l-.317.194-.07.017-.37-1.036q-.333-.141-.966-.88-.28-.369-.65-.825l-1.018-1.407-.23-.333q-.633-.862-1.529-1.653-.65-.58-1.442-1.124l-1.388-.88q-.052-.088-.264-.157l-.105-.072zm-.739 2.25q.37.808.704 1.758.123.333.228.702l-.193.562q-2.056 8.947-9.034 9.14l-6.573-1.704-1.6-2.269-.175-.315q-1.108-2.022-1.618-4.113l.686.72 2.513 2.584q3.674 2.074 6.38-3.568l4.06-.58q2.128-.861 2.302-2.918.036-.51-.034-1.09-.158-1.106-.756-2.46l-.474-1.142.755.668.141.14q.616.633 1.195 1.389.493.65.932 1.37.28.527.562 1.125m4.78-44.994q-.615-.86-1.651-1.248-1.003-.351-3.569 1.038-2.548 1.353-5.307 6.45l-2.268 9.034q-2.231 8.63-2.882 10.669-.65 1.986-.72 2.214-.089.229-.07.087-.634-.615-1.39-1.072-.298-.192-.579-.333.017-.088.034-.158.14-.722-.034-1.16v-.106q0-.597-.088-1.195 0-.686.034-1.143.054-.526.141-.738-.052-.386-.14-.738-.193-.756-.51-1.353.106-.598.159-1.143.034-.703-.018-1.37-.123-1.459-.791-2.655-.299-.58-.475-1.23-.403-1.177-.403-1.687 0-.088.017-.158v-.036q-.563-.37-.563-.562l.28-.194-.174-.174.439-.37.018-.018-.281-.263.018-.018.457-.844-.3-.087.387-.299-.386-.089.492-.28.175-.458.475-.491-.088-.176-.844.667-.087-.263-.018-.018-.457-.105-.281 1.02-.862.58.493.474-.335.474-.351.457.563.564-.264.386.264.193-.264.756.65 1.124.492 1.776-.105 1.037q0 1.318.932 2.83l.087 1.23q0 .967-.123 1.758-.07.351-.158.667l.21 1.054.176.827v.21l-.473 1.02-.388-.088q0-.932-.37-1.617-.016-.035-.033-.053-1.16-1.792-3.692-1.635-.158 0-.316.019l-1.124-4.131.034-1.371.07-4.868q-.017 0-.017.017-.37.176-.475 2.918v1.389q-.035.052 0 .351v1.072q-.14.158.721 3.321.193.651.404 1.39-1.02.088-2.724.931-1.037.65-1.968 1.616-.282-.28-.545-.526l-.65-.669q-1.636-1.6-2.04-1.915-.104-.087-.14-.087-.14-.07-.264-.141l-1.74-.932q-.229-.124-.474-.247-1.494-.79-2.198-1.001-.491-.14-.597-.035l5.449 2.918 2.355 2.442.562.581q-.018.034-.034.053-.827 1.124-1.055 2.09-.316 1.301.422 2.356.052.088.105.193.158.281.44.51.316.28.79.51l-.21.474-1.301-.088-1.705-1.406q-1.037-.193-2.25-.949l-1.054-.739q-.053-.104-.123-.227-.141-.247-.3-.457-.702-.985-1.528-1.494l-.949-.387-.229-.228-1.09-1.09-.667-1.125-.756-.07-.089-.018v-.474l-.37.193-.033-.124-.264-.65-.035.035-1.09.089-.176-.65-.966.438-.985-.263h-.017v.018l-.211.457.299.263-.58.105-.457.282.175.193.563-.193h.475l.562-.28-.07.473.369-.193v.28h.263l.668-.087.088.387.563-.21v.297l.386-.175q.176.175.281.72v.019q.194.069.44.28.474.44 1.23 1.424.247.28.493.65.263.386.58.74 1.37 1.545 3.655 2.354.194.299.493.633l.034.034q.405.405.985.827.65.123 2.812 1.512.386.49 1.423.755v1.037l.176.844-21.267-5.537q-5.817.088-9.12 2.074l-2.146 2.074q.37 2.25 1.899 3.937 1.3 1.476 3.462 2.548 2.162 1.09 4.341 1.389.088 0 .158.018-.316.176-.28.773.052.932.843 1.758l.035.034q1.107 1.09 3.638 1.951 2.25.65 4.517.932.721.194 6.046-2.11l.158.527q.018.124.053.23l.07.21q.053.142.123.23.176.298.44.525.844.651 2.707.3.493.07 4.358-2.83 1.108-.843 2.513-1.933.37-.28.757-.597l.192.193q-.615.616-.86 1.336-.07.263-.106.544-.088.229-.157.457-.897 2.514-1.425 3.024l-.457 2.723-.967 1.882q-1.037 2.266-1.037 4.34-.21 2.601-.526 3.62-.018.019-.018.037-.106.228-.21.37.297.772.21 1.052h-.387l.088.264-.545.211.088.457-.844.58.176.265-.475.105.388.386h-.58l-.158.14-.229.229-.246.123-.387.141v.28h.474l.546-.175-.089.387.386.37.74-.932.017-.018 1.037-.193-.21-.74 1.053-.667-.176-1.036.44-.088-.264-.474.65-.669v-1.705q.09-1.389.475-2.32 1.283-1.124 1.142-4.64-.017-.087-.017-.193 0-.018.017-.035.194-.632.563-1.354.668-1.704 1.406-2.618l.65-2.373v-.193q.352-.316.598-.563.704-.685.633-.756l-.493-.913q.036.017.089.034 1.581.704 3.797.405 2.266-.28 4.516-1.581 2.443-1.424 3.849-3.48 1.318-1.986 1.23-3.762l.826 1.319q.018.034.158.052.334.017 1.635-.44h.211l2.356.65q1.88-.35 4.499.3 3.093 1.88 4.693 1.318 1.053.175 2.371.826l1.302.773.967-.28.263.474.37-.387.754.65 1.126-.545.58.545.668-.844.298-.034h.018l.896-.142v-.016l-.176-.563-.403-.088.492-.37.175-.386-.123-.124-.052-.052-.58.475-.476.176-.263.475-.194-.475-.37.37-.103-.283-.387.089-.545.386-.387-.386-.457.386-.21-.193-.176.28-.844-.65q-.175.019-.475-.017-.526-.123-1.423-.51-.123-.07-.265-.123l-1.704-.668-.175-.105q-1.74-.949-4.06-1.108l-2.162-.105-.141-.07q-.493-.282-1.125-.527-.194-.07-.403-.176l-.88-.158-3.85-.281q-.615-.246-1.37-.228-.21 0-.44.034-.228.035-.456.105h-.07l-.211-.474q.158-.053.315-.124l.071-.033q1.02-.423 1.899-.792 6.59-2.795 6.765-3.304 1.671-.844 1.6-2.18-.088-1.353-.492-1.898-.421-.562-.403-.58 3.919-3.04 3.99-3.62.843-2.074 1.317-4.43.457-2.073.317-3.444-.089-.896-.44-1.494-.299-.563-.808-.879-.053-.035-.123-.053-.282-.14-.72-.053.263-.702.491-1.458.386-1.546.44-3.234.07-.914.017-1.723-.158-2.636-1.529-4.517m-4.886 18.28-.457 1.317q-.457 1.09-1.09 2.198-1.318 2.372-3.445 4.85-1.652 1.933-3.761 3.955l4.236-5.976 2.671-3.761zm-10.721 11.565-.194.966q-5.448-.298-9.596 3.569l-3.005 3.849-.95-.563q-.403-1.177-.228-2.408.123-1.037.685-2.109 1.125-2.442 3.69-3.954 2.62-1.494 5.362-1.318 2.32.158 3.779 1.494.246.21.457.474m-26.82 11.6-1.301-.212 14.956-1.582q-2.548.756-5.062 1.213-2.408.421-4.745.58z" style="display:inline;fill:none;stroke:#9a9a9a;stroke-width:2;stroke-linecap:round;stroke-linejoin:round;stroke-dasharray:none;stroke-opacity:1"/>
        <path id="rect1" d="M121.4 73.77q-1.052-.021-3.137 1.107-2.548 1.353-5.306 6.451l-2.27 9.033q-2.23 8.631-2.88 10.67-.651 1.985-.722 2.213a.7.7 0 0 1-.064.139v.002h-.002v.002h-.004v-.002l-.002-.002v-.002a.2.2 0 0 1 .002-.049 7.7 7.7 0 0 0-1.389-1.072 6 6 0 0 0-.58-.334q.018-.088.036-.157.14-.721-.036-1.162v-.103q0-.597-.088-1.195 0-.685.036-1.143.053-.526.14-.738a7 7 0 0 0-.14-.739 6 6 0 0 0-.51-1.353q.105-.599.158-1.143.035-.704-.018-1.37a6.5 6.5 0 0 0-.79-2.655 6.2 6.2 0 0 1-.475-1.23q-.403-1.177-.403-1.686-.001-.09.016-.158v-.037q-.562-.37-.562-.561l.28-.195-.175-.174.44-.37.017-.019-.281-.262.02-.019.456-.842-.3-.088.386-.299-.386-.09.494-.279.174-.457.474-.492-.088-.176-.843.668-.086-.263-.02-.018-.457-.105-.281 1.02-.861.58.494.474-.336.472-.352.457.565.565-.266.387.266.191-.266.756.65 1.125.493 1.775-.106 1.037q0 1.32.934 2.83l.086 1.23q0 .968-.123 1.759-.071.351-.159.668l.211 1.052.176.829v.209l-.473 1.02-.388-.087q0-.933-.37-1.619a.2.2 0 0 0-.033-.053q-1.16-1.791-3.693-1.634-.158 0-.314.02l-1.125-4.132.035-1.37.07-4.868h-.01l-.002.002-.002.002h-.002v.004h-.002v.008q-.369.176-.474 2.918v1.388q-.036.054 0 .352v1.072q-.141.16.72 3.323.193.65.403 1.388-1.02.09-2.723.932-1.036.648-1.969 1.615-.282-.28-.545-.525l-.65-.67q-1.635-1.6-2.04-1.914-.104-.088-.14-.088a6 6 0 0 1-.264-.14l-1.74-.932a18 18 0 0 0-.474-.248q-1.494-.79-2.198-1-.49-.141-.595-.036l5.447 2.918 2.355 2.442.563.582a.3.3 0 0 1-.035.052q-.827 1.124-1.055 2.09-.315 1.3.422 2.356.052.088.105.193.158.282.44.51.317.28.79.51l-.21.474-1.3-.088-1.706-1.406q-1.037-.192-2.25-.95l-1.053-.737a5 5 0 0 0-.423-.686q-.703-.984-1.528-1.494l-.949-.385-.229-.228-1.09-1.09-.667-1.125-.756-.07-.088-.02v-.473l-.371.194-.033-.125-.264-.649-.035.035-1.09.088-.176-.65-.967.44-.984-.264h-.018v.017l-.21.457.298.264-.58.105-.457.282.176.193.562-.193h.475l.563-.282-.07.475.368-.193v.279h.264l.668-.086.088.387.562-.211v.297l.387-.174q.176.175.281.72v.018q.195.07.44.28.474.44 1.23 1.425.247.28.492.649.264.386.58.74 1.371 1.545 3.655 2.353.195.3.494.633l.033.035q.406.404.987.827.649.123 2.81 1.511.387.491 1.424.756v1.037l.176.844-21.268-5.537q-5.817.088-9.121 2.074l-2.145 2.074q.37 2.25 1.899 3.938 1.301 1.475 3.463 2.547 2.161 1.09 4.342 1.388.087.001.158.02-.316.175-.281.771.051.934.841 1.76l.037.033q1.107 1.09 3.637 1.952 2.25.65 4.518.931.72.194 6.045-2.11.07.23.158.528.018.123.053.229l.07.21q.052.141.123.23.176.299.44.526.844.651 2.706.3.494.07 4.36-2.83 1.107-.845 2.514-1.934.37-.28.755-.596l.192.191q-.614.616-.86 1.336a4 4 0 0 0-.105.545 7 7 0 0 0-.158.457q-.896 2.514-1.424 3.026l-.457 2.722-.967 1.881q-1.037 2.265-1.037 4.34-.211 2.602-.527 3.621-.018.017-.018.035-.105.23-.21.371.297.773.21 1.053h-.386l.088.264-.545.21.088.458-.844.58.176.264-.475.105.389.387h-.582l-.157.14-.228.229-.248.123-.385.14v.28h.473l.545-.174-.088.387.386.369.739-.932.017-.017 1.037-.194-.21-.738 1.054-.668-.176-1.037.44-.088-.264-.475.65-.668v-1.705q.09-1.39.475-2.32 1.284-1.125 1.143-4.64a1 1 0 0 1-.018-.192q0-.019.018-.037.194-.63.562-1.352.668-1.705 1.407-2.619l.65-2.373v-.193q.35-.315.598-.563.67-.654.636-.75l-.004-.006-.494-.912a1 1 0 0 0 .09.033q1.581.704 3.797.405 2.265-.28 4.516-1.58 2.443-1.425 3.85-3.48 1.317-1.988 1.23-3.763l.826 1.319v.002l.002.002q.024.03.154.049.335.016 1.637-.44h.21l2.356.65q1.88-.352 4.498.3 3.093 1.88 4.694 1.318 1.053.174 2.37.826l1.304.771.966-.279.262.475.371-.387.754.648 1.127-.543.578.543.668-.843.299-.034h.018l.896-.142v-.016l-.176-.562-.404-.088.492-.371.176-.387-.123-.123-.053-.053-.58.477-.475.176-.263.474-.194-.474-.369.369-.105-.283-.385.09-.547.386-.387-.387-.457.387-.209-.193-.175.279-.844-.648a2.3 2.3 0 0 1-.475-.018q-.525-.123-1.424-.51a2 2 0 0 0-.265-.125l-1.703-.666-.176-.105q-1.74-.95-4.06-1.108l-2.163-.105-.14-.07a8.4 8.4 0 0 0-1.125-.528 4 4 0 0 1-.403-.176l-.879-.158-3.85-.281a3.4 3.4 0 0 0-1.37-.229q-.21 0-.44.036a3 3 0 0 0-.457.105h-.07l-.211-.475q.158-.052.316-.123l.07-.035q1.02-.421 1.9-.79 6.59-2.796 6.765-3.305 1.67-.845 1.6-2.18-.089-1.353-.493-1.897-.421-.562-.404-.58 3.92-3.041 3.99-3.62a24.6 24.6 0 0 0 1.318-4.43q.457-2.075.317-3.446-.09-.895-.44-1.494a2.25 2.25 0 0 0-.808-.877.4.4 0 0 0-.123-.055q-.282-.14-.72-.052.263-.702.491-1.457.387-1.546.44-3.235.07-.914.017-1.722-.158-2.637-1.529-4.518a3.5 3.5 0 0 0-1.652-1.248 1.4 1.4 0 0 0-.432-.07m-2.8 19.597-.458 1.318a20 20 0 0 1-1.09 2.198q-1.318 2.372-3.445 4.85a55 55 0 0 1-3.762 3.954l4.237-5.974 2.67-3.762zm-14.96 9.598q2.32.157 3.78 1.494.246.21.456.475l-.193.966q-5.447-.297-9.596 3.569l-3.005 3.847-.95-.562a5.1 5.1 0 0 1-.228-2.408q.123-1.038.685-2.11 1.125-2.441 3.692-3.953 2.618-1.494 5.36-1.318m10.67 10.457q-.405.931-.617 1.512-1.334 3.303-3.813 5.148a11 11 0 0 1-2.654 1.424q-2.918 1.125-6.328.74l-1.773-.459q-.457-.246-.475-.457 0 .74.191 1.213.14.72.229 1.336.055.492.09.896l.033.422q.037.827-.068 1.196l.949 2.548.086 2.162q.28 2.442 1.213 4.235 1.494 3.004 1.406 3.85l.474.65.194.193-.282.194.194.193-.387.475.018.017.175.229-.298.966.298.211-.386.264.035.018.44.175-.563.37-.07.474-.493.58.106.176.457-.176.387-.492.09.332v.055l.578.193.175-1.336.827-.545-.545-.58.545-1.125-.44-.474-.299-.282.371-.386-.072-1.037-.861-1.582q-.668-1.214-.826-2.268.123-.369.14-.756a3.6 3.6 0 0 0-.088-.914q-.263-1.283-1.388-3.023a15 15 0 0 1-.387-2.547l.246.492.334.65.176.176q.685 1.161 1.511 2.127a11.8 11.8 0 0 0 5.274 3.62q4.237 1.581 7.822-.475 3.567-2.074 4.217-6.59.229-1.407.158-2.795-.14-2.286-1.125-4.553-.316-.702-.72-1.406v-.104l.931.754q.087.123.158.264.052.07.106.158.105.176.193.334.51.844 1.037 1.441 1.002 1.143 1.987 1.301.632.494 1.23 1.301.21.28.387.58l.826 1.3.861.3.088.474.475-.088.369.914 1.23.106.176.771 1.035-.49 1.127.492.086-.58-.263-.299.65-.087.387-.3-.194-.157-.668.156-.457-.156h-.103l-.457.279.103-.473-.492.106v-.282h-.387l-.633-.105-.19-.475-.563.194v-.3l-.319.194-.07.018-.37-1.037q-.331-.14-.964-.88a36 36 0 0 0-.65-.825l-1.02-1.407q-.105-.156-.228-.334a10.5 10.5 0 0 0-1.53-1.652 14 14 0 0 0-1.441-1.125l-1.389-.879q-.051-.088-.264-.158l-.105-.07-.035-.016-1.688-2.074q-.51-.071-1.6-.844zm-19.598 1.318a48 48 0 0 1-5.062 1.213 45 45 0 0 1-4.744.58h-3.85l-1.3-.213zm20.407.65.754.669.14.138a15.5 15.5 0 0 1 2.127 2.76q.28.526.563 1.125.369.81.703 1.76.123.332.228.7l-.193.563q-2.057 8.948-9.035 9.141l-6.572-1.705-1.6-2.268-.176-.316a17 17 0 0 1-1.617-4.113l.685.72 2.514 2.584q3.675 2.074 6.381-3.568l4.06-.58q2.128-.861 2.301-2.918.036-.51-.035-1.09-.157-1.106-.756-2.459z" style="fill:#5bcefa;stroke-width:.114941"/>
        <path id="rect2" d="m124.98 81.707-14.174 8.182-.119.472q-2.23 8.631-2.88 10.67-.651 1.985-.722 2.213a.7.7 0 0 1-.064.139v.002h-.002v.002h-.004v-.002l-.002-.002v-.002a.2.2 0 0 1 .002-.049 7.7 7.7 0 0 0-1.389-1.072 6 6 0 0 0-.58-.334q.018-.088.036-.157.14-.721-.036-1.162v-.103q0-.597-.088-1.195 0-.685.036-1.143.053-.526.14-.738a7 7 0 0 0-.14-.739 6 6 0 0 0-.51-1.353q.105-.599.158-1.143.019-.38.012-.752l-1.444.834q.111.203.239.41l.086 1.23q0 .968-.123 1.759-.071.351-.159.668l.211 1.052.176.829v.209l-.473 1.02-.388-.087q0-.933-.37-1.619a.2.2 0 0 0-.033-.053q-1.16-1.791-3.693-1.634-.158 0-.314.02l-.237-.872-.367.21.215.749q-1.019.089-2.723.932-1.035.648-1.969 1.615-.235-.235-.459-.445l-.402.232.018.02.562.581a.3.3 0 0 1-.035.053q-.826 1.124-1.055 2.09-.315 1.3.422 2.356.052.088.106.193.158.28.44.51.316.28.79.51l-.21.474-1.302-.088-1.705-1.406q-1.036-.193-2.25-.95l-1.052-.738a5 5 0 0 0-.243-.422l-1.496.864q.832.5 1.842.86.195.299.494.632l.033.035q.406.405.987.826.65.123 2.81 1.512.387.491 1.424.756v1.037l.176.844-13.113-3.414-14.42 8.326q.177.093.361.183 2.162 1.09 4.342 1.39.087 0 .158.019-.315.175-.281.771.051.932.842 1.76l.037.033q1.106 1.09 3.636 1.951 2.25.65 4.518.932.72.194 6.045-2.11.07.23.158.528.018.122.053.228l.07.211q.052.14.123.229.177.3.44.527.844.65 2.707.299.493.07 4.36-2.83 1.107-.843 2.513-1.934.369-.279.756-.595l.191.191q-.614.615-.86 1.336a4 4 0 0 0-.105.545 7 7 0 0 0-.158.457q-.897 2.514-1.424 3.025l-.457 2.723-.967 1.88q-1.037 2.267-1.037 4.34-.211 2.602-.527 3.622-.018.018-.018.035-.105.229-.21.371.298.772.21 1.053h-.386l.088.263-.545.211.088.457-.844.58.176.264-.475.106.389.386h-.582l-.157.141-.228.229-.248.123-.385.14v.28h.473l.545-.174-.088.386.136.131.81-.467.179-.226.017-.018.334-.062.637-.367-.144-.502 1.054-.668-.176-1.037.44-.088-.264-.475.65-.668v-1.705q.09-1.39.475-2.32 1.284-1.125 1.143-4.641a1 1 0 0 1-.018-.191q0-.02.018-.037.194-.632.562-1.352.668-1.705 1.407-2.62l.65-2.372v-.194q.35-.316.598-.562.67-.655.636-.75l-.004-.006-.494-.912a1 1 0 0 0 .09.033q1.581.704 3.797.404 2.265-.28 4.516-1.58 2.443-1.424 3.85-3.48 1.317-1.986 1.23-3.762l.826 1.318v.002l.002.002q.024.032.154.05.335.016 1.637-.44h.21l2.356.65q1.88-.352 4.498.299 3.093 1.88 4.694 1.318 1.053.176 2.37.827l1.304.771.966-.28.262.475.371-.386.754.648 1.127-.543.52.486.189-.109.537-.678.299-.033h.018l.521-.084.338-.193-.139-.444-.404-.088.492-.37.176-.387-.123-.123-.053-.053-.58.476-.475.176-.263.475-.194-.475-.369.37-.105-.284-.385.09-.547.387-.387-.387-.457.387-.209-.194-.175.28-.844-.649a2.3 2.3 0 0 1-.475-.017q-.525-.124-1.424-.51a2 2 0 0 0-.265-.125l-1.703-.666-.176-.106q-1.74-.948-4.06-1.107l-2.163-.106-.14-.07a8.4 8.4 0 0 0-1.125-.527 4 4 0 0 1-.403-.176l-.879-.158-3.85-.281a3.4 3.4 0 0 0-1.37-.229q-.21 0-.44.035a3 3 0 0 0-.457.106h-.07l-.211-.475q.158-.052.316-.123l.07-.035q1.02-.422 1.9-.791 6.59-2.795 6.765-3.305 1.67-.843 1.6-2.18-.089-1.352-.493-1.896-.421-.562-.404-.58 3.92-3.041 3.99-3.621a24.6 24.6 0 0 0 1.318-4.43q.457-2.074.317-3.445-.09-.897-.44-1.494a2.25 2.25 0 0 0-.808-.877.4.4 0 0 0-.123-.055q-.282-.139-.72-.053.263-.702.491-1.457.343-1.371.424-2.855m-6.38 11.66-.458 1.318a20 20 0 0 1-1.09 2.198q-1.318 2.372-3.445 4.85a55 55 0 0 1-3.762 3.954l4.237-5.974 2.67-3.762zm-14.96 9.598q2.32.157 3.78 1.494.246.21.456.475l-.193.966q-5.447-.297-9.596 3.569l-3.005 3.847-.95-.562a5.1 5.1 0 0 1-.228-2.408q.123-1.038.685-2.11 1.125-2.441 3.692-3.953 2.618-1.494 5.36-1.318m10.67 10.457q-.405.931-.617 1.512-1.334 3.303-3.813 5.148a11 11 0 0 1-2.654 1.424q-2.918 1.125-6.328.74l-1.773-.459q-.457-.246-.475-.457 0 .74.191 1.213.14.72.229 1.336.055.492.09.896l.033.422q.037.827-.068 1.196l.949 2.548.086 2.162q.176 1.53.609 2.805l1.867-1.078q-.299-1.227-1.351-2.854a15 15 0 0 1-.387-2.546l.246.492.334.65.176.176q.685 1.161 1.511 2.127.48.57 1.01 1.066l1.569-.904-1.91-.496-1.6-2.268-.176-.316a17 17 0 0 1-1.617-4.113l.685.72 2.514 2.584q3.675 2.074 6.381-3.568l4.06-.58q2.128-.861 2.301-2.918.036-.51-.035-1.09-.157-1.106-.756-2.459l-.472-1.142.753.668.141.138a15.5 15.5 0 0 1 2.127 2.76q.28.526.563 1.125.369.81.703 1.76.123.332.228.7l-.193.563-.006.026.908-.524a14 14 0 0 0-.832-2.525q-.316-.702-.72-1.406v-.104l.93.754q.089.123.16.264.052.07.105.158.105.176.193.334.51.844 1.037 1.441.178.203.356.375l1.867-1.078q-.355-.376-.764-.738a14 14 0 0 0-1.441-1.125l-1.389-.879q-.052-.088-.264-.158l-.105-.07-.035-.016-1.688-2.074q-.51-.071-1.6-.844zm-19.598 1.318a48 48 0 0 1-5.062 1.213 45 45 0 0 1-4.744.58h-3.85l-1.3-.213z" style="fill:#f5a9b8;stroke-width:.114941"/>
        <path id="rect3" d="m125.253 94.291-10.533 6.08v.002q-.525.675-1.113 1.36a55 55 0 0 1-3.762 3.954l3.002-4.234-5.34 3.082q.197.18.37.399l-.194.966a13.3 13.3 0 0 0-2.762.13h-.002l-7.552 4.36-2.286 2.926-.949-.562a5 5 0 0 1-.127-.422l-5.265 3.04 5.972-.632a48 48 0 0 1-5.062 1.213q-1.295.227-2.57.377h-.002L76.4 122.496q1.428.326 2.863.504.72.194 6.045-2.11.07.23.158.528.018.123.053.228l.07.211q.052.141.123.229.177.3.44.527.844.651 2.707.3.493.069 4.36-2.831 1.107-.843 2.513-1.934.369-.279.756-.595l.191.191q-.614.615-.86 1.336a4 4 0 0 0-.105.545 7 7 0 0 0-.158.457q-.897 2.515-1.424 3.025l-.351 2.094 1.789-1.033q.311-.555.636-.957l.65-2.373v-.193q.352-.317.598-.563.67-.655.637-.75l-.004-.006-.494-.912a1 1 0 0 0 .09.033q1.581.705 3.797.404 2.265-.28 4.516-1.58 2.443-1.424 3.85-3.48 1.317-1.986 1.23-3.762l.826 1.319v.002l.002.002q.024.03.154.048.335.019 1.637-.44h.21l2.356.651a7.6 7.6 0 0 1 1.272-.123l1.777-1.025a9 9 0 0 0-.853-.381 4 4 0 0 1-.403-.176l-.879-.158-3.85-.281a3.4 3.4 0 0 0-1.37-.229q-.211 0-.44.035a3 3 0 0 0-.457.106h-.07l-.211-.475q.157-.052.316-.123l.07-.035q1.02-.422 1.899-.791 6.592-2.795 6.766-3.305 1.67-.843 1.6-2.18-.089-1.351-.493-1.896-.421-.562-.404-.58 3.92-3.041 3.99-3.621.41-1.008.732-2.082M98.65 121.33q0 .577.117.992l.752-.433-.394-.102q-.457-.247-.475-.457" style="fill:#fff;stroke-width:.114941"/>
    </g>
</svg>
