<svg xmlns="http://www.w3.org/2000/svg" xml:space="preserve" id="svg5" width="88.338" height="100" version="1.1">
    <path id="black" d="M83.936 78.34a11.587 11.388 89.999 0 0 3.724-5.5 11.755 11.554 89.999 0 0 .54-3.557c-.006-1.106.329-38.92-.024-40.593a11.503 11.306 89.999 0 0-3.05-5.727 11.755 11.554 89.999 0 0-2.33-1.844c-.815-.483-33.2-19.968-34.638-20.474a11.537 11.339 89.999 0 0-9.397.895c-.867.51-33.415 19.343-34.378 20.132a11.553 11.355 89.999 0 0-4.244 9.039c.007 1.1-.327 38.92.016 40.573a11.587 11.388 89.999 0 0 5.392 7.608c.819.485 33.185 19.96 34.636 20.472a11.537 11.339 89.999 0 0 6.413.305 11.419 11.223 89.999 0 0 2.968-1.205c.865-.508 33.42-19.348 34.372-20.124" style="display:inline;fill:#3a3a3a;fill-opacity:1;fill-rule:nonzero;stroke:none;stroke-width:1.66482"/>
</svg>
