<svg xmlns="http://www.w3.org/2000/svg" xml:space="preserve" id="svg5" width="88.338" height="100" version="1.1">
    <g id="blackGrasshopper" style="display:inline" transform="translate(-57.646 -60.29)">
        <path id="path18694-6" d="M100.209 73.091c-.333.05-.586.172-.632.197-.149.07-.71.357-.758.825-.05.475.488.612.488 1.11 0 .577-.725.711-.758 1.36-.01.247.121.48.383.933.31.529.538.79.695.986-.08.103-.109.487.005.85.13.428.588.862.56.763-.08-.286.254.389.534 1.301.677 1.88 1.45 2.267 1.188 2.87-.206.47-.775.43-2.23.82-2.872.767-3.46 1.665-4.384 1.218-.236-.113-.09-.12-1.675-1.96-.687-.802-.903-1.028-1.297-1.183-.51-.214-1.195-.251-1.634-.29-.623-.05-.697.005-.902-.104-.577-.3-.748-1.169-.706-1.753.02-.213.09-.811.55-1.318.146-.158.463-.458 2.194-.876 1.013-.245 1.519-.364 2.163-.404 1.042-.05 1.376.143 2.449-.02.676-.103 1.226-.194 1.374-.566.06-.158.02-.34-.05-.519.08-.128.124-.264.08-.383-.05-.137-.242-.203-.523-.249-.02-.02-.04-.05-.06-.07-.23-.198-.691-.491-2.335-.43-.563.02-1.653.09-3.112.487-.825.219-1.579.432-2.454.96-.41.244-.875.525-1.317 1.063a4.3 4.3 0 0 0-.804 1.546c-.195.626-.387 1.258-.182 1.955.1.337.22.457.16.68-.116.417-.754.705-1.306.674-.673-.04-.752-.522-1.645-.975-.138-.07-1.157-.576-2.386-.4-.542.08-.965.3-1.815.742-.712.368-1.265.655-1.842 1.214-.297.29-.547.654-1.053 1.38-.238.343-.24.364-.358.555-.04.05-.09.09-.13.15a7 7 0 0 0-.519.861c-.07.109-.138.238-.254.395-.669.903-1.014 1.12-.954 1.556.04.297.266.52.519.68.102.283.459.32.488.32.151.01.324-.05.461-.165.352-.104.629-.32.716-.394.354-.308.405-.583.783-1.458.41-.96.618-1.437.934-1.852.612-.808 1.363-1.196 1.685-1.359.422-.212 1.006-.501 1.795-.497.267.002.655.02 1.012.16-.09.002-.241-.02-.25 0-.02.07.402.237.82.44.09.123.23.345.228.67 0 .439-.282.617-.477 1.048-.206.453-.162.843-.08 1.587.09.822.329 1.435.602 2.122.202.499.324.697.596 1.426.22.578.332.874.332.976.008.804-.974 1.023-2.256 2.376-.687.725-1.376 1.683-1.613 2.012-.649.9-.82 1.273-1.235 1.333-.443.07-.88-.34-1.748-1.151-.252-.234-.68-.736-1.54-1.738-.428-.494-.6-.746-.706-.99a7 7 0 0 0-.1-.488c.02-.393.175-.633.03-.929-.241-.489-1.09-.556-1.505-.596-.818-.06-.992.188-1.556-.02a2.6 2.6 0 0 1-.871-.576c-.379-.386-.387-.66-.639-.711-.322-.06-.649.326-.84.56h.006a2.1 2.1 0 0 0-.431.861c-.04.188-.1.459-.01.778.148.54.621.811.742.883.52.304.809.123 1.333.31.273.101.308.207 1.172 1.095.55.563.826.844 1.084 1.074.552.485.778.554 1.437 1.022 1.016.719.795.777 2.148 1.846 1.108.876 1.299.867 1.639 1.37.18.266.298.52.57.591.361.09.719-.209 1.193-.612.623-.521 1.263-1.018 1.883-1.546 1.622-1.385.524-.317 1.774-1.333.322-.258.573-.47.845-.41.266.07.4.38.659 1.007.287.701.43 1.055.342 1.27-.156.39-.708.447-2.142.695 0 0-.932.16-2.366.44-1.926.38-2.519.63-2.894 1.132-.103.134-.373.495-.28.856.07.283.312.344.55.685.223.315.27.617.327.964.153.939.346 1.875.467 2.817.351 2.741.407 2.498.39 2.94-.02.462-.081.978.155 1.609.155.406.296.478.285.758-.02.503-.469.612-.696 1.328-.08.262-.19.584-.04.87.04.071.134.233 1.022.566.528.199.801.3 1.006.27.447-.07.912-.44.965-.861.05-.418-.341-.568-.27-1.006.02-.17.09-.191.493-.747.428-.595.455-.711.586-.721.248-.02.464.364.871 1.115.56 1.03.84 1.54.913 1.707.655 1.512.986 2.274 1.224 2.925.02.07.673 1.72 1.976 5.027.843 2.146.82 1.893 2.547 6.011 2.1 4.997 1.95 4.91 3.009 7.216.633 1.384.992 2.919 1.867 4.165.535.765 1.302 1.658 1.011 2.423-.183.484-.644.55-.882 1.28-.05.156-.229.714.02 1.225.188.386.453.396.914.783.417.35.348.468 1.208 1.696.434.62.664.884.835 1.048.003.003.002.008.006.01.138.174.61.767 1.068.632a.65.65 0 0 0 .264-.181c.175-.02.337-.06.452-.172.336-.336.134-1.015 0-1.468-.39-1.317-1.075-1.462-1.634-2.832a6 6 0 0 1-.24-.68c-.02-.135-.05-.265-.03-.414.041-.457.217-.733.071-.882-.04-.04-.114-.02-.177-.03.03-.734.247-1.115.27-1.794.03-.858-.319-1.488-.86-2.433-.03-.06-.051-.08-.081-.13-.624-1.46-1.281-2.522-1.385-2.676-.502-.74-.72-.974-1.012-1.354-.257-.409-.656-1.183-1.97-3.88-.175-.442-.645-1.657-1.733-4.02-.898-1.952-1.237-2.404-2.319-4.56-.76-1.929-1.267-3.973-2.277-5.778-.07-.12-.338-.591-.197-.737.11-.117.428.008.913.244.768.368 1.145.556 1.701.95 1.346.944 1.518.597 2.998 1.582.482.319 1.188.795 1.925 1.592.676.733 1.04 1.376 1.54 2.272 1.094 1.951.821 2.153 1.707 3.491.602.907.66.714 1.748 2.225.104.145.131.185.213.302 0 .06-.008.122 0 .171.07.336.343.546.653.69.13.151.247.286.43.404.464.301.646.234 1.967.872.445.216.7.359.964.607.422.385.4.594.716.97.591.69 1.08.44 1.862 1.084.387.319.23.354 1.038 1.405.701.91 1.06 1.367 1.535 1.582.07.03.1.01.156.03.422.232.926.399 1.084.208v-.01c.136.02.197.008.394.06.825.234.801.428 1.5.603.364.09 1.171.295 2.064-.03.74-.274 1.175-.776 1.405-1.048.107-.128.322-.4.934-1.852.03-.08.02-.07.05-.146.01-.02.03-.03.05-.05.07-.124.1-.236.105-.347.233-.564.477-1.125.524-1.411.08-.538.03-1.066-.07-2.122a22 22 0 0 0-.213-1.571c-.07-.383-.172-.836-.374-1.717a32 32 0 0 0-.316-1.307c-.01-.07-.01-.186-.04-.28-.1-.402-.26-1.05-.514-1.406-.09-.564-.02-1.018.06-1.478.178-1.034.439-1.22.545-1.857.05-.255.104-.82-.498-2.335-.23-.58-.738-1.755-2.08-3.734-.874-1.29-1.313-1.93-1.93-2.667-.372-.445-.647-.745-.86-1.022-.07-.196-.162-.497-.29-1.24-.175-.999-.157-1.195-.14-1.322.02-.1.03-.183.05-.301.08-.317.209-.516.368-.902.09-.205.16-.418.369-2.366.141-1.307.211-1.969.155-2.189-.09-.354-.08-.586-.09-.845.04-.22.1-.372.203-.394.22-.05.48.362.866.964.602.943 1.326 1.803 1.847 2.79.672 1.28.553.732 5.145 7.984 2.065 3.261 3.098 4.895 3.278 5.28.656 1.403 1.186 2.225 2.241 3.875.213.33.525.815 1.064 1.318.517.478 1.012.76 1.784 1.203.992.573 1.233.602 1.764 1.064.283.243.599.515.871.97.464.767.259 1.128.737 1.804.195.277.553.788 1.063.778.227-.008.44-.133.617-.3.142-.136.265-.298.322-.478.124-.388-.1-.75-.426-1.55a5 5 0 0 0-.103-.778 4.7 4.7 0 0 0-.644-1.572 4.3 4.3 0 0 0-.975-1.084c-.04-.04-.06-.08-.104-.115-.765-.626-1.223-.407-2.002-.928-.612-.408-.91-.953-1.198-1.53-.12-.336-.233-.655-.384-1.053-.213-.563-.87-1.579-1.8-2.973-.101-.188-.209-.374-.306-.565-.475-.938-.747-1.262-3.423-4.736-4.284-5.553-3.879-5.062-4.233-5.514-2.607-3.558-3.099-4.582-4.259-5.68-.17-.161-.507-.512-.866-.959-.11-.203-.237-.399-.332-.612-.432-.981-1.09-1.876-1.37-2.91-.12-.446-.265-1.127-.845-1.598-.134-.106-.624-.508-1.13-.352-.446.138-.638.621-.701.789-.216.552-.07.99-.04 1.41.07.833-.318 1.045-.867 2.511-.754 2.019-.529 2.998-1.208 3.242-.471.17-1.015-.142-1.12-.203-.507-.29-.715-.762-.877-1.11-.376-.79-.908-1.536-1.976-3.024q-.31-.428-.608-.866c-.07-.17-.15-.328-.26-.498-.105-.219-.218-.428-.249-.7-.01-.11-.04-.49.07-.96.15-.649.43-.91 1.085-1.862.227-.33.604-.88 1.011-1.588.552-.955.67-1.342 1.162-1.597.422-.217.83-.187.975-.177.301.02.853.14 1.93 1.204.53.527.525.629 1.156 1.338 1.038 1.168 1.557 1.75 2.272 1.924.61.15.753-.08 1.624.146.403.102.88.29 1.255.435.814.31.913.408 1.126.348.491-.132.804-.85.783-1.453-.02-.514-.29-1.099-.768-1.333-.315-.16-.501-.05-1.411-.04-.672.01-1.008.005-1.245-.05-.185-.232-.356-.532-.716-.882-.254-.25-.437-.325-.643-.415a4.6 4.6 0 0 0-.752-.732c-.47-.365-.956-.62-1.65-.98-.28-.147-.361-.198-.524-.275-.02-.01-.02-.02-.04-.03-.205-.122-.329-.168-.488-.244-.08-.04-.182-.08-.275-.146a5.6 5.6 0 0 1-1.291-1.177c-.666-.84-.588-1.283-1.116-1.52-.467-.216-.673.07-1.14-.115-.436-.166-.662-.571-1.194-1.935-.33-.856-.39-1.103-.545-1.556.008-.173.03-.283.01-.586-.03-.412-.157-1.19-.445-2.033.05-.446.1-.78-.13-1.354-.424-1.066-1.163-1.35-1.022-2.034.12-.584.72-.654.794-1.302.05-.47-.2-.948-.555-1.224-.363-.28-.777-.316-1.11-.27zm3.87 13.18c.123.101.02.468-.125.712-.234.393-.57.454-.97.72-.116.07-.161.12-1.032 1.183-.804.985-1.206 1.478-1.27 1.587-.123.212-.197.372-.276.52-.04.03-.09.07-.12.09-.08.05-.236.14-.425.202-.08-.08-.186-.223-.383-.492-.663-.907-.88-1.11-.81-1.401.051-.177.17-.285.312-.394.744-.58 1.472-.868 1.982-1.095.297-.127.945-.413 1.696-.866.846-.51 1.262-.896 1.421-.768zm-14.058.94c.462.02.868.272 1.038.378.244.151.597.372.576.627-.02.266-.423.287-1.074.727-.616.419-.603.631-1.208.965-.304.17-.818.447-1.084.249-.193-.145-.167-.481-.146-.711v-.005c.05-.543.321-.93.586-1.297.362-.5.534-.748.835-.861.16-.06.324-.08.477-.07zm4.207 2.235c.21-.02.477-.03.794.02.513.08.797.12.96.353.255.364.04.919-.156 1.213-.255.376-.769.726-1.25.613-.216-.05-.413-.273-.789-.716-.46-.538-.686-.816-.601-1.043v-.005c.06-.18.276-.247.601-.347.08-.02.231-.06.44-.09zm-2.541 2.376c.3-.02.396.394.902.918.556.577.92.581.97.939.04.326-.214.638-.452.794a1.06 1.06 0 0 1-1.23-.1c-.184-.163-.116-.256-.378-1.116-.203-.675-.325-.917-.192-1.162.01-.02.152-.265.379-.275zm-2.848.627c.116 0 .61-.005.897.337.251.305.193.703.13 1.157-.07.46-.115.803-.395 1.08-.431.428-1.235.508-1.795.129-.05-.04-.594-.417-.602-1.043-.002-.52.366-.864.639-1.115.212-.198.58-.541 1.125-.545zm9.679 1.676c.326.08.452.57.586 1.104.1.4.189.746.09 1.178-.134.595-.523.954-.803 1.209-.422.389-.855.786-1.365.68-.619-.128-.874-.895-.913-1.023-.05-.15-.202-.62.02-.97.06-.1.177-.177.4-.337.44-.312.528-.283.694-.456.252-.266.12-.432.347-.788.192-.299.603-.677.939-.597zm-4.902 4.01c.07.02.122.08.187.114.111.195.285.391.493.539.03.08.09.143.104.228.05.428-.239.74-.519 1.047-.216.233-.72.697-1.51.814-.233.03-.715.08-1.25-.13-.162-.06-.705-.28-1.063-.83-.12-.184-.305-.465-.202-.632.123-.203.53.02 1.172-.09.28-.05.315-.112 1.395-.643.857-.425 1.002-.461 1.193-.421zm2.848 3.029c.356-.206 1.071.44 1.37.715.04.06.1.118.139.177a.4.4 0 0 0-.04-.08c1.448 1.36 1.997 2.971 2.448 4.17-.742-1.246-2.193-3.77-2.412-4.087.312 1.015 1.34 2.612 2.625 4.549.164.375.265.39 2.863 4.948 2.631 4.618 2.39 4.417 3.615 6.396.781 1.266 1.228 1.914 1.53 2.381.01.02.03.05.04.07.258.38.469.79.628 1.22.372.977 1.012 1.84 1.458 2.785.155.332.346.75.71.83.276.06.497-.107 1.51-.727.825-.507 1.022-.594 1.167-.514.23.129.233.636.12 1.006-.146.492-.485.73-1.583 1.536-1.416 1.038-1.328.992-1.52 1.105-.626.365-.559.22-2.163.938-.779.348-1.055.504-1.55.514-.1.006-1.1.02-1.256-.43-.113-.327.273-.733.369-.836.393-.406.691-.307 1.276-.731.22-.162.392-.319.524-.488.005-.006.01-.006.02-.01.02-.02.01-.04.03-.06.05-.07.115-.14.134-.228.06-.27-.08-.523-.27-.814-.06-.168-.105-.313-.191-.503-.617-1.362-.942-2.068-1.37-2.661-.92-2.021-2.855-5.832-5.415-10.587-.347-.645-.97-1.786-1.795-3.362-1.314-2.516-1.098-2.2-1.317-2.557l-.08-.12c-.57-1.108-.858-1.66-1.075-1.95-.152-.202-.272-.352-.394-.508a4.5 4.5 0 0 1-.285-.991c-.05-.308-.128-.927.145-1.09zm-8.445 1.991c.155-.01.3.008.457.07.141.06.356.188.732.737.704 1.038.678 1.69 1.1 2.838.29.79.723 1.535 1.587 3.019.605 1.04.89 1.42.731 1.665-.201.297-.842.01-2.588-.208-1.912-.237-1.913 0-2.713-.285-1.218-.436-1.707-1.168-2.298-.913-.47.202-.49.816-.907.836-.09.008-.36-.008-.845-.67-.06-.07-.08-.155-.13-.228-.07-.118-.238-.469-.414-.804a17 17 0 0 1-.322-.861c-.52-1.52-.648-1.925-.627-2.562.02-.71.204-.936.264-1.007.336-.376.837-.314 1.624-.394.797-.08 1.348-.251 2.24-.524 1.108-.34 1.647-.676 2.112-.71zm27.051 25.646c.317-.003.65.06.804.29.209.318-.03.812-.07.892-.32.63-.875.586-1.976 1.198-1.049.585-1.185.979-2.127 1.23-.333.09-.956.245-1.204-.05-.208-.248-.07-.68-.03-.783l.005-.006c.107-.318.318-.538.654-.804.503-.394.896-.589 1.297-.804 1.331-.715 1.31-.933 1.95-1.074.08-.02.383-.08.7-.09z" style="display:inline;fill:none;fill-opacity:1;fill-rule:nonzero;stroke:#9a9a9a;stroke-width:2;stroke-linecap:round;stroke-linejoin:round;stroke-dasharray:none;stroke-opacity:1" transform="translate(.088 .041)"/>
        <path id="path1" d="M100.474 73.068a2 2 0 0 0-.262.018l-.004.006c-.333.05-.584.17-.63.195-.15.07-.71.358-.758.826-.05.475.486.612.486 1.11 0 .577-.725.712-.758 1.361-.01.247.121.479.383.932.31.529.538.79.695.986-.08.103-.108.487.006.85.13.428.469.81.56.763.1-.05-.04-.606-.208-1.068.355.605.297 1.134.742 2.369.677 1.88 1.45 2.266 1.188 2.87-.206.47-.776.43-2.23.82-2.873.766-3.46 1.665-4.384 1.218-.236-.113-.09-.12-1.676-1.96-.687-.803-.902-1.027-1.296-1.182-.51-.214-1.194-.252-1.633-.291-.623-.05-.698.005-.903-.104-.577-.3-.749-1.17-.707-1.754.02-.213.091-.81.551-1.316.146-.158.463-.46 2.194-.877 1.013-.245 1.52-.364 2.164-.404 1.042-.05 1.376.143 2.449-.02.676-.103 1.225-.194 1.373-.566.06-.158.02-.339-.05-.518.08-.128.123-.266.08-.385-.05-.137-.241-.202-.522-.248-.02-.02-.04-.05-.06-.07-.23-.198-.693-.49-2.337-.43-.563.02-1.652.09-3.111.487-.825.219-1.578.432-2.453.96-.41.244-.877.525-1.319 1.063a4.3 4.3 0 0 0-.802 1.547c-.195.626-.389 1.258-.184 1.955.1.337.22.457.16.68-.116.417-.752.704-1.304.673-.673-.04-.754-.521-1.647-.974-.138-.07-1.156-.577-2.385-.4-.542.08-.964.3-1.814.742-.712.368-1.267.654-1.844 1.213-.297.29-.547.654-1.053 1.38-.238.343-.24.364-.357.555-.04.05-.09.09-.13.15a7 7 0 0 0-.519.862c-.07.109-.137.237-.253.394-.67.903-1.016 1.121-.956 1.557.04.297.267.52.52.68.102.283.46.32.488.32a.68.68 0 0 0 .461-.166c.352-.104.628-.32.715-.395.354-.308.405-.582.783-1.457.41-.96.62-1.436.936-1.851.612-.808 1.361-1.197 1.683-1.36.422-.212 1.006-.502 1.795-.498.267.002.655.02 1.012.16-.079.002-.206-.013-.242-.003h-.002l-.002.002H83.1v.002h-.002v.008c.007.073.415.237.82.433.09.123.23.345.229.67 0 .44-.282.616-.477 1.047-.206.453-.162.844-.08 1.588.09.822.329 1.434.602 2.121.202.499.323.697.595 1.426.22.578.332.874.332.976.008.804-.973 1.022-2.255 2.375-.687.725-1.377 1.685-1.614 2.014-.649.9-.82 1.272-1.234 1.332-.443.07-.88-.34-1.748-1.15-.252-.234-.681-.737-1.541-1.739-.428-.494-.6-.746-.705-.99a7 7 0 0 0-.1-.488c.02-.393.174-.632.03-.928-.242-.489-1.09-.558-1.505-.598-.818-.06-.992.189-1.556-.019a2.6 2.6 0 0 1-.871-.577c-.379-.386-.387-.66-.639-.71-.322-.06-.649.326-.84.56h.006a2.1 2.1 0 0 0-.431.861c-.04.188-.1.459-.01.778.148.54.621.81.742.883.52.304.808.123 1.332.31.273.101.308.208 1.172 1.096.55.563.828.842 1.086 1.072.552.485.777.555 1.436 1.023 1.016.72.795.777 2.148 1.846 1.108.876 1.299.866 1.639 1.37.18.265.298.52.57.591a.6.6 0 0 0 .215.01c-.47.179-.725.372-.92.633-.103.134-.374.494-.281.855.07.283.312.345.55.686.223.315.27.618.327.965.153.939.345 1.874.466 2.816.351 2.741.408 2.498.391 2.94-.02.462-.082.978.154 1.609.155.406.296.478.285.758-.02.503-.468.612-.695 1.328-.08.262-.19.585-.04.871.04.071.135.232 1.023.565.528.199.8.301 1.005.271.447-.07.912-.44.965-.861.05-.418-.34-.568-.27-1.006.02-.17.09-.192.493-.748.428-.595.455-.71.586-.72.248-.02.464.363.87 1.114.56 1.03.84 1.54.913 1.707.655 1.512.987 2.275 1.225 2.926.02.07.673 1.719 1.976 5.026.843 2.146.82 1.893 2.547 6.011 2.1 4.997 1.95 4.911 3.01 7.217.633 1.384.99 2.918 1.865 4.164.535.765 1.303 1.659 1.012 2.424-.183.484-.643.55-.881 1.28-.05.155-.23.713.02 1.224.187.386.453.396.914.783.417.35.347.467 1.207 1.695.434.62.665.885.836 1.05v.001h.002v.006h.002v.002h.002c.138.174.61.768 1.068.633a.65.65 0 0 0 .264-.182c.175-.02.336-.06.45-.172.337-.336.135-1.015 0-1.468-.39-1.317-1.073-1.462-1.632-2.832a6 6 0 0 1-.24-.68c-.02-.135-.052-.265-.032-.414.041-.457.219-.732.073-.88-.04-.04-.115-.022-.178-.032.03-.734.246-1.114.27-1.793.03-.858-.319-1.489-.86-2.434-.03-.06-.05-.079-.08-.129-.624-1.46-1.283-2.523-1.387-2.677-.502-.74-.72-.974-1.011-1.354-.257-.409-.655-1.182-1.97-3.879-.174-.442-.646-1.658-1.734-4.021-.898-1.952-1.236-2.403-2.318-4.559-.76-1.929-1.267-3.974-2.277-5.78-.07-.12-.339-.59-.198-.735.11-.117.43.008.915.244.768.368 1.145.555 1.7.949 1.347.944 1.519.597 2.999 1.582.482.319 1.187.795 1.924 1.592.676.733 1.04 1.377 1.54 2.273 1.095 1.951.822 2.152 1.708 3.49.602.907.66.714 1.748 2.225.104.145.13.186.213.303 0 .06-.008.12 0 .17.07.336.342.547.652.691.13.151.247.286.43.404.464.301.645.233 1.966.871.445.216.701.36.965.608.422.385.401.593.717.969.591.69 1.08.44 1.861 1.084.387.319.23.355 1.038 1.406.7.91 1.06 1.367 1.535 1.582.07.03.1.009.156.03.422.231.926.4 1.084.208v-.01c.136.02.197.007.394.059.825.234.801.428 1.5.603.364.09 1.172.296 2.065-.029.74-.274 1.174-.777 1.404-1.049.107-.128.322-.4.934-1.851.03-.08.02-.07.05-.147.01-.02.03-.03.05-.05.07-.125.1-.235.105-.346.233-.564.476-1.126.523-1.412.08-.538.032-1.066-.068-2.122a22 22 0 0 0-.213-1.57c-.07-.383-.173-.838-.375-1.719a32 32 0 0 0-.316-1.306c-.01-.07-.01-.186-.04-.28-.1-.402-.26-1.05-.513-1.406-.09-.564-.022-1.018.058-1.478.178-1.034.44-1.219.545-1.856.05-.255.104-.82-.498-2.336-.23-.58-.738-1.755-2.08-3.734-.874-1.29-1.312-1.93-1.93-2.666-.371-.445-.646-.747-.859-1.024-.07-.196-.163-.495-.29-1.238-.176-.999-.157-1.195-.14-1.322.02-.1.03-.183.05-.3.08-.318.21-.517.368-.903.09-.205.16-.42.37-2.367.14-1.307.21-1.968.154-2.188-.09-.354-.08-.587-.09-.846.04-.22.1-.372.203-.394.22-.05.48.363.865.965.602.943 1.327 1.802 1.848 2.789.672 1.28.553.732 5.145 7.984 2.065 3.261 3.099 4.894 3.279 5.28.656 1.402 1.185 2.224 2.24 3.874.213.33.526.816 1.065 1.319.517.478 1.01.76 1.783 1.203.992.573 1.232.602 1.763 1.064.283.243.6.516.872.971.464.767.26 1.127.738 1.803.195.277.552.79 1.062.78.227-.009.44-.135.618-.302.142-.136.265-.298.322-.478.124-.388-.1-.749-.426-1.549a5 5 0 0 0-.104-.78 4.7 4.7 0 0 0-.644-1.572 4.3 4.3 0 0 0-.975-1.084c-.04-.04-.06-.078-.103-.113-.765-.626-1.223-.409-2.002-.93-.612-.408-.911-.952-1.2-1.529-.12-.336-.231-.655-.382-1.053-.213-.563-.87-1.578-1.8-2.972-.102-.188-.21-.376-.308-.567-.475-.938-.745-1.26-3.421-4.734-4.284-5.553-3.88-5.064-4.235-5.516-2.607-3.558-3.098-4.581-4.258-5.68-.17-.16-.508-.511-.867-.958-.11-.203-.237-.399-.332-.612-.432-.98-1.089-1.876-1.369-2.91-.12-.446-.266-1.126-.846-1.597-.134-.106-.623-.508-1.129-.352-.446.138-.638.621-.7.789-.217.552-.072.99-.042 1.41.07.833-.316 1.044-.865 2.51-.754 2.019-.53 2.998-1.209 3.242-.471.17-1.014-.142-1.12-.203-.506-.29-.714-.761-.876-1.11-.376-.79-.909-1.535-1.977-3.023a36 36 0 0 1-.607-.867 3 3 0 0 0-.262-.498c-.105-.219-.217-.427-.248-.7-.01-.11-.04-.49.07-.96.15-.65.43-.91 1.084-1.862.227-.33.605-.88 1.012-1.587.552-.955.67-1.343 1.162-1.598.422-.217.83-.186.975-.176.3.02.853.14 1.93 1.203.53.527.525.63 1.156 1.338 1.038 1.168 1.556 1.75 2.271 1.924.61.15.754-.08 1.625.146.403.102.88.291 1.254.436.814.31.914.408 1.127.348.491-.132.804-.85.783-1.453-.02-.514-.29-1.1-.767-1.334-.315-.16-.502-.05-1.412-.04-.672.01-1.007.005-1.244-.05-.185-.232-.357-.531-.717-.881-.254-.25-.437-.326-.643-.416a4.6 4.6 0 0 0-.752-.733c-.47-.365-.956-.618-1.65-.978-.28-.147-.36-.198-.524-.275-.02-.01-.02-.02-.04-.03-.206-.122-.328-.168-.487-.244-.08-.04-.182-.08-.275-.146a5.6 5.6 0 0 1-1.291-1.178c-.666-.84-.59-1.283-1.118-1.52-.467-.216-.671.07-1.138-.115-.436-.166-.664-.571-1.196-1.935-.33-.856-.39-1.102-.544-1.555.008-.173.03-.283.01-.586a8.8 8.8 0 0 0-.444-2.033c.05-.446.1-.78-.13-1.354-.425-1.066-1.163-1.35-1.022-2.035.12-.584.719-.655.793-1.303.05-.47-.2-.946-.555-1.222a1.4 1.4 0 0 0-.848-.287zm3.533 13.176q.043.001.073.025v.002c.123.101.02.467-.125.711-.234.393-.571.455-.971.721-.116.07-.16.12-1.031 1.184-.804.985-1.208 1.477-1.272 1.586-.123.212-.196.371-.275.52-.04.03-.09.071-.12.091-.08.05-.236.14-.425.201-.08-.08-.186-.223-.383-.492-.663-.907-.88-1.11-.81-1.4.05-.177.17-.286.312-.395.744-.58 1.472-.869 1.982-1.096.297-.127.945-.412 1.696-.865.74-.446 1.152-.798 1.35-.793m-14.103.967q.06-.002.117.002v-.002c.462.02.867.273 1.037.379.244.15.597.372.576.627-.02.266-.423.286-1.074.726-.616.42-.602.631-1.207.965-.304.17-.818.446-1.084.248-.193-.145-.167-.48-.146-.71v-.005c.05-.543.32-.93.585-1.297.363-.5.535-.748.836-.86q.182-.068.36-.073m4.681 2.219q.2 0 .438.037c.513.08.796.118.959.351.255.364.04.92-.156 1.213-.255.376-.77.726-1.25.613-.216-.05-.413-.271-.79-.714-.46-.538-.686-.816-.6-1.043v-.006c.06-.18.276-.248.6-.348.08-.02.231-.06.44-.09l.002.002q.158-.016.358-.015m-2.9 2.39.002.002c.3-.02.396.394.902.918.556.577.92.582.97.94.04.326-.214.637-.452.793a1.06 1.06 0 0 1-1.23-.1c-.184-.163-.115-.255-.377-1.115-.203-.675-.327-.917-.194-1.162.01-.02.152-.266.38-.276m-2.848.63h.002c.116 0 .61-.007.897.335.25.305.194.704.13 1.158-.07.46-.116.803-.396 1.08-.43.428-1.235.508-1.795.13-.05-.04-.593-.418-.601-1.044-.002-.52.365-.864.638-1.115.212-.198.58-.54 1.125-.545m9.547 1.665a.4.4 0 0 1 .13.01h.003c.326.08.452.57.586 1.103.1.4.19.746.092 1.178-.134.595-.525.954-.805 1.21-.422.388-.853.787-1.363.68-.62-.127-.875-.895-.914-1.023-.05-.15-.203-.62.02-.97.06-.1.177-.176.4-.336.44-.312.527-.284.693-.457.252-.266.12-.431.348-.787.168-.262.504-.585.81-.608m-12.558 3.631q.05 0 .101.012c.266.07.4.379.658 1.006.287.7.43 1.054.342 1.27-.156.39-.706.446-2.14.694 0 0-.934.162-2.368.442-.743.147-1.288.272-1.699.402.213-.11.442-.3.705-.525.623-.521 1.263-1.02 1.883-1.547 1.622-1.385.524-.316 1.774-1.332.281-.226.509-.418.744-.422m7.683.373q.056 0 .108.012v.004c.07.02.12.08.185.115.111.195.286.389.494.537.03.08.09.144.104.229.05.428-.24.74-.52 1.046-.216.233-.72.698-1.51.815-.232.03-.714.079-1.25-.131-.161-.06-.704-.278-1.062-.828-.12-.184-.304-.466-.201-.633.123-.203.53.02 1.172-.09.28-.05.314-.111 1.394-.642.697-.346.923-.434 1.086-.434m3.104 3.006c.38-.01.959.513 1.22.754.04.06.1.119.14.178a.4.4 0 0 0-.04-.08c1.448 1.36 1.996 2.97 2.447 4.17-.742-1.247-2.193-3.771-2.412-4.088.312 1.015 1.34 2.611 2.625 4.548.164.375.266.392 2.864 4.95 2.63 4.618 2.39 4.415 3.615 6.394.78 1.266 1.227 1.916 1.53 2.383.01.02.03.048.04.068a5.7 5.7 0 0 1 .627 1.221c.372.977 1.013 1.84 1.459 2.785.155.332.347.75.711.83.276.06.497-.106 1.51-.726.825-.507 1.02-.596 1.166-.516.23.129.234.638.12 1.008-.145.492-.485.729-1.583 1.535-1.416 1.038-1.328.992-1.52 1.105-.626.365-.56.22-2.164.938-.779.348-1.054.504-1.549.514-.1.006-1.1.02-1.255-.43-.113-.327.273-.733.369-.836.393-.406.69-.306 1.275-.73.22-.162.392-.32.524-.489l.002-.002.002-.002.002-.002h.002q.005 0 .011-.004c.02-.02.012-.04.031-.06.05-.07.114-.14.133-.229.06-.27-.08-.521-.27-.812-.06-.168-.105-.314-.19-.504-.618-1.362-.942-2.067-1.37-2.66-.92-2.021-2.856-5.833-5.416-10.588-.347-.645-.97-1.786-1.795-3.362-1.314-2.516-1.097-2.201-1.316-2.558l-.08-.12c-.57-1.107-.857-1.659-1.074-1.949-.152-.202-.273-.351-.395-.507a4.5 4.5 0 0 1-.285-.993c-.05-.308-.129-.926.144-1.09l-.004-.005a.3.3 0 0 1 .149-.04zm-8.479 2.027a1 1 0 0 1 .342.073c.141.06.357.189.733.738.703 1.038.677 1.69 1.1 2.838.29.79.721 1.533 1.585 3.017.605 1.04.891 1.421.732 1.666-.2.297-.841.01-2.587-.209-1.912-.237-1.913 0-2.713-.285-1.218-.436-1.708-1.167-2.3-.912-.47.202-.488.816-.905.836-.09.008-.361-.008-.846-.67-.06-.07-.081-.155-.131-.228-.07-.118-.236-.468-.412-.803a17 17 0 0 1-.322-.861c-.52-1.52-.648-1.926-.627-2.563.02-.71.203-.937.263-1.008.336-.376.836-.312 1.623-.392.797-.08 1.349-.253 2.24-.526 1.106-.339 1.646-.673 2.11-.709q.058-.003.115-.002m26.936 25.649h.004c.316-.002.647.062.8.29.21.319-.03.811-.07.891-.32.63-.875.588-1.976 1.2-1.05.585-1.185.977-2.127 1.228-.333.09-.955.246-1.203-.049-.208-.248-.072-.68-.032-.783l.006-.006c.107-.318.319-.539.655-.805.503-.394.896-.587 1.297-.802 1.33-.715 1.309-.934 1.949-1.075.08-.02.382-.079.697-.09z" style="fill:#fff;fill-opacity:1;stroke-width:.144336"/>
        <path id="path2" d="M100.474 73.068a2 2 0 0 0-.262.018l-.004.006c-.333.05-.584.17-.63.195-.15.07-.71.358-.758.826-.05.475.486.612.486 1.11 0 .577-.725.712-.758 1.361-.01.247.121.479.383.932.31.529.538.79.695.986-.08.103-.108.487.006.85.13.428.46.784.56.763.164-.033.41 1.126.534 1.301.17.813 1.323 2.266 1.188 2.87-.206.47-.776.43-2.23.82-2.873.766-3.46 1.665-4.384 1.218-.236-.113-.09-.12-1.676-1.96-.687-.803-.902-1.027-1.296-1.182-.51-.214-1.194-.252-1.633-.291-.623-.05-.698.005-.903-.104-.577-.3-.749-1.17-.707-1.754.02-.213.091-.81.551-1.316.146-.158.463-.46 2.194-.877 1.013-.245 1.52-.364 2.164-.404 1.042-.05 1.376.143 2.449-.02.676-.103 1.225-.194 1.373-.566.06-.158.02-.339-.05-.518.08-.128.123-.266.08-.385-.05-.137-.241-.202-.522-.248-.02-.02-.04-.05-.06-.07-.23-.198-.693-.49-2.337-.43-.563.02-1.652.09-3.111.487-.825.219-1.578.432-2.453.96-.41.244-.877.525-1.319 1.063a4.3 4.3 0 0 0-.802 1.547c-.195.626-.389 1.258-.184 1.955.1.337.22.457.16.68-.116.417-.752.704-1.304.673-.673-.04-.754-.521-1.647-.974-.138-.07-1.156-.577-2.385-.4-.542.08-.964.3-1.814.742-.712.368-1.267.654-1.844 1.213-.297.29-.547.654-1.053 1.38-.238.343-.24.364-.357.555-.04.05-.09.09-.13.15a7 7 0 0 0-.519.862c-.07.109-.137.237-.253.394-.67.903-1.016 1.121-.956 1.557.04.297.267.52.52.68.102.283.46.32.488.32a.68.68 0 0 0 .461-.166c.352-.104.628-.32.715-.395.354-.308.405-.582.783-1.457.41-.96.62-1.436.936-1.851.612-.808 1.361-1.197 1.683-1.36.422-.212 1.006-.502 1.795-.498.267.002.655.02 1.012.16-.079.002-.206-.013-.242-.003h-.002l-.002.002H83.1v.002h-.002v.008c.007.073.415.237.82.433.09.123.23.345.229.67 0 .44-.282.616-.477 1.047-.206.453-.162.844-.08 1.588.09.822.329 1.434.602 2.121.202.499.323.697.595 1.426.22.578.332.874.332.976.008.804-.973 1.022-2.255 2.375-.687.725-1.377 1.685-1.614 2.014-.649.9-.82 1.272-1.234 1.332-.443.07-.88-.34-1.748-1.15-.252-.234-.681-.737-1.541-1.739-.428-.494-.6-.746-.705-.99a7 7 0 0 0-.1-.488c.02-.393.174-.632.03-.928-.242-.489-1.09-.558-1.505-.598-.818-.06-.992.189-1.556-.019a2.6 2.6 0 0 1-.871-.577c-.379-.386-.387-.66-.639-.71-.322-.06-.649.326-.84.56h.006a2.1 2.1 0 0 0-.431.861c-.04.188-.1.459-.01.778.148.54.621.81.742.883.52.304.808.123 1.332.31.273.101.308.208 1.172 1.096.55.563.828.842 1.086 1.072.552.485.777.555 1.436 1.023 1.016.72.795.777 2.148 1.846 1.108.876 1.299.866 1.639 1.37.18.265.298.52.57.591a.6.6 0 0 0 .215.01c-.47.179-.725.372-.92.633-.097.126-.343.455-.293.795l3.412-1.97-.227.044c-.743.147-1.288.272-1.699.402.213-.11.442-.3.705-.525.623-.521 1.263-1.019 1.883-1.547 1.622-1.385.524-.316 1.774-1.332.322-.258.573-.47.845-.41.266.07.4.379.658 1.006l.03.07 13.187-7.613a9 9 0 0 1-.324-.428c-.663-.907-.88-1.11-.81-1.4.05-.177.17-.286.312-.395.744-.58 1.472-.869 1.982-1.096.297-.127.945-.412 1.696-.865.846-.51 1.263-.895 1.422-.767v.002c.123.1.02.467-.125.71-.234.394-.571.455-.971.721-.116.07-.16.12-1.031 1.184-.804.985-1.208 1.477-1.272 1.586a6 6 0 0 0-.185.348l6.306-3.641-.136-.166c-.666-.84-.59-1.283-1.118-1.52-.467-.216-.671.07-1.138-.115-.436-.166-.664-.571-1.196-1.935-.33-.856-.39-1.102-.545-1.555.008-.173.03-.283.01-.586a8.8 8.8 0 0 0-.443-2.033c.05-.446.1-.78-.13-1.354-.425-1.066-1.163-1.35-1.022-2.035.12-.584.719-.655.793-1.303.05-.47-.2-.946-.555-1.222a1.4 1.4 0 0 0-.848-.287zm-10.57 14.143q.06-.002.117.002v-.002c.462.02.867.273 1.037.379.244.15.597.372.576.627-.02.266-.423.286-1.074.726-.616.42-.602.631-1.207.965-.304.17-.818.446-1.084.248-.193-.145-.167-.48-.146-.71v-.005c.05-.543.32-.93.585-1.297.363-.5.535-.748.836-.86q.182-.068.36-.073m4.681 2.219q.2 0 .438.037c.513.08.796.118.959.351.255.364.04.92-.156 1.213-.255.376-.77.726-1.25.613-.216-.05-.413-.271-.79-.714-.46-.538-.686-.816-.6-1.043v-.006c.06-.18.276-.248.6-.348.08-.02.231-.06.44-.09l.002.002q.158-.016.358-.015m-2.9 2.39.002.002c.3-.02.396.394.902.918.556.577.92.582.97.94.04.326-.214.637-.452.793a1.06 1.06 0 0 1-1.23-.1c-.184-.163-.115-.255-.377-1.115-.203-.675-.327-.917-.194-1.162.01-.02.152-.266.38-.276m-2.848.63h.002c.116 0 .61-.007.897.335.25.305.194.704.13 1.158-.07.46-.116.803-.396 1.08-.43.428-1.235.508-1.795.13-.05-.04-.593-.418-.601-1.044-.002-.52.365-.864.638-1.115.212-.198.58-.54 1.125-.545" style="display:inline;fill:#000;fill-opacity:1;stroke-width:.144336"/>
        <path id="path3" d="m126.181 115.99-2.73 1.576c.22.364.357.6.412.717.656 1.403 1.185 2.225 2.24 3.875.213.33.525.816 1.064 1.319.517.478 1.012.76 1.784 1.203.992.573 1.232.602 1.763 1.064.283.243.6.516.871.97.464.768.26 1.128.739 1.804.195.277.552.789 1.062.779.227-.008.44-.134.617-.301.142-.136.266-.298.323-.478.124-.388-.1-.75-.426-1.55a5 5 0 0 0-.104-.779 4.7 4.7 0 0 0-.644-1.572 4.3 4.3 0 0 0-.975-1.084c-.04-.04-.06-.078-.103-.113-.765-.626-1.223-.409-2.002-.93-.612-.408-.911-.952-1.2-1.53-.12-.335-.231-.654-.382-1.052-.213-.563-.871-1.579-1.801-2.973-.101-.188-.21-.375-.307-.566a10 10 0 0 0-.2-.379m-8.855 5.113-6.4 3.694c.125.21.286.391.513.441.276.06.497-.106 1.51-.726.825-.507 1.02-.596 1.166-.516.23.129.234.638.12 1.008-.145.492-.485.729-1.583 1.535-1.416 1.038-1.328.992-1.52 1.105-.626.365-.56.22-2.164.938-.779.348-1.054.504-1.549.514-.1.006-1.1.02-1.255-.43-.113-.327.273-.733.369-.836.393-.406.69-.306 1.275-.73.22-.162.392-.32.524-.489l.002-.002.002-.002.002-.002h.002q.005 0 .011-.004c.02-.02.012-.04.031-.06.05-.07.114-.14.133-.229a.6.6 0 0 0 .016-.13l-6.377 3.679c.391.227.644.22 1.855.805.445.216.701.36.965.607.422.385.401.593.717.969.591.69 1.08.44 1.861 1.084.387.319.23.355 1.037 1.406.701.91 1.06 1.367 1.536 1.582.07.03.1.01.156.03.422.231.926.4 1.084.208v-.01c.136.02.197.007.394.059.825.234.801.429 1.5.604.364.09 1.172.295 2.065-.03.74-.274 1.174-.777 1.404-1.049.107-.128.322-.4.934-1.851.03-.08.02-.07.05-.147.01-.02.03-.03.05-.05.07-.124.1-.235.105-.346.233-.564.476-1.126.523-1.412.08-.538.032-1.065-.068-2.121a22 22 0 0 0-.213-1.57 43 43 0 0 0-.375-1.72 32 32 0 0 0-.316-1.306c-.01-.07-.01-.185-.04-.28-.1-.401-.26-1.05-.513-1.406-.09-.564-.022-1.018.058-1.478.12-.7.28-1.01.403-1.336m-2.256 7.698h.004c.316-.002.647.062.8.29.21.319-.03.811-.07.891-.32.63-.875.588-1.976 1.2-1.05.585-1.185.977-2.127 1.228-.333.09-.955.246-1.203-.049-.208-.248-.072-.68-.032-.783l.006-.006c.107-.318.319-.539.655-.805.503-.394.896-.587 1.297-.802 1.33-.715 1.309-.934 1.949-1.075.08-.02.382-.079.697-.09zm-19.111 4.638-1.854 1.07a46 46 0 0 0 .922 2.122c.633 1.384.99 2.918 1.865 4.164.535.765 1.303 1.659 1.012 2.424-.183.484-.643.549-.881 1.279-.05.156-.23.714.02 1.225.187.386.453.396.914.783.417.35.347.467 1.207 1.695.434.62.665.885.836 1.049v.002h.002v.006h.002v.002h.002c.138.174.61.768 1.068.633a.65.65 0 0 0 .264-.182c.175-.02.336-.06.45-.172.337-.336.135-1.016 0-1.469-.39-1.317-1.073-1.462-1.632-2.832a6 6 0 0 1-.24-.68c-.02-.134-.052-.264-.032-.413.041-.457.219-.732.072-.881-.04-.04-.114-.021-.177-.031.03-.734.246-1.114.27-1.793.03-.858-.32-1.489-.86-2.434-.03-.06-.05-.079-.08-.129-.624-1.46-1.283-2.524-1.387-2.678-.502-.74-.72-.973-1.012-1.353-.15-.24-.349-.604-.752-1.406z" style="fill:purple;fill-opacity:1;stroke-width:.144336"/>
        <path id="path4" d="m106.802 87.18-6.306 3.64-.09.172c-.04.03-.09.072-.12.092-.08.05-.236.14-.425.201l-.059-.064-13.187 7.613c.268.655.397.991.312 1.2-.156.39-.706.446-2.14.694 0 0-.836.144-2.141.397l-3.412 1.97q.004.03.012.061c.07.283.312.345.55.686.223.315.27.618.327.965.153.939.345 1.874.466 2.816.351 2.74.408 2.497.391 2.94-.02.461-.082.978.154 1.609.155.406.296.478.285.758-.02.503-.468.612-.695 1.328-.08.262-.19.585-.04.87.04.072.135.232 1.023.565.528.2.8.302 1.005.272.447-.07.912-.44.965-.862.05-.418-.34-.567-.27-1.005.02-.17.09-.192.493-.748.428-.595.455-.711.586-.721.248-.02.464.364.871 1.115.56 1.03.84 1.54.912 1.707.641 1.48.972 2.24 1.21 2.883l1.4-.807q-.216-.469-.467-.92c-.07-.12-.339-.59-.198-.736.11-.117.43.008.914.244.501.24.834.404 1.16.598l10.417-6.014c-.33-.613-.747-1.387-1.23-2.312-1.315-2.516-1.098-2.202-1.317-2.559l-.08-.12c-.57-1.107-.858-1.658-1.075-1.948-.152-.202-.272-.352-.394-.508a4.5 4.5 0 0 1-.285-.992c-.05-.308-.129-.927.144-1.09l-.004-.006c.356-.206 1.07.44 1.37.715.04.06.1.118.138.177a.4.4 0 0 0-.039-.08c1.448 1.36 1.996 2.971 2.447 4.17-.742-1.246-2.193-3.77-2.412-4.088.312 1.015 1.34 2.612 2.625 4.55.138.315.233.377 1.81 3.11l10.143-5.855v-.002c.08-.767.11-1.188.067-1.355-.09-.354-.08-.587-.09-.846.04-.22.1-.373.203-.395.22-.05.48.363.865.965.16.251.33.495.502.738l1.698-.98c-.462-.634-.832-1.085-1.323-1.549-.17-.16-.508-.512-.867-.959-.11-.203-.237-.398-.332-.611-.432-.981-1.089-1.876-1.369-2.91-.12-.446-.266-1.127-.846-1.598-.134-.106-.623-.508-1.129-.352-.446.138-.638.622-.7.79-.217.552-.072.99-.042 1.41.07.833-.316 1.043-.865 2.51-.754 2.018-.53 2.998-1.209 3.242-.471.17-1.014-.142-1.12-.203-.506-.29-.714-.762-.876-1.11-.376-.79-.909-1.535-1.977-3.023a36 36 0 0 1-.607-.868 3 3 0 0 0-.262-.498c-.105-.219-.217-.427-.248-.699-.01-.11-.04-.49.07-.96.15-.65.43-.91 1.084-1.862.227-.33.605-.88 1.012-1.588.552-.955.67-1.343 1.162-1.598.422-.217.83-.185.975-.175.3.02.853.139 1.93 1.203.53.527.525.629 1.156 1.338 1.038 1.168 1.556 1.75 2.271 1.923.61.15.754-.079 1.625.147.403.102.88.29 1.254.436.814.31.914.407 1.127.347.491-.132.804-.85.783-1.453-.02-.514-.29-1.1-.767-1.334-.315-.16-.502-.049-1.412-.039-.672.01-1.007.004-1.244-.05-.185-.233-.357-.532-.717-.882-.254-.25-.437-.326-.643-.416a4.6 4.6 0 0 0-.752-.732c-.47-.365-.956-.619-1.65-.979-.28-.147-.36-.198-.524-.275-.02-.01-.02-.02-.04-.03-.206-.121-.328-.167-.487-.243-.08-.04-.182-.08-.275-.147a5.6 5.6 0 0 1-1.155-1.012zm-8.418 6.935a.4.4 0 0 1 .13.01h.003c.326.08.452.57.586 1.103.1.4.19.746.092 1.178-.134.595-.525.954-.805 1.21-.422.388-.853.787-1.363.68-.62-.127-.875-.895-.914-1.023-.05-.15-.203-.62.02-.97.06-.1.177-.176.4-.336.44-.312.527-.284.693-.457.252-.266.12-.431.348-.787.168-.262.504-.585.81-.608M93.51 98.12q.056 0 .108.012v.004c.07.02.12.08.185.115.111.195.286.389.494.537.03.08.09.144.104.229.05.428-.24.74-.52 1.046-.216.233-.72.698-1.51.815-.232.03-.714.079-1.25-.131-.161-.06-.704-.278-1.062-.828-.12-.184-.304-.466-.201-.633.123-.203.53.02 1.172-.09.28-.05.314-.111 1.394-.642.697-.346.923-.434 1.086-.434m-5.375 5.033a1 1 0 0 1 .342.073c.141.06.357.189.733.738.703 1.038.677 1.69 1.1 2.838.29.79.721 1.533 1.585 3.017.605 1.04.891 1.421.732 1.666-.2.297-.841.01-2.587-.209-1.912-.237-1.913 0-2.713-.285-1.218-.436-1.708-1.167-2.3-.912-.47.202-.488.816-.905.836-.09.008-.361-.008-.846-.67-.06-.07-.081-.155-.131-.228-.07-.118-.236-.468-.412-.803a17 17 0 0 1-.322-.861c-.52-1.52-.648-1.926-.627-2.563.02-.71.203-.937.263-1.008.336-.376.836-.312 1.623-.392.797-.08 1.349-.253 2.24-.526 1.106-.339 1.646-.673 2.11-.709q.058-.003.115-.002" style="fill:#a3a3a3;fill-opacity:1;stroke-width:.144336"/>
    </g>
</svg>
