<svg xmlns="http://www.w3.org/2000/svg" xml:space="preserve" id="svg5" width="88.338" height="100" version="1.1">
    <g id="whiteQueen" style="display:inline;fill:#000;fill-opacity:1" transform="translate(-57.646 -60.29)">
        <path id="path143" d="M101.716 65.294a10.383 10.205 89.999 0 0-4.768 1.38c-.78.459-30.074 17.41-30.94 18.12a10.398 10.22 89.999 0 0-3.82 8.135c.006.99-.293 35.028.016 36.515a10.428 10.25 89.999 0 0 4.851 6.848c.737.437 29.868 17.964 31.173 18.424a10.383 10.205 89.999 0 0 5.771.274 10.277 10.101 89.999 0 0 2.672-1.083c.778-.457 30.078-17.414 30.934-18.112a10.428 10.25 89.999 0 0 3.352-4.95 10.58 10.398 89.999 0 0 .485-3.201c-.005-.995.297-35.028-.02-36.535a10.353 10.175 89.999 0 0-2.745-5.153 10.58 10.398 89.999 0 0-2.099-1.66c-.732-.435-29.878-17.971-31.173-18.427a10.383 10.205 89.999 0 0-3.69-.575" style="display:inline;fill:#5bcefa;fill-opacity:1;fill-rule:nonzero;stroke:none;stroke-width:1.49834"/>
        <path id="path139" d="m117.938 73.146-55.83 32.233c-.056 10.226-.092 23.16.096 24.065a10.428 10.25 89.999 0 0 4.851 6.848c.424.252 10.256 6.165 18.774 11.227h.001l55.691-32.153c.057-10.255.094-23.336-.1-24.257a10.353 10.175 89.999 0 0-2.744-5.153 10.58 10.398 89.999 0 0-2.099-1.66c-.42-.25-10.152-6.104-18.64-11.15" style="display:inline;fill:#f5a9b8;fill-opacity:1;fill-rule:nonzero;stroke:none;stroke-width:1.49834"/>
        <path id="path140" d="m133.776 82.614-71.7 41.396c.017 3.01.056 5.09.128 5.434a10.428 10.25 89.999 0 0 4.851 6.848l2.936 1.76 71.564-41.318c-.019-3.109-.059-5.27-.134-5.625a10.353 10.175 89.999 0 0-2.744-5.153 10.58 10.398 89.999 0 0-2.099-1.66z" style="display:inline;fill:#fff;fill-opacity:1;fill-rule:nonzero;stroke:none;stroke-width:1.49834"/>
        <path id="path73" fill="url(#J)" d="m119.441 117.833-1.688-2.074q-.51-.07-1.6-.844l-1.844-1.494q-.404.932-.616 1.512-1.335 3.305-3.813 5.15-1.195.879-2.654 1.423-2.918 1.125-6.328.74l-1.774-.459q-.457-.246-.475-.457 0 .74.193 1.213.14.72.228 1.336.054.492.089.897l.034.42q.036.827-.069 1.196l.949 2.55.087 2.16q.281 2.443 1.213 4.236 1.494 3.005 1.406 3.85l.475.65.194.193-.281.193.192.194-.386.475.018.016.175.229-.299.967.3.211-.388.264.036.017.439.176-.562.37-.071.474-.493.58.107.176.457-.176.386-.493.089.334v.054l.579.192.175-1.335.827-.545-.545-.58.545-1.125-.439-.475-.3-.28.37-.388-.07-1.037-.862-1.581q-.668-1.213-.826-2.268.123-.37.141-.756.017-.439-.088-.914-.264-1.282-1.39-3.023-.297-1.23-.386-2.548l.247.493.333.65.176.175q.686 1.16 1.512 2.127 2.126 2.532 5.273 3.62 4.236 1.582 7.821-.474 3.568-2.074 4.219-6.59.228-1.407.156-2.796-.14-2.285-1.124-4.552-.316-.702-.72-1.405v-.106l.932.755q.087.123.158.265.052.07.105.158.105.175.194.333.51.844 1.037 1.442 1.001 1.142 1.986 1.3.633.493 1.23 1.3.21.282.386.581l.827 1.3.86.3.088.474.475-.088.37.914 1.23.105.176.773 1.036-.492 1.125.493.088-.58-.264-.3.65-.086.388-.3-.194-.157-.668.156-.457-.156h-.105l-.457.28.105-.474-.493.105v-.28h-.386l-.633-.106-.193-.475-.562.193v-.299l-.317.194-.07.017-.37-1.036q-.333-.141-.966-.88-.28-.369-.65-.825l-1.018-1.407-.23-.333q-.633-.862-1.529-1.653-.65-.58-1.442-1.124l-1.388-.88q-.052-.088-.264-.157l-.105-.072zm-.739 2.25q.37.808.704 1.758.123.333.228.702l-.193.562q-2.056 8.947-9.034 9.14l-6.573-1.704-1.6-2.269-.175-.315q-1.108-2.022-1.618-4.113l.686.72 2.513 2.584q3.674 2.074 6.38-3.568l4.06-.58q2.128-.861 2.302-2.918.036-.51-.034-1.09-.158-1.106-.756-2.46l-.474-1.142.755.668.141.14q.616.633 1.195 1.389.493.65.932 1.37.28.527.562 1.125m4.78-44.994q-.615-.86-1.651-1.248-1.003-.351-3.569 1.038-2.548 1.353-5.307 6.45l-2.268 9.034q-2.231 8.63-2.882 10.669-.65 1.986-.72 2.214-.089.229-.07.087-.634-.615-1.39-1.072-.298-.192-.579-.333.017-.088.034-.158.14-.722-.034-1.16v-.106q0-.597-.088-1.195 0-.686.034-1.143.054-.526.141-.738-.052-.386-.14-.738-.193-.756-.51-1.353.106-.598.159-1.143.034-.703-.018-1.37-.123-1.459-.791-2.655-.299-.58-.475-1.23-.403-1.177-.403-1.687 0-.088.017-.158v-.036q-.563-.37-.563-.562l.28-.194-.174-.174.439-.37.018-.018-.281-.263.018-.018.457-.844-.3-.087.387-.299-.386-.089.492-.28.175-.458.475-.491-.088-.176-.844.667-.087-.263-.018-.018-.457-.105-.281 1.02-.862.58.493.474-.335.474-.351.457.563.564-.264.386.264.193-.264.756.65 1.124.492 1.776-.105 1.037q0 1.318.932 2.83l.087 1.23q0 .967-.123 1.758-.07.351-.158.667l.21 1.054.176.827v.21l-.473 1.02-.388-.088q0-.932-.37-1.617-.016-.035-.033-.053-1.16-1.792-3.692-1.635-.158 0-.316.019l-1.124-4.131.034-1.371.07-4.868q-.017 0-.017.017-.37.176-.475 2.918v1.389q-.035.052 0 .351v1.072q-.14.158.721 3.321.193.651.404 1.39-1.02.088-2.724.931-1.037.65-1.968 1.616-.282-.28-.545-.526l-.65-.669q-1.636-1.6-2.04-1.915-.104-.087-.14-.087-.14-.07-.264-.141l-1.74-.932q-.229-.124-.474-.247-1.494-.79-2.198-1.001-.491-.14-.597-.035l5.449 2.918 2.355 2.442.562.581q-.018.034-.034.053-.827 1.124-1.055 2.09-.316 1.301.422 2.356.052.088.105.193.158.281.44.51.316.28.79.51l-.21.474-1.301-.088-1.705-1.406q-1.037-.193-2.25-.949l-1.054-.739q-.053-.104-.123-.227-.141-.247-.3-.457-.702-.985-1.528-1.494l-.949-.387-.229-.228-1.09-1.09-.667-1.125-.756-.07-.089-.018v-.474l-.37.193-.033-.124-.264-.65-.035.035-1.09.089-.176-.65-.966.438-.985-.263h-.017v.018l-.211.457.299.263-.58.105-.457.282.175.193.563-.193h.475l.562-.28-.07.473.369-.193v.28h.263l.668-.087.088.387.563-.21v.297l.386-.175q.176.175.281.72v.019q.194.069.44.28.474.44 1.23 1.424.247.28.493.65.263.386.58.74 1.37 1.545 3.655 2.354.194.299.493.633l.034.034q.405.405.985.827.65.123 2.812 1.512.386.49 1.423.755v1.037l.176.844-21.267-5.537q-5.817.088-9.12 2.074l-2.146 2.074q.37 2.25 1.899 3.937 1.3 1.476 3.462 2.548 2.162 1.09 4.341 1.389.088 0 .158.018-.316.176-.28.773.052.932.843 1.758l.035.034q1.107 1.09 3.638 1.951 2.25.65 4.517.932.721.194 6.046-2.11l.158.527q.018.124.053.23l.07.21q.053.142.123.23.176.298.44.525.844.651 2.707.3.493.07 4.358-2.83 1.108-.843 2.513-1.933.37-.28.757-.597l.192.193q-.615.616-.86 1.336-.07.263-.106.544-.088.229-.157.457-.897 2.514-1.425 3.024l-.457 2.723-.967 1.882q-1.037 2.266-1.037 4.34-.21 2.601-.526 3.62-.018.019-.018.037-.106.228-.21.37.297.772.21 1.052h-.387l.088.264-.545.211.088.457-.844.58.176.265-.475.105.388.386h-.58l-.158.14-.229.229-.246.123-.387.141v.28h.474l.546-.175-.089.387.386.37.74-.932.017-.018 1.037-.193-.21-.74 1.053-.667-.176-1.036.44-.088-.264-.474.65-.669v-1.705q.09-1.389.475-2.32 1.283-1.124 1.142-4.64-.017-.087-.017-.193 0-.018.017-.035.194-.632.563-1.354.668-1.704 1.406-2.618l.65-2.373v-.193q.352-.316.598-.563.704-.685.633-.756l-.493-.913q.036.017.089.034 1.581.704 3.797.405 2.266-.28 4.516-1.581 2.443-1.424 3.849-3.48 1.318-1.986 1.23-3.762l.826 1.319q.018.034.158.052.334.017 1.635-.44h.211l2.356.65q1.88-.35 4.499.3 3.093 1.88 4.693 1.318 1.053.175 2.371.826l1.302.773.967-.28.263.474.37-.387.754.65 1.126-.545.58.545.668-.844.298-.034h.018l.896-.142v-.016l-.176-.563-.403-.088.492-.37.175-.386-.123-.124-.052-.052-.58.475-.476.176-.263.475-.194-.475-.37.37-.103-.283-.387.089-.545.386-.387-.386-.457.386-.21-.193-.176.28-.844-.65q-.175.019-.475-.017-.526-.123-1.423-.51-.123-.07-.265-.123l-1.704-.668-.175-.105q-1.74-.949-4.06-1.108l-2.162-.105-.141-.07q-.493-.282-1.125-.527-.194-.07-.403-.176l-.88-.158-3.85-.281q-.615-.246-1.37-.228-.21 0-.44.034-.228.035-.456.105h-.07l-.211-.474q.158-.053.315-.124l.071-.033q1.02-.423 1.899-.792 6.59-2.795 6.765-3.304 1.671-.844 1.6-2.18-.088-1.353-.492-1.898-.421-.562-.403-.58 3.919-3.04 3.99-3.62.843-2.074 1.317-4.43.457-2.073.317-3.444-.089-.896-.44-1.494-.299-.563-.808-.879-.053-.035-.123-.053-.282-.14-.72-.053.263-.702.491-1.458.386-1.546.44-3.234.07-.914.017-1.723-.158-2.636-1.529-4.517m-4.886 18.28-.457 1.317q-.457 1.09-1.09 2.198-1.318 2.372-3.445 4.85-1.652 1.933-3.761 3.955l4.236-5.976 2.671-3.761zm-10.721 11.565-.194.966q-5.448-.298-9.596 3.569l-3.005 3.849-.95-.563q-.403-1.177-.228-2.408.123-1.037.685-2.109 1.125-2.442 3.69-3.954 2.62-1.494 5.362-1.318 2.32.158 3.779 1.494.246.21.457.474m-26.82 11.6-1.301-.212 14.956-1.582q-2.548.756-5.062 1.213-2.408.421-4.745.58z" style="display:inline;fill:#000;fill-opacity:1;stroke:#9a9a9a;stroke-width:2;stroke-linecap:round;stroke-linejoin:round;stroke-dasharray:none;stroke-opacity:1"/>
        <path id="path87" fill="url(#J)" d="m119.441 117.833-1.688-2.074q-.51-.07-1.6-.844l-1.844-1.494q-.404.932-.616 1.512-1.335 3.305-3.813 5.15-1.195.879-2.654 1.423-2.918 1.125-6.328.74l-1.774-.459q-.457-.246-.475-.457 0 .74.193 1.213.14.72.228 1.336.054.492.089.897l.034.42q.036.827-.069 1.196l.949 2.55.087 2.16q.281 2.443 1.213 4.236 1.494 3.005 1.406 3.85l.475.65.194.193-.281.193.192.194-.386.475.018.016.175.229-.299.967.3.211-.388.264.036.017.439.176-.562.37-.071.474-.493.58.107.176.457-.176.386-.493.089.334v.054l.579.192.175-1.335.827-.545-.545-.58.545-1.125-.439-.475-.3-.28.37-.388-.07-1.037-.862-1.581q-.668-1.213-.826-2.268.123-.37.141-.756.017-.439-.088-.914-.264-1.282-1.39-3.023-.297-1.23-.386-2.548l.247.493.333.65.176.175q.686 1.16 1.512 2.127 2.126 2.532 5.273 3.62 4.236 1.582 7.821-.474 3.568-2.074 4.219-6.59.228-1.407.156-2.796-.14-2.285-1.124-4.552-.316-.702-.72-1.405v-.106l.932.755q.087.123.158.265.052.07.105.158.105.175.194.333.51.844 1.037 1.442 1.001 1.142 1.986 1.3.633.493 1.23 1.3.21.282.386.581l.827 1.3.86.3.088.474.475-.088.37.914 1.23.105.176.773 1.036-.492 1.125.493.088-.58-.264-.3.65-.086.388-.3-.194-.157-.668.156-.457-.156h-.105l-.457.28.105-.474-.493.105v-.28h-.386l-.633-.106-.193-.475-.562.193v-.299l-.317.194-.07.017-.37-1.036q-.333-.141-.966-.88-.28-.369-.65-.825l-1.018-1.407-.23-.333q-.633-.862-1.529-1.653-.65-.58-1.442-1.124l-1.388-.88q-.052-.088-.264-.157l-.105-.072zm-.739 2.25q.37.808.704 1.758.123.333.228.702l-.193.562q-2.056 8.947-9.034 9.14l-6.573-1.704-1.6-2.269-.175-.315q-1.108-2.022-1.618-4.113l.686.72 2.513 2.584q3.674 2.074 6.38-3.568l4.06-.58q2.128-.861 2.302-2.918.036-.51-.034-1.09-.158-1.106-.756-2.46l-.474-1.142.755.668.141.14q.616.633 1.195 1.389.493.65.932 1.37.28.527.562 1.125m4.78-44.994q-.615-.86-1.651-1.248-1.003-.351-3.569 1.038-2.548 1.353-5.307 6.45l-2.268 9.034q-2.231 8.63-2.882 10.669-.65 1.986-.72 2.214-.089.229-.07.087-.634-.615-1.39-1.072-.298-.192-.579-.333.017-.088.034-.158.14-.722-.034-1.16v-.106q0-.597-.088-1.195 0-.686.034-1.143.054-.526.141-.738-.052-.386-.14-.738-.193-.756-.51-1.353.106-.598.159-1.143.034-.703-.018-1.37-.123-1.459-.791-2.655-.299-.58-.475-1.23-.403-1.177-.403-1.687 0-.088.017-.158v-.036q-.563-.37-.563-.562l.28-.194-.174-.174.439-.37.018-.018-.281-.263.018-.018.457-.844-.3-.087.387-.299-.386-.089.492-.28.175-.458.475-.491-.088-.176-.844.667-.087-.263-.018-.018-.457-.105-.281 1.02-.862.58.493.474-.335.474-.351.457.563.564-.264.386.264.193-.264.756.65 1.124.492 1.776-.105 1.037q0 1.318.932 2.83l.087 1.23q0 .967-.123 1.758-.07.351-.158.667l.21 1.054.176.827v.21l-.473 1.02-.388-.088q0-.932-.37-1.617-.016-.035-.033-.053-1.16-1.792-3.692-1.635-.158 0-.316.019l-1.124-4.131.034-1.371.07-4.868q-.017 0-.017.017-.37.176-.475 2.918v1.389q-.035.052 0 .351v1.072q-.14.158.721 3.321.193.651.404 1.39-1.02.088-2.724.931-1.037.65-1.968 1.616-.282-.28-.545-.526l-.65-.669q-1.636-1.6-2.04-1.915-.104-.087-.14-.087-.14-.07-.264-.141l-1.74-.932q-.229-.124-.474-.247-1.494-.79-2.198-1.001-.491-.14-.597-.035l5.449 2.918 2.355 2.442.562.581q-.018.034-.034.053-.827 1.124-1.055 2.09-.316 1.301.422 2.356.052.088.105.193.158.281.44.51.316.28.79.51l-.21.474-1.301-.088-1.705-1.406q-1.037-.193-2.25-.949l-1.054-.739q-.053-.104-.123-.227-.141-.247-.3-.457-.702-.985-1.528-1.494l-.949-.387-.229-.228-1.09-1.09-.667-1.125-.756-.07-.089-.018v-.474l-.37.193-.033-.124-.264-.65-.035.035-1.09.089-.176-.65-.966.438-.985-.263h-.017v.018l-.211.457.299.263-.58.105-.457.282.175.193.563-.193h.475l.562-.28-.07.473.369-.193v.28h.263l.668-.087.088.387.563-.21v.297l.386-.175q.176.175.281.72v.019q.194.069.44.28.474.44 1.23 1.424.247.28.493.65.263.386.58.74 1.37 1.545 3.655 2.354.194.299.493.633l.034.034q.405.405.985.827.65.123 2.812 1.512.386.49 1.423.755v1.037l.176.844-21.267-5.537q-5.817.088-9.12 2.074l-2.146 2.074q.37 2.25 1.899 3.937 1.3 1.476 3.462 2.548 2.162 1.09 4.341 1.389.088 0 .158.018-.316.176-.28.773.052.932.843 1.758l.035.034q1.107 1.09 3.638 1.951 2.25.65 4.517.932.721.194 6.046-2.11l.158.527q.018.124.053.23l.07.21q.053.142.123.23.176.298.44.525.844.651 2.707.3.493.07 4.358-2.83 1.108-.843 2.513-1.933.37-.28.757-.597l.192.193q-.615.616-.86 1.336-.07.263-.106.544-.088.229-.157.457-.897 2.514-1.425 3.024l-.457 2.723-.967 1.882q-1.037 2.266-1.037 4.34-.21 2.601-.526 3.62-.018.019-.018.037-.106.228-.21.37.297.772.21 1.052h-.387l.088.264-.545.211.088.457-.844.58.176.265-.475.105.388.386h-.58l-.158.14-.229.229-.246.123-.387.141v.28h.474l.546-.175-.089.387.386.37.74-.932.017-.018 1.037-.193-.21-.74 1.053-.667-.176-1.036.44-.088-.264-.474.65-.669v-1.705q.09-1.389.475-2.32 1.283-1.124 1.142-4.64-.017-.087-.017-.193 0-.018.017-.035.194-.632.563-1.354.668-1.704 1.406-2.618l.65-2.373v-.193q.352-.316.598-.563.704-.685.633-.756l-.493-.913q.036.017.089.034 1.581.704 3.797.405 2.266-.28 4.516-1.581 2.443-1.424 3.849-3.48 1.318-1.986 1.23-3.762l.826 1.319q.018.034.158.052.334.017 1.635-.44h.211l2.356.65q1.88-.35 4.499.3 3.093 1.88 4.693 1.318 1.053.175 2.371.826l1.302.773.967-.28.263.474.37-.387.754.65 1.126-.545.58.545.668-.844.298-.034h.018l.896-.142v-.016l-.176-.563-.403-.088.492-.37.175-.386-.123-.124-.052-.052-.58.475-.476.176-.263.475-.194-.475-.37.37-.103-.283-.387.089-.545.386-.387-.386-.457.386-.21-.193-.176.28-.844-.65q-.175.019-.475-.017-.526-.123-1.423-.51-.123-.07-.265-.123l-1.704-.668-.175-.105q-1.74-.949-4.06-1.108l-2.162-.105-.141-.07q-.493-.282-1.125-.527-.194-.07-.403-.176l-.88-.158-3.85-.281q-.615-.246-1.37-.228-.21 0-.44.034-.228.035-.456.105h-.07l-.211-.474q.158-.053.315-.124l.071-.033q1.02-.423 1.899-.792 6.59-2.795 6.765-3.304 1.671-.844 1.6-2.18-.088-1.353-.492-1.898-.421-.562-.403-.58 3.919-3.04 3.99-3.62.843-2.074 1.317-4.43.457-2.073.317-3.444-.089-.896-.44-1.494-.299-.563-.808-.879-.053-.035-.123-.053-.282-.14-.72-.053.263-.702.491-1.458.386-1.546.44-3.234.07-.914.017-1.723-.158-2.636-1.529-4.517m-4.886 18.28-.457 1.317q-.457 1.09-1.09 2.198-1.318 2.372-3.445 4.85-1.652 1.933-3.761 3.955l4.236-5.976 2.671-3.761zm-10.721 11.565-.194.966q-5.448-.298-9.596 3.569l-3.005 3.849-.95-.563q-.403-1.177-.228-2.408.123-1.037.685-2.109 1.125-2.442 3.69-3.954 2.62-1.494 5.362-1.318 2.32.158 3.779 1.494.246.21.457.474m-26.82 11.6-1.301-.212 14.956-1.582q-2.548.756-5.062 1.213-2.408.421-4.745.58z" style="display:inline;fill:#000;fill-opacity:1;stroke:none;stroke-width:2;stroke-linecap:round;stroke-linejoin:round;stroke-dasharray:none;stroke-opacity:1"/>
    </g>
</svg>
