<svg xmlns="http://www.w3.org/2000/svg" xml:space="preserve" width="88.338" height="104.242" preserveAspectRatio="none">
    <defs>
        <radialGradient id="a" cx="0" cy="0" r="127.25" fx="0" fy="0" gradientTransform="translate(34.288 54.104)scale(.31383)" gradientUnits="userSpaceOnUse" spreadMethod="pad">
            <stop offset="0%" stop-color="#D14151"/>
            <stop offset="42.745%" stop-color="#D13446"/>
            <stop offset="100%" stop-color="#B32F3F"/>
        </radialGradient>
        <radialGradient id="c" cx="0" cy="0" r="148.188" fx="0" fy="0" gradientTransform="translate(53.588 54.889)scale(.31383)" gradientUnits="userSpaceOnUse" spreadMethod="pad">
            <stop offset="0%" stop-color="#D14151"/>
            <stop offset="42.745%" stop-color="#D13446"/>
            <stop offset="100%" stop-color="#B32F3F"/>
        </radialGradient>
        <linearGradient id="b" x1="94.85" x2="20.55" y1="149.337" y2="106.563" gradientTransform="translate(8.9 -10.686)scale(.31383)" gradientUnits="userSpaceOnUse" spreadMethod="pad">
            <stop offset="0%" stop-color="#C73B4B"/>
            <stop offset="100%" stop-color="#B62133"/>
        </linearGradient>
    </defs>
    <path fill="#241a1a" d="M64.698 63.707q.063 1.444.832 2.464t1.82.988q.408-.016.769-.172.313-.157.58-.424l-.25-1.381q-.597.58-1.35.596-1.052.032-1.82-.988-.377-.487-.581-1.083m-6.936 12.192-.69-1.177-.628.377 1.318 2.385zm-11.768 3.438q.33-.173.612-.471.188-.204.33-.44.439-.753.297-1.773-.062-.439-.22-.863-.015.989-.658 1.695-.283.298-.612.47zm-8.724 1.616q-.11.172-.517.58-.832.754-.863 1.726-.047 1.005-1.444-.172l-.251.753q.063.47.251 1.38l.156-1.223q.282.314.533.533 1.067.88 1.538-.125-.141-.22-.172-.424-.095-.533.502-1.067.408-.408.894-.659-.486-.737.58-1.726.503-.486 1.068-.816l-.487-.33q-.188-.093-.518-.517-.156.125-.706.769-.549.627-.565 1.318m.88-5.116.658.738 2.48 1.57-.55-1.9-1.27-.91zm-1.161-27.585q-.126-.267-.235-.533v.517q.157.738.486 1.397.91 1.977 4.127 2.385 1.647.173 3.044 0L57.104 74.77v-1.631L44.017 49.787q-.202.165-.345.472-.146.322.03.69-2.305.376-4.126-.628-1.914-.612-2.589-2.07m10.23 16.663v-.047q-.03-.36-.14-.737-.048-.173-.11-.33-.032.8-.502 1.46-.11.156-.236.282-.063.078-.141.141-.706.644-1.852.706-1.176.063-2.26-.518-.187-.094-.36-.204-.126-.078-.235-.156-.377-.267-.675-.581-.22-.22-.392-.44-.361-.486-.565-1.05-.016.266.031.548.031.236.11.503.204.753.675 1.38.172.22.392.44.298.314.675.58.11.079.235.157.173.11.36.204 1.084.58 2.26.518 1.146-.063 1.852-.706.079-.063.141-.141.126-.126.236-.283.549-.769.502-1.726m6.967-8.128q0 .11.015.22l.063.408q.173 1.192.926 2.102.094.11.188.204.298.314.644.534.376.235.8.33.11.015.188.015.188.032.377.032.282 0 .549-.063.031-.016.078-.016.55-.141 1.02-.533l.032-.032q.266-.22.502-.533.8-1.052.831-2.495v-.283q-.015-.8-.25-1.49v.392q-.032 1.444-.832 2.495-.236.314-.502.533l-.032.032q-.47.392-1.02.533-.047 0-.078.016-.267.063-.55.063-.188 0-.376-.032-.078 0-.188-.015-.424-.095-.8-.33-.346-.22-.644-.533-.094-.095-.188-.204-.502-.612-.753-1.35" style="stroke-width:.313827"/>
    <path fill="#100d0d" d="M79.809 58.953q0-.299-.346-.393l-1.475-.25q.581 1.788-.376 1.568-.33-.753-1.49-.502l-.864.157q-.549-.22-1.851-.157l-.597.236q-.266.094-.314.062-.533-.91-.988-1.945l-1.648-2.888-1.773-.313q.126.674.22 1.365l1.804.33 1.648 2.886q.204.456.33.785l.03.063v.016q.22.58.22.784v.58l1.319-.58q1.02-.235 1.475.094.157.11.25.314l.99-.408q.752-.157 1.16.094.22.141.33.408 1.004.126.91-1.098-.031-.377-.173-.879l1.162.487q.188.172.266.36zM12.414 35.149l-1.38.172-.503 1.68-1.631.235v.863l2.15.33.235-1.727h1.412q.737-.988 2.793-.831.173.031.36.062l.44.095q.565.125 1.099.266l5.601 6.59 1.067-.25-.25-.738 1.412-.172.156.078q-.313-.675-.486-1.444l-1.334.157v.487l-.816.502-5.602-6.59q-.91-.252-1.898-.424-2.056-.157-2.825.659m12.71-2.4-.58 2.4q-.314 2.37.188 4.174-.141-1.287.063-2.793l.58-2.401q.252-1.051 1.428-1.789.267-.173.455-.251-.486-.565-.753-1.098-1.13.721-1.38 1.757m23.724-13.901-.063-.032-1.004.66 1.318.752q1.067 3.186 1.506 4.99.173-2.275-1.145-5.382l-.267.031q-.173-.486-.345-1.02m-2.385-.423.25 1.38q.33-1.082.66-1.882.91-1.899 2.055-1.977l.753-1.161 1.648.659.816-2.056.33 1.397.659-.408-.252-1.381-.47-.393h-.534l-.8.958h-1.553l-.848 1.004q-1.145.078-2.055 1.977-.408.988-.66 1.883m-10.7-3.029q.266-.564.988-.11.235.173.643.707 0-1.412-.847-1.82-.644-.283-.832-.063-.204.204-.078.722zM31.37 33.832q-.267.659-1.209 1.16l-.988 1.727q-.753.251-1.49.502-1.476.66-1.57 1.146-.204-.048-.33-.346.063.408.142.958.11.69.439.768.094-.486 1.57-1.145.737-.251 1.49-.502l.988-1.726q1.758-.926 1.146-2.48zm28.558 2.809-.189-.346-2.479-1.49-.91-.157.173.659q8.834 5.147 11.376 18.186-1.836-11.125-7.971-16.852m1.93 6.778q-.032-.69-.251-1.27 0 1.302-.738 2.259-.11.14-.204.266-.267.267-.549.456-.078.047-.141.094-.44.22-.957.235-.33.016-.628-.063-.706-.188-1.271-.863-.392-.455-.596-1.004v.047q.031 1.365.847 2.338.565.675 1.271.863.298.079.628.063.518-.016.957-.236.063-.047.141-.094.283-.188.55-.455.093-.125.203-.266.77-.989.738-2.37" style="stroke-width:.313827"/>
    <path fill="#151111" d="M24.967 52.268q-.11 1.161.252 2.762.266 1.24.815 2.73-.156-.675-.25-1.35-.016-.046-.016-.078v-.016q-.016-.047-.016-.094v-.031q-.047-.126-.047-.283-.016-.047-.016-.094h.016l-.016-.015q-.047-.377-.078-.77-.094-1.129-.063-2.259Zm11.454 20.713-.314.957.236 1.318.659-1.805q-.298-.235-.58-.47m9.477-23.098.235 1.24q1.02-1.413 1.57-2.637 1.098-2.463.439-4.064-.016 1.177-.69 2.684-.032.062-.048.125-.252.578-.643 1.318-.375.74-.863 1.334m-6.355-6.512-.393-.47q-.36 1.066-1.506 2.965l.251 1.38q1.742-2.933 1.648-3.875m-5.178 18.422q.816-.863.627-2.228-.063-.44-.22-.832-.015.988-.658 1.679-.816.863-2.166.753-1.365-.11-2.448-1.145-.298-.267-.518-.565-.062-.063-.094-.126-.266-.376-.423-.769l-.016.361q0 .063.016.126.047.282.125.549.173.58.55 1.114.03.063.094.126.22.298.517.564 1.083 1.036 2.448 1.146 1.35.11 2.166-.753M14.752 50.636q-.423.298-.266.77l.22 1.207q-.048-.33.25-.565.016-.015.047-.031.346-.173.785-.204.173-.031.36-.031-.062.235-.109.439-.078.377-.047.659.047.91.989.957.062-.141.156-.235.393-.408 1.319-.016.282.141.564.345.22.142.424.314.079-.157.22-.235.44-.267 1.506.235.47.204.863.44.236.14.455.298v-.565q-.078-.33.502-1.49l1.475-2.559h1.24q.251-1.318.58-2.542l.33-.91.33-.172v-.079l2.887-1.145q1.726.737 5.35 0l.408-.173q.864-.596 1.381-.816l.016-.063q.424-.753.424-1.16v-.048q-.722.204-1.726.518-.063.016-.11.031-1.475.424-2.715.644-2.29.423-3.766.157H29q-.502.125-1.051.188l-1.255.486v.079l-.33.172-.33.91q-.329 1.225-.58 2.543h-1.24q-.345-.11-.847.486-1.648 2.62-1.287 4.017-.533-.33-1.302-.518-.91-.22-1.57-.282-.36.031-1.145-.283-.8-.33-1.333.047.345-1.647-.848-1.914-.643-.141-1.13.094m46.227-20.932q.157-1.24.894-1.161.456-.848-.376-1.381-.628.031-.769 1.161-.094.565-.298.879-.455.188-.706 1.757-.079.816-.487 1.052v.172q-.25-.157-1.49-.33l-3.044-.078-.581 1.067q-1.318-.486-2.464-.816l-.988-.172-.33.172-2.134 1.507-.25.282q-.126.33-.299.675-1.02 2.008-3.829 4.676l-.14.141q-.424.408-.77.753-.737.706-1.13 1.13-.439.44-.502.534l.157.58q.832.58 4.206.58l.408.409q.89 1.08 1.082 1.663.051.155.079.251-.007-.72-.283-1.49-.282-.754-1.004-1.664l-.125-.078q-.565-.182-1.224-.173-.832 0-1.24-.157-.173-.094-.173-.22 0-.376 1.318-1.035l.503-.236.33-.235q2.557-2.887 2.714-4.707l2.557-1.805.33-.173.988.173q1.146.33 2.464.816l.58-1.067 3.045.078q1.24.173 1.49.33l.455.314h.032q-.079-.785 0-1.538.25-1.569 1.004-1.49-.094-.581 0-1.146" style="stroke-width:.313827"/>
    <path fill="#080606" d="m47.924 26.942-.8.879q-1.318-1.899-4.206-3.123l-2.542-.91q-.753-.172-2.244.77-.768-1.821-1.945-2.323l-.267 1.208q1.522.283 2.464 2.495 1.49-.941 2.243-.769l2.542.91q2.888 1.224 4.206 3.123l.831-1.067.487.58.737-.831-.408-1.208-.596.266zm-11.25-9.195-.315-.675q-.392 2.982-2.165 5.147l-.078.079q-1.413-.079-2.637 0-1.49.172-1.82.423-.486.157-1.24 1.318l-1.395 2.308q-3.719 1.38-6.512-.989l-.91-1.412q-.33-.408-.659-.565-.659-.33-.565.738l.235.737q.016.032.048.063.11-.376.533-.157.33.157.66.565l.91 1.412q2.73 1.428 5.146 1.177.36-.031.706-.11l.33.079.33-.157 1.38-2.26.016-.047q.753-1.16 1.24-1.318.329-.25 1.82-.424l.611-.03q.958-.032 2.025.03l.078-.078.078-.33q.816-.878 1.334-2.024.675-1.522.816-3.499m2.213 10.733-.502-.188-1.224.831 1.977.738q.831.502 1.16.988h2.95q1.366-1.223 1.727-1.6v-.643q-.126-.251-.47-.518-.456.44-1.507 1.38h-2.95q-.33-.486-1.161-.988m-4.66-4.205q-.942.063-1.35.282-.047.016-.079.032l-.172.33q-.33 1.16 1.318 1.066 1.318-.565.424-1.726-.063 0-.142.016m-4.911 2.667q-.063-.031-.141-.047-.298-.25-.989.47-.235.236-.502.597l.424.58q.565.503 1.318 0 .831-1.302-.11-1.6" style="stroke-width:.313827"/>
    <path fill="url(#bS)" d="m26.944 46.745-.329.172-.33.91q-.329 1.224-.58 2.542h-1.24l-1.475 2.558q-.58 1.161-.502 1.49v.566q-.22-.157-.455-.298-.392-.236-.863-.44-1.067-.502-1.506-.235-.141.078-.22.235-.204-.172-.424-.314-.282-.204-.564-.345-.926-.392-1.319.016-.094.094-.156.235-.942-.047-.989-.957-.031-.282.047-.659.047-.204.11-.44-.188 0-.361.032-.44.031-.785.204-.03.016-.047.031-.298.236-.25.565.062.471.862 1.146l1.318.988q1.57.816 2.73.487l1.225.659q1.318.502 2.07-.157l1.727.33.078-2.888.251-.91.581.502q-.031 1.13.063 2.26.031.392.078.769l.016.015h-.016q0 .047.016.094 0 .157.047.283v.031q0 .047.016.094v.016q0 .032.015.079.095.674.251 1.349l.032.126q1.867 7.924 10.356 15.095.283.235.58.47l-.658 1.805 1.647 2.809q.314.486.55.8.329.424.517.518l.487.33q-.565.329-1.067.815-1.067.989-.58 1.726-.487.251-.895.66-.597.533-.502 1.066.031.204.172.424-.47 1.004-1.538.125-.25-.22-.533-.533l-.157 1.224q.157 1.161 1.648.424 2.557-.989 2.714-2.966 1.977-1.318 1.57-2.966l.91-1.569-2.48-1.57-.659-.737 1.318-.502 1.271.91q-.015-.078-.031-.14-.188-1.335.628-2.198.815-.878 2.165-.768 1.365.094 2.463 1.13.738.69 1.052 1.521.157.424.22.863.14 1.02-.299 1.774-.14.235-.33.439-.282.298-.611.47 7.704 3.296 11.768-1.851l-1.318-2.385.628-.377.031.047-12.694-22.752q-1.397.173-3.044 0-3.217-.408-4.127-2.385-.33-.66-.486-1.397v-1.16l.486-1.225q.424-.753.424-1.16.047-.487-.69-.158-.518.22-1.382.816l-.407.173q-3.625.737-5.351 0l-2.887 1.145zm20.274 18.122v.047q.047.957-.502 1.726-.11.157-.236.283-.062.078-.141.141-.706.643-1.852.706-1.176.063-2.26-.518-.187-.094-.36-.204-.126-.078-.235-.157-.377-.266-.675-.58-.22-.22-.392-.44-.471-.627-.675-1.38-.079-.267-.11-.503-.047-.282-.031-.549 0-.392.125-.753.11-.36.345-.69.283-.393.66-.644l-.016-.015h.031q.644-.44 1.585-.487 1.49-.078 2.84.895 1.193.847 1.648 2.055.062.157.11.33.11.376.14.737m-12.223-5.302q.189 1.365-.627 2.228t-2.166.753q-1.365-.11-2.448-1.146-.298-.266-.517-.564-.063-.063-.095-.126-.376-.533-.549-1.114-.078-.267-.125-.55-.016-.062-.016-.125l.016-.36.015-.566q.126-.674.597-1.176.298-.314.674-.503.236-.11.487-.172.063-.032.141-.032.408-.078.879-.047 1.365.11 2.463 1.13.738.706 1.052 1.538.156.392.22.832" style="fill:url(#a);stroke-width:.313827"/>
    <path fill="url(#bU)" d="M35.764 15.393q0 .314.156.785l.44.894.313.675q-.141 1.977-.816 3.5-.518 1.145-1.334 2.024l-.078.329-.078.078q-1.067-.062-2.025-.03l-.612.03q-1.49.173-1.82.424-.486.157-1.24 1.318l-.015.047-1.38 2.26-.33.157-.33-.079q-.345.079-.706.11-2.417.251-5.147-1.177l-.91-1.412q-.33-.408-.659-.565-.424-.22-.533.157-.063.204-.032.58l.236.738q.502.738 1.412.91l5.931 1.899q-.047.173-.063.345-.078.738.361 1.6.267.534.753 1.099-.188.078-.455.251-1.176.738-1.428 1.789l-.58 2.4q-.204 1.507-.063 2.794.047.533.157 1.035.173.77.486 1.444l-.156-.079-1.413.173.251.738-1.067.25-5.601-6.59q-.534-.14-1.099-.266l-.44-.095q-.187-.031-.36-.062-2.056-.157-2.793.831h-1.413l-.236 1.726-2.15-.33.99.99-.66.407q3.295 1.24 4.535-1.145l2.793-1.24-.079 1.49q4.614 5.352 5.445 5.18l2.385.752q2.025.424 3.64.267.55-.063 1.052-.188h.094q1.475.266 3.766-.157 1.24-.22 2.715-.644.047-.015.11-.03 1.004-.315 1.726-.519 1.35-.376 1.726-.376l.015.015.393.471q.094.942-1.648 3.876l.173.58q.33 1.067 1.035 1.93l.471.565q1.821 1.004 4.127.628-.177-.368-.031-.69.143-.307.345-.471.718-.408 1.082-.361.368.043.707.377l.094.078q.488-.593.863-1.334.39-.74.643-1.318.188-.973-.188-2.008v-.016q-.027-.096-.079-.251-.192-.583-1.082-1.663l-.408-.408q-3.374 0-4.206-.58l-.157-.581q.063-.095.503-.534.392-.424 1.13-1.13.345-.345.768-.753l.141-.141q2.81-2.668 3.83-4.676.172-.345.297-.675l.251-.282q1.93-2.26 2.542-6.057.298-.345-.14-2.26-.44-1.804-1.507-4.99l-1.318-.753 1.004-.659 1.553-1.067q1.648.079 2.636-1.647.503-.816.66-1.726l-.66.408-.329-1.397-.816 2.056-1.648-.66-.753 1.162q-1.145.078-2.055 1.977-.33.8-.66 1.883l2.307 6.873.408 1.208-.737.831-.487-.58-.831 1.067q-1.318-1.899-4.206-3.123l-2.542-.91q-.753-.172-2.243.769-.942-2.212-2.464-2.495l.267-1.208 1.051-4.739q.455-1.098.157-1.506-.408-.534-.643-.706-.722-.455-.989.11m-6.59 11.501q.078.016.141.047.941.298.11 1.6-.753.503-1.318 0l-.424-.58q.267-.36.502-.596.69-.722.989-.47m3.703-2.339q.408-.22 1.35-.282.078-.016.14-.016.895 1.161-.423 1.726-1.648.094-1.318-1.067l.172-.33q.032-.015.079-.03m-7.171 11.327q.063-.894.926-1.694.863-.832 2.26-.863.815-.032 1.02-.047l1.459.549.188.063q.612 1.553-1.146 2.479l-.988 1.726q-.753.25-1.49.502-1.476.659-1.57 1.145-.33-.078-.44-.768-.078-.55-.14-.958-.063-.486-.095-.753-.062-.502.016-1.38m17.621-8.427q.753.314 1.177.628.345.266.47.518v.643q-.36.376-1.725 1.6h-2.95q-.33-.486-1.161-.988l-1.977-.738q.737-.502 1.224-.831.737-.487.91-.565.298-.126 1.051-.644.753-.517 2.981.377" style="fill:url(#b);stroke-width:.313827"/>
    <path fill="url(#c)" d="M62.532 27.303q-.047-.298-.11-.518-.345-1.16-1.035-.91-.047.016-.078.032l-.832.831q.643.173 1.02.424.832.533.376 1.38-.737-.078-.894 1.162-.094.565 0 1.145-.753-.078-1.004 1.491-.079.753 0 1.538v.016l-.032-.016-.455-.314q-.25-.157-1.49-.33l-3.044-.078-.581 1.067q-1.318-.486-2.464-.816l-.988-.172-.33.172-2.557 1.805q-.157 1.82-2.715 4.707l-.33.235-.502.236q-1.318.659-1.318 1.035 0 .126.173.22.408.157 1.24.157.659-.009 1.224.173l.125.078.863.58q.66.487.989 1.146.22.298.36.643.66 1.6-.439 4.064-.549 1.224-1.569 2.637l12.851 22.658.66-.502 1.333 2.385q6.59-.769 7.72-9.101-.267.267-.58.424-.361.156-.77.172-1.05.032-1.82-.988-.768-1.02-.831-2.464v-.063q-.047-1.506.675-2.573.706-1.083 1.757-1.114.33-.016.628.094.235.063.47.22.283.172.55.486l-.142-1.899 1.146-.816.25.989.174 2.887 1.726.079q1.24 1.24 3.295.157 1.804.91 3.954-.738.863-.565.879-1.067 0-.11-.032-.22-.078-.188-.266-.36l-1.162-.487q.142.502.173.879.094 1.224-.91 1.098-.11-.267-.33-.408-.408-.25-1.16-.094l-.99.408q-.093-.204-.25-.314-.455-.33-1.475-.094l-1.318.58v-.58q0-.204-.22-.784v-.016l-.031-.063q-.126-.33-.33-.785l-1.648-2.887-1.804-.33q-.094-.69-.22-1.364-.094-.534-.188-1.036-2.542-13.04-11.376-18.186l-.173-.66.91.158 2.48 1.49.737-1.741q1.396-.408 1.24-3.045 1.396-1.24.815-4.205m-2.698 12.961q.235.063.439.204.063 0 .11.063.314.22.612.55.392.47.612 1.066.22.58.25 1.271.032 1.381-.737 2.37-.11.14-.204.266-.266.267-.549.455-.078.047-.141.095-.44.22-.957.235-.33.016-.628-.063-.706-.188-1.271-.863-.816-.973-.847-2.338v-.314q.015-.204.047-.392-.016-.078.015-.141.095-.597.361-1.099.126-.22.283-.439.016-.031.063-.078l.627-.581q.487-.33 1.036-.36.063-.017.125-.017.393-.015.754.11m-.926 13.102q.267.22.518.534.455.565.706 1.24l.015.015v.032q.236.69.251 1.49v.283q-.03 1.443-.831 2.495-.236.314-.502.533l-.032.032q-.47.392-1.02.533-.047 0-.078.016-.267.063-.55.063-.188 0-.376-.032-.078 0-.188-.016-.424-.094-.8-.329-.346-.22-.644-.534-.094-.094-.188-.204-.753-.91-.926-2.102l-.063-.408q-.015-.11-.015-.22v-.063q-.016-.455.062-.863.048-.298.11-.58.063-.251.173-.47.188-.44.486-.817l.236-.298.125-.126q.377-.376.8-.58.126-.063.267-.11.345-.125.753-.125.079 0 .157.015.393.016.738.141l.031.016q.408.141.785.44" style="fill:url(#c);stroke-width:.313827"/>
    <path d="m61.058 24.526-.832.831.25 1.381.833-.831q.031-.016.078-.032.69-.25 1.036.91-.047-.408-.142-.863-.33-1.804-1.223-1.396" style="stroke-width:.313827"/>
</svg>
