<svg xmlns="http://www.w3.org/2000/svg" xml:space="preserve" width="88.338" height="104.242" preserveAspectRatio="none">
    <defs>
        <linearGradient id="a" x1="102.525" x2="143.875" y1="101.75" y2="82.45" gradientTransform="translate(6.267 13.42)scale(.31383)" gradientUnits="userSpaceOnUse" spreadMethod="pad">
            <stop offset=".784%" stop-color="#1E1C1A"/>
            <stop offset="27.451%" stop-color="#050505"/>
            <stop offset="67.843%" stop-color="#332B1F"/>
            <stop offset="100%" stop-color="#2D2211"/>
        </linearGradient>
        <linearGradient id="b" x1="196.762" x2="114.838" y1="14.8" y2="181.2" gradientTransform="translate(6.267 13.42)scale(.31383)" gradientUnits="userSpaceOnUse" spreadMethod="pad">
            <stop offset="0%" stop-color="#F2B116"/>
            <stop offset="45.098%" stop-color="#ECB229"/>
            <stop offset="73.725%" stop-color="#F3B216"/>
            <stop offset="100%" stop-color="#E6A629"/>
        </linearGradient>
    </defs>
    <path fill="#100d0d" d="m45.26 74.772.392-.596-.393-.926.063.926-.33.345zm-1.38-5.633q-.016.345-.126.675.141.941.738 2.024l.768 1.412v-1.035l-.768-1.664q-.424-.753-.612-1.412m.204 6.245-.016-.015.345-.424-.172-.173.25-.172-.172-.173-.424.973-.58 2.919.44-.518.062-.424.502-.33-.392-.156-.032-.016.346-.235-.267-.189.267-.863zM42.435 63.79l-.22-.44q.079 1.177.346 2.275 1.004 1.554 1.24 2.7.407-1.476-1.24-3.97-.079-.283-.126-.565m25.122-2.495-.753-.157-1.224-1.209v1.413l.33.925.062-.015.282-.173v.267l.503-.173.172.424.565.094h.345v.251l.44-.094-.094.424.407-.251h.095l.408.14.596-.14-.69-.77zm-9.368-5.853v.094q.361.628.643 1.255.88 2.024 1.005 4.064.11-2.055-.518-4.064l-.157-.44q-.063-.125-.141-.235zm-14.781 7.39q-.58-1.02-.989-2.04l-.612-.643q.455 1.867 1.444 3.672l.157.282 1.428 2.025V64.84Zm12.302-9.509-.126-.125-.674-.596.423 1.02q.534 1.208.675 2.196.173-1.051-.298-2.495M31.059 74.474l.22-.11q.062-.078.172-.188l.031-.016.142-.125h.518l-.346-.345.424-.094-.157-.236.753-.518-.078-.408.486-.188-.078-.235h.345q.078-.251-.188-.942.094-.125.188-.33 0-.015.016-.03.282-.91.47-3.233 0-1.852.926-3.876l.863-1.679.408-2.432q.47-.455 1.271-2.699.063-.204.141-.408.032-.25.095-.486.22-.644.768-1.193l-.172-.172q-.345.282-.675.533-.016.016-.016.032-.345 1.004-.627 1.694-.471 1.099-.785 1.412l-.408 2.448-.863 1.68q-.926 2.023-.926 3.86-.235 3.028-.674 3.608v.314l-.565 1.02.078.424-.753.518.157.25-.596.785-.33.596-.157.487q-.031.063-.078.282m-9.65-38.789-.785.942-.157 1.098.408-.25.518-.095-.267-.235.189-.408v-.016h.015l.879.235.863-.392.157.58.973-.078.031-.031.235.58.032.11.33-.172v.423l.078.016.675.063.596 1.004.973.973.078-1.193-1.051-1.051-.596-1.004-.754-.079v-.423l-.33.157-.266-.675-1.004.094-.298-.173zm13.008 8.332-1.522-1.27q-.926-.157-2.009-.832l-.941-.675v1.287l.941.659q1.083.675 2.009.847l1.522 1.255 1.16.079.19-.424q-.424-.204-.707-.455-.25-.204-.392-.455Zm10.497-20.57-.502-.283-.25-.393-.095-.266-.408-.079-.251.91-.769.518.44.424-.613.831.503.503-.236.329.047.031.298-.423-.439-.424.769-.518.251-.91.408.094.016.016.078.235zm-.078 5.367q-.267-.518-.424-1.115-.36-1.035-.36-1.506v-.047l-.393.33.157.156-.251.173q0 .173.502.502v.032q-.016.062-.016.14 0 .456.361 1.507.157.58.424 1.099.596 1.067.706 2.369.157-2.071-.706-3.64m27.852 21.403-.126-.424h-1.6l-.926.188h-.753l-.345.079-.753-.597q-.424.094-1.93-.565l-1.523-.596q-1.6-.926-3.781-1.083l-1.93-.11q-.596-.329-1.49-.674l-.785-.157-3.437-.251q-.11-.047-.235-.063-.785.33-1.695.706l-.063.032q-.14.062-.282.11l.188.423h.063q.204-.063.408-.094t.392-.031q.675-.016 1.224.204l3.437.25.784.142q.188.094.361.157.565.22 1.004.47l.126.063 1.93.094q2.071.142 3.624.989l.157.094 1.522.596q.126.048.236.11.8.345 1.27.455.268.032.425.016l.753.58.157-.25.188.172.408-.345.345.345.487-.345.345-.079.094.252.33-.33.172.424.235-.424.424-.157.518-.424zm-49.35 3.216 1.162.189h3.436q2.087-.142 4.237-.518 2.244-.408 4.519-1.083zm34.27-19.316.408-1.177-1.648 2.307q-.973 1.632-2.385 3.358l-3.782 5.335q1.883-1.805 3.358-3.53 1.899-2.213 3.076-4.331.565-.989.973-1.962" style="stroke-width:.313827" transform="translate(-.073 -.018)"/>
    <path fill="url(#bS)" d="M53.639 52.193q.188-.518.549-1.35l-.534-1.13q.016 1.35-.721 2.652-1.632 2.856-4.567 4.425-.36.188-.737.361-3.578 1.632-6.998-.125l-.424-.408v.172q-.032.644-.016.973 0 .36.016.141.016.189.424.408l1.584.408q3.044.345 5.65-.659 1.302-.486 2.369-1.27 2.212-1.648 3.405-4.598m5.13 7.296.173-.502q-.094-.33-.204-.628-1.883 7.83-8.034 7.987l-5.868-1.506v1.287l5.868 1.522q6.23-.173 8.066-8.16" style="fill:url(#a);stroke-width:.313827" transform="translate(-.073 -.018)"/>
    <path fill="url(#bU)" d="m58.77 54.782-1.507-1.852q-.455-.063-1.428-.753l-1.647-1.334q-.361.832-.55 1.35-1.192 2.95-3.404 4.597-1.067.785-2.37 1.271-2.605 1.004-5.649.66l-1.584-.409q-.408-.22-.424-.408 0 .66.172 1.083.126.643.204 1.193.048.439.079.8l.031.376q.032.738-.062 1.067l.847 2.276.078 1.93q.251 2.18 1.083 3.781 1.334 2.683 1.255 3.437l.424.58.173.173-.251.172.172.173-.345.424.016.015.157.204-.267.863.267.189-.346.235.032.016.392.157-.502.33-.063.423-.44.518.095.157.408-.157.345-.44.079.298v.048l.517.172.157-1.192.738-.487-.487-.518.487-1.004-.392-.424-.267-.25.33-.346-.063-.926-.77-1.412q-.596-1.083-.737-2.024.11-.33.126-.675.015-.392-.079-.816-.235-1.145-1.24-2.699-.266-1.098-.345-2.275l.22.44.298.58.157.157q.612 1.036 1.35 1.899 1.898 2.26 4.707 3.232 3.782 1.412 6.983-.424 3.185-1.851 3.766-5.884.204-1.255.14-2.495-.125-2.04-1.004-4.064-.282-.627-.643-1.255v-.094l.832.674q.078.11.141.236.047.063.094.141.094.157.173.298.455.753.926 1.287.894 1.02 1.773 1.161.565.44 1.098 1.161.188.251.345.518l.738 1.161.769.267.078.424.424-.079.33.816 1.098.094.157.69.925-.439 1.005.44.078-.518-.235-.267.58-.078.346-.267-.173-.141-.596.14-.408-.14h-.094l-.408.25.094-.423-.44.094v-.25h-.345l-.565-.095-.172-.424-.502.173v-.267l-.283.173-.063.015-.33-.925q-.297-.126-.862-.785-.251-.33-.58-.737l-.91-1.256q-.095-.14-.205-.298-.565-.769-1.365-1.475-.58-.518-1.287-1.004L59.13 55q-.046-.078-.235-.14l-.094-.064zm-.66 2.008q.33.722.628 1.57.11.297.204.627l-.172.502q-1.836 7.987-8.066 8.16l-5.868-1.522-1.428-2.025-.157-.282q-.989-1.805-1.444-3.672l.612.643 2.244 2.307q3.28 1.852 5.696-3.185l3.625-.518q1.899-.769 2.055-2.605.032-.455-.031-.973-.141-.988-.675-2.196l-.423-1.02.674.596.126.125q.55.565 1.067 1.24.44.58.832 1.224.25.47.502 1.004m4.268-40.17q-.55-.768-1.475-1.114-.895-.314-3.186.926-2.275 1.208-4.738 5.759l-2.025 8.065q-1.992 7.705-2.573 9.525-.58 1.773-.643 1.977-.079.204-.063.078-.565-.549-1.24-.957-.266-.172-.517-.298.015-.078.03-.141.126-.644-.03-1.036v-.094q0-.533-.079-1.067 0-.612.031-1.02.048-.47.126-.659-.047-.345-.126-.659-.172-.675-.455-1.208.095-.534.142-1.02.031-.628-.016-1.224-.11-1.302-.706-2.37-.267-.517-.424-1.098-.36-1.051-.36-1.506 0-.079.015-.141v-.032q-.502-.33-.502-.502l.25-.173-.156-.156.392-.33.016-.016-.251-.235.016-.016.408-.753-.267-.078.345-.267-.345-.079.44-.25.156-.409.424-.439-.079-.157-.753.596-.078-.235-.016-.016-.408-.094-.251.91-.769.518.44.424-.299.423-.314.408.503.503-.236.345.236.172-.236.675.58 1.004.44 1.585-.094.926q0 1.177.832 2.526l.078 1.099q0 .863-.11 1.569-.063.314-.141.596l.188.941.157.738v.188l-.423.91-.346-.078q0-.832-.33-1.444-.015-.031-.03-.047-1.036-1.6-3.296-1.46-.141 0-.282.017l-1.004-3.688.031-1.224.063-4.346q-.016 0-.016.015-.33.157-.424 2.605v1.24q-.031.047 0 .314v.957q-.125.141.644 2.965.172.581.36 1.24-.91.079-2.432.832-.925.58-1.757 1.443-.251-.25-.486-.47l-.581-.597q-1.46-1.428-1.82-1.71-.094-.078-.126-.078-.125-.063-.235-.126l-1.554-.832q-.204-.11-.423-.22-1.334-.705-1.962-.894-.439-.125-.533-.031l4.864 2.605 2.103 2.18.502.519q-.016.03-.031.047-.738 1.004-.942 1.867-.282 1.161.377 2.103.047.078.094.172.141.251.392.455.283.251.706.455l-.188.424-1.161-.079-1.522-1.255q-.926-.172-2.009-.847l-.941-.66q-.047-.093-.11-.203-.126-.22-.267-.408-.627-.879-1.365-1.334l-.847-.345-.204-.204-.973-.973-.596-1.004-.675-.063-.079-.016v-.423l-.33.172-.03-.11-.236-.58-.031.031-.973.079-.157-.58-.863.391-.879-.235h-.015v.016l-.189.408.267.235-.518.094-.408.251.157.173.502-.173h.424l.502-.25-.063.423.33-.173v.251h.235l.596-.078.079.345.502-.188v.266l.345-.156q.157.156.251.643v.016q.173.062.393.25.423.393 1.098 1.272.22.25.44.58.235.345.517.66 1.224 1.38 3.264 2.102.173.267.44.565l.03.031q.362.361.88.738.58.11 2.51 1.35.345.438 1.271.674v.926l.157.753-18.987-4.943q-5.193.079-8.143 1.852l-1.915 1.851q.33 2.009 1.695 3.515 1.161 1.318 3.091 2.275 1.93.973 3.876 1.24.078 0 .141.016-.282.157-.251.69.047.832.753 1.57l.032.03q.988.973 3.248 1.742 2.008.58 4.032.832.644.173 5.398-1.883.063.204.141.47.016.11.047.205l.063.188q.047.126.11.204.157.267.392.47.754.581 2.417.267.44.063 3.891-2.526.989-.753 2.244-1.726.33-.25.675-.533l.172.172q-.549.55-.768 1.193-.063.235-.095.486-.078.204-.14.408-.801 2.244-1.272 2.7l-.408 2.431-.863 1.68q-.926 2.023-.926 3.875-.188 2.322-.47 3.232-.016.016-.016.032-.094.204-.188.33.266.69.188.94h-.345l.078.236-.486.188.078.408-.753.518.157.236-.424.094.346.345h-.518l-.141.125-.204.204-.22.11-.345.126v.25h.423l.487-.156-.079.345.345.33.66-.832.015-.016.926-.172-.188-.66.941-.596-.157-.925.393-.079-.236-.423.58-.597v-1.522q.08-1.24.424-2.071 1.146-1.004 1.02-4.143-.015-.078-.015-.172 0-.016.015-.032.173-.564.502-1.208.597-1.522 1.256-2.338l.58-2.118v-.173q.314-.282.534-.502.628-.612.565-.675l-.44-.815q.032.015.079.03 1.412.629 3.39.362 2.023-.251 4.032-1.412 2.181-1.271 3.436-3.107 1.177-1.773 1.099-3.358l.737 1.177q.016.031.141.047.298.015 1.46-.393h.188l2.103.581q1.679-.314 4.017.267 2.761 1.679 4.19 1.177.94.156 2.117.737l1.162.69.863-.25.235.423.33-.345.674.58 1.005-.486.517.486.597-.753.266-.031h.016l.8-.126v-.015l-.157-.502-.36-.079.439-.33.157-.345-.11-.11-.047-.047-.518.424-.424.157-.235.424-.173-.424-.33.33-.093-.252-.345.079-.487.345-.345-.345-.408.345-.188-.172-.157.25-.753-.58q-.157.016-.424-.016-.47-.11-1.271-.455-.11-.062-.236-.11l-1.522-.596-.156-.094q-1.554-.847-3.625-.989l-1.93-.094-.126-.062q-.44-.252-1.004-.471-.173-.063-.36-.157l-.785-.141-3.437-.251q-.55-.22-1.224-.204-.188 0-.392.031t-.408.094h-.063l-.188-.424q.141-.047.282-.11l.063-.03q.91-.377 1.695-.707 5.884-2.495 6.04-2.95 1.492-.753 1.429-1.946-.079-1.208-.44-1.694-.376-.502-.36-.518 3.499-2.715 3.562-3.232.753-1.852 1.176-3.955.408-1.851.283-3.075-.079-.8-.392-1.334-.267-.502-.722-.784-.047-.032-.11-.048-.251-.125-.643-.047.235-.627.439-1.302.345-1.38.392-2.887.063-.816.016-1.538-.141-2.354-1.365-4.033m-4.362 16.32-.408 1.176q-.408.973-.973 1.962-1.177 2.118-3.076 4.33-1.475 1.726-3.358 3.531l3.782-5.335 2.385-3.358zm-9.572 10.325-.173.863q-4.864-.266-8.567 3.186l-2.683 3.436-.848-.502q-.36-1.051-.204-2.15.11-.926.612-1.883 1.004-2.18 3.295-3.53 2.338-1.334 4.786-1.177 2.071.141 3.374 1.334.22.188.408.423M24.5 53.621l-1.161-.189 13.353-1.412q-2.275.675-4.52 1.083-2.149.376-4.236.518z" style="fill:url(#b);stroke-width:.313827" transform="translate(-.073 -.018)"/>
    <path fill="#1e1a14" d="m58.801 54.797-.031-1.302-1.507-1.836q-.517-.078-1.757-1.004l-1.852-.942.534 1.13 1.647 1.334q.973.69 1.428.753l1.507 1.852z" style="stroke-width:.313827" transform="translate(-.073 -.018)"/>
    <path fill="#141313" d="m58.77 53.495.031 1.302.094.063q.189.063.236.141l1.24.785q.705.486 1.286 1.004.8.706 1.365 1.475.11.157.204.298l.91 1.256q.33.408.58.737.566.66.864.785v-1.413l-2.134-2.761q-.11-.079-.345-.377-.173-.204-.393-.502-.549-.753-2.338-1.789Z" style="stroke-width:.313827" transform="translate(-.073 -.018)"/>
    <path fill="#1f1d1b" d="m27.356 40.236.847.345q.738.455 1.365 1.334.141.188.267.408.063.11.11.204V41.24q-.173-.33-.377-.612-.627-.863-1.365-1.318l-.847-.345-.126-.126-.078 1.193z" style="stroke-width:.313827" transform="translate(-.073 -.018)"/>
    <path fill="#11100e" d="M16.34 42.511q-5.193.079-8.143 1.836-.942.533-1.632 1.836-.346.612-.283 1.302l1.915-1.851q2.95-1.773 8.143-1.852l18.987 4.943-.157-.753v-.55zm18.8-2.621q.015-.016.031-.047l-.502-.518q-.769 1.334-.47 2.432.203-.863.94-1.867m-2.965-3.374q.11.063.235.126.032 0 .126.078.36.282 1.82 1.71l.58.597q.236.22.487.47.832-.863 1.757-1.443 1.523-.753 2.433-.832-.189-.659-.361-1.24-.816.189-2.072.8-.925.581-1.883 1.57l-.125.188q-2.62-2.463-2.762-2.463-1.114-.597-2.495-1.24-1.396-.659-1.773-.314l.094.047q.628.189 1.962.895.22.11.423.22zm8.065-.675q-.141 0-.282.016l-.973-3.625-.031 1.224 1.004 3.688q.141-.016.282-.016 2.26-.141 3.295 1.46.016.015.032.046.33.612.33 1.444l.345.078.423-.91v-.188l-.157-.738-.266.565-.346-.078q0-.847-.33-1.444-.015-.031-.03-.047-1.036-1.6-3.296-1.475m20.666-20.336q.926.346 1.475 1.114 1.224 1.68 1.365 4.033.596-3.468-.361-5.053-.957-1.6-2.087-2.04-1.145-.439-2.934.471-1.805.91-3.343 2.62-1.553 1.695-3.17 5.383-.407 1.287-1.772 7.893-1.381 6.59-2.715 10.403-.25-.33-.926-.738-.266-.156-.517-.282v.094q.156.392.03 1.036-.015.063-.03.141.25.126.517.298.675.408 1.24.957-.016.126.063-.078.062-.204.643-1.977.58-1.82 2.573-9.525l2.025-8.065q2.463-4.55 4.738-5.759 2.291-1.24 3.186-.926M48.272 44.127l.173-.863q-.188-.235-.408-.423-4.723-.173-8.332 3.185l-2.683 3.436-.848-.486q-.157-.44-.204-.879-.157 1.099.204 2.15l.848.502 2.683-3.436q3.703-3.452 8.567-3.186" style="stroke-width:.313827" transform="translate(-.073 -.018)"/>
    <path fill="#171512" d="M63.336 25.078q-.204.675-.44 1.302.393-.078.644.047.063.016.11.048.455.282.722.784.313.534.392 1.334.141-1.695-.392-2.62-.267-.487-.722-.785-.047-.032-.11-.047-.094-.047-.204-.063" style="stroke-width:.313827" transform="translate(-.073 -.018)"/>
</svg>
