<svg xmlns="http://www.w3.org/2000/svg" xml:space="preserve" width="88.338" height="104.242" preserveAspectRatio="none">
    <path fill="#131314" d="M34.48 79.668q.47-.533.988-1.35.126-.219.251-.454-.58.8-1.114 1.208-.33.094-.33.25v.174l-.643.847q.079-.079.267-.141.282-.22.58-.534m4.74-8.913q0-.486-.252-.486l-.235.078q-.235-.03-.361 0 .031.063.063.142-.126.062-.236.11l-.58.894q.125-.063.408-.016l.235-.078q.251 0 .251.486l-.737 3.468q-.424 1.365-.989 2.416 1.02-1.38 1.695-3.546zm-3.781-5.774.031-.016q.58.58 2.432 4.425.22.455.471.957l.769-.988q-2.307-4.864-2.966-5.523l-.502.172q-.173.141-.22.361l-.486.769zm-7.06-18.72q.062.063.11.126l.392-.785q.565-.11.204-.47-.565-.487-3.123-2.056-2.714-1.648-3.138-1.648v-.078q-.816 0-1.02.282-.031.016-.047.047-.016.032-.016.079l-.627.988q.22-.266 1.004-.266v.078q.423 0 3.138 1.648 2.558 1.569 3.123 2.055m-9.4-10.607q.11.078.173.235l.753 2.715q.063.22.11.424.33 1.255.487 2.008.14.69.14.942l.707-1.13q0-.392-.345-1.82-.157-.66-.393-1.554l-.737-2.244-.785.346v.015l-.047.032zM9.97 30.382h-.33l-.298.062-.737 1.271h.015q.047-.078.126-.11l.031-.046h.047q.345-.063 1.193-.204 1.35-.252 5.178 1.396 1.38.66 2.432 1.412.283.204.534.408.156.157.235.283l1.004-.957-.533-.456q-1.224-.988-2.966-1.82-3.374-1.726-5.931-1.24M44.444 9.09q.14-.079.33.015.329.251-.158.502l-.659 2.385q-.47 2.81.283 6.104.047.283.282.895.941-1.083.785-1.6-1.146-3.484-.644-6.528l.66-2.385q.486-.251.156-.503-.33-.156-.565.173-.094.157-.172.408-.157.251-.298.534m9.854 60.929q-.079-.816-.58-2.291l-1.852-1.852q1.569 3.782 1.726 5.273 0 3.97.313 6.072.079.565.189 1.005.188.847.486 1.16l.298-.643.408-.486q-.988-1.067-.988-8.238M35.845 58.312q-.408-2.887-.66-3.624-.423.36-.737.408-.141.235-.25.502v.047q.187-.11.282.172.25.738.659 3.625.313 2.526.235 3.327.314-.032.628-.832.25-.408-.157-3.625m.69-7.767-.11-.11q-1.38 1.773-1.804 2.62.69-1.004 1.914-2.51m17.057-9.383q.078.11.14.22.126.219.11.423l.471-.722q.487-.408-.015-1.051-.989-.173-5.022.486l-.125-.298-.91.612.33.816q4.032-.659 5.02-.486M25.144 56.696q-.345.094-.549-.047-.11-.094-.094-.282-.47.03-1.099.706l-2.134 2.887q-.282.36-.36.675l1.788-2.433q.832-.894 1.397-.659.33.173.424.424.58-.816.706-1.13-.032-.078-.079-.141m-4.974 5.162h-.063q-3.295 1.727-6.339 1.82-1.57.08-2.48-.172-.235-.251-.407-.157l-.157.157-.706 1.13.157-.157q.172-.094.408.157.91.25 2.479.172 1.679-.047 3.452-.596 1.412-.455 2.887-1.224h.079l.172-.157q.22-.078.361.142l.706.094q-.188-.142-.298-.283-.36-.423-.25-.926m10.387-12.74q.25-.095.643-.19 1.208-.313 3.61-.69l-.456-.925q-2.62.439-3.374.784zm-4.44 4.504h.093q-.8.941-.957 1.443.11-.157.251-.314h-.094l3.217-4.127.831-.329q.785-.157.58.314.22-.345.393-.612-.094-.079-.157-.188v-.581q.11-.047.267-.094-.157-.016-.377.031l-.831.33zm3.656-7.61q.157-.08.345-.158l3.53-.659h.33q.095-.518.377-1.13l-3.53.66q-.675.25-.926.612-.047.047-.063.11l-.628 1.004q.173-.251.565-.44m19.756-13.15q-.267-.078-.55.095-.298.502-.47.44-.11.125-.22.282l-.345.675q.455-.487.878-.361.33.078.487.33-.079.58-2.228 4.44l.502.831q3.546-2.557 4.032-2.714l.408.408q.048.125.063.267.895-.738.644-1.397l-.675-.675q-.44.142-3.766 2.982l-.502-.832q2.15-3.86 2.228-4.44-.157-.252-.486-.33m0-8.976q-.142 0-.267.079-.189.11-.361.377-.094.156-.204.36-.063.095-.094.377.11-.063.22-.063.486 0 .486 2.056-.079 3.122 0 5.194.267-.095.706-1.13-.079-2.071 0-5.194 0-2.056-.486-2.056M36.128 34.4l1.725-.408q3.374.25 3.546 3.452l1.067-.408q2.15-.58 3.625.659l.628-1.193q-1.664-1.537-4.378-.769-.314-4.268-5.304-3.295L25.881 17.782l-.706 1.13Zm13.306-12.914-2.306-2.652q-.644-.738-1.554-.314l-.659.33-.706 1.13.66-.33q.58-.126 1.082.267.11.094.235.235l2.542 2.463q.204.252.33.487.314.533.204.863l.643-.973q.016-.031.031-.047.252-.486-.502-1.46m10.749 46.369v.078q.188.173.36.345 1.115 1.114 1.711 2.009.236.345.377.674.502 1.13.44 1.099 1.05 1.255 1.239 2.432v.612q.031.737.345 1.46.11.282.267.564.392.66.298.879l.628-1.036q.282-.125-.22-.973-.565-1.004-.612-2.024v-.612q-.188-1.177-1.24-2.432.063.031-.44-1.098-.564-1.24-2.447-3.029v-.078q-.502-1.177-.989-1.915-.298-.439-.58-.721-.408-.502-1.224-.502l-.078.015-.408-.8q-.77-1.538-1.648-2.071-.173-.393-.345-.738-.377-.784-.77-1.38-1.066-.848-2.18-1.868h-.298q.25.69.313 1.38v.08q1.146.674 2.229 2.918.172.345.345.737.188.126.392.299.66.58 1.255 1.773l.408.8.079-.016q.816 0 1.224.502.282.283.58.722.487.738.989 1.915m-7.422-2.919q-.047.016-.094.016-.33.047-.66.031.016.031.032.079l1.726 1.804.314-.612.016-.047 2.542-1.397q-.142-.298-.283-.58l-1.553.847-.33.66-.988-1.036-.063.031q-.314.141-.66.204m-3.545-7.328-.063.032q-.283.078-.596.125-.267.031-.565.031l1.16 2.15q.126-.282.252-.518.188-.408.408-.69zm2.4.267h.408q-.094-.596-.298-1.161-.941.157-1.71 1.757.737-.847 1.6-.596m-1.16-1.742q.36-.33.564-.737-.235-.283-.549-.565.126.722-.016 1.302M39.501 46.67l-.58-.235-.236 2.385.486.58q.33.597.722 1.538 1.695 4.143 4.315 15.095.236 2.307 1.475 4.378 2.385 4.19 7.909 8.238-.11-.408-.204-.91-.095-.486-.157-1.036-4.692-3.656-6.842-7.422-1.24-2.07-1.475-4.377-3.216-13.432-5.037-16.633l-.486-.58zm9.556 6.26-.785-.926-.157.047q-.737.408-1.318.989l-.22-.424q-.282.142-.627.22-.235.063-.518.094l.66 1.24q.187-.189.391-.345.424-.361.926-.644l.502-.157q.66-.172 1.146-.094m-2.872-12.02q.094-.439.016-.815l-1.38.596q-2.307 1.145-3.375 2.463-.659.079-1.49.503-1.648.659-2.385 1.882-.251.424-.58.424-.566.157-.895-1.412-.236-.722.172-1.616-1.255 1.585-.878 2.746.33 1.569.894 1.412.33 0 .58-.424.738-1.224 2.386-1.883.831-.423 1.49-.502 1.067-1.318 3.374-2.463zM60.23 71.085q-.22.36-.251.737.612-.376 1.695-.423.533.094-.016-.722-.094-.141-.204-.282-.832.188-1.224.69m-2.636-.769q-.58-.031-1.255-.157-.377-.078-.77-.172 1.805 2.134 3.625 3.624l.079-.565q0-.11.016-.204.047-.33.235-.627l.031-.032q-.988-.831-1.961-1.867m3.813-10.058q-.314-.126-.612-.267-2.573-1.177-5.508-3.656-4.362-3.625-8.238-8.975v-.079l-2.557-2.4-.032-1.099-.753-.235.079 2.463 2.557 2.401v.078q.863 1.193 1.758 2.307l.847 1.036q1.13 1.318 2.29 2.526.566.596 1.162 1.161.44.424.894.832.644.58 1.287 1.114 2.934 2.48 5.508 3.656.298.141.612.267.282.11.549.204 3.06 1.067 6.512 4.691-.094-.486-.251-1.098-.141-.596-.33-1.302-2.746-2.558-5.225-3.421-.267-.094-.55-.204m6.403-.534q-1.475-4.456-1.57-4.628l-.329-.895q-1.098-2.824-7.626-5.555-5.79-2.981-6.527-3.17l-1.538-1.568q-.079-.644.173-.942h-1.413l.079.58q.11.362.157.707.062.44.031.957l1.632 1.883q.486.235 6.669 2.793 6.26 3.044 7.657 5.445l.33.894q.094.173 1.569 4.63.769 2.384 1.083 4 .125.69.172 1.24.047.643-.016 1.099l-.078.737.706-1.13.079-.737q.25-1.726-1.24-6.34M62.787 46.2q-.251.172-.251.502l-.518.69.063-.063q.36-.314 1.082-.047.22.079.487.22l2.793 2.134q.125.078.22.173.674.549.486 1.208l.408-.612q.832-1.067-.408-1.899l-2.793-2.134q-1.083-.58-1.57-.172m-.83-.816q.329-.408-1.397-1.491l-4.284-3.044q-.408-.079-.816 0-.487 0-.518.172l-.612 1.02q.126-.062.424-.062.408-.079.816 0l4.283 3.044q.314.204.565.376 1.02.722.863 1.067l.644-1.02zm16.1 5.162q.094.157.094.282 0 .032-.016.079l.627-.989q.032-.047.063-.078.094-.188-.063-.424-.062-.063-.11-.063-1.616.675-3.954.88-2.667.235-5.79-.691l-.69 1.145q-.016.016-.016.047-.015 0-.015.016-.095.141-.063.141 4.205.926 6.559.487 2.385-.471 3.28-.895.046.016.093.063m-.36-15.126-2.26 1.773q-2.809 1.585-4.676 1.867t-1.946.455l-.675 1.57q.048-.064.126-.095h.235q.361-.063.706-.141l1.695-.455q2.134-.69 3.86-1.868l2.228-1.977q.173.126.236.251 1.051-.972.47-1.38m-14.78 2.667q.219.063.486.188l2.965 1.978q.267.172.455.345.69.674.173 1.569l.659-1.067q.738-1.161-.58-1.977l-2.966-1.977q-1.067-.502-1.49 0-.232.154-.691 1.114.316-.356.988-.173m-1.993-.141v.016l.503-.816q.204-.157.204-.33.094-.58-1.978-.737l-5.146-.816-1.256.69-.596 1.35q.11-.126.361-.267l.753-.408 5.178.58q1.146.095 1.632.314.393.157.345.424" style="stroke-width:.313827" transform="translate(-.026 -.024)"/>
    <path fill="#b0b2b9" d="M37.524 71.634q-.079.173 0 .251-.44 3.405-1.805 5.979-.125.235-.25.455-.519.816-.99 1.35-.298.313-.58.533-.188.062-.267.14-.031.017-.047.048t-.016.063v.172q.503.565.91-.172 1.35-.879 2.307-2.684.565-1.05.989-2.416l.737-3.468q0-.486-.25-.486l-.236.078q-.283-.047-.408.016-.094.031-.094.141m-2.056-6.669-.031.016-.471.157q-.486.408-.078 1.553l1.726 3.139q.596 1.114 1.584.769.11-.048.236-.11-.032-.079-.063-.142-.251-.502-.47-.957-1.852-3.844-2.433-4.425m-7.124-18.28q.267-.094.141-.298-.047-.063-.11-.126-.564-.486-3.122-2.055-2.715-1.648-3.138-1.648v-.078q-.785 0-1.004.266-.048.016-.063.063-.251.408 1.569 1.397l4.535 2.557q.863.032 1.192-.078M19.15 35.889q-.063-.157-.172-.235-.408-.063-.644.267-.33.25-.22.863.095.596.142.831l.737 3.452q.487 1.162 1.067 1.162.33 0 .58-.251 0-.251-.14-.942-.157-.753-.487-2.008-.047-.204-.11-.424zm14.75 20.1q-.251.33-.408.738l.486 5.194q.095 2.056.66 1.977.329 0 .658-.831.048-.094.079-.298.078-.8-.235-3.327-.408-2.887-.66-3.625-.094-.282-.282-.172-.125.062-.298.345m-23.725 8.489-.157.157q-.173.659.737.58 2.385.989 6.089-.172 1.82-.565 3.216-1.318.33-.236.251-.487l-.25-.172q-.032-.047-.048-.094-.141-.22-.36-.142l-.173.157h-.08q-1.475.77-2.887 1.224-1.773.55-3.452.596-1.57.079-2.48-.172-.235-.251-.407-.157m10.733-3.844-.346.455q-.313.408-.392.768-.11.503.251.926.11.141.298.283 3.468-4.284 3.798-5.1-.095-.251-.424-.424-.565-.235-1.397.66zm9.116-10.012.016-.015q.204-.47-.58-.314l-.832.33-3.217 4.126h.094q-.141.157-.25.314-.707.879-.754 1.303-.016.188.094.282.204.141.55.047.235-.063.517-.22.408-.157 2.307-2.714 1.569-2.307 2.055-3.139m19.285-23.552q0-2.056-.487-2.056-.11 0-.22.063-.313.157-.611.753-.251.408-.079 3.546.157 3.045.408 3.704.079.25.189.313.172.063.47-.439.157-.267.33-.69-.079-2.072 0-5.194M60.7 62.078l.314.094q3.2 1.146 6.747 5.178l.502.581.078-.737q.063-.456.016-1.099-.047-.55-.172-1.24-.314-1.616-1.083-4-1.475-4.457-1.57-4.63l-.329-.894q-1.396-2.4-7.657-5.445-6.183-2.558-6.669-2.793l-1.632-1.883q.031-.518-.031-.957-.047-.345-.157-.706l-.079-.58h1.413l2.134-.33q1.27-.267 1.318-.832.015-.204-.11-.424-.063-.11-.141-.22-.989-.172-5.022.487l-.33-.816.91-.612 2.213-1.538q.738-.596.722-1.13-.015-.14-.063-.266l-.408-.408q-.486.157-4.032 2.714l-.502-.831q2.15-3.86 2.228-4.44-.157-.252-.487-.33-.423-.126-.878.36-.173.173-.361.456l-.863 1.694-.628 1.193q-1.475-1.24-3.625-.66l-1.067.409q-.172-3.201-3.546-3.452l-1.726.408L25.175 18.91l9.713 16.32-1.24 2.133-.33.832q.173 2.354 2.48 3.42.047.016.078.032-.298.392-.55.769-.627.894-.972 1.648-.282.611-.377 1.13h-.33l-3.53.658q-.188.079-.345.157-.392.189-.565.44-.047.047-.078.11-.094.172-.094.36 0 .251.172.502.91.157 4.77-.91l.377.8.455.926q-2.4.377-3.609.69-.392.095-.643.19l-.016.015q-.157.047-.267.094v.58q.063.11.157.189.377.376 1.334.298l3.782-.816.878.957.11.11q-1.224 1.506-1.914 2.51-.753 1.052-.879 1.523.251.58.706.518.314-.048.738-.408.172-.142.36-.346l1.978-2.887v-.078q1.16.659 1.977.737 1.898 5.272 3.954 14.091.251 2.228 1.57 4.613 2.965 5.1 9.147 9.054l.408-.486q-.298-.314-.486-1.161-.11-.44-.189-1.005-.313-2.102-.313-6.072-.157-1.49-1.726-5.273l1.851 1.852.283.282q.172.581.91 1.57-.079.659.988 2.087 1.052 1.412 3.625 2.855.926 1.02 3.719 2.762 1.726 1.067 1.961.753.016-.015.016-.031.094-.22-.298-.879-.157-.282-.267-.565-.314-.722-.345-1.459v-.612q-.189-1.177-1.24-2.432.063.031-.44-1.099-.14-.33-.376-.674-.596-.895-1.71-2.009-.173-.172-.361-.345v-.078q-.502-1.177-.989-1.915-.298-.44-.58-.722-.408-.502-1.224-.502l-.079.016-.408-.8q-.596-1.193-1.255-1.773-.204-.173-.392-.299-.173-.392-.345-.737-1.083-2.244-2.229-2.919v-.078q-.062-.69-.313-1.38-.079-.22-.173-.425.235.22.47.424 1.115 1.02 2.182 1.867 1.961 1.554 3.734 2.511 1.099.596 2.119.957m0-.69q-.314-.126-.612-.267-2.574-1.177-5.508-3.656-.643-.534-1.287-1.114-.455-.408-.894-.832-.596-.565-1.161-1.161-1.161-1.208-2.291-2.526l-.847-1.036q-.895-1.114-1.758-2.307v-.078l-2.557-2.4-.079-2.464.753.235 3.703 1.161 2.464 3.138 7.736 3.358q5.194 2.244 6.355 4.221l.25.738v.078q.126.189 1.272 4.08.565 1.899.941 3.327.189.706.33 1.302.157.612.25 1.098-3.451-3.624-6.511-4.691-.267-.094-.55-.204m-.643 7.359q.032.031.063.078.816.863 1.334 1.57.11.14.204.282.55.816.016.722-1.083.047-1.695.423-.251.157-.424.361l-.031.032q-.188.298-.235.627-.016.095-.016.204l-.079.565q-1.82-1.49-3.624-3.624.392.094.769.172.674.126 1.255.157.863.047 1.443-.157.69-.235.989-1.255zm-16.758-30.55.91.157q1.067.25 1.554.832l.25.407q.126.236.189.503.078.376-.016.816l-2.071.91q-2.307 1.145-3.374 2.463-.659.079-1.49.502-1.648.66-2.385 1.883-.251.424-.581.424-.565.157-.894-1.412-.377-1.161.878-2.746.408-.534 1.005-1.114 1.082-1.083 2.306-2.072 2.558-1.883 3.72-1.553m4.973 13.808.785.926q-.487-.078-1.146.094l-.502.157q-.502.283-.926.644-.204.156-.392.345l-.659-1.24q.283-.031.518-.094.345-.078.628-.22.863-.423 1.082-1.333zm-9.352-5.57.58.235 2.056.832.66.988q10.23 18.202 10.717 22.659 0 3.358.298 5.554.062.55.157 1.036.094.502.204.91-5.524-4.048-7.909-8.238-1.24-2.071-1.475-4.378-2.62-10.952-4.315-15.095-.392-.941-.722-1.537l-.486-.581zm12.098 8.96q.157.22.267.423.251.44.44.895.203.565.297 1.16h-.408q-.863-.25-1.6.597-.11.126-.204.267-.22.282-.408.69-.126.236-.251.518l-1.161-2.15q.298 0 .565-.031.313-.047.596-.125l.063-.032q.988-.518 1.24-1.475.14-.58.015-1.302.314.282.55.565m1.647 9.556q.047 0 .094-.016.345-.063.659-.204l.063-.031q1.051-.503 1.726-1.915.031-.11.078-.204.016.016.032.047.58.754 1.035 1.6.141.283.283.581l-2.542 1.397-.016.047-.314.612-1.726-1.804-.094-.095q.031 0 .063.016.33.016.659-.031m9.242-17.433q-.078.125-.078.313.502.66 5.02 3.704.205-.267.299-.518.188-.66-.487-1.208-.094-.095-.22-.173L63.65 47.5q-.267-.141-.487-.22-.722-.267-1.082.047l-.063.063q-.079.047-.11.126m-.66-1.005q.017-.031.032-.047.157-.345-.863-1.067-.25-.172-.565-.376l-4.283-3.044q-.408-.079-.816 0-.298 0-.424.062-.204.094 0 .346.502.58 2.887 2.4 2.558 1.883 2.966 1.977.91.079 1.067-.25m.675-8.254q-.008.006-.016.015v.016h-.016l-.031.031q-.079.063-.126.157-.062.11-.062.283.564.659 5.272 3.468.016-.032.047-.063.518-.895-.173-1.57-.188-.172-.455-.344L63.4 38.274q-.267-.125-.487-.188-.672-.183-.988.173m-1.005-.298v-.016q.047-.267-.345-.424-.486-.22-1.632-.314l-5.178-.58-.753.408q-.251.141-.36.267-.048.047-.064.094-.047.14.189.22.659.25 3.703.737 3.122.408 3.624.25.8-.329.816-.642" style="stroke-width:.313827" transform="translate(-.026 -.024)"/>
    <path fill="#aaadb4" d="M8.798 31.535q-.047.015-.078.047-.079.031-.126.11-.094.11-.094.282 1.49-.047 2.966.267 2.997.831 4.456 1.914.989.737 1.428 1.02.204.125.282.157l.032.016q.204.094.36 0 .503-.267.346-.518-.079-.126-.235-.283-.251-.204-.534-.408-1.051-.753-2.432-1.412-3.829-1.648-5.178-1.396-.848.14-1.193.204M44.748 9.08q-.19-.094-.33-.015-.126.047-.236.188-.094.157-.172.408-1.397 2.134-1.162 5.931.173 1.977.581 3.452.157.408.345.377.063-.016.11-.063.392-.204.612-.392-.235-.612-.282-.895-.754-3.295-.283-6.104l.66-2.385q.486-.25.156-.502m4.284 13.997q-.126-.235-.33-.487l-2.542-2.463q-.125-.141-.235-.235-.502-.393-1.083-.267l-.659.33 1.977 2.055q1.977 2.15 2.464 2.4.141-.03.25-.093.173-.267.362-.377.11-.33-.204-.863m29.092 27.726q0-.125-.095-.282-.047-.047-.094-.063-.894.424-3.28.895-2.353.439-6.558-.487-.141.345-.267.55-.173.266.235.423 1.617.58 3.468.58 3.468.299 6.59-1.616m-.925-14.027q-.063-.125-.236-.25l-2.228 1.976q-1.726 1.177-3.86 1.868l-1.695.455q-.345.078-.706.141h-.235q-.078.031-.126.094-.015 0-.015.032-.079.125-.11.612 0 .329.486.25l3.39-.91q3.624-1.396 5.335-4.268" style="stroke-width:.313827"/>
    <path fill="#dae0e8" d="M35.772 41.593q-.267.408-.471.8.25-.377.55-.769-.032-.016-.08-.031m19.41 21.167q.048-.078.11-.157-.015-.031-.03-.047-.048.094-.08.204m4.912 6.041q-.031-.047-.063-.078l-.031.157q.047-.047.094-.079" style="stroke-width:.313827"/>
</svg>
