<svg xmlns="http://www.w3.org/2000/svg" xml:space="preserve" width="88.338" height="104.242" preserveAspectRatio="none">
    <defs>
        <linearGradient id="a" x1="82.7" x2="74.7" y1="28.825" y2="42.675" gradientUnits="userSpaceOnUse" spreadMethod="pad">
            <stop offset="0%" stop-color="#0097D9"/>
            <stop offset="100%" stop-color="#1EA7E3"/>
        </linearGradient>
        <linearGradient id="b" x1="149.45" x2="184.65" y1="241.288" y2="111.013" gradientUnits="userSpaceOnUse" spreadMethod="pad">
            <stop offset="0%" stop-color="#078FCA"/>
            <stop offset="26.275%" stop-color="#069ADB"/>
            <stop offset="100%" stop-color="#1EA7E3"/>
        </linearGradient>
    </defs>
    <path fill="#d0dae2" d="M52.87 32.626q-.016-.016-.032-.016l-.015.063z"/>
    <path fill="#1b1b1c" d="M47.18 57.732q-.502.047-1.02.204-.596 1.57-.502 3.781.063 1.303.361 2.636-.047-.423-.062-.847-.157-3.719 1.616-5.633zm3.61-6.387q-.22-2.29-1.366-5.146-.188.172-.33.313 1.21 2.637 1.695 4.833M35.616 64.008v.032q.078.565.235 2.212.094 2.448-1.318 8.677h.016q-1.334 5.806-.832 8.725.016.047.047.078.032.032.08.047.015 0 .046.016-.047-2.73.957-7.077h-.016q1.413-6.23 1.318-8.677-.156-1.648-.235-2.213v-.03q0-1.115.596-2.057.33-.517 3.248-3.577 2.81-2.966 4.912-3.578.157-.078.33-.14-.77-.597-1.476-1.319-1.804.863-4.064 3.248-2.918 3.06-3.248 3.578-.596.941-.596 2.055m-7.218-8.975q.251-.77.66-1.57.407-.8 4.393-1.317 4.487-1.836 6.103-2.4l-.062-.048-.032-.063-.69-1.49q-1.742.627-5.618 2.212-3.985.518-4.393 1.318t-.66 1.57q-.69 4.487-3.498 9.29-2.746 4.55-3.154 7.31 0 .032.015.08l.33 1.427q.11-.628.345-1.334.753-2.37 2.762-5.696 2.81-4.8 3.5-9.29M18.355 38.12q-.032.03-.048.094 0 .047.016.094L18.607 40q.015-.063.047-.095.313-.33.957-.768.675-.47 1.71-1.068.88-.502 1.616-.878.832-.44 1.444-.706h.016q.627-.236 3.828-.644-.266-.423-.486-.847-.22-.44-.392-.863-2.684.345-3.248.565h-.016q-1.146.502-3.06 1.585-2.008 1.16-2.667 1.836m-5.634.737q-.878-.518-1.208-.235-.345.266-.377.298l-.737.502.235 1.9v-.033q.016-.063.063-.078l.738-.502q.015-.016.157-.11.078-.079.22-.189.33-.282 1.207.236.88.518 2.26 1.663.47.392.832.66.66.517.878.595.33.126 5.806 2.574v.016q1.993 1.098 3.468 1.678.88.346 1.57.503.266.062.501.094h.016q2.118.047 4.958-1.004l.19-.063q2.698-1.02 4.047-1.946-.298-.847-.502-1.648-1.397.895-4.033 1.868-2.84 1.051-4.958 1.004h-.016q-1.883-.25-5.539-2.275v-.016q-5.476-2.448-5.806-2.573-.33-.126-1.71-1.256-1.38-1.145-2.26-1.663m14.044-9.666q0-.015.016-.015l1.035-2.574q-.313-.612-.549-1.177l-.784 1.962q-.016 0-.016.015-.377 1.852.157 3.75-.063-.988.141-1.96m.675-11.565q0-.047-.032-.094-.03-.048-.078-.048-.063-.03-.094 0-.063.016-.079.063l-.91 1.475q-.03.016-.03.047-.299 1.256.187 2.982-.016-.644.11-1.193 0-.03.031-.047l.91-1.475q.016-.047.08-.063.03-.03.093 0 .047 0 .08.047.014.032.03.047zm2.903 2.087-.016.015-2.04 1.052q-.047.031-.078.078l-.016.047q-.377-.11-.675-.455-.345 1.067.267 1.758.314.376.706.486l.016-.047q.031-.047.078-.079l2.04-1.05.063-.08q.047-.046.11-.046h.094q.424-1.114-.55-1.68m11.785 9.933.298.377q.063-.36.047-.769-.173.188-.345.392m-9.43 2.856q-.048-.392-.44-1.287-.047.126-.11.267-.188.408-.455.816-.926 1.522-1.899 1.067-1.035-.47-1.647-1.883-.157-.36-.283-.769-.015.44.08.88.187.956.501 1.678.612 1.412 1.648 1.883.972.455 1.898-1.067.267-.408.455-.816.173-.392.251-.769m7.234-4.456q-.078.22-.235.392-1.946.99-3.044 0-.377-.377-2.213-3.5-.455.283-.204.927 2.291 3.938 2.715 4.362 1.098.988 3.044 0 .157-.173.235-.408.126-.392 0-.942-.094-.376-.298-.83m10.215-6.827q.016-.36 0-.377-.03-.047-.063-.062-.047-.016-.094 0-.926.235-2.918 1.318-1.899 1.004-2.997 1.82-.236.173-2.652 3.044-.22-1.334-1.16-2.667h.014q-.172-.252-.345-.47-1.914-2.402-5.413-2.653l-.032-.03q-1.475-2.057-2.055-2.7l-.016-.016q-2.213-2.244-4.033-1.522-.063.016-.094.078-.03.047 0 .11 0 .047.063.08l.282 1.536q.016-.015.047-.015.958-.377 2.025.062.957.393 2.008 1.46l.016.015q.58.644 2.055 2.7l.032.03q3.5.252 5.413 2.653.173.22.345.47h-.015q.941 1.334 1.16 2.668.22-.267.425-.487 2.008-2.4 2.228-2.557 1.051-.785 2.856-1.742.062-.03.14-.078 1.695-.91 2.621-1.224.157-.063.298-.095.047-.015.094 0l.048.048zm6.23-5.257.062.032q.08-.55.063-.785-.094-.91-.424-1.035-.33-.126-.47-.157-.157-.032-.189 0-.784.078-.972.925-.204 2.025-.785 5.555-.078.408-.298 4.158-.063.99-.126 2.197-.157 4.237-.973 5.947-.894 1.867-2.26 3.091-2.886 2.558-4.785 3.06-2.056-2.432-4.017-3.577-.69-.377-1.287-.565-1.318.894-3.499 2.071-.125.565-.14 1.255-.064 1.522.36 3.327-.094-.8-.063-1.538.08-2.275 1.177-3.107.11-.078.22-.14l.015-.017q.785-.408 1.82-.172.77.157 1.695.674 1.962 1.146 4.017 3.578 1.616-.424 3.97-2.354.392-.33.816-.706.534-.47 1.004-1.05.706-.896 1.256-2.04.816-1.71.972-5.948.063-1.208.126-2.197.22-3.75.298-4.158.58-3.53.785-5.555.188-.847.973-.925.03-.032.188 0 .141.03.47.156m6.968 52.66q-.032-.203-.063-.423-.408-3.09-2.166-6.167-2.087-3.734-5.068-5.806-1.836-1.286-3.546-1.647-.957.643-1.538 1.412l-.078.235q2.573-.22 5.46 1.79 2.982 2.07 5.068 5.805 1.366 2.4 1.93 4.802m17.747-10.75.063-.062v-.094q-.016-.047-.047-.078-2.228-2.009-7.893-3.908-6.056-2.055-8.096-3.436-1.24-.989-1.726-1.396l-.016-.016q-.942-.596-1.836-.706t-3.672.55q-2.778.658-4.19 1.286-1.412.596-2.808 1.647.188.957.251 1.82 1.428-1.067 2.856-1.679.941-.423 2.51-.847l.283-.078q.455-.142.894-.236l.502-.125q2.778-.66 3.672-.55t1.836.707l.016.015q.188.157.518.424.47.377 1.208.973 1.71 1.161 6.23 2.793.878.314 1.867.643 4.315 1.444 6.637 2.95.722.471 1.255.957.032.032.047.08zm-31.524-3.86q-.173-.926-.456-1.93-.345-1.208-.8-2.166-.816-1.726-1.96-2.62-.017 0-.017-.016-.298-.314-.58-.627l-.267-.126q-1.067-.957-2.417-1.883.142 1.318.393 2.495-.063-.345-.095-.706 5.147 3.53 6.2 7.58m-9.589-16.1q-.424-.204-.83-.14h-.017q-.377.03-.644.25-.408.33-.596 1.035l.267.267v-.016l.816.66q.016.015.031.046 1.318 2.056 3.562 9.085l.722 2.386q1.13 2.385 3.546 4.472-.863-1.366-1.679-2.856-.14-.283-.266-.565-1.193-1.365-1.9-2.84l-.72-2.385q-1.947-6.073-3.186-8.442-.487-.816.894-.957M62.29 71.993q-.423-.235-.847-.565-.738 1.695-1.914 2.84-1.193 1.146-3.53.55-1.743-5.053-6.529-11.957l.69-.314q0-.047.032-.078.157-.252.33-.47 1.16-1.476 2.557-.99.047 0 .08.047.03.047.03.094v.032q3.546 6.355 4.237 8.473.188.596.33 1.177-.126-1.412-.628-2.966-.644-1.977-3.766-7.64l1.192-.017q-.078-.188-.157-.392-.643-.236-1.38-.22-.408.016-.848.094-1.333.251-2.26 1.193-.533.55-.925 1.333-.204.393-.377.848 5.9 8.112 6.418 12.945 3.437.392 4.896-.628 1.443-1.02 2.37-3.389m3.875-33.799q-.016-.016-.016-.03-5.476-.378-6.449-.66h.016q-1.412-.518-1.899-.659-.957-.267-1.993.078h-.015q-.173.078-2.997 2.165-3.61 2.652-4.974 3.75l-.424-.658q-.267.22-.55.44l1.272 2.007q1.365-1.098 4.974-3.75 2.824-2.087 2.997-2.165h.016q1.035-.345 1.992-.079.267.08.848.283l1.051.376H60q.973.283 6.45.66 0 .015.015.03.47.017.99.032h.501q5.382.08 7.893 1.083l.047.047-.267-1.6q.016-.048.016-.095t-.032-.078q-.03-.047-.063-.063-2.51-1.004-7.892-1.083h-.502l-.989-.03"/>
    <path fill="url(#bS)" d="m127.55 27.45-.15-.15q-.15-.05-.3 0-.45.1-.95.3-2.95 1-8.35 3.9-.25.15-.45.25-5.75 3.05-9.1 5.55-.7.5-7.1 8.15-.65.7-1.35 1.55-.7-4.25-3.7-8.5h.05q-.55-.8-1.1-1.5-6.1-7.65-17.25-8.45l-.1-.1q-4.7-6.55-6.55-8.6l-.05-.05q-3.35-3.4-6.4-4.65-3.4-1.4-6.45-.2-.1 0-.15.05-.1.1-.15.2-.1.15 0 .35 0 .15.2.25l.8.55q0 .05.1.1l4.2 1.55.3.2q3.1 1.8 1.75 5.35H65q-.2 0-.35.15l-.2.25-6.5 3.35q-.15.1-.25.25l-.05.15q-1.25-.35-2.25-1.55-1.95-2.2-.85-5.6.2-.85.65-1.75.05-.15.05-.25V17.1q-.05-.05-.1-.15-.1-.15-.25-.15-.2-.1-.3 0-.2.05-.25.2l-2.9 4.7q-.1.05-.1.15-.4 1.75-.35 3.8.15 4.65 2.75 10.75.75 1.8 1.75 3.75l-3.3 8.2q-.05 0-.05.05-.65 3.1-.45 6.25.15 3.35 1.25 6.75.45 1.35 1.05 2.75.55 1.35 1.25 2.75.7 1.35 1.55 2.7-10.2 1.3-12.2 2.05h-.05q-1.95.85-4.6 2.25-2.35 1.2-5.15 2.8-3.3 1.9-5.45 3.4-2.05 1.4-3.05 2.45-.1.1-.15.3 0 .15.05.3.05.1 2.45 2Q31 87 35.75 83.8q4.7-3.25 9.55-8.85 3.25-1.55 12.55-2.55 1.3 3.2 2.9 3.85l2.6 2.05.05.05q3.35 1.95 5.9 1.35.05-.05.15-.05l12.6-6.3q.45-.25.85-.45 6.95-3.75 11.15-6.6 3.45-2.4 5.1-4.25V62q5.25-3.3 3.6-9.95l-.1-.2-.6-.8-.95-1.2q.55-.65 1.1-1.25 6.85-7.95 8.7-9.15 1.95-1.3 6.05-1.8 4.05-.55 7.15-1.55t3.35-4.75q.2-2.7.2-3.5 0-.3-.05-.35zM94.1 44.75q.65 1.45.95 2.65.4 1.75 0 3-.25.75-.75 1.3-6.2 3.15-9.7 0-1.35-1.35-8.65-13.9-.8-2.05.65-2.95.4-.3.95-.45 10.55.4 14.65 6.9 1.15 1.85 1.9 3.45M59.6 42.7q2.05-2.15 4.05 0 4.15 7.85 6 12.15 1.25 2.85 1.4 4.1-.25 1.2-.8 2.45-.6 1.3-1.45 2.6-2.95 4.85-6.05 3.4-3.3-1.5-5.25-6-1-2.3-1.6-5.35-.3-1.4-.25-2.8.15-4.9 3.95-10.55" style="fill:url(#a)" transform="translate(10.4 14)scale(.31383)"/>
    <path fill="url(#bU)" d="M178.65 82.8q-.05-.05-.05-.1-17.45-1.2-20.55-2.1h.05q-1.95-.7-3.35-1.2-1.85-.65-2.7-.9-3.05-.85-6.35.25h-.05q-.55.25-9.55 6.9-11.5 8.45-15.85 11.95l-4.05-6.4q.9-.7 1.75-1.4 12.8-10.45 15.85-15.15l-.5.85q4.8-4.9 5.65-6.3v.05q1.95-3.1 1.6-6.1-.5-3.7-.75-6.6-.2-5.45 1.8-16.9.65-3.85 1.6-8.4 4.9-18.85 4.65-21.7-.25-2.65-1.15-3.2l-.2-.1q-1.05-.4-1.5-.5-.5-.1-.6 0-2.5.25-3.1 2.95-.65 6.45-2.5 17.7-.25 1.3-.95 13.25-.2 3.15-.4 7-.5 13.5-3.1 18.95-1.75 3.65-4 6.5-1.5 1.85-3.2 3.35-1.35 1.2-2.6 2.25-7.5 6.15-12.65 7.5-6.55-7.75-12.8-11.4-2.95-1.65-5.4-2.15-3.3-.75-5.8.55l-.05.05q-.35.2-.7.45-3.5 2.65-3.75 9.9-.1 2.35.2 4.9.3 3.45 1.3 7.35.65 2.55 1.6 5.25-4.3 2.95-12.9 6.2l-.6.2q-9.05 3.35-15.8 3.2h-.05q-.75-.1-1.6-.3-2.2-.5-5-1.6-4.7-1.85-11.05-5.35v-.05Q22.05 94.6 21 94.2q-.7-.25-2.8-1.9-1.15-.85-2.65-2.1-4.4-3.65-7.2-5.3t-3.85-.75q-.45.35-.7.6-.45.3-.5.35L.95 86.7q-.15.05-.2.25v.1q-.05.1 0 .2 0 .1.15.25 6.55 5.8 22.75 12.4 16.15 6.6 20.4 8.8 4.9 2.4 7.7 5.05.05 0 .1.05 2.5 1.6 8.1 1.35 5.6-.3 16.95-3.9 11.35-3.65 12-5.65l1.5 3.2 2.2 4.75.1.2.2.15q-5.15 1.8-19.45 7.65-12.7 1.65-14 4.2t-2.1 5q-2.2 14.3-11.15 29.6-6.4 10.6-8.8 18.15-.75 2.25-1.1 4.25-.1.45-.15.9 0 .1.05.25t.2.25q.1.05.25.05h2.85q.15 0 .25-.05.15-.1 1.25-1 1.05-.9 3.85-6.3 2.75-5.45 9.05-19l12-26.85h-.05q4.95-2.7 15.4-5.65 10.4-3 15.1-5.2l.65.2q4 6.1 8.55 10.7 2.25 2.3 4.7 4.2.05.1.15.15-.6.1-1.2.3-6.7 1.95-15.65 11.4-9.3 9.75-10.35 11.4-1.9 3-1.9 6.55v.1q.25 1.8.75 7.05.3 7.8-4.2 27.65h.05q-3.2 13.85-3.05 22.55 0 2.9.4 5.25.05.15.15.25t.25.15.3 0l2.6-1.05q.1-.05.2-.15.05-.1 2.3-6.95t2.7-11.75.35-4.85q-.1 0 .65-17.45.7-17.5 3.5-23.75v.05q3.65-7.3 12.25-14.55 7.25-5.85 13.45-7.6 1.65-.5 3.25-.65l1.25.45q-5.65 6.1-5.15 17.95.05 1.35.2 2.7 1.1 10.6 7.2 21.65h.05q5.55 9.8 13.25 16.45 7.7 6.4 15.2 7.7h1.9q1.85.55 6.3.3 3.5-.25 7.7 3.7 1.3.55 1.8-1-1.25-5.4-.3-8.5l1.5-5.2q0-.05.05-.1 2.6-7.5 1.3-17.05-.3-2.2-.75-4.35-1.8-7.65-6.15-15.3-6.65-11.9-16.15-18.5-9.2-6.4-17.4-5.7l.25-.75q1.85-2.45 4.9-4.5 4.2-2.9 10.8-4.95h.05q10.6-3.7 18.65-2.9 6.5.8 19.8 7.55 17.65 9.35 19.8 11.6 1.4 1.45 8.65 3.4t9.3 2.7q2 .75 2.15.75t.25-.1l2.6-1.85.2-.2v-.3q-.05-.15-.15-.25-1.7-1.55-4-3.05-7.4-4.8-21.15-9.4-3.15-1.05-5.95-2.05-14.4-5.2-19.85-8.9-2.35-1.9-3.85-3.1-1.05-.85-1.65-1.35l-.05-.05q-3-1.9-5.85-2.25t-11.7 1.75l-1.6.4q-1.4.3-2.85.75l-.9.25q-5 1.35-8 2.7-4.55 1.95-9.1 5.35-.2-2.75-.8-5.8-.15-.5-.25-1-1.55-7-5.4-15.4.45-.45 1.05-1 2.85-2.6 9.3-7.5 7.75-5.95 13.8-8.3 6-2.4 13.7-1.5 7.65.85 16.15 1.75t9.95 1.05q19.25 1.6 19.5 1.6.1 0 .25-.05.1-.05.2-.15l1.6-2.4q.05-.15.05-.3t-.1-.25l-.05-.05-.15-.15q-8-3.2-25.15-3.45h-1.6q-1.65-.05-3.15-.1m-16 100.2q1.35 1.05 2.7 1.8-2.95 7.55-7.55 10.8-4.65 3.25-15.6 2-1.65-15.4-20.45-41.25.55-1.45 1.2-2.7 1.25-2.5 2.95-4.25 2.95-3 7.2-3.8 1.4-.25 2.7-.3 2.35-.05 4.4.7.25.65.5 1.25 10.8 27.2 21.95 35.75M94.25 76.2l.4 1.1q-1.3 2.9 9.05 16.1 4.35 5.55 8.95 10.65.9 1 1.85 2 0 .05.05.05 3.65 2.85 6.25 8.35 1.45 3.05 2.55 6.9.9 3.2 1.45 6.15-3.35-12.9-19.75-24.15.1 1.15.3 2.25 1.3 10.1 4.55 17.2.4.9.85 1.8 2.6 4.75 5.35 9.1-7.7-6.65-11.3-14.25l-2.3-7.6q-7.15-22.4-11.35-28.95-.05-.1-.1-.15l-2.6-2.1v.05l-.85-.85q.6-2.25 1.9-3.3.85-.7 2.05-.8h.05q1.3-.2 2.65.45" style="fill:url(#b)" transform="translate(10.4 14)scale(.31383)"/>
</svg>
