<svg xmlns="http://www.w3.org/2000/svg" xml:space="preserve" width="88.338" height="104.242" preserveAspectRatio="none">
    <defs>
        <linearGradient id="a" x1="142.425" x2="88.575" y1="-4.588" y2="198.488" gradientTransform="translate(15.303 13.2)scale(.31383)" gradientUnits="userSpaceOnUse" spreadMethod="pad">
            <stop offset="6.275%" stop-color="#33B24A"/>
            <stop offset="25.882%" stop-color="#5ABF36"/>
            <stop offset="68.627%" stop-color="#64B12E"/>
            <stop offset="100%" stop-color="#56A231"/>
        </linearGradient>
    </defs>
    <path fill="#131414" d="M42.559 80.799q-.361.69-.392 1.631.11-.282.266-.517.267-.424.126-1.114m1.647 1.082q-.282-1.067-.266-2.495-.063.487-.251.942-.079 1.71.25 2.934.252.926 1.052 2.228.188.298.408.628.36.533.377.785l.235-1.224q.031-.047.031-.126.016-.235-.376-.816-1.146-1.71-1.46-2.856M59.93 61.326v.031q-.063.188-.125.361-.063.173-.157.33-.126.22-.298.423 1.867 6.041 1.537 9.384.895-2.919-.784-9.808-.079-.329-.157-.674-.015-.03-.016-.047M25.816 51.283q-.094.047-.204.094-.737.33-.91.706v.032q-.047.078-.047.188l-.235 1.224q.094-.314.565-.58.157-.095.36-.189.88-.376.628-.957-.094-.235-.157-.518m8.395 4.221q-.8-.549-1.083-1.004-.957-1.444 3.186 7.736 4.127 9.18 4.409 9.619 3.358 4.142 3.264 7.03 1.208-3.217-2.997-8.411-.283-.44-4.41-9.62-1.537-3.404-2.369-5.35m2.542-4.284q-.36-.878-.675-1.71-1.035-.314-2.416-.424H31.81l-1.851-1.443-.8 1.114 2.385 1.71h1.851q2.056.173 3.358.753m-9.901-8.269q-.204-.031-.267-.078-.11-.079-.172-.126.125.706.282 3.013.235 3.42.879 4.111.062.047.235.36.063.11.094.236.267-.423.298-.941.032-.345-.125-.675-.173-.314-.236-.36-.643-.691-.878-4.112Zm-.267-3.075h-.125l-.565.988h-1.193l-.596 1.13.737-.816 1.475.078 1.71-.564q1.962-.565 2.857-.66h.329l.879.095-.079-.094v-.079q-.36-.612-.549-1.302h-.314q-.894.094-2.856.659zm-8.08-7.595q.187-.031.407-.063 1.899-.33 1.852 1.13-.032.753.58 1.789.55.91 1.616 2.055 1.413 1.35 1.978 1.68.392.22.392-.048.094-.58 2.197-3.263 1.082-1.303 2.134-2.527l.33-.25.078-.581-.251-.236-.079.157q-.094.094-.235.032-.848.988-1.71 2.024-2.103 2.683-2.197 3.263 0 .11-.063.142-.314.14-2.307-1.773-2.26-2.401-2.197-3.845.047-1.46-1.851-1.13-1.899.314-2.166-.564-.266-.88-1.02.062-.298.361-.376.675-.047.11-.047.235l-.22 1.146q.079-.314.377-.66v-.015q.753-.941 1.02-.063.094.283.36.455.44.267 1.397.173m9.666-5.21v.032q.173-.204.44-.126l.14.095q.252-.816.738-1.554-.141-.173-.282-.33-.11.252-.189.503l-.141-.094q-.706-.22-.706 1.475m4.017-3.594q-.188-.58-.251-1.161l-.455.188-1.146.895q-1.396-2.04-3.263-2.37-3.515-.565-6.78 6.198l-.078.173-.188 1.208q.235-.486.47-.926 2.025-3.86 4.16-4.91 1.05-.534 2.149-.362 1.616.283 2.871 1.852.204.235.393.518l1.145-.895zm7.798-6.998q-.957-.44-3.53-.487-2.59-.062-3.766 1.774l-.408 1.24q-.094.454-.11.925l.251-.785q.502-.894 1.522-1.365 1.271-.627 3.374-.58 1.773 0 4.127.298-.518-.596-1.46-1.02m16.037 24.73q-.722-1.099-.518-.518.738 2.275-.643 9.461l3.985 6.512q1.146 2.244 1.177 3.813.816-1.82-.91-5.193l-3.86-7.234q.832-4.237.769-6.842m-5.1.534q.283-.895.848-1.946l1.302-2.197-.047-.847-.989 1.663q-1.05 1.946-1.114 3.327m-5.319-7.438q-.094.141-.204.283l-.33.721v.079h.079l5.539 8.41q-.11-.721.235-2.055zm.188-8.05q.487.252.047-1.427-1.192-.157-6.449.941l-.408-.235q.314-.251 0-1.208-.314-.958-1.789-2.197-1.475-1.256-1.977-.11-.8-.157-1.694-.079-.408-1.114-.408-2.008-.612 1.334.14 3.39.895-.08 1.696.078.502-1.146 1.977.11 1.475 1.24 1.788 2.196.314.958 0 1.209l.408.235q5.869-1.224 6.67-.894m-2.213-10.263-.126.22q-.722 1.114-.47 1.726.094-.172.204-.345.533-.989.392-1.6m1.49-1.115q.204.236.283.69l.267-1.38q-.22-1.24-1.46-.926-.925.251-.878.55l-.236 1.27q.11-.235.8-.423.032-.016.048-.016.784-.204 1.176.235m-.345 1.46q-.062.062-.141.125-.565.487-.251 1.067.737 1.051.989 2.275l1.553 6.293 1.13.737-.58.895h-.472l-.643.58q-1.553 1.538-1.789 2.181l-.486.58q-.738-.972-1.789-1.631-.063-.173-.125-.314-.722.173-1.115.141.55.424.973 1.538v.016q.77.486 1.381 1.145.22.236.408.487l.487-.58q.235-.644 1.788-2.182.832-.753 1.554-1.397l.58-1.38 1.052-.251.33 1.302 6.025 4.33q.69.597 1.067 1.115.047.047.078.094.408.58 1.146.33.313-.157.58-.22.58-.141.989.141.078.063.141.126.125.156.125.376l.173-.91q.11-.314.094-.533-.031-.267-.266-.44-.597-.423-1.57.079-.737.25-1.145-.33-.392-.55-1.146-1.208l-6.025-4.33-.33-1.303-1.05.25-1.303-.815-1.554-6.292q-.235-1.114-.863-2.087m28.574 47.529h.016q1.035.078 1.742.847.627.737.753 3.06.015.157.015.33.095.737.095 1.098l.22-1.099q.11-.188-.048-1.38-.094-2.605-.769-3.39-.706-.769-1.757-.847-.91 0-1.961-1.962-1.146-2.134-2.778-4.66L56.101 37.679l-1.224-3.091q-.251-.236-.393-.644l-1.318-.596-.267 1.38 1.475.66 1.46 3.672 12.725 18.185q1.632 2.526 2.778 4.66.518.957 1.004 1.46.486.502.957.502m-20.79 5.696q-.456.298-.519.768.095.33.251.612.424.754 1.287 1.115.47.188 1.099.25 2.777.22 4.252-2.447.172-.644.172-1.208-1.475 2.494-4.158 2.275-1.726-.173-2.385-1.365M49.51 66.41q-.235.031-.455.062-.675 1.162 1.57 2.291 1.38-.313 2.745-.941 1.114-.502 2.213-1.224.062-.031.11-.063 2.322-1.522 2.62-1.679.204-.737.11-1.286-.55.329-2.574 1.647-2.432 1.585-4.958 2.166-.957-.487-1.38-.973m2.4-.597.267-1.38-10.64-22.125q-2.023-3.044-2.416-3.076zm-19.128-28.7q-.235.158-.22.801 0 .644 1.805 2.7 2.48.642 4.064-1.696-.125-.408-.235-.737-1.46 1.6-3.562 1.051-1.46-1.255-1.852-2.118m2.228-2.417q-.172.11-.455.126-1.365.063-1.867-.173-.518-.266-.69-1.428-.142-.941-.204-1.522-.33.581-.299 1.083.048.628.236 1.82.172 1.161.69 1.428.126.063.298.094.534.126 1.57.079.376-.032.58-.236.345-.376.141-1.27m.283-3.97q-.251-.283-.408-.393.016 1.209.235 2.401.157.455.204.816.596 1.883 1.726 2.009h.236q.408-.032.564-.236.252-.345-.14-1.161-.08.016-.158.016-1.428.078-2.087-2.448-.11-.502-.172-1.004m-2.338-4.472q.094.408.11.768.015.77-.283 1.397-.078.173-.188.33-.91 1.318-.267 1.13.173-.064.455-.22.314-.189.612-.267.643-.173 1.271.172.063-.863.455-1.145.392-.314.738-.377.14-.031.33-.125.219-.126.501-.345.11-.095.142-.142.062-.235-1.005-.172-.314.015-.627-.032-.942-.125-1.946-.768-.141-.095-.298-.204m10.482 10.105v-.69q-.722 1.176-3.154 1.772-.487-.22-1.067-1.679-.22.063-.455.126-.189.33 0 .738.549 1.522 1.004 2.008.125.141.25.188.142-.031.268-.062 2.84-.77 3.154-2.401m-2.574-3.907q.079-.314-.031-.675-.236.408-.612.816-.69.722-2.4-1.585-1.037-1.397-1.429-2.181-.47.11-.502.612-.016.141.079.392.266.785 1.584 2.558.298.392.565.706 1.271 1.475 1.836.879.69-.738.91-1.522" style="stroke-width:.313827"/>
    <path fill="url(#bS)" d="M73.314 63.868h-.016q-.47 0-.957-.502-.486-.503-1.004-1.46-1.146-2.134-2.778-4.66L55.834 39.06l-1.46-3.672-1.475-.66.126 2.025.047.847-1.302 2.197q-.565 1.051-.848 1.946-.345 1.334-.235 2.055l-5.54-8.41h-.078v-.079l.33-.721q.11-.142.204-.283 3.374-4.801 3.374-5.445l5.303 4.096q.047.58.204.988.142.408.393.644.392.376 1.05.266 1.444-.235 1.868-.14.392.093.66.768.266.675.925-.33.345-.533.33-.894 0-.22-.126-.376-.063-.063-.141-.126-.408-.282-.989-.141-.267.063-.58.22-.738.25-1.146-.33-.031-.047-.078-.094-.377-.518-1.067-1.114l-6.026-4.331-.33-1.302-1.05.25-.581 1.381q-.722.644-1.554 1.397-1.553 1.538-1.788 2.181l-.487.58q-.188-.25-.408-.486-.612-.659-1.38-1.145v-.016q-.424-1.114-.974-1.538.393.032 1.115-.14 1.333-.33 3.765-1.397h1.538l.58-.895-1.129-.737-1.553-6.293q-.252-1.224-.989-2.275-.314-.58.251-1.067.079-.063.141-.125.534-.55.628-.77-.079-.454-.283-.69-.392-.439-1.176-.235-.016 0-.047.016-.69.188-.8.423-.095.157.14.33.299.235.393.58.141.612-.392 1.6-.11.174-.204.346-.77 1.397.25 1.867 1.146.534 2.197 3.656.251.785.408 1.366.44 1.679-.047 1.428-.8-.33-6.669.894l-.407-.235q.313-.251 0-1.209-.314-.957-1.79-2.196-1.474-1.256-1.976-.11-.8-.157-1.695-.079-.753-2.055-.141-3.39.062-.14.14-.282 1.46-2.275 7.501-1.223 1.303-.251.69-.926-2.353-.298-4.126-.298-2.103-.047-3.374.58-1.02.471-1.522 1.365l-.25.785-.158.455q-.188.973-.078 1.93.063.58.25 1.161l-.972.408-1.145.895q-.189-.283-.393-.518-1.255-1.57-2.871-1.852-1.099-.172-2.15.361-2.134 1.051-4.158 4.911-.235.44-.47.926l-.08.173q.738.91 1.225-.173l2.369-3.734q2.793-2.887 5.665.314.14.156.282.33-.486.737-.737 1.552l-.142-.094q-.266-.078-.44.126-.266.314-.266 1.35 0 1.663.77 2.824.517.769.83.878.142.063.236-.03l.079-.158.25.236-.078.58-.33.251q-1.05 1.224-2.133 2.526-2.103 2.684-2.197 3.264 0 .267-.392.047-.565-.33-1.978-1.679-1.067-1.145-1.616-2.055-.612-1.036-.58-1.789.047-1.46-1.852-1.13-.22.032-.408.063-.957.094-1.396-.173-.267-.172-.361-.455-.267-.878-1.02.063v.016q-.298.345-.377.659-.031.094-.047.188v.016q-.031.376.282.675.612.627 1.428.11.8-.518 1.256.345t1.506 1.663l4.896 4.237v1.24h1.224l.565-.99.188-.329q3.17-2.448 3.656-3.5l.33-.25.25.424v.14l.33.503q0 .941.251 1.789.188.69.55 1.302v.079l.078.094-.879-.094h-.33q-.894.094-2.855.659l-1.71.564-1.476-.078-.737.816 1.067.816.424 7.343q.078.628.22 1.13.062.283.156.518.251.58-.627.957-.204.094-.361.188-.471.267-.565.581-.016.063-.016.126-.016.14.047.298.283.627 1.067.627.769 0 1.02-.062.235-.063.251-.173.016-.078-.11-.22-.44-.502-.376-.91.015-.015.031-.015.173-.22.534-.55.156-.157.345-.33.659-.564.722-1.411.015-.22-.032-.44-.031-.125-.094-.235-.173-.314-.235-.361-.644-.69-.879-4.111-.157-2.307-.282-3.013.062.047.172.126.063.047.267.078 1.145.141 6.543-.628l.91 1.79q.69 2.526 1.773 5.397.314.832.675 1.71-1.302-.58-3.358-.753h-1.851l-2.386-1.71-.235 1.632 2.291 3.185 8.3 20.634q1.24 2.7 2.37 4.896.534.973.675 1.695.141.69-.126 1.114-.157.235-.266.517-.283.722-.267 1.664 0 1.318 2.322 2.526 1.46.753 1.554.361v-.079q-.016-.25-.377-.784-.22-.33-.408-.628-.8-1.302-1.051-2.228-.33-1.224-.251-2.934.188-.455.25-.942.032-.25.048-.502.094-2.887-3.264-7.03-.282-.439-4.41-9.618-4.142-9.18-3.185-7.736.283.455 1.083 1.004 1.758 1.24 6.041 3.044l3.437 6.779q2.432 3.75 4.817 3.342 2.762 3.248 5.115 5.053 1.083 1.24 2.62 1.46 1.633.752 2.935.093.486-.25.737-.643.785-1.02.973-2.777.33-3.343-1.537-9.384.172-.204.298-.424.094-.156.157-.33.062-.172.125-.36v-.031q.079-.346.094-.754v-.094q-.031-1.569-1.177-3.813l-3.985-6.512q1.38-7.186.643-9.461-.204-.581.518.517 1.114 1.664 4.44 7.234 5.493 9.227 6.403 9.807 1.459 5.272 3.734 5.963 2.291.706 2.887 1.412 1.036 1.255 1.836 3.044.408.957.534.832.063-.047.063-.298 0-.361-.095-1.099 0-.172-.015-.33-.126-2.322-.753-3.059-.707-.769-1.742-.847m-32.481-32.09q.11.362.031.676-.22.784-.91 1.522-.565.596-1.836-.879-.267-.314-.565-.706-1.318-1.773-1.584-2.558-.095-.25-.079-.392.031-.502.502-.612.141-.031.33-.031.8.015 1.632.392.847.376 1.773 1.428.549.627.706 1.16m2.605 3.892v.69q-.314 1.633-3.154 2.402l-.267.062q-.126-.047-.251-.188-.455-.486-1.004-2.008-.189-.408 0-.738.235-.063.455-.126 1.914-.643 2.04-1.96.047-.472.11-.801.25-.77.831-.33.941.69 1.24 2.997m-10.372-8.645q-.016-.36-.11-.768.157.11.298.204 1.004.643 1.946.768.313.047.627.032 1.067-.063 1.005.172-.032.047-.142.142-.282.22-.502.345-.188.094-.33.125-.345.063-.737.377-.392.282-.455 1.145-.628-.345-1.27-.172-.299.078-.613.267-.282.156-.455.22-.643.188.267-1.13.11-.157.188-.33.298-.628.283-1.397m1.82 3.311q.157.11.408.393.596.674 1.773 2.369.424.612.643 1.067.393.816.141 1.161-.156.204-.564.236h-.236q-1.13-.126-1.726-2.009-.063-.204-.125-.44-.047-.188-.079-.376-.22-1.192-.235-2.4m-.204 3.294q.235.597.33 1.067.203.895-.142 1.271-.204.204-.58.236-1.036.047-1.57-.079-.172-.031-.298-.094-.518-.267-.69-1.428-.188-1.192-.236-1.82-.03-.502.299-1.083.078-.172.188-.33.533-.8 1.098-.627.628.44 1.6 2.887m-1.898 3.484q.47-.283 1.444.11 1.49.596 3.107-.675.266-.204.863 1.632.11.33.235.737-1.585 2.338-4.064 1.695-1.804-2.055-1.804-2.699-.016-.643.22-.8M49.51 66.41q1.177-.189 2.4-.597l-12.788-26.58q.393.03 2.417 3.075 2.071 3.138 5.884 9.462 3.766 6.292 7.36 12.49 1.553-1.051 2.573-2.181h.36q.55.831.691 1.412.016.031.016.079.094.549-.11 1.286-.298.157-2.62 1.68-.048.03-.11.062-1.099.722-2.213 1.224-1.365.628-2.746.941-2.244-1.13-1.569-2.29.22-.032.455-.063m2.48 3.922q.062-.47.517-.768.063-.032.141-.079 2.433-1.522 4.221-2.228 1.773-.722 2.009.36.172.487.172 1.037 0 .564-.172 1.208-1.475 2.667-4.252 2.448-.628-.063-1.099-.251-.863-.361-1.287-1.115-.156-.282-.25-.612" style="fill:url(#a);stroke-width:.313827"/>
</svg>
