<svg xmlns="http://www.w3.org/2000/svg" xml:space="preserve" width="88.337" height="104.229" preserveAspectRatio="none">
    <defs>
        <linearGradient id="c" x1="1155.525" x2="1084.775" y1="625.875" y2="748.425" gradientUnits="userSpaceOnUse" spreadMethod="pad">
            <stop offset=".784%" stop-color="#064966"/>
            <stop offset="26.275%" stop-color="#1D3752"/>
            <stop offset="100%" stop-color="#28629D"/>
        </linearGradient>
        <linearGradient id="d" x1="1155.525" x2="1084.775" y1="625.875" y2="748.425" gradientUnits="userSpaceOnUse" spreadMethod="pad">
            <stop offset=".784%" stop-color="#064966"/>
            <stop offset="26.275%" stop-color="#36587B"/>
            <stop offset="100%" stop-color="#28629D"/>
        </linearGradient>
        <linearGradient id="e" x1="56.95" x2="127.55" y1="27.85" y2="27.85" gradientUnits="userSpaceOnUse" spreadMethod="pad">
            <stop offset=".784%" stop-color="#064966"/>
            <stop offset="26.275%" stop-color="#1D3752"/>
            <stop offset="100%" stop-color="#28629D"/>
        </linearGradient>
        <linearGradient id="f" x1="672.138" x2="725.263" y1="-956.537" y2="-925.862" gradientUnits="userSpaceOnUse" spreadMethod="pad">
            <stop offset="4.314%" stop-color="#064966"/>
            <stop offset="27.843%" stop-color="#335D88"/>
            <stop offset="40%" stop-color="#1C4A68"/>
        </linearGradient>
        <linearGradient id="g" x1="1155.525" x2="1084.775" y1="625.875" y2="748.425" gradientUnits="userSpaceOnUse" spreadMethod="pad">
            <stop offset=".784%" stop-color="#064966"/>
            <stop offset="26.275%" stop-color="#355F8D"/>
            <stop offset="100%" stop-color="#28629D"/>
        </linearGradient>
        <filter id="b" width="1" height="1" x="0" y="0" color-interpolation-filters="sRGB">
            <feColorMatrix in="SourceGraphic" result="result1" values="1 0 0 0 0 0 1 0 0 0 0 0 1 0 0 0 0 0 0.1 0"/>
        </filter>
    </defs>
    <g filter="url(#a)" style="filter:url(#b)" transform="translate(8.4 11.4)scale(.31379)">
        <path fill="url(#E)" d="M113.95 140q-.05.05-.05.15-1.85 4.95-1.55 11.9.2 4.15 1.15 8.4-.15-1.35-.2-2.7-.2-4.8.6-8.65 1.2-5.65 4.55-9.3l-1.25-.45q-1.6.15-3.25.65m10.85-12.5q-.55-2.95-1.45-6.15-1.1-3.85-2.55-6.9-2.6-5.5-6.25-8.35-.05 0-.05-.05-.95-1-1.85-2-1.05-1.15-2.1-2.35l-1.05-1.2-3.65 3.4q15.7 11 18.95 23.6m3.9-8.5q-.7-7.3-4.35-16.4-.6.55-1.05 1 3.85 8.4 5.4 15.4m-48.35 40.35v.1q.25 1.8.75 7.05.3 7.8-4.2 27.65h.05q-4.25 18.5-2.65 27.8.05.15.15.25t.25.15q.05 0 .15.05-.15-8.7 3.05-22.55h-.05q4.5-19.85 4.2-27.65-.5-5.25-.75-7.05v-.1q0-3.55 1.9-6.55 1.05-1.65 10.35-11.4 8.95-9.45 15.65-11.4.6-.2 1.2-.3-.1-.05-.15-.15-2.45-1.9-4.7-4.2-5.75 2.75-12.95 10.35-9.3 9.75-10.35 11.4-1.9 3-1.9 6.55m-23-28.6q.8-2.45 2.1-5t14-4.2q14.3-5.85 19.45-7.65l-.2-.15-.1-.2-2.2-4.75q-5.55 2-17.9 7.05-12.7 1.65-14 4.2t-2.1 5q-2.2 14.3-11.15 29.6-8.75 14.5-10.05 23.3 0 .1.05.25l1.05 4.55q.35-2 1.1-4.25 2.4-7.55 8.8-18.15 8.95-15.3 11.15-29.6m10.5-72.45q-2.95 4.85-6.05 3.4-3.3-1.5-5.25-6-.5-1.15-.9-2.45-.05 1.4.25 2.8.6 3.05 1.6 5.35 1.95 4.5 5.25 6 3.1 1.45 6.05-3.4.85-1.3 1.45-2.6.55-1.25.8-2.45-.15-1.25-1.4-4.1-.15.4-.35.85-.6 1.3-1.45 2.6m-41.7 24.55q.05-.2.15-.3 1-1.05 3.05-2.45 2.15-1.5 5.45-3.4 2.8-1.6 5.15-2.8 2.65-1.4 4.6-2.25h.05q2-.75 12.2-2.05-.85-1.35-1.55-2.7-.7-1.4-1.25-2.75-8.55 1.1-10.35 1.8h-.05q-3.65 1.6-9.75 5.05-6.4 3.7-8.5 5.85-.1.1-.15.3 0 .15.05.3zM3.3 85.1q.05-.05.5-.35.25-.25.7-.6 1.05-.9 3.85.75t7.2 5.3q1.5 1.25 2.65 2.1 2.1 1.65 2.8 1.9 1.05.4 18.5 8.2v.05q6.35 3.5 11.05 5.35 2.8 1.1 5 1.6.85.2 1.6.3h.05q6.75.15 15.8-3.2l.6-.2q8.6-3.25 12.9-6.2-.95-2.7-1.6-5.25-4.45 2.85-12.85 5.95-9.05 3.35-15.8 3.2h-.05q-6-.8-17.65-7.25v-.05q-17.45-7.8-18.5-8.2t-5.45-4q-4.4-3.65-7.2-5.3t-3.85-.75q-1.1.85-1.2.95L0 81l.75 6.05v-.1q.05-.2.2-.25zm51-73.55q0-.15-.1-.3t-.25-.15q-.2-.1-.3 0-.2.05-.25.2-1.6 1.85-2.15 3.15-.6 1.3-1.15 3.45-.6 2.15.9 7.75-.05-1.95.3-3.6 1.2-3.6 3.05-5.05.05-.15.25-.2.1-.1.3 0 .15 0 .25.15.05.1.1.15zm9.25 6.65-.05.05q-2 9.6-8.95 2.3-1.1 3.4-.1 5.15t5 1.95 5.85-3.95q1.8-4.15-1.75-5.5m30.7 58q-1.35-.65-2.65-.45h-.05q-1.2.1-2.05.8-1.3 1.05-1.9 3.3l.85.85v-.05l2.6 2.1q.05.05.1.15 4.2 6.55 11.35 28.95l2.3 7.6q3.35 7.1 10.3 13.35l1 .9q-.3-.45-.55-.9-2.45-3.95-4.8-8.2-.45-.9-.85-1.8-3.8-4.35-6.05-9.05l-2.3-7.6q-6.2-19.35-10.15-26.9-1.55-2.6 2.85-3.05m.8-28.8q-.3-1.2-.95-2.65-.25.7-.75 1.25-6.2 3.15-9.7 0-1.2-1.2-7.05-11.15-1.45.9-.65 2.95 7.3 12.55 8.65 13.9 3.5 3.15 9.7 0 .5-.55.75-1.3.4-1.25 0-3m54.3 125.75q-.2-.75-.45-1.5-2.05-6.3-10.2-23.75-2.15.4-4.3 1.55.75.05 1.6.35h.05q-.1 0 4.15 7.75 4.25 7.7 6.7 12.95 2.4 5.2 2.95 6.85.6 1.9 1.05 3.75-.35-3.8-1.55-7.95m16 11.65q-1.35-.75-2.7-1.8-.9 4.55-4.65 8.25-3.8 3.7-13.15 2.55-2.95-9.35-9.3-20.65-4.65-8.2-11.05-17.45l-2.75.65q6.55 9.05 11.05 16.8 8.35 14.45 9.4 24.45 10.95 1.25 15.6-2 4.6-3.25 7.55-10.8m3.15-12.1q-.4-3.1-1.25-6.2-1.8-6.75-5.65-13.45-6.65-11.9-16.15-18.5-1.35-.95-2.7-1.75-4.4-2.6-8.6-3.5-2.4 1.6-4.05 3.5-.45.5-.85 1l-.25.75q8.2-.7 17.4 5.7 9.5 6.6 16.15 18.5 2.95 5.15 4.7 10.3.85 2.5 1.45 5-.1-.65-.2-1.35m53.75-31q2.3 1.5 4 3.05.1.1.15.25l-1.15-5.2.2-.2v-.3q-.05-.15-.15-.25-7.1-6.4-25.15-12.45-19.3-6.55-25.8-10.95-3.95-3.15-5.5-4.45l-.05-.05q-3-1.9-5.85-2.25t-11.7 1.75-13.35 4.1q-4.5 1.9-8.95 5.25.6 3.05.8 5.8 4.55-3.4 9.1-5.35 3-1.35 8-2.7l.9-.25q1.45-.45 2.85-.75l1.6-.4q8.85-2.1 11.7-1.75t5.85 2.25l.05.05q.6.5 1.65 1.35 1.5 1.2 3.85 3.1 5.45 3.7 19.85 8.9 2.8 1 5.95 2.05 13.75 4.6 21.15 9.4m-43.65-59q0 .05.05.1 1.5.05 3.15.1h1.6q17.15.25 25.15 3.45l.15.15-.85-5.1q.05-.15.05-.3t-.1-.25q-.1-.15-.2-.2-8-3.2-25.15-3.45h-1.6q-1.65-.05-3.15-.1-.05-.05-.05-.1-17.45-1.2-20.55-2.1h.05q-4.5-1.65-6.05-2.1-3.05-.85-6.35.25h-.05q-.55.25-9.55 6.9-11.5 8.45-15.85 11.95l-1.35-2.1q-.85.7-1.75 1.4l4.05 6.4q4.35-3.5 15.85-11.95 9-6.65 9.55-6.9h.05q3.3-1.1 6.35-.25.85.25 2.7.9 1.4.5 3.35 1.2h-.05q3.1.9 20.55 2.1" style="fill:url(#c)"/>
        <path fill="url(#F)" d="M51.25 42.65q-.05 0-.05.05-1.2 5.9.5 11.95-.2-3.15.45-6.25 0-.05.05-.05l3.3-8.2q-1-1.95-1.75-3.75z" style="fill:url(#d)"/>
        <path fill="url(#G)" d="M126.65 23q.05-1.15 0-1.2-.1-.15-.2-.2-.15-.05-.3 0-2.95.75-9.3 4.2-6.05 3.2-9.55 5.8-.75.55-8.45 9.7-.7-4.25-3.7-8.5h.05q-.55-.8-1.1-1.5-6.1-7.65-17.25-8.45l-.1-.1q-4.7-6.55-6.55-8.6l-.05-.05Q63.1 6.95 57.3 9.25q-.2.05-.3.25-.1.15 0 .35L58.1 15q.05-.05.15-.05 3.05-1.2 6.45.2 3.05 1.25 6.4 4.65l.05.05q1.85 2.05 6.55 8.6l.1.1q11.15.8 17.25 8.45.55.7 1.1 1.5h-.05q3 4.25 3.7 8.5.7-.85 1.35-1.55 6.4-7.65 7.1-8.15 3.35-2.5 9.1-5.55.2-.1.45-.25 5.4-2.9 8.35-3.9.5-.2.95-.3.15-.05.3 0l.15.15z" style="fill:url(#e)"/>
        <path fill="url(#H)" d="M98.15 68.1q-2.2-1.2-4.1-1.8-4.2 2.85-11.15 6.6-.4 1.8-.45 4-.2 4.85 1.15 10.6-.3-2.55-.2-4.9.25-7.25 3.75-9.9.35-.25.7-.45l.05-.05q2.5-1.3 5.8-.55 2.45.5 5.4 2.15 6.25 3.65 12.8 11.4l-.95-5.7q-6.55-7.75-12.8-11.4" style="fill:url(#f)"/>
        <path fill="url(#I)" d="M144.05.05q-.5-.1-.6 0-2.5.25-3.1 2.95-.65 6.45-2.5 17.7-.25 1.3-.95 13.25-.2 3.15-.4 7-.5 13.5-3.1 18.95-2.85 5.95-7.2 9.85-9.2 8.15-15.25 9.75l.95 5.7q5.15-1.35 12.65-7.5 1.25-1.05 2.6-2.25 1.7-1.5 3.2-3.35 2.25-2.85 4-6.5 2.6-5.45 3.1-18.95.2-3.85.4-7 .7-11.95.95-13.25 1.85-11.25 2.5-17.7.6-2.7 3.1-2.95.1-.1.6 0 .45.1 1.5.5.1.05.8.9.3.55.45 1.5.097-3.961-.4-5.75-.5-1.8-1.65-2.25-1.2-.5-1.65-.6" style="fill:url(#g)"/>
        <path fill="#1d3752" d="m138.7 147.9 2-.65q-.25-.6-.5-1.25-2.05-.75-4.4-.7-1.3.05-2.7.3-4.25.8-7.2 3.8-1.7 1.75-2.95 4.25-.65 1.25-1.2 2.7l2.75-.65 2.2-1q0-.15.1-.25.5-.8 1.05-1.5 3-3.8 6.5-3.5h.05q2.15-1.15 4.3-1.55"/>
    </g>
    <path fill="#0097d9" d="M48.543 20.211q0-.094-.015-.11l-.016-.015-.047-.047q-.047-.016-.094 0-.141.031-.298.094-.926.314-2.62 1.224-.079.047-.142.078-1.804.957-2.855 1.742-.22.157-2.228 2.557-.204.22-.424.487-.22-1.334-1.16-2.668h.015q-.173-.25-.345-.47-1.914-2.4-5.413-2.652l-.031-.031q-1.475-2.056-2.056-2.699l-.015-.016q-1.052-1.066-2.009-1.459-1.067-.439-2.024-.062-.031 0-.047.015-.031.032-.047.063-.031.047 0 .11 0 .047.063.078l.282.204 1.318.487.094.062q1.114.424.55 1.726-.58 1.302-1.836 1.24-1.255-.063-1.569-.612-.314-.55.031-1.616.063-.267.204-.55.016-.046.016-.078v-.455q-.016-.016-.031-.047-.032-.047-.079-.047-.063-.031-.094 0-.063.016-.078.063-.58.455-.957 1.584-.11.518-.095 1.13.047 1.46.863 3.373.236.565.55 1.177l-1.036 2.573q-.016 0-.016.016-.204.973-.141 1.961.047 1.051.392 2.118.141.424.33.863.172.424.392.863.22.424.486.847-3.2.408-3.828.643h-.016q-.611.267-1.443.706-.737.377-1.616.88-1.036.595-1.71 1.066-.643.44-.957.769-.032.031-.047.094 0 .047.015.094.016.031.77.628.737.58 2.227-.424 1.475-1.02 2.997-2.777 1.02-.486 3.938-.8.408 1.004.91 1.208l.816.643.015.016q1.052.612 1.852.423.015-.015.047-.015l3.954-1.977q.14-.079.266-.141 2.181-1.177 3.5-2.071 1.082-.753 1.6-1.334v-.016q1.647-1.035 1.13-3.122l-.032-.063-.487-.627q.173-.204.345-.392 2.15-2.495 2.73-2.872.612-.408 1.899-.564 1.27-.173 2.244-.487.972-.314 1.05-1.49.063-.848.063-1.099m-10.23 7.076q-.078.236-.234.408-1.946.989-3.044 0-.424-.423-2.715-4.361-.25-.644.204-.926.126-.094.299-.141 3.31.125 4.597 2.165.36.58.596 1.082.204.455.298.832.125.55 0 .941m-12.363.895q.047-1.538 1.239-3.31.643-.675 1.27 0 1.303 2.462 1.884 3.812.392.894.439 1.286-.079.377-.251.77-.188.407-.455.815-.926 1.522-1.899 1.067-1.035-.47-1.647-1.883-.314-.722-.502-1.679-.094-.439-.078-.878m38.172 10.606 3.122.33q6.04.501 6.12.501.03 0 .078-.015.031-.016.063-.047l.502-.753q.015-.048.015-.095t-.031-.078l-.016-.016-.047-.047q-2.51-1.004-7.892-1.082h-.502l-.988-.032q-.016-.015-.016-.031-5.476-.377-6.448-.66h.015l-1.05-.376q-.581-.204-.848-.282-.957-.267-1.993.078h-.015q-.173.079-2.997 2.166-3.609 2.651-4.974 3.75l-1.27-2.009q.282-.22.549-.44 4.016-3.278 4.973-4.753l-.157.267q1.507-1.538 1.773-1.977v.015q.612-.972.502-1.914-.157-1.16-.235-2.07-.063-1.71.565-5.304.204-1.208.502-2.636 1.537-5.915 1.459-6.809-.016-.157-.031-.282-.047-.298-.142-.471-.22-.267-.25-.282-.33-.126-.471-.157-.157-.032-.189 0-.784.078-.972.925-.204 2.024-.785 5.554-.078.408-.298 4.158-.063.989-.125 2.197-.157 4.236-.973 5.946-.55 1.145-1.255 2.04-.471.58-1.004 1.05-.424.377-.816.707-2.354 1.93-3.97 2.353-2.055-2.432-4.016-3.577-.926-.518-1.695-.675-1.035-.235-1.82.173l-.015.016q-.11.062-.22.14-1.098.832-1.177 3.107-.031.738.063 1.538.094 1.083.408 2.306.204.8.502 1.648-1.35.926-4.048 1.945l-.188.063q-2.84 1.051-4.958 1.004h-.016q-.235-.031-.502-.094-.69-.157-1.569-.502-1.475-.58-3.467-1.679v-.015q-5.476-2.448-5.805-2.574-.22-.078-.879-.596-.36-.266-.832-.659-1.38-1.145-2.259-1.663-.878-.518-1.208-.235-.141.11-.22.188-.14.094-.156.11l-.738.502q-.047.016-.063.078v.032q-.015.031 0 .063 0 .031.047.078 2.056 1.82 7.14 3.891 5.067 2.071 6.4 2.761 1.538.754 2.417 1.585.015 0 .031.016.785.502 2.542.423 1.757-.094 5.319-1.223 3.561-1.146 3.765-1.773l1.161 2.494.031.063.063.047q-1.616.565-6.103 2.4-3.985.518-4.393 1.319t-.659 1.569q-.69 4.487-3.499 9.288-2.008 3.326-2.761 5.695-.236.706-.345 1.334-.032.14-.047.282 0 .031.015.079.016.047.063.078.031.016.078.016h.895q.047 0 .078-.016.047-.031.392-.314.33-.282 1.209-1.977.863-1.71 2.84-5.962l3.765-8.425h-.016q1.553-.847 4.833-1.773 3.263-.941 4.738-1.632l.204.063q1.255 1.914 2.683 3.358.706.721 1.475 1.318.015.031.047.047-.189.031-.377.094-2.102.612-4.91 3.577-2.919 3.06-3.249 3.577Q34 62.15 34 63.264v.03q.079.566.236 2.213.094 2.448-1.318 8.676h.015q-1.004 4.347-.957 7.076 0 .91.126 1.648.016.047.047.078.031.032.078.047.047.016.094 0l.816-.33q.032-.015.063-.046.016-.032.722-2.181t.847-3.687.11-1.522q-.031 0 .204-5.476.22-5.49 1.098-7.452v.016q1.145-2.291 3.844-4.566 2.26-1.836 4.205-2.37l.016-.015q.517-.157 1.02-.204l.392.141q-1.052 1.146-1.428 2.919-.251 1.208-.188 2.714.015.424.062.847.047.455.126.926.25 1.522.831 3.06.518 1.396 1.303 2.808h.015q1.742 3.075 4.158 5.162 2.416 2.008 4.77 2.416h.596q.58.172 1.977.094 1.098-.079 2.416 1.16.408.174.565-.313-.392-1.694-.094-2.667l.47-1.632q0-.015.016-.031.816-2.354.408-5.35-.094-.69-.235-1.365-.189-.785-.455-1.57-.55-1.615-1.475-3.231-2.087-3.734-5.068-5.805-2.887-2.009-5.46-1.79l.079-.234q.125-.157.266-.314.518-.596 1.271-1.098 1.318-.91 3.39-1.554h.015q3.326-1.16 5.852-.91 2.04.251 6.213 2.37 5.538 2.933 6.213 3.64.44.454 2.714 1.066t2.919.848q.627.235.674.235t.079-.032l.816-.58.062-.063v-.094q-.015-.047-.047-.078-.533-.487-1.255-.957-2.322-1.507-6.637-2.95-.988-.33-1.867-.643-4.518-1.632-6.228-2.793-.738-.596-1.208-.973-.33-.267-.518-.423l-.016-.016q-.941-.596-1.836-.706-.894-.11-3.671.549l-.502.125q-.44.095-.894.236l-.283.078q-1.569.424-2.51.847-1.428.612-2.856 1.68-.062-.864-.25-1.82-.048-.158-.08-.315-.485-2.196-1.694-4.832.142-.141.33-.314.894-.816 2.918-2.353 2.432-1.867 4.33-2.605 1.883-.753 4.3-.47 2.4.266 5.067.549m-28.147-2.26q.188-.705.596-1.035.267-.22.644-.251h.015q.408-.063.832.141l.125.345q-.408.91 2.84 5.052.894 1.146 1.82 2.228l.33.377q.33.376.659.737.282.314.58.628 0 .016.016.016 1.145.894 1.961 2.62.455.957.8 2.165.283 1.004.455 1.93-1.02-3.954-5.946-7.406v1.193q.25 2.51 1.27 4.738.126.282.267.565.738 1.333 1.507 2.573.078.141.172.282l-.314-.282q-2.18-1.961-3.232-4.19l-.721-2.384q-2.244-7.03-3.562-9.084-.016-.032-.031-.047l-.816-.66v.016zM47.07 59.686q.392-.784.925-1.333.926-.942 2.26-1.193.439-.078.847-.094.737-.016 1.38.22.079.204.157.392 2.024 5.115 4.111 8.127 1.38 2.009 2.777 3.091.424.33.847.565-.925 2.369-2.369 3.389-1.459 1.02-4.895.627-.33-3.137-2.95-7.672-1.412-2.432-3.467-5.271.173-.455.377-.848m4.11-1.208h-.015q-.267-.094-.502-.11h-.016q-1.098-.094-2.04 1.099-.172.22-.33.47-.03.032-.03.079 0 .031.015.063 1.789 3.31 3.42 5.726 2.464 3.703 4.503 5.288 0-1.334-.345-2.793-.141-.58-.33-1.177-.172-.518-.925-2.15-.769-1.647-2.102-4.063-1.334-2.432-1.303-2.432" style="stroke-width:.313791" transform="translate(-.088 -.072)"/>
</svg>
