<svg xmlns="http://www.w3.org/2000/svg" xml:space="preserve" width="88.337" height="104.229" preserveAspectRatio="none">
    <defs>
        <linearGradient id="b" x1="165.15" x2="171.25" y1="231.6" y2="231.6" gradientTransform="translate(5.538 5.699)scale(.31379)" gradientUnits="userSpaceOnUse" spreadMethod="pad">
            <stop offset="0%" stop-color="#3DBABF"/>
            <stop offset="14.118%" stop-color="#31B7BC"/>
            <stop offset="100%" stop-color="#2BAAAE"/>
        </linearGradient>
        <linearGradient id="c" x1="185.925" x2="190.975" y1="219.4" y2="219.4" gradientTransform="translate(5.538 5.699)scale(.31379)" gradientUnits="userSpaceOnUse" spreadMethod="pad">
            <stop offset="0%" stop-color="#3DBABF"/>
            <stop offset="14.118%" stop-color="#31B7BC"/>
            <stop offset="100%" stop-color="#2BAAAE"/>
        </linearGradient>
        <linearGradient id="d" x1="103.162" x2="154.137" y1="155.012" y2="90.887" gradientTransform="translate(5.538 5.699)scale(.31379)" gradientUnits="userSpaceOnUse" spreadMethod="pad">
            <stop offset="0%" stop-color="#3DBABF"/>
            <stop offset="14.118%" stop-color="#31B7BC"/>
            <stop offset="100%" stop-color="#2BAAAE"/>
        </linearGradient>
    </defs>
    <path fill="url(#a)" d="M57.44 77.588q-.079.063-.079.22t.078.423l.251.785q.063.486.942-.063.722-.33.643-.722-.722-.533-1.24-.674-.11-.032-.203-.047z" style="fill:url(#b);stroke-width:.313791" transform="translate(-.037 -.099)"/>
    <path fill="#d0dae2" d="M57.283 76.035q-.048.11 0 .33l.078 1.443q0-.157.078-.22l.393-.078q.094.015.204.047.517.14 1.24.674l.329-1.286-.816-.392q-.989-.44-1.506-.518m6.4-4.048q-.093.094-.187.314l.392 2.259q-.016-.408.11-.659l.235-.314q.188-.062.408.11.063.047.141.126.251.25.565.643.11.078.125.172l.612-1.396-.157-.063q-.784-1.02-1.553-1.223-.094-.032-.157-.032-.11-.016-.22-.016h-.235zm3.483-1.396.094-1.303q-.424-.14-.957-.517-.157-.095-.314-.22h-.314q-.329-.314-.721 0l-.251.078-.236.251q-.878.863.487.957 1.27-.078 1.945 1.334.126-.204.267-.518zm-25.401 2.353q-.424-.565-.66-1.004l-2.965 3.514.032.502.078 1.146zm8.488 1.836-.189.125q-1.255.847-1.255 1.883 0 .345-.078.55l-.016-.017v.016l-1.051 3.797v.078q0 .095.016.173l.14 1.27 1.868-5.004q0-.377.33-.863l.078-.157.376-.408.487-.392zm-17.055-8.347q-.031.078.016.125l.094 1.522.078-.25 3.107-2.323.031.032.141-.063q.11-.141.299-.267l-.55-1.318q-.407.267-.564.518l-.079-.079-2.494 1.852zm-5.695-20.6q.015-.078.031-.14l.424-.644-.738-1.192-.706 1.349q-.376.769-.47 1.35-.094.486.031.83-.188-.376-.345-.752l-.204.047q-.486.25-.33.486v.016l.095 1.428q.078-.142.345-.283l.941-.25h.173q0-.252.11-.629.172-.643.643-1.616m-2.212-19.611-.173-.142q-.47-.486-1.993-.816l-1.443-.25.11 1.647 1.443.25q1.522.33 1.993.817l.172.14.957-.078q.361 0 .644.079.517.141.784.565l.816-.173-.11-1.647-.816.172q-.408-.643-1.427-.643zm26.939 5.224-.016.063.047-.047q-.016-.016-.031-.016m-6.025-5.852.11 1.647q2.306.863 3.938 2.103.815.612 1.459 1.318.282.298.533.643l.204-1.24q-1.992-2.87-6.244-4.471m-12.458-.973-.549.079-.047 1.741.157-.094.55-.078.313.721.8-.392.235-.565-.486-1.004-.659.314zm6.072-.235-1.208-.22.094-.502-1.836-.706-.03-.047q-.174.408-.66.973l.47.157.33.564 1.836.707-.094.502 1.208.22q.063.03.141.062.204.11.345.235l1.6.989-.815-1.114q.392.016.784.047 1.585.125 3.06.58l-.11-1.647q-1.836-.565-3.844-.628l-.628 1.036q.408-.722-.643-1.208M68.656 59.17l-.674-.047.565 1.914-.236 1.035q.11.69.204 1.397.063.69.11 1.412 0 .22-.016.376-.14.8-.957.251l.518 1.161q.047 0 .094.032.032 0 .047.015v.251l1.052-1.616v-.015zm-4.58-8.598.156.172q.36.361 1.036 1.648.329.627.549 1.506l-.142 1.475q.393.235.455.47.66.251 1.397 1.758l.612-1.852-2.26-3.53q-.533-1.13-.925-1.867l-.173.141zm-3.624-7.17q-.157-.361-.392-.738l-.628.706q.377.424.659.816.298.44.47.863-.25 0-.643-.377-.015-.015-.062-.031l1.082 1.161q.267.063.267.298.502.33.863.832.36.517.58 1.224.047.125.079.25l.172 1.005.44-1.663-.722-.989q-.424-1.6-1.522-2.306 0-.189-.157-.251zm-3.044-4.3q.33.346.55.722.093.157.172.346.172.392.188.815-.314-.25-.675-.33l.754 1.178.203-1.475-.25.502.25-.58-.392-.942q-.031-.737-.518-1.412-.078-.11-.172-.22l-2.495-3.326q-.423-.769-1.24-1.537l-.501 1.113q.031.032.062.048 1.114.91 1.68 1.835.062.094.11.188z" style="stroke-width:.313791" transform="translate(-.037 -.099)"/>
    <path fill="url(#E)" d="M63.888 74.56q0 .377.11.863.235.251.863-.141.659-.377.611-.644-.015-.094-.125-.172-.314-.392-.565-.643-.078-.079-.141-.126-.22-.172-.408-.11l-.235.314q-.126.251-.11.659" style="fill:url(#c);stroke-width:.313791" transform="translate(-.037 -.099)"/>
    <path fill="#dbe0e7" d="M38.141 75.454q-.11.393.032.502zm15.988.989q.047-.11.11-.22.518-1.145-.361-.988-.11.58.251 1.208M28.869 58.29l.11 1.067 2.87-1.663.33.078-1.098-1.082-.157-.157-2.055 1.176q-.628.487 0 .581m1.82-9.398q-.141.047-.267.063l-.424.392v.204h-.078q-.251.894-.078 1.851 0 .487.047.926-.016-.58.14-1.13h.08v-.204l.878-.816q.188-.015.423-.078Zm-5.79-9.288q-.094 1.475.063 2.777 0-1.24.188-2.605zm2.73-7.186-.471-.141.047-.314-.016.016q-.157.831.282 1.05zm-.408-2.495v-.015l-.078-.095-.094.816.298.094.031-.36.079-.079zM23.77 36.45q-.487-.063-.487.251 0 .157.079.314l.078 1.177q.11-.142.44-.095l1.521.408q.377-1.835 1.271-3.592l.628 1.192.659-1.35q-.66 0-.69-.643l-.079.346-.628-1.193q-.894 1.757-1.27 3.593zm9.272-11.657-.078-.094-2.338 1.38v.063l-.157.079-.298.486.455.643-.706.47h-.565l-.863-1.207.11 1.647.863 1.208h.565l.706-.47-.455-.644.298-.486.157-.079v-.062l2.338-1.381.078.094.047-1.741zm17.84-17.447-.048-.8q.188-.455-.063-.847l-1.114.455q-1.27.721-1.85 1.772v-.094l-.315-.078-.957.816q-1.035.957-1.27 1.679l-.33-.173q-6.15 5.13-7.83 5.444l.08.392.03 1.256q.252-.047.613-.204 1.506-.66 4.863-3.327 1.083-.847 2.354-1.914l.204.11q.172-.172.298-.314.125-.156.172-.266.251-.361.66-.77l.266-.266.957-.816.314.079v.094q.172-.298.392-.58.55-.675 1.46-1.193zM73.898 66.26q.36-.298-.11-.549zm-.8-10.92q.125-.189-.032-.346zm-10.214-5.57.078-.015-.063-.345-.094.36zm4.361-3.64.032.361q.157-.235-.032-.36" style="stroke-width:.313791" transform="translate(-.037 -.099)"/>
    <path fill="#dfe6ef" d="M46.237 72.803q-.627.612-.973 1.224l.11 1.647q.267-.486.738-.973.737-.8 1.976-1.6l1.114-.534.126-.062-.69-1.146-1.82 1.036q-.314.204-.58.408m4.36 1.82-.344.157.706 1.05zm-4.597-7.704q-.785.204-1.6.44-2.495.706-3.876 1.443l.188.502q-.031.314.189.8 1.631-.925 4.942-1.788.44-.11.863-.22zm-9.414-3.122q-.078.063-.125.141l-.048-.047.55 1.318h.015q.014-.018.032-.031l.094-.11v.047q1.02-.66 3.64-1.35 1.537-.345 2.996-.627l-.753-1.27q-1.443.282-2.98.69-2.37.627-3.421 1.239m3.718-6.417q-.266.078-.533.141-.879 0-1.898.251-1.522.267-2.4.785l-.048.047q-.957.863-1.036 1.427 0 .236.079.236.031.47.22.941.25-.423.847-.957.878-.894 3.044-1.38 1.035-.142 1.914-.22.25-.047.502-.11zM8.926 32.732l.079-.22 1.192-.486q.424-.142.785-.22.8-.204 1.302-.094v-.408q7.421-2.95 8.472-4.315l.236.251.8-.58-.11-1.648-.8.58-.236-.25q-1.05 1.365-8.472 4.315v.407q-.722-.156-2.087.314l-1.192.487-.078.22q-1.13-.063-2.307.815-.58.408-.973.785l.11 1.647q.392-.377.973-.784 1.177-.88 2.306-.816M65.19 65.837l-.016.015v.016h-.031l-.063.031q-.643.361-1.145.879l.596 1.443.58-.611h.08v-.095h.093v-.078h.063v-.078h.157l.094-.079.157-.094.078-.079.157-.078.079-.063.313-.172h.079l.33-.157h.078l.157-.079h.33q.501 0 .815.11l-.518-1.16q-1.02-.55-2.463.329m-2.714-2.746q-.047.031-.063.063l.533 1.286q.785-.612 1.758-1.16 2.086-1.287 3.608-1.209l.236-1.035q-.126-.047-.251-.079-1.49-.376-3.829.894zm3.342-9.194q-.91.204-2.26 1.286-1.02.8-2.275 2.087-.486.486-.941.973l.565 1.333q.25-.266.533-.533 2.558-2.793 4.236-3.671zm-4.472-4.77q-.926.69-2.228 2.071-.612.66-1.176 1.318l.596 1.397q.423-.534.894-1.114 2.15-2.385 3.373-3.028l.094-.361-.172-1.004q-.518.047-1.38.721m-.409-3.326-1.082-1.161q-.251-.094-1.303.251-.58.188-1.176.643-.722.534-1.46 1.444-.094.141-.188.266l.565 1.35q.173-.251.361-.518 1.35-1.663 2.62-1.977h-.063q1.256-.408 1.726-.298" style="stroke-width:.313791" transform="translate(-.037 -.099)"/>
    <path fill="#dfe5ee" d="m38.267 53.944-.722-1.208q-1.365.706-2.495.957l-1.898.8q-.298.173-.533.345-.879.628-1.099 1.334-.125.392-.047.8-.22-.125-.392-.282l1.098 1.082q0-.11.032-.22.078-.392.455-.878l-.016-.11q.659-.722 1.93-1.27.721-.252 1.192-.409 1.13-.235 2.48-.941zm-3.2-5.366-.723-1.208-1.694.706q-1.27.628-1.961.816l.721 1.208q.722-.204 1.977-.8l1.663-.722zm22.373-6.73q.518-.11.958-.016l-.754-1.177q-.91-.22-2.118.47l-.157.095q-.91.596-1.616 1.302l.565 1.365q.047-.063.094-.11.393-.408.957-.8 1.114-.879 2.071-1.13m-.172-2.887.141.142-2.275-3.076q-.894-.549-2.165-.313l-1.114.392q-.251.298-.55.596l.566 1.35q.486-.424.612-.675l1.192-.377h.235q.816.141 1.68.785 1.035.565 1.678 1.176" style="stroke-width:.313791" transform="translate(-.037 -.099)"/>
    <path fill="#e8ecf0" d="M55.51 49.692q.36-.518.784-1.098l-.565-1.35q-.517.738-.925 1.334-.753.847-1.805 1.742-2.04 1.694-5.224 3.546-.204.125-.408.266l-2.448 1.365q-.172.079-.345.173l-.565.282q-.235.094-.455.204l-2.965 1.146q-.032.015-.063.015t-.047.016q-.063.016-.11.031-.031 0-.063.016l.69 1.161.22-.063.095-.031q.047-.016.11-.032.062-.015.14-.03.016-.017.048-.017l2.698-1.098 1.004-.486q1.475-.769 3.185-1.82 4.645-2.542 7.014-5.272m-3.232-5.884q-.283.204-.597.44-.957 1.051-2.259 2.087l-.926.658q-1.082.754-2.4 1.522-.204.126-.424.251-.58.346-1.13.66-.407.235-.8.486-1.113.659-2.149 1.192-.298.141-.58.283-1.82.862-3.468 1.333v.016l.722 1.208q.125-.031.25-.079.11-.03.236-.078 1.38-.455 3.028-1.224.283-.14.58-.282 1.585-.785 3.421-1.867 4.55-2.636 6.605-4.958 1.209-.738 1.93-1.57l-.565-1.364q-.047.031-.078.063-.377.439-1.396 1.223m-1.444-6.683q-.36.298-.784.58l-.047.047h-.016q-.016.016-.047.032l-1.365 1.114q-1.13 1.16-2.683 2.322-1.757 1.286-4.048 2.557-1.961 1.208-3.703 2.071-.298.141-.58.267-1.726.816-3.217 1.255l.722 1.208q1.553-.455 3.28-1.255.313-.157.627-.298l3.122-1.789q.031-.031.063-.047.031-.031.078-.047.126-.078.267-.172 4.393-2.323 6.7-4.864l1.443-1.13q.769-.533 1.224-.926l-.565-1.349q-.22.22-.47.424m-2.825-5.492-.486.471q-.346.345-.753.722-.408.345-.895.737-.157.11-.33.236-1.113 1.13-2.604 2.243-1.788 1.318-4.126 2.62-2.118 1.287-3.954 2.181-1.412.66-2.212.957-.031.016-.047.016l.596 1.255q.769-.267 1.961-.8l.126-.047q.172-.094.36-.173 1.82-.894 3.813-2.18 4.393-2.338 6.715-4.88 1.522-1.114 1.993-1.679l.486-.486.957-.628-.721-1.208zm15.925 35.145q-.016 0-.031.016l-1.177 1.286q-1.742 1.883-3.075 2.856h-.016q-.031.031-.063.047-.266.188-.502.345l-.063.063q-.298.157-.611.314-.063.03-.142.094-.062.031-.14.078l-1.915.91q-.44.157-.941.33-.895.298-1.977.564l-1.663.471-1.02.47.36 1.209 4.63-1.38q.234-.08.454-.142.314-.094.612-.204 1.287-.44 2.463-1.067l.565-.408q1.977-1.192 3.907-3.42l.941-.989zm-1.522-3.624q-1.13.894-2.495 1.82-1.914 1.349-4 2.541-1.303.848-2.558 1.554-.282.14-.549.298-1.836.973-3.609 1.663l-.564.33.69 1.145.141-.063.55-.282q1.647-.675 3.53-1.664.266-.156.549-.298 1.223-.674 2.557-1.49 3.734-2.15 6.229-4.22.031-.032.062-.048zm-4.895-8.018q.486-.58 1.02-1.223l-.596-1.397q-.612.722-1.146 1.428-1.067 1.255-2.871 2.573-1.412 1.051-3.28 2.134-1.584.973-3.027 1.663-.283.141-.565.267-1.883.831-3.53 1.176-.267.047-.534.11l.753 1.271q.267-.047.518-.094 1.679-.377 3.577-1.255.283-.126.581-.267.173-.094.36-.188l2.59-1.49q4.063-2.323 6.15-4.708m3.389 4.44-.565-1.333q-1.051 1.082-1.945 2.15-.863.705-1.695 1.317-1.6 1.177-3.028 1.961-.188.126-.392.252-.126.062-.251.14l-1.93 1.052q-.596.298-1.255.596l-1.35.612q-1.208.251-2.494.596l.706 1.177q1.35-.345 2.494-.58.973-.424 1.852-.832.282-.141.565-.267 1.569-.784 2.792-1.537 2.15-1.209 4.707-3.264.753-.973 1.789-2.04" style="stroke-width:.313791" transform="translate(-.037 -.099)"/>
    <path fill="#dee4eb" d="m28.273 43.37-1.052.486.738 1.192.941-.47.66-.158q.47-.078 2.447-.972.58-.157 1.192-.377l-.596-1.255q-.675.251-1.302.44-1.35.721-2.495.972zm20.616-12.38.721 1.208h.722q1.679 0 2.479.392l-1.396-1.443q-.408-.11-.942-.157zm-8.88-3.044q-.063.047-.11.095-.832.658-1.883.957h-.47l-.173.078-.8.157h-.08q-.72.078-1.74.549h-.08l-.329.173-.094.078-.14.079h-.08l-.172.078-.157.173-.172.078h-.079l-.141.157h-.079l-.047.063-.031.031-.063.047q-.063.047-.11.094h-.078q-.894.722-1.35 1.365l-.486.628-.078.078-.251.33q-.251.282-.408.455-.157.157-.565.44-.424.281-.58.329-.173.03-.204.047l-1.02.25-.66 1.35q.864.957 2.15 0 .016-.016.047-.031l.016-.016q.486-.377 1.475-1.13.33-.33.643-.737l.628-.8q.486-.66 1.349-1.365l.173-.142.156-.094.173-.157 1.27-.643q1.036-.486 1.837-.549l.957-.157h.078q.738-.125 1.35-.392.643-.283 1.145-.738 1.679-.564 1.27-1.835l-1.6-.989q.44.393.157.91z" style="stroke-width:.313791" transform="translate(-.037 -.099)"/>
    <path fill="#c3d1dc" d="M53.564 29.986v.078l-.612.675-.502-.675-.204 1.24.079.078v.016q.125.157.235.314-.126-.141-.298-.251l-.047.047.016-.063q-.33-.188-.816-.298l1.396 1.443.863-.878v-.079q.314-.33.486-.078.063.063.079.173l-.11-1.585q0-.157-.078-.235-.173-.251-.487.078m-7.64-5.068q.172 0 .25.157l-.11-1.647q-.078-.157-.25-.157-.236-.173-.377.314l-.502 1.6.11 1.647.502-1.6q.141-.486.376-.314m-8.739-9.006-.8.408-.47 1.35q-.487 1.522-.33 2.165l.078.235-.564.8q-.455.879-.079 1.522l-.55.706.534 1.099.032-.032.094-.125q-.377-.644.078-1.522l.565-.8-.078-.236q-.157-.643.33-2.165l.47-1.35.8-.407-.078-.392zm31.128 51.054h.063l.094-.094 5.21.565h.062l.157-.078q.157.078.22.172l-.22-1.27-.11-.55-.157.079h-.063l-4.204-.455v.015Zm-.172-11.218-.612 1.852.063-.079 5.271-1.035.314.157.031.03-.11-1.333-.03-.345-.315-.157zm-.895-9.617-.33-.079-3.576 1.695-.44 1.663.063.345.063-.157 4-1.898.33.078-.078-1.287zm-5.114-7.83q-.079-.25-.58-.078l-2.778 1.757-.173.377-.203 1.475.486-.204 2.777-1.758q.455-.156.565.032l-.094-1.365q.062-.157 0-.236" style="stroke-width:.313791" transform="translate(-.037 -.099)"/>
    <path fill="url(#F)" d="m49.61 32.198-.957.628-.486.486q-.47.565-1.993 1.679-2.322 2.542-6.715 4.88-1.992 1.286-3.812 2.18-.189.079-.361.173l-.126.047q-1.192.533-1.96.8-.613.22-1.193.377-1.977.894-2.448.972l-.659.157-.941.471-.424.643q-.016.063-.031.141-.47.973-.643 1.616-.11.377-.11.628h-.173l-.941.251q-.267.141-.345.283-.048.094.015.203 0 .079.173.157l2.228.173q.33 1.6.972 2.62-.078-1.02.785-1.992l.863-.8q.047 0 .094-.016.126-.016.267-.063.69-.188 1.961-.816l1.694-.706q1.49-.44 3.217-1.255.282-.126.58-.267 1.742-.863 3.703-2.07 2.29-1.272 4.048-2.558 1.553-1.161 2.683-2.322l1.365-1.114q.031-.016.047-.032h.016l.047-.047q.423-.282.784-.58.251-.204.47-.424.299-.298.55-.596l1.114-.392q1.27-.236 2.165.313-.047-.094-.11-.188-.565-.925-1.679-1.835-.03-.016-.062-.048l.502-1.114.455-1.05v-.063q-.016-.11-.079-.173-.172-.251-.486.078v.079l-.863.878q-.8-.392-2.479-.392zm-8.41-5.993.817 1.114q.408 1.27-1.271 1.835-.502.455-1.146.738-.611.267-1.349.392h-.078l-.957.157q-.8.063-1.836.55l-1.27.642-.174.157-.156.094-.173.142q-.863.706-1.35 1.365l-.627.8q-.314.408-.643.737-.989.753-1.475 1.13l-.016.016q-.031.015-.047.03-1.286.958-2.15 0l-.627-1.191q-.894 1.757-1.27 3.592l-1.523-.407q-.329-.048-.439.094-.047.062-.047.157 0 .156.079.313l1.427.942.251.172q-.188 1.365-.188 2.605.016 2.369.769 4.252.157.376.345.753-.125-.345-.031-.832.094-.58.47-1.35l.706-1.348 1.052-.487.533-.141q1.145-.251 2.495-.973.627-.188 1.302-.44.016 0 .047-.015.8-.298 2.212-.957 1.836-.894 3.954-2.18 2.338-1.303 4.126-2.62 1.49-1.115 2.605-2.244.172-.126.33-.236.486-.392.894-.737.407-.377.753-.722l.486-.47.879-.644h1.584q.534.047.942.157.486.11.816.298.015 0 .03.016.173.11.299.25-.11-.156-.235-.313v-.016l-.079-.078q-.25-.345-.533-.643-.644-.706-1.46-1.318-1.631-1.24-3.937-2.103l-.11-1.647-.032-.518q-.078-.157-.25-.157-.236-.172-.377.314l-.502 1.6q-1.475-.455-3.06-.58-.392-.031-.784-.047M47.916 9.48l-.314-.079-.957.816-.267.267q-.408.408-.659.769-.047.11-.172.266-.11.189-.173.377l-.125-.063-.204-.11q-1.271 1.067-2.354 1.914-3.357 2.668-4.863 3.327-.361.157-.612.204l.078.392-.8.408-.47 1.35q-.487 1.521-.33 2.164l.078.236-.565.8q-.455.878-.078 1.522l-.094.125-.032.032-.423.549.141.282.486 1.004-.235.565-.8.392-.314-.721-.55.078-.156.094-.078-.094-2.338 1.38v.063l-.157.079-.298.486.455.644-.706.47h-.565l-.863-1.208-.816.173q-.267-.424-.784-.565-.283-.079-.644-.079l-.957.079-.172-.141q-.47-.487-1.993-.816l-1.443-.251-.8.58-.236-.25q-1.05 1.364-8.472 4.314v.408q-.502-.11-1.302.094-.361.078-.785.22l-1.192.486-.079.22q-1.13-.063-2.306.816-.58.407-.973.784.722 1.208 3.593-.847l.643.392q.393.377 2.558-1.522l.392.063q.643.486 8.159-4.236l.235-.393q.33.973 4 .722-.078 1.193 1.93.722l-.078.47.141.205v.015l.236.361-.079.079-.031.36-.157 1.256.016-.016-.047.314.47.14-.157.613-.172.596q-.047.282-.032.486.032.644.69.644l1.02-.251q.032-.016.205-.047.156-.048.58-.33.408-.282.565-.44.157-.172.408-.454l.25-.33.08-.078.486-.628q.455-.643 1.349-1.365h.078q.048-.047.11-.094l.063-.047.031-.031.047-.063h.079l.141-.157h.079l.172-.078.157-.173.173-.078h.078l.141-.079.094-.078.33-.173h.078q1.02-.47 1.742-.55h.078l.8-.156.173-.078h.47q1.052-.299 1.884-.958.047-.047.11-.094l.564-.706q.283-.517-.157-.91-.14-.125-.345-.235-.078-.031-.141-.063l-1.208-.22.094-.502-1.836-.706-.33-.564-.47-.157q.486-.565.66-.973.329-.769-.346-1.036 2.008-3.2 1.208-3.906h.55q.234-.141.47-.267 7.201-4.08 7.123-4.926v-.424q2.808-.941 2.573-1.506v-.628q3.2-1.694 2.463-2.871l-1.114.455q-.91.518-1.459 1.192-.22.283-.392.58zm17.917 57.627-.078.079-.157.094-.094.079h-.157v.078h-.063v.078h-.094v.095h-.078l-.58.611-.942.989q-1.93 2.228-3.907 3.42l-.565.408q-1.176.628-2.463 1.067-.298.11-.612.204-.22.063-.455.141l-4.628 1.38-.487.393-.376.408-.079.157q-.33.486-.33.863l-1.866 5.005-.047.125v.079q0 .235.11.314.11.094.36.015l.251-.172 2.464-3.044.25-1.585q.55.408 1.036.236.643-.471.392-2.166l.079-.329q0-.298.424-.628l.14-.078q.173-.094.346-.126.157-.03.25-.062.88-.157.362.988-.063.11-.11.22-.628 1.318 1.145 2.808l.094.079q.471.094.957-.079l.471-.706q-.267-.612-.298-1.35-.016-.125-.016-.25l.079-.643q0-.236.235-.236.157-.094.487-.031.517.078 1.506.518l.816.392q1.427 1.365 2.557.643l.078-.078q1.35-.957.863-2.652v-.784q.016-.094.032-.173.157-1.114.36-1.6.095-.22.189-.314l.078-.079h.236q.11 0 .22.016.062 0 .156.032.769.204 1.554 1.223l.156.063q.298.063.628-.141.235-.063.565-.8v-.063q-.157-.612-.377-1.067-.674-1.412-1.945-1.334-1.365-.094-.487-.957l.236-.25.25-.08q.393-.313.722 0h.314q.157.126.314.22.533.377.957.518.47.142.8-.015.314-.236.314-1.036l1.522.55 3.844-.785.235-.079q.157-.125.189-.235.015-.078-.048-.157-.062-.094-.22-.172l-.156.078h-.063l-5.209-.565-.094.094h-.063v-.25q-.015-.016-.047-.016-.047-.032-.094-.032-.314-.11-.816-.11h-.33l-.156.079h-.079l-.33.157h-.078l-.313.172-.079.063zm2.683-3.64q-.094-.706-.204-1.396-1.522-.078-3.608 1.208-.973.55-1.758 1.161-.03.016-.062.047-2.495 2.071-6.229 4.22-1.334.817-2.557 1.491-.283.142-.55.298-1.882.989-3.53 1.664l-.549.282-.267.125-1.114.534q-1.239.8-1.976 1.6-.471.487-.738.973 1.114.957 2.322 1.679.785.44 1.02-.016v-.016l.016.016q.078-.204.078-.55 0-1.035 1.255-1.882l.189-.125.345-.157 1.02-.47 1.663-.472q1.082-.266 1.977-.564.502-.173.941-.33l1.914-.91q.079-.047.141-.078.079-.063.142-.094.03-.032.062-.048.298-.14.612-.329.235-.157.502-.345.032-.016.063-.047h.016q1.333-.973 3.075-2.856l1.177-1.286q.015-.016.03-.016.503-.518 1.146-.879l.063-.031q.016-.016.031-.016l.016-.015q1.444-.879 2.463-.33.816.55.957-.25.016-.158.016-.377-.047-.722-.11-1.412m-.988-5.868q-.738-1.507-1.397-1.758-.062-.235-.455-.47-1.678.878-4.236 3.671-.282.267-.533.533-1.036 1.067-1.789 2.04-2.557 2.055-4.707 3.264-1.223.753-2.792 1.537-.283.126-.565.267-.879.408-1.852.831-1.145.236-2.494.58-.424.11-.863.22-3.31.864-4.942 1.79-.173.109-.33.203l.251.643q-.047.361.283.989.235.44.659 1.004l-3.515 4.158q-.235.8.643.408l3.452-2.166.455-1.113 1.46 1.365q.125-1.397 1.976-2.793.267-.204.58-.408l1.82-1.036.565-.33q1.773-.69 3.609-1.662.267-.157.55-.298 1.254-.706 2.557-1.554 2.086-1.192 4-2.541 1.146-.816 2.244-1.695l.314-.188 1.992-1.24q2.338-1.27 3.829-.894.125.032.25.079l-.564-1.914.674.047.675.031 3.609-1.993q.22-.14.282-.266.079-.142-.016-.267l-.03-.031-.315-.157-5.271 1.035zm-.251-9.351q.314-.314.078-.471l-.33-.078-4 1.898-.063.157-.078.016h-.079q-1.224.643-3.373 3.028-.47.58-.894 1.114-.534.643-1.02 1.223-2.087 2.385-6.15 4.707l-2.59 1.49q-.187.095-.36.189-.298.141-.58.267-1.899.878-3.578 1.255-.25.047-.518.094-1.459.282-2.996.628-2.62.69-3.64 1.349-.056.022-.094.063-.018.013-.032.031h-.015q-.189.126-.299.267-.062.063-.094.11l-.047-.047-.031-.032-3.107 2.322-.078.251q-.079.236.392.157l3.107-1.13.408-.392v.157q.235.738 1.93 2.965.423-.517 1.38-1.035 1.38-.737 3.875-1.443.816-.236 1.6-.44 1.287-.345 2.495-.596l1.35-.612q.659-.298 1.255-.596l1.93-1.051q.125-.079.25-.141.205-.126.393-.252 1.428-.784 3.028-1.96.832-.613 1.694-1.319.895-1.067 1.946-2.15.455-.485.941-.972 1.256-1.286 2.275-2.087 1.35-1.082 2.26-1.286-.22-.879-.55-1.506-.674-1.287-1.035-1.648l-.157-.172.706-.079.173-.141zm-4.629-.094q-.22-.707-.58-1.224-.361-.502-.863-.832 0-.235-.267-.298-.47-.11-1.726.298h.063q-1.27.314-2.62 1.977-.188.267-.36.518-.425.58-.785 1.098-2.37 2.73-7.014 5.272-1.71 1.051-3.185 1.82l-1.004.486-2.698 1.098q-.032 0-.047.016-.079.016-.142.031-.062.016-.11.032l-.094.031-.22.063q-.25.063-.501.11-.879.078-1.914.22-2.166.486-3.044 1.38-.596.534-.847.957-.157.251-.189.47 0 .236.079.236.094 1.24 1.192 2.416l.079.079q.157-.251.564-.518.079-.047.173-.094 1.051-.612 3.42-1.24 1.538-.407 2.981-.69.267-.063.534-.11 1.647-.345 3.53-1.176.282-.126.565-.267 1.443-.69 3.028-1.663 1.867-1.083 3.279-2.134 1.804-1.318 2.871-2.573.534-.706 1.145-1.428.565-.659 1.177-1.318 1.302-1.38 2.228-2.07.863-.675 1.38-.722-.03-.126-.078-.251m-4.69-8.332q-.22-.376-.55-.721l-.141-.142q-.643-.611-1.679-1.176-.863-.644-1.679-.785h-.235l-1.192.377q-.126.25-.612.674-.455.393-1.224.926l-1.444 1.13q-2.306 2.541-6.699 4.864-.141.094-.267.172-.047.016-.078.047-.032.016-.063.047l-3.122 1.789q-.314.141-.628.298-1.726.8-3.279 1.255h-.016l-1.663.722q-1.255.596-1.977.8-.235.063-.423.078l-.879.816v.204h-.078q-.157.55-.141 1.13 0 .36.062.722 0 2.416.973 3.483l.157.157q.173.157.392.282-.078-.408.047-.8.22-.706 1.099-1.334.235-.172.533-.345l1.898-.8q1.13-.251 2.495-.957v-.016q1.647-.47 3.467-1.333.283-.142.581-.283 1.036-.533 2.15-1.192.392-.251.8-.487.204-.14.423-.282.58-.314 1.13-.628 1.318-.768 2.4-1.522l.926-.658q1.302-1.036 2.26-2.087.313-.236.596-.44 1.02-.784 1.396-1.223.031-.032.078-.063.706-.706 1.616-1.302l.157-.094q1.208-.69 2.118-.471.361.078.675.33-.016-.424-.188-.816-.079-.189-.173-.346m4.283.126q0-.032-.015-.047-.11-.188-.565-.032l-2.777 1.758-.486.204q-.44-.095-.958.015-.957.251-2.07 1.13-.565.392-.958.8-.047.047-.094.11-.721.831-1.93 1.569-2.055 2.322-6.605 4.958-1.836 1.082-3.42 1.867-.298.141-.58.282-1.648.77-3.029 1.224-.125.047-.235.079-.126.047-.251.078h-.016q-1.35.706-2.479.941-.47.157-1.192.408-1.271.55-1.93 1.271l.016.11q-.377.486-.455.879-.032.11-.032.22l-.33-.08-2.87 1.664q-.628.486 0 .58l4-.894q.408 1.114.957 1.836v-.785q0-.157.895-1.05.267-.268.643-.487.879-.518 2.4-.785 1.02-.25 1.899-.25.267-.064.533-.142.032-.016.063-.016.047-.015.11-.031.016-.016.047-.016t.063-.015l2.965-1.146q.22-.11.455-.204l.565-.282q.173-.094.345-.173l2.448-1.365q.204-.141.408-.266 3.185-1.852 5.224-3.546 1.052-.895 1.805-1.742.408-.596.925-1.333.094-.126.189-.267.737-.91 1.459-1.444.596-.455 1.176-.643 1.052-.345 1.303-.251.047.016.062.031.393.377.644.377-.173-.424-.471-.863-.282-.392-.659-.816l.628-.706 2.18-2.479q.063-.157 0-.235" style="fill:url(#d);stroke-width:.313791" transform="translate(-.037 -.099)"/>
</svg>
