<svg xmlns="http://www.w3.org/2000/svg" xmlns:xlink="http://www.w3.org/1999/xlink" xml:space="preserve" width="88.338" height="104.242" preserveAspectRatio="none">
    <defs>
        <linearGradient id="c" x1="-.025" x2="281.425" y1="239.25" y2="239.25" gradientTransform="translate(.018 .01)" gradientUnits="userSpaceOnUse" spreadMethod="pad">
            <stop offset="0%" stop-color="#1A1A1A"/>
            <stop offset="43.529%" stop-color="#2A2A2A"/>
            <stop offset="48.627%" stop-color="#444"/>
            <stop offset="54.902%" stop-color="#191919"/>
            <stop offset="100%" stop-color="#121212"/>
        </linearGradient>
        <linearGradient id="d" x1="195.55" x2="3.15" y1="266.462" y2="156.038" gradientTransform="translate(.018 .01)" gradientUnits="userSpaceOnUse" spreadMethod="pad">
            <stop offset="12.941%" stop-color="#353535"/>
            <stop offset="89.412%" stop-color="#252525"/>
        </linearGradient>
        <linearGradient id="e" x1="105.513" x2="143.087" y1="19.275" y2="84.925" gradientTransform="translate(.018 .01)" gradientUnits="userSpaceOnUse" spreadMethod="pad">
            <stop offset="0%" stop-color="#1E1E1E"/>
            <stop offset="10.196%" stop-color="#282828"/>
            <stop offset="21.569%" stop-color="#262626"/>
            <stop offset="83.922%" stop-color="#333" stop-opacity="0"/>
        </linearGradient>
        <linearGradient id="o" x1="-.075" x2="281.375" y1="109.1" y2="109.1" gradientTransform="translate(.068 139.71)" gradientUnits="userSpaceOnUse" spreadMethod="pad">
            <stop offset="0%" stop-color="#1A1A1A"/>
            <stop offset="43.529%" stop-color="#2A2A2A"/>
            <stop offset="48.627%" stop-color="#444"/>
            <stop offset="54.902%" stop-color="#191919"/>
            <stop offset="100%" stop-color="#121212"/>
        </linearGradient>
        <linearGradient id="p" x1="-.075" x2="281.375" y1="109.1" y2="109.1" gradientTransform="translate(.068 139.71)" gradientUnits="userSpaceOnUse" spreadMethod="pad">
            <stop offset="0%" stop-color="#1A1A1A" stop-opacity=".898"/>
            <stop offset="43.529%" stop-color="#2A2A2A" stop-opacity=".898"/>
            <stop offset="48.627%" stop-color="#444" stop-opacity=".898"/>
            <stop offset="54.902%" stop-color="#191919" stop-opacity=".898"/>
            <stop offset="100%" stop-color="#121212" stop-opacity=".898"/>
        </linearGradient>
        <linearGradient id="B" x1="-.075" x2="281.375" y1="109.1" y2="109.1" gradientTransform="translate(.068 139.71)" gradientUnits="userSpaceOnUse" spreadMethod="pad">
            <stop offset="0%" stop-color="#1A1A1A" stop-opacity=".698"/>
            <stop offset="43.529%" stop-color="#2A2A2A" stop-opacity=".698"/>
            <stop offset="48.627%" stop-color="#444" stop-opacity=".698"/>
            <stop offset="54.902%" stop-color="#191919" stop-opacity=".698"/>
            <stop offset="100%" stop-color="#121212" stop-opacity=".698"/>
        </linearGradient>
        <linearGradient id="C" x1="-.075" x2="281.375" y1="109.1" y2="109.1" gradientTransform="translate(.068 139.71)" gradientUnits="userSpaceOnUse" spreadMethod="pad">
            <stop offset="0%" stop-color="#1A1A1A" stop-opacity=".796"/>
            <stop offset="43.529%" stop-color="#2A2A2A" stop-opacity=".796"/>
            <stop offset="48.627%" stop-color="#444" stop-opacity=".796"/>
            <stop offset="54.902%" stop-color="#191919" stop-opacity=".796"/>
            <stop offset="100%" stop-color="#121212" stop-opacity=".796"/>
        </linearGradient>
        <linearGradient id="D" x1="-.075" x2="281.375" y1="109.1" y2="109.1" gradientTransform="translate(.068 139.71)" gradientUnits="userSpaceOnUse" spreadMethod="pad">
            <stop offset="0%" stop-color="#1A1A1A" stop-opacity=".596"/>
            <stop offset="43.529%" stop-color="#2A2A2A" stop-opacity=".596"/>
            <stop offset="48.627%" stop-color="#444" stop-opacity=".596"/>
            <stop offset="54.902%" stop-color="#191919" stop-opacity=".596"/>
            <stop offset="100%" stop-color="#121212" stop-opacity=".596"/>
        </linearGradient>
        <linearGradient id="K" x1="-.075" x2="281.375" y1="109.1" y2="109.1" gradientTransform="translate(.068 139.71)" gradientUnits="userSpaceOnUse" spreadMethod="pad">
            <stop offset="0%" stop-color="#1A1A1A" stop-opacity=".498"/>
            <stop offset="43.529%" stop-color="#2A2A2A" stop-opacity=".498"/>
            <stop offset="48.627%" stop-color="#444" stop-opacity=".498"/>
            <stop offset="54.902%" stop-color="#191919" stop-opacity=".498"/>
            <stop offset="100%" stop-color="#121212" stop-opacity=".498"/>
        </linearGradient>
        <linearGradient id="R" x1="-.075" x2="281.375" y1="109.1" y2="109.1" gradientTransform="translate(.068 139.71)" gradientUnits="userSpaceOnUse" spreadMethod="pad">
            <stop offset="0%" stop-color="#1A1A1A" stop-opacity=".094"/>
            <stop offset="43.529%" stop-color="#2A2A2A" stop-opacity=".094"/>
            <stop offset="48.627%" stop-color="#444" stop-opacity=".094"/>
            <stop offset="54.902%" stop-color="#191919" stop-opacity=".094"/>
            <stop offset="100%" stop-color="#121212" stop-opacity=".094"/>
        </linearGradient>
        <linearGradient id="S" x1="-.075" x2="281.375" y1="109.1" y2="109.1" gradientTransform="translate(.068 139.71)" gradientUnits="userSpaceOnUse" spreadMethod="pad">
            <stop offset="0%" stop-color="#1A1A1A" stop-opacity=".196"/>
            <stop offset="43.529%" stop-color="#2A2A2A" stop-opacity=".196"/>
            <stop offset="48.627%" stop-color="#444" stop-opacity=".196"/>
            <stop offset="54.902%" stop-color="#191919" stop-opacity=".196"/>
            <stop offset="100%" stop-color="#121212" stop-opacity=".196"/>
        </linearGradient>
        <linearGradient id="U" x1="-.075" x2="281.375" y1="109.1" y2="109.1" gradientTransform="translate(.068 139.71)" gradientUnits="userSpaceOnUse" spreadMethod="pad">
            <stop offset="0%" stop-color="#1A1A1A" stop-opacity=".396"/>
            <stop offset="43.529%" stop-color="#2A2A2A" stop-opacity=".396"/>
            <stop offset="48.627%" stop-color="#444" stop-opacity=".396"/>
            <stop offset="54.902%" stop-color="#191919" stop-opacity=".396"/>
            <stop offset="100%" stop-color="#121212" stop-opacity=".396"/>
        </linearGradient>
        <linearGradient id="V" x1="-.075" x2="281.375" y1="109.1" y2="109.1" gradientTransform="translate(.068 139.71)" gradientUnits="userSpaceOnUse" spreadMethod="pad">
            <stop offset="0%" stop-color="#1A1A1A" stop-opacity=".294"/>
            <stop offset="43.529%" stop-color="#2A2A2A" stop-opacity=".294"/>
            <stop offset="48.627%" stop-color="#444" stop-opacity=".294"/>
            <stop offset="54.902%" stop-color="#191919" stop-opacity=".294"/>
            <stop offset="100%" stop-color="#121212" stop-opacity=".294"/>
        </linearGradient>
        <linearGradient id="W" x1="-.075" x2="281.375" y1="102.85" y2="102.85" gradientTransform="translate(.068 139.71)" gradientUnits="userSpaceOnUse" spreadMethod="pad">
            <stop offset="0%" stop-color="#1A1A1A"/>
            <stop offset="43.529%" stop-color="#2A2A2A"/>
            <stop offset="48.627%" stop-color="#444"/>
            <stop offset="54.902%" stop-color="#191919"/>
            <stop offset="100%" stop-color="#121212"/>
        </linearGradient>
        <linearGradient id="X" x1="-.075" x2="281.375" y1="102.85" y2="102.85" gradientTransform="translate(.068 139.71)" gradientUnits="userSpaceOnUse" spreadMethod="pad">
            <stop offset="0%" stop-color="#1A1A1A" stop-opacity=".898"/>
            <stop offset="43.529%" stop-color="#2A2A2A" stop-opacity=".898"/>
            <stop offset="48.627%" stop-color="#444" stop-opacity=".898"/>
            <stop offset="54.902%" stop-color="#191919" stop-opacity=".898"/>
            <stop offset="100%" stop-color="#121212" stop-opacity=".898"/>
        </linearGradient>
        <linearGradient id="Y" x1="-.075" x2="281.375" y1="102.85" y2="102.85" gradientTransform="translate(.068 139.71)" gradientUnits="userSpaceOnUse" spreadMethod="pad">
            <stop offset="0%" stop-color="#1A1A1A" stop-opacity=".596"/>
            <stop offset="43.529%" stop-color="#2A2A2A" stop-opacity=".596"/>
            <stop offset="48.627%" stop-color="#444" stop-opacity=".596"/>
            <stop offset="54.902%" stop-color="#191919" stop-opacity=".596"/>
            <stop offset="100%" stop-color="#121212" stop-opacity=".596"/>
        </linearGradient>
        <linearGradient id="Z" x1="-.075" x2="281.375" y1="102.85" y2="102.85" gradientTransform="translate(.068 139.71)" gradientUnits="userSpaceOnUse" spreadMethod="pad">
            <stop offset="0%" stop-color="#1A1A1A" stop-opacity=".698"/>
            <stop offset="43.529%" stop-color="#2A2A2A" stop-opacity=".698"/>
            <stop offset="48.627%" stop-color="#444" stop-opacity=".698"/>
            <stop offset="54.902%" stop-color="#191919" stop-opacity=".698"/>
            <stop offset="100%" stop-color="#121212" stop-opacity=".698"/>
        </linearGradient>
        <linearGradient id="aa" x1="-.075" x2="281.375" y1="102.85" y2="102.85" gradientTransform="translate(.068 139.71)" gradientUnits="userSpaceOnUse" spreadMethod="pad">
            <stop offset="0%" stop-color="#1A1A1A" stop-opacity=".796"/>
            <stop offset="43.529%" stop-color="#2A2A2A" stop-opacity=".796"/>
            <stop offset="48.627%" stop-color="#444" stop-opacity=".796"/>
            <stop offset="54.902%" stop-color="#191919" stop-opacity=".796"/>
            <stop offset="100%" stop-color="#121212" stop-opacity=".796"/>
        </linearGradient>
        <linearGradient id="ab" x1="-.075" x2="281.375" y1="102.85" y2="102.85" gradientTransform="translate(.068 139.71)" gradientUnits="userSpaceOnUse" spreadMethod="pad">
            <stop offset="0%" stop-color="#1A1A1A" stop-opacity=".498"/>
            <stop offset="43.529%" stop-color="#2A2A2A" stop-opacity=".498"/>
            <stop offset="48.627%" stop-color="#444" stop-opacity=".498"/>
            <stop offset="54.902%" stop-color="#191919" stop-opacity=".498"/>
            <stop offset="100%" stop-color="#121212" stop-opacity=".498"/>
        </linearGradient>
        <linearGradient id="ac" x1="-.075" x2="281.375" y1="102.85" y2="102.85" gradientTransform="translate(.068 139.71)" gradientUnits="userSpaceOnUse" spreadMethod="pad">
            <stop offset="0%" stop-color="#1A1A1A" stop-opacity=".396"/>
            <stop offset="43.529%" stop-color="#2A2A2A" stop-opacity=".396"/>
            <stop offset="48.627%" stop-color="#444" stop-opacity=".396"/>
            <stop offset="54.902%" stop-color="#191919" stop-opacity=".396"/>
            <stop offset="100%" stop-color="#121212" stop-opacity=".396"/>
        </linearGradient>
        <linearGradient id="ad" x1="-.075" x2="281.375" y1="102.85" y2="102.85" gradientTransform="translate(.068 139.71)" gradientUnits="userSpaceOnUse" spreadMethod="pad">
            <stop offset="0%" stop-color="#1A1A1A" stop-opacity=".294"/>
            <stop offset="43.529%" stop-color="#2A2A2A" stop-opacity=".294"/>
            <stop offset="48.627%" stop-color="#444" stop-opacity=".294"/>
            <stop offset="54.902%" stop-color="#191919" stop-opacity=".294"/>
            <stop offset="100%" stop-color="#121212" stop-opacity=".294"/>
        </linearGradient>
        <linearGradient id="ae" x1="-.075" x2="281.375" y1="102.85" y2="102.85" gradientTransform="translate(.068 139.71)" gradientUnits="userSpaceOnUse" spreadMethod="pad">
            <stop offset="0%" stop-color="#1A1A1A" stop-opacity=".094"/>
            <stop offset="43.529%" stop-color="#2A2A2A" stop-opacity=".094"/>
            <stop offset="48.627%" stop-color="#444" stop-opacity=".094"/>
            <stop offset="54.902%" stop-color="#191919" stop-opacity=".094"/>
            <stop offset="100%" stop-color="#121212" stop-opacity=".094"/>
        </linearGradient>
        <linearGradient id="af" x1="-.075" x2="281.375" y1="102.85" y2="102.85" gradientTransform="translate(.068 139.71)" gradientUnits="userSpaceOnUse" spreadMethod="pad">
            <stop offset="0%" stop-color="#1A1A1A" stop-opacity=".196"/>
            <stop offset="43.529%" stop-color="#2A2A2A" stop-opacity=".196"/>
            <stop offset="48.627%" stop-color="#444" stop-opacity=".196"/>
            <stop offset="54.902%" stop-color="#191919" stop-opacity=".196"/>
            <stop offset="100%" stop-color="#121212" stop-opacity=".196"/>
        </linearGradient>
        <radialGradient xlink:href="#b" id="h" cx="0" cy="0" r="72.485" fx="0" fy="0" gradientTransform="matrix(-.86467 -.50235 .02656 -.04794 68.35 39.7)" gradientUnits="userSpaceOnUse" spreadMethod="pad"/>
        <radialGradient id="b" cx="0" cy="0" r="72.485" fx="0" fy="0" gradientTransform="matrix(-.86467 -.50235 .02656 -.04794 68.35 39.7)" gradientUnits="userSpaceOnUse" spreadMethod="pad">
            <stop offset="0%" stop-color="#FFF" stop-opacity=".267"/>
            <stop offset="80%" stop-color="#FFF" stop-opacity="0"/>
        </radialGradient>
        <radialGradient id="j" cx="0" cy="0" r="14.835" fx="0" fy="0" gradientTransform="matrix(.83502 .55022 -5.32357 3.19262 47.65 47.95)" gradientUnits="userSpaceOnUse" spreadMethod="pad">
            <stop offset="0%" stop-color="#FFF" stop-opacity=".439"/>
            <stop offset="0%" stop-color="#FFF" stop-opacity=".329"/>
            <stop offset="89.412%" stop-color="#FFF" stop-opacity="0"/>
        </radialGradient>
        <radialGradient id="l" cx="0" cy="0" r="23.638" fx="0" fy="0" gradientTransform="matrix(1 0 -.51084 .49498 20 9.5)" gradientUnits="userSpaceOnUse" spreadMethod="pad">
            <stop offset="0%" stop-color="#FFF" stop-opacity=".4"/>
            <stop offset="83.922%" stop-color="#FFF" stop-opacity="0"/>
        </radialGradient>
        <radialGradient id="n" cx="0" cy="0" r="23.635" fx="0" fy="0" gradientTransform="matrix(-.81711 -.57648 .70235 -.10948 22.45 12.85)" gradientUnits="userSpaceOnUse" spreadMethod="pad">
            <stop offset="0%" stop-color="#FFF" stop-opacity=".4"/>
            <stop offset="83.922%" stop-color="#FFF" stop-opacity="0"/>
        </radialGradient>
        <filter id="f" width="1" height="1" x="0" y="0" color-interpolation-filters="sRGB">
            <feColorMatrix in="SourceGraphic" result="result1" values="1 0 0 0 0 0 1 0 0 0 0 0 1 0 0 0 0 0 0.13 0"/>
        </filter>
        <filter id="g" width="1" height="1" x="0" y="0" color-interpolation-filters="sRGB">
            <feColorMatrix in="SourceGraphic" result="result1" values="1 0 0 0 0 0 1 0 0 0 0 0 1 0 0 0 0 0 0.53 0"/>
        </filter>
        <filter id="i" width="1" height="1" x="0" y="0" color-interpolation-filters="sRGB">
            <feColorMatrix in="SourceGraphic" result="result1" values="1 0 0 0 0 0 1 0 0 0 0 0 1 0 0 0 0 0 0.43 0"/>
        </filter>
        <filter id="k" width="1" height="1" x="0" y="0" color-interpolation-filters="sRGB">
            <feColorMatrix in="SourceGraphic" result="result1" values="1 0 0 0 0 0 1 0 0 0 0 0 1 0 0 0 0 0 0.36 0"/>
        </filter>
        <filter id="m" width="1" height="1" x="0" y="0" color-interpolation-filters="sRGB">
            <feColorMatrix in="SourceGraphic" result="result1" values="1 0 0 0 0 0 1 0 0 0 0 0 1 0 0 0 0 0 0.28 0"/>
        </filter>
    </defs>
    <path fill="url(#E)" d="M281.468 146.41q-.1 3.7-.15 7.6-.3 30.7-.8 63 0 6.05-1.6 11.05-3.65 10.5-11.8 17.05l-.25.25q-2.9 2.4-109.5 62.5-3.95 2.35-9.45 3.65-9.95 2.65-20.45-1.05-4.5-1.55-110-64.3-4.75-2.9-7.35-5.75-7.1-7.1-9.75-17.9-.25-1.2-.35-8.3-.1 25.5.35 27.75 2.65 11.05 9.75 18.1 3.4 3.45 7.35 5.8 105.5 62.75 110 64.3 3.15 1.1 6.4 1.6 5.35.8 11.05 0 1.5-.2 3-.55 4.2-1.05 9.45-3.65 106.6-60.15 109.5-62.75h.25q8.15-6.55 11.8-17.05 1.6-5.55 1.6-11.3.5-32.05.8-62.75.15-15.5.15-27.3" style="fill:url(#c)" transform="scale(.31383)"/>
    <path fill="url(#F)" d="M271.318 72.11q-2.65-2.9-7.35-5.8-27.55-16.5-54.35-32-52.75-31.25-55.65-32.3-9.7-3.4-20.5-1.05-5.75 1.3-9.45 3.7-6.3 3.4-54.85 30.95-52.75 30.2-54.85 31.75-8.15 6.6-11.85 17.1-1.55 5.25-1.55 11-.25 18.75-.3 34.7l-.6 84.05q.1 7.1.35 8.3 2.65 10.8 9.75 17.9 2.6 2.85 7.35 5.75 105.5 62.75 110 64.3 10.5 3.7 20.45 1.05 5.5-1.3 9.45-3.65 106.6-60.1 109.5-62.5l.25-.25q8.15-6.55 11.8-17.05 1.6-5 1.6-11.05.5-32.3.8-63 .05-3.9.15-7.6v-26.7q.1-27.65-.45-29.75-2.6-10.75-9.7-17.85" style="fill:url(#d)" transform="scale(.31383)"/>
    <path fill="url(#G)" d="M271.318 72.11q-2.65-2.9-7.35-5.8-27.55-16.5-54.35-32-52.75-31.25-55.65-32.3-9.7-3.4-20.5-1.05-5.75 1.3-9.45 3.7-6.3 3.4-54.85 30.95-52.75 30.2-54.85 31.75-8.15 6.6-11.85 17.1-1.55 5.25-1.55 11-.25 18.75-.3 34.7l-.6 84.05q.1 7.1.35 8.3 2.65 10.8 9.75 17.9 2.6 2.85 7.35 5.75 105.5 62.75 110 64.3 10.5 3.7 20.45 1.05 5.5-1.3 9.45-3.65 106.6-60.1 109.5-62.5l.25-.25q8.15-6.55 11.8-17.05 1.6-5 1.6-11.05.5-32.3.8-63 .05-3.9.15-7.6v-26.7q.1-27.65-.45-29.75-2.6-10.75-9.7-17.85" style="fill:url(#e)" transform="scale(.31383)"/>
    <g filter="url(#H)" style="filter:url(#f)" transform="matrix(.20106 -.11608 .0413 .07155 -22.825 116.558)">
        <g fill="#fff">
            <path fill-opacity=".043" d="M483.45 236.15q.394-.35.75-.75 6.456-6.593 6.5-16.1v-.05q.034-9.658-6.85-16.55-6.691-6.683-16.5-6.8h-154.6q-9.429.041-16.2 6.45-.347.353-.7.7-6.409 6.771-6.45 16.2v.05q.117 9.809 6.8 16.5 6.892 6.884 16.55 6.85h154.6q9.507-.044 16.1-6.5m-.7-.75q-6.306 6.203-15.4 6.25h-154.6q-9.237.023-15.85-6.6-6.38-6.37-6.5-15.75v-.05q.039-9.022 6.15-15.5.41-.334.7-.7 6.478-6.111 15.5-6.15h154.6q9.38.12 15.75 6.5 6.623 6.613 6.6 15.85v.05q-.047 9.094-6.25 15.4-.318.387-.7.7"/>
            <path fill-opacity=".094" d="M467.35 241.65q9.094-.047 15.4-6.25.382-.313.7-.7 6.203-6.306 6.25-15.4v-.05q.023-9.237-6.6-15.85-6.37-6.38-15.75-6.5h-154.6q-9.022.039-15.5 6.15-.29.366-.7.7-6.111 6.478-6.15 15.5v.05q.12 9.38 6.5 15.75 6.613 6.623 15.85 6.6zm15.4-7.6q-.32.336-.65.65-6.052 5.912-14.75 5.95h-154.6q-8.828.025-15.15-6.3-6.09-6.087-6.2-15.05v-.05q.037-8.627 5.9-14.8.316-.334.65-.65 6.173-5.863 14.8-5.9h154.6q8.963.11 15.05 6.2 6.325 6.322 6.3 15.15v.05q-.038 8.698-5.95 14.75"/>
            <path fill-opacity=".145" d="M482.1 234.7q.33-.314.65-.65 5.912-6.052 5.95-14.75v-.05q.025-8.828-6.3-15.15-6.087-6.09-15.05-6.2h-154.6q-8.627.037-14.8 5.9-.334.316-.65.65-5.863 6.173-5.9 14.8v.05q.11 8.963 6.2 15.05 6.322 6.325 15.15 6.3h154.6q8.698-.038 14.75-5.95m-14.75-35.8q8.546.1 14.35 5.9 6.027 6.031 6 14.45v.05q-.041 8.285-5.7 14.05-.282.323-.6.6-5.765 5.659-14.05 5.7h-154.6q-8.419.027-14.45-6-5.8-5.804-5.9-14.35v-.05q.035-8.22 5.6-14.1.33-.32.65-.65 5.88-5.565 14.1-5.6z"/>
            <path fill-opacity=".196" d="M481.7 204.8q-5.804-5.8-14.35-5.9h-154.6q-8.22.035-14.1 5.6-.32.33-.65.65-5.565 5.88-5.6 14.1v.05q.1 8.546 5.9 14.35 6.031 6.027 14.45 6h154.6q8.285-.041 14.05-5.7.318-.277.6-.6 5.659-5.765 5.7-14.05v-.05q.027-8.419-6-14.45m-14.35-4.9q8.13.091 13.65 5.6 5.73 5.74 5.7 13.75v.05q-.033 7.889-5.4 13.35-.282.322-.6.6-5.461 5.367-13.35 5.4h-154.6q-8.01.03-13.75-5.7-5.509-5.52-5.6-13.65v-.05q.033-7.825 5.35-13.45.28-.27.55-.55 5.625-5.317 13.45-5.35z"/>
            <path fill-opacity=".247" d="M481 205.5q-5.52-5.509-13.65-5.6h-154.6q-7.825.033-13.45 5.35-.27.28-.55.55-5.317 5.625-5.35 13.45v.05q.091 8.13 5.6 13.65 5.74 5.73 13.75 5.7h154.6q7.889-.033 13.35-5.4.318-.278.6-.6 5.367-5.461 5.4-13.35v-.05q.03-8.01-5.7-13.75m4.7 13.75v.05q-.036 7.476-5.15 12.65-.245.31-.55.55-5.174 5.114-12.65 5.15h-154.6q-7.588.019-13-5.4-5.256-5.25-5.35-12.95v-.05q.03-7.418 5.05-12.75.293-.257.55-.55 5.332-5.02 12.75-5.05h154.6q7.7.094 12.95 5.35 5.419 5.412 5.4 13"/>
            <path fill-opacity=".294" d="M485.7 219.3v-.05q.019-7.588-5.4-13-5.25-5.256-12.95-5.35h-154.6q-7.418.03-12.75 5.05-.257.293-.55.55-5.02 5.332-5.05 12.75v.05q.094 7.7 5.35 12.95 5.412 5.419 13 5.4h154.6q7.476-.036 12.65-5.15.305-.24.55-.55 5.114-5.174 5.15-12.65m-1-.05v.05q-.027 7.08-4.85 12-.245.258-.5.5-4.92 4.823-12 4.85h-154.6q-7.178.02-12.3-5.1-4.966-4.966-5.05-12.25v-.05q.029-7.024 4.8-12.05.276-.256.5-.5 5.026-4.771 12.05-4.8h154.6q7.284.084 12.25 5.05 5.12 5.122 5.1 12.3"/>
            <path fill-opacity=".345" d="M484.7 219.3v-.05q.02-7.178-5.1-12.3-4.966-4.966-12.25-5.05h-154.6q-7.024.029-12.05 4.8-.224.244-.5.5-4.771 5.026-4.8 12.05v.05q.084 7.284 5.05 12.25 5.122 5.12 12.3 5.1h154.6q7.08-.027 12-4.85.255-.242.5-.5 4.823-4.92 4.85-12m-1-.05v.05q-.03 6.667-4.6 11.3-.208.245-.45.45-4.633 4.57-11.3 4.6h-154.6q-6.77.023-11.6-4.8-4.675-4.683-4.75-11.55v-.05q.027-6.617 4.5-11.35.256-.244.5-.5 4.733-4.473 11.35-4.5h154.6q6.867.075 11.55 4.75 4.823 4.83 4.8 11.6"/>
            <path fill-opacity=".396" d="M483.7 219.3v-.05q.023-6.77-4.8-11.6-4.683-4.675-11.55-4.75h-154.6q-6.617.027-11.35 4.5-.244.256-.5.5-4.473 4.733-4.5 11.35v.05q.075 6.867 4.75 11.55 4.83 4.823 11.6 4.8h154.6q6.667-.03 11.3-4.6.242-.205.45-.45 4.57-4.633 4.6-11.3m-1-.05v.05q-.022 6.271-4.3 10.6-.209.244-.45.45-4.329 4.278-10.6 4.3h-154.6q-6.348.013-10.9-4.55-4.372-4.362-4.45-10.8v-.05q.025-6.222 4.25-10.7.207-.193.4-.4 4.478-4.225 10.7-4.25h154.6q6.438.078 10.8 4.45 4.563 4.552 4.55 10.9"/>
            <path fill-opacity=".447" d="M482.7 219.3v-.05q.013-6.348-4.55-10.9-4.362-4.372-10.8-4.45h-154.6q-6.222.025-10.7 4.25-.193.207-.4.4-4.225 4.478-4.25 10.7v.05q.078 6.438 4.45 10.8 4.552 4.563 10.9 4.55h154.6q6.271-.022 10.6-4.3.241-.206.45-.45 4.278-4.329 4.3-10.6m-1-.05v.05q-.025 5.858-4.05 9.9-.17.231-.4.4-4.042 4.025-9.9 4.05h-154.6q-5.938.015-10.2-4.25-4.082-4.079-4.15-10.1v-.05q.023-5.815 3.95-10 .22-.18.4-.4 4.185-3.927 10-3.95h154.6q6.021.068 10.1 4.15 4.265 4.262 4.25 10.2"/>
            <path fill-opacity=".498" d="M481.7 219.3v-.05q.015-5.938-4.25-10.2-4.079-4.082-10.1-4.15h-154.6q-5.815.023-10 3.95-.18.22-.4.4-3.927 4.185-3.95 10v.05q.068 6.021 4.15 10.1 4.262 4.265 10.2 4.25h154.6q5.858-.025 9.9-4.05.23-.169.4-.4 4.025-4.042 4.05-9.9m-1-.05v.05q-.016 5.462-3.75 9.25-.172.18-.35.35-3.788 3.734-9.25 3.75h-154.6q-5.53.017-9.5-3.95-3.792-3.795-3.85-9.4v-.05q.02-5.408 3.7-9.3.183-.167.35-.35 3.892-3.68 9.3-3.7h154.6q5.605.058 9.4 3.85 3.967 3.97 3.95 9.5"/>
            <path fill-opacity=".545" d="M480.7 219.3v-.05q.017-5.53-3.95-9.5-3.795-3.792-9.4-3.85h-154.6q-5.408.02-9.3 3.7-.167.183-.35.35-3.68 3.892-3.7 9.3v.05q.058 5.605 3.85 9.4 3.97 3.967 9.5 3.95h154.6q5.462-.016 9.25-3.75.178-.17.35-.35 3.734-3.788 3.75-9.25m-1-.05v.05q-.02 5.05-3.5 8.55-.134.168-.3.3-3.5 3.48-8.55 3.5h-154.6q-5.12.019-8.8-3.65-3.501-3.512-3.55-8.7v-.05q.018-5.013 3.4-8.6.183-.167.35-.35 3.587-3.382 8.6-3.4h154.6q5.188.049 8.7 3.55 3.669 3.68 3.65 8.8"/>
            <path fill-opacity=".596" d="M479.7 219.3v-.05q.019-5.12-3.65-8.8-3.512-3.501-8.7-3.55h-154.6q-5.013.018-8.6 3.4-.167.183-.35.35-3.382 3.586-3.4 8.6v.05q.049 5.188 3.55 8.7 3.68 3.669 8.8 3.65h154.6q5.05-.02 8.55-3.5.166-.132.3-.3 3.48-3.5 3.5-8.55m-1-.05v.05q-.023 4.636-3.2 7.85-.147.155-.3.3-3.214 3.177-7.85 3.2h-154.6q-4.698.008-8.05-3.35-3.248-3.242-3.3-8v-.05q.016-4.607 3.15-7.9.146-.154.3-.3 3.293-3.134 7.9-3.15h154.6q4.758.052 8 3.3 3.358 3.352 3.35 8.05"/>
            <path fill-opacity=".647" d="M478.7 219.3v-.05q.008-4.698-3.35-8.05-3.242-3.248-8-3.3h-154.6q-4.607.016-7.9 3.15-.154.146-.3.3-3.134 3.293-3.15 7.9v.05q.052 4.758 3.3 8 3.352 3.358 8.05 3.35h154.6q4.636-.023 7.85-3.2.153-.145.3-.3 3.177-3.214 3.2-7.85m-1-.05v.05q-.014 4.24-2.95 7.15-.097.154-.25.25-2.91 2.936-7.15 2.95h-154.6q-4.29.01-7.35-3.05-2.958-2.958-3-7.3v-.05q.015-4.212 2.85-7.25.163-.103.25-.25 3.038-2.836 7.25-2.85h154.6q4.342.042 7.3 3 3.06 3.06 3.05 7.35"/>
            <path fill-opacity=".698" d="M477.7 219.3v-.05q.01-4.29-3.05-7.35-2.958-2.958-7.3-3h-154.6q-4.212.015-7.25 2.85-.087.147-.25.25-2.835 3.038-2.85 7.25v.05q.042 4.342 3 7.3 3.06 3.06 7.35 3.05h154.6q4.24-.014 7.15-2.95.153-.096.25-.25 2.936-2.91 2.95-7.15m-1-.05v.05q-.017 3.827-2.65 6.45-.11.141-.25.25-2.623 2.633-6.45 2.65h-154.6q-3.88.013-6.65-2.75-2.667-2.675-2.7-6.6v-.05q.012-3.805 2.6-6.55.11-.09.2-.2 2.745-2.588 6.55-2.6h154.6q3.925.033 6.6 2.7 2.763 2.77 2.75 6.65"/>
            <path fill-opacity=".749" d="M476.7 219.3v-.05q.013-3.88-2.75-6.65-2.675-2.667-6.6-2.7h-154.6q-3.805.012-6.55 2.6-.09.11-.2.2-2.588 2.745-2.6 6.55v.05q.033 3.925 2.7 6.6 2.77 2.763 6.65 2.75h154.6q3.827-.017 6.45-2.65.14-.109.25-.25 2.633-2.623 2.65-6.45m-1-.05v.05q-.008 3.431-2.4 5.8-.061.09-.15.15-2.369 2.392-5.8 2.4h-154.6q-3.458.002-5.95-2.5-2.365-2.354-2.4-5.85v-.05q.01-3.41 2.3-5.85.11-.09.2-.2 2.44-2.29 5.85-2.3h154.6q3.496.036 5.85 2.4 2.502 2.492 2.5 5.95"/>
            <path fill-opacity=".796" d="M475.7 219.3v-.05q.002-3.458-2.5-5.95-2.354-2.364-5.85-2.4h-154.6q-3.41.01-5.85 2.3-.09.11-.2.2-2.29 2.44-2.3 5.85v.05q.036 3.496 2.4 5.85 2.492 2.502 5.95 2.5h154.6q3.431-.008 5.8-2.4.089-.06.15-.15 2.392-2.369 2.4-5.8m-1-.05v.05q-.011 3.018-2.1 5.1-.073.077-.15.15-2.082 2.089-5.1 2.1h-154.6q-3.05.004-5.25-2.2-2.074-2.07-2.1-5.15v-.05q.008-3.003 2.05-5.15.073-.077.15-.15 2.147-2.042 5.15-2.05h154.6q3.08.026 5.15 2.1 2.204 2.2 2.2 5.25"/>
            <path fill-opacity=".847" d="M474.7 219.3v-.05q.004-3.05-2.2-5.25-2.07-2.074-5.15-2.1h-154.6q-3.003.008-5.15 2.05-.077.073-.15.15-2.042 2.147-2.05 5.15v.05q.026 3.08 2.1 5.15 2.2 2.204 5.25 2.2h154.6q3.018-.011 5.1-2.1.077-.073.15-.15 2.089-2.082 2.1-5.1m-1-.05v.05q-.003 2.623-1.85 4.4-.024.076-.1.1-1.777 1.847-4.4 1.85h-154.6q-2.64.006-4.55-1.9-1.784-1.787-1.8-4.45v-.05q.006-2.609 1.75-4.5.073-.027.1-.1 1.891-1.744 4.5-1.75h154.6q2.663.016 4.45 1.8 1.906 1.91 1.9 4.55"/>
            <path fill-opacity=".898" d="M473.7 219.3v-.05q.006-2.64-1.9-4.55-1.787-1.784-4.45-1.8h-154.6q-2.609.006-4.5 1.75-.027.073-.1.1-1.744 1.891-1.75 4.5v.05q.016 2.662 1.8 4.45 1.91 1.906 4.55 1.9h154.6q2.623-.003 4.4-1.85.076-.024.1-.1 1.847-1.777 1.85-4.4m-1-.05v.05q-.006 2.21-1.55 3.7-.037.064-.1.1-1.49 1.544-3.7 1.55h-154.6q-2.23.008-3.85-1.6-1.493-1.504-1.5-3.75v-.05q.004-2.202 1.5-3.8.037-.014.05-.05 1.598-1.496 3.8-1.5h154.6q2.246.007 3.75 1.5 1.608 1.62 1.6 3.85"/>
            <path fill-opacity=".949" d="M472.7 219.3v-.05q.008-2.23-1.6-3.85-1.504-1.493-3.75-1.5h-154.6q-2.202.004-3.8 1.5-.013.037-.05.05-1.496 1.598-1.5 3.8v.05q.007 2.246 1.5 3.75 1.62 1.608 3.85 1.6h154.6q2.21-.006 3.7-1.55.063-.036.1-.1 1.544-1.49 1.55-3.7m-5.35-4.4q1.817.01 3.05 1.25 1.298 1.29 1.3 3.1v.05q.003 1.813-1.3 3.05-1.237 1.303-3.05 1.3h-154.6q-1.81-.002-3.1-1.3-1.24-1.233-1.25-3.05v-.05q.002-1.807 1.2-3.1l.05-.05q1.293-1.198 3.1-1.2z"/>
            <path d="M470.4 216.15q-1.233-1.24-3.05-1.25h-154.6q-1.807.002-3.1 1.2l-.05.05q-1.198 1.293-1.2 3.1v.05q.01 1.817 1.25 3.05 1.29 1.298 3.1 1.3h154.6q1.813.003 3.05-1.3 1.303-1.237 1.3-3.05v-.05q-.002-1.81-1.3-3.1"/>
        </g>
    </g>
    <g filter="url(#J)" style="filter:url(#g)" transform="translate(6.502 77.158)scale(.31383)">
        <path fill="url(#a)" d="M98.9 62.65Q109 68.2 117.85 72.8q2.25-2.45 5-5.15-19.9-12.95-48.1-29.45Q44.7 20.85 22.9 9.7 6.05 1.05 1.6.15.25-.15.05.25q-.5 1 6.1 5.85 4.8 3.6 13.55 9.3 3.9 2.6 8.15 5.3Q46 32.3 70.25 46.35q15.4 8.95 28.65 16.3" style="fill:url(#h)"/>
    </g>
    <g filter="url(#L)" style="filter:url(#i)" transform="translate(41.164 79.197)scale(.31383)">
        <path fill="url(#M)" d="M120.85 1.85q-.3-.5-.85-.9-5.15-3.45-28.8 5.85-23.7 9.4-52 26.05Q15.35 46.9 0 59.2q8.55 2.15 16.75-.05 5.5-1.3 9.45-3.65 69.15-38.95 94.65-53.65" style="fill:url(#j)"/>
    </g>
    <g filter="url(#N)" style="filter:url(#k)" transform="translate(38.512 94.12)scale(.31383)">
        <path fill="url(#O)" d="M43 3.25q-.25-.25-.5-.45Q38.95 0 29.9 0T11.6 2.8Q4.1 5.1 0 8.1q3.95 2.2 4.75 2.45 10.5 3.7 20.45 1.05 5.5-1.3 9.45-3.65 4.25-2.4 8.35-4.7" style="fill:url(#l)"/>
    </g>
    <g filter="url(#P)" style="filter:url(#m)" transform="translate(34.856 92.943)scale(.31383)">
        <path fill="url(#Q)" d="M.2 5.35q14.6 8.4 16.2 8.95 10.5 3.7 20.45 1.05 1.9-.45 3.65-1-1.9-1.8-4.55-3.65-7.35-5.2-16.6-8.3Q10.2-.7 4.6.2-1 1.05.2 5.35" style="fill:url(#n)"/>
    </g>
    <path fill="url(#T)" d="M.518 224.21h.7q-.327-4.031-.7-9.25z" style="fill:url(#o)" transform="scale(.31383)"/>
    <path fill="url(#q)" d="M1.218 224.21h1.05q-.739-8.244-1.75-22.4v13.15q.373 5.219.7 9.25" style="fill:url(#p)" transform="scale(.31383)"/>
    <path fill="url(#r)" d="M.518 191.11q.112.968.2 2 1.55 20.8 2.55 31.1h1q-1-9.6-2.7-31.05-.374-4.186-1.05-7.35z" style="fill:url(#B)" transform="scale(.31383)"/>
    <path fill="url(#s)" d="M.518 191.11v10.7q1.011 14.156 1.75 22.4h1q-1-10.3-2.55-31.1-.088-1.032-.2-2" style="fill:url(#C)" transform="scale(.31383)"/>
    <path fill="url(#t)" d="M.518 182.01v3.8q.676 3.164 1.05 7.35 1.7 21.45 2.7 31.05h1q-1-9.1-2.85-31.05-.66-6.773-1.9-11.15" style="fill:url(#D)" transform="scale(.31383)"/>
    <path fill="url(#u)" d="M.518 178.61v3.4q1.24 4.377 1.9 11.15 1.85 21.95 2.85 31.05h1q-1-8.3-3.05-31.05-.9-9.05-2.7-14.55" style="fill:url(#K)" transform="scale(.31383)"/>
    <path fill="url(#v)" d="M.518 169.71q.498 1.175 1 2.6 2.7 7.85 4.15 20.65 2.45 22.75 3.25 29.1.1.95.35 2.15h1q-.106-.37-.2-.75l.1.3q-.003-.066 0-.15-.34-1.902-.6-3.5l.3 1.55q-.65-5.1-3.4-28.8-1.65-14.1-4.65-22.5-.653-1.837-1.3-3.25z" style="fill:url(#R)" transform="scale(.31383)"/>
    <path fill="url(#w)" d="M.518 172.41q.351.91.7 1.95 2.35 7 3.6 18.6 2.5 24.2 3.35 30.65-.05.2.1.6h1q-.25-1.2-.35-2.15-.8-6.35-3.25-29.1-1.45-12.8-4.15-20.65-.502-1.425-1-2.6z" style="fill:url(#S)" transform="scale(.31383)"/>
    <path fill="url(#x)" d="M.868 176.36q-.175-.512-.35-1v3.25q1.8 5.5 2.7 14.55 2.05 22.75 3.05 31.05h1q-.9-7.1-3.25-31.3-1.05-10.1-3.15-16.55" style="fill:url(#U)" transform="scale(.31383)"/>
    <path fill="url(#y)" d="M.518 172.41v2.95q.175.488.35 1 2.1 6.45 3.15 16.55 2.35 24.2 3.25 31.3h1q-.15-.4-.1-.6-.85-6.45-3.35-30.65-1.25-11.6-3.6-18.6-.349-1.04-.7-1.95" style="fill:url(#V)" transform="scale(.31383)"/>
    <path fill="url(#z)" d="M279.568 220.61q-.037.3-.05.6-.119 5.373-1.55 9.85-3.55 10.2-11.45 16.6-.05 0-.1.05l-.15.2q-2.95 2.35-109.4 62.4-3.85 2.25-9.15 3.55h-.05q-9.65 2.55-19.85-1.05-4.5-1.55-109.85-64.2h.05q-4.65-2.8-7.15-5.55 0-.05-.05-.05-6.9-6.95-9.45-17.45v.05q-.082-.393-.15-1.4h-.7v2.2q2.698 10.399 9.6 17.3 2.6 2.85 7.35 5.75 105.5 62.75 110 64.3 10.5 3.7 20.45 1.05 5.5-1.3 9.45-3.65 106.6-60.1 109.5-62.5l.25-.25q8.15-6.55 11.8-17.05 1.48-4.625 1.6-10.15-.005-.042 0-.1-.008-.072 0-.2v-.6q.044-2.871.1-5.75-.527 3.09-1.05 6.05" style="fill:url(#W)" transform="scale(.31383)"/>
    <path fill="url(#A)" d="M279.518 221.21q.013-.3.05-.6.523-2.96 1.05-6.05.044-3.612.1-7.25-1.107 6.928-2.15 13.3-.087.3-.1.6h.05q-.119 5.178-1.5 9.55v-.05q-3.45 9.95-11.15 16.15-.1.05-.15.15l-.2.2q-4.35 3.1-109.1 62.2-.05 0-.05.05-3.75 2.2-8.9 3.4-.05 0-.05.05-9.4 2.45-19.25-1l-.05-.05q-4.45-1.6-109.6-64.1-4.45-2.75-6.9-5.4l-.05-.05q-6.75-6.75-9.25-16.95v.05q-.06-.346-.1-1.2h-1q.068 1.007.15 1.4v-.05q2.55 10.5 9.45 17.45.05 0 .05.05 2.5 2.75 7.15 5.55h-.05q105.35 62.65 109.85 64.2 10.2 3.6 19.85 1.05h.05q5.3-1.3 9.15-3.55 106.45-60.05 109.4-62.4l.15-.2q.05-.05.1-.05 7.9-6.4 11.45-16.6 1.431-4.477 1.55-9.85" style="fill:url(#X)" transform="scale(.31383)"/>
    <path fill="url(#Y)" d="M276.468 221.21q.013-.3.1-.6 2.05-13.763 4.35-29.95.089-4.851.15-9.7-2.967 21.843-5.5 39.6v.05q-.087.3-.1.6h.05q-.115 4.591-1.3 8.5l-.05.15q-3.207 8.997-10.15 14.65-.2.15-.35.3-2.9 2.3-108.75 62-.05.05-.1.05-3.35 1.95-8.05 3.1-.05 0-.1.05-8.55 2.2-17.55-.95-4.45-1.65-109.05-63.85l-.05-.05q-4-2.45-6.2-4.8l-.15-.15q-6.084-6.133-8.4-15.4-.028-.208-.05-.6h-1q.054.545.1.8l-.05-.15q2.35 9.65 8.7 16.05l.1.1q2.3 2.5 6.5 5.05l-.05-.05q104.8 62.35 109.25 64h.05q9.25 3.25 18.1.95.05-.05.1-.05 4.8-1.15 8.3-3.2h.1q104.55-59 108.8-62.05l.1-.05q.15-.2.3-.3 7.25-5.9 10.55-15.25 1.235-4.07 1.35-8.85z" style="fill:url(#Y)" transform="scale(.31383)"/>
    <path fill="url(#Z)" d="M280.818 199.36q.067-4.359.1-8.7-2.3 16.187-4.35 29.95-.087.3-.1.6h.05q-.115 4.78-1.35 8.85-3.3 9.35-10.55 15.25-.15.1-.3.3l-.1.05q-4.25 3.05-108.8 62.05h-.1q-3.5 2.05-8.3 3.2-.05 0-.1.05-8.85 2.3-18.1-.95h-.05q-4.45-1.65-109.25-64l.05.05q-4.2-2.55-6.5-5.05l-.1-.1q-6.35-6.4-8.7-16.05l.05.15q-.046-.255-.1-.8h-1q.047.694.1 1v-.1q2.4 9.9 8.95 16.5 0 .05.1.1 2.35 2.55 6.65 5.2h.05q104.9 62.45 109.4 64.05 9.6 3.35 18.7.95h.05q5-1.2 8.65-3.3 0-.05.05-.05 104.65-59.05 108.95-62.1l.15-.15q.1-.15.25-.25 7.45-6 10.85-15.65l-.05.05q1.332-4.224 1.45-9.25h-.05q.013-.3.1-.6 1.558-9.982 3.25-21.25" style="fill:url(#Z)" transform="scale(.31383)"/>
    <path fill="url(#aa)" d="M280.718 207.31q.054-3.969.1-7.95-1.692 11.268-3.25 21.25-.087.3-.1.6h.05q-.118 5.026-1.45 9.25l.05-.05q-3.4 9.65-10.85 15.65-.15.1-.25.25l-.15.15q-4.3 3.05-108.95 62.1-.05 0-.05.05-3.65 2.1-8.65 3.3h-.05q-9.1 2.4-18.7-.95-4.5-1.6-109.4-64.05h-.05q-4.3-2.65-6.65-5.2-.1-.05-.1-.1-6.55-6.6-8.95-16.5v.1q-.053-.306-.1-1h-1q.04.854.1 1.2v-.05q2.5 10.2 9.25 16.95l.05.05q2.45 2.65 6.9 5.4 105.15 62.5 109.6 64.1l.05.05q9.85 3.45 19.25 1 0-.05.05-.05 5.15-1.2 8.9-3.4 0-.05.05-.05 104.75-59.1 109.1-62.2l.2-.2q.05-.1.15-.15 7.7-6.2 11.15-16.15v.05q1.381-4.372 1.5-9.55h-.05q.013-.3.1-.6 1.043-6.372 2.15-13.3" style="fill:url(#aa)" transform="scale(.31383)"/>
    <path fill="url(#ab)" d="M281.068 180.96q.06-5.521.1-11.05-3.63 28.486-6.65 50.65v.05q-.037.3-.05.6h.05q-.114 4.43-1.25 8.2-.05.05-.05.15-3.1 8.7-9.85 14.2l-.5.4q-5.05 3.45-108.45 61.8-.05 0-.1.05-3.25 1.9-7.75 2.95-.1.05-.2.05-8.2 2.15-16.9-.9h-.05q-4.4-1.65-108.8-63.75l-.05-.05q-3.9-2.35-6-4.65l-.2-.2q-5.85-5.95-8.1-14.85-.021-.149-.05-.4h-1q.022.392.05.6 2.316 9.267 8.4 15.4l.15.15q2.2 2.35 6.2 4.8l.05.05q104.6 62.2 109.05 63.85 9 3.15 17.55.95.05-.05.1-.05 4.7-1.15 8.05-3.1.05 0 .1-.05 105.85-59.7 108.75-62 .15-.15.35-.3 6.943-5.653 10.15-14.65l.05-.15q1.185-3.909 1.3-8.5h-.05q.013-.3.1-.6v-.05q2.533-17.757 5.5-39.6" style="fill:url(#ab)" transform="scale(.31383)"/>
    <path fill="url(#ac)" d="M281.318 157.96q-.446 3.064-.8 6.15-3.835 32.086-7 56.45v.05q.013.3-.05.6h.05q-.116 4.375-1.25 8.05l.05-.2q-2.95 8.55-9.55 13.9-.2.15-.35.3l-.05.05q-3.2 2.4-108.45 61.75l-.1.1q-3.15 1.8-7.5 2.85-.1 0-.2.05-7.95 2.05-16.3-.9h-.05q-4.4-1.7-108.65-63.65l-.05-.05q-3.7-2.3-5.75-4.45l-.25-.25q-5.7-5.75-7.85-14.45-.004-.046 0-.1h-1q.029.251.05.4 2.25 8.9 8.1 14.85l.2.2q2.1 2.3 6 4.65l.05.05q104.4 62.1 108.8 63.75h.05q8.7 3.05 16.9.9.1 0 .2-.05 4.5-1.05 7.75-2.95.05-.05.1-.05 103.4-58.35 108.45-61.8l.5-.4q6.75-5.5 9.85-14.2 0-.1.05-.15 1.136-3.77 1.25-8.2h-.05q.013-.3.05-.6v-.05q3.02-22.164 6.65-50.65.06-3.77.1-7.55h.05z" style="fill:url(#ac)" transform="scale(.31383)"/>
    <path fill="url(#ad)" d="M280.518 164.11q.354-3.086.8-6.15v-7.05q-.657 1.485-.9 3.15l-1.25 10v.05q-3.633 32.036-6.65 56.45v.05q.013.3-.05.6h.05q-.113 4.088-1.15 7.55l-.05.15q-2.858 8.147-9.2 13.3-.2.1-.35.3-2.9 2.25-108.3 61.7l-.2.1q-3 1.75-7.2 2.75-.1 0-.2.05-7.65 1.95-15.75-.9h-.05q-4.35-1.7-108.4-63.55-.05-.05-.1-.05-3.55-2.2-5.55-4.3-.15-.1-.25-.25-5.467-5.566-7.55-13.85h-1q-.004.054 0 .1 2.15 8.7 7.85 14.45l.25.25q2.05 2.15 5.75 4.45l.05.05q104.25 61.95 108.65 63.65h.05q8.35 2.95 16.3.9.1-.05.2-.05 4.35-1.05 7.5-2.85l.1-.1q105.25-59.35 108.45-61.75l.05-.05q.15-.15.35-.3 6.6-5.35 9.55-13.9l-.05.2q1.134-3.675 1.25-8.05h-.05q.063-.3.05-.6v-.05q3.165-24.364 7-56.45" style="fill:url(#ad)" transform="scale(.31383)"/>
    <path fill="url(#ae)" d="M281.318 148.01v-2.2q-3.297 3.496-3.8 8.1-.658 5-1.15 10.15-3.185 32.086-5.85 56.45v.1q.006.093 0 .15-.021.204 0 .35-.005.063 0 .1-.113 3.69-1.05 6.9 0 .05-.05.15v.05q-2.7 7.55-8.55 12.3-.3.25-.55.5-5.3 3.5-107.85 61.35l-.2.1q-2.8 1.6-6.65 2.55-.1 0-.25.05-7.1 1.8-14.55-.8l-.1-.05q-4.35-1.7-108.15-63.45l.1.1q-3.3-2.05-5.15-4l-.3-.3q-4.951-5.046-6.95-12.45h-1q2.032 7.884 7.25 13.15.1.15.25.3 1.95 2 5.4 4.15l-.1-.05q104 61.8 108.35 63.5h.05q7.75 2.75 15.15.85.1 0 .25-.05 4-.95 6.9-2.6.1-.1.2-.15 102.55-57.8 107.95-61.4.25-.3.55-.5 6.1-4.95 8.9-12.8 1.035-3.375 1.15-7.4-.037-.3.05-.6l-.05-.1q2.815-24.364 6.25-56.45.591-5.1 1.15-10.1.422-3.28 2.4-5.95" style="fill:url(#ae)" transform="scale(.31383)"/>
    <path fill="url(#af)" d="M281.318 150.91v-2.9q-1.978 2.67-2.4 5.95-.559 5-1.15 10.1-3.435 32.086-6.25 56.45l.05.1q-.087.3-.05.6-.115 4.025-1.15 7.4-2.8 7.85-8.9 12.8-.3.2-.55.5-5.4 3.6-107.95 61.4-.1.05-.2.15-2.9 1.65-6.9 2.6-.15.05-.25.05-7.4 1.9-15.15-.85h-.05q-4.35-1.7-108.35-63.5l.1.05q-3.45-2.15-5.4-4.15-.15-.15-.25-.3-5.218-5.266-7.25-13.15h-1.05q2.083 8.284 7.55 13.85.1.15.25.25 2 2.1 5.55 4.3.05 0 .1.05 104.05 61.85 108.4 63.55h.05q8.1 2.85 15.75.9.1-.05.2-.05 4.2-1 7.2-2.75l.2-.1q105.4-59.45 108.3-61.7.15-.2.35-.3 6.342-5.153 9.2-13.3l.05-.15q1.037-3.462 1.15-7.55h-.05q.063-.3.05-.6v-.05q3.017-24.414 6.65-56.45v-.05l1.25-10q.243-1.665.9-3.15" style="fill:url(#af)" transform="scale(.31383)"/>
</svg>
