<svg xmlns="http://www.w3.org/2000/svg" xml:space="preserve" width="88.338" height="104.242" preserveAspectRatio="none">
    <defs>
        <linearGradient id="a" x1="200.837" x2="209.462" y1="201.85" y2="22.35" gradientTransform="translate(7.6 13.1)scale(.31383)" gradientUnits="userSpaceOnUse" spreadMethod="pad">
            <stop offset="0%" stop-color="#A0704B"/>
            <stop offset="19.608%" stop-color="#B88157"/>
            <stop offset="67.059%" stop-color="#C78B5F"/>
            <stop offset="100%" stop-color="#A7734C"/>
        </linearGradient>
    </defs>
    <path fill="#141212" d="M40.081 61.759q-.188.22-.392.36-.063.048-.11.095-.44.392-.079.988.675.863.785 2.73.063.895-.016 2.025l2.652 9.352 2.291 4.048q2.59 4.158 4.425 4.253l.534-.8q.11-.158.156-.409-1.835-.094-4.424-4.252l-2.291-4.048-2.652-9.352q.22-3.468-.77-4.755-.078-.125-.109-.235m-.188-4.645q.533-.784 1.02-.926l.235-.941q-.596.502-1.255 1.867m2.18.455q-.015-.031-.015-.047-.392.251-.973 2.118-.157.503-.33.91.566-.69 1.02-2.118.158-.486.299-.863m-.047-4.362-.157.643.11-.11.266-.753zm-2.682 1.663-.032.346q.283-.22.455-.534-.204.141-.423.188m.156-2.981.644-1.193q-.33.047-.926.91-.345.471-.58.926-.597-.078-1.162 1.13-.047.141-.078.283.267-.236.549-.204.235-.456.58-.926.644-.926.973-.926m15.315-.879q-.125 0-.204.047.879 1.35 1.334 2.935.36 1.24.44 2.651 1.647 6.073.423 9.086.282-.361.534-.863 1.474-2.982-.267-9.43-.141-2.355-1.036-4.269-.816-.22-1.224-.157M29.6 58.966q-.33.266-.518.518-1.898.91-5.476 1.082l-1.067.675-.69 1.208 1.067-.675q.235-.015.486-.015 3.217-.22 4.99-1.067.188-.251.518-.518.455-.44.879-.518.172-.047.36-.016.299-.094.581-.172.157-.063.314-.11 2.856-.941 2.856-1.49.298-.346.721-.691.267-.251.55-.44.612-.454 1.27-.627.048-.173.11-.345.095-.377.189-.738-.738.298-1.428.942-.424.345-.722.69 0 .628-3.75 1.773-.58-.11-1.24.534m-2.683-7.72h1.397q1.427.235 3.17 1.145.36.204.737.424 5.288-2.181 6.23-4.017l.376-.079-.408-.204q-1.507 1.444-5.508 3.092-2.165-1.287-3.907-1.57h-1.397q-.266.095-3.154-1.49-2.714-1.585-4.895-1.585l-1.742.25q-.973-.627-9.525 1.13l-.69 1.209q3.374-.69 5.57-1.004 3.358-.502 3.955-.126l1.741-.25q1.522 0 3.311.768.77.33 1.585.816 2.887 1.585 3.154 1.49m21.246-10.309q-.251.88-.69 1.209l.157 1.679.439-.079q2.04-.612 5.068-5.57l-.031-.063q-2.558 3.891-4.347 4.425l-.439.078zm-7.36.8-.548 1.1q.235-.22.502-.487.015-.016.047-.032.816-.612 1.773-.878l.957.627q.345-.769.487-1.334l-.754-.502q-.988.283-1.82.91-.345.346-.643.597m-7.155 2.306q-.314.032-.518-.062-.283-.157-.377-.565-.345-1.585-2.965-3.782l-5.069-8.316-1.224-3.86q-1.459-5.226-.172-6.732l-1.209.612-.69 1.208 1.208-.612q-1.286 1.507.173 6.732l1.224 3.86 5.068 8.316q.361.298.675.58 1.663 1.539 2.15 2.747.094.235.14.455.064.314.268.486.22.189.627.142.848-.173 2.51.533.19.078.393.173 1.758.753 2.291.533.016 0 .031-.016.91-.517 1.93.534V45.33q-.25-.11-.486-.22-.392-.047-.753.157-.502.267-2.323-.518-1.96-.894-2.902-.706m3.248-4.942q-.079.03-.126.094-.078.062-.11.188l-.58 1.02q.047-.063.125-.094.298-.11.518-.094.314 0 .424.25l.533 2.056q.079.189.283.408.58.628 2.15 1.428v-1.412l.125-.094q-1.57-.863-1.867-1.538l-.534-2.056q-.188-.423-.941-.156m7.516-3.437q-.55.173-.643.408l-.644 1.13q.141-.188.596-.33.157-.047.314.016.675.298 1.271 3.06.236.36-.91 2.573l1.067.69q-.125-1.05.173-1.537.063-.141.172-.235.424-.346.142-2.056 0-.22.015-.455.016-.235.016-.298-.722-3.264-1.57-2.966M38.325 21.59q.204.173.376.267 0 .015.016.015.078.063.173.126.266.188.533.392l2.981 3.091q2.825 3.233 3.217 4.928.016.078.031.172l1.005 1.35q.565.831.988 1.694.408.863.675 1.742.094 1.145.126 2.118.11 1.35-.048 1.977-.062.863-.235 1.475 1.318-.972.847-6.778-.517-1.758-1.663-3.437l-1.004-1.35q-.267-1.678-3.248-5.099l-2.982-3.091q-7.06-5.194-9.524-5.398l-1.067.879-.69 1.208 1.066-.879q2.26.189 8.427 4.598m16.978-6.888L54.188 13.1l-1.319 9.54q.361-.172.471 2.197v.55q-.031.894-.11 1.867-.533.156.204 2.808.204 1.067.534 2.15.063.235.141.486.706.55.863 2.558 0 .22.016.455-.016.706-.204 2.84-.204 2.134-.345 2.37.69-.848.784-1.664.487-2.95.44-4.848-.063-1.915-.863-2.919-.424-1.318-.675-2.636l-.189-1.318q.973-1.883.487-4.08-.283-1.224-.345-1.585-.047-.282.047-.03zm6.48 34.473q-1.287-.533-2.856-.91-2.981-.753-3.797-.172l-1.114-.502q-.424-.048-.879-.299-.612.707-1.914.424l-1.412.361-.44.267q1.664-.298 3.327.157l1.742.8q.549-.392 2.07-.173.55.063 1.24.236.236.047.487.11 1.569.376 2.856.91.345.204.659.439 1.538 1.067 2.573 2.542.298.424.55.879 1.302.643 2.87 2.84.707.988 1.46 2.29.816 1.397 1.695 3.17.879 2.385 1.46 4.284.925 2.558 1.019 4.158.188 1.256.094 2.056-.016.157-.047.298-.047.251-.125.424l.486-.88q.22-.219.33-.752.533-2.51-2.527-10.796-3.499-7.045-6.025-8.3-1.318-2.354-3.782-3.86m2.542-8.16q.032.172.047.33.534-.299.66-.8-.346.234-.707.47M40.316 72.099q-.188.11-.298.33l.251 1.24q.298 1.333.722 1.427l.377-.47q-.612-1.365-1.052-2.527m-.894-4.88q.141-.031.235-.125-1.035-2.071-1.192-3.64-.392.36-.11 2.008.282 1.538.8 1.742.126.047.267.015m1.334-8.802-.565-.895-.942 1.57q.189 0 .565.329.283.235.675.675l.267-1.664zm-5.46-1.193q-.048.016-.08.031-.94.612-.768.989.016.063.063.11l1.396-.722q.267-.047.675-.314.094-.188-.047-.314-.047-.094-.157-.125-.298-.079-1.083.345m2.982-3.483q0 .423.972.596.487 0 .816-1.052.016-.094.047-.172l-.69-.628zm-.77-5.743-.11-.675q-1.098.423-2.588-.77l-.016.032q-.094.345.079.706 2.086 1.13 2.636.707m19.567 2.479q.031-.22.078-.393-.988-.298-1.49-.298l.11.518 1.223.753q0-.235.079-.58m-2.37 6.465q-.266.408-.58.784-2.903 3.185-7.971 2.118-.204-.094-.393-.235-1.16-.816-1.789-3.107-.47 0-.972-.031.11.58.25 1.098.707 2.668 2.072 3.405.063.047.141.079.141.031.298.062 4.849.91 7.673-2.18.754-.926 1.271-1.993m-2.495-5.21q.22-.33.408-.675l-.094-.078q-.157.392-.314.753m-1.004-4.707.094.266q1.177.236 1.46-.14-.785-.158-1.554-.126m6.308-1.334q.675-.392.816-.706-.8.36-2.15.8-.015.094.016.173.282.345 1.318-.267m-27.24 15.205q.173-.251-.016-.455-.314-.345-.737-.032-.157.11-.267.22-.22.22-.251.486-.031.408.894.126.267-.188.377-.345m.69-7.532q.047-.141.016-.267l-.832-.063q-1.898-.408-2.557-1.004-.283.079-.345.283-.157.8 1.663 1.24 1.867.439 2.055-.19m-9.367-3.435q.015-.079.015-.142-3.107-.408-3.734-.8-.047.079-.063.157-.188.706 1.773 1.161 1.836.33 2.009-.376m8.112-7.313-.282-.549q-.079.032-.126.079-.643.376.502 1.977 1.067 1.49 1.664 1.208.172-.173.172-.44-1.051-.94-1.93-2.275m17.496-4.613h-.424l-.125 2.652.737.518q.392-.22.408-1.412 0-.534-.078-1.287-.11-.251-.314-.377-.094-.062-.204-.094m5.774-4.425q-.408.424-.204 1.867.094.8.361 1.35.487.784.895.33-.958-2.01-1.052-3.547m-7.987-2.024q-.596.377.55 1.961 1.114 1.68 1.663 1.224.157-.11.173-.33-.032-.282-.361-.501-.628-.455-1.177-1.334-.314-.486-.597-1.114-.14 0-.25.094m6.92-7.453q0-.408.046-.722-.376.031-.565.549-.172.486-.172 1.38 0 1.915.769 1.947h.031q.596 0 .722-1.209h-.031q-.8 0-.8-1.945m15.47 34.113q-.203 0-.423.125l-.266.157 1.584 2.103.816-.063zm-5.759-6.78q-.235-.046-.423.095-.534.534.784 1.93 1.224 1.412 1.742 1.051.235-.172.188-.533-1.742-1.397-2.29-2.542m1.615-9.29q.455-.297.44-.564-.251.047-.55.078l-.768.565q.33.298.878-.078m5.634-7.83-1.146.627-1.13 1.773q-1.286 1.836-2.432 2.637-.345 0-.722.204-.768.25-1.02.878-2.824 2.715-3.42 2.37-.44.11-.973.266-1.051.424-1.758 1.052-.596-.157-1.223-.267-1.303-.078-1.585.55-.502 0-1.005.078-1.16.094-1.333.345h-1.036q-.22.11-.455.235l-.596.973h1.396q.173-.251 1.334-.345h.079q.47-.079.925-.079.032-.062.079-.125.188-.267.627-.377.361-.078.88-.047.627.11 1.223.267.55-.486 1.302-.847.22-.11.456-.204.533-.157.972-.267.189.11.612-.094.895-.424 2.81-2.275.25-.628 1.019-.88.094-.046.188-.078.283-.125.534-.125.314-.22.659-.518.847-.785 1.773-2.118l1.13-1.773 1.145-.628q.157.832-.157 1.695 1.13-1.491.848-2.903" style="stroke-width:.313827"/>
    <path fill="url(#bS)" d="m68.184 35.523-1.145.628-1.13 1.773q-.926 1.333-1.773 2.118-.345.298-.66.518-.25 0-.533.125-.094.032-.188.079-.769.25-1.02.879-1.914 1.851-2.809 2.275-.423.204-.612.094-.439.11-.973.267-.235.094-.455.204-.753.36-1.302.847-.596-.157-1.224-.267-.518-.031-.879.047-.439.11-.627.377-.047.063-.079.125-.455 0-.925.079h-.079q-1.161.094-1.334.345h-1.396l.596-.973q.235-.125.455-.235 3.735-2.009 4.347-3.907.14-.236.345-2.37.188-2.134.204-2.84-.016-.235-.016-.455-.157-2.008-.863-2.558-.078-.25-.141-.486-.33-1.083-.534-2.15-.737-2.652-.204-2.808.079-.973.11-1.868v-.549q-.11-2.37-.47-2.197l1.318-9.54q-3.233 8.207-2.81 9.368l-.595 1.6q-.346 2.197.8 5.178 1.035 3.186.941 3.358l-.25 1.334q-.095 1.82.83 4.174l.032.063q-3.028 4.958-5.068 5.57l-.44.079-.156-1.68q.439-.329.69-1.208.173-.612.235-1.475.063-.863.048-1.977-.032-.973-.126-2.118-.267-.879-.675-1.742-.423-.863-.988-1.694l-1.005-1.35q-.015-.094-.03-.172-.393-1.695-3.218-4.928l-2.981-3.09q-.267-.205-.533-.393-.095-.063-.173-.126-.016 0-.016-.015-.172-.094-.376-.267-6.167-4.41-8.427-4.598l-1.067.88q2.213-.676 7.187 3.436 1.412 1.412 2.008 1.773h.079l5.79 7.845q1.02 3.186 2.432 4.19.628.408.157 1.036-.424.737-.502 2.479 0 .063-.016.298-.015.235-.015.455.282 1.71-.142 2.056-.11.094-.172.235-.298.486-.173 1.538l-1.067-.69q1.146-2.213.91-2.574-.596-2.762-1.27-3.06-.158-.063-.315-.016-.455.142-.596.33-.031.047-.047.078v.298l.989 1.93q.14.456-.047 1.224-.142.565-.487 1.334l-.957-.627q-.957.266-1.773.878-.032.016-.047.032-.267.266-.502.486-.016 0-.016.016l-.126.094v1.412q-1.569-.8-2.15-1.428-.203-.22-.282-.408l-.533-2.055q-.11-.251-.424-.251-.22-.016-.518.094-.078.031-.125.094-.55.533.957 3.248 0 .251 2.589 1.46.235.11.486.219v1.679q-1.02-1.051-1.93-.534-.015.016-.031.016-.533.22-2.29-.533-.205-.095-.393-.173-1.663-.706-2.51-.533-.409.047-.628-.142-.204-.172-.267-.486-.047-.22-.141-.455-.487-1.208-2.15-2.746-.314-.283-.675-.58l-5.068-8.317-1.224-3.86q-1.46-5.225-.173-6.732l-1.208.612q-.816 2.385 1.49 10.968l1.758 3.876q2.087 4.049 3.562 4.959l.785 1.475q1.13 1.71 2.526 2.761 5.24 2.636 6.559 1.758l.314.172.408.204-.377.079q-.941 1.836-6.23 4.017-.376-.22-.737-.424-1.742-.91-3.17-1.145h-1.396q-.267.094-3.154-1.491-.816-.486-1.585-.816-1.789-.769-3.31-.769l-1.742.251q-.597-.376-3.955.126-2.196.314-5.57 1.004l9.446.377q-.345.549 4.457 1.13.266-.424 2.698.705 1.303.55 2.448 1.162.44.816 2.809 1.318l4.739.345q2.165.204 5.303-4.033l.91-.376-.266.517-.644 1.193q-.33 0-.972.926-.346.47-.581.926-.282-.032-.55.204-.313.282-.611.925-.016.079-.047.157-.094.361-.189.738-.062.172-.11.345-.658.173-1.27.628-.283.188-.55.439-.423.345-.721.69 0 .55-2.856 1.491-.157.047-.314.11-.282.078-.58.172-.189-.03-.361.016-.424.079-.88.518-.329.267-.517.518-1.773.847-4.99 1.067-.25 0-.486.015l-1.067.675q1.24 1.161 4.11.361 1.382-.455 2.543-1.036.518.581 1.647.189 1.115-.408 1.193-1.083.455-.314 1.444-.784l2.432-1.256q.8-.157 2.73-2.102 1.145-.33 1.365-1.522l.032-.346q.22-.047.423-.188.471-.36.8-1.302v-.016l.69-.785q.519.534.895.236l.173-.079-.079.251-.266.754-.11.11-.534.564-.188.832-.235.941q-.487.142-1.02.926-.565.785-1.177 2.26-.534 1.49-.957 2.903-.251 2.918.769 5.382-.503 2.746 2.902 9.807 4.708 7.516 6.889 8.583 1.145.502 1.318-.44-1.836-.094-4.425-4.252l-2.29-4.048-2.653-9.352q.079-1.13.016-2.024-.11-1.868-.785-2.73-.36-.597.079-.99.047-.046.11-.093.204-.142.392-.361.36-.455.675-1.208.172-.408.33-.91.58-1.868.972-2.119 0 .016.016.047.863 2.7 3.656 5.43l2.73 2.887q3.311 2.746 6.261 1.977 1.13-.204 1.93-1.79l.157-.344q1.224-3.013-.424-9.086-.078-1.412-.439-2.651-.455-1.585-1.334-2.935.079-.047.204-.047.408-.063 1.224.157.392.11.879.267 1.898.706 2.965.455.785-.204.942.502.565 1.506 3.248 3.452l5.774 7.862 1.82 4.33q1.664 4.566.628 6.089.597.313.895-.157.062-.095.11-.204.078-.173.125-.424.031-.141.047-.298.094-.8-.094-2.056-.251-1.679-1.02-4.158-.58-1.899-1.46-4.284-.878-1.773-1.694-3.17-.753-1.302-1.46-2.29-1.568-2.197-2.87-2.84-.252-.455-.55-.88-1.035-1.474-2.573-2.541-.314-.235-.66-.44-1.286-.533-2.855-.91-.251-.062-.487-.11-.69-.172-1.24-.235-1.521-.22-2.07.173l-1.742-.8q-1.663-.455-3.327-.157l.44-.267 1.412-.36q1.302.282 1.914-.425.455.251.879.299.769.062 1.412-.581 2.526-.8 3.154-1.397 1.13-.8 2.244-1.6 1.35-.942 1.616-1.146 1.993-.204 1.93-1.522-.015-.157-.047-.33.361-.235.706-.47 2.385-1.71 2.997-3.326.314-.863.157-1.695m-4.613 5.837q.094.11.11.22.015.267-.44.565-.549.376-.878.078-.079-.063-.141-.157-.032-.298.502-.69.533-.377.847-.016m-1.946 10.074q.267.031.612.298.361.282.816.847.157.189.283.346.486.643.58 1.05.047.362-.188.534-.518.361-1.742-1.05-1.318-1.397-.784-1.93.188-.142.423-.095m5.335 6.904q.22-.125.424-.125.141-.016.282.03l.863.848q.8 1.083.612 1.428l-.047.016-.816.063-1.584-2.103zm-15-34.96q.03-.016.062-.016.596 0 .753 1.946 0 .408-.031.737-.126 1.209-.722 1.209h-.031q-.77-.032-.77-1.946 0-.895.173-1.381.189-.518.565-.55m-6.417 10.137q-1.146-1.584-.55-1.961.11-.094.251-.094.299.016.738.486.298.314.675.832.14.22.266.424.471.784.456 1.208-.016.22-.173.33-.55.454-1.663-1.225m7.233 1.93q-.204-1.443.204-1.867.094-.11.251-.157.095-.031.173 0 .565.079.863 1.868.031.408.031.753-.015.784-.266 1.082-.408.455-.895-.33-.267-.548-.36-1.349m-5.995 2.558h.424q.11.032.204.094.204.126.314.377.078.753.078 1.287-.016 1.192-.408 1.412l-.737-.518zm-16.978 6.12q-1.145-1.6-.502-1.977.047-.047.126-.079.25-.125.659.204.376.314.878 1.036.189.282.346.549.345.628.33 1.036 0 .266-.173.439-.597.282-1.664-1.208m-8.724 5.084q.502.25.533.58 0 .063-.015.142-.173.706-2.009.376-1.961-.455-1.773-1.161.016-.078.063-.157.22-.408 1.083-.345.376.031.894.157.784.172 1.224.408m9.29 3.295q.533.282.611.596.031.126-.016.267-.188.628-2.055.188-1.82-.44-1.663-1.24.062-.203.345-.282.157-.047.392-.047.235-.031.502-.031.392 0 .816.11.66.204 1.067.439m-.11 7.94q.189.204.016.455-.11.157-.377.345-.925.282-.894-.126.031-.266.251-.486.11-.11.267-.22.423-.313.737.032m26.817-15.535.063-.031q.768-.518 1.05-.377.08.032.126.126.095.172.016.36-.141.315-.816.707-1.036.612-1.318.267-.031-.079-.016-.173.032-.377.895-.879m-4.331 1.271q.078.157.094.408 0 .22-.063.534-.015.015-.015.031-.283.377-1.46.141l-.094-.266-.25-.722 1.568-.345q.141.078.22.22m-.22 4.8.094.08 1.303.925q1.412 1.475 1.334 3.593-.236.707-.55 1.366-.517 1.067-1.27 1.992-2.825 3.092-7.674 2.181-.157-.03-.298-.062-.078-.032-.141-.079-1.365-.737-2.071-3.405-.142-.518-.251-1.098.502.031.972.031 5.995-.063 8.238-4.77.157-.36.314-.753m3.139-1.193-.079-.392 1.758.267q-.11.125-.189.423-.047.173-.078.393-.079.345-.079.58l-1.224-.753zM37.352 47.12l.047.204.11.675q-.55.423-2.636-.707-.173-.36-.079-.706l.016-.031.063-.251zm1.898 7.218q-.972-.173-.972-.596l1.145-1.256.69.628q-.031.078-.047.172-.33 1.052-.816 1.052m-3.483 3.703q-1.004.628-1.255.314-.047-.047-.063-.11-.173-.377.769-.989.031-.015.078-.031.785-.424 1.083-.345.11.031.157.125.141.126.047.314-.141.298-.816.722m4.425-.518.565.895v.015l-.267 1.664q-.392-.44-.675-.675-.376-.33-.565-.33zm-.361 8.473q.094.816-.173 1.099-.094.094-.235.125-.141.032-.267-.015-.518-.204-.8-1.742-.282-1.648.11-2.009.063-.062.157-.094.172 0 .33.094.533.299.737 1.742.094.44.141.8m.737 5.995q.189-.095.267-.095l.753 2.527h-.078l-.141.204-.377.47q-.424-.094-.722-1.427l-.25-1.24q.11-.22.297-.33.11-.078.251-.11" style="fill:url(#a);stroke-width:.313827"/>
</svg>
