<svg xmlns="http://www.w3.org/2000/svg" xml:space="preserve" width="88.338" height="104.242" preserveAspectRatio="none">
    <defs>
        <linearGradient id="a" x1="165.15" x2="171.25" y1="231.6" y2="231.6" gradientTransform="translate(6.1 6.8)scale(.31383)" gradientUnits="userSpaceOnUse" spreadMethod="pad">
            <stop offset="0%" stop-color="#59B8BC"/>
            <stop offset="23.922%" stop-color="#3AC1C6"/>
            <stop offset="100%" stop-color="#2BAAAE"/>
        </linearGradient>
        <linearGradient id="b" x1="185.925" x2="190.975" y1="219.4" y2="219.4" gradientTransform="translate(6.1 6.8)scale(.31383)" gradientUnits="userSpaceOnUse" spreadMethod="pad">
            <stop offset="0%" stop-color="#59B8BC"/>
            <stop offset="23.922%" stop-color="#3AC1C6"/>
            <stop offset="100%" stop-color="#2BAAAE"/>
        </linearGradient>
        <linearGradient id="c" x1="103.162" x2="154.137" y1="155.012" y2="90.887" gradientTransform="translate(6.1 6.8)scale(.31383)" gradientUnits="userSpaceOnUse" spreadMethod="pad">
            <stop offset="0%" stop-color="#59B8BC"/>
            <stop offset="23.922%" stop-color="#3AC1C6"/>
            <stop offset="100%" stop-color="#2BAAAE"/>
        </linearGradient>
    </defs>
    <path fill="url(#bS)" d="M57.929 78.918q0 .157.078.423l.251.785q.063.486.941-.063.722-.33.644-.722-.722-.533-1.24-.674-.11-.032-.204-.047l-.392.078q-.079.063-.079.22" style="fill:url(#a);stroke-width:.313827"/>
    <path fill="#151819" d="M57.85 77.145q-.047.11 0 .33l.078 1.443q0-.157.079-.22l.392-.078q.094.015.204.047.518.14 1.24.674l.33-1.286-.817-.393q-.988-.439-1.506-.517m6.402-4.049q-.094.094-.188.314l.392 2.26q-.016-.408.11-.66l.235-.313q.189-.063.408.11.063.047.141.125.252.251.565.643.11.079.126.173l.612-1.396-.157-.063q-.785-1.02-1.554-1.224-.094-.032-.156-.032-.11-.015-.22-.015h-.235Zm3.484-1.396.094-1.303q-.424-.14-.957-.517-.157-.095-.314-.22-.644-.314-1.036 0l-.486.33q-.88.862.486.957 1.271-.079 1.946 1.333.125-.204.267-.518zm-25.405 2.353q-.423-.564-.659-1.004l-2.965 3.515q-.11.392-.079.55l.188 1.098zm12.365 3.5q.047-.11.11-.22.518-1.146-.361-.989-.11.58.251 1.209M25.463 40.709q-.094 1.475.063 2.778 0-1.24.188-2.605zm2.73-7.186-.471-.142.047-.313-.016.015q-.157.832.282 1.052zm-.408-2.495v-.016l-.078-.094-.094.816.298.094.031-.36.079-.08zm18.987-4.331.11 1.648q2.306.863 3.938 2.102.816.612 1.46 1.318.282.298.533.644l.079.078v.016q.125.157.235.314-.126-.142-.298-.251l-.047.047.015-.063q-.33-.188-.816-.298-.408-.11-.941-.157h-1.585l-.879.643-.486.47q-.345.346-.753.723-.408.345-.895.737-.157.11-.33.236-1.113 1.13-2.604 2.243-1.789 1.318-4.127 2.62-2.118 1.288-3.954 2.182-1.412.659-2.212.957-.032.016-.047.016-.675.25-1.303.44-1.35.721-2.495.972l-.533.141-1.052.487-.706 1.35q-.376.768-.47 1.349-.095.486.031.831-.188-.376-.345-.753l-.204.047q-.487.251-.33.487v.015l.094 1.428q.079-.141.346-.282l.941-.251h.173q0-.251.11-.628.172-.643.643-1.616.016-.079.031-.141l.424-.644.941-.47.66-.157q.47-.079 2.447-.973.58-.157 1.193-.377.769-.267 1.961-.8l.126-.047q.172-.094.36-.173 1.82-.894 3.814-2.18 4.393-2.339 6.716-4.88 1.522-1.115 1.992-1.68l.487-.486.957-.628h.722q1.679 0 2.479.392l.863-.878v-.079q.314-.33.486-.078.063.062.079.172l-.11-1.585q0-.156-.078-.235-.173-.251-.487.079v.078l-.612.675-.502-.675q-1.993-2.872-6.245-4.472m-13.165-.8-.079-.094-2.338 1.38v.063l-.156.079-.299.486.455.643-.706.471h-.565l-.863-1.208-.816.173q-.408-.644-1.427-.644l-.958.079-.172-.142q-.471-.486-1.993-.816l-1.444-.25-.8.58-.235-.251q-1.052 1.364-8.474 4.314v.408q-.721-.157-2.087.314l-1.192.486-.079.22q-1.13-.063-2.306.816-.58.408-.973.784l.11 1.648q.392-.377.973-.785 1.177-.878 2.306-.815l.079-.22 1.192-.487q.424-.14.785-.22.8-.203 1.302-.093v-.408q7.422-2.95 8.474-4.315l.235.25.8-.58 1.444.251q1.522.33 1.993.816l.172.141.957-.078q.361 0 .644.078.518.141.784.565l.816-.172.863 1.208h.565l.706-.471-.455-.643.298-.487.157-.078v-.063l2.338-1.38.079.093.157-.094.549-.078.314.722.8-.393.235-.565-.486-1.004-.66.314-.313-.722-.55.079zm6.779-.408-1.209-.22.094-.502-1.835-.706-.032-.047q-.172.408-.659.973l.47.157.33.564 1.836.707-.094.502 1.208.22q.063.03.142.062.204.11.345.235.44.393.157.91l-.565.707q-.063.047-.11.094-.832.659-1.883.957h-.47l-.173.078-.8.157h-.079q-.722.079-1.742.55h-.078l-.33.172-.094.079-.141.078h-.079l-.172.079-.157.172-.173.079h-.078l-.141.157h-.079l-.047.062-.031.032-.063.047q-.063.047-.11.094h-.078q-.895.722-1.35 1.365l-.486.628-.079.078-.25.33q-.252.282-.409.455-.157.157-.565.44-.423.282-.58.329-.173.031-.204.047l-1.02.25q-.66 0-.69-.643l-.079.346-.628-1.193q-.894 1.757-1.27 3.593l-1.523-.408q-.486-.062-.486.251 0 .157.078.314l.079 1.177q.11-.141.44-.094l1.521.408q.377-1.836 1.271-3.593l.628 1.192q.863.957 2.15 0 .015-.016.047-.031l.015-.016q.487-.376 1.475-1.13.33-.33.644-.737l.627-.8q.487-.66 1.35-1.366l.172-.14.157-.095.173-.157 1.27-.643q1.037-.487 1.837-.55l.957-.156h.078q.738-.126 1.35-.393.643-.282 1.145-.737 1.68-.565 1.271-1.836l-.816-1.114q.393.016.785.047 1.585.126 3.06.58l.502-1.6q.141-.486.376-.314.173 0 .252.157l-.11-1.647q-.079-.157-.251-.157-.236-.173-.377.313l-.502 1.601q-1.836-.565-3.844-.628l-.628 1.036q.408-.722-.643-1.208M51.448 8.448l-.047-.8q.188-.455-.063-.848l-1.114.455q-1.271.722-1.852 1.774v-.095l-.313-.078-.958.816q-1.035.957-1.27 1.679l-.33-.173q-6.151 5.131-7.83 5.445l.078.392-.8.408-.47 1.35q-.487 1.522-.33 2.165l.078.236-.565.8q-.455.879-.078 1.522l-.55.706.534 1.098.032-.03.094-.126q-.377-.644.078-1.523l.565-.8-.078-.235q-.157-.643.33-2.166l.47-1.349.8-.408-.078-.392q.25-.047.612-.204 1.506-.66 4.864-3.327 1.083-.847 2.354-1.914l.204.11q.172-.173.298-.314.125-.157.172-.267.252-.36.66-.769l.266-.267.957-.815.314.078v.094q.173-.298.393-.58.549-.675 1.459-1.193zm17.778 51.828-.675-.047.565 1.915q-.125-.047-.25-.079-1.491-.376-3.83.895l-1.992 1.24q-.047.03-.063.062-1.13.894-2.495 1.82-1.914 1.35-4.001 2.542-1.303.848-2.558 1.554-.282.14-.549.298-1.836.973-3.609 1.663l-2.385 1.365q-.314.204-.58.408-.628.612-.974 1.224l.11 1.648q.267-.487.738-.973.737-.8 1.977-1.6l1.93-.942q1.648-.675 3.53-1.663.267-.157.55-.299 1.224-.674 2.557-1.49 3.735-2.15 6.23-4.221.031-.032.063-.047.784-.612 1.757-1.161 2.087-1.287 3.609-1.209.11.69.204 1.397.063.69.11 1.412 0 .22-.016.377-.141.8-.957.25-1.02-.548-2.464.33l-.015.016v.016h-.032l-.062.031q-.644.36-1.146.879-.016 0-.031.015l-1.177 1.287q-1.742 1.883-3.076 2.856h-.015q-.032.031-.063.047-.267.188-.502.345l-.063.063q-.298.157-.612.314-.063.031-.141.094-.063.031-.141.078l-1.915.91q-.44.157-.941.33-.895.298-1.977.565l-1.664.47-1.365.628-.188.126q-1.255.847-1.255 1.883 0 .345-.079.549l-.015-.016v.016l-1.052 3.797v.079q0 .094.016.172l.141 1.271 1.867-5.005q0-.377.33-.863l.078-.157.377-.408.486-.392 4.63-1.381q.235-.079.454-.141.314-.095.612-.204 1.287-.44 2.464-1.067l.565-.408q1.977-1.193 3.907-3.421l1.914-1.852.094-.078.157-.094.079-.079.157-.078.078-.063.314-.173h.078l.33-.157h.078l.157-.078h.33q.502 0 .816.11.047 0 .094.031.031 0 .047.016l5.366.722.22-.079q.157.079.22.173l-.314-1.742h-.235l-4.206-.455zm-3.703-8.818-.173.141-.706.079.157.172q.361.361 1.036 1.648.33.627.55 1.506-.911.204-2.26 1.287-1.02.8-2.276 2.087-.486.486-.941.973-1.051 1.082-1.946 2.15-.863.705-1.695 1.317-1.6 1.177-3.028 1.962-.188.125-.392.25-.126.064-.251.142l-1.93 1.051q-.597.299-1.256.597l-1.35.612q-1.207.25-2.494.596-.785.204-1.6.44-2.495.705-3.876 1.443l.188.502q-.031.314.188.8 1.632-.926 4.943-1.789.44-.11.863-.22 1.35-.344 2.495-.58.973-.423 1.852-.831.282-.142.564-.267 1.57-.785 2.794-1.538 2.15-1.208 4.707-3.264.753-.973 1.789-2.04.25-.266.533-.533 2.558-2.793 4.237-3.672.392.235.455.47.659.252 1.396 1.758l.063-.078 5.273-1.036.313.157.032.031-.142-1.678-.313-.157-4.614.91-2.26-3.53q-.533-1.13-.925-1.868m-4.503-6.951q-.157-.361-.393-.738l-.627.706q.376.424.659.816.298.44.47.863-.25 0-.643-.376-.016-.016-.063-.032-.25-.094-1.302.251-.58.189-1.177.644-.722.533-1.46 1.443-.093.141-.187.267-.518.738-.926 1.334-.753.847-1.805 1.742-2.04 1.694-5.225 3.546-.204.125-.408.267l-2.448 1.365q-.172.078-.345.172l-.565.283q-.235.094-.455.204l-2.966 1.145q-.031.016-.062.016-.032 0-.047.016-.063.015-.11.03-.032 0-.063.017-.267.078-.534.14-.878 0-1.898.252-1.522.267-2.4.784l-.048.048q-.957.863-1.036 1.427 0 .236.079.236.031.47.22.941.25-.423.847-.957.879-.894 3.044-1.38 1.036-.142 1.914-.22.251-.047.502-.11l.22-.063.094-.031q.047-.016.11-.032.063-.015.141-.031.016-.016.047-.016l2.7-1.098 1.004-.487q1.475-.769 3.185-1.82 4.644-2.542 7.014-5.272.36-.518.784-1.099.173-.25.361-.517 1.35-1.664 2.62-1.977h-.062q1.255-.408 1.726-.299.267.063.267.299.502.33.863.831.36.518.58 1.224.048.126.079.251-.518.047-1.38.722-.927.69-2.23 2.071-.611.66-1.176 1.318-.612.722-1.145 1.428-1.067 1.256-2.872 2.574-1.412 1.05-3.28 2.134-1.584.972-3.028 1.663-.282.141-.565.267-1.883.831-3.53 1.176-.267.048-.534.11-1.443.283-2.981.69-2.37.628-3.42 1.24-.08.063-.126.142L36.981 65q-.408.266-.565.517l-.079-.078-2.495 1.851-.078.252q-.032.078.016.125l.094 1.522.078-.251 3.107-2.322.031.031.142-.063q.11-.14.298-.266h.015l.032-.032.016-.031.078-.079v.047q1.02-.659 3.64-1.349 1.538-.345 2.997-.628.267-.047.518-.094 1.68-.376 3.578-1.255.282-.126.58-.267.173-.094.361-.188l2.59-1.49q4.063-2.323 6.15-4.708.487-.58 1.02-1.224.424-.534.895-1.114 2.15-2.385 3.373-3.029h.079l.078-.015.063-.157 4.001-1.899.33.079-.141-1.648-.299-.079-3.577 1.695-.722-.988q-.424-1.6-1.522-2.307 0-.188-.157-.251zm1.208-3.53q.455-.158.565.03l-.094-1.365q.062-.157 0-.235-.079-.251-.581-.079l-2.777 1.758-.424.879.251-.58-.392-.942q-.032-.738-.518-1.413-.078-.11-.173-.22l-2.495-3.326q-.423-.769-1.24-1.538l-.501 1.114q.031.032.062.048 1.115.91 1.68 1.835.062.095.11.189-.895-.55-2.166-.314l-1.114.392q-.251.298-.55.596-.22.22-.47.424-.361.298-.785.58l-.047.048h-.015q-.016.015-.048.031l-1.365 1.114q-1.13 1.161-2.683 2.323-1.757 1.286-4.048 2.557-1.962 1.208-3.703 2.071-.299.142-.581.267-1.726.816-3.217 1.256l-1.694.706q-1.271.627-1.962.816-.141.047-.267.062l-.423.393v.204h-.079q-.25.894-.078 1.851 0 .487.047.926-.016-.58.141-1.13h.079v-.204l.878-.816q.189-.015.424-.078.722-.204 1.977-.8l1.663-.722h.016q1.554-.455 3.28-1.256.313-.156.627-.298l3.123-1.788q.031-.032.063-.048.03-.03.078-.047.126-.078.267-.172 4.393-2.323 6.7-4.865l1.444-1.13q.768-.533 1.223-.925.487-.424.612-.675l1.193-.376h.235q.816.14 1.68.784 1.035.565 1.678 1.177l.142.141q.329.345.549.722.094.157.172.345.173.393.189.816-.314-.25-.675-.33-.91-.219-2.118.471l-.157.095q-.91.596-1.617 1.302-.047.031-.078.063-.377.439-1.397 1.224-.282.204-.596.439-.957 1.051-2.26 2.087l-.925.659q-1.083.753-2.4 1.522-.205.126-.425.251-.58.345-1.13.66-.407.234-.8.486-1.114.659-2.15 1.192-.297.141-.58.283-1.82.863-3.468 1.333v.016q-1.365.706-2.495.957l-1.898.8q-.298.173-.534.346-.878.627-1.098 1.333-.126.393-.047.8-.22-.125-.393-.282l-.156-.157-2.056 1.177q-.628.487 0 .58l.11 1.068 2.871-1.664.33.079q0-.11.031-.22.079-.392.455-.879l-.015-.11q.659-.721 1.93-1.27.721-.251 1.192-.408 1.13-.236 2.48-.942h.015q.126-.031.251-.078.11-.032.236-.079 1.38-.455 3.028-1.224.282-.14.58-.282 1.585-.785 3.421-1.867 4.55-2.636 6.606-4.959 1.209-.737 1.93-1.569.047-.063.094-.11.393-.408.958-.8 1.114-.879 2.07-1.13.519-.11.958-.016l.487-.203z" style="stroke-width:.313827"/>
    <path fill="url(#bU)" d="M64.566 75.01q-.126.252-.11.66 0 .376.11.863.235.25.863-.142.659-.376.612-.643-.016-.094-.126-.173-.313-.392-.565-.643-.078-.078-.14-.125-.22-.173-.409-.11z" style="fill:url(#b);stroke-width:.313827"/>
    <path fill="#d0dae2" d="M52.829 32.566q-.016-.016-.032-.016l-.015.063z" style="stroke-width:.313827"/>
    <path fill="url(#ca)" d="M48.733 34.417q-.47.565-1.992 1.68-2.323 2.541-6.716 4.88-1.993 1.286-3.813 2.18-.189.079-.361.173l-.126.047q-1.192.533-1.961.8-.612.22-1.193.377-1.977.894-2.448.973l-.659.156-.941.471-.424.644q-.015.062-.031.14-.47.974-.643 1.617-.11.377-.11.628h-.173l-.941.25q-.267.142-.346.283-.047.094.016.204 0 .079.173.157l2.228.173q.33 1.6.973 2.62-.079-1.02.784-1.993l.863-.8q.047 0 .094-.016.126-.015.267-.062.69-.189 1.962-.816l1.694-.706q1.491-.44 3.217-1.256.282-.125.58-.267 1.742-.863 3.704-2.07 2.29-1.272 4.048-2.558 1.554-1.162 2.683-2.323l1.365-1.114q.032-.016.048-.031h.015l.047-.047q.424-.283.785-.58.25-.205.47-.425.299-.298.55-.596l1.114-.392q1.27-.235 2.165.314-.047-.094-.11-.189-.564-.925-1.679-1.835-.03-.016-.062-.048l.502-1.114.455-1.05v-.064q-.016-.11-.079-.172-.172-.251-.486.078v.079l-.863.878q-.8-.392-2.48-.392h-.721l-.957.628zm-6.967-7.108.816 1.114q.408 1.271-1.27 1.836-.503.455-1.146.737-.612.267-1.35.393h-.078l-.957.157q-.8.062-1.836.549l-1.271.643-.173.157-.157.094-.172.141q-.863.707-1.35 1.366l-.627.8q-.314.408-.644.737-.988.754-1.475 1.13l-.015.016q-.032.016-.047.031-1.287.957-2.15 0l-.628-1.192q-.894 1.757-1.27 3.593l-1.523-.408q-.33-.047-.44.094-.046.063-.046.157 0 .157.078.314l1.428.941.251.173q-.188 1.365-.188 2.605.016 2.37.769 4.252.157.377.345.753-.126-.345-.031-.831.094-.581.47-1.35l.706-1.35 1.052-.486.533-.14q1.146-.252 2.495-.974.628-.188 1.303-.44.015 0 .047-.015.8-.298 2.212-.957 1.836-.894 3.954-2.181 2.338-1.302 4.127-2.62 1.49-1.115 2.605-2.244.172-.126.33-.236.486-.392.894-.737.408-.377.753-.722l.486-.47.88-.644h1.584q.533.047.941.157.487.11.816.298.016 0 .032.016.172.11.298.25-.11-.156-.235-.313v-.016l-.079-.078q-.251-.346-.533-.644-.644-.706-1.46-1.318-1.632-1.24-3.938-2.102l-.11-1.648-.031-.518q-.079-.157-.252-.157-.235-.172-.376.314l-.502 1.6q-1.475-.454-3.06-.58-.392-.031-.785-.047m6.716-16.727-.314-.078-.957.816-.266.266q-.408.408-.66.77-.047.109-.172.266-.11.188-.173.376l-.125-.062-.204-.11q-1.271 1.067-2.354 1.914-3.358 2.668-4.864 3.327-.361.157-.612.204l.078.392-.8.408-.47 1.35q-.487 1.522-.33 2.165l.078.235-.565.8q-.455.88-.078 1.523l-.094.125-.032.031-.423.55.14.282.487 1.004-.235.565-.8.393-.314-.722-.55.078-.156.094-.079-.094-2.338 1.381v.063l-.157.078-.298.487.455.643-.706.47h-.565l-.863-1.207-.816.172q-.266-.424-.784-.565-.283-.078-.644-.078l-.957.078-.172-.141q-.471-.486-1.993-.816l-1.444-.251-.8.58-.235-.25q-1.052 1.365-8.474 4.315v.408q-.502-.11-1.302.094-.361.078-.785.22l-1.192.486-.079.22q-1.13-.063-2.306.815-.58.408-.973.785.722 1.208 3.593-.847l.644.392q.392.377 2.557-1.522l.392.063q.644.486 8.16-4.237l.235-.392q.33.973 4.002.722-.079 1.192 1.93.721l-.079.471.141.204v.016l.236.36-.079.08-.031.36-.157 1.255.016-.015-.047.313.47.142-.157.612-.172.596q-.047.282-.032.486.032.644.69.644l1.02-.251q.032-.016.205-.047.157-.047.58-.33.408-.282.565-.44.157-.172.408-.454l.251-.33.079-.078.486-.628q.455-.643 1.35-1.365h.078q.047-.047.11-.094l.063-.047.031-.032.047-.062h.079l.14-.157h.08l.172-.079.157-.172.172-.079h.079l.141-.078.094-.079.33-.172h.078q1.02-.471 1.742-.55h.078l.8-.157.173-.078h.471q1.051-.298 1.883-.957.047-.047.11-.094l.565-.706q.282-.518-.157-.91-.141-.126-.345-.236-.079-.031-.142-.063l-1.208-.22.094-.501-1.836-.707-.33-.564-.47-.157q.487-.565.66-.973.329-.77-.346-1.036 2.008-3.2 1.208-3.907h.55q.235-.141.47-.267 7.202-4.08 7.124-4.927v-.424q2.809-.941 2.573-1.506v-.628q3.201-1.694 2.464-2.871l-1.114.455q-.91.518-1.46 1.193-.22.282-.392.58zm17.684 57.807-.094.078-1.913 1.853q-1.93 2.228-3.907 3.42l-.565.409q-1.177.627-2.464 1.067-.298.11-.612.204-.22.062-.455.14l-4.629 1.382-.486.392-.377.408-.078.157q-.33.486-.33.863l-1.867 5.005-.047.126v.078q0 .236.11.314.11.094.36.016l.252-.173 2.463-3.044.251-1.585q.55.408 1.036.236.643-.471.392-2.166l.079-.33q0-.297.423-.627l.142-.078q.172-.095.345-.126.157-.031.251-.063.879-.157.36.989-.062.11-.109.22-.628 1.318 1.146 2.808l.094.079q.47.094.957-.079l.47-.706q-.266-.612-.298-1.35-.015-.125-.015-.25l.078-.644q0-.235.236-.235.156-.094.486-.031.518.078 1.506.517l.816.393q1.428 1.365 2.558.643l.078-.078q1.35-.958.863-2.652v-.785q.016-.094.032-.172.157-1.115.36-1.6.095-.22.19-.315l.078-.078h.235q.11 0 .22.015.062 0 .156.032.77.204 1.554 1.224l.157.063q.298.062.627-.142.236-.062.565-.8v-.063q-.157-.612-.376-1.067-.675-1.412-1.946-1.333-1.365-.095-.486-.958l.486-.33q.392-.313 1.036 0 .157.126.314.22.533.377.957.518.47.142.8-.015.314-.236.314-1.036l1.522.55 3.844-.785.236-.079q.156-.125.188-.235.016-.079-.047-.157-.063-.094-.22-.173l-.22.079-5.366-.722q-.016-.016-.047-.016-.047-.031-.094-.031-.314-.11-.816-.11h-.33l-.157.078h-.079l-.33.157h-.078l-.314.173-.078.063-.157.078-.079.079zm2.919-3.813q-.094-.706-.204-1.397-1.522-.078-3.609 1.209-.973.549-1.757 1.16-.032.016-.063.048-2.495 2.071-6.23 4.22-1.333.817-2.557 1.491-.283.142-.55.299-1.882.988-3.53 1.663l-1.93.941q-1.24.8-1.977 1.6-.471.487-.738.974 1.114.957 2.323 1.679.784.439 1.02-.016v-.016l.015.016q.079-.204.079-.55 0-1.035 1.255-1.882l.188-.126 1.365-.627 1.664-.471q1.082-.267 1.977-.565.502-.173.941-.33l1.915-.91q.078-.047.14-.078.08-.063.142-.094.031-.032.063-.047.298-.142.612-.33.235-.157.502-.345.031-.016.063-.047h.015q1.334-.973 3.076-2.856l1.177-1.287q.015-.015.031-.015.502-.518 1.146-.879l.062-.031q.016-.016.032-.016l.015-.016q1.444-.878 2.464-.33.816.55.957-.25.016-.157.016-.377-.047-.722-.11-1.412m-.534-4.347.675.047.675.032 3.609-1.993q.22-.141.282-.267.079-.141-.015-.267l-.032-.03-.314-.158-5.272 1.037-.063.078q-.737-1.506-1.396-1.757-.063-.236-.455-.47-1.68.878-4.237 3.67-.282.268-.533.534-1.036 1.067-1.79 2.04-2.557 2.056-4.707 3.264-1.223.753-2.793 1.538-.282.125-.564.267-.88.408-1.852.831-1.145.236-2.495.58-.424.11-.863.22-3.31.863-4.943 1.79-.172.11-.33.203l.252.644q-.047.36.282.988.236.44.66 1.004l-3.516 4.159q-.235.8.644.408l3.452-2.166.455-1.114 1.46 1.365q.125-1.396 1.976-2.793.267-.204.58-.408l2.386-1.365q1.773-.69 3.609-1.663.267-.157.55-.298 1.254-.706 2.557-1.554 2.087-1.192 4.001-2.542 1.146-.816 2.244-1.694l.314-.189 1.993-1.24q2.338-1.27 3.828-.894.126.032.251.079zm-.706-10.874q.314-.314.079-.47l-.33-.079-4.001 1.899-.063.157-.078.015h-.079q-1.224.644-3.373 3.029-.471.58-.895 1.114-.533.643-1.02 1.224-2.087 2.385-6.15 4.707l-2.59 1.49q-.188.095-.36.19-.299.14-.581.266-1.899.879-3.578 1.255-.25.047-.518.094-1.459.283-2.997.628-2.62.69-3.64 1.35-.044.01-.079.03l-.015.032-.032.032h-.015q-.189.125-.298.266-.063.063-.095.11l-.047-.047-.031-.031-3.107 2.322-.078.251q-.079.235.392.157l3.107-1.13.408-.392v.157q.235.737 1.93 2.966.423-.518 1.38-1.036 1.382-.738 3.876-1.444.816-.235 1.6-.44 1.288-.344 2.496-.595l1.35-.612q.658-.298 1.255-.597l1.93-1.05q.125-.08.25-.142.205-.126.393-.251 1.428-.785 3.028-1.962.832-.612 1.695-1.318.894-1.067 1.946-2.15.455-.486.941-.972 1.256-1.287 2.276-2.087 1.349-1.083 2.26-1.287-.22-.879-.55-1.506-.675-1.287-1.036-1.648l-.157-.172.706-.079.173-.141zm-4.629-.094q-.22-.706-.58-1.224-.361-.502-.863-.831 0-.236-.267-.299-.47-.11-1.726.299h.063q-1.271.313-2.62 1.977-.189.266-.362.517-.423.581-.784 1.099-2.37 2.73-7.014 5.272-1.71 1.051-3.185 1.82l-1.005.487-2.699 1.098q-.031 0-.047.016-.078.016-.14.031-.064.016-.11.032l-.095.031-.22.063q-.25.063-.502.11-.878.078-1.914.22-2.165.486-3.044 1.38-.596.534-.848.957-.156.251-.188.471 0 .235.079.235.094 1.24 1.192 2.417l.079.078q.157-.25.565-.518.078-.047.172-.094 1.051-.612 3.42-1.24 1.539-.407 2.982-.69.267-.062.534-.11 1.647-.345 3.53-1.176.283-.126.565-.267 1.444-.69 3.029-1.663 1.867-1.083 3.28-2.134 1.804-1.319 2.87-2.574.534-.706 1.146-1.428.565-.659 1.177-1.318 1.302-1.38 2.228-2.071.863-.675 1.38-.722-.03-.125-.078-.25m-5.24-9.055-.142-.141q-.643-.612-1.679-1.177-.863-.643-1.679-.784h-.235l-1.193.376q-.125.251-.612.675-.455.392-1.223.926l-1.444 1.13q-2.307 2.541-6.7 4.864-.141.094-.267.172-.047.016-.078.047-.032.016-.063.048l-3.123 1.788q-.314.142-.627.298-1.726.8-3.28 1.256h-.016l-1.663.722q-1.255.596-1.977.8-.235.063-.424.078l-.878.816v.204h-.079q-.157.55-.141 1.13 0 .36.063.722 0 2.416.973 3.483l.156.157q.173.157.393.283-.079-.408.047-.8.22-.707 1.098-1.334.236-.173.534-.346l1.898-.8q1.13-.25 2.495-.957v-.016q1.648-.47 3.468-1.333.283-.142.58-.283 1.036-.533 2.15-1.192.393-.252.8-.487.205-.141.424-.282.58-.314 1.13-.628 1.318-.769 2.4-1.522l.927-.66q1.302-1.035 2.26-2.086.313-.235.595-.44 1.02-.784 1.397-1.223.031-.032.078-.063.707-.706 1.617-1.302l.157-.095q1.208-.69 2.118-.47.36.078.675.33-.016-.424-.189-.817-.078-.188-.172-.345-.22-.377-.55-.722m4.833.848q0-.032-.015-.048-.11-.188-.565-.03l-2.777 1.757-.487.204q-.44-.095-.957.015-.957.251-2.071 1.13-.565.392-.958.8-.047.047-.094.11-.721.832-1.93 1.57-2.055 2.322-6.606 4.958-1.836 1.082-3.42 1.867-.299.141-.581.282-1.648.77-3.028 1.224-.126.047-.236.079-.125.047-.25.078h-.017q-1.349.706-2.479.942-.47.157-1.192.408-1.271.549-1.93 1.27l.015.11q-.376.487-.455.88-.031.11-.031.219l-.33-.079-2.871 1.664q-.628.486 0 .58l4.001-.894q.408 1.114.957 1.836v-.785q0-.157.895-1.051.266-.267.643-.487.879-.517 2.4-.784 1.02-.251 1.9-.251.266-.063.533-.141.031-.016.063-.016.047-.016.11-.031.015-.016.047-.016.031 0 .062-.016l2.966-1.145q.22-.11.455-.204l.565-.283q.173-.094.345-.172l2.448-1.365q.204-.142.408-.267 3.185-1.852 5.225-3.546 1.052-.895 1.805-1.742.408-.596.926-1.334.094-.126.188-.267.737-.91 1.46-1.443.595-.455 1.176-.644 1.051-.345 1.302-.25.047.015.063.03.392.377.643.377-.172-.423-.47-.863-.283-.392-.66-.816l.628-.706 2.181-2.48q.063-.156 0-.234" style="fill:url(#c);stroke-width:.313827"/>
</svg>
