<svg xmlns="http://www.w3.org/2000/svg" xml:space="preserve" width="88.338" height="104.242" preserveAspectRatio="none">
    <defs>
        <radialGradient id="a" cx="0" cy="0" r="160.8" fx="0" fy="0" gradientTransform="matrix(.3135 0 0 .24373 47.85 50.58)" gradientUnits="userSpaceOnUse" spreadMethod="pad">
            <stop offset="36.471%" stop-color="#9F87C5"/>
            <stop offset="66.667%" stop-color="#9680B9"/>
            <stop offset="100%" stop-color="#8F79B3"/>
        </radialGradient>
    </defs>
    <path fill="#0097d9" d="M53.16 61.058q-.033-.047-.08-.047-1.396-.486-2.557.99-.173.22-.33.47-.03.031-.03.078 0 .031.015.063 4.55 8.395 7.924 11.015 0-1.334-.346-2.793-.14-.58-.33-1.177-.69-2.118-4.236-8.473v-.032q0-.047-.03-.094"/>
    <path fill="#151516" d="M58.463 74.56q-1.725-4.116-3.135-6.522-.91-1.52-1.63-2.248-.988-1.33-2.023-2.627l-.078.079 6.317 12.663-.173 1.298q.314-.333.627-1.045.283-.633.095-1.599" style="stroke-width:.307359" transform="translate(-.006 -.064)"/>
    <path fill="#1b1b1c" d="m58.698 47.24-.063-.412-.376-.206.125.823zM39.167 68.323l-.22-.412-.485 1.678.188.554zm-3.778-6.901h-.329l.737 5.397.11-1.551zm-1.74-16.13-.03-.047-.189.079-.11 1.551 1.239-.585zm-1.395-4.732-1.018-.238-.549 1.235zm19.625 1.345.408-.981 1.207-.95-2.399.427z" style="stroke-width:.307359" transform="translate(-.006 -.064)"/>
    <path fill="#131314" d="m63.541 57.417-.596.348q1.96 4.511 1.881 8.437.502-4.068-1.285-8.785m-20.8 19.073-1.599-3.561-.486.712 1.975 4.4q3.62 2.248 4.028 4.987l.157 1.503.11-1.551-.157-1.504q-.407-2.738-4.028-4.986m-5.189-5.239-.11 1.551 1.145-.95-.235-.712.22-.728zm-3.291-4.401-.11 1.551.91 1.915.109-1.551zm2.242-10.4-2.32-1.076-.11 1.551 2.54 1.172v-.174l.33-.903zm-2.382.982q-.047.11-.11.19l-1.897 2.58-.11 1.551 1.897-2.58q.251-.332.251-1.33zm-3.982-12.695-.909.333-.188-.38-.737.269.816 1.662.909-.332 1.489 4.416 1.395.158.407-1.076 2.226.664v-.079q.173-.332.737-.918l-.768-.601-2.085-.618-.407 1.077-1.396-.158zm-3.197-3.703.204-1.298 3.134 4.479.11-1.551-2.978-4.258-.172-.11-.314 1.962q0 .396.016.776m-6.035-8.421.313 1.55q.22-.68.408-1.344 1.066-3.926 1.238-7.709-.345 3.688-1.959 7.503m10.44 1.456.908-1.156.91 1.077.909-1.52 1.646.855.329-1.488.987 1.488.659-1.82 1.065 1.234.079-1.582-1.035-1.203-.658 1.82-.988-1.488-.329 1.488-1.646-.855-.909 1.52-.909-1.077-1.348 1.805-3.62.158 3.62 1.504zm-.33-.902.11-1.551-2.445-1.203-.706 1.25zm-2.241-5.651-.972.997 2.727 1.741.11-1.55zm-3.496-5.05-2.414-3.34-.11 1.552 2.415 3.34 6.175.839-1.254-1.726zm19.17-1.52q-2.288-.3-4.514-1.14-4.28-1.662-6.615-5.144l-1.113 3.657q-1.316 2.849-2.476 3.656l.36 1.155q.314-.332.643-.79.658-.95 1.364-2.47l1.113-3.657q2.335 3.483 6.614 5.145 2.226.839 3.794.918l-.173 13.628-.25 1.741 1.238.333.156-.76-.658-.285zm-7.414 4.48-.987-.333v2.976l.329 1.345zM51.55 44.01l-.533 1.282 2.712 1.757 3.793-2.421.078-1.156 2.712.412v.332h1.568q4.733 4.448 6.426 6.252.423.475.659.76l1.708.855 1.003 1.187.11-1.551-1.003-1.187-1.709-.855q-1.113-1.409-7.085-7.012h-1.567l-2.712-.744-.674 1.393-3.198 2.184zm-5.11-4.258v-.744l-.83-.585-1.223.253-.377-.222-.971 1.03 1.238.743 1.223-.253.83.586v.744l.815 1.915.251.174 1.818-3.91-.282-.712-1.426 3.07-.25-.173zm2.367-9.83-2.21-2.168-.345 1.44 3.7 4.385 1.316 2.406.815-.332 1.066 2.849.345 1.472.11-1.551-.33-1.409-1.081-2.912-.565.221q-.36-1.44-2.821-4.4m25.675 32.084.11-1.55q-1.646-1.172-3.292-2.423-3.213-2.564-2.962-3.229-.988-1.092-2.477-1.994-2.884-1.915-5.267-.997-1.222-1.979-2.257-2.85l-1.317.824.094.079q1.474.411 3.37 3.498 2.383-.918 5.267.997 1.49.902 2.477 1.994-.251.665 2.962 3.23.815.617 1.646 1.234.815.602 1.646 1.187M37.725 48l-.314-.332q-.548.221-1.112.475l1.316 1.408q3.684-1.155 8.762-5.223l-.595-.982q-4.64 3.578-8.057 4.654m-1.646-5.018q-.25.111-.502.238l.486 1.646 7.007-3.514-.94-1.013-5.957 2.976z" style="stroke-width:.307359" transform="translate(-.006 -.064)"/>
    <path fill="url(#bS)" d="m72.084 62.498 2.398-.49q-.83-.586-1.646-1.188-.83-.617-1.646-1.234-3.213-2.565-2.962-3.23-.988-1.092-2.477-1.994-2.884-1.915-5.266-.997-1.897-3.087-3.37-3.498l-.095-.08 1.317-.822.251-.174-.204-1.346-.125-.823.376.206 1.677.886 1.238-1.33 2.226 4.227.079-.08q.25 0 1.16.333l1.473.665 2.304.665.753 1.662.329-.744 1.802.158-1.003-1.187-1.708-.855q-.236-.285-.659-.76-1.693-1.804-6.426-6.252h-1.568v-.332l-2.712-.412-.078 1.156-3.793 2.421-2.712-1.757.533-1.282.627-1.535-.298-.57-.784-1.504 2.399-.427-.345-1.472-1.066-2.85-.815.333-1.317-2.406-3.699-4.384v1.883l.893 1.916-.736.506 1.16.823.736 1.583q.737 1.662.486 2.501l.141.364.282.712-1.818 3.91-.25-.174-.816-1.915v-.744l-.83-.586-1.223.253-1.238-.744.971-1.028.424-.475-1.239-.333.251-1.74.173-13.63q-1.568-.078-3.794-.917-4.279-1.662-6.614-5.145l-1.113 3.657q-.706 1.52-1.364 2.47-.33.458-.643.79l2.947.095.455 4.527 2.555-2.659.987.333-.658 3.988.987-.57.659-.997.987-.174-.172 3.483-.079 1.582-1.065-1.234-.659 1.82-.987-1.488-.33 1.488-1.645-.855-.91 1.52-.909-1.076-.909 1.155-.329.76-3.62-1.504 3.62-.158-3.04-1.504.705-1.25.031-.08 1.818-.079-2.727-1.74.972-.998 2.57-2.66-6.175-.838-2.414-3.34q.22 2.184.11 4.432-.173 3.783-1.239 7.709-.188.664-.408 1.345l6.02 4.131.172.111 2.289 1.567 1.536.348 1.018.238-1.567.997 2.147 1.583.408 1.583.376.522.032.047.909.998-1.239.585.91.997 1.285.982.768.601q-.564.586-.737.918v.08l-2.226-.665-.407 1.076-1.395-.158-1.49-4.416-.908.332-.816-1.662.737-.269 1.238-.475-3.134-4.48-.204 1.299-.126.775q.094 6.474 1.082 6.648.407.08.658 2.327.235 2.153.815 2.153 1.16.095 2.477-.823l-.078 1.155 1.473 1.171 2.806 1.41.454.6.44.57-.33.903v.174l-2.54-1.172.048.507.031.411q0 .998-.25 1.33l-1.897 2.58.658 8.136-.157 3.087 1.145.664.83-1.33-.062-1.25-.016-.079.658-.665-.909-1.915.11-1.551.047-.697 1.489.665-.737-5.397h1.881q.47 3.561 2.007 6.49l.219.41-.517 1.821-.079.27-.22.727.236.713-1.144.95 2.633 7.486 1.395.159 4.28 2.421.501 2.074.564-.412-.156-1.503q-.408-2.739-4.029-4.986l-1.975-4.4.486-.713.58-.87v.079l4.608 3.83q5.596 3.482 10.534 1.741.548-.206.878-.506l.172-1.298-6.317-12.663.078-.08q1.035 1.299 2.022 2.628.721.728 1.63 2.248 2.43 3.514 4.578 7.265l.58.333.658-.586q.33-.253.658-.744 2.132-2.406 2.79-5.746.22-1.155.235-2.358.079-3.926-1.88-8.437l.595-.348.972-.57 1.646 2.169 1.16.079 1.975 2.738.486-.079zm-36.506-19.28q.25-.126.501-.237 5.094-2.421 5.674-3.039l.377.396.94 1.013-7.007 3.514zm9.828-.49.376.617.595.98q-5.078 4.069-8.762 5.224L36.3 48.142q.564-.254 1.112-.475 7.29-3.261 7.995-4.939" style="fill:url(#a);stroke-width:.315028" transform="translate(-.006 -.064)"/>
</svg>
