<svg xmlns="http://www.w3.org/2000/svg" xml:space="preserve" width="88.337" height="104.229" preserveAspectRatio="none">
    <defs>
        <linearGradient id="b" x1="-25.35" x2="-.05" y1="-144.538" y2="-159.163" gradientTransform="translate(6.48 14.375)scale(.31379)" gradientUnits="userSpaceOnUse" spreadMethod="pad">
            <stop offset=".784%" stop-color="#B0873C"/>
            <stop offset="57.647%" stop-color="#D29A33"/>
            <stop offset="100%" stop-color="#B68A3A"/>
        </linearGradient>
        <linearGradient id="c" x1="120.425" x2="62.175" y1="30.4" y2="167.6" gradientUnits="userSpaceOnUse" spreadMethod="pad">
            <stop offset="0%" stop-color="#96643D"/>
            <stop offset="19.608%" stop-color="#9D6D48"/>
            <stop offset="67.059%" stop-color="#9E6337"/>
            <stop offset="100%" stop-color="#915629"/>
        </linearGradient>
    </defs>
    <path fill="url(#H)" d="m48.48 44.42.173-.863q-.188-.235-.408-.423-4.722-.173-8.33 3.185l-2.684 3.436-.847-.487q-.157-.439-.204-.878-.157 1.098.204 2.15l.847.501 2.683-3.436q3.703-3.451 8.567-3.185" style="fill:url(#b);stroke-width:.313791" transform="translate(-.086 -.073)"/>
    <path fill="#e5e3ee" d="M49.623 83.193q-1.836-.094-4.423-4.252l-2.291-4.048-.69 1.208 2.29 4.048q2.59 4.158 4.425 4.252l.533-.8q.11-.157.157-.408m-33.2-35.976.69-1.208q-.972-.628-9.523 1.13l-.69 1.208q3.373-.69 5.57-1.005 3.357-.502 3.953-.125M28.897 57.76q-.33.267-.518.518-1.898.91-5.475 1.083l-1.067.674-.69 1.208 1.066-.674q.236-.016.487-.016 3.216-.22 4.99-1.067.187-.25.517-.518.455-.439.878-.517.173-.047.36-.016.299-.094.58-.173l.11-1.035q-.58-.11-1.238.533m7.17-19.769q-.078.063-.11.19l-.58 1.02q.047-.064.126-.096.298-.11.517-.094.314 0 .424.251l.533 2.056q.079.188.283.408l.408-1.616-.534-2.056q-.188-.423-.941-.157-.08.032-.126.094m7.64-3.53q-.548.173-.642.408L42.422 36q.14-.188.596-.33.157-.047.314.016.674.298 1.27 3.06.236.36-.91 2.573l1.067.69q-.125-1.05.173-1.538.063-.14.173-.235.423-.345.14-2.055 0-.22.016-.455t.016-.298q-.722-3.264-1.57-2.966m10.89-20.96-1.114-1.6-1.318 9.54 1.208-.77q-.047-.282.047-.03Zm13.57 19.612-1.144.628-1.13 1.772q-1.286 1.836-2.432 2.636l-.69 1.208q.314-.22.659-.517.847-.785 1.773-2.118l1.13-1.773 1.145-.628q.157.832-.157 1.695 1.13-1.49.847-2.903"/>
    <path fill="#dbe0e7" d="m40.256 65.542-.47 1.993 2.432 8.566.69-1.208zm-1.066-9.634q.533-.785 1.02-.926l.235-.94q-.596.501-1.255 1.866m2.18.455q-.015-.03-.015-.047-.393.25-.973 2.118-.157.502-.33.91.565-.69 1.02-2.118.157-.487.298-.863m-1.506-4.19q.126-.125.25-.297l-.25.282zm1.3.47.11-.11.268-.752-.22.22zm-2.525 1.02-.03.345q.28-.22.454-.533-.204.141-.424.188m15.47-3.86q-.125 0-.204.048.879 1.35 1.334 2.934.36 1.24.44 2.651 1.647 6.072.423 9.084.282-.36.533-.862 1.475-2.98-.266-9.43-.142-2.353-1.036-4.267-.816-.22-1.224-.157m-23.973 7.42-.11 1.036q.157-.062.314-.11 2.855-.94 2.855-1.49.298-.345.722-.69.267-.25.549-.44.612-.455 1.27-.627.048-.173.11-.345.095-.377.189-.738-.737.298-1.428.942-.423.345-.722.69 0 .627-3.75 1.773m-3.92-7.184.69-1.208q-.266.094-3.153-1.49-2.714-1.585-4.895-1.585l-1.742.25-.69 1.21 1.742-.252q1.52 0 3.31.77.769.33 1.585.815 2.887 1.584 3.153 1.49m-5.491-28.696 1.208-.612q-1.286 1.506.173 6.73l1.223 3.86 5.068 8.316.69-1.208-5.067-8.316-1.224-3.86q-1.46-5.224-.173-6.73l-1.208.612zM40.1 40.533l-.55 1.098q.236-.22.502-.486.016-.016.048-.03.815-.613 1.772-.88l.958.628q.345-.77.486-1.334l-.753-.502q-.99.282-1.82.91-.345.345-.643.596m-7.155 2.308q-.314.03-.518-.063l-.8 1.13q.22.188.628.14.847-.172 2.51.534.188.078.392.173 1.758.753 2.29.533.017 0 .032-.016.91-.517 1.93.534v-1.679q-.25-.11-.486-.22-.392-.047-.753.157-.502.267-2.322-.517-1.962-.895-2.903-.706m9.445-19.77-2.98-3.09q-7.061-5.193-9.524-5.397l-1.067.878-.69 1.208 1.066-.878q2.26.188 8.426 4.597.204.172.376.266 0 .016.016.016.078.063.172.126.267.188.534.392l2.98 3.09q2.825 3.233 3.217 4.927.016.08.032.173l1.004 1.35q.565.83.988 1.694.408.863.675 1.741l.69-1.208q-.518-1.757-1.663-3.436l-1.004-1.35q-.267-1.678-3.248-5.098m10.983-2.4-1.208.768q.36-.173.47 2.196v.55q-.03.894-.11 1.867-.533.157.205 2.808.204 1.067.533 2.15.063.235.14.486l.69-1.208q-.422-1.318-.673-2.636l-.188-1.318q.972-1.883.486-4.08-.282-1.223-.345-1.584m7.013 28.508q.345.204.66.44 1.537 1.066 2.572 2.541.298.424.55.88 1.302.642 2.87 2.84.707.987 1.46 2.29.816 1.396 1.694 3.17.879 2.383 1.46 4.282.925 2.557 1.02 4.157.187 1.256.093 2.056-.015.157-.047.298-.047.25-.125.424l.486-.88q.22-.219.33-.752.533-2.51-2.527-10.795-3.498-7.044-6.024-8.3-1.318-2.353-3.782-3.859-1.286-.533-2.855-.91-2.981-.753-3.797-.173l-.69 1.21q.549-.394 2.07-.174.55.063 1.24.235.236.047.487.11 1.569.377 2.855.91m3.232-9.367q.032.173.047.33.534-.298.66-.8-.346.235-.707.47m-.157-1.663q-.345 0-.721.204-.77.251-1.02.88-2.824 2.713-3.42 2.368-.44.11-.973.267-1.052.423-1.758 1.051-.596-.157-1.223-.267-1.303-.078-1.585.55l-.612 1.082q.188-.267.628-.377.36-.078.878-.047.628.11 1.224.267.55-.486 1.302-.847.22-.11.455-.204.534-.157.973-.267.188.11.612-.094.894-.424 2.808-2.275.25-.628 1.02-.879.094-.047.189-.078.282-.126.533-.126zM39.613 70.892q-.188.11-.298.33l.25 1.24q.299 1.333.723 1.427l.376-.47q-.612-1.366-1.05-2.527m-.895-4.879q.14-.03.235-.126-1.035-2.07-1.192-3.64-.392.361-.11 2.01.282 1.536.8 1.74.126.047.267.016m1.333-8.802-.564-.894-.942 1.57q.189 0 .565.33.283.234.675.673l.266-1.663zm-4.848-.784-1.396.721q.25.314 1.255-.313.675-.424.816-.722-.408.267-.675.314m2.37-3.89q0 .422.972.595.487 0 .816-1.05.016-.095.047-.174l-.69-.628zm-.88-6.418-.046-.204-2.48-.816-.062.25q1.49 1.193 2.589.77m19.675 3.152q.03-.22.078-.392-.988-.298-1.49-.298l.11.518 1.223.753q0-.236.079-.58M54 55.735q-.266.408-.58.785-2.903 3.185-7.97 2.118-.204-.094-.393-.235l-.44 1.365q.064.047.142.078l.298.063q4.849.91 7.673-2.18.753-.927 1.27-1.994m-2.494-5.209q.22-.33.408-.674l-.094-.079q-.157.393-.314.753m-1.004-4.706.094.266q1.177.236 1.459-.14-.784-.158-1.553-.126m6.307-1.334q.675-.392.816-.706-.8.36-2.15.8-.015.094.016.173.282.345 1.318-.267m-27.614 15.55q.267-.189.377-.346.172-.25-.016-.455-.314-.345-.737-.03-.157.11-.267.22-.22.218-.251.485-.031.408.894.125m1.083-8.143-.832-.062q-1.898-.408-2.557-1.005-.282.08-.345.283-.157.8 1.663 1.24 1.867.44 2.055-.189.047-.14.016-.267m-9.382-3.169q.015-.078.015-.14-3.106-.409-3.734-.8-.047.077-.063.156-.188.706 1.773 1.16 1.836.33 2.009-.376M46.5 36.8h-.424l-.125 2.652.737.517q.392-.22.408-1.412 0-.533-.078-1.286-.11-.25-.314-.377-.094-.063-.204-.094m5.774-4.424q-.408.423-.204 1.867.094.8.36 1.35.487.783.895.33-.957-2.01-1.051-3.547m14.403 24.632q-.204 0-.424.126l-.267.157 1.585 2.102.816-.063zm-5.758-6.778q-.236-.047-.424.094-.533.534.784 1.93 1.224 1.412 1.742 1.051.235-.172.188-.533-1.741-1.396-2.29-2.542m1.617-9.288q.455-.298.439-.565-.251.047-.55.08-.172.124-.768.564.33.298.879-.079"/>
    <path fill="#d3d0df" d="M38.986 60.914q-.063.047-.11.094-.44.392-.08.988.676.863.786 2.73.063.895-.016 2.024l.22.785.47-1.993q.22-3.467-.768-4.754-.08-.125-.11-.235-.188.22-.392.36m-.19-10.229.645-1.192q-.33.047-.926.91-.345.47-.58.926-.597-.079-1.162 1.13-.047.14-.078.282.267-.236.55-.204.234-.455.58-.926.643-.926.972-.926m14.513-4.299q-.423-.047-.878-.298-.612.706-1.915.424l-1.412.36-.44.267q1.664-.298 3.327.157l1.742.8.69-1.208zm-5.695-4.973-.157-1.679q-.244.882-.69 1.208l.157 1.68.439-.08q2.04-.61 5.068-5.57l-.032-.062q-2.557 3.89-4.346 4.424zm.69-8.457-.69 1.208q.095 1.146.126 2.118.11 1.35-.047 1.977-.07.87-.235 1.475 1.318-.973.847-6.778m5.1-1.459q.705.55.862 2.557 0 .22.016.455-.016.706-.204 2.84-.204 2.134-.345 2.37.69-.848.784-1.664.487-2.95.44-4.848-.063-1.914-.863-2.918zM43.268 55.297q-.47 0-.973-.03.11.58.25 1.097.707 2.667 2.072 3.405l.44-1.365q-1.162-.816-1.79-3.107"/>
    <path fill="#d2d3df" d="M52.07 44.408q.032-.062.08-.125l.61-1.083q-.501 0-1.003.08-1.161.093-1.334.344h-1.035q-.22.11-.455.235l-.596.973h1.396q.173-.25 1.334-.345h.078q.47-.079.926-.079m-25.857 5.633h1.397q1.427.235 3.169 1.145.36.204.737.424 5.288-2.18 6.23-4.017l.376-.078-.408-.204q-1.506 1.443-5.507 3.09-2.165-1.286-3.907-1.568h-1.396zm2.18-10.402q.36.298.675.58 1.663 1.538 2.15 2.746.093.235.14.455.063.314.267.486l.8-1.13q-.282-.156-.376-.564-.345-1.585-2.966-3.78Zm9.273.47-.408 1.617q.58.627 2.15 1.427v-1.412l.125-.094q-1.57-.863-1.867-1.537"/>
    <path fill="url(#a)" d="m193.05 71.45-3.65 2-3.6 5.65q-2.95 4.25-5.65 6.75-1.1.95-2.1 1.65-.8 0-1.7.4-.3.1-.6.25-2.45.8-3.25 2.8-6.1 5.9-8.95 7.25-1.35.65-1.95.3-1.4.35-3.1.85-.75.3-1.45.65-2.4 1.15-4.15 2.7-1.9-.5-3.9-.85-1.65-.1-2.8.15-1.4.35-2 1.2-.15.2-.25.4-1.45 0-2.95.25h-.25q-3.7.3-4.25 1.1h-4.45l1.9-3.1q.75-.4 1.45-.75 11.9-6.4 13.85-12.45.45-.75 1.1-7.55.6-6.8.65-9.05-.05-.75-.05-1.45-.5-6.4-2.75-8.15-.25-.8-.45-1.55-1.05-3.45-1.7-6.85-2.35-8.45-.65-8.95.25-3.1.35-5.95V37.4q-.35-7.55-1.5-7l4.2-30.4q-10.3 26.15-8.95 29.85l-1.9 5.1q-1.1 7 2.55 16.5 3.3 10.15 3 10.7l-.8 4.25q-.3 5.8 2.65 13.3l.1.2q-9.65 15.8-16.15 17.75l-1.4.25-.5-5.35q1.423-1.038 2.2-3.85.526-1.932.75-4.7.2-2.75.15-6.3-.1-3.1-.4-6.75-.85-2.8-2.15-5.55-1.35-2.75-3.15-5.4l-3.2-4.3q-.05-.3-.1-.55-1.25-5.4-10.25-15.7l-9.5-9.85q-.85-.65-1.7-1.25-.3-.2-.55-.4-.05 0-.05-.05-.55-.3-1.2-.85Q78.25 13 71.05 12.4l-3.4 2.8q7.05-2.15 22.9 10.95 4.5 4.5 6.4 5.65h.25l18.45 25q3.25 10.15 7.75 13.35 2 1.3.5 3.3-1.35 2.35-1.6 7.9 0 .2-.05.95t-.05 1.45q.9 5.45-.45 6.55-.35.3-.55.75-.95 1.55-.55 4.9l-3.4-2.2q3.65-7.05 2.9-8.2-1.9-8.8-4.05-9.75-.5-.2-1-.05-1.45.45-1.9 1.05-.1.15-.15.25V78l3.15 6.15q.45 1.45-.15 3.9-.45 1.8-1.55 4.25l-3.05-2q-3.05.85-5.65 2.8-.1.05-.15.1-.85.85-1.6 1.55-.05 0-.05.05l-.4.3v4.5q-5-2.55-6.85-4.55-.65-.7-.9-1.3l-1.7-6.55q-.35-.8-1.35-.8-.7-.05-1.65.3-.25.1-.4.3Q89 88.7 93.8 97.35q0 .8 8.25 4.65.75.35 1.55.7v5.35q-3.25-3.35-6.15-1.7-.05.05-.1.05-1.7.7-7.3-1.7-.65-.3-1.25-.55-5.3-2.25-8-1.7-1.3.15-2-.45-.65-.55-.85-1.55-.15-.7-.45-1.45-1.55-3.85-6.85-8.75-1-.9-2.15-1.85L52.35 61.9l-3.9-12.3q-4.65-16.65-.55-21.45l-3.85 1.95q-2.6 7.6 4.75 34.95l5.6 12.35q6.65 12.9 11.35 15.8l2.5 4.7q3.6 5.45 8.05 8.8 16.7 8.4 20.9 5.6l1 .55 1.3.65-1.2.25q-3 5.85-19.85 12.8-1.2-.7-2.35-1.35-5.55-2.9-10.1-3.65h-4.45q-.85.3-10.05-4.75-2.6-1.55-5.05-2.6-5.7-2.45-10.55-2.45l-5.55.8q-1.9-1.2-12.6.4-7 1-17.75 3.2l30.1 1.2q-1.1 1.75 14.2 3.6.85-1.35 8.6 2.25 4.15 1.75 7.8 3.7 1.4 2.6 8.95 4.2l15.1 1.1q6.9.65 16.9-12.85l2.9-1.2-.85 1.65-2.05 3.8q-1.05 0-3.1 2.95-1.1 1.5-1.85 2.95-.9-.1-1.75.65-1 .9-1.95 2.95-.05.25-.15.5-.3 1.15-.6 2.35-.2.55-.35 1.1-2.1.55-4.05 2-.9.6-1.75 1.4-1.35 1.1-2.3 2.2 0 1.75-9.1 4.75-.5.15-1 .35-.9.25-1.85.55-.6-.1-1.15.05-1.35.25-2.8 1.65-1.05.85-1.65 1.65-5.65 2.7-15.9 3.4-.8 0-1.55.05l-3.4 2.15q3.95 3.7 13.1 1.15 4.4-1.45 8.1-3.3 1.65 1.85 5.25.6 3.55-1.3 3.8-3.45 1.45-1 4.6-2.5l7.75-4q2.55-.5 8.7-6.7 3.65-1.05 4.35-4.85l.1-1.1q.7-.15 1.35-.6 1.5-1.15 2.55-4.15v-.05l.8-.9 1.4-1.6q1.65 1.7 2.85.75l.55-.25-.25.8-.85 2.4-.35.35-1.7 1.8-.6 2.65-.75 3q-1.55.45-3.25 2.95-1.8 2.5-3.75 7.2-1.7 4.75-3.05 9.25-.8 9.3 2.45 17.15-1.6 8.75 9.25 31.25 15 23.95 21.95 27.35 3.65 1.6 4.2-1.4-5.85-.3-14.1-13.55l-7.3-12.9-7.75-27.3-.7-2.5q.25-3.6.05-6.45-.35-5.95-2.5-8.7-1.15-1.9.25-3.15.15-.15.35-.3.65-.45 1.25-1.15 1.15-1.45 2.15-3.85.55-1.3 1.05-2.9 1.85-5.95 3.1-6.75 0 .05.05.15 2.75 8.6 11.65 17.3l8.7 9.2q10.55 8.75 19.95 6.3 3.6-.65 6.15-5.7l.5-1.1q3.9-9.6-1.35-28.95-.25-4.5-1.4-8.45-1.45-5.05-4.25-9.35.25-.15.65-.15 1.3-.2 3.9.5 1.25.35 2.8.85 6.05 2.25 9.45 1.45 2.5-.65 3 1.6 1.8 4.8 10.35 11l18.4 25.05 5.8 13.8q5.3 14.55 2 19.4 1.9 1 2.85-.5.2-.3.35-.65.25-.55.4-1.35.1-.45.15-.95.3-2.55-.3-6.55-.8-5.35-3.25-13.25-1.85-6.05-4.65-13.65-2.8-5.65-5.4-10.1-2.4-4.15-4.65-7.3-5-7-9.15-9.05-.8-1.45-1.75-2.8-3.3-4.7-8.2-8.1-1-.75-2.1-1.4-4.1-1.7-9.1-2.9-.8-.2-1.55-.35-2.2-.55-3.95-.75-4.85-.7-6.6.55l-5.55-2.55q-5.3-1.45-10.6-.5l1.4-.85 4.5-1.15q4.15.9 6.1-1.35 1.45.8 2.8.95 2.45.2 4.5-1.85 8.05-2.55 10.05-4.45 3.6-2.55 7.15-5.1 4.3-3 5.15-3.65 6.35-.65 6.15-4.85-.05-.5-.15-1.05 1.15-.75 2.25-1.5 7.6-5.45 9.55-10.6 1-2.75.5-5.4m-14.35 19.3q.05.85-1.4 1.8-1.75 1.2-2.8.25-.25-.2-.45-.5-.1-.95 1.6-2.2 1.7-1.2 2.7-.05.3.35.35.7m-7.9 31.7q.6-.45 1.35-.3.85.1 1.95.95 1.15.9 2.6 2.7.5.6.9 1.1 1.55 2.05 1.85 3.35.15 1.15-.6 1.7-1.65 1.15-5.55-3.35-4.2-4.45-2.5-6.15m20.6 21.4 2.75 2.7q2.55 3.45 1.95 4.55l-.15.05-2.6.2-5.05-6.7.85-.5q.7-.4 1.35-.4.45-.05.9.1M139.55 34.5q.6-1.65 1.8-1.75.1-.05.2-.05 1.9 0 2.4 6.2 0 1.3-.1 2.35-.4 3.85-2.3 3.85h-.1Q139 45 139 38.9q0-2.85.55-4.4M120.9 65.05q-3.65-5.05-1.75-6.25.35-.3.8-.3.95.05 2.35 1.55.95 1 2.15 2.65.45.7.85 1.35 1.5 2.5 1.45 3.85-.05.7-.55 1.05-1.75 1.45-5.3-3.9m23.05 6.15q-.65-4.6.65-5.95.3-.35.8-.5.3-.1.55 0 1.8.25 2.75 5.95.1 1.3.1 2.4-.05 2.5-.85 3.45-1.3 1.45-2.85-1.05-.85-1.75-1.15-4.3m-19.1 8.15h1.35q.35.1.65.3.65.4 1 1.2.25 2.4.25 4.1-.05 3.8-1.3 4.5l-2.35-1.65zm-55.7 13.2q.15-.15.4-.25.8-.4 2.1.65 1.2 1 2.8 3.3.6.9 1.1 1.75 1.1 2 1.05 3.3 0 .85-.55 1.4-1.9.9-5.3-3.85-3.65-5.1-1.6-6.3m-26.2 22.5q1.6.8 1.7 1.85 0 .2-.05.45-.55 2.25-6.4 1.2-6.25-1.45-5.65-3.7.05-.25.2-.5.7-1.3 3.45-1.1 1.2.1 2.85.5 2.5.55 3.9 1.3m29.6 10.5q1.7.9 1.95 1.9.1.4-.05.85-.6 2-6.55.6-5.8-1.4-5.3-3.95.2-.65 1.1-.9.5-.15 1.25-.15.75-.1 1.6-.1 1.25 0 2.6.35 2.1.65 3.4 1.4m-.3 26.75q-.35.5-1.2 1.1-2.95.9-2.85-.4.1-.85.8-1.55.35-.35.85-.7 1.35-1 2.35.1.6.65.05 1.45m85.4-50.95.2-.1q2.45-1.65 3.35-1.2.25.1.4.4.3.55.05 1.15-.45 1-2.6 2.25-3.3 1.95-4.2.85-.1-.25-.05-.55.1-1.2 2.85-2.8m-13.8 4.05q.25.5.3 1.3 0 .7-.2 1.7-.05.05-.05.1-.9 1.2-4.65.45l-.3-.85-.8-2.3 5-1.1q.45.25.7.7m-.7 15.3.3.25 4.15 2.95q4.5 4.7 4.25 11.45-.75 2.25-1.75 4.35-1.65 3.4-4.05 6.35-9 9.85-24.45 6.95-.5-.1-.95-.2-.25-.1-.45-.25-4.35-2.35-6.6-10.85-.45-1.65-.8-3.5 1.6.1 3.1.1 19.1-.2 26.25-15.2.5-1.15 1-2.4m10-3.8-.25-1.25 5.6.85q-.35.4-.6 1.35-.15.55-.25 1.25-.25 1.1-.25 1.85l-3.9-2.4zm-58.35-8.5.15.65.35 2.15q-1.75 1.35-8.4-2.25-.55-1.15-.25-2.25l.05-.1.2-.8zm6.05 23q-3.1-.55-3.1-1.9l3.65-4 2.2 2q-.1.25-.15.55-1.05 3.35-2.6 3.35M88 140.7q.1-.05.25-.1 2.5-1.35 3.45-1.1.35.1.5.4.45.4.15 1-.45.95-2.6 2.3-3.2 2-4 1-.15-.15-.2-.35-.55-1.2 2.45-3.15m15.85.85 1.8 2.85v.05l-.85 5.3q-1.25-1.4-2.15-2.15-1.2-1.05-1.8-1.05zm-1.7 30.5q-.3.3-.75.4t-.85-.05q-1.65-.65-2.55-5.55-.9-5.25.35-6.4.2-.2.5-.3.55 0 1.05.3 1.7.95 2.35 5.55.3 1.4.45 2.55.3 2.6-.55 3.5m2.9 15.6q.6-.3.85-.3l2.4 8.05h-.25l-.45.65-1.2 1.5q-1.35-.3-2.3-4.55l-.8-3.95q.35-.7.95-1.05.35-.25.8-.35" style="fill:url(#c)" transform="translate(6.9 11.9)scale(.31379)"/>
    <path fill="#eaecef" d="M40.13 70.688q-.078 0-.266.095-.141.031-.25.11.438 1.16 1.05 2.525l.142-.204h.078zm-1.004-5.899q-.047-.36-.141-.8-.204-1.443-.738-1.742-.157-.094-.33-.094-.093.032-.156.094.157 1.57 1.192 3.64.267-.282.173-1.098m-5.32-7.64 1.397-.722q.267-.047.675-.314.094-.188-.047-.314-.047-.094-.157-.125-.298-.079-1.082.345-.048.015-.08.031-.94.612-.768.99.016.061.063.11m2.997-10.357-.11-.674q-1.098.423-2.59-.77l-.015.032q-.094.345.079.706 2.087 1.13 2.636.706m18.074 1.397.079.392q.502 0 1.49.298.079-.298.188-.424zm-2.746-2.809q-.015-.25-.094-.408-.078-.14-.22-.22l-1.568.346.25.722q.77-.032 1.554.125 0-.016.016-.03.062-.315.062-.535m4.3-1.71-.063.031q-.863.502-.895.88 1.35-.44 2.15-.8.078-.189-.016-.362-.047-.094-.125-.125-.283-.142-1.052.376m-26.154 8.221q-.08-.313-.612-.596-.408-.235-1.067-.44-.423-.109-.816-.109-.266 0-.502.031-.235 0-.392.047.659.597 2.557 1.005zm-9.367-3.31q-.031-.33-.533-.58-.44-.236-1.224-.409-.518-.125-.894-.156-.863-.063-1.083.345.628.392 3.734.8m7.814-7.72q-.08.032-.126.08-.643.376.502 1.976 1.067 1.49 1.663 1.208.173-.173.173-.44-1.051-.94-1.93-2.274zm23.8-8.644q-.156.047-.25.157.094 1.537 1.05 3.545.252-.298.268-1.082 0-.345-.032-.753-.298-1.789-.863-1.867-.078-.032-.172 0m-8.237-1.867q-.597.376.549 1.96 1.114 1.68 1.663 1.225.157-.11.172-.33-.03-.282-.36-.502-.628-.455-1.177-1.334-.314-.486-.596-1.114-.142 0-.251.095m6.966-8.175q-.377.032-.565.55-.173.486-.173 1.38 0 1.914.77 1.946h.03q.597 0 .722-1.208h-.031q-.8 0-.8-1.946 0-.408.047-.722m16.568 35.71-.863-.847q-.141-.048-.282-.032l1.71 2.322.047-.015q.188-.346-.612-1.428m-4.848-17.51q-.016-.11-.11-.22-.314-.36-.847.016-.534.393-.502.69.063.095.14.158.597-.44.77-.565.298-.032.549-.079"/>
    <path fill="#eff0ef" d="m28.725 40.863.282.55q.879 1.332 1.93 2.274.016-.408-.33-1.036-.157-.266-.345-.549-.502-.722-.878-1.035-.408-.33-.66-.204m17.95-7.657q.015-.423-.456-1.208-.125-.204-.266-.424-.377-.517-.675-.83-.44-.47-.737-.488.282.628.596 1.114.549.88 1.177 1.334.33.22.36.502m4.645-11.045q-.032 0-.063.015-.047.314-.047.722 0 1.946.8 1.946h.03q.033-.33.033-.738-.157-1.945-.753-1.945M61.53 50.527q-.345-.266-.611-.298.549 1.146 2.29 2.542-.094-.408-.58-1.05-.126-.158-.283-.346-.455-.565-.816-.848"/>
</svg>
