<svg xmlns="http://www.w3.org/2000/svg" xml:space="preserve" width="88.337" height="104.229" preserveAspectRatio="none">
    <defs>
        <linearGradient id="b" x1="111.825" x2="206.475" y1="266.475" y2="101.525" gradientTransform="translate(15.313 11.66)scale(.31379)" gradientUnits="userSpaceOnUse" spreadMethod="pad">
            <stop offset="17.255%" stop-color="#6FB331"/>
            <stop offset="64.706%" stop-color="#60AF35"/>
            <stop offset="100%" stop-color="#5A9A32"/>
        </linearGradient>
    </defs>
    <path fill="#dbe0e7" d="M42.566 79.251q-.361.69-.392 1.632.11-.283.266-.518.267-.423.126-1.114m1.647 1.083q-.282-1.067-.267-2.495-.062.487-.25.942-.079 1.71.25 2.933.251.926 1.052 2.228.188.298.408.628.36.533.376.784l.235-1.223q.032-.047.032-.126.016-.235-.377-.816-1.145-1.71-1.459-2.855M25.982 50.257q-.094-.235-.157-.518-.094.047-.204.094-.737.33-.91.706v.032q-.047.078-.047.188l-.235 1.224q.094-.314.564-.58.157-.095.361-.189.879-.377.628-.957m8.237 3.703q-.8-.55-1.083-1.004-.957-1.444 3.185 7.734 4.127 9.179 4.41 9.618 3.357 4.142 3.262 7.03 1.209-3.217-2.996-8.41-.283-.44-4.409-9.618-1.538-3.405-2.37-5.35m2.543-4.284q-.361-.878-.675-1.71-1.036-.314-2.416-.423h-1.852l-.266 1.38h1.851q2.055.173 3.358.753m-9.9-8.268q-.204-.031-.267-.078l-.173-.126q.126.706.283 3.012.235 3.42.878 4.111.063.047.236.361.062.11.094.235.266-.423.298-.941.031-.345-.126-.675-.172-.314-.235-.36-.643-.69-.879-4.111zm-.266-3.075h-.126l-.565.988h-1.192l-.596 1.13.737-.816 1.475.079 1.71-.565q1.961-.565 2.856-.66h.33l.878.095-.079-.094v-.079q-.36-.612-.549-1.302h-.314q-.894.094-2.855.659zm-1.051-2.29-.597 1.286q.393.22.393-.047.094-.58 2.196-3.264 1.083-1.302 2.134-2.526l.33-.25.078-.581-.251-.236-.079.157q-.094.094-.235.032-.847.988-1.71 2.024-2.103 2.682-2.197 3.263 0 .11-.062.141m2.635-10.48q.173-.204.44-.126l.14.094q.252-.816.738-1.553-.14-.173-.282-.33-.11.251-.188.502l-.142-.094q-.706-.22-.706 1.475zm5.35-5.162-.266 1.38q.894-.078 1.694.079l.267-1.38q-.8-.158-1.694-.08m-1.585.377-.455.189-1.145.894-.267 1.38 1.145-.894.973-.408q-.188-.58-.251-1.16m8.049-5.837q-.957-.44-3.53-.487-2.59-.062-3.766 1.773l-.408 1.24q-.094.455-.11.925l.251-.784q.502-.894 1.522-1.365 1.271-.628 3.373-.58 1.773 0 4.127.298-.518-.597-1.46-1.02m12.05 21.934q-1.051 1.945-1.114 3.326.283-.894.848-1.946l1.302-2.196-.047-.847zm-6.432-4.11q-.095.14-.204.281l-.33.722v.079h.079l5.538 8.41q-.11-.722.235-2.056zm3.89-9.021-.266 1.38.33 1.302 6.024 4.33q.69.597 1.067 1.115.047.047.078.094.408.58 1.146.33.314-.158.58-.22.58-.141.989.14.078.064.14.126.126.157.126.377l.173-.91q.11-.314.094-.533-.031-.267-.267-.44-.596-.423-1.569.079-.737.25-1.145-.33-.392-.549-1.145-1.208l-6.025-4.33zm-3.702.972q.486.251.047-1.427-1.193-.157-6.449.94l-.266 1.382q5.868-1.224 6.668-.895m-2.212-10.26-.126.219q-.722 1.114-.47 1.726.094-.173.203-.345.534-.989.393-1.6m1.145.345q-.063.062-.141.125-.565.486-.251 1.067.737 1.051.988 2.275l1.553 6.291 1.13.738.44-1.302-1.303-.816-1.553-6.292q-.236-1.114-.863-2.086m.345-1.46q.204.236.283.69l.266-1.38q-.22-1.24-1.459-.926-.926.251-.879.55l-.235 1.27q.11-.235.8-.423.032-.016.047-.016.785-.204 1.177.235m6.92 55.447q.093.33.25.612.424.753 1.287 1.114.47.188 1.098.251 2.777.22 4.252-2.447.172-.644.172-1.209-1.474 2.495-4.157 2.275-1.726-.172-2.385-1.365-.455.299-.518.77m-2.479-3.923q-.235.031-.455.063-.674 1.16 1.57 2.29 1.38-.313 2.745-.941 1.114-.502 2.212-1.224.063-.031.11-.063 2.322-1.521 2.62-1.678.204-.738.11-1.287-.55.33-2.573 1.647-2.432 1.585-4.958 2.166-.957-.487-1.38-.973m2.4-.596.266-1.381-10.637-22.122q-2.024-3.044-2.416-3.075ZM32.964 24.714q.094.408.11.77.015.768-.283 1.395-.078.173-.188.33-.91 1.318-.267 1.13.173-.063.455-.22.314-.188.612-.267.643-.172 1.27.173.064-.863.456-1.146.392-.313.737-.376.142-.031.33-.126.22-.125.502-.345.11-.094.141-.141.063-.235-1.004-.173-.314.016-.628-.03-.941-.126-1.945-.77-.141-.094-.298-.204m7.907 6.198q.079-.314-.031-.675-.235.408-.612.816-.69.722-2.4-1.585-1.036-1.396-1.428-2.18-.47.11-.502.611-.016.142.078.393.267.784 1.585 2.557.298.392.565.706 1.27 1.475 1.835.879.69-.738.91-1.522m34.455 30.877q-.706-.77-1.758-.848-.91 0-1.96-1.96-1.146-2.134-2.778-4.66L56.106 36.136l-1.224-3.09q-.251-.236-.392-.644l-1.318-.596-.267 1.38 1.475.66 1.46 3.671 12.723 18.184q1.632 2.526 2.777 4.66.518.957 1.005 1.46.486.501.957.501h.015q1.036.079 1.742.847.627.738.753 3.06.016.157.016.33.094.737.094 1.098l.22-1.099q.11-.188-.048-1.38-.094-2.605-.768-3.39" style="display:inline;stroke-width:.313791" transform="translate(-4.011 -.06)"/>
    <path fill="#e3e7ed" d="M59.934 59.78v.032q-.063.188-.125.36-.063.173-.157.33-.126.22-.298.424 1.867 6.04 1.537 9.382.894-2.918-.784-9.806-.079-.33-.157-.674-.015-.03-.016-.048M34.956 21.86q.502-1.146 1.977.11 1.475 1.24 1.789 2.196t0 1.208l.408.236.266-1.381-.407-.235q.313-.251 0-1.208-.314-.958-1.79-2.197-1.474-1.255-1.976-.11zm21.071 17.808q-.721-1.098-.517-.517.737 2.275-.644 9.46l3.986 6.512q1.145 2.243 1.176 3.812.816-1.82-.91-5.193l-3.86-7.233q.832-4.236.77-6.84m-6.794-14.545.267-1.38-1.052.25-.439 1.303.173.078zM32.792 35.57q-.235.157-.22.8 0 .644 1.805 2.7 2.479.643 4.063-1.695-.125-.408-.235-.738-1.46 1.6-3.561 1.052-1.46-1.256-1.852-2.119m2.228-2.416q-.173.11-.455.126-1.365.063-1.867-.173-.518-.266-.69-1.428-.142-.94-.204-1.521-.33.58-.298 1.082.047.628.235 1.82.173 1.161.69 1.428.126.063.298.094.534.126 1.57.078.376-.03.58-.235.345-.376.141-1.27m.282-3.97q-.25-.283-.407-.392.015 1.208.235 2.4.157.455.204.816.596 1.883 1.726 2.008h.235q.408-.031.565-.235.25-.345-.141-1.161-.079.016-.157.016-1.428.078-2.087-2.448-.11-.502-.173-1.004m8.143 5.632v-.69q-.721 1.177-3.153 1.773-.487-.22-1.067-1.679-.22.063-.455.126-.188.33 0 .737.549 1.522 1.004 2.008.126.142.251.189.141-.032.267-.063 2.84-.769 3.153-2.4" style="display:inline;stroke-width:.313791" transform="translate(-4.011 -.06)"/>
    <path fill="#c8cfd9" d="m31.552 48.923.266-1.38-1.851-1.444-.8 1.114zM21.04 30.425q.047-1.459-1.852-1.13-1.898.314-2.165-.564-.267-.879-1.02.063-.298.36-.376.674-.047.11-.047.236l-.22 1.145q.079-.314.377-.659v-.016q.753-.941 1.02-.062.094.282.36.455.44.266 1.397.172.188-.031.408-.063 1.898-.33 1.851 1.13-.031.753.58 1.789.55.91 1.617 2.055 1.412 1.35 1.976 1.679l.597-1.287q-.314.141-2.307-1.773-2.26-2.4-2.196-3.844m8.645-7.703q.204.235.392.517l.267-1.38q-1.397-2.04-3.264-2.37-3.514-.564-6.778 6.198l-.078.173-.188 1.208q.235-.487.47-.926 2.024-3.86 4.158-4.91 1.051-.534 2.15-.362 1.615.283 2.87 1.852m3.578-.942.267-1.38q-.408-1.114-.408-2.009-.612 1.334.14 3.39m13.698 4.408-.643.58q-1.554 1.538-1.79 2.181l-.485.581q-.738-.973-1.789-1.632-.063-.172-.126-.313-.721.172-1.114.14.55.424.973 1.538v.016q.769.486 1.38 1.145.22.236.409.487l.486-.58q.236-.644 1.789-2.182.831-.753 1.553-1.396l.58-1.38-.172-.08-.58.895z" style="display:inline;stroke-width:.313791" transform="translate(-4.011 -.06)"/>
    <path fill="url(#a)" d="M75.059 63.17q-.706-.77-1.742-.848h-.015q-.471 0-.957-.502-.487-.502-1.005-1.459-1.145-2.134-2.777-4.66L55.84 37.517l-1.459-3.671-1.475-.66.126 2.025.047.847-1.302 2.196q-.565 1.052-.848 1.946-.345 1.334-.235 2.055l-5.538-8.41h-.079v-.078l.33-.722q.11-.14.204-.282 3.373-4.8 3.373-5.444l5.303 4.095q.047.58.204.988.141.408.392.643.392.377 1.051.267 1.444-.235 1.867-.141.393.094.66.769.266.674.925-.33.345-.533.33-.894 0-.22-.126-.377-.063-.062-.141-.125-.408-.282-.989-.141-.266.062-.58.22-.738.25-1.146-.33-.031-.047-.078-.094-.377-.518-1.067-1.114l-6.025-4.33-.33-1.303-1.05.251-.58 1.381q-.723.643-1.554 1.396-1.553 1.538-1.789 2.181l-.486.58q-.188-.25-.408-.486-.612-.659-1.38-1.145v-.016q-.424-1.114-.974-1.537.393.031 1.114-.141 1.334-.33 3.766-1.397h1.538l.58-.894-1.13-.738-1.553-6.291q-.25-1.224-.988-2.275-.314-.58.25-1.067.08-.063.142-.125.533-.55.627-.77-.078-.454-.282-.69-.392-.439-1.177-.235-.015 0-.047.016-.69.188-.8.423-.094.157.141.33.298.235.393.58.14.612-.393 1.6-.11.173-.204.346-.768 1.396.251 1.867 1.146.533 2.197 3.656.251.784.408 1.365.44 1.678-.047 1.427-.8-.33-6.668.895l-.408-.236q.314-.25 0-1.208-.314-.957-1.789-2.196-1.475-1.256-1.977-.11-.8-.157-1.694-.079-.753-2.055-.141-3.389.062-.14.14-.282 1.46-2.275 7.5-1.224 1.303-.25.69-.925-2.353-.299-4.126-.299-2.102-.047-3.373.581-1.02.47-1.522 1.365l-.25.784-.158.455q-.188.973-.078 1.93.063.58.251 1.161l-.973.408-1.145.894q-.188-.282-.392-.517-1.256-1.57-2.872-1.852-1.098-.172-2.149.361-2.134 1.051-4.158 4.911-.235.44-.47.926l-.079.172q.738.91 1.224-.172l2.369-3.734q2.793-2.887 5.664.313.141.157.282.33-.486.737-.737 1.553l-.141-.094q-.267-.078-.44.126-.266.313-.266 1.349 0 1.663.768 2.824.518.769.832.879.141.062.235-.032l.079-.157.25.236-.078.58-.33.251q-1.05 1.224-2.133 2.526-2.102 2.683-2.196 3.264 0 .266-.393.047-.564-.33-1.977-1.68-1.066-1.144-1.616-2.054-.611-1.036-.58-1.789.047-1.46-1.851-1.13-.22.032-.408.063-.957.094-1.397-.172-.266-.173-.36-.455-.267-.88-1.02.062v.016q-.298.345-.377.659-.031.094-.047.188v.016q-.031.376.282.675.612.627 1.428.11.8-.518 1.255.345.455.862 1.507 1.663l4.895 4.236v1.24h1.223l.565-.99.189-.329q3.169-2.447 3.655-3.498l.33-.251.25.423v.141l.33.502q0 .942.251 1.79.189.69.55 1.301v.079l.078.094-.879-.094h-.33q-.894.094-2.855.659l-1.71.565-1.475-.079-.737.816 1.067.816.423 7.343q.079.627.22 1.13.063.282.157.517.25.58-.628.957-.204.094-.36.188-.471.267-.565.58-.016.064-.016.126-.016.141.047.298.282.628 1.067.628.769 0 1.02-.063.235-.063.25-.172.016-.079-.11-.22-.438-.502-.376-.91.016-.016.032-.016.172-.22.533-.549.157-.157.345-.33.66-.564.722-1.411.016-.22-.031-.44-.032-.125-.094-.235-.173-.314-.236-.36-.643-.691-.878-4.112-.157-2.306-.283-3.012l.173.126q.063.047.267.078 1.145.141 6.542-.628l.91 1.789q.69 2.526 1.773 5.397.314.832.675 1.71-1.303-.58-3.358-.753h-1.851l-2.385-1.71-.235 1.632 2.29 3.185 8.3 20.632q1.24 2.698 2.37 4.895.533.972.674 1.694.14.69-.126 1.114-.157.235-.266.518-.283.722-.267 1.663 0 1.318 2.322 2.526 1.459.753 1.553.36v-.078q-.016-.25-.376-.784-.22-.33-.408-.628-.8-1.302-1.052-2.228-.329-1.223-.25-2.933.188-.455.25-.942.032-.25.048-.502.094-2.887-3.264-7.029-.282-.44-4.409-9.618-4.142-9.178-3.185-7.734.283.455 1.083 1.004 1.757 1.24 6.04 3.043l3.436 6.778q2.432 3.75 4.817 3.342 2.761 3.248 5.115 5.052 1.082 1.24 2.62 1.46 1.632.752 2.934.093.486-.25.737-.643.785-1.02.973-2.777.33-3.342-1.537-9.382.172-.204.298-.424.094-.157.157-.33.062-.172.125-.36v-.032q.079-.345.094-.753v-.094q-.031-1.569-1.176-3.812l-3.986-6.511q1.381-7.186.644-9.461-.204-.58.517.517 1.114 1.664 4.44 7.233 5.492 9.226 6.402 9.806 1.459 5.272 3.734 5.962 2.29.706 2.887 1.412 1.035 1.256 1.836 3.044.407.957.533.832.063-.047.063-.298 0-.361-.094-1.099 0-.172-.016-.33-.126-2.321-.753-3.059M40.84 30.237q.11.36.032.675-.22.784-.91 1.522-.565.596-1.835-.879-.267-.314-.565-.706-1.318-1.773-1.585-2.557-.094-.251-.078-.393.031-.502.502-.612.141-.031.33-.031.8.016 1.631.392.847.377 1.773 1.428.549.628.706 1.161m2.604 3.891v.69q-.313 1.632-3.153 2.4-.126.032-.267.064-.125-.047-.251-.189-.455-.486-1.004-2.008-.188-.408 0-.737.235-.063.455-.126 1.914-.643 2.04-1.961.047-.47.11-.8.25-.769.83-.33.942.69 1.24 2.997m-10.37-8.645q-.016-.36-.11-.769.157.11.298.204 1.004.644 1.945.77.314.046.628.03 1.067-.062 1.004.173-.031.047-.141.141-.283.22-.502.345-.188.095-.33.126-.345.063-.737.376-.392.283-.455 1.146-.628-.345-1.27-.173-.299.079-.613.267-.282.157-.455.22-.643.188.267-1.13.11-.157.188-.33.298-.627.283-1.396m1.82 3.31q.156.11.407.393.597.674 1.773 2.369.424.612.644 1.067.392.816.14 1.16-.156.205-.564.236h-.235q-1.13-.125-1.726-2.008-.063-.204-.126-.44-.047-.188-.078-.376-.22-1.192-.235-2.4m-.204 3.294q.235.597.33 1.067.203.895-.142 1.271-.204.204-.58.235-1.036.048-1.57-.078-.172-.031-.298-.094-.517-.267-.69-1.428-.188-1.192-.235-1.82-.032-.502.298-1.082.078-.173.188-.33.533-.8 1.098-.627.628.439 1.6 2.886m-1.898 3.483q.47-.282 1.444.11 1.49.597 3.106-.674.267-.204.863 1.631.11.33.235.738-1.584 2.338-4.063 1.694-1.804-2.055-1.804-2.698-.016-.644.22-.8m16.724 29.292q1.177-.188 2.4-.596L39.13 37.69q.392.031 2.416 3.075 2.071 3.138 5.884 9.46 3.765 6.292 7.358 12.49 1.553-1.052 2.573-2.181h.36q.55.831.691 1.412.016.031.016.078.094.55-.11 1.287-.298.157-2.62 1.678-.047.032-.11.063-1.098.722-2.212 1.224-1.365.628-2.746.941-2.243-1.13-1.569-2.29.22-.032.455-.063m2.997 3.153q.063-.03.141-.078 2.432-1.522 4.22-2.228 1.774-.722 2.009.361.172.486.172 1.035 0 .565-.172 1.209-1.475 2.667-4.252 2.447-.628-.063-1.098-.25-.863-.362-1.287-1.115-.157-.282-.25-.612.062-.47.517-.769" style="display:inline;fill:url(#b);stroke-width:.313791" transform="translate(-4.011 -.06)"/>
</svg>
