<svg xmlns="http://www.w3.org/2000/svg" xml:space="preserve" width="88.337" height="104.229" preserveAspectRatio="none">
    <defs>
        <linearGradient id="b" x1="95.137" x2="100.063" y1="116.362" y2="86.738" gradientTransform="translate(8.441 6.718)scale(.31379)" gradientUnits="userSpaceOnUse" spreadMethod="pad">
            <stop offset="0%" stop-color="#9EA2AB"/>
            <stop offset="100%" stop-color="#949AA6"/>
        </linearGradient>
    </defs>
    <path fill="#e9edf1" d="M34.188 78.106v.172l-.644.848q.079-.079.267-.142.282-.22.58-.533.471-.533.989-1.35.125-.219.251-.454-.58.8-1.114 1.208-.33.094-.33.25m-9.052-22.482q-.032-.079-.079-.141-.345.094-.549-.048-.11-.094-.094-.282-.47.031-1.098.706l-2.134 2.887q-.283.36-.361.675l1.789-2.432q.831-.895 1.396-.66.33.173.424.424.58-.815.706-1.13m-5.052 5.021h-.063q-3.295 1.726-6.339 1.82-1.569.079-2.479-.172-.235-.251-.408-.157l-.156.157-.707 1.13.157-.157q.173-.095.408.156.91.251 2.48.173 1.678-.047 3.451-.596 1.412-.455 2.887-1.224h.078l.173-.157q.22-.078.36.141l.707.094q-.189-.14-.298-.282-.361-.424-.251-.926m5.946-8.237h.094q-.8.942-.957 1.444.11-.157.251-.314h-.094l3.216-4.126.832-.33q.784-.157.58.314.22-.345.393-.612-.095-.078-.157-.188v-.58q.11-.048.266-.095-.156-.016-.376.032l-.832.329zm13.383-6.95-.58-.235-.236 2.384.487.58q.33.597.721 1.538 1.695 4.143 4.315 15.094.235 2.306 1.475 4.377 2.385 4.19 7.907 8.237-.11-.408-.204-.91-.094-.486-.156-1.035-4.692-3.656-6.841-7.421-1.24-2.071-1.475-4.378-3.216-13.43-5.036-16.63l-.487-.581Zm21.903 13.587q-.314-.125-.612-.267-2.573-1.176-5.507-3.655-4.362-3.625-8.237-8.975v-.078l-2.558-2.4-.031-1.099-.753-.235.078 2.463 2.558 2.4v.079q.863 1.192 1.757 2.306l.847 1.036q1.13 1.318 2.29 2.526.566.596 1.162 1.16.44.424.894.832.644.58 1.287 1.114 2.934 2.48 5.507 3.656.298.141.612.267.282.11.549.204 3.06 1.067 6.511 4.69-.094-.486-.251-1.097-.141-.597-.33-1.303-2.745-2.557-5.224-3.42-.267-.094-.55-.204" style="display:inline;stroke-width:.313791" transform="translate(-.041 -.015)"/>
    <path fill="#aaadb4" d="M37.937 70.261q-.282-.047-.408.016-.094.031-.094.141-.078.173 0 .251-.439 3.405-1.804 5.978-.126.235-.251.455-.518.816-.989 1.349-.298.314-.58.533-.188.063-.267.142-.031.015-.047.047-.016.031-.016.063v.172q.503.565.91-.172 1.35-.88 2.307-2.683.565-1.052.988-2.417l.738-3.467q0-.486-.251-.486zM35.38 63.75l-.031.016-.471.157q-.487.407-.079 1.553l1.726 3.138q.596 1.114 1.585.768.11-.047.235-.11-.031-.078-.063-.14-.25-.503-.47-.958-1.852-3.844-2.432-4.424M18.498 35.007q-.502.486-.33 1.396l.738 3.452q.486 1.16 1.067 1.16.33 0 .58-.25 0-.251-.14-.942-.19-.878-.597-2.432l-.753-2.714-.236.141zm-9.555-4.205q.894-.079 2.463.25 3.044.738 6.01 2.966l.03.094q.173.377.55 0 .031-.047.078-.094.424-.063.236-.376-.079-.126-.236-.283-1.223-.988-2.965-1.82-3.373-1.726-5.93-1.24h-.33q-.063.016-.11.048-.298.11-.298.455.078.33.502 0M44.119 8.068q-.094.157-.173.408-1.396 2.133-1.16 5.93.172 1.977.58 3.452.251.659.58.173h.079q.659-.173.25-.58-.078-.283-.125-.566-.753-3.295-.282-6.103l.659-2.385q.486-.25.157-.502-.188-.094-.33-.016-.125.047-.235.189M9.931 63.42q-.172.66.738.581 2.385.988 6.087-.173 1.82-.564 3.217-1.318.33-.235.25-.486l-.25-.173q-.032-.047-.047-.094-.141-.22-.361-.14l-.173.156h-.078q-1.475.769-2.887 1.224-1.773.549-3.452.596-1.569.078-2.479-.173-.235-.25-.408-.156zm10.889-4-.345.455q-.314.408-.392.768-.11.502.25.926.11.141.299.282 3.467-4.283 3.797-5.099-.095-.25-.424-.423-.565-.236-1.396.659z" style="display:inline;stroke-width:.313791" transform="translate(-.041 -.015)"/>
    <path fill="#e2e7ed" d="M39.13 69.54q0-.487-.251-.487l-.236.078q-.235-.03-.36 0 .03.063.062.142-.125.062-.235.11l-.58.894q.125-.063.407-.016l.236-.078q.25 0 .25.486l-.737 3.467q-.423 1.365-.988 2.417 1.02-1.381 1.694-3.546zm-3.781-5.773.03-.016q.581.58 2.433 4.424.22.455.47.957l.77-.988q-2.307-4.864-2.966-5.523l-.502.173q-.173.141-.22.36l-.486.77zm-15.58-30.218-.564.329q-.36.36-.377.941l.236-.14.753 2.713q.408 1.554.596 2.432.141.69.141.942l.706-1.13q0-.58-.737-3.373zm34.438 35.254q-.078-.816-.58-2.29l-1.851-1.852q1.568 3.781 1.725 5.272 0 3.97.314 6.071.079.565.188 1.005.189.847.487 1.16l.298-.643.408-.486q-.989-1.067-.989-8.237m-8.111-29.104q.094-.44.016-.816l-1.381.596q-2.306 1.146-3.373 2.463-.66.079-1.49.503-1.225.486-1.946 1.302-.251.266-.44.58-.25.424-.58.424-.47.125-.769-.91-.063-.22-.125-.502-.236-.722.172-1.616-.957 1.208-.957 2.165-.016.298.078.58.33 1.57.895 1.413.33 0 .58-.424.738-1.224 2.385-1.883.832-.423 1.49-.502.816-1.004 2.354-1.898.47-.298 1.02-.565zm2.417-15.83q.11-.064.22-.064.486 0 .486 2.056-.078 3.122 0 5.193.267-.094.706-1.13-.078-2.07 0-5.193 0-2.055-.486-2.055-.141 0-.267.078-.188.11-.36.377-.095.157-.205.36-.063.095-.094.377M38.471 31.65l-1.726.408-.706 1.13 1.726-.408q3.373.25 3.546 3.451l.706-1.13q-.173-3.2-3.546-3.45m13.446 32.116q.015.031.031.078l1.726 1.804.314-.612.015-.047 2.542-1.396q-.141-.298-.282-.58l-1.554.847-.329.659-.988-1.036-.063.032q-.314.14-.66.204-.046.015-.093.015-.33.047-.66.032m-2.792-7.374-.063.03q-.282.08-.596.126-.267.032-.565.032l1.161 2.15q.126-.283.251-.518.189-.408.408-.69zm2.4.266h.408q-.094-.596-.298-1.16-.941.156-1.71 1.756.738-.847 1.6-.596m-2.557-4.942-.784-.926-.157.047q-.738.408-1.318.989l-.22-.424q-.282.141-.627.22-.236.063-.518.094l.659 1.24q.188-.189.392-.346.424-.36.926-.643l.502-.157q.659-.172 1.145-.094M60.138 69.87q-.22.36-.251.737.612-.376 1.694-.423.534.094-.015-.722-.094-.141-.204-.282-.832.188-1.224.69m-2.636-.769q-.58-.031-1.255-.157-.377-.078-.769-.172 1.805 2.133 3.625 3.624l.078-.565q0-.11.016-.204.047-.33.235-.628l.031-.03q-.988-.832-1.96-1.868" style="display:inline;stroke-width:.313791" transform="translate(-.041 -.015)"/>
    <path fill="#dae0e8" d="M28.288 45.048q.063.063.11.125l.392-.784q.565-.11.204-.47-.565-.487-3.122-2.056-2.714-1.647-3.138-1.647v-.079q-.816 0-1.02.283-.031.015-.047.047-.015.031-.015.078l-.628.989q.22-.267 1.004-.267v.078q.424 0 3.138 1.648 2.557 1.569 3.122 2.055M9.884 29.17h-.33q-.407.094-.407.502l-.408.675q.047-.032.11-.047h.33q2.557-.487 5.93 1.24 1.742.83 2.965 1.82.157.156.236.282l.47-.753q.58-.095 0-.66-1.223-.988-2.965-1.82-3.373-1.725-5.93-1.239M44.651 7.346q-.156.251-.298.533.142-.078.33.016.33.251-.157.502l-.659 2.385q-.47 2.808.282 6.103.047.283.126.565l.455-.55q.659-.172.25-.58-.91-3.624-.407-6.668l.659-2.384q.486-.251.157-.503-.33-.156-.565.173-.094.157-.173.408m-8.896 49.752q-.407-2.887-.658-3.625-.424.361-.738.408-.141.236-.25.502v.047q.187-.11.281.173.252.737.66 3.624.313 2.526.235 3.326.314-.031.627-.831.251-.408-.157-3.624m.69-7.767-.109-.11q-1.38 1.773-1.804 2.62.69-1.004 1.914-2.51m-.738-8.927q-.266.408-.47.8.25-.377.549-.769-.032-.015-.079-.031m17.792-.455q.079.11.142.22.125.22.11.423l.47-.722q.486-.408-.016-1.05-.988-.173-5.02.486l-.126-.299-.91.612.33.816q4.032-.659 5.02-.486m-22.608 6.935-.424 1.02q.251-.095.643-.189 1.208-.314 3.609-.69l-.455-.926q-2.62.44-3.373.785m-1.208-2.087q.157-.079.345-.157l3.53-.659h.33v-.016q.094-.502.376-1.114l-3.53.66q-.675.25-.926.611-.047.047-.063.11l-.627 1.004q.172-.25.565-.44M49.438 31.65q-.267-.078-.55.094-.297.502-.47.44-.11.125-.22.282l-.345.675q.455-.487.879-.361.33.078.486.33-.078.58-2.228 4.44l.502.83q3.546-2.556 4.032-2.713l.408.408q.047.125.063.266.894-.737.643-1.396l-.407-.408q-.487.157-4.033 2.714l-.502-.831q2.15-3.86 2.228-4.44-.157-.251-.486-.33m-6.354 3.044-1.067.408-.706 1.13 1.066-.408q2.15-.581 3.625.658l.627-1.192q-1.459-1.161-3.545-.596m-7.045-1.506.706-1.13-10.951-15.486-.706 1.13zm12.6-11.783q.204.25.33.486.313.534.203.863l.643-.973q.016-.031.032-.047.25-.486-.502-1.459l-2.542-2.463q-.58-.659-1.318-.502l-.659.33-.706 1.129.659-.33q.58-.125 1.083.267.11.094.235.236zM60.09 66.637v.078q.188.173.36.345 1.115 1.114 1.711 2.009.235.345.377.674.502 1.13.439 1.099 1.051 1.255 1.24 2.431v.612q.03.738.345 1.46.11.282.266.564.392.66.298.879l.628-1.036q.282-.125-.22-.972-.565-1.004-.612-2.024v-.612q-.188-1.177-1.24-2.432.064.031-.438-1.098-.565-1.24-2.448-3.028v-.079q-.502-1.177-.988-1.914-.299-.44-.58-.722-.409-.502-1.225-.502l-.078.016-.408-.8q-.769-1.538-1.648-2.071-.172-.392-.345-.738-.376-.784-.768-1.38-1.067-.848-2.181-1.867h-.298q.25.69.313 1.38v.079q1.146.674 2.228 2.918.173.345.345.737.189.126.393.298.659.581 1.255 1.773l.408.8.078-.015q.816 0 1.224.502.282.282.58.722.487.737.989 1.914m-4.864-5.225q-.015-.031-.031-.047-.047.094-.079.204.047-.078.11-.157m-4.299-7.233q-.235-.282-.549-.565.126.722-.016 1.303.361-.33.565-.738m9.1 13.43q-.031-.047-.063-.078l-.03.157q.046-.047.093-.078m7.688-9.1q-1.475-4.456-1.569-4.629l-.33-.894q-1.396-2.4-7.656-5.444-6.182-2.558-6.668-2.793l-1.726-1.977h.079q.062-.533-.047-1.098l-.91.078.078.58q.11.362.157.707.063.439.016.863h-.079l1.726 1.977q.486.235 6.668 2.792 6.26 3.044 7.657 5.445l.33.894q.093.172 1.568 4.628.769 2.385 1.083 4.001.125.69.172 1.24.047.643-.015 1.098l-.079.737.706-1.13.079-.737q.25-1.726-1.24-6.338m-5.02-13.525q-.252.173-.252.502l-.517.69.062-.062q.361-.314 1.083-.047.22.078.486.22l2.793 2.133q.126.079.22.173.674.549.486 1.208l.408-.612q.832-1.067-.408-1.898l-2.793-2.134q-1.082-.58-1.569-.173m-2.934-1.176q.314.203.565.376 1.02.722.863 1.067l.644-1.02.03-.063q.33-.408-1.395-1.49l-4.284-3.044q-.408-.078-.816 0-.486 0-.517.173l-.612 1.02q.125-.063.423-.063.408-.079.816 0zm18.42 4.472q-.832.502-2.385.753-3.06.486-6.684-.423-.078-.079-.235-.079-.25-.078-.33.33l-.58.847q.079-.079.204-.047.157 0 .235.078 3.625.91 6.684.424 1.553-.251 2.385-.753.031-.047.078-.079l.157-.094q.047 0 .094.016.079 0 .157.078.126.204.079.361l.627-.988q.032-.047.063-.079.094-.188-.063-.423-.078-.079-.156-.079-.173-.078-.33.157m-1.287-12.944q.173.126.236.251.172-.235.314-.486.737-.487.157-.895h-.157q-.251 0-.251.33l-1.82 1.647q-2.636 1.805-6.26 2.464h-.236q-.141.047-.172.204l-.66 1.02q.048-.063.126-.095h.235q.361-.062.706-.14l1.695-.456q2.134-.69 3.86-1.867l1.82-1.647q0-.33.25-.33zM62.288 36.42l-.503.659.032-.016q.314-.377 1.004-.188.22.062.486.188l2.966 1.977q.266.172.455.345.69.675.172 1.569l.66-1.067q.737-1.16-.581-1.977l-2.966-1.977q-1.067-.502-1.49 0-.235.157-.235.487m-1.46.313v.016l.502-.816q.204-.157.204-.33.095-.58-1.976-.737l-5.178-.58-.753.408q-.408.22-.44.376l-.627 1.02q.11-.125.36-.266l.754-.408 5.178.58q1.145.094 1.631.314.392.157.345.423" style="display:inline;stroke-width:.313791" transform="translate(-.041 -.015)"/>
    <path fill="#aaadb6" d="M28.398 45.173q-.047-.062-.11-.125-.565-.486-3.122-2.055-2.714-1.648-3.138-1.648v-.078q-.784 0-1.004.267-.047.015-.063.062-.25.408 1.57 1.397l4.533 2.557q.863.031 1.193-.078.267-.095.141-.299m5.413 9.602q-.251.33-.408.738l.486 5.193q.095 2.055.66 1.977.329 0 .658-.832.047-.094.079-.298.078-.8-.236-3.326-.407-2.887-.659-3.624-.094-.283-.282-.173-.125.063-.298.345m-3.875-5.365.015-.016q.204-.47-.58-.314l-.832.33-3.216 4.126h.094q-.141.157-.251.314-.706.878-.753 1.302-.016.188.094.282.204.142.55.048.235-.063.517-.22.408-.157 2.306-2.714 1.57-2.307 2.056-3.138" style="display:inline;stroke-width:.313791" transform="translate(-.041 -.015)"/>
    <path fill="#9ea2ab" d="M48.732 23.804q-.11 0-.22.063-.314.157-.612.753-.25.408-.078 3.546.157 3.044.408 3.703.078.25.188.314.173.062.47-.44.158-.266.33-.69-.078-2.071 0-5.193 0-2.056-.486-2.056m.235-1.914q-.125-.235-.33-.486l-2.541-2.463q-.126-.142-.235-.236-.503-.392-1.083-.267l-.659.33 1.977 2.055q1.977 2.15 2.463 2.4.141-.03.251-.093.173-.267.361-.377.11-.33-.204-.863M60.61 60.173q-.314-.126-.612-.267-2.573-1.177-5.507-3.656-.643-.533-1.287-1.114-.455-.408-.894-.831-.596-.565-1.161-1.161-1.161-1.208-2.29-2.526l-.848-1.036q-.894-1.114-1.757-2.306v-.079l-2.558-2.4-3.043-1.726q-.66.079-1.49.502-1.648.66-2.386 1.883-.25.424-.58.424-.565.156-.895-1.413-.094-.282-.078-.58l-1.334.078v.016h-.33l-3.53.659q-.187.078-.344.157-.393.188-.565.44-.047.046-.079.11-.094.172-.094.36 0 .251.173.502.91.157 4.77-.91l.376.8.455.926q-2.4.376-3.609.69-.392.094-.643.188l-.016.016q-.156.047-.266.094v.58q.062.11.157.19.376.376 1.333.297l3.781-.816.879.957.11.11q-1.224 1.506-1.914 2.51-.753 1.052-.879 1.522.251.581.706.518.314-.047.738-.408.172-.14.36-.345l1.977-2.887v-.078q1.161.659 1.977.737 1.899 5.272 3.954 14.09.25 2.227 1.569 4.612 2.965 5.1 9.147 9.053l.408-.486q-.298-.314-.487-1.161-.11-.44-.188-1.005-.314-2.102-.314-6.071-.157-1.49-1.725-5.272l1.85 1.851.283.283q.173.58.91 1.569-.078.659.989 2.086 1.05 1.412 3.624 2.856.926 1.02 3.718 2.761 1.726 1.067 1.962.753.015-.015.015-.031.094-.22-.298-.879-.157-.282-.266-.565-.314-.721-.346-1.459v-.612q-.188-1.176-1.24-2.431.064.031-.438-1.099-.142-.33-.377-.674-.596-.895-1.71-2.009-.173-.172-.361-.345v-.078q-.502-1.177-.988-1.914-.299-.44-.581-.722-.408-.502-1.224-.502l-.078.016-.408-.8q-.596-1.193-1.255-1.774-.204-.172-.393-.298-.172-.392-.345-.737-1.082-2.244-2.228-2.918v-.079q-.062-.69-.313-1.38-.079-.22-.173-.424.235.22.47.424 1.115 1.02 2.182 1.867 1.96 1.553 3.734 2.51 1.098.596 2.118.957l.314.094q3.2 1.146 6.746 5.178l.502.58.079-.737q.062-.455.015-1.098-.047-.55-.172-1.24-.314-1.616-1.083-4-1.475-4.457-1.569-4.63l-.33-.893q-1.396-2.401-7.656-5.445-6.182-2.557-6.668-2.792l-1.726-1.977V45l1.475 1.867 7.735 3.358q5.193 2.243 6.354 4.22l.251.737v.079q.126.188 1.271 4.08.565 1.898.942 3.325.188.706.329 1.303.157.611.251 1.098-3.452-3.624-6.511-4.691-.267-.094-.55-.204m-.643 7.358q.032.031.063.079.816.862 1.334 1.569.11.14.204.282.549.816.015.722-1.082.047-1.694.423-.251.157-.424.361l-.031.031q-.188.299-.235.628-.016.094-.016.204l-.078.565q-1.82-1.49-3.625-3.624.392.094.769.172.675.126 1.255.157.863.047 1.444-.157.69-.235.988-1.255zM48.184 50.79l.784.925q-.486-.078-1.145.094l-.502.157q-.502.282-.926.643-.204.157-.392.346l-.66-1.24q.283-.031.519-.094.345-.079.627-.22.863-.423 1.083-1.333zm-9.351-5.57.58.236 2.055.831.66.989q10.229 18.2 10.715 22.656 0 3.357.299 5.554.062.549.156 1.035.095.502.204.91-5.522-4.048-7.907-8.237-1.24-2.07-1.475-4.377-2.62-10.951-4.315-15.094-.392-.94-.721-1.537l-.487-.58zm11.547 8.393q.314.283.55.565.156.22.266.424.251.44.44.894.203.565.297 1.161h-.408q-.862-.25-1.6.596-.11.126-.204.267-.22.283-.408.69-.125.236-.25.518L47.9 56.58q.298 0 .565-.03.314-.048.596-.126l.063-.031q.988-.518 1.24-1.475.14-.58.015-1.303m1.475 10.136q.031 0 .063.016.33.015.659-.032.047 0 .094-.015.345-.063.659-.204l.063-.032q1.05-.502 1.725-1.914.032-.11.079-.204.016.016.031.047.58.753 1.036 1.6.14.283.282.581l-2.542 1.396-.015.047-.314.612-1.726-1.804zm10.135-17.635-.062.063q-.079.047-.11.125-.079.126-.079.314.502.659 5.021 3.703.204-.267.298-.518.188-.659-.486-1.208-.094-.094-.22-.173l-2.793-2.134q-.266-.14-.486-.22-.722-.266-1.083.048m-.831-.816q.016-.031.031-.047.157-.345-.863-1.067-.25-.173-.564-.377l-4.284-3.043q-.408-.079-.816 0-.298 0-.423.062-.204.095 0 .346.502.58 2.887 2.4 2.557 1.883 2.965 1.977.91.078 1.067-.251m16.317 4.77q.486-.142.565-.377.047-.157-.079-.36-.078-.08-.157-.08-.047-.015-.094-.015l-.157.094q-.047.032-.078.079-.832.502-2.385.753-3.06.486-6.684-.424-.078-.078-.235-.078-.125-.032-.204.047-.078.078-.125.282l-.173.251q-.078.251.33.408l3.467.58q3.86.33 6.009-1.16m-.345-14.482q-.063-.125-.236-.25h-.156q-.251 0-.251.329l-1.82 1.647q-1.726 1.177-3.86 1.867l-1.695.455q-.345.079-.706.141h-.235q-.078.032-.125.094-.016 0-.016.032-.079.125-.031.376l-.079.236q0 .33.486.25l3.39-.91q3.624-1.396 4.942-3.624.517-.345.392-.643m-15.345 1.49-.015.032q-.079.063-.126.157-.063.11-.063.282.565.66 5.272 3.468.016-.032.047-.063.518-.894-.172-1.569-.189-.173-.455-.345l-2.966-1.977q-.266-.126-.486-.188-.69-.189-1.004.188zm-.957-.33v-.015q.047-.267-.345-.424-.486-.22-1.632-.314l-5.177-.58-.753.408q-.251.14-.361.266-.047.047-.063.094-.047.142.189.22.658.251 3.702.737 3.122.408 3.625.251.8-.329.815-.643" style="display:inline;stroke-width:.313791" transform="translate(-.041 -.015)"/>
    <path fill="url(#a)" d="m37.765 32.779-1.726.408L25.088 17.7l9.711 16.317-1.239 2.134-.33.832q.173 2.353 2.48 3.42.046.016.078.031-.298.392-.55.769-.627.894-.972 1.647-.282.612-.377 1.114l1.334-.078q0-.957.957-2.165.408-.534 1.004-1.114 1.083-1.083 2.307-2.071 2.557-1.883 3.718-1.553l.91.156q1.067.251 1.553.832l.251.408q.126.235.189.502.078.377-.016.816l-2.071.91q-.55.267-1.02.565-1.538.894-2.353 1.898l3.043 1.726-.078-2.463.753.235 3.703 1.161.988 1.27v-1.097h.079q.047-.424-.016-.863-.047-.345-.157-.706l-.078-.58.91-.08 2.635-.25q1.271-.267 1.318-.832.016-.204-.11-.423-.062-.11-.14-.22-.99-.173-5.021.486l-.33-.816.91-.612 2.212-1.537q.738-.596.722-1.13-.016-.14-.063-.266l-.408-.408q-.486.157-4.032 2.714l-.502-.832q2.15-3.86 2.228-4.44-.157-.25-.486-.33-.424-.125-.879.362-.172.172-.36.455l-.864 1.694-.627 1.192q-1.475-1.239-3.625-.658l-1.066.407q-.173-3.2-3.546-3.451" style="display:inline;fill:url(#b);stroke-width:.313791" transform="translate(-.041 -.015)"/>
</svg>
