<svg xmlns="http://www.w3.org/2000/svg" xml:space="preserve" width="88.337" height="104.229" preserveAspectRatio="none">
    <defs>
        <linearGradient id="b" x1="102.525" x2="143.875" y1="99.65" y2="80.35" gradientTransform="translate(6.48 14.375)scale(.31379)" gradientUnits="userSpaceOnUse" spreadMethod="pad">
            <stop offset=".784%" stop-color="#A07D3D"/>
            <stop offset="27.451%" stop-color="#CA9431"/>
            <stop offset="57.647%" stop-color="#CF962D"/>
            <stop offset="100%" stop-color="#B68A3A"/>
        </linearGradient>
        <linearGradient id="c" x1="-255.45" x2="-171.55" y1="-429.725" y2="-478.175" gradientTransform="translate(6.48 14.375)scale(.31379)" gradientUnits="userSpaceOnUse" spreadMethod="pad">
            <stop offset="0%" stop-color="#DB9920"/>
            <stop offset="100%" stop-color="#EBA525"/>
        </linearGradient>
        <linearGradient id="d" x1="110.162" x2="139.038" y1="-154.238" y2="-161.962" gradientTransform="translate(6.48 14.375)scale(.31379)" gradientUnits="userSpaceOnUse" spreadMethod="pad">
            <stop offset=".784%" stop-color="#B0873C"/>
            <stop offset="57.647%" stop-color="#D29A33"/>
            <stop offset="100%" stop-color="#B68A3A"/>
        </linearGradient>
        <linearGradient id="e" x1="66.45" x2="164.55" y1="155.587" y2="109.112" gradientTransform="translate(6.48 14.375)scale(.31379)" gradientUnits="userSpaceOnUse" spreadMethod="pad">
            <stop offset="0%" stop-color="#E69F1B"/>
            <stop offset="36.863%" stop-color="#D89924"/>
            <stop offset="41.176%" stop-color="#E69F1B"/>
            <stop offset="58.824%" stop-color="#E9A424"/>
            <stop offset="81.569%" stop-color="#E4A022"/>
            <stop offset="93.333%" stop-color="#E9AA1A"/>
            <stop offset="100%" stop-color="#ECAF16"/>
        </linearGradient>
    </defs>
    <path fill="#a77a29" d="m45.86 74.466-.392-.926.063.926-.33.345.267.251z" style="stroke-width:.313791" transform="translate(-.086 -.073)"/>
    <path fill="#b38a3f" d="M44.088 69.43q-.016.345-.126.674.141.942.738 2.024l.768 1.412v-1.035l-.768-1.663q-.424-.754-.612-1.412m.36 6.448-.156-.204-.016-.016.345-.423-.173-.173.252-.172-.173-.173-.424.973-.58 2.918.44-.518.062-.423.502-.33-.392-.157-.032-.016.345-.235-.266-.188zm-1.804-11.799-.22-.439q.079 1.177.346 2.275 1.004 1.553 1.24 2.699.407-1.475-1.24-3.97-.079-.282-.126-.565M67.7 61.695l-.564-.079-1.02-.345-.33-.926v1.287l.33.926.063-.016.282-.173v.267l.502-.173.173.424.564.094h.346v.251l.439-.094-.094.424.408-.251h.094l.408.14.596-.14-.69-.77-.816-.266zm-24.084 1.427q-.58-1.02-.988-2.04l-.612-.643q.455 1.867 1.443 3.672l.157.282 1.428 2.024v-1.286zm15.36-8.048.031.015-.031-1.302-1.506-1.836q-.518-.078-1.757-1.004l-1.852-.941.534 1.13 1.647 1.333q.973.69 1.428.753zM31.505 73.995l-.157.487q-.032.062-.079.282l.22-.11q.063-.078.173-.188l.03-.016.142-.125h.518l-.345-.345.423-.095-.157-.235.754-.518-.079-.408.486-.188-.078-.235h.345q.079-.251-.188-.942.094-.125.188-.33 0-.015.016-.03.282-.91.47-3.233 0-1.85.926-3.875l.863-1.679.408-2.432q.518-.502 1.412-3.106.032-.251.094-.486.22-.644.77-1.193l-.174-.172q-.345.282-.674.533-.016.016-.016.031-.894 2.605-1.412 3.107l-.408 2.447-.863 1.68q-.925 2.023-.925 3.859-.236 3.028-.675 3.608v.314l-.565 1.02.079.424-.754.517.157.252-.596.784zm3.123-29.684-1.522-1.271q-.926-.157-2.008-.832l-.942-.674v1.286l.942.659q1.082.675 2.008.847l1.522 1.255 1.16.079.19-.424q-.424-.204-.707-.455-.25-.204-.392-.455zm5.193-6.794q-.188-.659-.36-1.24-.817.189-2.072.8-.925.581-1.883 1.57l-.125.188q-2.62-2.463-2.761-2.463-1.114-.597-2.495-1.24-1.396-.659-1.773-.314l.094.047q.628.189 1.961.895.22.11.424.22l1.553.831q.11.063.236.125.031 0 .125.079.361.282 1.82 1.71l.58.596q.236.22.487.471.832-.863 1.757-1.443 1.522-.754 2.432-.832m-.627-4.99-.032 1.225 1.004 3.687v-1.287zm5.852-3.42q-.267-.518-.424-1.115-.36-1.035-.36-1.506v-.047l-.393.33.157.157-.251.172q0 .173.502.502v.032q-.016.062-.016.14 0 .456.361 1.507.157.58.424 1.098.596 1.067.706 2.37.157-2.072-.706-3.64m12.693 18.89q.188.094.36.157.565.22 1.005.47l.125.063V47.4q-.596-.33-1.49-.674l-.785-.157-3.436-.251q-.11-.047-.235-.063-.785.33-1.695.706l-.063.031q-.14.063-.282.11l.188.424h.063q.204-.063.408-.094.204-.032.392-.032.675-.015 1.224.204l3.436.251zm14.167 3.043.424-.157.518-.423.047.047-.126-.424h-1.6l-.926.189h-.753l-.345.078-.753-.596v1.286l.753.58.157-.25.188.172.408-.345.345.345.486-.345.346-.078.094.25.33-.329.172.424zm-8.362-25.668q-.204.675-.44 1.303.393-.079.644.047.062.015.11.047.454.282.721.784.314.534.392 1.334.142-1.695-.392-2.62-.267-.487-.722-.785-.047-.031-.11-.047-.093-.047-.203-.063" style="stroke-width:.313791" transform="translate(-.086 -.073)"/>
    <path fill="url(#a)" d="M53.862 50.006q.016 1.35-.721 2.651-1.836 3.201-5.304 4.786-3.577 1.631-6.997-.126l-.424-.408q0 .66.047 1.114 0 .094-.047.173.016.188.267.25l.157.158 1.585.408q3.043.345 5.648-.66 4.016-1.505 5.774-5.867.188-.518.549-1.35zm5.115 9.775.173-.502q-.095-.33-.204-.627-1.883 7.829-8.033 7.986l-5.868-1.506v1.286l5.868 1.522q6.228-.173 8.064-8.159M16.552 42.804q-5.193.079-8.142 1.836-.942.533-1.632 1.836-.345.612-.283 1.302l1.915-1.851q2.95-1.773 8.142-1.852l18.985 4.942-.157-.753v-.549zm23.896-6.669q-.142 0-.283.016v1.287q.141-.016.283-.016 2.259-.141 3.294 1.459.016.016.032.047.33.612.33 1.443l.344.079.424-.91v-.188l-.157-.738-.267.565-.345-.078q0-.848-.33-1.444-.015-.031-.03-.047-1.036-1.6-3.295-1.475" style="fill:url(#b);stroke-width:.313791" transform="translate(-.086 -.073)"/>
    <path fill="#ba9756" d="M58.397 55.733v.094q1.49 2.636 1.647 5.318.125-2.275-.675-4.502-.062-.126-.14-.236zm-37.06-18.294.19-.408v-.016h.015l.878.235.863-.392.157.58.973-.078.031-.031.236.58.031.11.33-.173v.424l.078.016.675.063.596 1.004.973.972.078-1.192-1.051-1.051-.596-1.004-.753-.079v-.423l-.33.157-.267-.675-1.004.094-.298-.173H21.62l-.784.942-.157 1.098.408-.251.518-.094zm23.785-13.697-.502-.283-.25-.392-.095-.267-.408-.078-.251.91-.769.517.44.424-.612.832.502.502-.236.33.047.03.298-.423-.439-.424.769-.517.251-.91.408.094.016.015.078.236z" style="stroke-width:.313791" transform="translate(-.086 -.073)"/>
    <path fill="#c49e59" d="m58.977 53.787.031 1.302.095.063q.188.063.235.141l1.24.785q1.662 1.145 2.65 2.479.11.157.205.298l.91 1.255q.33.408.58.737.565.66.863.785v-1.287q-.298-.125-.863-.784-.25-.314-.58-.738l-.91-1.255q-.094-.157-.204-.298-.989-1.35-2.652-2.479Zm-3.06-.173-.125-.125-.675-.596.424 1.02q.533 1.208.675 2.196.172-1.051-.298-2.495m-25.763-12.08q-.172-.33-.376-.612-.628-.863-1.365-1.318l-.847-.345-.126-.126-.078 1.192.204.204.847.346q.737.455 1.365 1.333.141.188.266.408.063.11.11.204zm36.306 7.656-1.522-.596q-1.6-.926-3.781-1.083l-1.93-.11v1.287l1.93.094q2.07.141 3.624.989l.157.094 1.522.596q.125.047.235.11.8.345 1.271.455.267.031.424.015v-1.286q-.424.094-1.93-.565" style="stroke-width:.313791" transform="translate(-.086 -.073)"/>
    <path fill="url(#E)" d="m59.008 55.09-.031-.016-1.506-1.852q-.455-.063-1.428-.753l-1.647-1.333q-.361.831-.55 1.349-1.757 4.362-5.773 5.868-2.605 1.004-5.648.659l-1.585-.408-.157-.157q-.251-.063-.267-.251 0 .659.173 1.082.22 1.193.282 1.993.016.204.032.377.031.737-.063 1.066l.847 2.275.079 1.93q.25 2.181 1.082 3.781 1.334 2.683 1.255 3.436l.424.58.173.174-.252.172.173.173-.345.423.016.016.156.204-.266.863.266.188-.345.235.032.016.392.157-.502.33-.063.423-.44.518.095.157.408-.157.345-.44.079.299v.047l.517.172.157-1.192.738-.486-.487-.518.487-1.004-.393-.424-.266-.25.33-.346-.064-.926-.768-1.412q-.597-1.082-.738-2.024.11-.33.126-.674.015-.393-.079-.816-.235-1.146-1.24-2.699-.266-1.098-.344-2.275l.22.44.297.58.157.157q.612 1.035 1.35 1.898 1.898 2.26 4.706 3.232 3.782 1.412 6.982-.423 3.185-1.852 3.766-5.884.204-1.255.14-2.495-.156-2.682-1.646-5.318v-.094l.831.674q.079.11.141.236.047.062.094.14.534.942 1.099 1.585.894 1.02 1.773 1.161.564.44 1.098 1.161.188.251.345.518l.737 1.161.77.267.078.424.423-.079.33.816 1.098.094.157.69.926-.439 1.004.44.078-.518-.235-.267.58-.078.346-.267-.173-.141-.596.14-.408-.14h-.094l-.408.25.094-.423-.44.094v-.25H67.7l-.564-.095-.173-.424-.502.173v-.267l-.282.173-.063.016-.33-.926q-.298-.126-.863-.785-.25-.33-.58-.737l-.91-1.255q-.094-.141-.204-.298-.989-1.334-2.652-2.48l-1.24-.784q-.046-.078-.234-.141zm.142 4.19-.173.501q-1.836 7.986-8.064 8.159l-5.868-1.522-1.428-2.024-.157-.282q-.988-1.805-1.443-3.672l.612.644 2.243 2.306q3.28 1.851 5.695-3.185l3.625-.518q2.369-.957 2.024-3.577-.142-.988-.675-2.196l-.424-1.02.675.596.126.125q.549.565 1.066 1.24.44.58.832 1.224.612 1.114 1.13 2.573.11.298.204.627" style="fill:url(#c);stroke-width:.313791" transform="translate(-.086 -.073)"/>
    <path fill="#ac8236" d="M35.349 40.184q.015-.015.03-.047l-.501-.518q-.769 1.334-.47 2.432.203-.863.94-1.867" style="stroke-width:.313791" transform="translate(-.086 -.073)"/>
    <path fill="url(#F)" d="M61.11 15.803q.926.345 1.476 1.114 1.223 1.678 1.365 4.032.188-3.185-1.365-5.303-.55-.785-1.444-1.146-.91-.36-2.714.299-1.82.658-3.28 2.259-1.474 1.584-3.09 5.272-.408 1.286-1.773 7.891-1.38 6.59-2.714 10.403-.251-.33-.926-.738-.267-.157-.518-.282v.094q.157.392.032 1.035-.016.063-.032.142.251.125.518.298.675.408 1.24.957-.016.125.062-.079.063-.204.644-1.977.58-1.82 2.573-9.523l2.024-8.065q2.463-4.55 4.738-5.758 2.29-1.24 3.185-.925" style="fill:url(#d);stroke-width:.313791" transform="translate(-.086 -.073)"/>
    <path fill="url(#G)" d="M62.586 16.917q-.55-.77-1.475-1.114-.895-.314-3.185.925-2.275 1.208-4.738 5.758l-2.024 8.065q-1.993 7.703-2.573 9.523-.581 1.773-.644 1.977-.078.204-.062.079-.565-.55-1.24-.957-.267-.173-.518-.298.016-.079.032-.142.125-.643-.032-1.035v-.094q0-.534-.078-1.067 0-.612.031-1.02.047-.47.126-.659-.047-.345-.126-.659-.172-.675-.455-1.208.094-.533.141-1.02.032-.627-.015-1.224-.11-1.302-.706-2.369-.267-.518-.424-1.098-.36-1.051-.36-1.506 0-.079.015-.141V27.6q-.502-.33-.502-.502l.25-.172-.156-.157.392-.33.016-.016-.251-.235.016-.016.407-.753-.266-.078.345-.267-.345-.078.44-.251.156-.408.424-.44-.079-.156-.753.596-.078-.236-.016-.015-.408-.094-.251.91-.769.517.44.424-.299.424-.313.408.502.502-.236.345.236.172-.236.675.58 1.004.44 1.585-.094.925q0 1.177.832 2.526l.078 1.099q0 .863-.11 1.569-.063.313-.141.596l.188.941.157.738v.188l-.424.91-.345-.079q0-.831-.33-1.443-.015-.031-.03-.047-1.036-1.6-3.295-1.46-.142 0-.283.017l-1.004-3.688.031-1.223.063-4.346q-.015 0-.015.015-.33.157-.424 2.605v1.24q-.031.046 0 .313v.957q-.126.141.643 2.966.173.58.361 1.239-.91.078-2.432.832-.925.58-1.757 1.443-.251-.251-.486-.47l-.58-.597q-1.46-1.428-1.82-1.71-.095-.079-.126-.079-.126-.062-.236-.125l-1.553-.832q-.204-.11-.424-.22-1.333-.705-1.96-.894-.44-.125-.534-.03l4.863 2.604 2.103 2.18.502.518q-.016.032-.031.047-.738 1.004-.942 1.867-.282 1.161.377 2.103.047.078.094.172.141.251.392.455.283.251.706.455l-.188.424-1.161-.079-1.522-1.255q-.926-.172-2.008-.847l-.942-.659q-.047-.094-.11-.204-.125-.22-.266-.408-.628-.878-1.365-1.333l-.847-.346-.204-.204-.973-.972-.596-1.004-.675-.063-.078-.016v-.424l-.33.173-.031-.11-.236-.58-.031.031-.973.079-.157-.581-.863.392-.878-.235h-.016v.016l-.188.408.267.235-.518.094-.408.251.157.173.502-.173h.423l.502-.251-.062.424.33-.173v.251h.235l.596-.078.078.345.502-.188v.266l.345-.157q.157.157.251.644v.015q.173.063.393.251.423.393 1.098 1.271.22.251.44.58.235.346.517.66 1.224 1.38 3.263 2.102.173.267.44.565l.031.031q.361.361.879.738.58.11 2.51 1.349.345.44 1.27.675v.925l.158.753-18.985-4.942q-5.193.079-8.142 1.852l-1.915 1.851q.33 2.008 1.695 3.514 1.161 1.318 3.09 2.275 1.93.973 3.876 1.24.079 0 .141.016-.282.156-.25.69.046.847.784 1.6.988.973 3.247 1.742 2.009.58 4.033.831.643.173 5.397-1.882.063.204.141.47.016.11.047.204l.063.189q.047.125.11.203.157.267.392.471.753.58 2.416.267.565.078 6.135-4.252.33-.251.674-.533l.173.172q-.55.55-.769 1.193-.062.235-.094.486-.894 2.604-1.412 3.106l-.408 2.432-.863 1.68q-.925 2.023-.925 3.874-.189 2.323-.471 3.232-.016.016-.016.032-.094.204-.188.33.267.69.188.94h-.345l.078.236-.486.188.079.408-.754.518.157.235-.423.095.345.345h-.518l-.141.125-.204.204-.22.11-.345.126v.25h.424l.486-.156-.078.345.345.33.659-.832.015-.016.926-.173-.188-.658.941-.597-.157-.925.393-.079-.236-.423.58-.597v-1.522q.08-1.239.424-2.07 1.146-1.005 1.02-4.143-.015-.078-.015-.172 0-.016.015-.032.173-.564.502-1.208.596-1.522 1.255-2.337l.58-2.118v-.173q1.178-1.083 1.1-1.177l-.44-.816q.031.016.078.032 1.412.627 3.39.36 2.023-.25 4.032-1.411 2.18-1.271 3.436-3.107 1.176-1.773 1.098-3.358l.737 1.177q.016.032.141.047.299.016 1.46-.392h.188l2.102.58q1.679-.313 4.017.267 2.761 1.679 4.189 1.177.941.157 2.118.737l1.161.69.863-.25.235.423.33-.345.674.58 1.004-.486.518.487.596-.753.267-.032h.016l.8-.125v-.016l-.157-.502-.36-.079.439-.33.156-.344-.11-.11-.046-.047-.518.423-.424.157-.235.424-.173-.424-.33.33-.093-.251-.346.078-.486.345-.345-.345-.408.345-.188-.172-.157.25-.753-.58q-.157.016-.424-.015-.47-.11-1.27-.455-.11-.063-.236-.11l-1.522-.596-.157-.094q-1.553-.848-3.624-.989l-1.93-.094-.125-.063q-.44-.25-1.005-.47-.172-.063-.36-.157l-.785-.142-3.436-.25q-.55-.22-1.224-.205-.188 0-.392.032-.204.031-.408.094h-.063l-.188-.424q.141-.047.282-.11l.063-.03q.91-.377 1.695-.707 5.883-2.495 6.04-2.95 1.49-.753 1.428-1.945-.079-1.208-.44-1.695-.376-.502-.36-.517 3.499-2.715 3.561-3.232.753-1.852 1.177-3.954.408-1.851.282-3.075-.078-.8-.392-1.334-.267-.502-.722-.784-.047-.032-.11-.047-.25-.126-.643-.047.236-.628.44-1.303.345-1.38.392-2.887.063-.815.016-1.537-.142-2.354-1.365-4.032m-4.362 16.317-.408 1.176q-.408.973-.973 1.962-1.176 2.118-3.075 4.33-1.475 1.726-3.357 3.53l3.78-5.334 2.386-3.358zm-9.57 10.323-.173.863q-4.864-.266-8.567 3.185l-2.683 3.436-.847-.502q-.36-1.05-.204-2.15.11-.925.612-1.882 1.004-2.18 3.295-3.53 2.338-1.334 4.785-1.177 2.071.141 3.373 1.334.22.188.408.423M24.711 53.913l-1.161-.189 13.352-1.412q-2.275.675-4.519 1.083-2.15.376-4.236.518z" style="fill:url(#e);stroke-width:.313791" transform="translate(-.086 -.073)"/>
    <path fill="#fff" d="m23.55 53.724 1.161.189h3.436q2.087-.142 4.236-.518 2.244-.408 4.519-1.083zM57.816 34.41l.408-1.176-1.647 2.306q-.973 1.632-2.385 3.358l-3.781 5.334q1.882-1.804 3.357-3.53 1.899-2.212 3.075-4.33.565-.989.973-1.962" style="stroke-width:.313791" transform="translate(-.086 -.073)"/>
</svg>
