<?xml version="1.0" encoding="UTF-8" standalone="no"?>
<svg
   width="88.337"
   height="100"
   version="1.1"
   id="svg1803"
   xml:space="preserve"
   xmlns="http://www.w3.org/2000/svg"
   xmlns:svg="http://www.w3.org/2000/svg">
   <defs id="defs1807" />
     <path
     d="m 32.757524,58.403191 c 0.05678,-0.214347 -0.02064,-0.442844 -0.197385,-0.577883 -0.176895,-0.135298 -0.41759,-0.150983 -0.609199,-0.04036 l -2.340191,1.351109 c -0.252923,0.146025 -0.43766,0.386555 -0.513391,0.668388 -0.658512,2.458446 -3.855516,14.385189 -3.855516,14.385189 -0.294481,1.100652 -1.426254,1.754081 -2.526689,1.458785 -1.102989,-0.293822 -1.757308,-1.427138 -1.460124,-2.52901 l 4.191566,-15.649845 c 0.143562,-0.530149 0.489605,-0.98099 0.962241,-1.253867 l 3.477073,-2.007488 c 0.191609,-0.110626 0.298221,-0.327171 0.269648,-0.547761 -0.02872,-0.220844 -0.187897,-0.40214 -0.401917,-0.460138 -2.550134,-0.682238 -8.010236,-2.144861 -8.010236,-2.144861 -0.528201,-0.141966 -0.979957,-0.487827 -1.253722,-0.962 L 12.816617,36.803313 c -0.569801,-0.986926 -0.23031,-2.251523 0.755839,-2.820877 0.988705,-0.570829 2.251068,-0.231062 2.820869,0.755863 l 7.017566,12.154781 c 0.14588,0.252671 0.387904,0.435866 0.667288,0.512672 1.453878,0.388276 6.111901,1.635763 8.042771,2.154011 0.181342,0.04859 0.375282,0.001 0.51347,-0.12545 0.13819,-0.12645 0.202846,-0.315366 0.170992,-0.500339 -0.195067,-1.157971 -0.233077,-2.297615 -0.124634,-3.384194 0.03681,-0.313859 -0.06325,-0.628756 -0.276298,-0.862064 -0.213046,-0.23331 -0.51638,-0.363393 -0.832495,-0.356316 -2.906695,0.06899 -5.345623,-1.21124 -6.930783,-3.962715 -0.910466,-1.582915 -1.353715,-3.825614 -1.111189,-6.190366 0.20099,-1.946991 0.855172,-3.964534 2.015087,-5.725628 0.09916,-0.146839 0.121464,-0.332421 0.05969,-0.498416 -0.06178,-0.165996 -0.199262,-0.292023 -0.371655,-0.336924 -1.602196,-0.43277 -5.1847,-1.392714 -5.1847,-1.392714 -1.100435,-0.2953 -1.754755,-1.428614 -1.460272,-2.529265 0.294481,-1.100655 1.428808,-1.755559 2.529244,-1.46026 0,0 5.322647,1.425142 7.044114,1.887496 0.141042,0.0378 0.292584,0.01707 0.417769,-0.05521 0.125185,-0.07227 0.218906,-0.193145 0.256696,-0.334194 0.460325,-1.722012 1.887437,-7.044129 1.887437,-7.044129 0.294482,-1.100655 1.42881,-1.75556 2.529243,-1.46026 1.100435,0.295296 1.754754,1.42861 1.460272,2.529265 0,0 -0.959915,3.582513 -1.38981,5.186126 -0.04687,0.172516 -0.006,0.355363 0.10714,0.49237 0.113313,0.137259 0.285472,0.21125 0.462373,0.199046 2.106631,-0.127233 4.180966,0.315 5.967604,1.114433 2.166642,0.97382 3.889826,2.477548 4.805417,4.057503 1.590286,2.748515 1.476962,5.502289 -0.03387,7.983079 -0.164188,0.270224 -0.203051,0.598218 -0.107525,0.899376 0.09568,0.301412 0.318374,0.545501 0.608714,0.670824 0.99508,0.449119 1.963034,1.051859 2.870593,1.797791 0.141416,0.121038 0.337053,0.15899 0.515512,0.102279 0.178602,-0.05645 0.316784,-0.200615 0.365672,-0.381442 0.517358,-1.93003 1.766013,-6.58774 2.154139,-8.039498 0.07574,-0.281832 0.03809,-0.583028 -0.107789,-0.835699 L 43.91354,18.849489 c -0.569801,-0.986926 -0.232865,-2.250048 0.755839,-2.820877 0.986148,-0.569353 2.251068,-0.231062 2.820869,0.755863 l 7.673066,13.290139 c 0.273764,0.474173 0.347409,1.038337 0.206255,1.566755 0,0 -1.463383,5.459899 -2.147616,8.009499 -0.05678,0.214347 0.02064,0.442843 0.197535,0.57814 0.176747,0.135041 0.417589,0.150983 0.609199,0.04036 l 3.477072,-2.00749 c 0.472637,-0.272877 1.036098,-0.347138 1.567001,-0.206392 l 15.64895,4.194921 c 1.102839,0.293568 1.757158,1.426883 1.460124,2.52901 -0.294481,1.100651 -1.42626,1.754084 -2.529246,1.460261 0,0 -11.924809,-3.196161 -14.383143,-3.855097 -0.281941,-0.07533 -0.582612,-0.03561 -0.835538,0.110417 l -2.340189,1.351109 c -0.19161,0.110626 -0.29837,0.326915 -0.269649,0.547761 0.02858,0.220588 0.187741,0.401889 0.401768,0.459882 2.594316,0.693861 8.215464,2.19942 8.215464,2.19942 0.528348,0.142221 0.979956,0.487828 1.253867,0.962256 l 11.571549,20.04251 c 0.569802,0.986925 0.230312,2.251521 -0.755839,2.820875 -0.988704,0.570829 -2.251067,0.231064 -2.820869,-0.755862 L 62.773814,51.215545 c -0.145879,-0.252671 -0.387901,-0.435868 -0.669842,-0.511197 -1.475943,-0.396998 -6.278745,-1.682845 -8.245441,-2.210045 -0.181343,-0.04859 -0.375283,-0.001 -0.513323,0.125704 -0.13819,0.126451 -0.202993,0.315111 -0.170991,0.50034 0.206977,1.219904 0.236556,2.421643 0.1045,3.561714 -0.03897,0.304207 0.05051,0.612603 0.247842,0.848176 0.200029,0.234351 0.488765,0.374568 0.795303,0.386303 0.740892,0.03245 1.472326,0.142925 2.194888,0.332435 2.990806,0.790599 5.85942,2.997964 8.18976,7.040131 2.148011,3.726403 3.350959,9.302753 2.710407,13.951721 -0.47701,3.463126 -1.974082,6.404355 -4.576737,8.026564 -0.04022,0.02475 -0.08109,0.04834 -0.122631,0.0708 -2.706201,1.442864 -6.001919,1.268751 -9.239576,-0.04971 -4.346402,-1.76975 -8.574206,-5.599698 -10.727342,-9.323142 -2.335467,-4.039207 -2.812778,-7.627191 -2.002054,-10.612605 0.197161,-0.720513 0.467206,-1.409189 0.810432,-2.065513 0.145365,-0.273323 0.168013,-0.593999 0.06237,-0.883183 -0.103092,-0.290662 -0.325572,-0.52261 -0.611212,-0.639747 -1.052919,-0.4549 -2.078866,-1.081385 -3.034105,-1.8686 -0.143969,-0.119561 -0.337052,-0.158988 -0.515657,-0.102542 -0.178602,0.05645 -0.316791,0.200606 -0.365673,0.381442 -0.85022,3.170704 -1.868443,6.970826 -2.209503,8.244506 -0.07574,0.281831 -0.03554,0.581554 0.110344,0.834224 L 45.91177,86.160726 c 0.569801,0.986926 0.230309,2.251522 -0.755839,2.820875 -0.988705,0.570829 -2.251068,0.231064 -2.820869,-0.755861 L 30.763505,68.183235 c -0.273912,-0.474429 -0.349966,-1.036862 -0.208959,-1.565536 0,0 1.506722,-5.620836 2.202978,-8.214508 z M 47.805596,46.246767 c -1.375606,-2.382619 -3.430824,-4.036649 -5.528186,-4.571866 -1.167119,-0.298697 -2.339868,-0.235446 -3.336236,0.339808 -0.996369,0.575254 -1.637522,1.55926 -1.962401,2.719361 -0.58517,2.083978 -0.180348,4.690865 1.195258,7.073484 1.375459,2.382364 3.430678,4.036394 5.528039,4.571611 1.167119,0.298697 2.339869,0.235446 3.336238,-0.339808 0.996369,-0.575254 1.63752,-1.559259 1.9624,-2.719362 0.58517,-2.083976 0.180347,-4.690864 -1.195112,-7.073228 z m 1.371294,13.337423 -0.0024,0.0018 c -0.04255,0.0266 -0.08854,0.05314 -0.132849,0.0767 l -0.0027,0.0012 c -2.197303,1.161994 -3.753342,2.744381 -4.303198,4.771521 -0.57386,2.109468 -0.06047,4.609392 1.590274,7.462665 1.74826,3.022138 5.180632,6.129304 8.708108,7.566238 1.986836,0.809885 4.007811,1.118396 5.681824,0.259546 1.575388,-1.017872 2.318845,-2.922087 2.61103,-5.047427 0.519316,-3.773351 -0.455366,-8.299465 -2.198499,-11.324563 -1.645617,-2.856233 -3.553939,-4.550791 -5.667721,-5.108549 -2.030484,-0.537381 -4.178891,0.019 -6.283859,1.340918 z m -12.425747,-21.262426 0.0025,-0.0015 c 0.02511,-0.01551 0.05577,-0.03321 0.08175,-0.0472 l 0.0025,-0.0015 c 3.66115,-2.001357 5.924702,-4.505914 4.253011,-7.395465 -0.544874,-0.943749 -1.628233,-1.775877 -2.921093,-2.357266 -2.045938,-0.918152 -4.676184,-1.184542 -6.988641,0.0671 -2.231926,1.373424 -3.313941,3.782747 -3.542211,6.01289 -0.142932,1.410344 0.03604,2.764626 0.580905,3.708374 1.666564,2.892513 4.967365,2.18449 8.531166,0.01452 z"
     id="Ant"
     style="clip-rule:evenodd;display:inline;fill:#3574a5;fill-opacity:1;fill-rule:evenodd;stroke-width:0.295004;stroke-linejoin:round;stroke-miterlimit:2" />
</svg>
