<?xml version="1.0" encoding="UTF-8" standalone="no"?>
<svg
   width="88.337"
   height="100"
   version="1.1"
   id="svg1803"
   xml:space="preserve"
   xmlns="http://www.w3.org/2000/svg"
   xmlns:svg="http://www.w3.org/2000/svg">
 <defs id="defs1807" />
 <path
     id="black"
     d="m 83.935611,78.339805 a 11.586943,11.38848 89.998509 0 0 3.72481,-5.499878 11.75487,11.553531 89.998509 0 0 0.53923,-3.556902 c -0.006,-1.105574 0.32905,-38.919969 -0.0241,-40.593434 a 11.50298,11.305955 89.998509 0 0 -3.04941,-5.726444 11.75487,11.553531 89.998509 0 0 -2.33084,-1.843848 C 81.981511,20.635587 49.59668,1.1511407 48.158135,0.64463774 A 11.536565,11.338965 89.998509 0 0 38.761426,1.5397127 C 37.893793,2.0493677 5.3455654,20.883434 4.3827284,21.672004 a 11.553358,11.35547 89.998509 0 0 -4.243647,9.038983 c 0.0064,1.099531 -0.32679097,38.920583 0.01618,40.572849 a 11.586943,11.38848 89.998509 0 0 5.392084,7.607938 c 0.818348,0.484942 33.1849216,19.960722 34.6355656,20.471749 a 11.536565,11.338965 89.998509 0 0 6.412815,0.30506 11.419016,11.22343 89.998509 0 0 2.968111,-1.204434 C 50.428614,97.956173 82.984591,79.115615 83.935611,78.339805"
     style="display:inline;fill:#000000;fill-opacity:0.992816;fill-rule:nonzero;stroke:none;stroke-width:1.66482" />
</svg>
