<?xml version="1.0" encoding="UTF-8" standalone="no"?>
<svg
   width="88.337"
   height="100"
   version="1.1"
   id="svg1803"
   xml:space="preserve"
   xmlns="http://www.w3.org/2000/svg"
   xmlns:svg="http://www.w3.org/2000/svg"><defs
     id="defs1807" /><path
     id="white"
     d="M 0,0 A 6.9,6.9 0 0 1 3.592,1.708 7,7 0 0 1 4.934,3.379 C 5.26,3.951 16.695,23.351 17.008,24.321 a 6.85,6.85 0 0 1 0.105,3.877 7,7 0 0 1 -0.674,1.657 C 16.156,30.351 4.965,50.21 4.361,50.907 a 6.87,6.87 0 0 1 -5.197,2.385 c -0.607,0 -23.293,0.147 -24.033,0.032 a 6.88,6.88 0 0 1 -4.918,-3.376 c -0.324,-0.569 -11.76,-19.973 -12.072,-20.929 a 6.9,6.9 0 0 1 0.564,-5.557 c 0.285,-0.498 11.469,-20.347 12.078,-21.05 a 6.87,6.87 0 0 1 3.274,-2.1 6.8,6.8 0 0 1 1.916,-0.278 C -23.422,0.034 -0.73,-0.112 0,0"
     style="display:inline;fill:#f4f1e0;fill-opacity:1;fill-rule:nonzero;stroke:none"
     transform="matrix(1.42938,-0.83963,-0.82525,-1.45429,83.936,78.34)" /><path
     id="black"
     d="m 83.935611,78.339805 a 11.586943,11.38848 89.998509 0 0 3.72481,-5.499878 11.75487,11.553531 89.998509 0 0 0.53923,-3.556902 c -0.006,-1.105574 0.32905,-38.919969 -0.0241,-40.593434 a 11.50298,11.305955 89.998509 0 0 -3.04941,-5.726444 11.75487,11.553531 89.998509 0 0 -2.33084,-1.843848 C 81.981511,20.635587 49.59668,1.1511407 48.158135,0.64463774 A 11.536565,11.338965 89.998509 0 0 38.761426,1.5397127 C 37.893793,2.0493677 5.3455654,20.883434 4.3827284,21.672004 a 11.553358,11.35547 89.998509 0 0 -4.243647,9.038983 c 0.0064,1.099531 -0.32679097,38.920583 0.01618,40.572849 a 11.586943,11.38848 89.998509 0 0 5.392084,7.607938 c 0.818348,0.484942 33.1849216,19.960722 34.6355656,20.471749 a 11.536565,11.338965 89.998509 0 0 6.412815,0.30506 11.419016,11.22343 89.998509 0 0 2.968111,-1.204434 C 50.428614,97.956173 82.984591,79.115615 83.935611,78.339805"
     style="display:inline;fill:#000000;fill-opacity:0.992816;fill-rule:nonzero;stroke:none;stroke-width:1.66482" /><path
     d="m 37.854512,57.110429 c -0.191094,-0.363163 -0.586333,-0.570375 -0.993553,-0.524786 -0.40722,0.04559 -0.744765,0.335224 -0.853367,0.731759 -0.257631,0.948323 -0.486169,1.796856 -0.486169,1.796856 -0.01218,0.04327 -0.0249,0.0856 -0.04048,0.128346 l -3.382012,9.686102 c -0.342455,0.978407 -1.412999,1.494912 -2.393092,1.154352 -0.977769,-0.341902 -1.494353,-1.413651 -1.151897,-2.392057 l 3.359741,-9.622768 c 0,0 1.946915,-7.178185 2.423939,-8.937246 0.06657,-0.244059 0.03741,-0.503759 -0.08181,-0.726334 -0.309592,-0.589869 -0.528142,-1.172225 -0.667708,-1.751872 -0.0591,-0.257902 -0.219092,-0.481398 -0.442728,-0.622007 -0.22582,-0.13904 -0.496193,-0.183609 -0.754782,-0.12195 -2.552573,0.599208 -8.958972,2.12372 -8.958972,2.12372 -0.566225,0.134913 -1.161531,-4.54e-4 -1.613958,-0.365715 -0.452429,-0.365261 -0.710235,-0.919069 -0.698719,-1.499854 0,0 0.02701,-1.283403 0.04769,-2.255952 0.007,-0.277491 -0.10328,-0.543617 -0.301734,-0.737165 -0.198319,-0.193318 -0.465629,-0.296945 -0.742997,-0.283902 -1.628423,0.07587 -4.544379,0.211956 -4.544379,0.211956 -1.034512,0.04791 -1.912543,-0.75415 -1.96166,-1.788593 -0.04912,-1.034445 0.75296,-1.914036 1.787471,-1.961951 l 7.620441,-0.355006 c 0.51882,-0.02393 1.023637,0.169253 1.396949,0.531574 0.371125,0.363894 0.576605,0.864609 0.566673,1.383782 0,0 -0.01849,0.836888 -0.03526,1.612394 -0.0069,0.309924 0.129702,0.605472 0.371804,0.799522 0.239642,0.195162 0.559163,0.265858 0.859027,0.195234 1.053699,-0.25068 2.542833,-0.605353 3.547218,-0.844902 0.264441,-0.06225 0.494271,-0.232725 0.630938,-0.468011 0.138854,-0.236864 0.174055,-0.51917 0.09718,-0.781053 -0.108674,-0.38133 -0.185387,-0.814559 -0.228872,-1.286789 -0.133541,-1.422034 -0.0065,-3.267023 0.306171,-4.865548 0.08421,-0.406602 -0.09149,-0.823557 -0.442685,-1.045666 -6.773982,-4.314918 -12.146954,-5.500581 -12.146954,-5.500581 -1.014809,-0.218326 -1.657613,-1.219058 -1.437392,-2.23218 0.217896,-1.011782 1.217951,-1.655743 2.230301,-1.43631 0,0 5.923765,1.26002 13.362521,5.996906 0.169384,0.105662 0.384396,0.102608 0.549291,-0.0087 0.03526,-0.02475 0.07384,-0.0491 0.115649,-0.07324 0.0418,-0.02414 0.08223,-0.04528 0.120849,-0.06423 0.178843,-0.08715 0.28899,-0.271823 0.27999,-0.469778 -0.380294,-8.811469 1.488055,-14.570269 1.488055,-14.570269 0.316141,-0.986438 1.373857,-1.53053 2.361356,-1.214686 0.987498,0.315847 1.530433,1.374239 1.214427,2.36091 0,0 -1.659669,5.245962 -1.312288,13.270969 0.01921,0.414092 0.290133,0.776071 0.684365,0.906443 1.543027,0.527132 3.20435,1.339614 4.369097,2.16628 0.38722,0.273776 0.724053,0.556823 1.003661,0.837297 0.189612,0.194318 0.448433,0.304704 0.719998,0.303063 0.271696,-0.0014 0.529333,-0.112993 0.715868,-0.31018 0.715723,-0.744885 1.765124,-1.855835 2.50907,-2.643027 0.213551,-0.225485 0.309763,-0.536205 0.262892,-0.842664 -0.04933,-0.305349 -0.23699,-0.571399 -0.506371,-0.72152 -0.679992,-0.373232 -1.414137,-0.775894 -1.414137,-0.775894 -0.456902,-0.249647 -0.787797,-0.677954 -0.915054,-1.182644 -0.129446,-0.503116 -0.04202,-1.038234 0.238117,-1.47558 l 4.115344,-6.420651 c 0.561072,-0.873298 1.721538,-1.126781 2.59515,-0.568359 0.871301,0.559757 1.126888,1.721188 0.565821,2.594482 0,0 -1.573509,2.455909 -2.453427,3.828231 -0.149978,0.233685 -0.196212,0.518337 -0.127955,0.786744 0.06839,0.26864 0.246042,0.495877 0.487538,0.629891 0.852594,0.468366 1.977559,1.086673 1.977559,1.086673 0.511055,0.279079 0.861764,0.779248 0.951874,1.353694 0.09011,0.574445 -0.09031,1.157678 -0.490259,1.580587 0,0 -4.550617,4.81391 -6.35754,6.726083 -0.184748,0.194918 -0.280529,0.452749 -0.27209,0.719461 0.0086,0.266943 0.123196,0.519112 0.318074,0.701099 0.428937,0.394308 0.814076,0.857568 1.152823,1.390655 0.133512,0.215249 0.344279,0.371032 0.589328,0.436105 1.77477,0.472612 9.017215,2.39146 9.017215,2.39146 l 10.015754,1.900423 c 1.018545,0.192631 1.686094,1.17722 1.493307,2.194943 -0.192787,1.017723 -1.175366,1.686588 -2.193918,1.493961 L 55.891417,47.458629 c -0.04481,-0.0079 -0.08784,-0.01804 -0.131391,-0.02911 0,0 -0.869626,-0.229682 -1.834905,-0.485583 -0.395519,-0.105786 -0.817313,0.04329 -1.06027,0.373388 -0.242822,0.330334 -0.260725,0.776691 -0.04163,1.123998 0.379319,0.608759 0.758943,1.250168 1.133961,1.921178 0.03661,0.06341 0.07101,0.128394 0.107886,0.192264 0.172996,0.310439 0.496835,0.506538 0.853724,0.513234 6.032373,0.17694 11.580972,4.316452 11.580972,4.316452 0.185435,0.138822 0.339075,0.308385 0.457742,0.497832 0.171577,0.270381 0.273543,0.59179 0.287148,0.942539 0,0 0.199076,6.529126 0.251567,8.320323 0.0095,0.28996 0.142821,0.563834 0.369369,0.747046 1.199786,1.016086 5.026819,4.260222 5.026819,4.260222 0.789894,0.670861 0.883735,1.857857 0.21457,2.645846 -0.671484,0.78933 -1.857732,0.885518 -2.647626,0.21466 L 64.43601,67.890219 c -0.40337,-0.344658 -0.644763,-0.843218 -0.660302,-1.374318 0,0 -0.110745,-3.726475 -0.172256,-5.780025 -0.0078,-0.313851 -0.163162,-0.604425 -0.419372,-0.785374 -0.253888,-0.182292 -0.580504,-0.233098 -0.879334,-0.139227 -0.739166,0.232283 -1.661963,0.521965 -2.359007,0.741386 -0.264746,0.08318 -0.483316,0.273153 -0.604071,0.525273 -0.118436,0.250779 -0.127721,0.540421 -0.02498,0.798829 2.367749,5.967618 4.241254,11.980278 4.966072,15.858536 0.35917,1.936199 0.417236,3.425964 0.233862,4.272267 -0.209915,0.966606 -0.716768,1.526175 -1.232372,1.823859 -0.515603,0.297684 -1.253498,0.457078 -2.195427,0.155799 -0.824471,-0.264111 -2.087801,-1.057708 -3.58488,-2.336624 -3.000906,-2.564159 -7.273191,-7.190955 -11.261935,-12.222378 -0.172285,-0.217947 -0.425442,-0.356068 -0.704028,-0.377317 -0.276262,-0.02259 -0.550075,0.0717 -0.75448,0.259395 -0.536625,0.491912 -1.245056,1.142158 -1.811557,1.662776 -0.23071,0.211859 -0.35002,0.52012 -0.321418,0.83248 0.03092,0.311018 0.20488,0.590866 0.470468,0.755874 1.747673,1.080045 4.919522,3.039191 4.919522,3.039191 0.452177,0.279007 0.765568,0.735999 0.860042,1.258998 l 1.424717,7.777716 c 0.188356,1.018156 -0.48807,1.997384 -1.507393,2.184241 -1.019322,0.186859 -1.998049,-0.489247 -2.184084,-1.508746 0,0 -0.916734,-4.993763 -1.194111,-6.520109 -0.052,-0.277791 -0.217679,-0.52185 -0.458376,-0.670571 -1.515507,-0.935379 -7.065664,-4.364218 -7.065664,-4.364218 -0.29673,-0.181403 -0.522585,-0.433142 -0.672688,-0.719947 -0.104772,-0.197469 -0.174759,-0.415331 -0.204587,-0.643992 0,0 -0.806685,-6.857438 2.041568,-12.168731 0.170324,-0.311084 0.16292,-0.688637 -0.01886,-0.992766 -0.03889,-0.06735 -0.07764,-0.134475 -0.118597,-0.200015 -0.38958,-0.653313 -0.751515,-1.296263 -1.087999,-1.922011 z m 10.815647,-8.203107 c -0.191152,-0.272086 -0.503286,-0.431897 -0.836362,-0.424162 -0.333077,0.0077 -0.639608,0.179448 -0.818924,0.458869 -0.153814,0.253861 -0.330505,0.494918 -0.522478,0.725597 -0.270612,0.319746 -0.310893,0.775618 -0.100904,1.139329 1.804506,3.136296 9.766273,16.926481 9.766273,16.926481 0.518001,0.897204 0.209373,2.046838 -0.687127,2.564433 -0.896499,0.517594 -2.046425,0.210057 -2.564426,-0.687147 L 43.144783,52.703433 c -0.212269,-0.367661 -0.633728,-0.561283 -1.052373,-0.481847 -0.300585,0.05865 -0.603005,0.09266 -0.906773,0.108252 -0.330438,0.01767 -0.629686,0.196635 -0.798681,0.477839 -0.171182,0.282779 -0.187733,0.62957 -0.04929,0.928369 0.496471,1.053013 1.123106,2.186644 1.831686,3.376394 4.622196,7.769876 12.220365,16.987992 17.068233,21.131355 0,0 0,0 0,0 0.242817,0.206024 0.589307,0.237614 0.863234,0.07915 0.276381,-0.159569 0.42227,-0.475433 0.362932,-0.787391 -5e-4,-8.66e-4 -0.001,-0.0017 -0.0014,-0.0023 -1.166645,-6.268717 -5.357962,-17.449135 -9.78042,-25.33433 -0.679285,-1.214096 -1.350568,-2.328452 -2.011871,-3.291563 z m -6.025611,-0.824966 c 1.730149,-1.015322 2.319063,-3.240312 1.314708,-4.979907 -1.007977,-1.745867 -3.238712,-2.33241 -4.98526,-1.324039 -1.746549,1.00837 -2.353956,3.233514 -1.345979,4.979381 1.008781,1.74726 3.246757,2.346344 4.993306,1.337974 0.0069,-0.004 0.01393,-0.008 0.02323,-0.01341 z m 14.634329,7.035824 c -0.1842,-0.04013 -0.376627,0.02885 -0.493128,0.175704 -0.118828,0.148187 -0.142081,0.349279 -0.0642,0.521709 0.17944,0.39126 0.360221,0.784841 0.537435,1.18296 0.10282,0.231731 0.365133,0.348154 0.606296,0.272401 0.526903,-0.165473 1.125231,-0.352057 1.644765,-0.514204 0.202166,-0.06284 0.34332,-0.247452 0.350888,-0.459615 0.0076,-0.212161 -0.119897,-0.406127 -0.318892,-0.482616 -0.709355,-0.273906 -1.471994,-0.516738 -2.263157,-0.696339 z M 42.977362,65.870828 c 0.186048,-0.171212 0.214191,-0.455015 0.06711,-0.661498 -0.254165,-0.349047 -0.50275,-0.699148 -0.749991,-1.046928 -0.10847,-0.155695 -0.294513,-0.236565 -0.482262,-0.207754 -0.187747,0.02881 -0.343438,0.161426 -0.400515,0.341477 -0.23714,0.769267 -0.404412,1.541552 -0.520588,2.284335 -0.0312,0.208775 0.0725,0.41522 0.257306,0.515387 0.187254,0.09906 0.415388,0.07047 0.57116,-0.07273 0.446056,-0.407413 0.942132,-0.862285 1.257784,-1.152294 z M 35.138757,34.438303 c -0.239371,-0.04451 -0.476269,0.09227 -0.55987,0.322923 -0.130949,0.368556 -0.278936,0.825605 -0.356628,1.216677 -0.231743,1.159438 -0.474942,2.256124 -0.40879,3.336165 2.63e-4,4.54e-4 5.5e-4,9.52e-4 9.5e-4,0.0016 0.0078,0.126172 0.07664,0.240031 0.181487,0.308944 0.107146,0.06758 0.238935,0.0813 0.357883,0.03523 0.172683,-0.06564 0.340498,-0.134337 0.478913,-0.200325 1.092342,-0.52166 2.07172,-1.147795 2.07172,-1.147795 0.04742,-0.0305 0.0962,-0.05866 0.148643,-0.08582 0,0 1.031939,-0.5351 2.029881,-1.220265 0.12635,-0.08689 0.26976,-0.197858 0.412806,-0.314822 0.09705,-0.07864 0.151064,-0.199626 0.146243,-0.325979 -0.005,-0.126583 -0.06914,-0.243122 -0.174472,-0.312994 -4e-4,-6.93e-4 -0.003,2.24e-4 -0.0033,-2.96e-4 -0.899944,-0.598651 -1.9713,-0.936377 -3.091274,-1.315401 -0.377525,-0.128252 -0.847334,-0.228617 -1.234177,-0.297916 z"
     id="Grasshopper"
     style="clip-rule:evenodd;display:inline;fill:#3f9b3a;fill-opacity:1;fill-rule:evenodd;stroke-width:0.268185;stroke-linejoin:round;stroke-miterlimit:2" /><path
     d="m 32.757524,58.403191 c 0.05678,-0.214347 -0.02064,-0.442844 -0.197385,-0.577883 -0.176895,-0.135298 -0.41759,-0.150983 -0.609199,-0.04036 l -2.340191,1.351109 c -0.252923,0.146025 -0.43766,0.386555 -0.513391,0.668388 -0.658512,2.458446 -3.855516,14.385189 -3.855516,14.385189 -0.294481,1.100652 -1.426254,1.754081 -2.526689,1.458785 -1.102989,-0.293822 -1.757308,-1.427138 -1.460124,-2.52901 l 4.191566,-15.649845 c 0.143562,-0.530149 0.489605,-0.98099 0.962241,-1.253867 l 3.477073,-2.007488 c 0.191609,-0.110626 0.298221,-0.327171 0.269648,-0.547761 -0.02872,-0.220844 -0.187897,-0.40214 -0.401917,-0.460138 -2.550134,-0.682238 -8.010236,-2.144861 -8.010236,-2.144861 -0.528201,-0.141966 -0.979957,-0.487827 -1.253722,-0.962 L 12.816617,36.803313 c -0.569801,-0.986926 -0.23031,-2.251523 0.755839,-2.820877 0.988705,-0.570829 2.251068,-0.231062 2.820869,0.755863 l 7.017566,12.154781 c 0.14588,0.252671 0.387904,0.435866 0.667288,0.512672 1.453878,0.388276 6.111901,1.635763 8.042771,2.154011 0.181342,0.04859 0.375282,0.001 0.51347,-0.12545 0.13819,-0.12645 0.202846,-0.315366 0.170992,-0.500339 -0.195067,-1.157971 -0.233077,-2.297615 -0.124634,-3.384194 0.03681,-0.313859 -0.06325,-0.628756 -0.276298,-0.862064 -0.213046,-0.23331 -0.51638,-0.363393 -0.832495,-0.356316 -2.906695,0.06899 -5.345623,-1.21124 -6.930783,-3.962715 -0.910466,-1.582915 -1.353715,-3.825614 -1.111189,-6.190366 0.20099,-1.946991 0.855172,-3.964534 2.015087,-5.725628 0.09916,-0.146839 0.121464,-0.332421 0.05969,-0.498416 -0.06178,-0.165996 -0.199262,-0.292023 -0.371655,-0.336924 -1.602196,-0.43277 -5.1847,-1.392714 -5.1847,-1.392714 -1.100435,-0.2953 -1.754755,-1.428614 -1.460272,-2.529265 0.294481,-1.100655 1.428808,-1.755559 2.529244,-1.46026 0,0 5.322647,1.425142 7.044114,1.887496 0.141042,0.0378 0.292584,0.01707 0.417769,-0.05521 0.125185,-0.07227 0.218906,-0.193145 0.256696,-0.334194 0.460325,-1.722012 1.887437,-7.044129 1.887437,-7.044129 0.294482,-1.100655 1.42881,-1.75556 2.529243,-1.46026 1.100435,0.295296 1.754754,1.42861 1.460272,2.529265 0,0 -0.959915,3.582513 -1.38981,5.186126 -0.04687,0.172516 -0.006,0.355363 0.10714,0.49237 0.113313,0.137259 0.285472,0.21125 0.462373,0.199046 2.106631,-0.127233 4.180966,0.315 5.967604,1.114433 2.166642,0.97382 3.889826,2.477548 4.805417,4.057503 1.590286,2.748515 1.476962,5.502289 -0.03387,7.983079 -0.164188,0.270224 -0.203051,0.598218 -0.107525,0.899376 0.09568,0.301412 0.318374,0.545501 0.608714,0.670824 0.99508,0.449119 1.963034,1.051859 2.870593,1.797791 0.141416,0.121038 0.337053,0.15899 0.515512,0.102279 0.178602,-0.05645 0.316784,-0.200615 0.365672,-0.381442 0.517358,-1.93003 1.766013,-6.58774 2.154139,-8.039498 0.07574,-0.281832 0.03809,-0.583028 -0.107789,-0.835699 L 43.91354,18.849489 c -0.569801,-0.986926 -0.232865,-2.250048 0.755839,-2.820877 0.986148,-0.569353 2.251068,-0.231062 2.820869,0.755863 l 7.673066,13.290139 c 0.273764,0.474173 0.347409,1.038337 0.206255,1.566755 0,0 -1.463383,5.459899 -2.147616,8.009499 -0.05678,0.214347 0.02064,0.442843 0.197535,0.57814 0.176747,0.135041 0.417589,0.150983 0.609199,0.04036 l 3.477072,-2.00749 c 0.472637,-0.272877 1.036098,-0.347138 1.567001,-0.206392 l 15.64895,4.194921 c 1.102839,0.293568 1.757158,1.426883 1.460124,2.52901 -0.294481,1.100651 -1.42626,1.754084 -2.529246,1.460261 0,0 -11.924809,-3.196161 -14.383143,-3.855097 -0.281941,-0.07533 -0.582612,-0.03561 -0.835538,0.110417 l -2.340189,1.351109 c -0.19161,0.110626 -0.29837,0.326915 -0.269649,0.547761 0.02858,0.220588 0.187741,0.401889 0.401768,0.459882 2.594316,0.693861 8.215464,2.19942 8.215464,2.19942 0.528348,0.142221 0.979956,0.487828 1.253867,0.962256 l 11.571549,20.04251 c 0.569802,0.986925 0.230312,2.251521 -0.755839,2.820875 -0.988704,0.570829 -2.251067,0.231064 -2.820869,-0.755862 L 62.773814,51.215545 c -0.145879,-0.252671 -0.387901,-0.435868 -0.669842,-0.511197 -1.475943,-0.396998 -6.278745,-1.682845 -8.245441,-2.210045 -0.181343,-0.04859 -0.375283,-0.001 -0.513323,0.125704 -0.13819,0.126451 -0.202993,0.315111 -0.170991,0.50034 0.206977,1.219904 0.236556,2.421643 0.1045,3.561714 -0.03897,0.304207 0.05051,0.612603 0.247842,0.848176 0.200029,0.234351 0.488765,0.374568 0.795303,0.386303 0.740892,0.03245 1.472326,0.142925 2.194888,0.332435 2.990806,0.790599 5.85942,2.997964 8.18976,7.040131 2.148011,3.726403 3.350959,9.302753 2.710407,13.951721 -0.47701,3.463126 -1.974082,6.404355 -4.576737,8.026564 -0.04022,0.02475 -0.08109,0.04834 -0.122631,0.0708 -2.706201,1.442864 -6.001919,1.268751 -9.239576,-0.04971 -4.346402,-1.76975 -8.574206,-5.599698 -10.727342,-9.323142 -2.335467,-4.039207 -2.812778,-7.627191 -2.002054,-10.612605 0.197161,-0.720513 0.467206,-1.409189 0.810432,-2.065513 0.145365,-0.273323 0.168013,-0.593999 0.06237,-0.883183 -0.103092,-0.290662 -0.325572,-0.52261 -0.611212,-0.639747 -1.052919,-0.4549 -2.078866,-1.081385 -3.034105,-1.8686 -0.143969,-0.119561 -0.337052,-0.158988 -0.515657,-0.102542 -0.178602,0.05645 -0.316791,0.200606 -0.365673,0.381442 -0.85022,3.170704 -1.868443,6.970826 -2.209503,8.244506 -0.07574,0.281831 -0.03554,0.581554 0.110344,0.834224 L 45.91177,86.160726 c 0.569801,0.986926 0.230309,2.251522 -0.755839,2.820875 -0.988705,0.570829 -2.251068,0.231064 -2.820869,-0.755861 L 30.763505,68.183235 c -0.273912,-0.474429 -0.349966,-1.036862 -0.208959,-1.565536 0,0 1.506722,-5.620836 2.202978,-8.214508 z M 47.805596,46.246767 c -1.375606,-2.382619 -3.430824,-4.036649 -5.528186,-4.571866 -1.167119,-0.298697 -2.339868,-0.235446 -3.336236,0.339808 -0.996369,0.575254 -1.637522,1.55926 -1.962401,2.719361 -0.58517,2.083978 -0.180348,4.690865 1.195258,7.073484 1.375459,2.382364 3.430678,4.036394 5.528039,4.571611 1.167119,0.298697 2.339869,0.235446 3.336238,-0.339808 0.996369,-0.575254 1.63752,-1.559259 1.9624,-2.719362 0.58517,-2.083976 0.180347,-4.690864 -1.195112,-7.073228 z m 1.371294,13.337423 -0.0024,0.0018 c -0.04255,0.0266 -0.08854,0.05314 -0.132849,0.0767 l -0.0027,0.0012 c -2.197303,1.161994 -3.753342,2.744381 -4.303198,4.771521 -0.57386,2.109468 -0.06047,4.609392 1.590274,7.462665 1.74826,3.022138 5.180632,6.129304 8.708108,7.566238 1.986836,0.809885 4.007811,1.118396 5.681824,0.259546 1.575388,-1.017872 2.318845,-2.922087 2.61103,-5.047427 0.519316,-3.773351 -0.455366,-8.299465 -2.198499,-11.324563 -1.645617,-2.856233 -3.553939,-4.550791 -5.667721,-5.108549 -2.030484,-0.537381 -4.178891,0.019 -6.283859,1.340918 z m -12.425747,-21.262426 0.0025,-0.0015 c 0.02511,-0.01551 0.05577,-0.03321 0.08175,-0.0472 l 0.0025,-0.0015 c 3.66115,-2.001357 5.924702,-4.505914 4.253011,-7.395465 -0.544874,-0.943749 -1.628233,-1.775877 -2.921093,-2.357266 -2.045938,-0.918152 -4.676184,-1.184542 -6.988641,0.0671 -2.231926,1.373424 -3.313941,3.782747 -3.542211,6.01289 -0.142932,1.410344 0.03604,2.764626 0.580905,3.708374 1.666564,2.892513 4.967365,2.18449 8.531166,0.01452 z"
     id="Ant"
     style="clip-rule:evenodd;display:inline;fill:#3574a5;fill-opacity:1;fill-rule:evenodd;stroke-width:0.295004;stroke-linejoin:round;stroke-miterlimit:2" /><path
     d="m 34.598808,60.612737 c -1.933974,2.036994 -4.146948,3.968346 -6.533124,5.346006 -5.819816,3.360072 -11.642875,4.891409 -15.228447,4.474854 -2.193586,-0.253475 -3.7206663,-1.20515 -4.5126053,-2.576829 -0.792087,-1.371934 -0.852721,-3.170262 0.02456,-5.196702 1.432038,-3.313472 5.6697453,-7.590721 11.4895603,-10.950793 3.132176,-1.808363 6.940899,-2.88151 10.426573,-3.517091 L 26.388053,47.15239 c -0.5282,-0.141965 -0.979956,-0.487827 -1.25372,-0.962001 0,0 -2.147042,-3.718786 -2.860953,-4.955316 -0.14588,-0.252671 -0.385497,-0.437596 -0.667435,-0.512928 -1.957757,-0.523507 -9.771567,-2.617246 -9.771567,-2.617246 -1.100433,-0.295297 -1.754753,-1.428613 -1.460272,-2.529265 0.297185,-1.101873 1.428957,-1.755302 2.529245,-1.46026 l 11.037365,2.957071 c 0.528348,0.142221 0.979957,0.487827 1.253868,0.962255 0,0 2.146748,3.718276 2.860806,4.955062 0.145879,0.25267 0.385349,0.437341 0.667435,0.512927 1.148646,0.308 4.246687,1.136836 5.617119,1.50448 0.157605,0.04288 0.327177,0.01208 0.459873,-0.08258 0.135253,-0.09614 0.219179,-0.245774 0.230382,-0.409272 0.0026,-0.04853 0.0081,-0.09802 0.0112,-0.145792 0.02414,-0.26499 -0.144242,-0.509438 -0.402298,-0.578802 -1.657002,-0.480497 -3.150033,-1.591492 -4.096849,-3.231426 -1.419709,-2.459008 -1.193388,-5.388729 0.314275,-7.497412 0.257428,-0.350627 0.28111,-0.817013 0.06458,-1.192059 -1.556496,-2.707731 -7.513521,-13.0256 -7.513521,-13.0256 -0.569801,-0.986924 -0.230311,-2.251522 0.755838,-2.820875 0.988705,-0.570829 2.251069,-0.231062 2.82087,0.755862 l 7.518631,13.02265 c 0.217861,0.377346 0.639893,0.589123 1.072702,0.542263 2.579608,-0.257917 5.229982,1.010943 6.649691,3.469951 0.946816,1.639934 1.16245,3.488434 0.750957,5.165223 -0.06685,0.255922 0.05992,0.522693 0.300901,0.633255 0.04123,0.02422 0.08685,0.04422 0.130045,0.06594 0.147196,0.07205 0.318745,0.07418 0.466927,0.0063 0.150883,-0.06907 0.262342,-0.200515 0.304011,-0.358445 0.367122,-1.37014 1.195942,-4.465811 1.505936,-5.616296 0.07573,-0.281832 0.03554,-0.581554 -0.110344,-0.834224 -0.714058,-1.236786 -2.860953,-4.955317 -2.860953,-4.955317 -0.273912,-0.474429 -0.347411,-1.038337 -0.206404,-1.56701 L 45.46418,15.316371 c 0.29463,-1.100399 1.426402,-1.753828 2.529244,-1.46026 1.100435,0.295297 1.754755,1.428612 1.460272,2.529265 0,0 -2.093674,7.813827 -2.619179,9.771044 -0.07573,0.281832 -0.03539,0.581809 0.110491,0.83448 0.713911,1.23653 2.860953,4.955316 2.860953,4.955316 0.273765,0.474174 0.347412,1.038336 0.206257,1.566753 l -1.040702,3.879187 c 2.29582,-2.702367 5.129554,-5.464244 8.261729,-7.272606 5.819816,-3.360072 11.642877,-4.89141 15.228449,-4.474857 2.191028,0.254953 3.720667,1.205151 4.512754,2.577085 0.791939,1.371679 0.850015,3.171484 -0.0247,5.196446 -1.432039,3.313474 -5.669748,7.590724 -11.489564,10.950796 -2.386175,1.377659 -5.167818,2.329951 -7.896338,2.984849 l 4.743534,1.271695 c 0.515373,0.137448 0.955429,0.468944 1.23189,0.924189 0,0 1.780214,2.935901 2.424181,3.998209 0.147007,0.242824 0.381755,0.419317 0.655635,0.492489 1.753117,0.46997 8.309328,2.226301 8.309328,2.226301 1.100434,0.295295 1.754754,1.428611 1.460124,2.529008 -0.294481,1.100653 -1.428808,1.755557 -2.529244,1.46026 l -9.537951,-2.554889 c -0.515226,-0.137192 -0.95543,-0.468945 -1.231744,-0.923934 0,0 -1.780361,-2.936156 -2.424328,-3.998463 -0.146859,-0.242568 -0.381607,-0.419064 -0.655635,-0.49249 -1.567892,-0.420554 -7.024112,-1.882353 -9.042607,-2.422569 -0.169399,-0.04561 -0.348895,-0.0084 -0.48591,0.102385 -0.137163,0.11053 -0.213176,0.279773 -0.203979,0.455002 0.0027,0.05191 0.0051,0.103309 0.0074,0.154455 0.0072,0.242494 0.17194,0.451208 0.405669,0.513838 1.712081,0.457893 8.314243,2.228912 8.314243,2.228912 0.530755,0.140489 0.982512,0.48635 1.256276,0.960523 0,0 4.147615,7.183881 5.174377,8.962285 0.145732,0.252415 0.385349,0.437344 0.66729,0.512675 2.261905,0.607813 12.489424,3.348099 12.489424,3.348099 1.100435,0.295298 1.754606,1.428355 1.460124,2.52901 -0.294482,1.100651 -1.426255,1.754081 -2.529243,1.460259 L 63.765085,67.404921 c -0.528201,-0.141966 -0.977401,-0.489302 -1.251165,-0.963474 0,0 -4.147616,-7.183882 -5.174378,-8.962286 -0.145881,-0.252673 -0.387905,-0.435868 -0.669844,-0.511198 -0.173724,-0.0472 -0.387157,-0.104171 -0.612827,-0.164642 -0.230436,-0.06283 -0.477725,0.03396 -0.606355,0.235972 -0.128631,0.202006 -0.110265,0.463917 0.04365,0.647907 1.003587,1.224958 1.985364,2.630445 2.88144,4.182493 2.622442,4.542204 3.805776,9.087516 3.497739,11.8757 -0.206865,1.860113 -1.032591,3.138034 -2.187357,3.804739 -1.154766,0.666704 -2.671785,0.741367 -4.386123,-0.0095 -2.568657,-1.127323 -5.913346,-4.424777 -8.535789,-8.96698 -0.896075,-1.552049 -1.624928,-3.103561 -2.181572,-4.586902 -0.08208,-0.224785 -0.302133,-0.36991 -0.541244,-0.359258 -0.239259,0.01039 -0.444022,0.174939 -0.504979,0.405658 -0.06091,0.224904 -0.118285,0.438229 -0.166828,0.613752 -0.07318,0.280357 -0.03554,0.581552 0.110344,0.834226 1.026762,1.778404 5.174378,8.962285 5.174378,8.962285 0.273764,0.474172 0.349965,1.03686 0.206255,1.566753 l -3.686481,13.757561 c -0.294482,1.100651 -1.426255,1.754081 -2.526688,1.458784 -1.102991,-0.293823 -1.757162,-1.426881 -1.460125,-2.529009 0,0 2.738048,-10.22596 3.345174,-12.490209 0.07573,-0.281833 0.03539,-0.581812 -0.110345,-0.834227 -1.02691,-1.778661 -5.174377,-8.962285 -5.174377,-8.962285 -0.273764,-0.474173 -0.347412,-1.038336 -0.206256,-1.566753 0,0 1.76989,-6.604625 2.229529,-8.316022 0.06248,-0.233985 -0.03588,-0.481049 -0.24231,-0.608493 -0.04315,-0.02754 -0.08646,-0.05535 -0.13005,-0.08365 -0.147155,-0.09558 -0.331583,-0.114116 -0.495886,-0.05059 -0.164448,0.06327 -0.286416,0.200118 -0.334178,0.371093 -0.538999,2.016444 -2.001155,7.47257 -2.423446,9.042157 -0.07087,0.272552 -0.03795,0.565574 0.09869,0.814041 0.597992,1.088852 2.25316,4.097288 2.25316,4.097288 0.255875,0.466789 0.320525,1.015368 0.184279,1.528687 l -2.556452,9.53755 c -0.294482,1.100653 -1.428809,1.755557 -2.529245,1.46026 -1.100286,-0.295042 -1.754606,-1.428358 -1.460123,-2.529008 0,0 1.75708,-6.556013 2.226632,-8.309242 0.07357,-0.273772 0.0381,-0.565317 -0.09869,-0.814041 -0.597992,-1.088851 -2.25046,-4.098506 -2.25046,-4.098506 -0.256023,-0.467045 -0.323079,-1.013892 -0.184426,-1.528943 z m 5.246463,-17.427634 c -0.556944,0.321552 -0.690171,1.052502 -0.709466,1.862788 -0.03196,1.30165 0.4018,2.831752 1.248906,4.298982 0.847105,1.467229 1.955183,2.607673 3.098427,3.230819 0.247806,0.134212 0.493052,0.252188 0.731849,0.335395 0.05017,0.0102 0.101084,0.02168 0.152883,0.0347 0.06418,0.01677 0.124152,0.03802 0.184834,0.06054 0.323017,0.06388 0.627578,0.04269 0.898386,-0.113661 0.270808,-0.156351 0.441438,-0.409514 0.547626,-0.721195 0.01085,-0.06383 0.02497,-0.127853 0.04254,-0.191816 0.01463,-0.05136 0.03014,-0.101197 0.04639,-0.149749 0.04734,-0.248409 0.06779,-0.519785 0.07547,-0.801498 0.02941,-1.300175 -0.401652,-2.831498 -1.248757,-4.298727 -0.847106,-1.467229 -1.957888,-2.606453 -3.098576,-3.231074 -0.713929,-0.386958 -1.41101,-0.63853 -1.97051,-0.315503 z m -4.860346,-8.418366 c -1.267176,0.731604 -1.626925,2.409515 -0.865961,3.727545 0.760964,1.318028 2.3941,1.845686 3.661276,1.114081 1.269732,-0.73308 1.629334,-2.411246 0.86837,-3.729274 -0.760964,-1.318029 -2.393953,-1.845432 -3.663685,-1.112352 z m 21.233926,38.589547 c 0.322178,0.204027 0.729696,0.213668 1.059265,0.02339 0.332123,-0.191751 0.527681,-0.549237 0.511931,-0.930521 -2.75e-4,-4.77e-4 -4.13e-4,-7.15e-4 -6.5e-4,-0.0011 -0.09989,-2.249833 -1.172643,-5.364599 -2.99046,-8.51315 -1.817817,-3.148553 -3.978906,-5.634961 -5.877521,-6.846643 -0.382141,-0.242984 -0.744704,-0.428462 -1.083409,-0.531313 -0.08983,-0.0258 -0.219818,-0.04443 -0.303211,-0.05317 -0.03157,0.07512 -0.08298,0.198474 -0.103002,0.287699 -0.08284,0.346228 -0.100934,0.751481 -0.08157,1.203916 0.10004,2.25009 1.172788,5.364852 2.990605,8.513405 1.817817,3.148551 3.978908,5.634963 5.877376,6.846388 2.75e-4,4.77e-4 4.12e-4,7.15e-4 6.5e-4,0.0011 z m 3.079414,-39.659989 c -4.1592,2.401315 -7.709042,6.701778 -9.969955,9.913007 -0.120632,0.174563 -0.131171,0.404111 -0.02482,0.588312 0.106201,0.183947 0.310412,0.289848 0.521757,0.272405 3.911462,-0.352394 9.410694,-1.276415 13.569894,-3.67773 4.2384,-2.447041 7.568294,-5.376155 9.190843,-7.946651 -1.51e-4,-2.61e-4 0.0023,-0.002 0.002,-0.0025 0.40323,-0.640895 0.420165,-1.455268 0.04064,-2.112621 -0.379523,-0.657354 -1.093111,-1.049618 -1.849905,-1.021114 -1.51e-4,-2.61e-4 -0.0029,0.001 -0.003,7.38e-4 -3.037389,0.11992 -7.239022,1.539138 -11.477422,3.986179 z M 21.903779,55.286011 c -4.238399,2.447041 -7.568292,5.376152 -9.190841,7.946649 1.51e-4,2.62e-4 -0.0023,0.002 -0.002,0.0025 -0.405785,0.642369 -0.420164,1.455267 -0.04064,2.11262 0.379523,0.657353 1.090555,1.051094 1.849903,1.021114 1.51e-4,2.63e-4 0.0029,-9.99e-4 0.003,-7.38e-4 3.03739,-0.11992 7.239021,-1.539137 11.47742,-3.986178 4.159202,-2.401316 7.709043,-6.701778 9.969957,-9.913008 0.120631,-0.174563 0.128616,-0.402635 0.02227,-0.586837 -0.106202,-0.183947 -0.307858,-0.291323 -0.519202,-0.27388 -3.911464,0.352394 -9.410694,1.276415 -13.569896,3.677731 z"
     id="Mosquito"
     style="clip-rule:evenodd;display:inline;fill:#888888;fill-opacity:1;fill-rule:evenodd;stroke-width:0.295003;stroke-linejoin:round;stroke-miterlimit:2" /><path
     d="m 29.596774,61.75782 c -0.15193,-0.26314 -0.4897,-0.35257 -0.75284,-0.20065 -1.21863,0.70358 -4.36358,2.51932 -4.36358,2.51932 -0.98871,0.57083 -2.25093,0.23132 -2.82087,-0.75586 -0.56981,-0.98692 -0.23288,-2.25004 0.75584,-2.82088 l 4.36358,-2.51931 c 0.26314,-0.15193 0.35473,-0.4889 0.2028,-0.75205 -0.52378,-0.90721 -1.65261,-2.86241 -2.1084,-3.65185 -0.1177,-0.20387 -0.35258,-0.30978 -0.5821,-0.26481 -1.24782,0.24591 -5.09454,1.00546 -5.09454,1.00546 -1.11658,0.21954 -2.20467,-0.50868 -2.42459,-1.6271 -0.21991,-1.11842 0.50837,-2.20519 1.62496,-2.42473 0,0 1.93367,-0.3796 3.36217,-0.66068 0.1711,-0.0341 0.31441,-0.14575 0.39018,-0.30361 0.0732,-0.15638 0.0695,-0.33988 -0.0123,-0.49331 -0.93075,-1.77729 -1.52097,-3.63741 -1.78678,-5.49612 -0.0353,-0.26169 -0.25204,-0.46014 -0.51549,-0.47394 -0.94208,-0.0505 -3.01222,-0.16099 -3.01222,-0.16099 -1.1384,-0.0601 -2.0136,-1.03322 -1.95229,-2.17196 0.0589,-1.136997 1.03197,-2.012194 2.17051,-1.951801 0,0 1.42709,0.07639 2.77988,0.147978 0.28394,0.01389 0.52938,-0.186402 0.57233,-0.466006 0.37869,-2.370811 1.25549,-4.65178 2.58402,-6.67543 0.091,-0.137368 0.11724,-0.310229 0.0669,-0.468188 -0.0477,-0.159459 -0.16839,-0.285661 -0.32272,-0.346442 -0.0606,-0.02228 -0.12414,-0.04381 -0.18916,-0.06213 -0.51311,-0.139435 -1.13731,-0.04646 -1.99629,0.188542 -3.60851,0.989234 -7.45865,2.669132 -11.1273037,2.002482 -1.119712,-0.204797 -1.8638,-1.281175 -1.662194,-2.401104 0.204161,-1.121402 1.28253,-1.867312 2.4022507,-1.662519 1.392897,0.253165 2.810547,4.88e-4 4.229047,-0.374629 1.7111,-0.452413 3.41205,-1.093477 5.06498,-1.546369 1.79413,-0.491495 3.11151,-0.481215 4.17937,-0.189252 0.76532,0.210471 1.4277,0.57303 2.04908,1.082912 0.20247,0.167882 0.49554,0.167977 0.69823,-1.45e-4 0.71284,-0.582557 1.4785,-1.114885 2.30116,-1.589845 0.82264,-0.47495 1.66904,-0.873349 2.52829,-1.196393 0.24694,-0.09148 0.39575,-0.347034 0.3512,-0.607106 -0.13372,-0.792113 -0.11652,-1.547032 0.0839,-2.315053 0.28108,-1.070773 0.93088,-2.216808 2.25359,-3.524823 1.21867,-1.205023 2.62688,-2.359034 3.87168,-3.613211 1.03411,-1.040898 1.96176,-2.142281 2.43896,-3.475146 0.38506,-1.073578 1.56766,-1.633043 2.64091,-1.249151 1.07324,0.383894 1.63082,1.567952 1.24832,2.640054 -1.25699,3.51047 -4.6369,6.004842 -7.29529,8.633808 -0.63557,0.627879 -1.02819,1.121963 -1.164,1.636048 -0.0167,0.0655 -0.0297,0.13128 -0.037,0.19545 -0.025,0.163291 0.026,0.328326 0.13714,0.449838 0.11105,0.121538 0.27357,0.18474 0.43774,0.174093 2.41587,-0.134429 4.82965,0.246725 7.07202,1.10392 0.26333,0.102088 0.56207,-0.0118 0.68944,-0.263155 0.41635,-0.818787 1.26225,-2.480676 1.26225,-2.480676 0.51696,-1.016198 1.76145,-1.421316 2.77811,-0.905287 1.01427,0.517749 1.41939,1.762238 0.90228,2.778182 0,0 -0.93939,1.848039 -1.36685,2.688909 -0.11976,0.23504 -0.0561,0.522257 0.15285,0.683646 1.47483,1.162046 2.80434,2.627015 3.8661,4.294948 0.0912,0.147978 0.24887,0.24226 0.42077,0.256786 0.17445,0.01306 0.34283,-0.0552 0.45773,-0.186592 0.79219,-0.905313 2.25414,-2.579856 2.25414,-2.579856 0.74842,-0.857221 2.05373,-0.94455 2.91236,-0.19489 0.85861,0.749665 0.94523,2.056091 0.19681,2.913312 0,0 -2.58115,2.951581 -3.41548,3.907795 -0.15626,0.177753 -0.18197,0.434121 -0.0643,0.637994 0.45578,0.789438 1.58462,2.744637 2.1084,3.651852 0.15192,0.26314 0.48954,0.35232 0.75268,0.20039 1.2212,-0.705059 4.36359,-2.519319 4.36359,-2.519319 0.98871,-0.57083 2.25107,-0.231061 2.82087,0.755864 0.56995,0.98718 0.23287,2.250045 -0.75584,2.820875 l -4.36359,2.51932 c -0.26314,0.15193 -0.35457,0.48915 -0.20265,0.7523 0.6052,1.04824 2.04247,3.53765 2.59132,4.48829 0.12789,0.22151 0.3921,0.32512 0.63575,0.25156 1.27815,-0.3881 5.04106,-1.52881 5.04106,-1.52881 1.09011,-0.3303 2.24358,0.28695 2.57365,1.37787 0.33023,1.09118 -0.28507,2.24387 -1.37773,2.57563 0,0 -2.61191,0.79196 -3.87011,1.17331 -0.15969,0.0479 -0.2911,0.16841 -0.35129,0.32375 -0.0629,0.15656 -0.05,0.33237 0.034,0.47774 0.81628,1.41383 2.79192,4.83575 2.79192,4.83575 0.16771,0.29048 0.3266,0.58367 0.47434,0.88057 0.0952,0.18857 0.28953,0.30668 0.50191,0.30294 1.10476,-0.0158 4.46453,-0.0671 4.46453,-0.0671 1.14082,-0.0182 2.07934,0.89342 2.09687,2.03297 0.0175,1.13955 -0.89461,2.07902 -2.03287,2.0958 0,0 -1.87041,0.029 -2.88691,0.0443 -0.15888,0.002 -0.31114,0.0747 -0.41429,0.19693 -0.10044,0.12104 -0.14679,0.28265 -0.12084,0.4397 0.32817,2.15551 0.23177,4.33677 -0.25365,6.42242 -0.0386,0.15139 -0.009,0.30902 0.0783,0.43649 0.0848,0.12886 0.22223,0.21371 0.37488,0.23628 1.15724,0.1695 3.57872,0.52269 3.57872,0.52269 1.12738,0.16495 1.91012,1.2139 1.74404,2.34227 -0.16336,1.12715 -1.21377,1.90971 -2.34098,1.74501 0,0 -3.64881,-0.53197 -4.83265,-0.70622 -0.22246,-0.0313 -0.44125,0.0735 -0.5547,0.26645 -1.43443,2.4125 -3.4882,4.50162 -6.09153,6.00466 -2.60333,1.50303 -5.43944,2.23708 -8.24581,2.27334 -0.22363,0.002 -0.4238,0.13915 -0.50539,0.34595 -0.44387,1.11333 -1.80756,4.53926 -1.80756,4.53926 -0.42097,1.05855 -1.6239,1.57694 -2.68172,1.15485 -1.06023,-0.42036 -1.57728,-1.6227 -1.15644,-2.68151 0,0 0.90485,-2.27366 1.33697,-3.36011 0.0568,-0.14353 0.052,-0.30525 -0.0148,-0.44451 -0.0694,-0.13813 -0.19123,-0.24284 -0.3393,-0.28679 -2.0512,-0.62047 -3.98842,-1.62761 -5.69078,-2.98906 -0.12558,-0.0995 -0.28603,-0.14143 -0.44091,-0.11469 -0.15759,0.0279 -0.29662,0.12345 -0.37784,0.26006 -0.52193,0.87191 -1.47968,2.47574 -1.47968,2.47574 -0.58622,0.97886 -1.85588,1.29905 -2.83401,0.7141 -0.97812,-0.58494 -1.29582,-1.85503 -0.71217,-2.83242 0,0 1.72427,-2.88402 2.29035,-3.83286 0.10947,-0.18209 0.10429,-0.40936 -0.0114,-0.58613 -0.18343,-0.2763 -0.35773,-0.5606 -0.52544,-0.85108 l -2.79192,-4.83575 c -0.0839,-0.14537 -0.22971,-0.24447 -0.39674,-0.26828 -0.16463,-0.0255 -0.33469,0.028 -0.45603,0.14236 -0.95936,0.89896 -2.95117,2.76496 -2.95117,2.76496 -0.8311,0.77892 -2.13955,0.73691 -2.91942,-0.0947 -0.77974,-0.83131 -0.73756,-2.13886 0.0961,-2.91926 0,0 2.86933,-2.68841 3.84196,-3.5998 0.18554,-0.17422 0.2279,-0.45485 0.10002,-0.67635 -0.54886,-0.95065 -1.98612,-3.44006 -2.59132,-4.4883 z m -0.43542,-11.95244 c -0.35113,0.0644 -0.65007,0.29594 -0.80019,0.62005 -0.14757,0.32262 -0.13103,0.69936 0.0473,1.00824 0.27928,0.48972 0.58225,1.01448 0.80601,1.40205 0.20842,0.36099 0.60323,0.57281 1.01836,0.54843 2.65853,-0.2156 6.61732,-1.18224 11.74479,-4.14259 5.12746,-2.96034 7.94398,-5.90543 9.45924,-8.10127 0.22883,-0.34706 0.24309,-0.79438 0.035,-1.15486 -0.22376,-0.387567 -0.52673,-0.912326 -0.80861,-1.40055 -0.17877,-0.309645 -0.49722,-0.513096 -0.8531,-0.545398 -0.35602,-0.03256 -0.70601,0.110575 -0.93722,0.382707 -1.91447,2.159261 -4.77424,4.645951 -9.03819,7.107741 -4.26394,2.46179 -7.84736,3.69508 -10.67339,4.27547 z m -3.69785,-7.36657 c -0.28455,0.0618 -0.5323,0.23443 -0.69001,0.48047 -0.15786,0.24579 -0.21054,0.54395 -0.14809,0.82912 0.1275,0.54533 0.28761,1.08819 0.48731,1.62284 0.16972,0.45317 0.61773,0.73954 1.10203,0.70519 2.65353,-0.24201 6.54758,-1.23225 11.55497,-4.12327 5.0074,-2.89102 7.812,-5.768247 9.35119,-7.946229 0.26935,-0.400772 0.24525,-0.932222 -0.0601,-1.307756 -0.36564,-0.438505 -0.7531,-0.850101 -1.16645,-1.229721 -0.21293,-0.197607 -0.49699,-0.300324 -0.78879,-0.286507 -0.29179,0.01381 -0.56505,0.142284 -0.7611,0.357334 -1.92497,2.052575 -4.70421,4.383757 -8.71778,6.700997 -4.01358,2.317242 -7.42206,3.558542 -10.16316,4.197532 z m 5.27198,-12.669294 c -3.9216,2.26414 -5.20687,4.817038 -5.76857,6.794134 -0.11157,0.384958 -0.005,0.800412 0.27837,1.083984 0.28313,0.283802 0.6985,0.389735 1.08565,0.275565 2.06838,-0.647793 4.48429,-1.673026 7.2307,-3.258661 2.7464,-1.585635 4.84223,-3.165262 6.43684,-4.633662 0.28988,-0.276712 0.40601,-0.689168 0.30461,-1.077208 -0.10392,-0.386581 -0.41009,-0.68671 -0.79912,-0.782307 -1.99337,-0.502602 -4.84687,-0.665985 -8.76848,1.598155 z m 29.11731,25.947494 c 0.22897,-0.3468 0.24309,-0.79438 0.0351,-1.15461 -0.22376,-0.38756 -0.52688,-0.91258 -0.80876,-1.4008 -0.17877,-0.30965 -0.49706,-0.51285 -0.85309,-0.5454 -0.35588,-0.0323 -0.70601,0.11057 -0.93723,0.38271 -1.91432,2.15952 -4.77424,4.64595 -9.03819,7.10774 -4.26394,2.46179 -7.84721,3.69534 -10.67325,4.27573 -0.35113,0.0644 -0.65008,0.29595 -0.80019,0.62005 -0.14771,0.32237 -0.13118,0.69911 0.0472,1.00798 0.27928,0.48973 0.5824,1.01474 0.80616,1.40231 0.20827,0.36074 0.60324,0.57281 1.01821,0.54817 2.65869,-0.21534 6.61747,-1.18198 11.74494,-4.14233 5.12747,-2.96034 7.94399,-5.90543 9.4591,-8.10153 z m -4.20794,-7.28837 c 0.22882,-0.34706 0.24308,-0.79438 0.0351,-1.15461 -0.22391,-0.38782 -0.52688,-0.91258 -0.80876,-1.4008 -0.17877,-0.30965 -0.49721,-0.5131 -0.85309,-0.54541 -0.35603,-0.0326 -0.70601,0.11058 -0.93723,0.38272 -1.91447,2.15926 -4.77424,4.64595 -9.03819,7.10774 -4.26394,2.46179 -7.84737,3.69508 -10.6734,4.27547 -0.35113,0.0644 -0.65008,0.29595 -0.80019,0.62005 -0.14757,0.32262 -0.13103,0.69936 0.0473,1.00824 0.27928,0.48973 0.58225,1.01449 0.80616,1.40231 0.20827,0.36073 0.60309,0.57256 1.01821,0.54817 2.65854,-0.2156 6.61732,-1.18224 11.74479,-4.14259 5.12747,-2.96034 7.94399,-5.90543 9.45924,-8.10127 z m 8.3913,14.71697 c 0.21779,-0.31309 0.25756,-0.71621 0.10394,-1.0649 -0.18884,-0.42748 -0.40175,-0.84925 -0.6407,-1.26313 l -0.21226,-0.36764 c -0.17877,-0.30964 -0.49707,-0.51284 -0.85309,-0.5454 -0.35588,-0.0323 -0.70601,0.11058 -0.93723,0.38272 -1.91432,2.15951 -4.7741,4.6462 -9.03804,7.10799 -4.26395,2.46179 -7.84737,3.69508 -10.6734,4.27547 -0.35113,0.0644 -0.65007,0.29595 -0.80018,0.62005 -0.14756,0.32262 -0.13118,0.69911 0.0471,1.00798 0.12145,0.21636 0.20966,0.36914 0.20966,0.36914 0.23836,0.41286 0.49672,0.80736 0.77178,1.18336 0.22516,0.30739 0.5943,0.47477 0.97448,0.44296 2.69578,-0.26912 6.60599,-1.29629 11.61337,-4.18731 4.94864,-2.85709 7.82843,-5.728 9.43449,-7.96127 z m -13.93994,14.65395 c -0.47686,0.16527 -0.77709,0.63056 -0.73329,1.13122 0.0438,0.50067 0.42192,0.90778 0.91742,0.98722 2.8335,0.47094 5.83844,-1.8e-4 8.51586,-1.54599 2.67742,-1.54581 4.59045,-3.91408 5.59784,-6.60019 0.18092,-0.47132 0.017,-1.0031 -0.39516,-1.29213 -0.41229,-0.28928 -0.96819,-0.26095 -1.34975,0.0694 -1.5997,1.34155 -3.56814,2.74067 -5.98242,4.13455 -2.41428,1.39389 -4.6076,2.39757 -6.5705,3.11594 z"
     id="Pillbug"
     style="clip-rule:evenodd;display:inline;fill:#307e73;fill-opacity:1;fill-rule:evenodd;stroke-width:0.295003;stroke-linejoin:round;stroke-miterlimit:2" /><path
     d="m 24.131873,63.246186 c -0.05091,-0.158982 -0.169527,-0.28773 -0.326696,-0.347553 -0.154613,-0.0613 -0.330628,-0.04756 -0.473696,0.03504 -0.191757,0.11037 -0.39614,0.228371 -0.569866,0.328671 -0.252924,0.146026 -0.435106,0.385081 -0.510838,0.666914 -0.249379,0.925071 -0.799324,2.981558 -0.799324,2.981558 -0.141008,0.528673 -0.487051,0.979514 -0.962243,1.253866 l -3.489845,2.014863 c -0.988705,0.570829 -2.250921,0.231318 -2.82087,-0.755862 -0.569801,-0.986925 -0.232865,-2.250048 0.755839,-2.820876 0,0 1.59419,-0.920406 2.352963,-1.358484 0.252924,-0.146026 0.437661,-0.386556 0.513393,-0.668388 0.246824,-0.923596 0.799324,-2.981559 0.799324,-2.981559 0.141155,-0.528417 0.487051,-0.979514 0.962243,-1.253866 l 3.170496,-1.830487 c 0.189055,-0.109151 0.294882,-0.321155 0.270634,-0.540154 -0.325434,-2.823384 -0.203593,-5.63317 0.331064,-8.31204 0.0572,-0.284421 -0.115514,-0.565879 -0.397159,-0.640699 -0.802818,-0.216414 -2.365943,-0.634611 -3.127873,-0.839205 -0.281939,-0.07533 -0.582613,-0.03561 -0.835537,0.110417 -0.812424,0.469053 -2.598224,1.500084 -2.598224,1.500084 -0.475191,0.274352 -1.0388,0.348359 -1.567001,0.206394 L 10.561675,48.857473 C 9.461241,48.562175 8.806921,47.42886 9.101404,46.328208 c 0.294482,-1.100653 1.428809,-1.755557 2.529243,-1.46026 0,0 2.055648,0.551466 2.978771,0.799252 0.281939,0.07533 0.582613,0.03561 0.835537,-0.110417 0.812424,-0.469053 2.600778,-1.501559 2.600778,-1.501559 0.472636,-0.272877 1.038653,-0.348614 1.567001,-0.206394 0,0 0.686101,0.185355 1.289836,0.346049 0.185519,0.04993 0.384273,-0.0011 0.522214,-0.133905 0.140497,-0.134256 0.198025,-0.329616 0.157375,-0.518025 -0.975181,-4.703983 0.455795,-9.78341 3.842828,-13.651959 0.126195,-0.141328 0.171929,-0.339416 0.117914,-0.521472 -0.05416,-0.182312 -0.199907,-0.322649 -0.382133,-0.372773 -1.428472,-0.385572 -4.107118,-1.101597 -4.107118,-1.101597 -1.100434,-0.295298 -1.754754,-1.428613 -1.460272,-2.529266 0.297184,-1.101872 1.428957,-1.755301 2.529244,-1.460259 0,0 5.451158,1.45893 7.196362,1.926996 0.141044,0.03779 0.290029,0.01854 0.417769,-0.05521 0.125185,-0.07228 0.21635,-0.191676 0.254142,-0.332719 0.4698,-1.7469 1.929353,-7.195732 1.929353,-7.195732 0.29463,-1.100397 1.428957,-1.755301 2.529244,-1.460259 1.100434,0.295297 1.754754,1.428612 1.460272,2.529265 0,0 -0.719227,2.677789 -1.100581,4.105879 -0.04996,0.184861 -7.11e-4,0.38227 0.130537,0.521098 0.133803,0.137353 0.32596,0.198776 0.514152,0.158933 5.042452,-1.001282 10.156852,0.29917 13.74755,3.491721 0.139697,0.129862 0.337205,0.176955 0.520872,0.123373 0.183815,-0.05333 0.327698,-0.199416 0.375108,-0.382802 0.166585,-0.602371 0.351668,-1.290705 0.351668,-1.290705 0.141008,-0.528673 0.48705,-0.979514 0.95969,-1.252391 0,0 1.78835,-1.032507 2.60078,-1.50156 0.25292,-0.146026 0.43766,-0.386556 0.51339,-0.668388 0.24697,-0.923341 0.79721,-2.979317 0.79721,-2.979317 0.29704,-1.102128 1.42881,-1.755557 2.52924,-1.460259 1.10299,0.293822 1.75731,1.427137 1.46028,2.529265 l -1.13597,4.245192 c -0.14371,0.529893 -0.48961,0.98099 -0.96224,1.253866 0,0 -2.99677,1.730187 -2.99677,1.730187 0,0 -0.66347,2.479363 -0.95471,3.567926 -0.0759,0.281577 0.0815,0.571885 0.35643,0.664555 2.58985,0.874933 5.08156,2.175784 7.36652,3.867836 0.17483,0.131718 0.41135,0.146071 0.60296,0.03544 0.856,-0.493873 3.16809,-1.828757 3.16809,-1.828757 0.47519,-0.274351 1.0388,-0.348358 1.567,-0.206393 0,0 2.0585,0.550503 2.98177,0.798544 0.28193,0.07533 0.58261,0.03561 0.83553,-0.110417 0.75878,-0.438078 2.35552,-1.359959 2.35552,-1.359959 0.98615,-0.569354 2.25107,-0.231062 2.82087,0.755863 0.56995,0.98718 0.23031,2.251522 -0.75584,2.820876 l -3.4924,2.016338 c -0.47264,0.272877 -1.0361,0.347139 -1.567,0.206393 0,0 -2.05594,-0.551977 -2.97921,-0.800019 -0.28194,-0.07533 -0.58262,-0.03561 -0.83554,0.110417 l -0.56972,0.328928 c -0.14307,0.0826 -0.24297,0.228165 -0.26719,0.392713 -0.0266,0.166279 0.0256,0.333377 0.14034,0.455483 1.38624,1.516022 2.63562,3.213925 3.71342,5.080727 1.87151,3.241547 3.03965,6.674924 3.54817,10.104539 0.0331,0.216619 0.1905,0.394849 0.40349,0.451056 1.02431,0.275548 3.94249,1.058348 3.94249,1.058348 0.5309,0.140745 0.97995,0.487826 1.25386,0.962255 0,0 1.06482,1.84432 1.54317,2.672846 0.14588,0.252671 0.38791,0.435867 0.66744,0.512928 0.84955,0.226561 2.62714,0.703521 2.62714,0.703521 1.10299,0.293823 1.75731,1.427138 1.46027,2.529266 -0.29463,1.100397 -1.4264,1.753826 -2.52924,1.460259 l -3.89295,-1.043346 c -0.52835,-0.14222 -0.9801,-0.488082 -1.25387,-0.962255 0,0 -1.06496,-1.844576 -1.54316,-2.672846 -0.14588,-0.252671 -0.38535,-0.437342 -0.66744,-0.512928 -0.30268,-0.08175 -0.71298,-0.190615 -1.05566,-0.282653 -0.1612,-0.04319 -0.33318,-0.01067 -0.46725,0.08752 -0.13407,0.09818 -0.21564,0.251901 -0.22448,0.419491 -0.40612,8.105341 -4.47488,15.578035 -11.53888,19.656436 -7.06655,4.079877 -15.572473,3.867181 -22.794668,0.16673 -0.146708,-0.0771 -0.323023,-0.08159 -0.475236,-0.01483 -0.152066,0.06702 -0.266224,0.199691 -0.309562,0.360628 -0.09208,0.342024 -0.20295,0.751789 -0.28349,1.054792 -0.07558,0.282087 -0.03539,0.581809 0.110491,0.83448 0.478202,0.828271 1.543168,2.672846 1.543168,2.672846 0.273764,0.474173 0.347411,1.038336 0.206404,1.56701 l -1.04291,3.893064 c -0.29463,1.100397 -1.428957,1.755302 -2.529244,1.46026 -1.100434,-0.295298 -1.754754,-1.428613 -1.460272,-2.529266 0,0 0.475736,-1.777918 0.704305,-2.626933 0.07558,-0.282088 0.03539,-0.58181 -0.110491,-0.834481 -0.47835,-0.828526 -1.543168,-2.672845 -1.543168,-2.672845 -0.273912,-0.474429 -0.347411,-1.038337 -0.206404,-1.56701 0,0 0.781163,-2.918614 1.05739,-3.944686 0.05512,-0.211339 -0.01798,-0.438244 -0.191586,-0.573737 -2.715869,-2.155207 -5.105193,-4.883529 -6.976702,-8.125077 -1.077798,-1.866802 -1.92353,-3.797756 -2.540772,-5.757755 z m 4.147279,-13.714641 c -0.437712,0.07967 -0.78448,0.417153 -0.874314,0.851559 -1.09085,5.32044 -0.220728,11.246666 2.844516,16.555824 5.53561,9.587959 16.429275,14.013045 25.600856,10.776668 0.30365,-0.11127 0.54328,-0.35113 0.65133,-0.65367 0.11062,-0.304015 0.0824,-0.641991 -0.0791,-0.921743 C 53.52796,71.11498 41.578803,50.418437 38.874203,45.733931 38.572856,45.211983 37.906166,45.03075 37.381596,45.325775 c -3.632978,2.050152 -6.80811,3.677909 -9.102424,4.20577 z M 52.20636,36.057125 c -0.42412,-0.138696 -0.88978,-0.0071 -1.17989,0.334094 -1.597267,1.723374 -4.594069,3.660008 -8.185451,5.782205 -0.517638,0.307034 -0.691475,0.973545 -0.390276,1.495238 2.704158,4.68374 14.653897,25.381305 17.553497,30.403557 0.1624,0.281285 0.43917,0.477463 0.76076,0.532968 0.31918,0.05723 0.64702,-0.02985 0.89746,-0.239164 C 69.04583,68.038264 70.66043,56.39153 65.12481,46.80357 62.05854,41.492624 57.3606,37.774685 52.20636,36.057125 Z m -26.068688,4.024531 c -0.166113,-0.06352 -0.354163,-0.04113 -0.500813,0.05887 -0.14665,0.1 -0.235048,0.265489 -0.237546,0.444065 -0.0017,1.466103 0.30129,2.923165 0.934704,4.291671 0.219559,0.462889 0.733002,0.709094 1.232324,0.594538 0.1479,-0.03293 0.288378,-0.07282 0.419273,-0.111602 2.513012,-0.750869 6.049511,-2.856027 10.068199,-5.176217 4.016132,-2.318716 7.605142,-4.332922 9.511477,-6.134586 0.09889,-0.09422 0.203818,-0.195682 0.309432,-0.307754 0.349017,-0.374892 0.391633,-0.944183 0.0998,-1.367048 -0.869681,-1.229031 -1.978546,-2.217436 -3.245804,-2.949181 -0.155752,-0.08687 -0.343419,-0.09332 -0.505899,-0.01484 -0.159778,0.07726 -0.27334,0.228666 -0.301391,0.404282 -0.180172,1.133442 -0.853245,2.18016 -1.923703,2.798189 -1.885436,1.088557 -4.302587,0.441953 -5.391596,-1.444266 -0.406811,-0.704618 -0.570551,-1.483828 -0.519396,-2.23893 0.01788,-0.175533 -0.05328,-0.345987 -0.186831,-0.459301 -0.133697,-0.11357 -0.311793,-0.15654 -0.483424,-0.111611 -1.153854,0.296581 -2.294877,0.762888 -3.385773,1.392717 -1.09345,0.631305 -2.065241,1.384831 -2.908992,2.230326 -0.124135,0.127194 -0.179899,0.307909 -0.146919,0.483034 0.03283,0.174869 0.14664,0.324788 0.308777,0.399115 0.684376,0.32397 1.277322,0.855379 1.684133,1.559996 1.089009,1.886219 0.44041,4.302836 -1.445027,5.391393 -1.070457,0.618029 -2.310924,0.676092 -3.385007,0.267136 z M 60.9043,58.633144 c 1.88799,-1.090032 4.30258,-0.441952 5.39159,1.444267 1.08901,1.886219 0.44297,4.30136 -1.44502,5.391392 -1.88544,1.088557 -4.30259,0.441952 -5.3916,-1.444266 -1.08901,-1.886219 -0.44041,-4.302835 1.44503,-5.391393 z M 52.67554,39.689996 c 1.88544,-1.088557 4.30244,-0.442208 5.3916,1.444267 1.08901,1.886218 0.44026,4.302579 -1.44517,5.391136 -1.88544,1.088558 -4.30244,0.442208 -5.39145,-1.444011 -1.089158,-1.886474 -0.44041,-4.302835 1.44502,-5.391392 z m -0.0246,11.373936 c 1.88544,-1.088558 4.30244,-0.442208 5.3916,1.444266 1.08901,1.886219 0.44026,4.30258 -1.44517,5.391137 -1.88544,1.088557 -4.30244,0.442208 -5.39145,-1.444011 -1.089158,-1.886474 -0.44041,-4.302835 1.44502,-5.391392 z m -22.337469,1.536824 c 1.887991,-1.090032 4.30244,-0.442208 5.391596,1.444266 1.089009,1.886219 0.442817,4.301105 -1.445174,5.391137 -1.885436,1.088557 -4.302439,0.442208 -5.391448,-1.444011 -1.089157,-1.886474 -0.44041,-4.302835 1.445026,-5.391392 z m 12.290871,16.597883 c 1.885436,-1.088557 4.302587,-0.441952 5.391596,1.444266 1.089009,1.886219 0.440409,4.302835 -1.445027,5.391393 -1.885436,1.088557 -4.302587,0.441952 -5.391596,-1.444267 -1.089008,-1.886218 -0.440409,-4.302835 1.445027,-5.391392 z M 40.175879,58.266404 c 1.885436,-1.088557 4.30244,-0.442208 5.391596,1.444266 1.089009,1.886219 0.440262,4.30258 -1.445174,5.391137 -1.885437,1.088557 -4.30244,0.442208 -5.391449,-1.444011 -1.089156,-1.886474 -0.440409,-4.302835 1.445027,-5.391392 z"
     id="Ladybug"
     style="clip-rule:evenodd;display:inline;fill:#f04257;fill-opacity:1;fill-rule:evenodd;stroke-width:0.295003;stroke-linejoin:round;stroke-miterlimit:2" /><path
     d="m 42.679874,77.979013 c -0.22156,-0.20557 -0.518339,-0.31014 -0.819754,-0.28941 -0.301676,0.0209 -0.581137,0.16519 -0.772381,0.39917 -1.969119,2.37614 -5.302863,4.59825 -10.532174,3.75485 -2.985729,-0.48149 -5.172046,-1.70591 -6.740201,-3.39248 -2.265664,-2.43626 -3.247229,-5.92114 -3.233893,-9.83396 0.01444,-4.17404 2.076451,-12.0728 5.475306,-18.68386 0.847125,-1.64796 1.780283,-3.21239 2.781621,-4.62747 0.165537,-0.23012 0.218826,-0.5225 0.145152,-0.79643 -0.07393,-0.27377 -0.266849,-0.49996 -0.525591,-0.61594 4.7e-4,-9.6e-4 7.3e-5,-0.001 7.3e-5,-0.001 -1.386861,-0.62148 -2.657924,-1.72267 -3.690735,-3.51154 -2.272714,-3.93646 -1.917013,-8.67406 0.520513,-12.175292 0.10396,-0.146208 0.12969,-0.334105 0.06908,-0.502812 -0.06076,-0.168964 -0.200492,-0.297103 -0.373918,-0.343792 -1.478,-0.398196 -4.533404,-1.216903 -4.533404,-1.216903 -1.100946,-0.295003 -1.755266,-1.428318 -1.460272,-2.529265 0.294737,-1.100801 1.428042,-1.755115 2.528989,-1.460112 0,0 4.754522,1.274207 6.371941,1.707384 0.141037,0.03779 0.291051,0.01795 0.417513,-0.05506 0.126206,-0.07286 0.218388,-0.192863 0.256186,-0.3339 0.433566,-1.617314 1.707331,-6.371955 1.707331,-6.371955 0.294993,-1.100948 1.428299,-1.755262 2.529244,-1.460259 1.100689,0.295149 1.755009,1.428464 1.460272,2.529265 0,0 -0.818937,3.055559 -1.215104,4.534102 -0.04665,0.174087 -0.0048,0.359784 0.111403,0.497399 0.116093,0.137359 0.292489,0.209243 0.471491,0.19242 4.251054,-0.362467 8.531534,1.698436 10.804248,5.634892 1.032811,1.788881 1.350937,3.440248 1.195725,4.952048 0,0 1.43e-4,2.4e-4 -1.18e-4,3.9e-4 -0.02878,0.28233 0.07053,0.56291 0.271067,0.76392 0.200391,0.20077 0.48039,0.30106 0.762857,0.27287 1.726231,-0.1607 3.547641,-0.18663 5.398381,-0.0963 7.42477,0.36204 15.296308,2.52566 18.918358,4.60018 3.39526,1.94485 5.92273,4.53721 6.89976,7.71745 0.67627,2.2015 0.64376,4.70697 -0.43238,7.53358 -1.88425,4.95042 -5.47527,6.72633 -8.51792,7.24305 -0.29857,0.0487 -0.56324,0.21862 -0.73218,0.46938 -0.16892,0.25082 -0.2266,0.56038 -0.15921,0.85529 1.16562,5.3489 -0.62081,11.00859 -4.75047,14.71012 -0.49012,0.43081 -0.60768,1.1476 -0.2814,1.71272 0.75803,1.32416 2.00796,3.4891 2.00796,3.4891 0.5698,0.98692 0.23108,2.25108 -0.75583,2.82088 -0.98718,0.56994 -2.25107,0.23106 -2.82087,-0.75587 l -2.012818,-3.48629 c -0.3276,-0.56742 -1.00996,-0.82477 -1.63085,-0.61516 -5.26866,1.73107 -11.063316,0.44832 -15.11304,-3.23544 z m 0.11391,-31.12719 c -0.353652,-0.27919 -0.841599,-0.31426 -1.23146,-0.0892 -0.390118,0.22524 -0.60346,0.6652 -0.5385,1.11107 0.128272,0.88416 0.248835,1.76086 0.363002,2.63239 0.0474,0.36471 0.273774,0.68128 0.603523,0.84414 0.329497,0.16301 0.718768,0.15049 1.037351,-0.0334 0.555412,-0.32067 1.190278,-0.68721 1.745945,-1.00803 0.318327,-0.18378 0.523809,-0.51464 0.547641,-0.88164 0.02358,-0.36686 -0.137392,-0.72119 -0.429544,-0.94459 -0.697683,-0.53464 -1.396394,-1.07755 -2.097962,-1.63072 z m -0.0788,9.4145 c -0.374787,0.21639 -0.587976,0.63243 -0.544418,1.06306 0.05888,0.58461 0.115827,1.16999 0.171428,1.75718 0.03547,0.37296 0.257838,0.70206 0.590785,0.87399 0.332789,0.17166 0.73005,0.16236 1.054254,-0.0248 2.049964,-1.18355 5.721199,-3.30314 7.770909,-4.48654 0.3242,-0.18718 0.53115,-0.52671 0.54862,-0.9006 0.0176,-0.37429 -0.15599,-0.73157 -0.4615,-0.94863 -0.48072,-0.34174 -0.95921,-0.68375 -1.43605,-1.02705 -0.35116,-0.25304 -0.81805,-0.27643 -1.19284,-0.0601 -1.44806,0.83604 -5.053125,2.91743 -6.501181,3.75346 z m 0.773597,8.72617 c -0.36789,0.2124 -0.580543,0.61757 -0.54653,1.04111 0.04748,0.58846 0.09459,1.18158 0.141854,1.77971 0.0296,0.37636 0.250451,0.71109 0.584538,0.88678 0.334232,0.17594 0.735013,0.16801 1.062026,-0.0208 3.267063,-1.88624 10.960823,-6.32823 14.227893,-8.21447 0.32701,-0.1888 0.53427,-0.53192 0.54902,-0.90934 0.0152,-0.37733 -0.16457,-0.73582 -0.47545,-0.94977 -0.49461,-0.33986 -0.98446,-0.67736 -1.4706,-1.01256 -0.34953,-0.24137 -0.807,-0.25964 -1.17489,-0.0472 -2.31004,1.3337 -10.587823,6.11288 -12.897865,7.44658 z m 1.993765,8.0217 c -0.2984,0.17228 -0.499002,0.47442 -0.541641,0.81653 -0.04264,0.34209 0.07729,0.68435 0.324326,0.9246 3.522651,3.34255 8.958331,4.13629 13.374801,1.58644 4.416218,-2.5497 6.446908,-7.65416 5.303998,-12.37371 -0.0838,-0.33107 -0.31803,-0.60395 -0.6329,-0.73691 -0.31487,-0.13297 -0.67369,-0.11076 -0.96979,0.0602 -3.443508,1.97772 -13.419718,7.73748 -16.858719,9.72299 z M 31.135684,28.703185 c -3.311776,1.912055 -4.448233,6.153448 -2.536162,9.465248 1.828289,3.16668 4.888038,1.92201 8.054958,0.0936 3.166665,-1.82828 5.774465,-3.85576 3.946176,-7.022447 -1.912071,-3.311804 -6.153196,-4.448446 -9.464972,-2.536391 z m 5.325852,16.677568 c -0.06436,-0.39409 -0.337157,-0.72201 -0.712802,-0.85701 -0.375559,-0.13541 -0.794938,-0.0564 -1.095713,0.20612 -1.846143,1.77849 -3.498055,4.31996 -4.923211,7.09193 -3.06239,5.9566 -5.005234,13.04872 -5.018186,16.80939 -0.01553,4.49489 1.546091,8.33605 6.501533,9.1352 3.812773,0.61479 6.153059,-1.71674 7.307792,-3.38356 0.538881,-0.77882 0.792726,-1.71975 0.718594,-2.66413 -0.733776,-9.46314 -1.316327,-17.36693 -2.778007,-26.33794 z m 6.798412,-5.60749 c -0.374005,0.12806 -0.649258,0.4484 -0.719342,0.83737 -0.06984,0.38879 0.07621,0.78512 0.381867,1.03546 7.031509,5.7597 13.585119,10.2161 21.408937,15.58989 0.7823,0.53723 1.72599,0.7888 2.6719,0.71141 2.0201,-0.17504 5.2094,-1.03603 6.58336,-4.64537 1.78564,-4.69112 -0.7601,-7.9641 -4.66029,-10.19823 -3.26357,-1.86898 -10.376948,-3.73248 -17.066708,-4.05867 -3.11318,-0.15177 -6.140109,0.008 -8.599724,0.72814 z"
     id="Queen"
     style="clip-rule:evenodd;display:inline;fill:#f69d11;fill-opacity:1;fill-rule:evenodd;stroke-width:0.295003;stroke-linejoin:round;stroke-miterlimit:2" /><path
     d="m 31.511385,60.27173 c -0.0329,-0.2324 -0.21029,-0.41784 -0.44085,-0.4615 -0.2306,-0.0436 -0.46332,0.0648 -0.5787,0.2691 -0.67299,1.18905 -1.58237,2.80176 -2.05146,3.63362 -0.191,0.33884 -0.18896,0.75359 0.005,1.09032 1.74569,3.02362 10.18163,17.6351 10.18163,17.6351 0.56995,0.98718 0.23133,2.25093 -0.75584,2.82088 -0.98692,0.56979 -2.25092,0.23132 -2.82087,-0.75587 L 23.965645,65.30422 c -0.36506,-0.63232 -0.368817,-1.41055 -0.0102,-2.04679 0,0 3.33377,-5.91196 5.14642,-9.12668 0.12517,-0.22216 0.0815,-0.50144 -0.1059,-0.67431 -0.18733,-0.17286 -0.46898,-0.19454 -0.68034,-0.0521 -1.84133,1.23989 -4.46022,3.0033 -5.323267,3.5847 -0.187385,0.1262 -0.331524,0.30724 -0.4127,0.51828 -0.621706,1.62068 -3.361169,8.76259 -3.361169,8.76259 -0.408224,1.06413 -1.603687,1.59662 -2.667814,1.18839 -1.06413,-0.40823 -1.596473,-1.60345 -1.188249,-2.66758 l 3.719186,-9.69419 c 0.15199,-0.39638 0.422237,-0.73601 0.774246,-0.97297 0,0 2.055729,-1.38478 3.644239,-2.45486 0.209218,-0.14088 0.295758,-0.4058 0.210118,-0.64318 -0.08577,-0.23696 -0.321662,-0.38554 -0.572483,-0.36029 -2.081608,0.20953 -5.02238,0.50564 -5.847794,0.58875 -0.147138,0.0148 -0.289865,0.059 -0.41934,0.13037 -0.96561,0.53059 -5.16201,2.8362 -5.16201,2.8362 C 10.709576,54.7694 9.453209,54.40403 8.904504,53.40526 8.355393,52.40639 8.721013,51.14987 9.719621,50.60092 l 5.727275,-3.14689 c 0.243356,-0.13369 0.511416,-0.21692 0.787554,-0.24485 0,0 4.579532,-0.46083 7.371601,-0.74194 0.249064,-0.0252 0.449904,-0.21547 0.488324,-0.46282 0.0383,-0.2476 -0.0953,-0.48964 -0.32519,-0.58925 -2.430081,-1.05131 -6.276618,-2.71519 -6.276618,-2.71519 -0.411823,-0.17816 -0.75422,-0.48565 -0.975618,-0.8756 l -5.484365,-9.6574 c -0.562873,-0.99092 -0.215302,-2.25269 0.775742,-2.81533 0.990864,-0.56296 2.252664,-0.2153 2.815468,0.77601 0,0 4.047183,7.12673 4.961206,8.73586 0.117745,0.20794 0.300436,0.37157 0.51966,0.46642 1.096504,0.47436 4.615765,1.99676 6.883685,2.97785 0.22375,0.0967 0.48397,0.0346 0.64022,-0.15195 0.1561,-0.18687 0.17087,-0.45394 0.0363,-0.65694 -0.16428,-0.24375 -0.32133,-0.49576 -0.47134,-0.75558 -1.25495,-2.17364 -1.8015,-4.50385 -1.72691,-6.68274 0.007,-0.15071 -0.0482,-0.29781 -0.153,-0.40661 -0.10501,-0.10868 -0.25032,-0.16922 -0.40113,-0.1673 -0.49945,0.0111 -0.99233,-0.17888 -1.375612,-0.5377 l -5.214787,-4.883959 c -0.83171,-0.779165 -0.874523,-2.087038 -0.09552,-2.918994 0.779156,-0.831703 2.087028,-0.874523 2.918989,-0.0955 0,0 2.365265,2.21524 3.501295,3.279596 0.35358,0.331005 0.88234,0.391918 1.30208,0.149578 1.27485,-0.736035 6.38213,-3.684725 7.65646,-4.42046 0.41925,-0.24205 0.63102,-0.730166 0.52115,-1.201883 -0.35283,-1.51619 -1.08741,-4.673591 -1.08741,-4.673591 -0.25893,-1.10986 0.43208,-2.221095 1.5422,-2.480162 1.11,-0.258659 2.22098,0.432504 2.4799,1.542374 l 1.62224,6.95811 c 0.11911,0.511344 0.0374,1.03302 -0.20491,1.469975 -0.0744,0.12539 -0.0937,0.275508 -0.0534,0.415433 0.0403,0.139925 0.13577,0.257149 0.26557,0.323574 1.91492,1.042851 3.659661,2.681289 4.914611,4.854919 0.15001,0.25983 0.28974,0.52184 0.41964,0.78544 0.10832,0.21781 0.346639,0.33842 0.586129,0.29656 0.23922,-0.0417 0.42262,-0.23616 0.45056,-0.47747 0.28537,-2.45455 0.72656,-6.26353 0.86402,-7.450315 0.0275,-0.237303 -0.0231,-0.477187 -0.14386,-0.683388 -0.9368,-1.595984 -5.08513,-8.664311 -5.08513,-8.664311 -0.57688,-0.98318 -0.24725,-2.24958 0.73569,-2.826278 0.983021,-0.577133 2.249311,-0.247079 2.82627,0.735714 l 5.62137,9.578301 c 0.2268,0.386832 0.32186,0.837121 0.27023,1.282853 0,0 -0.4823,4.163134 -0.78687,6.793304 -0.0287,0.24887 0.11413,0.4856 0.34797,0.5761 0.23342,0.0904 0.49856,0.0116 0.64497,-0.19149 1.63949,-2.277449 4.32808,-6.012878 4.32808,-6.012878 0.16252,-0.225321 0.36838,-0.415707 0.60583,-0.559613 l 5.58892,-3.386525 c 0.97497,-0.590485 2.24569,-0.278716 2.83644,0.696112 0.59062,0.97457 0.27859,2.245451 -0.69597,2.836051 0,0 -4.09492,2.481389 -5.03724,3.052338 -0.12674,0.07664 -0.23646,0.178079 -0.32281,0.298121 -0.4847,0.673281 -2.21126,3.071854 -3.43378,4.769964 -0.14724,0.20457 -0.1366,0.48321 0.026,0.6758 0.16248,0.19301 0.43546,0.25035 0.66184,0.13975 1.72096,-0.84065 3.94809,-1.92857 3.94809,-1.92857 0.38121,-0.18636 0.81071,-0.25074 1.22998,-0.18418 l 10.25475,1.62633 c 1.12567,0.17853 1.8946,1.23717 1.71608,2.36284 -0.17852,1.12568 -1.23715,1.8946 -2.36283,1.71607 0,0 -7.55397,-1.19765 -9.26797,-1.46947 -0.22324,-0.0356 -0.45207,-0.001 -0.65509,0.0979 -0.93498,0.45678 -3.77191,1.84253 -5.76676,2.81711 -0.22907,0.11181 -0.35136,0.36671 -0.29507,0.61524 0.0562,0.24893 0.27573,0.42638 0.53076,0.42902 3.69062,0.0374 10.47675,0.10631 10.47675,0.10631 0.73027,0.008 1.40212,0.4001 1.76718,1.03241 l 11.08464,19.19915 c 0.56995,0.98719 0.23134,2.25094 -0.75584,2.82089 -0.9869,0.56979 -2.25091,0.23131 -2.82086,-0.75588 0,0 -8.43594,-14.61147 -10.18163,-17.63509 -0.19441,-0.33673 -0.55233,-0.546 -0.94152,-0.54988 -0.95496,-0.01 -2.8063,-0.0285 -4.1724,-0.0423 -0.23541,-0.002 -0.44629,0.14566 -0.52445,0.3678 -0.078,0.2225 -0.005,0.46978 0.18007,0.61514 2.209,1.77645 4.1835,4.04765 5.74761,6.75677 5.76189,9.97988 3.59247,21.80965 -4.46509,26.46168 -8.05781,4.65218 -19.3874,0.61607 -25.14929,-9.36381 -1.56411,-2.70912 -2.54377,-5.55469 -2.97969,-8.35586 z m 0.33205,-30.42605 c -2.67154,1.54241 -2.98316,5.52389 -1.07286,8.83263 1.91045,3.30899 5.51432,5.02986 8.18586,3.48744 2.671546,-1.54242 2.982896,-5.52374 1.07245,-8.83273 -1.9103,-3.30874 -5.5139,-5.029762 -8.18545,-3.48734 z m 9.17803,15.89681 c -5.25852,3.03601 -6.93834,10.03147 -4.74499,16.80292 0.10361,0.31285 0.34248,0.56258 0.65062,0.67967 0.3081,0.11712 0.65244,0.0893 0.93781,-0.0755 3.796626,-2.18736 16.016975,-9.24278 19.811865,-11.43376 0.28638,-0.16535 0.48321,-0.45101 0.53592,-0.77746 0.0527,-0.32644 -0.0442,-0.6595 -0.26417,-0.90654 -4.77047,-5.28258 -11.66888,-7.3254 -16.927145,-4.28954 z m -1.36384,21.14588 c -0.26969,0.15535 -0.46025,0.41765 -0.52567,0.72145 -0.0653,0.30407 9.8e-4,0.6218 0.18278,0.87416 4.739906,6.47573 12.488305,9.26331 18.260605,5.93067 5.77229,-3.33263 7.23237,-11.43674 3.99057,-18.77807 -0.1273,-0.28249 -0.36832,-0.49794 -0.663,-0.59317 -0.29517,-0.0953 -0.61638,-0.0611 -0.8849,0.094 -3.74376,2.158 -16.618119,9.59101 -20.360115,11.75146 z"
     id="Spider"
     style="clip-rule:evenodd;display:inline;fill:#d66138;fill-opacity:1;fill-rule:evenodd;stroke:none;stroke-width:0.295003;stroke-linejoin:round;stroke-miterlimit:2;stroke-opacity:1" /><path
     d="m 32.224596,65.277457 c -0.07286,-0.12622 -0.193989,-0.21809 -0.334921,-0.25561 -0.141097,-0.0378 -0.290029,-0.0185 -0.415214,0.0538 -1.088339,0.62835 -3.737655,2.15794 -4.741686,2.73761 -0.252933,0.14604 -0.437664,0.38657 -0.513398,0.6684 -0.471561,1.76154 -2.200573,8.21277 -2.200573,8.21277 -0.294477,1.10066 -1.42881,1.75557 -2.529246,1.46026 -1.100283,-0.29504 -1.754601,-1.42835 -1.460124,-2.52901 l 2.541734,-9.48038 c 0.141006,-0.52867 0.487055,-0.97952 0.962245,-1.25387 l 5.876018,-3.39252 c 0.125185,-0.0723 0.216224,-0.19189 0.254141,-0.33271 0.03781,-0.1411 0.01896,-0.29165 -0.05404,-0.41811 -0.102212,-0.17705 -0.212696,-0.36841 -0.292496,-0.50662 -0.07302,-0.12647 -0.193994,-0.21809 -0.335069,-0.25586 -1.620716,-0.43536 -11.663017,-3.12622 -11.663017,-3.12622 -0.528348,-0.14223 -0.979961,-0.48783 -1.253872,-0.96226 L 9.1799703,43.971777 c -0.569801,-0.98693 -0.23286,-2.25006 0.755844,-2.8209 0.9861497,-0.56935 2.2510627,-0.23105 2.8208637,0.75587 0,0 5.08322,8.80441 6.229607,10.79001 0.145882,0.25267 0.385507,0.4376 0.667447,0.51293 1.051034,0.28054 3.732335,1.00117 5.347115,1.43213 0.214023,0.058 0.441867,-0.0194 0.578212,-0.19622 0.133659,-0.1756 0.150872,-0.41717 0.03965,-0.60982 -0.507551,-0.8791 -1.120867,-1.9414 -1.120867,-1.9414 -0.570245,-0.98769 -0.23286,-2.25005 0.755844,-2.82087 l 0.431759,-0.24928 c 0.52629,-0.30385 0.706762,-0.97658 0.403052,-1.50262 -1.759255,-3.04713 -7.134237,-12.356881 -7.134237,-12.356881 -2.690292,-4.659724 -2.362425,-10.239674 0.377615,-14.467742 0.390958,-0.603152 1.067394,-0.959629 1.786421,-0.941463 0.719018,0.01817 1.376975,0.408489 1.736439,1.031098 l 6.879651,11.915905 c 0.905664,1.568656 2.913254,2.107672 4.481889,1.20202 1.568644,-0.905658 2.108191,-2.915263 1.202528,-4.483919 L 28.539146,17.304666 c -0.359463,-0.622609 -0.368509,-1.387577 -0.02729,-2.017876 0.343772,-0.631774 0.990709,-1.039346 1.708533,-1.076349 5.031643,-0.258914 10.030509,2.245645 12.720801,6.905368 l 7.13423,12.356864 c 0.30371,0.526041 0.97655,0.706109 1.50028,0.403736 0.24271,-0.140129 0.43432,-0.250756 0.43432,-0.250756 0.98615,-0.569349 2.25062,-0.23183 2.82087,0.755864 l 1.12087,1.941398 c 0.11122,0.192641 0.32648,0.299988 0.54794,0.270575 0.21874,-0.02824 0.39971,-0.18682 0.45903,-0.402643 0.431623,-1.612444 1.150743,-4.296306 1.430753,-5.345335 0.0757,-0.281831 0.0379,-0.583283 -0.10791,-0.835959 -1.14639,-1.9856 -6.229613,-10.789994 -6.229613,-10.789994 -0.5698,-0.986925 -0.23287,-2.250045 0.75584,-2.820873 0.98615,-0.569355 2.25107,-0.231065 2.82087,0.755859 l 6.885113,11.925357 c 0.27391,0.474427 0.34741,1.038336 0.20641,1.567006 0,0 -2.69079,10.042309 -3.12668,11.665069 -0.0378,0.14109 -0.0164,0.29018 0.0566,0.41663 0.0799,0.13822 0.19028,0.32957 0.29251,0.50662 0.073,0.12647 0.19151,0.21951 0.3325,0.25733 0.14094,0.0375 0.29259,0.017 0.41777,-0.0552 1.47668,-0.85255 5.87603,-3.39253 5.87603,-3.39253 0.4752,-0.27435 1.03865,-0.34861 1.56699,-0.20639 l 9.47858,2.54048 c 1.10043,0.2953 1.75474,1.4286 1.46012,2.52901 -0.29448,1.10065 -1.4288,1.75555 -2.52924,1.46026 0,0 -6.45144,-1.72826 -8.21277,-2.20065 -0.28194,-0.0754 -0.58261,-0.0356 -0.83554,0.11042 l -4.73914,2.73614 c -0.12518,0.0723 -0.21889,0.19318 -0.25669,0.33419 -0.038,0.14081 -0.0164,0.29017 0.0564,0.41638 0.10219,0.17705 0.21269,0.36841 0.29264,0.50687 0.0728,0.12621 0.19151,0.21952 0.33237,0.25708 1.62342,0.43413 11.66573,3.12501 11.66573,3.12501 0.52818,0.14197 0.97995,0.48783 1.25371,0.962 l 6.88511,11.92535 c 0.56994,0.98718 0.23031,2.25154 -0.75584,2.82089 -0.98871,0.57083 -2.25092,0.23131 -2.82088,-0.75588 0,0 -5.08306,-8.80413 -6.2296,-10.79 -0.14588,-0.25266 -0.3879,-0.43586 -0.66984,-0.51119 -1.56833,-0.42132 -6.79845,-1.82189 -6.79845,-1.82189 3.44264,8.03373 0.40674,17.56678 -7.34962,22.04492 -7.434453,4.29227 -16.726476,2.50559 -22.093709,-3.8171 -0.131567,-0.15704 -0.339481,-0.2281 -0.539072,-0.18439 -0.199581,0.0437 -0.360071,0.19644 -0.412897,0.39405 -0.433232,1.60963 -1.23908,4.62119 -1.542001,5.74851 -0.07573,0.28183 -0.03554,0.58155 0.11034,0.83422 1.146387,1.9856 6.229608,10.79 6.229608,10.79 0.569949,0.98717 0.230313,2.25153 -0.755839,2.82088 -0.988704,0.57084 -2.250921,0.23131 -2.820869,-0.75587 L 29.65342,79.432777 c -0.273768,-0.47418 -0.34742,-1.03834 -0.206266,-1.56676 0,0 2.690791,-10.04232 3.123969,-11.66383 0.03797,-0.14081 0.01898,-0.29165 -0.05389,-0.41785 -0.07995,-0.13848 -0.190427,-0.32984 -0.292653,-0.50687 z m -2.559394,-20.02093 c 0.30371,0.52605 0.976535,0.70612 1.502823,0.40226 2.958444,-1.70806 11.969205,-6.91042 14.927655,-8.618487 0.52627,-0.303847 0.70675,-0.976572 0.40304,-1.502613 -1.75925,-3.047124 -7.134239,-12.356865 -7.134239,-12.356865 -0.881916,-1.527523 -2.117872,-2.724263 -3.543977,-3.548244 -0.211146,-0.117907 -0.477573,-0.07786 -0.646799,0.09513 -0.169235,0.17299 -0.203399,0.438317 -0.082,0.648578 1.365772,2.383187 3.903843,6.779254 3.903843,6.779254 2.045413,3.542761 0.829294,8.079832 -2.714195,10.125667 -3.540947,2.04436 -8.078215,0.82902 -10.123629,-2.713746 0,0 -2.500015,-4.330153 -3.911758,-6.775365 -0.12346,-0.213838 -0.37495,-0.319012 -0.615076,-0.257018 -0.237565,0.06051 -0.40713,0.274228 -0.411227,0.520836 0.0082,1.648684 0.429132,3.315693 1.311342,4.843726 z m 9.792087,1.6557 c -0.30371,-0.52604 -0.976692,-0.70637 -1.502981,-0.40252 -1.872657,1.08118 -6.021647,3.4766 -7.894304,4.55778 -0.252923,0.14603 -0.437663,0.38656 -0.513397,0.6684 -0.07558,0.28208 -0.03538,0.5818 0.110502,0.83448 1.942012,3.36365 8.361309,14.4822 8.361309,14.4822 3.099613,5.36869 9.368112,7.77722 15.083172,6.2299 0.32505,-0.092 0.58998,-0.3292 0.71658,-0.64094 0.1264,-0.31209 0.10274,-0.66568 -0.0657,-0.95744 -2.59083,-4.49845 -11.925943,-20.66736 -14.295563,-24.77166 z m 17.877044,22.70389 c 0.16964,0.29381 0.46522,0.49309 0.80184,0.53923 0.33677,0.0464 0.67482,-0.0643 0.91936,-0.30154 4.1937,-4.18235 5.24212,-10.81531 2.14251,-16.18399 0,0 -6.419303,-11.11855 -8.361323,-14.48224 -0.3037,-0.52603 -0.97668,-0.70635 -1.50296,-0.40251 -1.87522,1.08266 -6.02164,3.47661 -7.89687,4.55927 -0.52628,0.30385 -0.70661,0.97683 -0.4029,1.50286 2.36962,4.10431 11.70475,20.27322 14.300343,24.76892 z"
     id="Beetle"
     style="clip-rule:evenodd;display:inline;fill:#ac5bb3;fill-opacity:1;fill-rule:evenodd;stroke-width:0.295003;stroke-linejoin:round;stroke-miterlimit:2" /></svg>
