<?xml version="1.0" encoding="UTF-8" standalone="no"?>
<svg
   width="88.337"
   height="100"
   version="1.1"
   id="svg1803"
   xml:space="preserve"
   xmlns="http://www.w3.org/2000/svg"
   xmlns:svg="http://www.w3.org/2000/svg">
  <defs id="defs1807" />
  <path
     id="white"
     d="M 0,0 A 6.9,6.9 0 0 1 3.592,1.708 7,7 0 0 1 4.934,3.379 C 5.26,3.951 16.695,23.351 17.008,24.321 a 6.85,6.85 0 0 1 0.105,3.877 7,7 0 0 1 -0.674,1.657 C 16.156,30.351 4.965,50.21 4.361,50.907 a 6.87,6.87 0 0 1 -5.197,2.385 c -0.607,0 -23.293,0.147 -24.033,0.032 a 6.88,6.88 0 0 1 -4.918,-3.376 c -0.324,-0.569 -11.76,-19.973 -12.072,-20.929 a 6.9,6.9 0 0 1 0.564,-5.557 c 0.285,-0.498 11.469,-20.347 12.078,-21.05 a 6.87,6.87 0 0 1 3.274,-2.1 6.8,6.8 0 0 1 1.916,-0.278 C -23.422,0.034 -0.73,-0.112 0,0"
     style="display:inline;fill:#f4f1e0;fill-opacity:1;fill-rule:nonzero;stroke:none"
     transform="matrix(1.42938,-0.83963,-0.82525,-1.45429,83.936,78.34)" />
</svg>
