<?xml version="1.0" encoding="UTF-8" standalone="no"?>
<svg
   width="88.337"
   height="100"
   version="1.1"
   id="svg1803"
   xml:space="preserve"
   xmlns="http://www.w3.org/2000/svg"
   xmlns:svg="http://www.w3.org/2000/svg"><defs
     id="defs1807" />
     <path id="Ant"
     d="m 53.490356,12.322448 c -0.359,-0.124 -0.858,0.087 -1.024,0.441 -0.01,0.022 -0.003,0.055 -0.01,0.077 -0.14,0.137 -0.288,0.284 -0.442,0.611 -0.453,0.954 -0.357,1.782 -0.345,2.729 0.01,1.14 -0.114,0.654 -0.26,3.096 -0.12,1.998 -0.023,2.195 -0.131,4.528 -0.077,1.67 -0.113,2.503 -0.21,3.199 -0.274,2.036 -0.66,2.818 -0.35,4.24 0.147,0.665 0.296,0.803 0.26,1.29 -0.007,0.122 -0.054,0.225 -0.076,0.334 -0.165,0.044 -0.33,0.13 -0.3,0.16 0.098,0.087 -0.625,1.205 -1.263,1.912 -0.098,0.11 -0.144,0.187 -0.214,0.278 -0.572,0.617 -0.792,0.88 -1.081,1.211 -0.179,0.18 -0.238,0.278 -0.533,0.532 -1.356,1.171 -2.106,1.682 -2.496,1.891 -0.316,0.167 -0.53,0.348 -0.736,0.504 a 4,4 0 0 1 -0.465,0.272 c -0.098,0.032 -0.197,0.065 -0.31,0.065 -0.11,0 -0.346,-0.087 -0.765,-0.379 -0.212,-0.233 -0.446,-0.565 -0.815,-1.002 -0.344,-0.41 -0.907,-1.061 -1.642,-1.653 -0.364,-0.29 -0.962,-0.766 -1.874,-1.11 -0.212,-0.076 -0.462,-0.17 -0.752,-0.243 -0.403,-0.163 -0.822,-0.31 -1.347,-0.266 -0.453,0.033 -0.758,0.185 -1.246,0.413 q -0.016,0.007 -0.033,0.022 c -0.11,0.044 -0.209,0.11 -0.316,0.17 -0.442,0.223 -0.854,0.47 -1.15,0.934 -0.247,0.387 -0.437,0.846 -0.344,0.912 0.009,0.006 0.043,-0.044 0.065,-0.044 -0.065,0.178 -0.134,0.287 -0.192,0.622 -0.022,0.154 -0.099,0.607 -0.033,1.257 0.055,0.54 0.15,0.694 0.486,1.907 0.004,0.022 0.116,0.45 0.34,1.308 0.333,1.27 0.351,1.293 0.396,1.41 -0.055,0.176 -0.113,0.53 -0.362,0.9 -0.088,0.13 -0.224,0.182 -0.334,0.266 -0.11,0.077 -0.3,0.2 -0.425,0.295 -0.256,0.11 -0.546,0.193 -0.917,0.334 -0.592,0.228 -0.171,0.136 -2.316,1.206 -1.735,0.87 -2.092,0.97 -2.405,1.047 a 5.8,5.8 0 0 1 -1.908,0.141 c -0.622,-0.066 -1.036,-0.227 -2.717,-1.03 -1.314,-0.63 -1.677,-0.828 -2.763,-1.353 -1.475,-0.712 -1.573,-0.735 -1.952,-0.928 -0.164,-0.077 -0.404,-0.208 -0.635,-0.323 -1.148997,-0.658 -1.303997,-0.925 -2.410997,-1.478 -0.29,-0.147 -0.349,-0.159 -2.157,-0.877 -1.109,-0.53 -1.437,-0.641 -2.496,-1.2 -0.6579997,-0.348 -1.3659997,-0.584 -2.0040002,-0.963 -0.534,-0.321 -1.017,-0.664 -1.534,-0.51 a 1,1 0 0 0 -0.249,0.125 c -0.033,0.009 -0.066,-0.007 -0.11,0.006 -0.316,0.11 -0.718,0.398 -0.73,0.765 -0.004,0.258 0.184,0.455 0.385,0.668 0.336,0.348 0.692,0.506 0.804,0.56 l 0.13,0.066 c 1.687,1.753 4.3860002,2.647 5.9270002,3.193 2.079,0.738 3.49,1.426 6.322997,2.813 0.087,0.044 0.076,0.044 0.152,0.088 0.113,0.066 0.148,0.11 0.311,0.198 0.077,0.044 0.252,0.11 0.311,0.136 3.073,1.586 3.582,2.18 4.93,2.327 2.705,0.295 5.129,-1.09 6.46,-2.067 0.516,-0.187 1.038,-0.364 1.545,-0.577 0.95,-0.393 1.301,-0.615 1.726,-0.452 0.38,0.139 0.603,0.49 0.85,0.877 0.242,0.383 0.43,0.673 0.35,0.963 -0.088,0.336 -0.488,0.468 -1.099,0.708 -0.65,0.254 -1.27,0.576 -1.919,0.827 -0.61,0.239 -1.577,0.625 -2.643,1.12 a 38,38 0 0 0 -1.857,0.935 c -0.955,0.51 -1.245,0.695 -1.42,0.815 -0.077,0.022 -0.128,0.066 -0.21,0.077 -0.174,0.021 -0.326,0.021 -0.493,0.135 -0.197,0.134 -0.346,0.391 -0.396,0.663 -0.088,0.088 -0.182,0.161 -0.261,0.26 -0.445,0.565 -0.397,0.882 -0.849,2.203 -0.34,0.989 -0.36,0.798 -0.9,2.236 -0.623,1.642 -0.496,1.635 -0.867,2.411 -0.584,1.225 -0.862,1.163 -1.353,2.287 -0.055,0.137 -0.055,0.185 -0.087,0.295 -0.334,0.656 -0.432,1.46 -0.946,2.592 -0.556,1.221 -0.93,1.31 -1.46,2.751 -0.162,0.444 -0.29,0.9 -0.329,1.178 -0.077,0.204 -0.098,0.32 -0.26,0.65 -0.244,0.491 -0.542,1.018 -0.658,1.818 -0.124,0.857 0.088,1.18 0.21,1.319 0.043,0.043 0.312,0.327 0.656,0.305 0.313,-0.022 0.556,-0.292 0.973,-1.042 a 14,14 0 0 0 0.781,-1.613 c 0.534,-1.314 0.727,-1.261 1.28,-2.525 0.452,-1.024 0.327,-1.063 0.86,-2.547 0.181,-0.51 0.247,-0.637 1.302,-3.08 0.758,-1.75 1.136,-2.631 1.375,-3.192 0.387,-0.911 0.795,-1.813 1.166,-2.728 l 0.006,-0.006 c 0.169,-0.356 0.333,-0.704 0.402,-1.014 0.153,-0.38 0.264,-0.62 0.436,-0.838 0.371,-0.46 1.028,-0.827 2.326,-1.545 0.55,-0.301 1.196,-0.66 2.112,-1.081 1.178,-0.545 1.081,-0.413 2.202,-0.935 1.113,-0.518 1.34,-0.715 1.947,-0.78 0.309,-0.033 1.019,-0.111 1.664,0.271 0.453,0.27 0.454,0.522 1.212,1.63 0.61,0.893 0.92,1.345 1.438,1.778 0.273,0.223 0.755,0.576 1.273,0.9 0.044,0.022 0.099,0.077 0.147,0.099 0.473,0.602 0.674,1.112 1.087,1.149 0.022,0.002 0.043,-0.022 0.076,-0.022 0.022,0.066 0.055,0.122 0.055,0.18 -0.055,0.371 -0.769,0.43 -1.545,0.753 -0.433,0.182 -0.574,0.317 -2.417,1.874 a 606,606 0 0 1 -1.789,1.517 c -1.855,1.507 -2.118,1.487 -2.632,2.202 -0.669,0.931 -0.878,1.88 -0.974,2.344 -0.213,1.004 -0.033,1.277 -0.099,2.796 -0.033,0.772 -0.076,0.654 -0.373,3.023 -0.274,2.202 -0.231,2.259 -0.425,3.538 -0.24,1.569 -0.314,1.52 -0.476,2.734 -0.209,1.592 -0.065,1.525 -0.271,3.442 -0.217,2.032 -0.331,3.05 -0.47,3.696 -0.066,0.27 -0.182,0.807 -0.147,1.523 0.022,0.606 0.066,1.444 0.668,1.873 0.033,0.022 0.562,0.388 1.076,0.199 0.541,-0.198 0.722,-0.873 0.849,-1.376 0.066,-0.228 0.066,-0.403 0.076,-0.588 0.044,-0.123 0.1,-0.285 0.113,-0.317 0.344,-1.074 0.248,-1.829 0.256,-2.78 0.003,-0.54 0.032,-0.207 0.345,-2.994 0.131,-1.201 0.118,-1.204 0.3,-2.966 0.336,-3.223 0.358,-3.031 0.396,-3.793 0.099,-1.912 -0.098,-1.965 0.044,-3.6 0.066,-0.746 0.163,-1.313 0.238,-1.777 0.076,-0.249 0.136,-0.479 0.221,-0.753 0.402,-1.32 0.615,-1.753 0.877,-2.15 0.24,-0.36 0.504,-0.669 1.455,-1.524 a 48,48 0 0 1 2.627,-2.201 c 1.113,-0.87 1.756,-1.374 2.649,-1.942 l 1.302,-0.82 c 0.22,0.065 0.503,0.182 0.588,0.418 0.135,0.382 -0.347,0.78 -0.668,1.341 -0.298,0.53 -0.325,1.097 -0.368,2.202 -0.044,0.997 -0.088,2.253 0.232,3.969 0.34,1.777 0.893,3.025 1.46,4.296 0.561,1.264 1.51,3.36 3.391,5.644 1.125,1.368 2.05,2.151 3.159,3.102 1.155,0.981 1.755,1.351 2.485,1.58 0.479,0.15 1.22,0.376 2.174,0.321 0.958,-0.055 1.483,-0.358 2.043,-0.01 0.329,0.2 0.343,0.419 0.787,0.639 a 2.07,2.07 0 0 0 1.07,0.204 c 0.243,-0.022 0.91,-0.077 1.245,-0.583 0.236,-0.356 0.199,-0.762 0.176,-0.99 -0.055,-0.56 -0.292,-0.656 -0.272,-1.07 0.011,-0.348 0.196,-0.52 0.52,-0.99 0,0 0.38,-0.546 0.844,-1.512 0.332,-0.7 0.426,-1.285 0.538,-2.027 0.282,-1.827 0.087,-3.372 0.006,-3.905 -0.306,-2.099 -1,-3.552 -1.834,-5.31 -0.055,-0.126 -0.11,-0.19 -0.17,-0.311 -0.055,-0.11 -0.077,-0.183 -0.136,-0.306 -0.033,-0.066 -0.174,-0.253 -0.198,-0.295 -0.996,-1.898 -1.937,-3.307 -2.214,-3.68 -1.12,-1.514 -2.143,-2.872 -3.94,-4.097 -1.831,-1.249 -3.19,-1.491 -3.707,-1.557 -0.626,-0.077 -1.508,0.329 -1.732,-0.022 -0.135,-0.22 0.043,-0.559 0.098,-0.668 0.263,-0.51 0.771,-0.705 1.2,-0.894 1.24,-0.555 0.9,-0.687 2.151,-1.251 0.789,-0.356 0.85,-0.269 2.395,-0.833 1.426,-0.517 1.238,-0.536 1.794,-0.69 0.479,-0.132 1.922,-0.532 3.499,-0.1 0.386,0.11 0.146,0.088 2.349,1.11 0.676,0.312 0.734,0.325 1.862,0.844 1.167,0.533 1.759,0.808 2.157,1.013 1.155,0.596 1.146,0.718 2.066,1.206 1.252,0.66 1.492,0.554 3.215003,1.296 1.14,0.49 0.866,0.462 2.763,1.347 0,0 1.018,0.472 3.368,1.206 0.43,0.131 0.999,0.298 1.624,0.087 0.152,-0.054 0.784,-0.276 0.957,-0.832 0.2,-0.638 -0.346,-1.272 -0.481,-1.426 -0.53,-0.615 -1.132,-0.692 -2.19,-1.07 -0.523,-0.187 -1.074,-0.474 -1.484,-0.685 -0.246,-0.14 -0.334,-0.235 -0.742,-0.413 -0.475,-0.208 -0.955,-0.36 -1.268,-0.46 -0.725,-0.311 -1.4,-0.618 -2.422,-0.979 -0.13,-0.043 -0.359,-0.112 -0.46,-0.146 -0.163,-0.066 -0.273,-0.116 -0.526,-0.215 -0.962003,-0.375 -1.703003,-0.62 -2.881003,-1.002 -1.91,-0.623 -2.11,-0.62 -2.814,-0.98 a 14,14 0 0 1 -1.755,-1.086 c -0.819,-0.607 -0.92,-0.833 -1.585,-1.234 -0.293,-0.182 -0.972,-0.593 -1.811,-0.747 -0.367,-0.066 -0.977,-0.124 -2.91,0.452 -0.626,0.19 -0.986,0.314 -3.385,1.234 -1.603,0.615 -2.41,0.924 -2.541,1.008 -0.908,0.591 -1.442,1.256 -2.327,1.194 -0.159,-0.01 -0.495,-0.043 -0.77,-0.271 -0.088,-0.077 -0.113,-0.203 -0.164,-0.3 a 21,21 0 0 1 -0.266,-0.781 c -0.033,-0.18 -0.055,-0.314 -0.11,-0.555 -0.077,-0.332 -0.221,-0.753 -0.515,-1.596 -0.32,-0.941 -0.484,-1.398 -0.617,-1.67 -0.139,-0.495 -0.207,-0.827 -0.17,-1.12 0.077,-0.623 0.37,-1.059 0.651,-1.473 0.337,-0.487 0.685,-0.819 1.914,-1.788 1.252,-0.986 1.14,-0.838 1.805,-1.387 1.295,-1.066 1.386,-1.357 2.151,-1.721 0.754,-0.355 1.428,-0.437 1.784,-0.48 0.576,-0.067 0.878,-0.012 2.343,0.152 2.191,0.259 1.947,0.192 2.785,0.312 1.46,0.204 1.428,0.276 2.576,0.43 1.356,0.19 1.507,0.11 3.311,0.277 0.634,0.066 1.81,0.178 3.317,0.413 1.160003,0.182 2.341003,0.212 3.504003,0.374 0.279,0.044 0.958,0.137 1.58,-0.227 0.162,-0.099 0.507,-0.308 0.622,-0.702 0.151,-0.537 -0.222,-1.027 -0.334,-1.178 -0.185,-0.24 -0.424,-0.395 -0.691,-0.532 -0.066,-0.033 -0.12,-0.055 -0.187,-0.088 -0.076,-0.032 -0.144,-0.076 -0.232,-0.112 a 7.4,7.4 0 0 0 -2.31,-0.442 c -2.527003,-0.152 -1.878003,-0.211 -3.362003,-0.255 -1.747,-0.044 -1.734,0.055 -3.164,-0.022 -0.708,-0.033 -1.463,-0.11 -2.966,-0.266 -1.41,-0.151 -2.13,-0.233 -2.814,-0.368 -0.184,-0.033 -0.734,-0.164 -1.104,-0.249 -0.59,-0.2 -1.038,-0.379 -1.754,-0.504 -0.642,-0.11 -0.98,-0.163 -1.433,-0.087 -0.402,0.065 -0.602,0.186 -1.8,0.877 -1.371,0.792 -1.257,0.716 -1.454,0.844 -0.66,0.425 -1.098,0.776 -1.829,1.364 -0.847,0.68 -1.27,1.02 -1.811,1.556 -0.367,0.364 -0.659,0.69 -1.33,1.33 -0.734,0.704 -1.017,0.914 -1.376,0.895 -0.158,-0.004 -0.285,-0.077 -0.413,-0.147 a 5,5 0 0 1 -0.215,-0.442 c -0.111,-0.26 -0.232,-0.547 -0.209,-0.838 0.044,-0.634 0.767,-0.981 1.528,-1.5 0.19,-0.131 0.85,-0.734 2.168,-1.936 0.661,-0.607 1.256,-1.21 2.435,-2.428 0.788,-0.812 1.098,-1.162 1.245,-1.75 0.135,-0.533 -0.002,-0.733 0.175,-1.471 0.022,-0.088 0.055,-0.117 0.077,-0.193 0.258,-0.033 0.504,-0.17 0.634,-0.368 0.248,-0.378 0.077,-0.825 -0.077,-1.596 a 3,3 0 0 0 -0.054,-0.46 c -0.033,-0.29 -0.055,-0.652 -0.099,-1.51 -0.055,-1.245 -0.077,-1.867 0.006,-2.56 0.066,-0.54 0.13,-0.658 0.164,-1.222 0.006,-0.099 -0.002,-0.126 0,-0.204 0.269,-2.021 0.43,-2.92 0.504,-3.99 0.055,-0.858 0.044,-1.194 0.033,-1.552 0.011,-0.3 0.033,-0.588 0.088,-1.16 0.065,-0.708 0.148,-1.374 0.209,-1.857 0.135,-1.109 0.172,-1.258 0.153,-1.675 a 7,7 0 0 0 -0.209,-1.121 3,3 0 0 0 -0.077,-0.283 c -0.01,-0.043 -0.01,-0.065 -0.032,-0.11 -0.21,-0.583 -0.321,-0.91 -0.635,-1.018 z m -28.326,3.306 a 0.53,0.53 0 0 0 -0.3,0.146 c -0.196,0.2 -0.232,0.567 -0.136,0.833 0.11,0.292 0.45,0.447 1.235,0.9 0.176,0.194 0.288,0.325 0.446,0.34 0.022,0.002 0.033,-0.022 0.066,-0.033 0.286,0.183 0.446,0.309 0.43,0.413 -0.021,0.131 -0.214,0.158 -0.723,0.413 -0.055,0.033 -0.422,0.219 -0.77,0.447 -0.588,0.387 -0.631,0.565 -0.844,0.554 -0.178,-0.01 -0.338,-0.159 -0.47,-0.35 l -0.033,-0.066 c -0.065,-0.157 -0.12,-0.396 -0.203,-0.77 0.01,-0.428 0.181,-0.746 -0.011,-1.132 -0.011,-0.022 -0.237,-0.444 -0.538,-0.447 -0.607,-0.011 -0.993,1.365 -1.229,2.185 v 0.005 c -0.223,0.79 -0.065,1.29 0.011,1.874 0.077,0.572 0.287,1.001 0.578,1.585 0.247,0.51 0.373,0.76 0.64,0.996 0.417,0.363 0.395,0.55 0.48,0.82 0.088,0.297 -0.224,0.588 -0.527,0.99 -0.49,0.65 -0.683,1.238 -0.922,1.965 a 6.2,6.2 0 0 0 -0.232,2.672 c 0.065,0.513 0.162,1.292 0.656,2.088 0.758,1.228 1.829,1.543 1.794,1.92 -0.128,0.009 -0.43,0.032 -0.877,0.098 -0.618,0.098 -1.07,0.299 -1.574,0.543 a 13,13 0 0 0 -1.534,0.413 c -0.974,0.336 -0.694,0.446 -2.626,1.381 -0.387,0.187 -1.05,0.497 -1.845997,1.064 -0.672,0.479 -0.897,0.76 -0.95,1.098 a 1.19,1.19 0 0 0 0.412,1.058 c 0.286,0.232 0.647,0.26 0.99,0.21 0.363997,0.11 0.799997,0.227 1.024997,-0.022 a 0.6,0.6 0 0 0 0.125,-0.385 c 0.4,-0.208 0.694,-0.455 1.222,-0.854 0.526,-0.398 1.11,-0.726 2.282,-1.387 1.097,-0.616 1.73,-0.93 2.332,-1.098 0.364,-0.077 0.726,-0.155 1.092,-0.16 a 5,5 0 0 1 0.617,0.034 c 0.065,0.01 0.136,0.022 0.203,0.044 0.226,0.043 0.457,0.123 0.685,0.266 0.022,0.01 0.044,0.033 0.066,0.044 0.314,0.22 0.435,0.41 0.684,0.594 0.174,0.15 0.369,0.288 0.674,0.38 0.356,0.098 0.703,0.076 1.387,0.021 a 9,9 0 0 0 1.964,-0.384 c 0.974,-0.305 0.893,-0.456 2.021,-0.889 1.457,-0.564 1.691,-0.357 2.31,-0.86 0.44,-0.359 0.444,-0.56 1.132,-1.132 0.32,-0.262 0.572,-0.423 1.07,-0.752 1.04,-0.68 1.064,-0.584 1.511,-0.94 0.044,-0.033 0.088,-0.099 0.125,-0.13 0.365,-0.176 0.67,-0.384 0.697,-0.674 0.002,-0.022 -0.01,-0.033 -0.01,-0.055 0.155,-0.176 0.25,-0.239 0.464,-0.493 0.579,-0.683 0.661,-0.873 0.707,-1.024 0.158,-0.48 0.099,-0.943 0.055,-1.33 -0.044,-0.36 -0.088,-0.362 -0.193,-1.053 -0.066,-0.4 -0.066,-0.474 -0.125,-0.679 -0.143,-0.483 -0.303,-0.533 -0.31,-0.781 -0.009,-0.309 0.233,-0.467 0.639,-0.911 0.576,-0.634 0.424,-0.672 0.934,-1.229 0.243,-0.266 0.697,-0.759 1.342,-1.115 0.01,-0.006 0.022,-0.005 0.033,-0.011 -0.011,0.022 -0.099,0.066 -0.099,0.088 0.044,0.114 0.552,0.054 0.889,-0.033 a 2.9,2.9 0 0 0 1.2,-0.617 c 1.268,-0.368 1.982,-0.767 2.422,-1.098 0.792,-0.592 0.818,-0.948 0.81,-1.087 -0.022,-0.35 -0.282,-0.57 -0.413,-0.668 -0.022,-0.033 -0.01,-0.066 -0.033,-0.088 -0.301,-0.387 -0.869,-0.35 -1.008,-0.34 -0.39,0.023 -0.688,0.209 -0.997,0.448 -0.405,0.201 -0.813,0.473 -1.437,0.911 -0.499,0.35 -1.086,0.711 -2.072,1.325 -0.587,0.254 -1.07,0.488 -1.427,0.872 -0.389,0.235 -0.615,0.392 -0.82,0.64 -0.367,0.443 -0.551,0.853 -0.76,1.07 -0.123,0.087 -0.156,0.087 -0.237,0.135 -0.022,0.006 -0.044,0.033 -0.077,0.033 -0.197,0 -0.336,-0.152 -0.73,-0.673 -0.885,-1.172 -0.927,-1.403 -1.302,-1.778 -0.217,-0.212 -0.686,-0.453 -1.625,-0.917 -0.087,-0.044 -0.11,-0.044 -0.186,-0.077 -0.088,-0.054 -0.17,-0.155 -0.266,-0.209 a 6,6 0 0 0 -1.597,-0.628 c -0.032,-0.009 -0.11,-0.011 -0.146,-0.022 -0.808,-0.246 -1.255,-0.367 -1.727,-0.283 -0.155,0.022 -0.291,0.066 -0.413,0.088 -0.077,-0.022 -0.322,-0.134 -0.702,-0.51 -0.055,-0.15 -0.099,-0.317 -0.193,-0.538 -0.25,-0.58 -0.588,-0.944 -1.013,-1.403 -0.259,-0.279 -0.575,-0.616 -1.092,-0.94 -0.055,-0.033 -0.11,-0.033 -0.16,-0.066 -0.126,-0.131 -0.329,-0.372 -0.451,-0.447 -0.17,-0.11 -0.657,-0.394 -1.24,-0.328 -0.088,0.01 -0.168,0.043 -0.249,0.065 -0.39,-0.11 -0.764,-0.195 -0.996,-0.153 z m 7.24,6.685 c 0.51,0.01 0.865,0.227 1.665,0.752 0.839,0.55 1.257,0.825 1.466,1.003 0.36,0.298 0.703,0.67 1.364,1.404 a 0.5,0.5 0 0 1 0.066,0.076 c 0.305,0.432 0.6,0.83 0.684,1.058 0.077,0.203 0.162,0.4 0.295,0.533 -0.022,0.066 -0.099,0.19 -0.147,0.294 -0.242,0.088 -0.393,0.177 -0.82,0.267 -0.607,0.123 -1.013,0.204 -1.596,0.237 -0.435,0.022 -0.718,0.022 -0.957,-0.022 a 0.7,0.7 0 0 0 -0.087,-0.146 c -0.175,-0.11 -0.158,-0.21 -0.447,-0.77 -0.314,-0.607 -0.375,-0.554 -0.595,-1.025 -0.232,-0.494 -0.172,-0.56 -0.408,-1.063 -0.158,-0.34 -0.199,-0.349 -0.532,-0.928 -0.715,-1.24 -0.646,-1.423 -0.6,-1.5 0.12,-0.185 0.448,-0.174 0.657,-0.17 z m -6.877,3.623 c 0.24,0.281 0.575,0.678 0.996,1.138 0.652,0.71 0.876,0.893 1.313,1.437 0.503,0.623 0.751,1.054 0.872,1.274 0.293,0.532 0.46,0.854 0.475,1.302 0.011,0.356 -0.077,0.606 -0.248,1.104 -0.11,0.304 -0.2,0.523 -0.3,0.707 -0.312,0.259 -0.523,0.509 -0.828,0.674 -0.137,0.044 -0.268,0.066 -0.357,0.088 a 3,3 0 0 1 -0.357,0.055 c -0.13,-0.007 -0.262,-0.008 -0.402,-0.077 -0.347,-0.167 -0.426,-0.458 -0.78,-1.15 -0.527,-1.008 -0.609,-0.862 -0.918,-1.573 -0.01,-0.033 -0.033,-0.088 -0.044,-0.12 a 7.4,7.4 0 0 1 -0.226,-1.03 9.4,9.4 0 0 1 -0.066,-1.54 c 0.004,-0.255 0.01,-0.423 0.022,-0.606 0.156,-0.326 0.333,-0.533 0.418,-1.018 0.011,-0.088 0.011,-0.174 0.022,-0.266 a 2.3,2.3 0 0 1 0.408,-0.397 z m 10.37,11.157 c 0.202,0.022 0.345,0.088 0.374,0.098 0.51,0.22 0.685,0.725 0.956,1.297 0.197,0.413 0.668,1.088 1.608,2.428 0.444,0.638 0.845,1.132 1.641,2.129 0.715,0.896 1.074,1.345 1.545,1.85 0.878,0.936 0.982,0.864 1.472,1.478 0.576,0.715 0.478,0.867 1.274,2.208 0.734,1.236 0.906,1.254 1.528,2.406 0.174,0.316 0.488,0.92 0.793,1.732 0.228,0.599 0.973,2.328 0.838,2.394 -0.005,0.003 -0.087,-0.098 -0.098,-0.11 -0.088,-0.189 -0.189,-0.335 -0.295,-0.605 -0.217,-0.541 -0.249,-0.736 -0.441,-1.296 -0.099,-0.267 -0.31,-0.89 -0.612,-1.512 a 10,10 0 0 0 -1.454,-2.157 c -0.448,-0.525 -0.354,-0.316 -1.263,-1.29 -0.316,-0.34 -0.609,-0.667 -1.103,-1.019 -0.269,-0.19 -0.434,-0.248 -0.6,-0.311 -0.023,-0.011 -0.034,-0.022 -0.056,-0.033 -0.155,-0.055 -0.265,-0.077 -0.35,-0.066 -0.132,-0.033 -0.248,-0.098 -0.397,-0.076 -0.076,0.008 -0.554,0.087 -0.82,0.475 -0.278,0.41 -0.165,0.9 -0.055,1.33 0.182,0.73 0.513,1.201 0.85,1.704 0.737,1.101 1.11,1.65 1.318,2.044 0.777,1.457 0.59,1.452 1.296,2.604 0.178,0.288 0.31,0.474 0.47,0.713 -0.43,-0.315 -0.909,-0.67 -1.115,-0.826 a 8.6,8.6 0 0 1 -1.41,-1.365 c -0.548,-0.68 -0.833,-1.279 -1.25,-2.168 -0.279,-0.579 -0.466,-0.973 -0.64,-1.545 -0.294,-0.974 -0.18,-1.219 -0.436,-2.281 -0.193,-0.804 -0.27,-0.703 -0.656,-1.947 -0.453,-1.442 -0.33,-1.5 -0.697,-2.548 -0.197,-0.564 -0.126,-0.25 -1.019,-2.31 0,0 -0.332,-0.754 -0.888,-1.709 -0.14,-0.24 -0.412,-0.694 -0.945,-1.008 -0.168,-0.098 -0.376,-0.202 -0.544,-0.164 0.077,-0.12 0.214,-0.311 0.476,-0.441 0.255,-0.127 0.511,-0.134 0.713,-0.11 z m -1.42,1.45 c 0.002,0.117 -0.007,0.188 0,0.333 0.021,0.576 0.032,0.862 0.13,1.217 0.116,0.406 0.219,0.488 0.616,1.246 0.426,0.811 0.42,0.898 0.606,1.268 -0.436,-0.693 -0.624,-0.91 -0.883,-1.427 -0.212,-0.433 -0.386,-0.789 -0.475,-1.302 -0.077,-0.445 -0.055,-0.78 -0.022,-1.217 0.006,-0.077 0.022,-0.055 0.033,-0.12 z m 16.415,22.093 c 0.458,-0.001 1.003,0.076 1.529,0.373 0.313,0.17 0.68,0.453 1.46,1.693 0.77,1.221 1.032,1.93 1.5,2.83 0.893,1.74 1.114,1.437 2.157,3.272 1.426,2.504 0.963,2.984 2.01,3.838 0.47,0.382 1.247,0.841 1.862,1.8 0.22,0.344 0.374,0.676 0.413,1.07 0.033,0.293 -0.033,0.57 -0.125,0.923 a 1,1 0 0 0 -0.227,0.065 c -0.364,0.193 -0.396,0.398 -0.849,0.855 -0.263,0.27 -0.479,0.43 -0.804,0.673 -0.332,0.244 -0.757,0.561 -1.375,0.844 -0.437,0.2 -0.75,0.35 -1.217,0.396 -0.329,0.033 -0.583,0.002 -1.07,-0.054 -0.476,-0.055 -0.717,-0.088 -0.894,-0.21 -0.395,-0.255 -0.517,-0.7 -0.572,-0.905 -0.099,-0.344 -0.055,-0.536 -0.044,-1.059 0.008,-0.24 0.022,-0.975 -0.066,-1.624 a 6,6 0 0 0 -0.43,-1.563 c -0.077,-0.174 -0.331,-0.77 -0.85,-1.471 -0.404,-0.55 -0.586,-0.63 -1.12,-1.217 -0.34,-0.372 -0.723,-0.91 -1.5,-1.976 -0.789,-1.09 -0.678,-0.975 -1.381,-1.942 -0.87,-1.19 -0.924,-1.193 -1.121,-1.579 -0.433,-0.847 -0.485,-1.437 -0.787,-1.46 -0.293,-0.022 -0.55,0.501 -0.64,0.679 a 2.1,2.1 0 0 0 -0.214,0.849 c -0.011,0.247 0.01,0.447 0.033,0.549 0.055,0.308 0.211,0.628 0.52,1.25 0.228,0.46 0.396,0.806 0.674,1.269 0.394,0.645 0.74,1.09 1.115,1.573 0.6,0.766 0.727,0.86 1.002,1.206 -0.369,-0.38 -0.778,-0.764 -1.608,-1.743 -1.383,-1.635 -1.574,-2.244 -1.635,-2.48 -0.165,-0.6 -0.148,-1.124 -0.099,-1.625 0.022,-0.232 0.033,-0.468 0.066,-0.684 a 7,7 0 0 1 0.832,-2.468 c 0.174,-0.301 0.311,-0.538 0.567,-0.804 0.7,-0.739 1.558,-0.937 1.879,-1.014 a 4.3,4.3 0 0 1 1.008,-0.13 z m 0.515,1.194 c -0.18,-0.01 -0.315,0 -0.362,0.006 -0.236,0.033 -0.425,0.126 -0.804,0.311 -0.326,0.16 -0.484,0.241 -0.538,0.357 a 0.5,0.5 0 0 0 -0.222,0.066 c -0.127,0.099 -0.193,0.299 -0.164,0.781 0.066,0.963 0.444,1.685 0.629,2.032 0.355,0.684 0.698,1.373 1.053,2.06 0.903,1.736 0.624,1.831 1.358,3.188 0.228,0.421 0.82,1.197 1.998,2.75 0.256,0.333 0.98,1.267 2.078,1.812 0.2,0.099 0.49,0.225 0.752,0.113 0.355,-0.15 0.502,-0.687 0.493,-1.144 0.007,0.002 0.044,0.055 0.044,0.055 0.099,-0.044 -0.159,-0.758 -0.402,-1.681 -0.348,-1.337 -0.206,-1.375 -0.452,-2.225 -0.193,-0.665 -0.559,-1.334 -1.285,-2.671 a 49,49 0 0 0 -1.234,-2.135 c -1.43,-2.38 -1.29,-1.805 -1.568,-2.45 -0.155,-0.36 -0.316,-0.811 -0.765,-1.059 a 1.5,1.5 0 0 0 -0.611,-0.17 z"
     style="display:inline;fill:#3574a5;fill-opacity:1;fill-rule:nonzero;stroke:none;stroke-width:3.86436" />
</svg>
