<?xml version="1.0" encoding="UTF-8" standalone="no"?>
<svg
   width="88.337"
   height="100"
   version="1.1"
   id="svg1803"
   xml:space="preserve"
   xmlns="http://www.w3.org/2000/svg"
   xmlns:svg="http://www.w3.org/2000/svg">
  <path
     id="black"
     d="m 83.93561,78.339805 a 11.586943,11.38848 89.998509 0 0 3.72481,-5.499878 11.75487,11.553531 89.998509 0 0 0.53923,-3.556902 c -0.006,-1.105574 0.32905,-38.919969 -0.024,-40.593434 A 11.50298,11.305955 89.998509 0 0 85.12619,22.963147 11.75487,11.553531 89.998509 0 0 82.79535,21.119299 C 81.98151,20.635587 49.596679,1.1511407 48.158134,0.64463774 A 11.536565,11.338965 89.998509 0 0 38.761425,1.5397127 C 37.893792,2.0493677 5.3455654,20.883434 4.3827284,21.672003 a 11.553358,11.35547 89.998509 0 0 -4.24364698,9.038984 c 0.0064,1.099531 -0.326791,38.920583 0.01618,40.572849 A 11.586943,11.38848 89.998509 0 0 5.5473454,78.891774 C 6.3656934,79.376716 38.732266,98.852496 40.18291,99.363527 a 11.536565,11.338965 89.998509 0 0 6.412815,0.305061 11.419016,11.22343 89.998509 0 0 2.968111,-1.204439 C 50.428613,97.956173 82.98459,79.115615 83.93561,78.339805"
     style="fill:#000000;fill-opacity:1;fill-rule:nonzero;stroke:none;stroke-width:1.66482" />
</svg> 