<?xml version="1.0" encoding="UTF-8" standalone="no"?>
<svg
   width="88.337"
   height="100"
   version="1.1"
   id="svg1803"
   xml:space="preserve"
   xmlns="http://www.w3.org/2000/svg"
   xmlns:svg="http://www.w3.org/2000/svg">
  <path
     id="Beetle"
     d="m 32.208486,9.3214387 c -0.113,0.023 -0.238,0.13 -0.386,0.363 -0.295,0.4670003 -0.01,1.3640003 -0.045,1.8950003 a 6.6,6.6 0 0 1 -0.251,1.486 c -0.3,1.07 -0.732,2.152 -1.211,3.154 a 9,9 0 0 1 -0.503,0.93 c -0.034,-0.01 -0.034,-0.056 -0.068,-0.056 -0.12,0.002 -0.438,0.386 -0.567,0.737 -0.26,0.17 -0.512,0.347 -0.545,0.714 -0.067,0.82 1.167,1.222 1.726,1.585 0.304,0.2 0.887,0.453 1.071,0.813 0.228,0.452 0.023,1.026 0.193,1.51 0.267,0.789 0.96,1.264 1.743,0.825 0.551,-0.311 1.685,-2.2 2.516,-1.562 0.539,0.419 -0.274,1.541 -0.41,2.036 -0.308,1.154 0.123,2.132 1.345,1.345 0.408,-0.263 1.213,-1.181 1.709,-0.93 0.763,0.387 0.196,2.394 0.228,3.042 0.012,0.316 0.226,1.28 -0.056,1.48 -0.424,0.296 -0.253,-0.17 -0.643,-0.321 a 0.8,0.8 0 0 0 -0.375,-0.068 h -0.011 c -0.615,0.09 -0.424,1.338 -0.977,1.538 -0.09,-0.009 -0.181,-0.011 -0.287,-0.056 -0.223,-0.09 -0.693,-0.822 -1.111,-1.375 -0.057,-0.09 -0.114,-0.23 -0.165,-0.287 -0.034,-0.034 -0.101,-0.056 -0.146,-0.102 -0.022,-0.022 -0.034,-0.022 -0.056,-0.045 -0.301,-0.249 -0.701,-0.456 -0.82,0.146 -0.068,0.332 0.411,0.787 0.474,1.106 0.248,1.196 -0.482,0.693 -1.093,0.257 -0.13,-0.14 -0.255,-0.213 -0.38,-0.234 -0.08,-0.045 -0.246,-0.181 -0.281,-0.176 -0.595,0.102 -0.4,0.931 -0.416,1.492 -0.124,0.298 -0.333,0.38 -0.772,-0.056 -0.2,-0.505 -0.358,-1.176 -0.69,-1.27 -0.572,-0.164 -0.895,1.322 -1.007,1.738 -0.384,1.401 -0.446,0.947 -1.556,0.404 -0.068,-0.034 -0.166,-0.045 -0.246,-0.068 -0.034,-0.023 -0.056,-0.045 -0.102,-0.068 -0.575,-0.224 -0.656,-0.204 -1.076,-0.68 -0.08,-0.09 -0.127,-0.14 -0.187,-0.21 -0.045,-0.388 0.388,-0.292 0.766,-0.404 0.711,-0.21 0.873,-0.523 0.743,-0.837 0.045,-0.034 0.057,-0.102 -0.056,-0.362 -0.216,-0.473 -0.511,-0.36 -0.86,-0.415 -0.023,-0.012 -0.046,-0.034 -0.069,-0.046 -0.224,-0.102 -0.303,-0.167 -0.45,-0.251 -0.158,-0.123 -0.303,-0.22 -0.48,-0.357 -0.575,-0.818 3.54,-0.712 2.322,-2.129 -0.18,-0.21 -0.472,-0.332 -0.766,-0.45 a 18,18 0 0 0 -0.346,-0.246 c -0.101,-0.068 -0.34,-0.18 -0.509,-0.281 -0.113,-0.156 -0.169,-0.355 -0.123,-0.632 0.115,-0.714 1.31,-1.662 1.737,-2.281 0.12,-0.176 0.233,-0.435 0.362,-0.673 0.277,-0.282 0.525,-0.599 0.486,-0.872 -0.045,-0.335 -0.27,-0.433 -0.532,-0.485 -0.045,-0.034 -0.045,-0.08 -0.102,-0.102 -0.212,-0.09 -0.518,-0.08 -0.83,-0.068 -0.637,-0.143 -1.26,-0.321 -1.908,-0.415 -0.818,-0.116 -1.904,-0.046 -2.603,-0.527 -0.145,-0.102 -0.518,-0.58 -0.883,-1.018 -0.22,-0.4 -0.434,-0.794 -0.808,-0.988 v 0.006 c -1.516995,-0.795 -0.63,1.926 -0.643,2.522 -0.034,1.57 -0.779995,3.132 -1.461995,4.51 -0.512,1.038 -0.728,2.162 -1.2,3.2 -0.315,0.69 -0.856,1.287 -1.304,1.878 -2.423,-0.995 -2.642,1.548 -1.416,2.913 0.034,0.114 0.12,0.2 0.246,0.252 0.266,0.225 0.561,0.41 0.924,0.497 0.688,0.163 1.09,-0.315 1.644,-0.38 0.266,0.18 0.62,0.364 1,0.544 0.09,0.115 0.175,0.236 0.275,0.333 0.604,0.586 1.424995,1.019 2.111995,1.486 2.057,1.39 3.872,2.817 6.26,3.516 0.327,0.09 1.233,0.2 1.305,0.643 0.056,0.34 -0.666,0.51 -0.778,0.777 -0.295,0.723 0.813,1.414 1.24,1.837 0.9,0.891 1.006,1.286 1.445,2.44 0.212,0.56 0.771,0.839 1.007,1.322 0.182,0.371 0.158,0.471 0.022,0.591 -0.056,-0.009 -0.114,-0.023 -0.164,-0.005 -0.198,0.068 -0.227,0.188 -0.2,0.305 -0.469,0.336 -0.44,0.366 0.007,0.866 0.283,0.315 0.593,0.586 0.836,0.941 0.343,0.495 1.84,2.492 0.813,2.656 -0.49,0.08 -0.82,-0.226 -1.135,-0.474 l -0.011,-0.005 c -0.374,-0.292 -0.726,-0.505 -1.276,0.068 -0.142,0.148 -0.228,0.291 -0.327,0.421 a 0.9,0.9 0 0 1 -0.275,0.194 c -0.034,0.023 -0.057,0.045 -0.09,0.056 -0.146,0.057 -0.279,0.057 -0.41,0.057 a 1.84,1.84 0 0 1 -0.837,-0.345 c -0.36,-0.34 -0.617,-0.864 -0.83,-1.428 -0.155,-0.69 -0.228,-1.456 -0.405,-2 -0.183,-0.58 -0.323,-1.429 -0.778,-1.873 -0.251,-0.243 -0.937,-0.238 -0.924,-0.626 0.012,-0.535 1.232,-1.075 1.428,-1.626 0.09,-0.264 0.113,-0.393 0.057,-0.673 -0.176,-0.834 -0.988,-1.793 -1.451,-2.504 -0.463,-0.714 -1.456,-2.932 -2.247,-1.526 -0.467,0.83 -0.724,2.322 -0.51,3.24 0.08,0.348 0.48,0.755 0.492,1.094 0.011,0.476 -0.26,0.407 -0.392,0.767 -0.067,0.19 -0.135,0.29 -0.175,0.515 -0.16,0.839 0.113,2.403 0.421,3.206 0.356,0.93 1.273,1.44 1.457,2.51 0.191,1.126 -0.574,2.266 -0.135,3.351 0.723,1.79 1.54,-0.09 2.574,0.13 0.52,0.113 0.728,0.681 1.147,0.977 0.436,0.31 0.947,0.592 1.398,0.883 1.697,1.09 3.934,1.27 4.92,3.258 0.607,1.223 -0.418,1.335 -1.27,0.953 q -0.373,-0.26 -0.772,-0.51 c -0.41,-0.373 -0.948,-0.869 -1.292,-0.63 -0.531,0.37 -0.236,2.125 -0.667,2.784 -0.6,0.902 -1.891,1.397 -2.247,2.451 -0.243,0.719 0.2,1.173 0.205,1.86 0,0.596 -0.151,1.03 -0.022,1.65 0.128,0.623 0.208,1.119 0.216,1.75 0.022,2.052 0.51,4.698 -0.37,6.64 -0.323,0.702 -0.72,1.15 -0.193,1.877 0.152,0.209 0.393,0.4 0.656,0.55 0.102,0.133 0.256,0.250003 0.526,0.293003 a 0.86,0.86 0 0 0 0.632,-0.117003 c 0.8,-0.204 1,-1.086 1.076,-1.896 0.009,-0.079 0.003,-0.18 0.006,-0.269 a 3,3 0 0 0 0.068,-0.292 c 0.034,-0.159 0.113,-0.456 0.068,-0.667 0.023,-0.079 0.011,-0.16 0.057,-0.228 0.28,-0.5 0.61,-0.49 0.526,-1.094 -0.09,-0.615 -0.732,-1.217 -0.918,-1.855 v -0.005 a 1.06,1.06 0 0 1 0.011,-0.65 c 0.256,-0.73 1.177,-0.569 1.556,-1.228 0.046,-0.08 0.023,-0.174 0.046,-0.257 0.48,-0.011 0.156,-1.087 -0.068,-1.82 a 16,16 0 0 0 -0.164,-0.9 c -0.023,-0.4 0.01,-0.792 -0.035,-1.194 -0.022,-0.256 -0.168,-0.513 -0.18,-0.76 a 1.4,1.4 0 0 1 0.056,-0.381 c 0.255,-0.557 0.843,-0.988 1.544,-0.813 0.767,0.191 0.838,1.457 0.966,2.165 0.215,1.218 0.476,2.426 0.883,3.592 0.408,1.174 1.125,2.398 0.702,3.668 -0.2,0.59 -0.63,1.098 -0.866,1.673 -0.196,0.479 -0.118,1.117 -0.421,1.533 -0.272,0.371 -0.737,0.413 -0.913,0.912 -0.271,0.771 0.293,0.79 -0.35,1.393003 -0.48,0.447 -0.667,0.35 -0.503,1.082 0.131,0.615 0.522,1.241 0.813,1.796 0.486,0.934 1.06,1.824 1.644,2.703 0.248,0.376 0.526,0.728 0.713,1.135 0.136,0.3 0.187,0.615 0.386,0.895 0.555,0.779 0.857,0.5 1.591,0.41 0.755,-0.102 1.996,1.114 2.603,1.521 0.823,0.547 1.621,0.926 2.1,1.825 0.34,0.63 0.697,3.047 1.879,1.837 0.303,-0.309 0.352,-0.766 0.327,-1.246 0.068,-0.621 0.068,-1.349 0.056,-1.41 -0.187,-1.042 -0.81,-2.092 -1.421,-2.942 -0.978,-1.358 -2.729,-2.117 -3.551,-3.522 -0.8,-1.37 -1.27,-2.756 -1.773,-4.23 -0.068,-0.208 -0.184,-0.565003 -0.375,-0.772003 0.178,-0.202 1.105,-0.734 1.194,-0.726 0.29,0.023 0.952,1.161003 1.176,1.380003 0.894,0.887 1.764,1.841 2.767,2.604 2.193,1.662 5.066,2.786 7.746,3.306 1.278,0.246 2.614,0.372 3.896,0.129 0.902,-0.171 2.54,-0.057 3.247,-0.55 0.334,-0.233 0.462,-0.56 0.485,-0.924 0.068,-0.068 0.143,-0.115 0.2,-0.252 0.484,-1.185 -1.837,-5.493003 -4.101,-9.337003 -0.35,-0.766 -0.69,-1.537 -1.048,-2.299 -0.156,-0.331 -2.026,-3.407 -1.59,-3.767 0.423,-0.348 1.453,1.922 1.649,2.27 0.715,1.286 1.424,2.575 2.17,3.837 1.234,2.077 2.822,3.884 3.844,6.096003 0.368,0.803 0.865,2.546 2.06,2.259 0.958,-0.233 1.878,-1.902 2.357,-2.668 1.038,-1.674003 1.997,-3.098003 2.469,-5.055003 0,-0.008 0.004,-0.011 0.005,-0.022 0.602,-1.85 0.806,-3.955 0.685,-5.85 -0.08,-1.194 -0.328,-2.415 -0.632,-3.604 a 21,21 0 0 0 -0.538,-2.358 4,4 0 0 0 -0.175,-0.397 c -0.13,-0.527 -0.265,-0.896 -0.492,-1.287 0.121,0.034 0.732,0.17 0.901,0.129 0.324,-0.09 0.674,-0.632 0.966,-0.62 0.503,0.022 0.74,1.135 1,1.503 0.505,0.719 1.228,0.57 1.867,1.1 0.716,0.591 0.825,1.501 1.38,2.165 0.592,0.703 1.582,0.727 2.417,0.918 0.148,0.034 0.276003,0.056 0.415003,0.09 0.247,0.15 0.518,0.225 0.691,0.165 0.426,0.079 0.857,0.13 1.351,0.09 0.847,-0.068 2.442,-0.255 2.534,-0.918 0.045,0.022 0.22,0.045 0.204,0.068 0.09,-0.118 -0.129,-0.357 -0.439,-0.626 a 2.5,2.5 0 0 0 -0.38,-0.38 c -0.651,-0.516 -1.384,-0.757 -2.007,-1.352 -0.359,-0.34 -0.72,-0.67 -1.1,-0.988 -0.768,-0.65 -1.586003,-1.286 -2.363003,-1.954 -0.73,-0.88 -1.231,-1.901 -2.07,-2.715 -0.884,-0.85 -1.824,-1.555 -2.967,-2.006 -0.81,-0.316 -1.668,-0.728 -2.55,-0.708 -0.975,0.023 -1.897,0.358 -2.768,-0.216 -0.463,-0.31 -2.04,-2.61 -3.34,-3.58 0,-0.012 -0.011,-0.023 -0.011,-0.034 0.045,-0.44 0.868,-0.868 1.088,-1.247 0.034,-0.056 0.045,-0.128 0.056,-0.193 0.258,0.068 0.333,-0.023 0.305,-0.45 -0.012,-0.186 -0.102,-0.354 -0.176,-0.527 0.034,-0.08 0.08,-0.146 0.181,-0.17 0.204,-0.045 0.786,0.289 1.065,0.292 0.426,0 0.886,-0.155 1.27,-0.327 0.538,-0.236 0.817,-0.658 1.292,-0.222 0.32,0.296 0.618,1.252 0.889,1.68 0.368,0.587 0.54,1.363 1,1.883 0.452,0.504 1.234,0.762 1.837,1.017 0.62,0.264 1.192,0.548 1.779,0.884 0.551,0.315 1.384,0.524 1.82,0.995 0.443,0.478 0.428,1.306 1.263,1.363 0.324,0.022 0.632,-0.223 0.959,-0.246 0.38,-0.022 0.760003,0.144 1.123003,0.234 0.551,0.14 1.446,0.256 1.375,-0.59 -0.001,-0.01 -0.023,-0.034 -0.023,-0.046 v -0.005 c 0.09,-0.19 -0.321,-0.816 -0.79,-1.421 -0.023,-0.046 -0.08,-0.114 -0.09,-0.14 -0.16,-0.313 -0.473,-0.964 -0.796,-1.112 -0.08,-0.034 -0.217,-0.023 -0.328,-0.023 -0.416003,-0.234 -0.823003,-0.166 -1.270003,-0.386 -0.203,-0.102 -0.383,-0.302 -0.566,-0.491 -0.13,-0.145 -0.264,-0.284 -0.398,-0.434 l -0.14,-0.14 a 9,9 0 0 0 -0.34,-0.404 c -0.99,-1.07 -1.975,-2.084 -3.077,-3.03 -1.154,-0.992 -2.031,-2.213 -3.13,-3.248 -0.515,-0.483 -0.696,-0.656 -1.374,-0.544 -0.372,0.068 -0.494,0.296 -0.913,0.164 -0.26,-0.08 -0.524,-0.435 -0.784,-0.567 -0.931,-0.48 -2.107,-0.93 -2.662,0.022 -0.755,1.298 -1.318,2.165 -2.592,2.984 -1.21,0.779 -1.629,1.409 -2.943,0.562 -0.23,-0.15 -1.265,-1.074 -2.1,-1.715 -0.09,-0.423 -0.034,-0.88 0.194,-1.351 0.308,-0.623 0.882,-0.94 0.877,-1.68 -10e-4,-0.193 -0.102,-0.356 -0.17,-0.525 0.102,-0.448 -0.113,-0.947 -0.432,-1.387 0.068,-0.6 0.844,-0.506 1.562,-0.89 0.235,-0.127 0.362,-0.267 0.497,-0.41 0,0.003 0.034,-0.009 0.034,-0.006 0.003,-0.008 -0.007,-0.011 -0.005,-0.023 0.068,-0.068 0.139,-0.137 0.18,-0.21 0.139,0.131 0.33,0.318 0.363,0.299 -0.003,0 -0.158,-0.524 -0.222,-0.743 0.057,-0.501 -0.141,-1.066 -0.404,-1.708 -0.283,-0.699 -0.447,-2.482 -0.995,-2.937 -0.293,-0.246 -0.523,-0.145 -0.748,-0.057 -0.226,-0.034 -0.434,-0.045 -0.65,-0.204 -0.153,-0.269 -0.274,-0.803 -0.421,-1.053 -0.667,-1.131 -1.491,-2.164 -2.358,-3.142 -0.755,-0.855 -1.347,-1.823 -2.118,-2.662 -0.442,-0.483 -1.154,-1.507 -1.474,-0.685 -0.36,0.923 0.716,2.918 1.059,3.768 0.255,0.635 0.116,0.827 0.129,1.474 0.003,0.195 0.034,0.34 0.079,0.462 0.113,0.378 0.59,0.911 0.907,0.995 0.659,0.767 1.247,2.221 1.351,3.16 0.102,0.886 -0.189,1.722 0.057,2.608 0.199,0.696 0.306,0.906 0.034,1.61 -0.204,0.511 -0.494,0.951 -0.737,1.438 -0.495,0.975 -0.322,1.567 -1.328,2.118 -0.132,-0.969 -0.579,-1.955 -0.966,-2.89 0.007,-0.473 -0.045,-0.927 -0.38,-1.246 -0.33,-0.312 -0.643,-0.28 -0.954,-0.205 -0.128,-0.007 -0.176,-0.045 -0.35,-0.045 -0.397,-0.004 -0.602,0.01 -0.872,-0.13 -0.205,-0.269 -0.601,-0.93 -1.007,-1.204 0.09,-0.485 1.592,-1.433 0.292,-1.72 a 0.45,0.45 0 0 1 -0.327,-0.257 c -0.102,-0.377 0.102,-0.891 0.17,-1.229 0.068,-0.19 0.15,-0.396 0.176,-0.556 0.12,-0.763 0.129,-1.469 0.113,-2.188 0,-0.034 0.009,-0.068 0.011,-0.102 0.09,-2.504 0.08,-4.988 0.362,-7.488 a 39,39 0 0 0 0.222,-3.212 c 0.023,-0.81 0.393,-1.852 0.023,-2.603 -0.057,-0.102 -0.14,-0.137 -0.205,-0.216 a 1,1 0 0 0 -0.28,-0.292 c -0.702,-0.472 -1.743,-0.25 -2.563,-0.51 -1.606,-0.507 -3.165,-1.488 -4.51,-2.474 -1.115,-0.811 -2.13,-1.748 -3.084,-2.738 -0.102,-0.102 -0.84,-1.026 -1.41,-1.5500003 -0.142,-0.272 -0.29,-0.521 -0.485,-0.486 z m 10.22,28.8900003 c 0.32,0.067 0.722,0.504 0.802,0.812 0.16,0.599 -0.227,0.667 -0.742,0.819 -0.863,0.255 -1.4,0.615 -2.17,1.07 -0.848,0.499 -1.72,0.748 -2.627,1.083 -1.183,0.444 -2.21,1.233 -3.364,1.696 -0.19,0.08 -0.398,0.068 -0.597,0.034 -0.023,-0.004 -0.045,0 -0.068,-0.006 -0.08,-0.022 -0.15,-0.079 -0.229,-0.116 -0.123,-0.068 -0.253,-0.133 -0.34,-0.264 -0.194,-0.302 -0.186,-1.015 -0.35,-1.422 0.524,-0.522 2.176,-0.663 2.644,-0.801 1.234,-0.368 2.362,-0.92 3.516,-1.48 0.615,-0.304 1.259,-0.506 1.89,-0.778 0.455,-0.2 1.091,-0.773 1.638,-0.65 z m 3.868,3.849 c 0.376,0.079 0.652,0.41 0.72,1.21 0.022,0.263 -0.068,0.494 -0.216,0.702 -0.243,0.18 -0.553,0.315 -0.848,0.521 -0.48,0.334 -0.952,0.664 -1.428,0.989 a 24.5,24.5 0 0 1 -2.96,1.673 c -0.08,0.034 -0.16,0.079 -0.24,0.116 -1,0.456 -2.049,0.737 -3.083,1.107 -0.643,0.227 -1.268,0.449 -1.93,0.157 -0.36,-0.156 -1.185,-0.774 -0.978,-1.281 v -0.005 c 0.2,-0.487 2.62,-1.149 3.03,-1.34 0.919,-0.428 1.828,-0.868 2.75,-1.287 1.059,-0.479 2.03,-1.07 3.013,-1.685 0.644,-0.402 1.545,-1.002 2.17,-0.877"
     style="display:inline;fill:#ac5bb3;fill-opacity:1;fill-rule:nonzero;stroke:none;stroke-width:3.99375" />
</svg> 