<?xml version="1.0" encoding="UTF-8" standalone="no"?>
<svg
   width="88.337"
   height="100"
   version="1.1"
   id="svg1803"
   xml:space="preserve"
   xmlns="http://www.w3.org/2000/svg"
   xmlns:svg="http://www.w3.org/2000/svg">
  <path
     id="Grasshopper"
     d="m 43.561913,13.683552 c -0.333,0.05 -0.586,0.172 -0.632,0.197 -0.149,0.07 -0.71,0.357 -0.758,0.825 -0.05,0.475 0.488,0.612 0.488,1.11 0,0.577 -0.725,0.711 -0.758,1.36 -0.01,0.247 0.121,0.48 0.383,0.933 0.31,0.529 0.538,0.79 0.695,0.986 -0.08,0.103 -0.109,0.487 0.005,0.85 0.13,0.428 0.468,0.809 0.56,0.763 0.1,-0.05 -0.04,-0.607 -0.208,-1.069 0.355,0.605 0.297,1.135 0.742,2.37 0.677,1.88 1.45,2.267 1.188,2.87 -0.206,0.47 -0.775,0.43 -2.23,0.82 -2.872,0.767 -3.46,1.665 -4.384,1.218 -0.236,-0.113 -0.09,-0.12 -1.675,-1.96 -0.687,-0.802 -0.903,-1.028 -1.297,-1.183 -0.51,-0.214 -1.195,-0.251 -1.634,-0.29 -0.623,-0.05 -0.697,0.005 -0.902,-0.104 -0.577,-0.3 -0.748,-1.169 -0.706,-1.753 0.02,-0.213 0.09,-0.811 0.55,-1.318 0.146,-0.158 0.463,-0.458 2.194,-0.876 1.013,-0.245 1.519,-0.364 2.163,-0.404 1.042,-0.05 1.376,0.143 2.449,-0.02 0.676,-0.103 1.226,-0.194 1.374,-0.566 0.06,-0.158 0.02,-0.34 -0.05,-0.519 0.08,-0.128 0.124,-0.264 0.08,-0.383 -0.05,-0.137 -0.242,-0.203 -0.523,-0.249 -0.02,-0.02 -0.04,-0.05 -0.06,-0.07 -0.23,-0.198 -0.691,-0.491 -2.335,-0.43 -0.563,0.02 -1.653,0.09 -3.112,0.487 -0.825,0.219 -1.579,0.432 -2.454,0.96 -0.41,0.244 -0.875,0.525 -1.317,1.063 a 4.3,4.3 0 0 0 -0.804,1.546 c -0.195,0.626 -0.387,1.258 -0.182,1.955 0.1,0.337 0.22,0.457 0.16,0.68 -0.116,0.417 -0.754,0.705 -1.306,0.674 -0.673,-0.04 -0.752,-0.522 -1.645,-0.975 -0.138,-0.07 -1.157,-0.576 -2.386,-0.4 -0.542,0.08 -0.965,0.3 -1.815,0.742 -0.712,0.368 -1.265,0.655 -1.842,1.214 -0.297,0.29 -0.547,0.654 -1.053,1.38 -0.238,0.343 -0.24,0.364 -0.358,0.555 -0.04,0.05 -0.09,0.09 -0.13,0.15 a 7,7 0 0 0 -0.519,0.861 c -0.07,0.109 -0.138,0.238 -0.254,0.395 -0.669,0.903 -1.014005,1.12 -0.954005,1.556 0.04,0.297 0.266005,0.52 0.519005,0.68 0.102,0.283 0.459,0.32 0.488,0.32 0.151,0.01 0.324,-0.05 0.461,-0.165 0.352,-0.104 0.629,-0.32 0.716,-0.394 0.354,-0.308 0.405,-0.583 0.783,-1.458 0.41,-0.96 0.618,-1.437 0.934,-1.852 0.612,-0.808 1.363,-1.196 1.685,-1.359 0.422,-0.212 1.006,-0.501 1.795,-0.497 0.267,0.002 0.655,0.02 1.012,0.16 -0.09,0.002 -0.241,-0.02 -0.25,0 -0.02,0.07 0.402,0.237 0.82,0.44 0.09,0.123 0.23,0.345 0.228,0.67 0,0.439 -0.282,0.617 -0.477,1.048 -0.206,0.453 -0.162,0.843 -0.08,1.587 0.09,0.822 0.329,1.435 0.602,2.122 0.202,0.499 0.324,0.697 0.596,1.426 0.22,0.578 0.332,0.874 0.332,0.976 0.008,0.804 -0.974,1.023 -2.256,2.376 -0.687,0.725 -1.376,1.683 -1.613,2.012 -0.649,0.9 -0.82,1.273 -1.235,1.333 -0.443,0.07 -0.88,-0.34 -1.748,-1.151 -0.252,-0.234 -0.68,-0.736 -1.54,-1.738 -0.428,-0.494 -0.6,-0.746 -0.706,-0.99 a 7,7 0 0 0 -0.1,-0.488 c 0.02,-0.393 0.175,-0.633 0.03,-0.929 -0.241,-0.489 -1.090005,-0.556 -1.505005,-0.596 -0.818,-0.06 -0.992,0.188 -1.556,-0.02 a 2.6,2.6 0 0 1 -0.871,-0.576 c -0.379,-0.386 -0.387,-0.66 -0.639,-0.711 -0.322,-0.06 -0.649,0.326 -0.84,0.56 h 0.006 a 2.1,2.1 0 0 0 -0.431,0.861 c -0.04,0.188 -0.1,0.459 -0.01,0.778 0.148,0.54 0.621,0.811 0.742,0.883 0.52,0.304 0.809,0.123 1.333,0.31 0.273,0.101 0.308,0.207 1.172,1.095 0.55,0.563 0.826,0.844 1.084,1.074 0.552,0.485 0.778005,0.554 1.437005,1.022 1.016,0.719 0.795,0.777 2.148,1.846 1.108,0.876 1.299,0.867 1.639,1.37 0.18,0.266 0.298,0.52 0.57,0.591 0.361,0.09 0.719,-0.209 1.193,-0.612 0.623,-0.521 1.263,-1.018 1.883,-1.546 1.622,-1.385 0.524,-0.317 1.774,-1.333 0.322,-0.258 0.573,-0.47 0.845,-0.41 0.266,0.07 0.4,0.38 0.659,1.007 0.287,0.701 0.43,1.055 0.342,1.27 -0.156,0.39 -0.708,0.447 -2.142,0.695 0,0 -0.932,0.16 -2.366,0.44 -1.926,0.38 -2.519,0.63 -2.894,1.132 -0.103,0.134 -0.373,0.495 -0.28,0.856 0.07,0.283 0.312,0.344 0.55,0.685 0.223,0.315 0.27,0.617 0.327,0.964 0.153,0.939 0.346,1.875 0.467,2.817 0.351,2.741 0.407,2.498 0.39,2.94 -0.02,0.462 -0.081,0.978 0.155,1.609 0.155,0.406 0.296,0.478 0.285,0.758 -0.02,0.503 -0.469,0.612 -0.696,1.328 -0.08,0.262 -0.19,0.584 -0.04,0.87 0.04,0.071 0.134,0.233 1.022,0.566 0.528,0.199 0.801,0.3 1.006,0.27 0.447,-0.07 0.912,-0.44 0.965,-0.861 0.05,-0.418 -0.341,-0.568 -0.27,-1.006 0.02,-0.17 0.09,-0.191 0.493,-0.747 0.428,-0.595 0.455,-0.711 0.586,-0.721 0.248,-0.02 0.464,0.364 0.871,1.115 0.56,1.03 0.84,1.54 0.913,1.707 0.655,1.512 0.986,2.274 1.224,2.925 0.02,0.07 0.673,1.72 1.976,5.027 0.843,2.146 0.82,1.893 2.547,6.011 2.1,4.997 1.95,4.91 3.009,7.216 0.633,1.384 0.992,2.918996 1.867,4.164996 0.535,0.765 1.302,1.658 1.011,2.423 -0.183,0.484 -0.644,0.55 -0.882,1.28 -0.05,0.156 -0.229,0.714 0.02,1.225 0.188,0.386 0.453,0.396 0.914,0.783 0.417,0.35 0.348,0.468 1.208,1.696 0.434,0.62 0.664,0.884 0.835,1.048 0.003,0.003 0.002,0.008 0.006,0.01 0.138,0.174 0.61,0.767 1.068,0.632 a 0.65,0.65 0 0 0 0.264,-0.181 c 0.175,-0.02 0.337,-0.06 0.452,-0.172 0.336,-0.336 0.134,-1.015 0,-1.468 -0.39,-1.317 -1.075,-1.462 -1.634,-2.832 a 6,6 0 0 1 -0.24,-0.68 c -0.02,-0.135 -0.05,-0.265 -0.03,-0.414 0.041,-0.457 0.217,-0.733 0.071,-0.882 -0.04,-0.04 -0.114,-0.02 -0.177,-0.03 0.03,-0.734 0.247,-1.115 0.27,-1.794 0.03,-0.858 -0.319,-1.488 -0.86,-2.433 -0.03,-0.06 -0.051,-0.08 -0.081,-0.13 -0.624,-1.459996 -1.281,-2.521996 -1.385,-2.675996 -0.502,-0.74 -0.72,-0.974 -1.012,-1.354 -0.257,-0.409 -0.656,-1.183 -1.97,-3.88 -0.175,-0.442 -0.645,-1.657 -1.733,-4.02 -0.898,-1.952 -1.237,-2.404 -2.319,-4.56 -0.76,-1.929 -1.267,-3.973 -2.277,-5.778 -0.07,-0.12 -0.338,-0.591 -0.197,-0.737 0.11,-0.117 0.428,0.008 0.913,0.244 0.768,0.368 1.145,0.556 1.701,0.95 1.346,0.944 1.518,0.597 2.998,1.582 0.482,0.319 1.188,0.795 1.925,1.592 0.676,0.733 1.04,1.376 1.54,2.272 1.094,1.951 0.821,2.153 1.707,3.491 0.602,0.907 0.66,0.714 1.748,2.225 0.104,0.145 0.131,0.185 0.213,0.302 0,0.06 -0.008,0.122 0,0.171 0.07,0.336 0.343,0.546 0.653,0.69 0.13,0.151 0.247,0.286 0.43,0.404 0.464,0.301 0.646,0.234 1.967,0.872 0.445,0.216 0.7,0.359 0.964,0.607 0.422,0.385 0.4,0.594 0.716,0.97 0.591,0.69 1.08,0.44 1.862,1.084 0.387,0.319 0.23,0.354 1.038,1.405 0.701,0.91 1.06,1.367 1.535,1.582 0.07,0.03 0.1,0.01 0.156,0.03 0.422,0.232 0.926,0.399 1.084,0.208 v -0.01 c 0.136,0.02 0.197,0.008 0.394,0.06 0.825,0.234 0.801,0.428 1.5,0.603 0.364,0.09 1.171,0.295 2.064,-0.03 0.74,-0.274 1.175,-0.776 1.405,-1.048 0.107,-0.128 0.322,-0.4 0.934,-1.852 0.03,-0.08 0.02,-0.07 0.05,-0.146 0.01,-0.02 0.03,-0.03 0.05,-0.05 0.07,-0.124 0.1,-0.236 0.105,-0.347 0.233,-0.564 0.477,-1.125 0.524,-1.411 0.08,-0.538 0.03,-1.066 -0.07,-2.122 a 22,22 0 0 0 -0.213,-1.571 c -0.07,-0.383 -0.172,-0.836 -0.374,-1.717 a 32,32 0 0 0 -0.316,-1.307 c -0.01,-0.07 -0.01,-0.186 -0.04,-0.28 -0.1,-0.402 -0.26,-1.05 -0.514,-1.406 -0.09,-0.564 -0.02,-1.018 0.06,-1.478 0.178,-1.034 0.439,-1.22 0.545,-1.857 0.05,-0.255 0.104,-0.82 -0.498,-2.335 -0.23,-0.58 -0.738,-1.755 -2.08,-3.734 -0.874,-1.29 -1.313,-1.93 -1.93,-2.667 -0.372,-0.445 -0.647,-0.745 -0.86,-1.022 -0.07,-0.196 -0.162,-0.497 -0.29,-1.24 -0.175,-0.999 -0.157,-1.195 -0.14,-1.322 0.02,-0.1 0.03,-0.183 0.05,-0.301 0.08,-0.317 0.209,-0.516 0.368,-0.902 0.09,-0.205 0.16,-0.418 0.369,-2.366 0.141,-1.307 0.211,-1.969 0.155,-2.189 -0.09,-0.354 -0.08,-0.586 -0.09,-0.845 0.04,-0.22 0.1,-0.372 0.203,-0.394 0.22,-0.05 0.48,0.362 0.866,0.964 0.602,0.943 1.326,1.803 1.847,2.79 0.672,1.28 0.553,0.732 5.145,7.984 2.065,3.261 3.098,4.895 3.278,5.28 0.656,1.403 1.186,2.225 2.241,3.875 0.213,0.33 0.525,0.815 1.064,1.318 0.517,0.478 1.012,0.76 1.784,1.203 0.992003,0.573 1.233003,0.602 1.764003,1.064 0.283,0.243 0.599,0.515 0.871,0.97 0.464,0.767 0.259,1.128 0.737,1.804 0.195,0.277 0.553,0.788 1.063,0.778 0.227,-0.008 0.44,-0.133 0.617,-0.3 0.142,-0.136 0.265,-0.298 0.322,-0.478 0.124,-0.388 -0.1,-0.75 -0.426,-1.55 a 5,5 0 0 0 -0.103,-0.778 4.7,4.7 0 0 0 -0.644,-1.572 4.3,4.3 0 0 0 -0.975,-1.084 c -0.04,-0.04 -0.06,-0.08 -0.104,-0.115 -0.765,-0.626 -1.223,-0.407 -2.002,-0.928 -0.612003,-0.408 -0.910003,-0.953 -1.198003,-1.53 -0.12,-0.336 -0.233,-0.655 -0.384,-1.053 -0.213,-0.563 -0.87,-1.579 -1.8,-2.973 -0.101,-0.188 -0.209,-0.374 -0.306,-0.565 -0.475,-0.938 -0.747,-1.262 -3.423,-4.736 -4.284,-5.553 -3.879,-5.062 -4.233,-5.514 -2.607,-3.558 -3.099,-4.582 -4.259,-5.68 -0.17,-0.161 -0.507,-0.512 -0.866,-0.959 -0.11,-0.203 -0.237,-0.399 -0.332,-0.612 -0.432,-0.981 -1.09,-1.876 -1.37,-2.91 -0.12,-0.446 -0.265,-1.127 -0.845,-1.598 -0.134,-0.106 -0.624,-0.508 -1.13,-0.352 -0.446,0.138 -0.638,0.621 -0.701,0.789 -0.216,0.552 -0.07,0.99 -0.04,1.41 0.07,0.833 -0.318,1.045 -0.867,2.511 -0.754,2.019 -0.529,2.998 -1.208,3.242 -0.471,0.17 -1.015,-0.142 -1.12,-0.203 -0.507,-0.29 -0.715,-0.762 -0.877,-1.11 -0.376,-0.79 -0.908,-1.536 -1.976,-3.024 a 36,36 0 0 1 -0.608,-0.866 c -0.07,-0.17 -0.15,-0.328 -0.26,-0.498 -0.105,-0.219 -0.218,-0.428 -0.249,-0.7 -0.01,-0.11 -0.04,-0.49 0.07,-0.96 0.15,-0.649 0.43,-0.91 1.085,-1.862 0.227,-0.33 0.604,-0.88 1.011,-1.588 0.552,-0.955 0.67,-1.342 1.162,-1.597 0.422,-0.217 0.83,-0.187 0.975,-0.177 0.301,0.02 0.853,0.14 1.93,1.204 0.53,0.527 0.525,0.629 1.156,1.338 1.038,1.168 1.557,1.75 2.272,1.924 0.61,0.15 0.753,-0.08 1.624,0.146 0.403,0.102 0.88,0.29 1.255,0.435 0.814,0.31 0.913,0.408 1.126,0.348 0.491,-0.132 0.804,-0.85 0.783,-1.453 -0.02,-0.514 -0.29,-1.099 -0.768,-1.333 -0.315,-0.16 -0.501,-0.05 -1.411,-0.04 -0.672,0.01 -1.008,0.005 -1.245,-0.05 -0.185,-0.232 -0.356,-0.532 -0.716,-0.882 -0.254,-0.25 -0.437,-0.325 -0.643,-0.415 a 4.6,4.6 0 0 0 -0.752,-0.732 c -0.47,-0.365 -0.956,-0.62 -1.65,-0.98 -0.28,-0.147 -0.361,-0.198 -0.524,-0.275 -0.02,-0.01 -0.02,-0.02 -0.04,-0.03 -0.205,-0.122 -0.329,-0.168 -0.488,-0.244 -0.08,-0.04 -0.182,-0.08 -0.275,-0.146 a 5.6,5.6 0 0 1 -1.291,-1.177 c -0.666,-0.84 -0.588,-1.283 -1.116,-1.52 -0.467,-0.216 -0.673,0.07 -1.14,-0.115 -0.436,-0.166 -0.662,-0.571 -1.194,-1.935 -0.33,-0.856 -0.39,-1.103 -0.545,-1.556 0.008,-0.173 0.03,-0.283 0.01,-0.586 -0.03,-0.412 -0.157,-1.19 -0.445,-2.033 0.05,-0.446 0.1,-0.78 -0.13,-1.354 -0.424,-1.066 -1.163,-1.35 -1.022,-2.034 0.12,-0.584 0.72,-0.654 0.794,-1.302 0.05,-0.47 -0.2,-0.948 -0.555,-1.224 -0.363,-0.28 -0.777,-0.316 -1.11,-0.27 z m 3.87,13.18 c 0.123,0.101 0.02,0.468 -0.125,0.712 -0.234,0.393 -0.57,0.454 -0.97,0.72 -0.116,0.07 -0.161,0.12 -1.032,1.183 -0.804,0.985 -1.206,1.478 -1.27,1.587 -0.123,0.212 -0.197,0.372 -0.276,0.52 -0.04,0.03 -0.09,0.07 -0.12,0.09 -0.08,0.05 -0.236,0.14 -0.425,0.202 -0.08,-0.08 -0.186,-0.223 -0.383,-0.492 -0.663,-0.907 -0.88,-1.11 -0.81,-1.401 0.051,-0.177 0.17,-0.285 0.312,-0.394 0.744,-0.58 1.472,-0.868 1.982,-1.095 0.297,-0.127 0.945,-0.413 1.696,-0.866 0.846,-0.51 1.262,-0.896 1.421,-0.768 z m -14.058,0.94 c 0.462,0.02 0.868,0.272 1.038,0.378 0.244,0.151 0.597,0.372 0.576,0.627 -0.02,0.266 -0.423,0.287 -1.074,0.727 -0.616,0.419 -0.603,0.631 -1.208,0.965 -0.304,0.17 -0.818,0.447 -1.084,0.249 -0.193,-0.145 -0.167,-0.481 -0.146,-0.711 v -0.005 c 0.05,-0.543 0.321,-0.93 0.586,-1.297 0.362,-0.5 0.534,-0.748 0.835,-0.861 0.16,-0.06 0.324,-0.08 0.477,-0.07 z m 4.207,2.235 c 0.21,-0.02 0.477,-0.03 0.794,0.02 0.513,0.08 0.797,0.12 0.96,0.353 0.255,0.364 0.04,0.919 -0.156,1.213 -0.255,0.376 -0.769,0.726 -1.25,0.613 -0.216,-0.05 -0.413,-0.273 -0.789,-0.716 -0.46,-0.538 -0.686,-0.816 -0.601,-1.043 v -0.005 c 0.06,-0.18 0.276,-0.247 0.601,-0.347 0.08,-0.02 0.231,-0.06 0.44,-0.09 z m -2.541,2.376 c 0.3,-0.02 0.396,0.394 0.902,0.918 0.556,0.577 0.92,0.581 0.97,0.939 0.04,0.326 -0.214,0.638 -0.452,0.794 a 1.06,1.06 0 0 1 -1.23,-0.1 c -0.184,-0.163 -0.116,-0.256 -0.378,-1.116 -0.203,-0.675 -0.325,-0.917 -0.192,-1.162 0.01,-0.02 0.152,-0.265 0.379,-0.275 z m -2.848,0.627 c 0.116,0 0.61,-0.005 0.897,0.337 0.251,0.305 0.193,0.703 0.13,1.157 -0.07,0.46 -0.115,0.803 -0.395,1.08 -0.431,0.428 -1.235,0.508 -1.795,0.129 -0.05,-0.04 -0.594,-0.417 -0.602,-1.043 -0.002,-0.52 0.366,-0.864 0.639,-1.115 0.212,-0.198 0.58,-0.541 1.125,-0.545 z m 9.679,1.676 c 0.326,0.08 0.452,0.57 0.586,1.104 0.1,0.4 0.189,0.746 0.09,1.178 -0.134,0.595 -0.523,0.954 -0.803,1.209 -0.422,0.389 -0.855,0.786 -1.365,0.68 -0.619,-0.128 -0.874,-0.895 -0.913,-1.023 -0.05,-0.15 -0.202,-0.62 0.02,-0.97 0.06,-0.1 0.177,-0.177 0.4,-0.337 0.44,-0.312 0.528,-0.283 0.694,-0.456 0.252,-0.266 0.12,-0.432 0.347,-0.788 0.192,-0.299 0.603,-0.677 0.939,-0.597 z m -4.902,4.01 c 0.07,0.02 0.122,0.08 0.187,0.114 0.111,0.195 0.285,0.391 0.493,0.539 0.03,0.08 0.09,0.143 0.104,0.228 0.05,0.428 -0.239,0.74 -0.519,1.047 -0.216,0.233 -0.72,0.697 -1.51,0.814 -0.233,0.03 -0.715,0.08 -1.25,-0.13 -0.162,-0.06 -0.705,-0.28 -1.063,-0.83 -0.12,-0.184 -0.305,-0.465 -0.202,-0.632 0.123,-0.203 0.53,0.02 1.172,-0.09 0.28,-0.05 0.315,-0.112 1.395,-0.643 0.857,-0.425 1.002,-0.461 1.193,-0.421 z m 2.848,3.029 c 0.356,-0.206 1.071,0.44 1.37,0.715 0.04,0.06 0.1,0.118 0.139,0.177 a 0.4,0.4 0 0 0 -0.04,-0.08 c 1.448,1.36 1.997,2.971 2.448,4.17 -0.742,-1.246 -2.193,-3.77 -2.412,-4.087 0.312,1.015 1.34,2.612 2.625,4.549 0.164,0.375 0.265,0.39 2.863,4.948 2.631,4.618 2.39,4.417 3.615,6.396 0.781,1.266 1.228,1.914 1.53,2.381 0.01,0.02 0.03,0.05 0.04,0.07 a 5.7,5.7 0 0 1 0.628,1.22 c 0.372,0.977 1.012,1.84 1.458,2.785 0.155,0.332 0.346,0.75 0.71,0.83 0.276,0.06 0.497,-0.107 1.51,-0.727 0.825,-0.507 1.022,-0.594 1.167,-0.514 0.23,0.129 0.233,0.636 0.12,1.006 -0.146,0.492 -0.485,0.73 -1.583,1.536 -1.416,1.038 -1.328,0.992 -1.52,1.105 -0.626,0.365 -0.559,0.22 -2.163,0.938 -0.779,0.348 -1.055,0.504 -1.55,0.514 -0.1,0.006 -1.1,0.02 -1.256,-0.43 -0.113,-0.327 0.273,-0.733 0.369,-0.836 0.393,-0.406 0.691,-0.307 1.276,-0.731 0.22,-0.162 0.392,-0.319 0.524,-0.488 0.005,-0.006 0.01,-0.006 0.02,-0.01 0.02,-0.02 0.01,-0.04 0.03,-0.06 0.05,-0.07 0.115,-0.14 0.134,-0.228 0.06,-0.27 -0.08,-0.523 -0.27,-0.814 -0.06,-0.168 -0.105,-0.313 -0.191,-0.503 -0.617,-1.362 -0.942,-2.068 -1.37,-2.661 -0.92,-2.021 -2.855,-5.832 -5.415,-10.587 -0.347,-0.645 -0.97,-1.786 -1.795,-3.362 -1.314,-2.516 -1.098,-2.2 -1.317,-2.557 l -0.08,-0.12 c -0.57,-1.108 -0.858,-1.66 -1.075,-1.95 -0.152,-0.202 -0.272,-0.352 -0.394,-0.508 a 4.5,4.5 0 0 1 -0.285,-0.991 c -0.05,-0.308 -0.128,-0.927 0.145,-1.09 z m -8.445,1.991 c 0.155,-0.01 0.3,0.008 0.457,0.07 0.141,0.06 0.356,0.188 0.732,0.737 0.704,1.038 0.678,1.69 1.1,2.838 0.29,0.79 0.723,1.535 1.587,3.019 0.605,1.04 0.89,1.42 0.731,1.665 -0.201,0.297 -0.842,0.01 -2.588,-0.208 -1.912,-0.237 -1.913,0 -2.713,-0.285 -1.218,-0.436 -1.707,-1.168 -2.298,-0.913 -0.47,0.202 -0.49,0.816 -0.907,0.836 -0.09,0.008 -0.36,-0.008 -0.845,-0.67 -0.06,-0.07 -0.08,-0.155 -0.13,-0.228 -0.07,-0.118 -0.238,-0.469 -0.414,-0.804 a 17,17 0 0 1 -0.322,-0.861 c -0.52,-1.52 -0.648,-1.925 -0.627,-2.562 0.02,-0.71 0.204,-0.936 0.264,-1.007 0.336,-0.376 0.837,-0.314 1.624,-0.394 0.797,-0.08 1.348,-0.251 2.24,-0.524 1.108,-0.34 1.647,-0.676 2.112,-0.71 z m 27.051,25.646 c 0.317,-0.003 0.65,0.06 0.804,0.29 0.209,0.318 -0.03,0.812 -0.07,0.892 -0.32,0.63 -0.875,0.586 -1.976,1.198 -1.049,0.585 -1.185,0.979 -2.127,1.23 -0.333,0.09 -0.956,0.245 -1.204,-0.05 -0.208,-0.248 -0.07,-0.68 -0.03,-0.783 l 0.005,-0.006 c 0.107,-0.318 0.318,-0.538 0.654,-0.804 0.503,-0.394 0.896,-0.589 1.297,-0.804 1.331,-0.715 1.31,-0.933 1.95,-1.074 0.08,-0.02 0.383,-0.08 0.7,-0.09 z"
     style="display:inline;fill:#3f9b3a;fill-opacity:1;fill-rule:nonzero;stroke:none;stroke-width:3.54108" />
</svg> 