<svg xmlns="http://www.w3.org/2000/svg" width="89.877" height="100">
    <path d="M0 0s.232 5.079-.521 5.769c0 0-.315.307-.399.969 0 0-.068-.899-.455-1.06 0 0-.922-1.183-.307-5.623 0 0-1.492 3.252-.625 5.294 0 0 1.311 6.152.53 6.569l-.082.272s.722 1.103 1.675.063l-.078-.273s-.826.534.688-6.472C.426 5.508 1.43 3.454 0 0m1.457-3.646s-1.061-6.363.148-7.928c.09-.232.336-.4.633-.396a.7.7 0 0 1 .274.06l.004-.003c-.127-.329-.461-.931-1.381-1.616 0 0-.819.067-.928-.443 0 0-.473.345-1.527.055 0 0-.313.425-.823.415 0 0-1.181.727-1.152 1.432 0 0 .024-.006.066-.005.002.005.006 0 .006.003.327.002.592.214.641.491.465.775.814 2.771-.174 7.869 0 0 1.801 2.175 4.213.066m8.641 9.103c-.754.73-.899 1.272-1.891 1.422-.48.069-1.701-.236-2.197-.307-1.403-.201-2.66-.327-4.037-.646.004.073.004.14.002.21a18 18 0 0 1-.116 1.75c1.373.197 2.584.52 3.953.833.487.11 1.735.262 2.163.495.867.496.816 1.052 1.257 2.005 1.274 2.781 4.428 5.063 5.393 7.992-.086.006-.455.046-.506.045-.707-1.077-1.469-1.946-2.205-2.965-1.262-1.741-2.73-5.024-4.295-6.206-1.334-1.016-4.224-1.786-5.908-1.212-.477 2.609-1.551 4.438-2.772 4.419-1.207-.016-2.212-1.82-2.628-4.388-1.686-.495-4.416.172-5.727 1.106-1.598 1.138-3.166 4.373-4.479 6.075-.765.993-1.548 1.841-2.287 2.896-.054 0-.425-.049-.507-.056 1.052-2.903 4.271-5.085 5.632-7.828.467-.94.432-1.497 1.313-1.962.433-.227 1.691-.341 2.178-.436 1.304-.258 2.47-.529 3.763-.689-.06-.622-.09-1.28-.078-1.958 0-.006-.002-.008.002-.014-1.318.246-2.529.342-3.883.488-.494.059-1.724.328-2.207.242-.986-.177-1.115-.72-1.844-1.476-2.123-2.206-5.849-3.32-7.722-5.771l.463-.212c1.019.787 2.025 1.36 3.056 2.076 1.764 1.23 4.229 3.842 6.096 4.449 1.641.532 4.744.286 6.09-.894.139-1.776.537-3.339 1.094-4.423-1.41-.224-2.69-.54-4.118-.856-.556-.122-1.98-.284-2.464-.544-.993-.537-.936-1.139-1.43-2.173-1.459-3.018-5.053-5.497-6.154-8.674.101-.01.521-.051.58-.055.802 1.171 1.672 2.118 2.509 3.222 1.436 1.889 3.114 5.454 4.893 6.735C-7.338-.68-3.838.19-1.963-.583q.103-.107.213-.19c-1.951-.807-3.363-3.724-3.311-7.173.043-2.853 1.071-5.31 2.541-6.499 0 0 1.543-.456 1.897-1.819 0 0 1.078 1.783 1.853 1.634l.27.2c1.459 1.223 2.436 3.735 2.393 6.617C3.84-4.229 2.223-1.273.139-.665c.099.096.201.197.293.315L.43-.376c1.826.871 5.406.104 7.041-1.007 1.816-1.232 3.597-4.742 5.092-6.588.873-1.077 1.763-1.997 2.605-3.144.059.003.477.058.574.07-1.195 3.144-4.857 5.512-6.406 8.486-.529 1.022-.482 1.623-1.492 2.127-.496.248-1.922.369-2.481.471C3.879.318 2.557.612 1.09.784c.431 1.007.73 2.351.838 3.865.031.049.074.099.109.139h.002C3.297 6.073 6.5 6.436 8.189 5.943c1.883-.55 4.428-3.093 6.229-4.266C15.469.99 16.492.449 17.533-.306c.051.021.379.189.457.226-1.947 2.393-5.707 3.396-7.892 5.537" style="fill:#289ee0;fill-opacity:1;fill-rule:nonzero;stroke:#2187b2;stroke-width:.275;stroke-linecap:butt;stroke-linejoin:miter;stroke-miterlimit:4;stroke-dasharray:none;stroke-opacity:1" transform="scale(1.67927 -1.67927)rotate(30 77.764 37.952)"/>
    <path d="m0 0 .529.125S1.225-3.611.941-4.2c0 0-1.367-1.599-2.734-.687 0 0-.937 3.441 1.793 4.887m4.033.232.531-.109C7.334-1.238 6.5-4.705 6.5-4.705c-1.338-.952-2.754.601-2.754.601-.301.58.287 4.336.287 4.336m-8.635-4.749c.969-.104 1.831-.511 2.709-.838a32 32 0 0 1-.099-.532c.318-1.198 1.451-1.259 1.451-1.259 1.594-.581 6.562-.052 6.562-.052C6.77-6.962 7.055-5.9 7.055-5.9c.15.22.164.546.091.94.788.328 1.561.698 2.438.818.998.135 3.184-.818 3.828.363-.795.21-3.055.188-4.047.041-.638-.091-1.527-.55-2.295-.885q-.01.022-.011.04C7.225-.612 4.443.475 4.443.475 4.229 4.34 2.471 4.353 2.471 4.353l.121-.194c1.424-.999.422-1.906.422-1.906l-.01-.007c-.047.054-.07.088-.07.088s-.987-.075-1.377-.093l-.12.03a1 1 0 0 1-.093-.077q-.048.028-.049.03c-1.027.88.363 1.96.363 1.96l.072.157C-.004 3.984-.08.757-.08.304Q-.1.264-.123.225c-3.078-1.998-1.832-5.117-1.832-5.117s.004-.041.019-.084c-.808.314-1.783.796-2.459.87-.998.115-3.255.074-4.046-.161.675-1.162 2.836-.138 3.839-.25" style="fill:#289ee0;fill-opacity:1;fill-rule:nonzero;stroke:#2187b2;stroke-width:.275;stroke-linecap:butt;stroke-linejoin:miter;stroke-miterlimit:4;stroke-dasharray:none;stroke-opacity:1" transform="scale(1.67927 -1.67927)rotate(30 39.737 21.025)"/>
    <path d="M0 0c-.625-5.238.65-6.778.65-6.778.256-.252.364-.917.397-1.156-.012.361.307 1.086.307 1.086 1.302 1.739.445 6.953.445 6.953C.617.715 0 0 0 0" style="fill:#289ee0;fill-opacity:1;fill-rule:nonzero;stroke:#2187b2;stroke-width:.275;stroke-linecap:butt;stroke-linejoin:miter;stroke-miterlimit:4;stroke-dasharray:none;stroke-opacity:1" transform="scale(1.67927 -1.67927)rotate(30 85.576 36.948)"/>
</svg>
