<svg xmlns="http://www.w3.org/2000/svg" width="89.877" height="100">
    <path d="M0 0c-.687-.834-2.551-.311-2.551-.311-.394.496.444 1.937.444 1.937C-.516.986.865 2.902.865 2.902 1.316 2.202 0 0 0 0m.07-18.861a.84.84 0 0 0-.22-.431s-3.139-1.825-6.543.267c0 0-.346 1.182-.037 1.632 0 0 .837-.637 2.332-.884L-3.156-.238s-1.883-.449-2.537.416c0 0-1.221 2.256-.743 2.935 0 0 1.299-1.971 2.918-1.395 0 0 .774-1.48.362-1.956.652-.448.748-18.093.748-18.096a9 9 0 0 1 2.406.583s.18-.609.072-1.11m-1.689-3.663-3.59-.038c-.406.367-.764.841-.92 1.456 0 0 1.545.818 2.727.429 0 0 2.55.073 2.537-.661 0 0-.289-.606-.754-1.186M-6.002 5.564s1.809.936 2.221.562c.416-.373-.043-2.067-.155-2.553-.115-.484-1.736-.211-2.019.225-.285.432-.047 1.766-.047 1.766m3.432 2.738c1.306-.892 1.892-1.049 1-1.61-.901-.56-.905-.846-2.219-.388-1.316.463 1.219 1.998 1.219 1.998m.547-5.717-1.342.027c-.666.133.469 3.152.469 3.152.533-.131.873-3.179.873-3.179M.312 5.854c.42-.123.198-1.998-.175-2.338-.373-.335-1.532-.088-1.532-.088s-.83 2.072-.513 2.553c.324.488 1.799-.002 2.22-.127m8.811-9.098c-.187.371-1.08-.054-1.146.698-.067.747-.442 1.481-.442 1.481L5.814 2.602l.241.764-.639.215-.727-.537s-2.3-.471-2.892-.914l-.401-.182a4 4 0 0 1-.482 1.455c.066.425.063.863-.041 1.11.566-.401 3.086-.653 3.086-.653l.814-.457.594.283-.373.731L6.045 8.23s.242.763.176 1.512c-.067.746.89.422 1.011.802.12.383-1.189 1.192-.992.704.201-.491.069-.749-.67-1.163-.736-.415-.515-1.154-.328-1.522.186-.365-.535-4.413-.888-3.93-.29.4-2.907 1.263-3.844 1.563a1 1 0 0 1-.17.253c.021.152.037.301.043.457.008.456-.069.897-.217 1.299-.193.713-.49 1.383-.725 1.241l-.025-.051a3.2 3.2 0 0 1-.848.626c.143 1.022.957 4.082 5.465.346 0 0 .758-.293.287.409 0 0-2.996 2.908-4.963 1.7 0 0-1.101-.662-1.421-2.222a2.95 2.95 0 0 1-1.541-.029c-.036.53-.52 5.121-6.499.988l-.072-.069s.127-.697.69-.291c0 0 4.568 3.725 5.351-.837a3.3 3.3 0 0 1-.847-.619c-.032.061-.053.097-.053.097-.209-.101-.389-.471-.535-.922a3.5 3.5 0 0 1-.383-1.536c-.002-.049 0-.088 0-.134-.047-.292-.074-.489-.074-.489s.043.015.111.048q.01-.104.035-.209a4 4 0 0 1-.195-.269.8.8 0 0 1-.254-.065l.004.028s-3.737-1.295-4.057-1.789c-.32-.493-1.318 3.526-1.154 3.896.16.371.328 1.117-.436 1.508-.763.391-.914.644-.75 1.142.166.495-1.09-.352-.943-.731.148-.377 1.084-.023 1.068-.774-.015-.749.28-1.505.28-1.505l1.31-3.777-.322-.738.609-.264.787.482s2.459.321 3.022.733c.076.017.16.043.244.073a4 4 0 0 1-.012-.331c0-.02.004-.047.002-.069-.008-.124-.017-.256-.017-.387a3.96 3.96 0 0 1-.514-1.877c-.004-.01-.004-.028-.004-.043 0-.011.006-.027.006-.041-.176.116-.354.22-.469.288-.035.025-.07.044-.111.067l-.047.024V1.83c-.795.385-2.775.726-2.775.726l-.76.516-.625-.237.293-.756-1.467-3.719s-.326-.743-.34-1.493c-.019-.75-.935-.354-1.101-.725-.161-.372 1.06-1.273.914-.771-.143.503.013.749.797 1.108.781.361.644 1.114.496 1.49-.149.378 1.017 4.355 1.314 3.847.287-.484 3.662-1.832 3.955-1.945l-.058-1.255c-.309-1.097-.606-2.563-.836-4.505-.862 1.101-2.586 1.983-2.586 1.983l-.742 1.622-.633-.79.258-2.411-1.639-11.994s-.36-2.401-.408-4.802c-.049-2.406-.952-1.184-1.129-2.383-.182-1.199.998-4.033.875-2.426-.123 1.61.051 2.406.847 3.59.797 1.187.694 3.596.563 4.802-.131 1.208 1.217 14.008 1.49 12.398.174-1 1.637-3.114 2.723-4.568a79 79 0 0 1-.061-1.939s-.834-5.105 1.367-5.947c.313-1.674.725-3.111 1.213-4.224l-.007-.006a3.1 3.1 0 0 1 .935-1.588c.477-.591.994-.918 1.545-.929.209-.02.41.026.6.117 1.371.552 2.595 3.044 3.396 6.628 2.18.822 1.395 5.908 1.395 5.908-.006.711-.024 1.39-.043 2.033C3.08-9.421 4.898-7.083 5.131-6.001c.344 1.599 1.158-11.247.98-12.445-.179-1.201-.381-3.603.366-4.822.748-1.218.886-2.025.699-3.625-.188-1.597 1.109 1.185.976 2.388-.129 1.205-1.082.024-1.031 2.428.047 2.401-.211 4.814-.211 4.814L5.766-5.212l.361 2.399-.606.815-.8-1.59s-2.58-1.183-3.1-2.564a39 39 0 0 1-.269 2.094L1.227-.011l-.069.013c.006.009.006.021.012.03.115.079.252.178.418.305.769.344 3.406 1.543 3.629 1.985.267.512 1.703-3.424 1.58-3.802-.121-.383-.207-1.139.599-1.476.803-.333.977-.575.868-1.08s1.049.429.859.792" style="fill:#42b23c;fill-opacity:1;fill-rule:nonzero;stroke:#3b913f;stroke-width:.275;stroke-linecap:butt;stroke-linejoin:miter;stroke-miterlimit:4;stroke-dasharray:none;stroke-opacity:1" transform="scale(1.67927 -1.67927)rotate(30 54.703 37.058)"/>
</svg>
