<svg xmlns="http://www.w3.org/2000/svg" width="89.877" height="100">
    <path d="M0 0s-2.393-1.812-6.729-2.892L.545.449Q.281.238 0 0m-7.758-2.43c-3.961 2.559-7.777-.073-7.777-.073l-.315.496c.342 1.565 2.077 2.77 4.174 2.787 2.129.019 3.908-1.19 4.237-2.787zM-22.867-.29c-.194.157-.375.301-.557.436l7.338-3.206c-4.355 1.001-6.781 2.77-6.781 2.77M7.422 8.688S5.441 9.983 1.154 7.509c0 0-6.238-6.553-8.715-8.805l.153.202A3 3 0 0 1-7.943.071c.146.161.297.382.341.651 0 0 .596 1.22.897 1.457 0 0 .25.592.242 1.101 0 0 1.053 1.217 1.092 2.56 0 0 .139 1.372.389 1.651 0 0-.153.31-.104.43l.201.003-.049.118.301.079-.053.193.303.16.151.081-.102.118.254.041-.152.155.302.002.2.159.353.081-.002.117-.25-.002-.303-.08.047.157-.205.186-.4-.426-.557-.042.106-.316-.555-.281.103-.428-.248-.043.102-.193-.354-.28.008-.666s-.045-.587-.244-.981c0 0-.705-.479-.641-1.97 0 0-.396-1.059-1.048-1.654 0 0-.299-.787-.344-.984-.012-.045-.022-.074-.022-.088-.068-.045-.316-.206-.486-.346q-.081.06-.168.118c.16.269.246.559.244.87-.008.771-.572 1.444-1.418 1.83.215.587.567 2.199.567 2.199.232.274 1.675 2.854 1.675 2.854-.328.057-1.736-2.53-1.736-2.53-.115-.077-.613-2.086-.699-2.437a4.1 4.1 0 0 1-1.5.258 4.2 4.2 0 0 1-1.326-.227c-.11.414-.627 2.329-.74 2.401 0 0-1.454 2.561-1.782 2.501 0 0 1.49-2.555 1.729-2.825 0 0 .363-1.542.59-2.151-.93-.39-1.555-1.11-1.547-1.929.004-.323.107-.627.281-.903-.068-.05-.139-.1-.205-.156-.152.144-.492.355-.576.406-.002.019-.01.045-.022.09-.051.197-.361.98-.361.98-.664.582-1.08 1.634-1.08 1.634.037 1.494-.674 1.955-.674 1.955-.209.392-.264.978-.264.978l-.007.669-.356.272.1.196-.25.034.095.435-.56.268.098.317-.557.031-.408.421-.198-.189.049-.157-.303.075-.253-.004v-.116l.353-.075.205-.155h.305l-.151-.157.25-.034-.095-.12.148-.075.307-.157-.047-.196.303-.073-.051-.118h.205c.051-.118-.096-.432-.096-.432.252-.273.418-1.643.418-1.643.065-1.341 1.137-2.54 1.137-2.54.002-.509.262-1.096.262-1.096.306-.232.925-1.442.925-1.442.061-.331.28-.588.461-.747a3.5 3.5 0 0 1-.253-.458 3 3 0 0 1-.147-.433c-2.769 2.524-8.363 8.189-8.363 8.189-4.33 2.396-6.285 1.066-6.285 1.066-1.272-3.447 2.42-6.202 2.488-6.254-.276-.114-.371-.286-.371-.286-.922-1.695 2.949-4.566 2.949-4.566.23-.231 1.762-.462 3.637-.663-.91-.017-.348-.243-.348-.243-.367-1.035 1.139-1.583 1.139-1.583.23-.17 2.902.174 4.924.468l.031-.122a1.9 1.9 0 0 1-.904-.639s-1.29-1.078-1.704-1.194c0 0-.587-.543-.906-1.119 0 0-1.687-.847-2.568-2.338 0 0-.994-1.478-1.383-1.667 0 0-.066-.425-.184-.533l-.175.099-.03-.157-.314.058-.08-.247-.362-.032-.181-.011.012-.185-.247.078.039-.25-.265.148-.276-.079-.361.081-.072-.132.219-.119.316-.062-.143-.151.061-.309.615.282.514-.228.109.406.657.039.181.535.246-.08.033.271.483.142.416.749s.412.639.834.984c0 0 .914.192 1.805 1.895 0 0 1.011 1.002 1.957 1.346 0 0 .755.738.923.934.038.047.061.075.073.094.152.026.927.172.894.295l.033.552c.688-1.025 2.299-1.736 4.168-1.721 2 .02 3.686.863 4.258 2.016l.069-.847c-.036-.123.748-.258.896-.279.014-.02.035-.045.076-.095.17-.191.942-.917.942-.917.947-.327 1.982-1.309 1.982-1.309.92-1.688 1.836-1.863 1.836-1.863.426-.335.852-.969.852-.969l.431-.743.483-.131.039-.268.244.084.193-.533.658-.029.116-.401.505.234.624-.268.054.309-.144.151.312.061.221.129-.074.132-.362-.091-.275.075-.262-.152.028.251-.243-.083.012.18-.182.015-.365.022-.084.242-.31-.062-.035.157-.172-.101c-.121.107-.194.53-.194.53-.396.183-1.412 1.64-1.412 1.64-.912 1.476-2.609 2.29-2.609 2.29-.33.571-.93 1.103-.93 1.103-.412.113-1.724 1.166-1.724 1.166-.34.442-.829.608-1.073.666q.048.14.069.286c2.054-.265 5.041-.611 5.283-.426 0 0 1.496.578 1.109 1.605 0 0 .557.234-.351.239 1.871.236 3.392.492 3.623.725 0 0 3.816 2.944 2.863 4.619 0 0-.098.17-.375.283.064.045 3.709 2.87 2.379 6.296" style="fill:#f5a91e;fill-opacity:1;fill-rule:nonzero;stroke:#dd9b1e;stroke-width:.55;stroke-linecap:butt;stroke-linejoin:miter;stroke-miterlimit:2;stroke-dasharray:none;stroke-opacity:1" transform="scale(1.67927 -1.67927)rotate(30 58.861 55.383)"/>
    <path d="m0 0-.238-.252c-5.336-5.706-9.155.729-9.155.729a8 8 0 0 0-.152 1.484 7.9 7.9 0 0 0 .373 2.474s.076-5.414 4.483-2.41c0 0 3.933-2.745 4.414 1.805l.111.634s.103-.242.162-.516h.006A7.7 7.7 0 0 0 .25 2.052 7.6 7.6 0 0 0 0 0m3.809-4.952-.305-.005.15.204-.254.05.102.152-.154.099-.305.2.049.256-.305.099.049.152-.203-.002c-.053.148.097.557.097.557-.255.352-.421 2.122-.421 2.122C2.238.664 1.16 2.208 1.16 2.208c-.004.658-.265 1.416-.265 1.416-.305.301-.926 1.865-.926 1.865a1.8 1.8 0 0 1-.147.479 3.1 3.1 0 0 0-.547-.926.3.3 0 0 0 .049-.041c-3.465-2.526-6.666-.81-7.879.041-.33.08-.533.363-.687.716a5 5 0 0 0-.137.344 1.7 1.7 0 0 1-.209-.622s-.592-1.575-.894-1.879c0 0-.245-.763-.239-1.42 0 0-1.05-1.567-1.086-3.3 0 0-.134-1.773-.384-2.127 0 0 .156-.406.107-.559l-.203-.003.053-.15-.303-.103.051-.253-.299-.205-.151-.102.102-.15-.254-.054.154-.198-.304-.006-.2-.204-.353-.104.002-.152.254.004.299.101-.047-.202.205-.238.4.548.555.053-.104.406.553.361-.107.555.256.05-.104.256.35.355-.008.861s.043.759.242 1.268c0 0 .705.612.635 2.535 0 0 .176.615.486 1.249a7 7 0 0 1-.021-.666l.002-.068q-.002-.023 0-.053c.029-3.487 2.42-6.295 5.338-6.267C-1.691-4.355.65-1.504.619 1.982l-.002.065v.073c.158-.385.248-.672.248-.672-.031-1.923.682-2.522.682-2.522.207-.507.264-1.266.264-1.266l.007-.859.358-.351-.098-.255.254-.048-.098-.556.561-.35-.098-.406.557-.045.412-.542.197.243-.05.2.302-.099.256.005-.004.15-.355.099z" style="fill:#f5a91e;fill-opacity:1;fill-rule:nonzero;stroke:#dd9b1e;stroke-width:.55;stroke-linecap:butt;stroke-linejoin:miter;stroke-miterlimit:2;stroke-dasharray:none;stroke-opacity:1" transform="scale(1.67927 -1.67927)rotate(30 86.896 49.552)"/>
</svg>
