<svg xmlns="http://www.w3.org/2000/svg" width="89.877" height="100" viewBox="0 0 23.78 26.458">
    <path d="M0 0a6.9 6.9 0 0 1 3.592 1.708 7 7 0 0 1 1.342 1.671c.326.572 11.761 19.972 12.074 20.942a6.85 6.85 0 0 1 .105 3.877 7 7 0 0 1-.674 1.657c-.283.496-11.474 20.355-12.078 21.052a6.87 6.87 0 0 1-5.197 2.385c-.607 0-23.293.147-24.033.032a6.88 6.88 0 0 1-4.918-3.376c-.324-.569-11.76-19.973-12.072-20.929a6.9 6.9 0 0 1 .564-5.557c.285-.498 11.469-20.347 12.078-21.05a6.87 6.87 0 0 1 3.274-2.1 6.8 6.8 0 0 1 1.916-.278C-23.422.034-.73-.112 0 0" style="fill:#e3d2a2;fill-opacity:1;fill-rule:nonzero;stroke:none" transform="scale(.4443 -.4443)rotate(30 112.479 71.57)"/>
    <path d="M0 0s3.301-.823 5.775-5.866 8.709-11.917 8.161-18.059c0 0 .183-4.857-5.227-13.566 0 0-5.959-10.633-9.166-10.45 0 0 4.398-.917 8.707 6.233 0 0 8.436 13.475 8.436 14.85 0 0 1.923 2.475.089 6.142 0 0-8.525 15.032-9.533 15.582C7.242-5.134 4.4.092 0 0" style="fill:#ebe5b1;fill-opacity:1;fill-rule:nonzero;stroke:none" transform="scale(.4443 -.4443)rotate(30 19.223 42.707)"/>
    <path d="M0 0s-3.066-.831-5.365-5.919c-2.299-5.089-8.088-12.024-7.576-18.222 0 0-.172-4.902 4.853-13.689 0 0 5.535-10.729 8.514-10.544 0 0-4.086-.925-8.09 6.289 0 0-7.832 13.596-7.832 14.983 0 0-1.787 2.498-.084 6.199 0 0 7.918 15.167 8.855 15.723C-6.725-5.18-4.088.093 0 0" style="fill:#ebe5b1;fill-opacity:1;fill-rule:nonzero;stroke:none" transform="scale(.4443 -.4443)rotate(30 29.442 .895)"/>
</svg>
