<?xml version="1.0" encoding="UTF-8" standalone="no"?>
<!-- Created with Inkscape (http://www.inkscape.org/) -->

<svg
   width="59.472351mm"
   height="21.294014mm"
   viewBox="0 0 59.472351 21.294014"
   version="1.1"
   id="svg1"
   inkscape:version="1.3.2 (091e20ef0f, 2023-11-25)"
   xmlns:inkscape="http://www.inkscape.org/namespaces/inkscape"
   xmlns:sodipodi="http://sodipodi.sourceforge.net/DTD/sodipodi-0.dtd"
   xmlns="http://www.w3.org/2000/svg"
   xmlns:svg="http://www.w3.org/2000/svg">
  <sodipodi:namedview
     id="namedview1"
     pagecolor="#ffffff"
     bordercolor="#666666"
     borderopacity="1.0"
     inkscape:showpageshadow="2"
     inkscape:pageopacity="0.0"
     inkscape:pagecheckerboard="0"
     inkscape:deskcolor="#d1d1d1"
     inkscape:document-units="mm"
     inkscape:zoom="2.587169"
     inkscape:cx="121.94797"
     inkscape:cy="71.31347"
     inkscape:window-width="3840"
     inkscape:window-height="2160"
     inkscape:window-x="0"
     inkscape:window-y="0"
     inkscape:window-maximized="1"
     inkscape:current-layer="layer1" />
  <defs
     id="defs1" />
  <g
     inkscape:label="Layer 1"
     inkscape:groupmode="layer"
     id="layer1"
     transform="translate(-43.391666,-137.85299)">
    <g
       id="ladybug"
       transform="matrix(0.26458333,0,0,0.26458333,46.19241,119.12349)">
      <path
         style="fill:#d61a35;fill-opacity:1;fill-rule:nonzero;stroke:none;stroke-width:3.39044"
         d="m 111.5362,70.794356 c -0.066,-0.03095 -0.14699,0.06189 -0.4158,0.341431 -0.36516,0.384755 -0.26614,1.018102 -0.60767,1.412554 -0.60529,0.704523 -0.72081,0.121719 -1.36993,0.09284 -0.67276,-0.03095 -1.35744,1.185828 -1.98295,1.641757 -0.77755,0.561143 -1.54032,1.179122 -1.91897,2.100263 -0.73372,1.801848 0.0536,3.198311 0.73031,4.850692 0.60179,1.482387 1.24106,2.978597 1.67378,4.525558 0.29408,1.040488 -0.0113,1.414618 -1.07677,1.727165 -1.01427,0.299139 -1.33632,-0.07221 -2.17484,-0.693176 -1.38621,-1.02326 -3.81186,-2.673373 -5.597019,-2.564032 -0.679558,0.04126 -1.475254,0.995409 -2.110892,0.943834 -0.324201,-0.03095 -0.648612,-0.614781 -0.852853,-0.948993 -0.0079,-0.01032 -0.01342,-0.02062 -0.02169,-0.03095 -0.295629,-0.534324 -0.390425,-0.778793 -0.884828,-1.172728 -0.231577,-0.185672 -0.487702,-0.315643 -0.698337,-0.538449 -0.01238,-0.08251 -0.05674,-0.147507 -0.04845,-0.239312 0.05883,-0.608592 0.529679,-1.395017 0.671619,-1.839084 0.378668,-1.189851 0.599821,-2.198569 0.724944,-3.432774 0.0712,-0.697303 0.508128,-1.650524 0.159987,-2.324103 -0.131823,-0.255815 -0.695759,-0.738563 -0.959509,-0.810768 -0.510499,-0.138223 -0.09387,-0.07221 -0.645006,0.103151 -1.220505,0.394038 -1.213333,1.362628 -0.303889,1.940276 0.07844,0.05158 0.239934,0.08252 0.38909,0.117593 -0.255097,0.469338 0.118316,0.765382 0.389186,0.698333 -0.188658,0.216618 -0.538856,0.427047 -0.629015,0.61272 -0.37526,0.775697 -0.34659,1.878695 -0.698233,2.745166 -0.229922,0.567332 -0.443243,1.155295 -0.703594,1.716438 -0.456443,0.986126 -0.78807,1.235649 -1.849669,1.204705 -0.80468,-0.03095 -1.564907,0.04126 -2.35608,0.250657 -1.849391,0.489969 -2.7567,1.855589 -3.88593,3.320958 -0.703183,0.914952 -1.123967,1.504153 -2.361423,1.375213 -0.767452,-0.08252 -1.570145,-0.260973 -2.324089,-0.420857 -0.642323,-0.136161 -1.414803,-0.275416 -1.945624,-0.693178 -0.398989,-0.312548 -1.464475,-2.257055 -1.924308,-2.100161 v -0.0054 c -2.351906,0.801485 -0.464704,2.507608 0.895554,3.182322 1.109649,0.616844 2.431025,0.91392 3.736679,1.332611 -0.436635,-0.206303 -0.874623,-0.412606 -1.311301,-0.617877 1.13818,0.235186 2.281433,0.467276 3.390194,0.777761 -0.01857,0.178453 0.02475,0.325959 0.207847,0.420858 -0.222801,1.024293 0.470787,2.072001 1.034122,2.873177 -1.156281,0.673579 -2.250567,1.346745 -2.585295,2.761153 -0.253546,1.081239 0.2588,2.023627 -0.03199,3.118372 -0.233329,0.870592 -0.05264,0.692142 0.170611,1.471238 0.131421,0.45903 -0.147404,0.99954 -0.04226,1.46589 0.213425,0.98303 0.705249,0.51161 0.04226,1.2047 -0.483468,0.50338 -1.354673,0.48894 -1.716426,1.09805 -0.601783,-1.04719 -1.516682,-1.5974 -2.233452,-2.53195 -0.395486,-0.50958 -0.574759,-1.20894 -1.007481,-1.684456 -0.348237,-0.38373 -0.860793,-0.564238 -1.188681,-0.975815 -0.591683,-0.744756 -0.42406,-1.06473 -1.316626,-1.343237 -0.551134,-0.174326 -1.173648,-0.258908 -1.748416,-0.341431 -1.021094,-0.139258 -1.802425,-0.0028 -2.755853,0.442518 -0.42261,0.197019 -0.949403,0.641594 -1.412585,0.713802 -0.202795,0.03095 -0.552993,-0.152658 -0.735571,-0.09284 -0.513901,0.176385 -0.574966,0.862343 -0.943525,1.151373 -0.52401,0.41158 -1.029966,0.0825 -1.540503,0.22899 -1.35579,0.38785 -0.339059,2.002676 0.431791,2.590646 1.436928,1.09825 3.584085,-0.78808 4.7708,-1.60452 0.686369,-0.468296 1.225521,-1.058226 1.945635,-0.538436 0.371957,0.265086 0.678216,0.950006 0.91144,1.348586 0.747226,1.27846 1.62028,2.11811 2.729223,3.09702 2.045482,1.80783 5.682458,2.05941 8.363561,1.8923 3.252452,-0.20733 6.37027,-0.58279 9.402972,-1.83372 0.807982,-0.33317 3.41828,-1.56532 4.141803,-1.13001 0.03817,0.0207 0.04122,0.0619 0.07424,0.0928 -0.256335,-0.0928 -0.553713,-0.10521 -0.735575,0.0722 0.165452,0.28883 0.617878,1.1523 1.082112,0.59725 0.10006,1.28186 -1.702647,3.40183 -1.839027,4.20569 -0.378668,2.18958 1.67884,4.2555 3.795295,4.30707 1.3152,0.031 1.3914,-0.71896 2.15886,-1.41255 0.74711,-0.67358 1.7956,-0.20114 2.57994,-0.77775 1.67356,-1.2308 1.33143,-5.162 -0.501,-6.1141 -0.12503,-0.0619 -0.27139,-0.0619 -0.40519,-0.0928 -0.0517,-0.0516 -0.0938,-0.13615 -0.14925,-0.16504 -0.62551,-0.33008 -2.0066,-0.0722 -2.71322,-0.0619 -0.17576,0.003 -0.23982,0.031 -0.31987,0.0516 -0.11965,-0.0412 -0.24735,-0.0309 -0.36247,-0.0928 -0.912888,-0.48585 -1.225962,-1.2569 -0.772914,-2.14814 0.767444,-1.51982 2.796464,-2.653138 3.939234,-3.91798 1.07511,-1.183255 2.12964,-2.418795 2.98508,-3.768635 1.51126,-2.386819 3.56642,-5.32364 3.51279,-8.278204 -0.031,-1.533344 -0.39023,-3.558411 -0.86358,-5.000054 -0.21631,-0.656042 -1.52839,-2.345353 -1.22067,-3.011709 0.17919,-0.391975 1.73698,-1.00882 2.10554,-1.225955 1.05485,-0.618907 1.80473,-1.118366 2.42004,-2.196194 0.0464,-0.08252 0.096,-0.172262 0.14926,-0.255815 0.0134,-0.01032 0.0186,-0.03095 0.0268,-0.05158 0.337,-0.530197 0.72103,-1.105575 0.27716,-1.695085 -0.0773,-0.105214 -0.5238,-0.255815 -0.65562,-0.405385 -0.1149,-0.132034 -0.10851,-0.584868 -0.25056,-0.703491 -0.19608,-0.16298 -0.24807,-0.303266 -0.31451,-0.330086 z m 9.63218,12.782513 c -0.76209,-0.0025 -1.67729,0.548764 -1.64711,1.071432 0.007,0.135128 0.066,0.191861 0.10656,0.277477 -0.0186,-0.0059 -0.0722,-0.03094 -0.0857,-0.03094 0.064,0.112435 0.61106,1.313425 1.02346,0.858219 0.0847,-0.09284 0.066,-0.179483 0.0371,-0.260972 0.099,0.04126 0.2,0.08251 0.26653,0.181546 0.612,0.866471 -0.59631,0.850998 -0.82624,1.353964 -0.24313,0.533293 0.33236,1.127444 0.0216,1.780392 -0.33133,0.693176 -0.68162,0.88607 -0.91155,1.769767 -0.19268,0.737532 -0.28831,1.051732 -1.02872,1.290011 -1.0312,0.330084 -2.3229,-0.482748 -3.27294,-0.112435 -0.99479,0.386816 -0.65603,1.632472 -1.75372,1.727063 -0.9258,-0.08252 -1.67102,-0.603435 -2.56397,-0.560112 -0.006,-1.04e-4 -0.0113,0.0055 -0.0154,0.0054 -0.15843,0.0096 -0.3079,-0.01032 -0.47975,0.04126 -0.065,0.02062 -0.10841,0.06189 -0.17061,0.09284 -0.0495,0.02062 -0.0928,0.0039 -0.1439,0.03095 -0.6153,0.269226 -1.16043,0.655011 -1.68443,1.066172 -0.099,0.08251 -0.1568,0.181547 -0.2452,0.266131 -0.029,0.02062 -0.0568,0.04126 -0.0857,0.07221 -0.008,0.02062 -0.009,0.02062 -0.0164,0.04126 -1.08368,1.119507 -1.40233,2.710515 -2.2708,4.061901 -0.81819,1.268239 -1.79452,2.224665 -3.1503,2.883785 0.0959,0.0516 0.24293,0.1176 0.3465,0.17021 l -0.0691,0.0412 c 0.0763,0.031 0.1276,0.005 0.19722,0.0207 1.79433,0.8974 4.47102,1.77698 4.8401,3.91262 0.18258,1.0472 -0.28398,2.74126 -0.73031,3.67272 -0.36516,0.75093 -1.98774,2.1346 -2.00426,2.93702 -0.007,0.3435 0.56404,1.05452 0.71959,1.34334 0.54433,1.00675 1.08489,2.00496 1.62579,3.0117 1.43018,2.65203 2.86093,5.30641 4.29106,7.95845 1.61623,2.99726 3.2684,5.9482 4.94138,8.89121 0.0959,0.23312 0.19919,0.42086 0.30915,0.56011 0.17515,0.3074 0.34102,0.62097 0.51699,0.92734 0.70999,1.2307 1.34696,2.58404 2.6013,3.34221 1.18671,0.72102 2.38803,-0.49307 3.39553,-1.17274 1.2036,-0.81592 2.15967,-1.17312 3.0117,-2.44128 0.60859,-0.90052 1.10383,-1.96421 1.52986,-2.96384 0.48347,-1.12868 1.22599,-2.51297 1.16205,-3.78462 -0.0248,-0.50441 -0.15308,-0.69525 -0.34113,-0.74682 -0.0341,-0.0412 -0.0742,-0.0722 -0.13326,-0.0928 -0.20341,-0.0619 -0.42798,0.0825 -0.66626,0.25064 -0.45067,0.16504 -0.95715,0.3208 -1.41258,-0.12274 -1.07186,-1.0438 -1.17681,-2.90918 -0.94353,-4.29636 0.32461,-1.92397 1.87126,-1.69035 3.26761,-1.23131 0.0207,-1.2274 -0.18857,-2.15401 1.26864,-2.48399 0.0578,0.95517 -0.34246,2.8742 0.4318,3.44877 0.63221,0.46932 2.16148,0.87678 2.94244,0.94898 1.04134,0.10316 1.65227,-0.37651 2.62261,-0.52195 0.97705,-0.14956 1.60373,0.20322 2.56397,-0.17019 0.69307,-0.2682 1.41406,-0.53639 1.99892,-1.01294 0.49028,-0.39404 1.02862,-0.85616 0.85286,-1.60443 -0.10109,-0.42189 -1.24453,-1.29289 -1.71108,-1.22069 -0.59116,0.0928 -0.3568,0.66842 -0.5597,1.17799 -0.38878,0.97581 -0.57806,0.39816 -1.42325,0.50132 -0.0938,0.0102 -0.15597,0.0412 -0.23457,0.0722 -0.99995,-0.0722 -2.22611,0.0826 -2.75054,0.18154 -0.23952,-0.0825 -0.48006,-0.14442 -0.79952,-0.1176 -0.33194,0.031 -0.46552,0.0928 -0.60767,0.14339 -0.19949,-0.11347 -0.40135,-0.30637 -0.69834,-0.70351 -0.16926,-0.2259 -0.2885,-0.50027 -0.42642,-0.75711 -0.035,-0.0928 -0.0722,-0.21766 -0.10656,-0.29295 -0.24581,-0.53228 -0.53906,-0.99646 -0.90617,-1.41793 -0.098,-0.1341 -0.18805,-0.27645 -0.30389,-0.39404 -0.31441,-0.31977 -0.89143,-0.71072 -1.26333,-0.94899 -0.25694,-0.16608 -0.82831,-0.3012 -1.00747,-0.44768 -0.11636,-0.0928 -0.1995,-0.22178 -0.27192,-0.3569 -0.12182,-0.4972 -0.0537,-1.0835 -0.13326,-1.61515 -0.14544,-0.94486 -0.36217,-1.89376 -0.56506,-2.8252 -0.74043,-3.38976 -2.24532,-6.55867 -4.21642,-9.39761 -1.11911,-1.60823 -2.22072,-3.467924 -3.64074,-4.834794 -0.53421,-0.512664 -1.24391,-0.809734 -1.83902,-1.257928 -0.28387,-0.210429 -1.87396,-1.269797 -1.16737,-1.460629 0.94671,-0.254783 1.45205,1.594108 2.53732,1.060811 0.49988,-0.247558 0.34536,-0.524005 0.56506,-0.970656 0.23664,-0.475527 0.43015,-0.536386 0.81551,-0.90051 0.72352,-0.673579 0.74374,-1.202229 0.86886,-2.212081 0.0537,-0.426015 0.0238,-0.846873 0.17587,-1.258033 0.17917,-0.485843 0.60529,-0.817991 0.76754,-1.31126 0.28099,-0.857188 0.0517,-2.279541 -0.0165,-3.176957 -0.0403,-0.567334 -0.11955,-1.305587 -0.65038,-1.737791 -0.17835,-0.145444 -0.41764,-0.207334 -0.67161,-0.208366 z m -21.444561,2.046933 c 0.455311,0.05158 0.903711,0.227966 1.305971,0.464182 -0.25344,0.111404 -0.48656,0.221775 -0.23982,0.191861 0.15049,-0.02062 0.24178,-0.08251 0.33586,-0.138222 0.0454,0.03095 0.10005,0.04126 0.14389,0.07221 0.42602,0.296044 0.84739,0.748879 1.08744,1.215432 0.48348,0.924237 -0.0165,0.855126 -0.82089,1.46052 -0.99396,0.747848 -1.0085,1.285988 -2.489337,1.071434 -0.879049,-0.125849 -2.106151,-0.411577 -2.883791,-0.799427 -0.169059,-0.08251 -1.055437,-0.09284 -1.055437,-0.09284 0.297484,-0.537419 0.958586,-0.587962 1.391238,-0.975813 0.253546,-0.227963 0.380114,-0.529165 0.586419,-0.794265 0.327915,-0.428078 0.704002,-0.967559 1.130051,-1.300531 0.429419,-0.335242 0.964572,-0.43633 1.508529,-0.378567 z M 88.311223,93.48084 c 0.122028,0.293982 -0.842954,1.843937 -0.879467,2.21218 -0.08558,0.870599 0.422613,1.622782 0.239828,2.393425 -0.241371,0.352769 -0.465009,0.709684 -0.575691,0.863374 -0.227132,0.187745 -0.473462,0.331115 -0.740934,0.432205 -0.177216,0.005 -0.36557,-0.0206 -0.666356,0.0413 -0.525558,0.11657 -1.003665,0.54877 -1.48186,0.868536 -0.0087,0.006 -0.01857,0.01 -0.02684,0.0207 -0.08973,0.0619 -0.186497,0.0928 -0.277162,0.15472 -0.134515,0.0722 -0.268918,0.14133 -0.405081,0.16505 -0.236213,0.0413 -0.486151,-0.0517 -0.724943,-0.19186 -0.01752,-0.0928 -0.01342,-0.13719 -0.0691,-0.27747 -0.142036,-0.361036 -0.369901,-0.573526 -0.399817,-0.937646 -0.03094,-0.358972 0.01342,-0.792211 0.06396,-1.22606 0.04122,0.0039 0.08148,0.0079 0.122647,0.01032 l -0.08558,-0.410535 c 0.01857,-0.186713 0.04645,-0.386826 0.04845,-0.554955 0.007,-0.758163 0.173294,-1.263813 0.437053,-1.977625 1.068404,-0.768474 2.181244,-0.637471 3.384879,-0.980965 0.145339,-0.04126 0.415494,-0.187735 0.650365,-0.309454 0.239829,0.04126 0.706895,0.03095 0.756924,0.02062 0.233225,-0.06189 0.432209,-0.185672 0.629016,-0.31461 z M 118.114,99.904174 c 0.22911,-0.0413 0.44429,-0.0516 0.61839,0 0.82501,0.244456 1.35656,1.507446 1.54584,2.238796 0.17844,0.68905 0.49729,1.66909 0.46913,2.484 -0.0578,0.22382 -0.1047,0.43632 -0.13327,0.63437 -0.16928,0.4291 -0.51473,0.75712 -1.19936,0.83655 -0.43282,0.0516 -1.86099,-0.0516 -2.18549,-0.30944 -0.4057,-0.3301 -0.48182,-1.32241 -0.79963,-1.81238 -0.7168,-1.11187 -0.64749,-1.8856 -0.24519,-3.11301 0.40569,-0.33729 1.24246,-0.82417 1.92963,-0.959296 z m -23.459488,6.268606 c -0.798284,-0.0412 -2.256021,0.97273 -2.862475,1.23132 -0.814797,0.35071 -1.464989,0.45902 -2.350747,0.46933 -0.476661,0 -0.976537,-0.002 -1.449877,-0.0619 -0.459746,-0.0619 -0.927946,-0.31564 -1.35395,-0.33627 -0.821603,-0.0412 -1.819134,0.70659 -2.542647,1.0768 -0.858736,0.43839 -1.319067,0.97374 -1.471211,1.99361 -0.07425,0.48584 0.24457,1.23553 -0.08043,1.64711 -0.290783,0.37754 -0.811077,0.18877 -1.210022,0.33524 -0.811391,0.30224 -1.276348,1.21833 -1.705768,1.9084 -0.365151,0.58178 -0.416628,1.13302 -0.676979,1.70035 -0.211873,0.46728 -0.423746,0.5756 -0.831608,0.68803 -0.589303,-0.33628 -1.315884,-0.61788 -1.545841,-0.68184 -0.517304,-0.14235 -1.114233,-0.15988 -1.604479,-0.26097 -0.466553,-0.0928 -0.776629,-0.35175 -1.439229,-0.21868 -0.123683,0.0309 -0.295636,0.0928 -0.463772,0.15989 -0.05159,-0.0102 -0.115736,-0.0207 -0.165243,-0.0412 -1.393,-0.36001 -0.07844,-1.64393 -1.066113,-2.08965 -0.392182,-0.17741 -1.748581,0.37651 -1.84967,0.85307 -1.463953,1.02016 0.957246,2.2817 1.609791,2.7985 0.868947,0.69317 1.079539,0.91287 2.21216,0.81077 0.804688,-0.0722 1.492317,0.17122 2.286783,0.39919 0.649137,0.1836 1.462366,0.54464 2.158866,0.41569 0.392183,-0.0722 0.670896,-0.38475 1.039446,-0.48995 0.47666,-0.13514 0.887205,0.16193 1.316626,0.0825 0.953426,-0.17638 0.605085,-1.03048 0.591674,-1.77502 -0.01342,-0.71794 0.155037,-1.13436 0.442413,-1.76977 1.278073,1.93801 0.458509,4.93136 0.911553,7.18552 0.791172,3.94739 3.374586,7.42422 6.130057,10.26655 0.07739,0.0825 0.157513,0.15884 0.234566,0.2393 1.026767,1.23153 3.365741,3.67931 4.498945,3.89665 0.131823,0.13513 0.270147,0.27129 0.298521,0.38888 0.111605,0.46212 -0.565068,1.33189 -0.501009,1.97761 0.08148,0.78911 0.474805,1.3061 0.900817,1.94564 0.148024,0.22075 0.288413,0.41673 0.431791,0.62406 0,0 -0.0052,0.006 -0.0052,0.006 0.113671,0.10314 0.165347,0.23209 0.250548,0.34659 0.117287,0.16502 0.24138,0.34039 0.362475,0.50132 0.188668,0.32285 0.397648,0.63643 0.740936,0.90049 0.07529,0.0826 0.133687,0.17331 0.213214,0.26099 -1.244139,0.86646 -1.598937,1.71653 -1.977587,3.13435 -0.602611,0.29088 -1.255433,2.1408 -1.796397,2.53195 -0.144617,-0.0825 -0.27325,-0.1702 -0.474396,-0.24034 -0.134201,-0.35897 -0.242922,-0.85616 -0.927536,-0.55392 -0.63562,0.2785 -0.503588,1.05369 -0.23983,1.60451 0.10006,0.20941 0.210846,0.36619 0.330505,0.49616 -0.02169,0.45078 0.01133,0.90464 0.346483,0.68183 0.126151,-0.0825 0.150394,-0.22178 0.13863,-0.36826 0.670696,0.22798 1.490042,-0.21454 2.270784,-0.69316 1.021102,-0.62613 1.42288,-1.62361 2.041594,-2.60664 0.547737,-0.86337 1.157135,-1.6141 1.583139,-2.5693 0.273963,-0.61581 1.317906,-2.31151 1.098094,-2.98509 -0.0027,-0.009 -0.01342,-0.0102 -0.01646,-0.0207 0.131831,-0.10522 0.221058,-0.20424 0.186601,-0.25581 -0.07939,-0.12379 -0.362056,-0.21972 -0.676978,-0.31462 -0.59828,-0.41879 -1.501485,-0.67358 -1.73775,-1.24204 -0.642322,-1.53417 1.353365,-0.40538 1.759056,-0.0619 -0.162253,-1.42121 1.22719,-2.9338 2.606604,-2.9957 0.51721,-0.0207 1.28826,0.36825 2.0096,0.87988 -0.10643,0.0825 -0.21453,0.17845 -0.31449,0.35173 0.90608,0.74064 1.39833,1.12735 1.64179,2.28677 0.17917,-0.21455 0.30801,-0.41467 0.39444,-0.60756 0.067,0.24859 0.0938,0.49202 0.0217,0.72 -0.19269,0.60859 -1.64372,1.09443 -1.6471,1.71643 -0.004,0.72103 1.31785,0.89123 1.82834,0.99644 1.27126,0.25891 2.49169,0.57353 3.78998,0.67667 1.73442,0.13616 3.2136,0.0928 4.76544,-0.73547 1.03121,-0.55392 2.48142,-1.27856 3.29961,-2.08416 1.10893,-1.09145 -0.58292,-1.9967 -0.72495,-3.20367 -0.0814,-0.66945 0.12181,-0.61375 -0.10109,-1.18871 -0.61529,-1.5844 -1.80594,-3.12415 -2.65457,-4.58952 -1.39297,-2.41064 -2.7881,-4.82293 -4.18445,-7.23348 -2.02519,-3.49859 -4.15689,-6.95529 -6.08739,-10.51174 -0.13193,-0.24137 -0.13698,-0.59416 -0.38384,-0.75713 -0.54092,-0.35381 -1.97493,0.19702 -2.617251,0.17638 -1.714163,-0.0413 -3.620223,-0.79942 -4.610894,-2.24404 -0.487293,-0.70969 -1.136525,-2.04778 -1.194033,-2.9585 -0.0017,-0.0412 8.72e-4,-0.0826 0,-0.12275 8.72e-4,-0.83862 0.656248,-1.72798 1.098095,-2.40404 -0.08252,-0.0517 -0.184432,-0.0826 -0.298521,-0.0928 z m 21.567178,6.85503 c 0.87864,-0.12585 1.78525,0.67977 2.40405,1.3486 0.13893,0.23724 0.30481,0.4879 0.38918,0.67667 0.0113,-0.0619 0.0196,-0.11553 0.032,-0.17536 0.1507,0.22281 0.27232,0.46211 0.36783,0.72 -0.21507,1.1127 -0.0887,2.19929 -0.33049,3.2143 -0.38878,1.62515 -1.18396,2.60796 -2.83051,2.87318 -0.1803,0.0309 -0.3798,0.0825 -0.57568,0.1279 -0.1702,-0.0207 -0.33215,-0.031 -0.5171,-0.0722 -1.06031,-0.2259 -1.1469,-0.7334 -1.18869,-1.40193 0.006,-0.0619 0.0268,-0.0928 0.0268,-0.15472 0,-0.81593 -0.53195,-1.54593 -0.61303,-2.33473 -0.0422,-0.3992 -0.002,-0.69318 -0.0268,-0.97065 0.13925,-0.63335 0.36846,-1.27991 0.41043,-1.96163 0.37187,-0.88091 1.48849,-1.76028 2.45202,-1.89232 z m 3.29958,2.87317 c 0.0341,0.12379 0.0536,0.24654 0.0743,0.37341 -0.0227,-0.12275 -0.0557,-0.24757 -0.0743,-0.37341 z m -32.425385,2.35609 c 0.195786,-0.0207 0.409925,-0.009 0.660995,0.0619 0.838415,0.22075 1.605214,0.93146 2.142848,1.60452 0.04226,0.0517 0.08462,0.12482 0.127902,0.18155 0.164738,0.3992 0.294705,1.04616 0.623657,0.88504 0.66429,1.0639 1.112211,2.30356 0.415798,3.22491 -0.643968,0.37239 -1.235599,0.70968 -2.094883,0.54361 -0.561557,-0.10728 -1.337288,-0.28469 -1.908326,-0.54361 -0.323173,-0.26921 -0.628701,-0.56835 -0.916808,-0.87368 -0.247768,-0.26097 -0.408993,-0.51989 -0.5597,-0.77776 -0.22064,-0.60653 -0.326373,-1.26938 -0.421169,-1.94029 0.03511,-0.49718 0.11646,-1.01294 0.271813,-1.59915 0.659341,-0.28056 1.070286,-0.69008 1.657785,-0.76228 z m 12.638601,5.18118 c 0.518544,-0.0207 1.054074,0.0517 1.444564,0.14337 1.40309,0.31669 1.86466,1.24102 2.75053,2.1962 0.31452,0.33629 1.07559,0.59725 1.29531,0.95416 0.16227,0.26199 0.0207,0.90669 -0.0268,1.23668 -0.17474,1.21739 -0.40981,1.49497 -1.3646,2.00423 -0.4221,0.10315 -0.83357,0.28985 -1.24734,0.458 -0.60046,0.12377 -1.24083,0.1279 -1.86566,0.0207 -0.30594,-0.10833 -0.61158,-0.20527 -0.858218,-0.26614 -0.135335,-0.031 -0.240649,-0.0825 -0.35174,-0.12276 -0.120594,-0.0619 -0.244268,-0.11139 -0.357121,-0.18154 0,0 -0.0052,0 -0.0052,0 0,0 -0.0052,-0.005 -0.0052,-0.005 -0.117698,-0.0722 -0.217547,-0.17022 -0.325135,-0.25582 -0.22363,-0.2094 -0.424775,-0.45181 -0.676979,-0.78396 -0.105523,-0.13823 -0.201975,-0.28882 -0.303785,-0.4322 -0.413733,-0.68802 -0.904843,-1.55439 -0.884826,-2.27077 0.02065,-0.88092 0.927222,-1.68323 1.44457,-2.28151 v -0.006 c 0.317807,-0.28056 0.819434,-0.38681 1.337946,-0.40539 z"
         id="path61054-2" />
    </g>
    <g
       id="mosquito"
       transform="matrix(0.26458333,0,0,0.26458333,65.916819,119.70953)">
      <path
         style="fill:#cac9c7;fill-opacity:1;fill-rule:nonzero;stroke:none;stroke-width:3.59527"
         d="m 106.35312,70.623195 c -0.17464,-0.02038 -0.36933,0.04076 -0.56348,0.163062 -1.27992,1.527983 -1.83851,3.293525 -1.81695,5.303354 0.002,0.16001 0.0275,0.510585 0.0418,0.794923 -0.0377,0.428036 -0.0866,0.851994 -0.10548,1.290322 -0.0286,0.714409 0.5386,4.614422 1.41668,3.575926 0.19517,0.0024 0.40908,-0.206883 0.64247,-0.806133 -0.11325,-0.03058 -0.1917,-0.101924 -0.28435,-0.152861 0.16414,-1.823123 -0.57366,-3.679368 -0.4845,-5.582495 0.1489,-0.556445 0.28689,-1.120839 0.28965,-1.595755 0.18818,-0.544215 0.43435,-1.043895 0.79521,-1.643144 0.24083,-0.402558 0.89533,-0.339372 0.5214,-1.000787 -0.12048,-0.209942 -0.27813,-0.323064 -0.45289,-0.347525 z M 84.1548,78.575578 c 0.07746,0.207903 0.176922,0.409691 0.258044,0.616574 0.87635,3.145651 2.529841,5.805888 4.092071,8.689722 1.290722,2.380081 2.580187,4.759644 3.87089,7.13616 0.424877,0.783713 0.873605,2.279796 1.748487,2.849187 -0.495703,0.520776 -2.061206,2.421459 -1.469359,3.244199 -0.08865,0.0408 -0.174253,0.0714 -0.263362,0.14777 -0.09895,0.0408 -0.194841,0.0816 -0.294931,0.16815 -0.140317,1.01403 0.0265,2.16036 0.637259,3.01245 0.280481,0.39236 0.535052,0.82957 1.074394,0.9162 -0.361697,-0.051 1.282925,-0.32409 1.506212,-0.30065 -1.298864,0.51874 -2.320163,1.54552 -2.333069,3.08094 0.0038,0.13351 0.278536,0.98144 0.605668,1.04279 0.02859,0.005 0.0366,-0.007 0.06329,-0.005 -0.0096,0.0612 -0.03965,0.12735 -0.04175,0.1794 h -0.0057 c -0.172155,0.0408 -0.385527,0.22524 -0.716243,0.28434 -0.06521,0.01 -0.124494,0.0204 -0.189504,0.0408 0.13822,-0.14985 0.243876,-0.31085 0.268545,-0.48512 0.186835,-1.33383 -4.697653,-0.38421 -5.524577,0.23747 0.0033,0.45351 0.299321,0.75517 0.726739,0.95287 -0.160906,0.01 -0.303701,0.0408 -0.468694,0.0509 -0.0079,0.0408 -0.01334,0.0917 -0.02141,0.1365 -0.09376,0.005 -0.173756,0.0305 -0.268644,0.0305 -0.03975,0.23032 -0.08152,0.46065 -0.121176,0.68996 1.092991,0 2.167004,-0.1346 3.259969,-0.10197 0.733477,0.0204 2.376003,0.48714 2.864995,0.11611 0.0408,-0.0305 0.04385,-0.0816 0.07855,-0.11611 0.06615,-0.0204 0.163767,-0.0204 0.210648,-0.0509 0.106003,-0.0816 0.145654,-0.19362 0.210665,-0.29451 -0.02746,0.69809 -0.06615,1.34311 0.874196,1.55354 0.151946,0.0408 1.020384,-0.13345 1.611563,-0.25274 -0.08255,0.0408 -0.168723,0.0305 -0.247537,0.10197 0.02859,0.35567 0.440663,1.46041 0.969081,2.42268 -0.112672,-0.0713 -0.216766,-0.1569 -0.337027,-0.22115 0.01907,0.15995 0.0978,0.30166 0.142223,0.45351 -0.142032,-0.10197 -0.277011,-0.1967 -0.431816,-0.27925 0.172536,1.53524 1.658329,2.61662 1.98548,4.37116 0.320003,1.69339 0.63522,3.39055 0.947994,5.08741 0.844846,4.54806 1.505376,8.70418 3.338966,12.96089 1.38777,3.21781 3.39471,5.19543 6.10914,7.33101 0.40624,0.32003 2.51689,2.44216 2.9124,1.9065 0.0244,-0.0305 0.0134,-0.0713 0.0317,-0.10197 0.11401,0.0204 0.2077,0.007 0.26334,-0.0713 0.16892,-0.22725 0.12869,-0.45351 0,-0.67975 0.052,-0.0509 0.0969,-0.0612 0.15805,-0.14165 0.2337,-0.32408 -0.114,-2.17962 -0.12105,-2.58595 -0.0551,-2.9085 0.84576,-7.44374 -1.06914,-9.91676 -0.23124,-0.62066 -0.49805,-1.21704 -0.8532,-1.75382 0.0509,0.34956 0.11591,0.69097 0.17367,1.03758 -0.14718,-0.29658 -0.2884,-0.5962 -0.46871,-0.86932 0.29841,2.0673 0.7716,4.05492 0.87952,6.16186 0.10791,2.11389 -0.13326,3.9527 0.23696,6.07749 0.0722,-0.37097 0.11076,-0.8041 0.17368,-1.20074 0.0326,0.34141 0.059,0.67771 0.12125,1.03219 0.0336,-0.16911 0.0478,-0.373 0.0795,-0.54728 0.002,0.28943 0.007,0.57987 0.01,0.86932 -2.31536,0.13345 -4.77099,-3.45721 -5.91427,-5.22967 -1.48485,-2.30458 -2.37911,-4.28913 -2.88604,-6.9676 -0.5321,-2.82584 -1.03206,-5.65149 -1.56417,-8.47378 -0.35403,-1.87498 -0.44892,-5.33097 -1.895927,-6.9308 0.04079,-0.0408 0.08657,-0.0408 0.126396,-0.0917 0.353019,-0.47694 -1.058762,-3.58743 -2.380445,-3.83395 0.0096,-0.004 0.0673,-0.007 0.0734,-0.01 1.118129,-0.53607 0.287286,-1.07478 0.758338,-1.73263 0.328868,-0.46065 0.857076,-0.5432 1.427223,-0.53708 -0.214418,0.10292 -0.518023,0.19873 -0.631955,0.28943 -0.0038,0.01 -0.0076,0.0204 -0.0096,0.0408 -0.07435,0.0408 -0.232971,0.0917 -0.284332,0.13154 -0.11496,0.4851 -0.229006,0.96918 -0.347627,1.45888 1.272729,-0.17635 1.936292,-0.81735 2.986099,0.19976 0.52853,0.51057 0.81094,1.5353 1.11653,2.16441 0.65794,1.34118 1.23166,2.67441 1.78535,4.06584 0.053,-0.20791 0.0988,-0.33632 0.15271,-0.50039 0.0448,0.1121 0.0969,0.21911 0.14222,0.33222 0.17788,-0.69402 0.38178,-1.07804 0.35814,-1.61155 0.26414,0.21299 0.629,0.27312 1.04802,0.33733 0.14071,0.0204 1.61628,-0.17425 2.02762,-0.4423 0.29322,0.54931 -0.69443,1.24701 -1.24289,1.3903 -0.49612,0.1325 -1.29654,-0.19365 -1.4799,0.0816 -0.29064,0.4311 0.35405,1.34209 0.82163,1.70632 -0.13936,-0.0408 -0.28188,-0.0612 -0.41081,-0.0408 0.0509,0.0713 0.0795,0.13764 0.12641,0.20587 -0.14299,-0.0408 -0.28403,-0.0612 -0.41611,-0.0408 0.91315,1.18535 1.09965,2.56312 1.6695,3.89725 0.10218,0.69708 0.51751,1.486 1.13229,1.8854 -0.13517,-0.0204 -0.22461,-0.0713 -0.38972,-0.0816 0.83051,1.43452 0.85771,3.10958 1.63787,4.50813 0.51599,0.9274 0.65164,0.97837 1.43249,0.62675 0.18779,0.98652 0.6923,1.6346 1.36403,2.14874 -0.12927,-0.01 -0.25866,-0.0305 -0.38441,0 1.12891,1.95581 2.9167,5.11656 5.80368,3.87616 0.29003,-0.1243 0.46737,-0.23135 0.58987,-0.32611 0.69525,-0.37097 0.46879,-0.5799 -0.0631,-0.73176 0.45851,-0.0204 0.84741,-0.19362 1.23234,-0.3842 0.019,0.21097 0.0978,0.43212 -0.0417,0.4953 0.7299,-0.32408 1.16496,-0.61759 2.01707,-0.51568 -0.11762,-0.0713 -0.24816,-0.10696 -0.37391,-0.15805 0.0724,-0.01 0.15328,-0.0204 0.23175,-0.0204 0.31561,0.12028 0.64143,0.21401 0.82682,-0.0305 0.28403,-0.38116 -0.52589,-1.28106 -0.78474,-1.45359 -0.86289,-0.57887 -1.38045,0.005 -2.0276,-1.00079 -0.34518,-0.53606 -0.19761,-1.16467 -0.67935,-1.73263 -1.208,-1.42014 -2.71341,-0.81326 -4.0868,-0.0408 -0.54645,0.30879 -1.3328,1.05376 -1.99072,0.8744 -0.74296,-0.20077 -0.66297,-1.07569 -1.55365,-1.02698 0.10886,-0.0509 0.18493,-0.0816 0.32133,-0.14775 0.26823,-0.12335 1.1258,-0.44535 1.56942,-0.75822 0.28168,-0.15385 0.52535,-0.30982 0.56346,-0.45251 0.0652,-0.23133 -0.64521,-0.0509 -0.92689,-0.005 1.22847,-0.23746 2.39304,-1.3699 2.35939,-2.48056 -0.0213,-0.68995 -0.4426,-1.64498 -0.80573,-2.23822 -0.28759,-0.4749 -1.73886,-1.44166 -1.77479,-1.8012 -0.0561,-0.60944 0.38643,-0.48104 0.82681,-0.26906 l -0.23695,0.13651 c 1.70058,2.94447 4.8521,4.1448 7.77861,5.49301 1.87316,0.86627 2.70087,1.84493 4.16055,3.19672 0.42427,0.39236 0.89032,0.60738 1.33243,0.97428 0.40622,0.33122 1.13451,1.58414 1.49042,1.70634 0.3618,0.1264 0.45251,0.007 0.46341,-0.16815 0.60873,0.0612 0.10484,-0.87236 -0.0846,-1.16915 -0.13822,-0.22012 -0.30758,-0.38317 -0.48449,-0.52688 0.0713,0.0204 0.13764,0.0612 0.21064,0.0713 -0.64716,-2.6749 -4.33994,-4.55143 -6.5726,-5.62988 -2.77554,-1.34107 -5.26067,-2.81229 -7.45735,-4.98742 -1.94507,-1.92708 -3.81078,-4.09559 -5.40345,-6.34613 -0.45576,-0.64307 -3.12071,-4.64316 -4.76619,-5.97221 0.17635,-0.0612 0.32826,-0.1529 0.4371,-0.31594 -0.0499,-0.30166 -0.1008,-0.60332 -0.15805,-0.90091 0.0643,-0.106 0.12945,-0.21707 0.19487,-0.32612 -0.004,0.31796 -6.3e-4,1.32925 -0.01,1.33242 0.88084,-0.50652 1.26763,-0.2772 2.15927,-0.14775 0.47032,0.0713 1.10802,0.43824 1.58522,0.0509 0.19465,-0.0408 0.38177,-0.13555 0.53188,-0.3893 0.0693,-0.1172 0.0631,-0.19364 0.0999,-0.29454 0.17234,0.52792 0.40386,1.03464 0.73203,1.50089 -0.21982,-0.22116 -0.41989,-0.38727 -0.65307,-0.62676 0.45659,0.79491 1.07283,2.02908 1.73794,2.64383 0.78381,0.7195 2.18275,1.06365 3.12832,1.59563 2.31175,1.30511 4.72378,2.39059 7.05712,3.68132 3.67503,2.02786 5.27868,5.74871 6.29345,9.58503 -0.25712,-1.13776 -0.50069,-2.27848 -0.77412,-3.41266 0.11992,0.29453 0.22971,0.59415 0.33703,0.89581 0.0429,0.16415 0.0947,0.29759 0.13688,0.46881 0.17254,0.70524 2.0814,8.31242 1.95913,8.38428 1.25119,-0.72256 -0.6188,-7.69024 -0.95318,-9.06364 -0.81255,-3.33999 -1.98978,-5.70968 -4.8768,-7.69435 -2.50587,-1.72568 -5.33461,-2.82573 -8.12093,-3.97624 -1.49205,-0.61453 -3.0905,-1.07478 -4.02887,-2.40147 -0.47562,-0.67364 -0.62257,-2.26492 -1.13231,-3.02306 0.16433,-0.0306 0.27425,-0.0408 0.49509,-0.10197 1.17565,-0.33122 2.84211,-0.0408 3.89195,-0.58498 1.67538,-0.87034 0.29382,-1.57048 -0.9322,-1.59576 -0.89877,-0.0204 -3.67851,1.12757 -3.79713,-0.0408 -0.0835,-0.82856 1.17843,-1.38593 2.06448,-1.80111 -0.60312,0.3893 -1.17118,0.84588 -1.78009,1.30081 0.59321,-0.004 1.48091,-0.35465 2.26986,-0.82652 0.80624,-0.43312 1.5556,-1.01097 1.82748,-1.54316 -0.34479,0.0816 -0.65938,0.19975 -0.9638,0.33224 0.36627,-0.22523 0.70514,-0.48715 0.74783,-0.82652 0.0866,-0.71848 -0.54788,-1.024121 -1.13755,-0.76843 -1.24756,0.57888 -2.45848,1.25924 -3.62335,1.98547 -0.24907,0.15491 -0.35191,0.26906 -0.50558,0.39543 0.35342,-0.36995 0.10657,-0.87034 -0.31074,-1.33252 0.13823,0.0306 0.28667,0.0408 0.42131,0.005 0.005,0.12331 -0.0295,0.24562 -0.005,0.36892 0.0192,-0.0306 0.1977,-0.30369 0.30023,-0.4586 0.007,0.10196 -0.0244,0.19364 -0.005,0.28943 0.0256,-0.0408 0.23858,-0.36893 0.39503,-0.60536 0.48367,-0.46779 0.91129,-1.451654 1.15334,-1.948574 0.57163,-1.179346 0.53311,-2.888625 -1.39034,-2.180335 v 0.0053 c -0.65989,1.257712 -1.10918,2.546302 -1.68529,3.823469 -0.22563,-0.14675 -0.45921,-0.29452 -0.63195,-0.35262 -1.17565,-0.40255 -3.54538,0.16714 -4.25008,-0.45861 -0.31275,-0.277202 -0.4264,-1.417706 -0.73203,-1.827497 -0.532098,-0.711359 -1.142266,-0.945757 -1.990738,-1.132357 -0.490709,-0.107012 -0.909676,-0.148808 -1.285042,-0.14166 -0.507846,0.0096 -0.936785,0.128405 -1.369288,0.315939 -0.111148,-0.518737 -0.582238,-1.0598 -1.026962,-1.790618 -1.502818,-2.477103 -3.010574,-4.953894 -4.513412,-7.431095 -1.647099,-2.712315 -3.232247,-5.685528 -5.345486,-8.099849 -0.114846,-0.264976 -0.257738,-0.518739 -0.368619,-0.784733 0.053,0.203828 0.135244,0.390329 0.194857,0.590077 -0.221968,-0.246629 -0.417946,-0.520774 -0.65306,-0.753138 z m 21.7612,3.117725 c -0.27078,-4.08e-4 -0.51191,0.06114 -0.71095,0.205866 -0.0427,0.130441 0.0115,0.331218 0.11592,0.563579 -0.0213,0.01009 -0.0429,0.01009 -0.0631,0.03058 0.0115,0.02038 0.0295,0.04077 0.0417,0.06114 -0.11324,-0.0086 -0.22706,0.02038 -0.33703,0.116181 0.56808,1.089349 1.35479,1.674839 2.04866,2.638529 0.78738,1.096586 0.67996,1.484467 2.30149,1.211238 -0.0235,-0.05096 -0.0713,-0.09172 -0.0999,-0.136561 0.1346,-0.01009 0.22033,-0.0031 0.38972,-0.03058 -0.0286,-0.06114 -0.0847,-0.110061 -0.12106,-0.168151 0.29657,0.05096 0.55828,0.04076 0.71094,-0.168152 0.88084,-1.182802 -2.38084,-4.315816 -4.2764,-4.318567 z m 3.79717,5.414034 c -0.29259,-0.117211 -0.71308,-0.02038 -1.30081,0.43211 -0.46963,0.755176 -0.33194,1.421992 -0.0479,2.069753 -0.0947,1.198294 -0.19139,2.394651 -0.24223,3.597025 -0.0214,0.503453 -0.30004,2.089213 0.14222,2.480565 0.28199,0.246633 0.74244,0.19771 1.01118,-0.05098 0.27893,-0.07138 0.46697,-0.288418 0.4634,-0.626769 0.0643,0.05098 0.1346,0.07138 0.22116,0.03059 0.66507,-0.33834 0.23522,-3.581934 0.31073,-4.376448 0.0804,-0.873395 0.31939,-3.203027 -0.55829,-3.554932 z m -40.7417,6.051187 c -1.065482,0.02039 -2.42435,0.285359 -1.695803,1.184944 -0.03668,0.0085 -0.08051,2.12e-4 -0.115877,0.01062 0.632779,0.902952 4.086991,1.162522 5.277042,1.669437 1.074969,0.456569 3.753938,2.636288 4.623979,2.132942 -0.02854,0.02039 -0.241838,-0.104941 -0.363318,-0.157975 0.261813,0.06118 0.497946,0.08157 0.658255,-0.01062 -0.0183,0.01062 -0.177321,-0.08157 -0.236947,-0.104941 0.08459,-0.02039 0.178865,-0.02039 0.242247,-0.07138 1.323066,-1.049816 -2.100459,-2.756142 -2.812322,-3.123033 -1.474062,-0.755173 -3.058525,-1.224382 -4.687189,-1.490378 -0.184261,-0.03059 -0.514457,-0.05098 -0.890006,-0.04079 z m 8.789811,5.203376 c -0.16245,-0.03059 -0.35425,-0.02039 -0.574076,0.04079 -0.175282,0.217073 -0.26263,0.483069 -0.294938,0.774536 -0.0034,-0.01062 -0.007,-0.03059 -0.01009,-0.04079 0.0046,0.06118 0.02038,0.288408 0.0265,0.384204 0.0041,0.225231 0.0065,0.443324 0.04791,0.67976 0.0183,0.27924 0.03771,0.44842 0.06829,0.79493 -0.13433,-0.57887 -0.274248,-1.196563 -0.431908,-1.690637 0.07643,0.929447 0.276286,7.526787 2.154006,6.088187 0.1492,-0.051 0.304413,-0.13657 0.479296,-0.31084 -0.124436,-0.10399 -0.223903,-0.23644 -0.331828,-0.35772 1.032011,-0.3842 0.12596,-2.22353 -0.0164,-3.2126 -0.132176,-0.93454 0.02141,-2.962413 -1.116489,-3.149321 z m 37.060389,1.395602 c -1.07768,0.05098 -1.98908,0.294528 -1.61155,0.995688 l 0.005,0.005 c -0.046,0.0106 -0.1008,0.0204 -0.13689,0.0408 0.4908,1.41996 6.31637,2.45447 7.92612,1.29022 0.29584,-0.13555 0.52729,-0.31286 0.63725,-0.54217 -0.15309,0.0306 -0.30939,0.051 -0.46339,0.0714 0.23226,-0.10495 0.45758,-0.19365 0.71095,-0.36893 -0.51772,-1.376954 -3.35172,-1.264641 -4.45547,-1.390401 -0.29125,-0.04079 -1.53452,-0.161023 -2.61218,-0.104941 z m 23.73614,0.05098 c -0.2821,-0.07138 -0.60802,0.08157 -0.73205,0.563578 -1.20083,1.07141 -2.37894,2.04438 -3.79189,2.82809 -0.55367,0.3088 -5.2881,1.9763 -5.41395,1.76433 0.15729,0.2721 0.44893,0.41172 0.78472,0.49529 -0.19544,0.0917 -0.40886,0.14676 -0.58457,0.27414 0.0134,0.005 0.0429,5.1e-4 0.0581,0.005 -0.11382,0.0612 -0.24662,0.0917 -0.35282,0.16816 0.67946,0.26191 2.62841,-0.21199 3.43376,-0.40562 0.97073,-0.23746 1.90658,-0.69199 2.80179,-1.12706 0.46716,-0.22625 0.98743,-0.49123 1.51149,-0.77963 1.38086,-0.72767 2.83891,-1.68901 3.37057,-3.03874 -0.11095,0.0714 -0.21199,0.14776 -0.32122,0.22115 0.007,-0.0204 0.0192,-0.0306 0.0266,-0.051 -0.16587,0.10905 -0.31675,0.22115 -0.4792,0.33223 0.35914,-0.6604 0.0633,-1.157018 -0.31074,-1.253526 z m -41.615918,0.305748 c 1.06879,0.0306 1.99,0.40662 2.138214,1.01097 -0.838455,-0.53402 -1.858896,-0.97327 -2.817586,-0.83773 0.253447,-0.0816 0.520677,-0.17834 0.679353,-0.17326 z m -1.479902,0.46369 c -0.01715,0.01 -0.03565,0.0204 -0.053,0.0306 -0.201895,0.0816 -0.395631,0.19363 -0.579282,0.34752 -0.123731,0.46676 -0.05605,0.87849 0.0999,1.23763 -0.283226,0.82143 1.397867,1.84331 2.080252,1.84331 1.01028,-0.003 2.917652,-1.78858 3.89196,-2.24882 0.70433,-0.33326 3.41808,-0.48714 4.89257,-0.0408 -0.005,0.002 -0.0153,0.003 -0.0213,0.005 -0.272,0.0714 -0.42741,0.16205 -0.53716,0.26293 -1.11579,0.44435 0.21971,1.42199 0.76361,1.88539 0.06,-0.0917 0.0795,-0.20689 0.13174,-0.30574 0.052,0.0408 0.1203,0.10197 0.16319,0.13656 0.20199,-0.31287 0.35507,-0.66142 0.4371,-1.02167 -0.005,0.0204 0.0134,0.0408 0.005,0.0612 0.19425,-0.0612 0.32287,-0.15287 0.43192,-0.24256 -0.78515,0.68994 -0.3299,1.07773 -0.005,2.27511 0.0387,0.14268 0.054,0.22318 0.0846,0.34751 -0.14184,-0.47797 -0.39155,-0.90905 -0.61618,-1.02177 -0.62197,-0.3088 -2.31354,0.26293 -2.99663,0.56867 -0.83773,0.36995 -1.74234,0.75212 -2.45419,1.33761 -0.73348,0.60434 -1.06704,1.21684 -1.9802,1.57996 -1.161275,0.4637 -1.880494,0.40765 -2.764908,1.47467 -0.661529,0.798 -0.940255,2.0078 -1.795901,0.66345 -0.188741,-0.29859 -0.02746,-1.03165 -0.268547,-1.26921 0.04385,-0.18854 0.0816,-0.3832 0.15271,-0.54218 0.418661,-0.93658 1.272992,-1.96987 1.195493,-3.03344 0.03565,-0.0204 0.053,-0.0306 0.08464,-0.051 -0.0017,8.2e-4 0.01144,-8.1e-4 0.0096,0 1.499215,-0.66549 0.352412,-0.69912 -0.452902,-1.50097 -0.396967,-0.3995 -1.01272,-1.60889 -1.727401,-2.12763 0.547273,-0.13656 1.200985,-0.40052 1.827471,-0.65837 z m 27.86508,0.66346 c -0.35018,-0.0204 -0.68283,0.0816 -0.98479,0.35771 0.005,0.12231 0.0774,0.27823 0.16853,0.43722 -0.10962,-0.0918 -0.23021,-0.19161 -0.33703,-0.27925 0.21301,0.36892 0.53667,0.74091 0.84792,1.11116 -0.39176,-0.32307 -0.78106,-0.64817 -1.1428,-0.9427 1.18642,2.05294 4.10515,4.45106 6.46725,3.67081 -0.13498,-0.006 -0.26681,-0.0408 -0.40023,-0.0612 0.2333,-0.0204 0.46993,-0.0408 0.69516,-0.11618 -0.29148,-0.0106 -0.57978,-0.0612 -0.8637,-0.12127 1.0813,-0.68588 -1.00079,-2.00036 -1.47465,-2.34359 -0.74692,-0.54524 -1.92481,-1.66272 -2.97559,-1.71694 z m -24.694648,0.94779 c -0.01907,0.0204 -0.02746,0.0306 -0.04785,0.051 -0.378607,0.35976 -0.704538,0.55339 -1.005894,0.63696 0.105238,-0.0612 0.212705,-0.11006 0.315941,-0.18447 0.246832,-0.14981 0.497228,-0.31186 0.73733,-0.50549 z m -18.553891,2.92298 c -0.167847,0.002 -0.324288,0.0306 -0.473998,0.0816 -0.105185,0.23338 -0.106194,0.44841 -0.06318,0.65326 -0.09478,-0.12434 -0.210247,-0.25377 -0.284338,-0.37402 -0.06625,0.17835 -0.04587,0.37606 0.01525,0.57989 -0.106401,-0.13759 -0.229406,-0.27924 -0.310732,-0.41072 -0.708297,1.89467 6.467467,5.53329 7.657495,4.48705 -0.08154,0.004 -0.178236,-0.0204 -0.263344,-0.0305 0.220337,-0.0204 0.435679,-0.0408 0.552982,-0.14776 -0.218605,0.007 -0.460443,-0.0204 -0.70045,-0.0612 1.828561,-0.80307 -2.048523,-2.74259 -2.522665,-3.03344 -0.880835,-0.54422 -2.432522,-1.76687 -3.60755,-1.75373 z m 35.422519,0.15796 c -0.33967,-0.051 -0.63012,0.0306 -0.82163,0.34243 -0.0439,0.25988 0.24164,0.69912 0.66885,1.19555 -0.17253,-0.12026 -0.33855,-0.25886 -0.52138,-0.34243 1.28709,2.22905 3.46878,4.02619 5.94588,4.74518 0.0439,-0.10176 0.0357,-0.19875 0,-0.29454 0.1008,0.0305 0.19303,0.0917 0.29495,0.12126 0.0551,-0.12126 0.019,-0.23848 -0.0469,-0.35775 0.13517,-0.004 0.2561,-0.0305 0.32653,-0.10504 1.04982,-1.13972 -2.11482,-2.72231 -2.81232,-3.26521 -0.55277,-0.43109 -2.01457,-1.87061 -3.03349,-2.03815 z m -8.22103,0.0204 c 0.11382,0.48714 0.20995,0.85096 0.33183,1.06386 -0.0134,0.25072 0.0153,0.49123 0.0417,0.73175 -0.46064,-0.3139 -1.33583,-0.33021 -2.17507,-0.25785 0.52423,-0.17019 1.26742,0.13452 1.6695,-0.28433 0.25804,-0.26804 0.2506,-0.77455 0.13174,-1.25343 z m -3.37581,1.65364 c 0.12926,-0.0714 0.27995,-0.0714 0.4582,0.0306 -0.20159,0.0408 -0.48044,0.0918 -0.57928,0.12636 -5.2e-4,0.006 3.8e-4,0.0917 0,0.10494 -0.0427,0.0106 -0.12354,0.0204 -0.15805,0.0306 0.0846,-0.11922 0.17539,-0.23643 0.27915,-0.29452 z m -22.588037,0.58498 c 0.223189,0.12535 0.4528,0.2507 0.637263,0.35772 0.483882,0.2823 1.993236,1.25801 3.112487,1.74851 -1.281301,-0.42193 -2.615558,-1.2253 -3.749741,-2.10664 z m 20.681567,2.39107 c 0.1161,0.8571 0.27588,1.75474 0.54769,2.64903 -0.32828,-0.75925 -0.41522,-1.64141 -0.64777,-2.30149 -0.0612,-0.17216 -0.0591,-0.23645 -0.0796,-0.33733 0.054,-0.01 0.13002,0.007 0.17902,-0.01 z m 20.89223,0.98449 c -0.33396,-0.01 -0.67823,0.10904 -1.02698,0.45248 0.0387,0.0713 0.25121,0.29657 0.35283,0.42703 -0.0804,-2.1e-4 -0.16091,0.004 -0.23175,0.0509 0.0286,0.0509 0.0896,0.10197 0.12106,0.15291 -0.1489,-0.0509 -0.29353,-0.0612 -0.41602,0.0204 0.97796,1.69339 3.60227,3.73919 5.55092,3.96564 -0.06,-0.1325 -0.18168,-0.23439 -0.27915,-0.34752 0.19027,0.0509 0.39369,0.15805 0.57408,0.1794 -0.0652,-0.14261 -0.19271,-0.25378 -0.30023,-0.37403 0.14756,-0.0408 0.27568,-0.11725 0.35813,-0.26905 0.44944,-0.82347 -1.47338,-2.05091 -1.90123,-2.3278 -0.86819,-0.56154 -1.80003,-1.87866 -2.80176,-1.92229 z m -30.903868,1.04807 c -1.258351,0 -2.392361,0.12525 -3.607549,0.47389 -0.263036,0.57888 -0.06006,0.91009 0.358113,1.10066 -0.05701,-0.007 -0.117248,-0.01 -0.17368,-0.0204 0.222886,1.09292 1.562681,0.82651 2.375202,0.79492 -0.05509,-0.0713 -0.127734,-0.10197 -0.189694,-0.15805 0.16205,-0.01 0.345091,-4e-4 0.484512,-0.005 -0.193545,-0.24663 -0.439157,-0.38626 -0.700458,-0.4902 1.106785,-0.12125 2.283519,-0.44842 2.664853,-0.79492 1.132504,-1.03544 0.01334,-0.90091 -1.211299,-0.90091 z m 2.917653,0.59518 c -0.229006,9e-5 -0.496218,0.0509 -0.821634,0.15785 -0.0096,0.01 -0.09685,0.10197 -0.131739,0.1365 -0.06005,0.0204 -0.09894,0.01 -0.163194,0.0305 -0.0755,0.0816 -0.936575,0.93557 -0.821614,0.98958 0.539322,0.26598 2.47085,0.33632 3.107212,0.0713 -0.02135,-0.0408 -0.04175,-0.0612 -0.0631,-0.0917 0.122967,-0.0204 0.274151,-0.0408 0.358131,-0.0713 -0.444952,-0.76331 -0.776984,-1.22203 -1.464098,-1.22182 z m -7.720698,1.28502 c -0.884403,0.10175 -1.196095,1.28919 -1.695824,1.8644 -1.168455,1.33739 -2.589725,2.30822 -3.697084,3.7392 -0.155014,0.31286 0.06114,0.43312 0.358125,0.49018 -0.04484,-3e-4 -0.08051,-3.9e-4 -0.126381,0 -0.535655,0.60741 0.348137,0.8408 0.700449,0.83773 0.176311,0 0.396238,-0.12221 0.616166,-0.27415 0.470839,-0.21503 1.038435,-0.77248 1.20602,-1.09017 -0.01125,0.007 -0.02038,0.01 -0.03159,0.0204 0.170191,-0.13956 0.328976,-0.27006 0.552978,-0.56867 0.340799,-0.45147 0.609138,-0.93657 0.921601,-1.39559 0.273639,-0.18551 0.492344,-0.43417 0.64776,-0.74805 0.527707,-0.44434 1.21789,-0.8469 1.400892,-1.56416 0.219321,-0.84487 0.06634,-1.41038 -0.853118,-1.30612 z m 7.894473,0.25784 c -0.157857,-0.0509 -0.397977,0.0713 -0.75834,0.4372 -0.691174,0.64715 -2.518245,2.49566 -2.064446,3.59692 -0.01945,0.007 -0.05701,0.01 -0.07339,0.0204 -0.369743,1.22448 0.931885,1.17272 1.516754,0.66854 0.269042,-0.12735 0.500603,-0.30879 0.558274,-0.54726 0.06425,-0.266 -0.0057,-0.4148 -0.136885,-0.50548 0.128496,-0.1386 0.265877,-0.2599 0.373917,-0.44231 5.7e-5,0.0408 0,0.16815 0,0.16815 0.09476,-0.1243 0.190266,-0.25581 0.294932,-0.37912 9.5e-5,0.0612 0,0.21097 0,0.21097 0.359542,-0.47084 0.828859,-0.92844 1.11649,-1.44299 0.140316,-0.24461 0.344881,-1.06469 0.463502,-1.17975 -0.130784,0.12526 -0.251826,0.26091 -0.379217,0.3893 0.02746,-0.0612 0.0673,-0.19974 0.0896,-0.22115 -0.313692,0.3037 -0.614133,0.62575 -0.916405,0.94269 0.182069,-0.69605 0.270892,-1.60371 -0.08464,-1.71693 z m 43.3644,0.26905 c -0.56673,0.10601 -1.31991,0.77251 -1.72214,0.95287 -1.24758,0.56462 -2.55143,0.53199 -3.87086,0.40563 -0.98152,-0.0917 -3.99903,-1.05756 -4.52394,-0.49022 -0.46789,0.38525 -0.32092,0.68792 0.0896,0.93761 -0.12946,0.002 -0.27242,-0.01 -0.35812,0.0509 0.35598,1.20798 4.51593,1.36788 5.75628,1.50087 1.08939,0.11516 1.3403,0.0713 2.35412,-0.36383 0.31277,-0.13249 2.05686,-1.24496 2.23302,-1.15863 0.0479,-0.0305 0.0765,-0.0612 0.12106,-0.0917 0.0326,-0.007 0.15461,-0.0816 0.16853,-0.0816 -0.0191,-0.01 -0.049,-0.007 -0.0683,-0.0204 0.3522,-0.27007 0.58498,-0.586 0.52138,-1.00588 -0.0866,-0.57173 -0.36036,-0.71136 -0.70046,-0.64818 z m -34.22172,1.21122 c 0.059,0.0509 0.13212,0.0917 0.19486,0.14776 0.0612,0.19362 0.14813,0.34139 0.26334,0.4423 -0.10292,-0.0305 -0.20424,-0.0713 -0.30023,-0.14775 -0.004,-0.0204 -4.6e-4,-0.0305 -0.005,-0.0509 -0.0316,-0.13041 -0.10313,-0.2599 -0.15271,-0.39033 z m -5.614097,0.63698 c 0.049,0.005 0.09894,0.0408 0.147559,0.0305 0.04174,0.1121 0.07031,0.22931 0.110582,0.34244 -0.07743,-0.13346 -0.173111,-0.24765 -0.258046,-0.37404 z m 7.336237,3.38115 c 0.34324,0.0713 0.68821,-0.0204 0.99539,0.15291 0.0897,0.0509 0.91498,0.6879 0.90059,0.68483 0.52129,0.16206 0.3774,0.58194 1.05331,0.43722 0.34875,-0.0713 0.54167,-0.97124 0.65307,-0.98958 0.0887,-0.0204 0.17158,0.0204 0.25804,0.0305 -0.0917,0.34956 -0.23266,0.95086 -0.47919,1.27452 -0.41549,0.0204 -1.45779,-0.48407 -1.50625,-0.0305 -0.19474,-0.004 -0.34212,0.0408 -0.30544,0.25783 0.11135,0.6767 1.12429,0.6869 1.82747,0.23135 0.59895,-0.24969 1.06778,-0.81326 0.89531,-1.59575 0.44118,0.26495 0.7884,0.8 0.8584,1.37978 0.15462,1.29075 -0.15995,0.7776 -1.04804,1.15867 -0.20495,0.0917 -0.68945,0.15995 -1.00587,0.29962 -0.29485,0.1365 -0.16511,0.72359 -0.68996,0.73784 -1.13613,0.0408 -0.46341,-1.36023 -1.14286,-1.3746 -0.0478,-0.001 -0.0683,0.0408 -0.11057,0.0408 0.21554,-0.58907 0.45219,-1.06247 -0.21065,-1.8802 -0.2295,-0.28231 -0.57825,-0.60638 -0.9427,-0.81633 z m -14.25118,0.29453 c -0.602617,0.54014 -0.561133,1.28706 -0.389722,2.06456 -0.02555,-0.0509 -0.04175,-0.10196 -0.06825,-0.14774 0.251617,1.22233 -0.01715,2.66849 0.09476,3.93404 0.05396,0.65633 0.607613,3.30892 1.116509,2.38567 0.134978,0.0713 0.272302,-0.0713 0.405508,-0.46878 0.0387,0.0509 0.08464,0.0816 0.121061,0.14165 0.891621,-1.00995 0.134597,-2.94171 0.09475,-4.1605 -0.04995,-1.47763 0.660403,-3.3831 -1.374569,-3.74979 z m 18.16418,0.0305 c 0.0631,0.01 0.12888,-0.001 0.1895,0.0204 -0.0274,0.10696 -0.054,0.20894 -0.0896,0.33225 -0.0213,-0.1142 -0.0479,-0.22828 -0.1,-0.35262 z m -28.855179,1.04276 c -0.190076,0.01 -0.413563,0.0509 -0.668855,0.1264 -1.110934,0.94169 -1.65403,2.45733 -2.538431,3.59703 -0.716654,0.91723 -1.013323,1.45582 -0.168571,1.31661 -0.04688,0.0305 -0.10253,0.0408 -0.147466,0.0713 0.0024,0.01 0.008,0.01 0.01009,0.0204 -0.09987,0.0509 -0.213508,0.0816 -0.305435,0.14775 0.207394,0.75213 0.65143,0.692 1.048054,0.37913 0.378404,-0.1285 0.768833,-0.57887 0.942696,-1.01609 -0.14207,-0.01 -0.280465,0.0305 -0.421309,0.0408 1.02115,-0.4586 1.791877,-1.30315 2.575304,-2.32248 0.805318,-1.05389 1.004251,-2.43623 -0.32653,-2.3594 z m 32.631259,1.9486 c 0.24562,0.24561 0.48327,0.51771 0.80053,0.853 0.34976,0.37198 0.7461,0.66243 1.13754,0.95901 -0.77301,-0.54116 -1.44883,-1.13879 -1.93807,-1.81171 z m -4.35014,2.46477 c -0.11191,0.0612 -0.13803,0.2242 -0.13688,0.4158 -0.0825,-0.11306 -0.20974,-0.19065 -0.32122,-0.27924 0.15156,-0.0408 0.29757,-0.0408 0.45818,-0.13651 z m -32.836635,1.43248 c -0.703811,0.0305 -1.589263,0.87441 -2.090798,1.11645 -1.071411,0.52078 -2.135833,0.5646 -3.2863,0.74805 -1.73293,0.28027 -3.422394,0.0408 -5.255975,0.0509 v 0.005 c 0.05605,0.3842 0.306861,0.6614 0.631963,0.88969 l -0.09989,-0.005 -0.09989,0.36383 c 1.226229,0.34958 2.538462,0.3883 3.849829,0.32104 0.780145,-0.0204 1.491834,-0.0816 1.911727,-0.15291 0.02955,-0.005 0.143595,-0.0408 0.184356,-0.0509 0.214017,-0.0305 0.443322,-0.0305 0.653059,-0.0612 l -0.352823,-0.0204 c 0.135435,-0.0408 0.263038,-0.0713 0.442405,-0.1264 0.06625,-0.01 0.139421,-0.01 0.205354,-0.0204 l -0.110576,-0.005 c 1.722872,-0.5432 4.812764,-1.77675 4.039418,-2.75429 -0.172536,-0.22014 -0.386862,-0.30065 -0.621465,-0.28944 z m 15.910121,2.59104 c -0.149467,0.0305 -0.305436,0.11114 -0.474007,0.24765 -0.06521,0.20689 -0.0076,0.58498 0.0999,1.01607 -0.01144,-0.0204 -0.05814,-0.0713 -0.06825,-0.0917 0.02746,0.0305 0.04271,0.0713 0.06825,0.10186 0.0795,0.31594 0.232056,0.6767 0.379217,1.05329 -0.245402,-0.31799 -0.623094,-0.80614 -0.737349,-0.9845 0.740609,0.71238 1.008431,2.3118 1.500969,3.21781 0.136694,0.25171 1.466214,2.81779 1.674744,1.91178 0.0019,-0.01 -0.0076,-0.0305 -0.0057,-0.0408 0.139172,0.0917 0.252036,0.0816 0.300251,-0.13154 0.01144,-0.0509 -0.01334,-0.12221 -0.01715,-0.1794 0.07855,0.0204 0.163194,0.0816 0.236956,0.0713 1.315868,-0.13956 -0.684559,-2.92614 -0.990091,-3.61284 -0.333558,-0.74904 -0.924356,-2.80913 -1.969676,-2.58064 z m 22.588024,4.89784 c 0.48102,0.26396 0.99253,0.54013 1.53782,0.77964 -0.16091,-0.0408 -0.35415,-0.0713 -0.47401,-0.11115 -0.33549,-0.11819 -0.69361,-0.36995 -1.06381,-0.66854 z m -12.72914,0.28434 c 0.0713,0.20891 0.15538,0.41784 0.23176,0.62675 -0.0847,-0.2079 -0.17179,-0.41477 -0.23176,-0.62675 z m 11.42831,1.61154 c -0.0877,0.0713 -0.13307,0.16301 -0.15804,0.25785 -0.0448,-0.0204 -0.0947,-0.0816 -0.13689,-0.0917 -0.14737,0.1222 -0.20607,0.2772 -0.17367,0.46369 0.61472,0.94168 0.85922,1.65415 1.72213,2.38048 0.90958,0.76946 1.96674,1.26607 2.9914,1.84851 0.80887,0.4637 1.50137,1.28319 2.30672,1.66423 0.89521,0.42091 2.03863,0.39136 2.99135,0.74805 -0.0765,-0.1182 -0.20729,-0.20279 -0.30023,-0.31083 0.16701,0.0408 0.3412,0.0612 0.5003,0.1161 0.10905,0.13555 0.22451,0.27007 0.31074,0.42091 -0.10091,-1.08579 0.38747,-2.45988 0.25804,-3.41267 -0.19415,-1.38417 -1.96524,-2.87792 -3.42851,-2.84919 -1.68977,0.0305 -1.97254,1.66548 -3.72343,0.92131 -1.0498,-0.44538 -2.09442,-1.30041 -2.83865,-2.13814 0.0469,0.10696 0.0957,0.16815 0.14222,0.26905 -0.16376,-0.14165 -0.32306,-0.25173 -0.4634,-0.28944 z m -18.427517,0.39542 c -0.148324,0.002 -0.338133,0.0408 -0.574059,0.14261 -0.826934,1.4381 -0.868915,3.21862 -1.616826,4.76088 -0.409892,0.852 -0.820909,1.93104 -1.374549,2.68591 -0.222887,0.30574 -2.402542,1.79827 -2.359379,1.99608 0.204945,1.00281 2.4629,-1.08905 2.764904,-1.4378 0.7298,-0.84486 1.12894,-1.81303 1.495688,-2.88076 0.395423,-1.1505 0.635525,-1.86562 1.379832,-2.78601 0.393287,-0.48103 1.322503,-2.50094 0.284332,-2.48046 z m 0.05814,2.29623 c -0.176731,0.34547 -0.324788,0.7256 -0.463484,1.11644 0.04881,-0.32102 0.118773,-0.60944 0.168532,-0.94778 -0.787374,1.53877 -1.074433,3.67641 -1.969675,5.08219 -0.307688,0.48714 -1.305975,1.52472 -2.180324,2.03816 -0.259261,0.11515 -0.503138,0.17635 -0.695158,0.1264 -0.01144,0.0713 -0.0019,0.10694 -0.0057,0.16299 -0.100852,0.01 -0.204337,0.0305 -0.289633,0.005 -0.113054,0.7511 0.220027,0.60741 0.616154,0.28433 0.352317,-0.16109 0.882375,-0.72154 1.148119,-0.92128 0.798166,-0.60435 1.450161,-0.93455 2.043381,-1.76433 1.168479,-1.63591 1.34334,-3.25153 1.627368,-5.18217 z m 11.886497,3.05453 c 0.0255,0.0204 0.0478,0.0509 0.0734,0.0816 -0.0256,-0.0305 -0.049,-0.0509 -0.0734,-0.0816 z m 0.21065,0.21096 c 0.33479,0.31899 0.68772,0.60128 1.03224,0.89581 -0.35578,-0.27108 -0.70177,-0.56461 -1.03224,-0.89581 z"
         id="path18178-8" />
    </g>
    <g
       id="pillbug"
       transform="matrix(0.26458333,0,0,0.26458333,26.548391,119.42715)">
      <path
         style="fill:#40afa1;fill-opacity:1;fill-rule:nonzero;stroke:none;stroke-width:3.79595"
         d="m 111.19699,70.291322 c -0.0969,0.04304 -0.21521,0.185076 -0.43902,0.272234 -0.0753,0.03227 -0.17755,0.11514 -0.26148,0.156023 -0.006,-0.02152 0.0216,-0.06456 0,-0.08608 0.001,9.69e-4 -0.49604,0.366923 -0.53908,0.40028 -0.6284,0.399204 -1.28251,0.884488 -1.75714,1.251088 -0.16248,0.125893 -0.31312,0.265777 -0.47238,0.3949 -3.36655,2.509818 -9.864309,7.292512 -10.042169,6.978422 0.1076,0.187227 1.00715,-0.21628 2.29084,-0.945822 -0.87587,0.528326 -1.75896,1.048043 -2.65228,1.562489 -2.07639,1.199547 -2.19325,3.591864 -2.72469,5.732821 -0.26578,1.070641 -0.53156,1.645558 -0.24964,2.769139 0.13664,0.55415 0.84683,1.719803 -0.31097,1.734867 -0.40997,0.0085 -0.60688,-0.677892 -1.18438,-0.661752 -0.38736,0.0085 -0.77688,0.439016 -1.0843,0.617635 -0.43256,0.253942 -1.11853,0.386291 -1.4791,0.739226 -0.11728,0.109749 -0.70587,0.984559 -0.58428,0.995319 -0.0753,-0.129127 -0.10975,-0.267929 -0.10761,-0.411041 0.043,-0.0085 0.34648,1.312315 -0.52294,1.312315 -0.38307,0 -0.687578,-0.776886 -0.923227,-0.979179 -0.794103,-0.683272 -1.799752,-0.710172 -2.757947,-0.800558 -0.813473,-0.267929 -1.598644,-0.493894 -2.446656,-0.68435 -0.17862,-0.06456 -0.361542,-0.132348 -0.539087,-0.200139 -1.598104,-0.599343 -2.675847,-0.06456 -4.125891,0.756443 -2.505298,1.419701 -4.564371,2.528217 -7.289823,3.397426 -0.941518,0.30021 -1.861407,0.653145 -2.791411,0.979179 -1.332329,0.470221 -3.098616,0.60257 -4.14257,1.612523 -1.275409,1.229892 0.845751,1.07699 1.529238,0.928606 1.231399,-0.261473 2.26922,-0.582127 3.419593,-1.023295 1.690751,-0.37338 3.456178,-0.802712 3.436379,-0.895249 -0.01078,-0.06456 -0.397052,-0.03227 -0.917846,0.0538 0.984559,-0.305589 1.952116,-0.642384 2.830257,-1.228815 1.434873,-0.956582 3.229675,-2.365307 4.854358,-2.90816 1.681604,-0.558454 4.07037,0.317427 5.64943,0.928606 1.237531,0.482057 1.316294,0.4487 1.301123,1.606928 -0.0085,0.760747 0.153871,1.511917 0.222736,2.252004 -0.01078,0.183999 0.0024,0.319578 0.04304,0.477753 -0.0027,0.507881 -0.172164,0.553074 0.338946,0.933986 0.333566,0.25394 0.954429,0.308817 1.356754,0.244256 1.256474,-0.196912 1.993654,-1.509334 2.657884,-2.435464 0.95658,-1.336203 2.71953,-2.569645 4.35938,-2.858126 1.51838,-0.269004 3.99462,-0.276538 4.932159,-1.873888 1.01254,-1.73616 -2.271479,-2.26115 -3.186099,-3.086135 -0.0753,-0.07532 -0.13772,-0.157099 -0.19476,-0.238877 -0.0646,-0.08608 -0.14418,-0.17539 -0.18938,-0.272232 -0.0968,-0.218433 -0.14526,-0.459462 -0.14956,-0.733846 -0.009,-0.19476 0.043,-0.40566 0.0753,-0.611179 0.0323,-0.176468 0.0323,-0.324959 0.0861,-0.528327 0.0108,-0.04304 0.0861,-0.316349 0.11622,-0.41104 0.26039,-0.78119 0.61656,-1.580566 0.77904,-2.174207 0.18938,-0.690805 0.18938,-1.2739 0.7177,-1.80158 0.62193,-0.618712 1.64092,-0.889869 2.407709,-1.295529 1.33231,-0.710173 2.71274,-1.532252 3.93124,-2.424381 1.15014,-0.842524 2.08316,-1.953623 3.27518,-2.746973 0.38737,-0.258244 0.77689,-0.364769 1.01146,-0.789798 0.23565,-0.425028 0.0645,-0.678968 0.40028,-1.062031 0.56921,-0.641309 1.62738,-0.701566 2.1019,-1.517942 0.1291,-0.223813 0.38521,-0.780115 0.2561,-1.072793 -0.13666,-0.313122 -0.21414,-0.374455 -0.31098,-0.333566 z m -9.60294,7.400975 c -0.51974,0.346479 -1.05021,0.677894 -1.58478,1.000699 0.44656,-0.25394 1.06527,-0.68112 1.58478,-1.000699 z m 4.32042,10.804106 c -0.043,-0.0029 -0.10753,0.02152 -0.15602,0.03227 -0.006,-4.29e-4 -0.0112,-0.0057 -0.0216,-0.0057 -0.0112,-1.08e-4 -0.0112,0.01078 -0.0322,0.01078 -0.0322,0.0085 -0.0538,0.0029 -0.0861,0.02152 -0.0216,0.0085 -0.0216,0.03227 -0.043,0.04304 -0.4756,0.162479 -0.34539,0.904933 -0.44439,1.29004 -0.0216,0.04304 -0.0323,0.107607 -0.0753,0.138804 -0.36906,0.305589 -1.36761,0.07532 -2.26319,-0.07532 -0.46161,-0.233497 -0.92753,-0.406735 -1.37892,-0.156023 -0.85758,0.478828 -0.006,1.057728 0.0753,1.757034 0.0861,0.7134 0.0861,0.720934 -0.65637,1.206648 -0.914619,0.611181 -2.189479,1.6136 -3.275189,1.807177 -0.45408,0.07532 -0.8974,-0.01078 -1.35116,0.06456 -0.0215,9.69e-4 -0.0646,-0.0057 -0.0753,-0.0057 -0.0215,0.0015 -0.0753,0.01078 -0.0968,0.02152 0,0 -0.006,0.0057 -0.006,0.0057 -0.58966,0.07532 -2.57438,0.599343 -2.52456,1.429064 -0.97164,0.607951 -1.81761,1.286381 -2.61892,2.185181 -0.74784,0.842524 -1.68634,1.718405 -2.73019,2.185292 -0.451928,0.20444 -0.893096,0.34002 -1.39011,0.0968 -0.383064,-0.18938 -0.981332,-1.722282 -1.117663,-1.70711 l -0.0057,0.01078 c -0.295904,0.03227 -0.752137,2.81196 -1.089901,3.11949 -0.705869,0.63808 -1.273577,-0.17862 -1.896162,0.0861 -1.001776,0.43256 -0.02152,0.78765 0.417496,0.96196 0.04304,0.0215 0.0538,0.0215 0.09684,0.043 0.235647,0.18292 0.478828,0.32926 0.723085,0.40028 0.09684,0.10761 0.188304,0.19476 0.261473,0.47237 0.06456,0.24211 0.04304,0.5477 -0.0057,0.86189 -0.02152,-0.15387 -0.07532,-0.7177 -0.07532,-0.7177 -0.307742,-0.006 -0.320654,1.10851 -0.228116,2.32991 -0.0028,0.0215 -0.01078,0.0538 -0.02152,0.0753 -0.08608,0.87265 -0.120516,1.76285 0.07532,2.62452 0.0538,0.24318 0.730618,2.55007 1.095389,2.48561 0.219508,-0.0323 0.503578,-2.42718 0.751063,-2.78022 0.262548,-0.38091 0.699412,-0.65207 1.173292,-0.87803 1.257438,-0.22489 3.613484,-1.23829 5.532674,-2.21865 1.24668,-0.57675 2.47291,-1.1989 3.7311,-1.87948 2.16367,-1.17297 4.358419,-2.46377 6.377889,-3.86453 0.73277,-0.505729 1.42046,-1.135094 2.10739,-1.77382 1.2329,-0.882336 2.98575,-2.216816 3.33072,-2.424381 0.27223,-0.163555 0.49604,-0.275461 0.72846,-0.389518 0.94259,-0.245333 1.71432,0.123736 2.69682,0.133426 0.42719,0.0057 0.54555,0.03227 0.58968,-0.04304 0.0861,0.01078 0.3228,0.06456 0.33355,0.0538 0.0861,-0.111905 -0.12587,-0.393823 -0.44977,-0.733845 -0.29699,-0.528327 -1.05235,-1.013612 -1.41798,-1.278958 -0.41857,-0.305591 -0.85759,-0.667133 -1.30673,-1.011459 -0.0112,-0.0085 -0.0753,-0.06456 -0.0861,-0.07532 -0.0216,-0.01078 -0.043,-0.02152 -0.0538,-0.03227 -0.38521,-0.290526 -0.77472,-0.573519 -1.16769,-0.779038 -0.28192,-0.146339 -0.69726,-0.199064 -1.00608,-0.328186 -0.13232,-0.09684 -0.269,-0.183999 -0.3723,-0.30021 -0.2604,-0.459461 -0.043,-1.067412 -0.17754,-1.590251 -0.0216,-0.09684 -0.0753,-0.242105 -0.11734,-0.377683 0.006,-0.276537 -0.0538,-0.504654 -0.29482,-0.522946 z m 8.39081,6.828209 c -0.69081,-0.132348 -0.73923,0.703718 -1.13434,0.889869 -0.60365,0.277613 -0.0969,0.116218 -0.93398,0.06456 -0.23243,-0.01078 -0.47346,0.0085 -0.71126,0.02152 -0.12154,-0.02152 -0.23026,-0.07532 -0.35615,-0.07532 -0.73278,0 -1.46737,0.02152 -2.12407,0.356162 -0.36585,0.187227 -0.6553,0.493893 -0.93936,0.800559 -0.736,0.590735 -1.40788,1.322214 -2.16303,1.907245 -1.46532,1.134983 -2.81421,2.224133 -4.37057,3.252913 -2.566099,1.70055 -5.682889,3.8711 -8.685529,4.61517 -1.61242,0.40458 -3.3404,0.98133 -4.804215,1.82945 -0.135583,0.0538 -0.692957,0.19691 -0.689728,0.21735 0.0085,0.0538 0.109748,0.0646 0.183999,0.0861 -1.015764,0.67143 -1.09313,1.00715 -1.568085,2.15193 -0.174316,0.41749 -0.252865,0.66498 -0.678969,0.91139 -0.326034,0.19368 -0.967342,0.0538 -1.206648,0.36154 -0.983483,1.25647 1.241188,0.64669 1.351266,0.65099 0.887716,0.0108 0.978102,0.8167 1.251088,1.54581 0.09684,0.26578 0.642384,1.85183 0.90063,1.76834 0.49712,-0.15926 0.284068,-1.62652 0.439016,-1.97956 0.08608,-0.20444 0.237801,-0.38521 0.417496,-0.55092 0.28945,0.003 1.53236,-0.58105 3.00263,-1.31232 0.50358,-0.13988 1.08248,-0.30343 1.42907,-0.43363 1.74616,-0.65637 3.48749,-1.38495 5.10453,-2.31872 2.979829,-1.71205 6.729539,-3.09732 9.124759,-5.62167 1.19191,-1.25647 2.41782,-1.99107 3.80331,-2.99704 0.64129,-0.46269 1.09548,-1.09108 1.88507,-1.35675 0.48206,-0.163556 0.78012,-0.153872 1.2511,-0.0753 0.17215,0.0215 0.74998,0.41319 1.06741,0.37768 0.11831,0.0538 0.29375,0.17109 0.3228,0.1388 0.006,-0.006 -0.13022,-0.18184 -0.14957,-0.21735 0.12588,-0.27546 -1.26765,-1.861947 -1.41798,-2.207456 -0.17539,-0.3949 -0.33142,-0.553075 -0.12266,-0.99532 0.12266,-0.08609 0.26362,-0.185074 0.38413,-0.366923 0.25502,-0.136647 0.54124,-0.237799 0.62841,-0.477753 0.17107,-0.470221 0.0112,-0.857587 -0.4896,-0.956582 z m -0.34433,6.060898 c -0.34217,-0.043 -0.66389,-0.0215 -0.93936,0.0968 -0.21951,0.0861 -1.08463,0.82854 -2.07413,1.69043 -2.84694,2.15624 -5.53495,4.47269 -8.62431,6.2944 -1.83622,1.07978 -3.679889,2.34357 -5.693869,3.07494 -0.90386,0.26793 -1.86485,0.51434 -2.05746,0.5563 -0.27008,0.0646 -2.57674,0.736 -3.85333,1.31221 -0.0215,0.006 -0.0323,0.0108 -0.0431,0.0215 -0.0968,0.043 -0.21735,0.0861 -0.30021,0.13343 -0.48421,0.20444 -0.92322,0.43471 -1.13434,0.7177 h -0.006 c -0.0968,0.13019 -0.15387,0.35724 -0.21735,0.57244 0.003,-0.001 -0.003,-0.043 0,-0.043 -0.1528,-0.002 -0.20122,0.48744 -0.19476,1.13434 -0.0753,0.8888 -0.0646,1.84764 -0.0215,2.32991 0.043,0.43687 1.08635,2.54673 1.4735,2.46323 0.13666,-0.0216 0.50573,-1.30596 0.66175,-1.49567 0.43256,-0.52725 1.08334,-0.89847 1.67935,-1.20664 1.11594,-0.566 2.28331,-0.85329 3.47522,-1.19558 2.59267,-0.736 4.887059,-1.94835 7.206429,-3.28068 4.27428,-2.45601 7.88744,-5.56625 11.8049,-8.48528 0.57353,-0.42503 0.95013,-0.77688 1.67925,-0.86727 0.39813,-0.0538 1.13154,0.26685 1.41238,0.13343 0.043,-0.0215 0.0645,-0.0646 0.0969,-0.0968 0.13666,0.043 0.38091,0.13127 0.40028,0.1119 0.12476,-0.12913 -0.5477,-1.09076 -1.14542,-1.85172 -0.0645,-0.0861 -0.16679,-0.25072 -0.2109,-0.30021 -0.0216,-0.0215 -0.0753,-0.0538 -0.0969,-0.0753 -0.11944,-0.13559 -0.31096,-0.40889 -0.37768,-0.45624 -0.58536,-0.42072 -1.57788,-0.96411 -2.50788,-1.17878 -0.0538,-0.0108 -0.12588,-0.043 -0.17755,-0.0538 -0.006,-8.6e-4 -0.0112,8.6e-4 -0.0216,0 -0.0645,-0.0108 -0.13232,-0.043 -0.19476,-0.0538 z m 8.44644,2.7191 c -0.94689,0.18186 -2.7431,1.88735 -3.38086,2.14635 -0.61871,0.25824 -1.27325,0.1076 -1.90724,0.3228 -0.0538,0.0215 -0.10768,0.0646 -0.1614,0.0861 -0.0216,0.009 -0.0538,0.0323 -0.0753,0.043 -0.6155,0.27116 -1.24701,0.72524 -1.77942,1.0955 -1.38172,0.95981 -2.51402,2.30117 -3.83117,3.36407 -2.03842,1.64749 -4.24136,3.11454 -6.51133,4.43169 -0.73599,0.42933 -1.49211,0.88987 -2.26308,1.3178 -5.4e-4,-0.0108 0.0322,-0.0323 0.0216,-0.043 0.0112,0.0215 -0.17539,0.11191 -0.22812,0.15603 -0.62085,0.33894 -1.26109,0.61548 -1.90164,0.87802 -1.205039,0.38523 -2.513909,0.7317 -2.785819,0.8124 -0.55953,0.16355 -5.34825,1.74424 -5.58831,2.47442 -0.16463,0.12588 -0.35832,0.23242 -0.50035,0.3723 -0.26148,0.26148 -0.35617,0.62625 -0.64454,0.87266 -0.4218,0.36045 -1.07871,0.51218 -1.557,0.78979 -0.3411,0.19691 -2.07177,0.92538 -2.090708,1.15662 -0.08608,1.17297 3.845378,-0.56814 4.187008,-0.46161 0.79733,0.25824 1.12584,2.88836 1.88498,1.19546 0.25824,-0.58428 0.0323,-0.80057 0.50035,-1.26777 0.33356,-0.33357 1.09592,-0.62625 1.5514,-0.82316 1.5032,-0.64561 3.09043,-0.32496 4.64303,-0.73923 0.0753,-0.0216 0.139879,-0.0538 0.210899,-0.0753 0.13876,-0.0216 0.54338,-0.0753 0.59504,-0.0861 0.17646,-0.043 2.10491,-0.80809 3.24173,-1.46791 1.84957,-0.92646 3.63985,-2.00301 5.42141,-2.96938 1.51085,-0.81993 2.99521,-1.97805 4.10362,-3.30285 0.97919,-1.17297 2.00742,-2.64604 3.1918,-3.62543 0.58429,-0.48636 1.42541,-0.90601 2.13526,-1.15662 0.61548,-0.21628 0.70802,0.0753 1.23989,-0.0215 0.17862,-0.0323 0.24964,-0.0861 0.33895,-0.1388 0.0323,0.002 0.13988,0.043 0.14957,0.0323 0.008,-0.0108 -0.0322,-0.0646 -0.0322,-0.0861 0.29375,-0.27546 -0.15602,-0.73923 -0.35617,-1.24549 -0.38737,-0.96842 0.0538,-0.94045 0.85651,-1.54033 0.4939,-0.368 2.95701,-1.85947 1.66256,-2.47442 -0.0969,-0.043 -0.20982,-0.043 -0.34433,-0.0215 z m -2.45225,6.49465 c -1.99838,0.20552 -3.00736,2.10954 -4.30935,3.581 -2.10675,2.38015 -4.88966,4.05573 -7.57335,5.69947 -1.92221,1.18049 -3.90466,2.52014 -6.06102,3.28627 -0.69617,0.19799 -1.02221,0.25608 -1.54581,0.37768 -2.209919,0.32388 -5.418079,0.13876 -6.505719,2.11858 -0.74783,1.36277 -0.55738,2.19486 0.31097,3.44746 0.62194,0.89848 0.73385,0.46807 1.13983,-0.0323 0.25932,-0.11944 0.56706,-0.27331 0.99532,-0.52294 -0.18508,0.0322 -0.37123,0.0646 -0.47238,0.0753 0.0215,-0.0112 0.0323,-0.0323 0.0538,-0.0538 2.08393,-1.11982 4.954859,-1.21117 7.228609,-1.65148 1.25582,-0.24211 2.40059,-0.73815 3.50868,-1.3234 0.69941,-0.27976 1.25034,-0.54661 1.3234,-0.76182 0.53586,-0.31312 1.07494,-0.6144 1.61253,-0.92322 1.91703,-1.10088 4.03313,-2.14892 5.69957,-3.61436 0.98348,-0.86512 1.55743,-2.04411 2.32431,-3.08043 0.7263,-0.9781 1.71495,-1.82019 2.69671,-2.58008 0.37769,-0.19046 0.86298,-0.49067 1.54592,-0.9512 0.43579,-0.21736 0.78119,-0.45193 0.97918,-0.71771 0.003,-0.006 0.0645,-0.043 0.0645,-0.043 0.003,-0.0108 -0.0112,-0.0323 -0.0112,-0.0538 0.0324,-0.0646 0.11832,-0.13234 0.11622,-0.20552 -0.0112,-0.5025 -0.66391,-1.17566 -1.30672,-1.61811 -0.008,-0.009 -0.0324,-0.0431 -0.043,-0.0431 -0.0216,-0.0108 -0.043,-0.0108 -0.0645,-0.0323 -0.29483,-0.19046 -0.57997,-0.34218 -0.79518,-0.37231 -0.32926,-0.043 -0.63162,-0.0538 -0.91784,-0.0215 z m -23.548589,17.96039 c 0.7177,-0.12056 1.68332,-0.33034 1.60692,-0.57244 -0.0861,-0.28192 -0.84252,0.127 -1.60692,0.57244 z m 30.688309,-16.20873 c -0.37015,0.0861 -0.67574,0.38521 -0.98456,0.66175 -1.86441,0.81993 -4.44375,2.1741 -4.52628,2.56889 -0.006,0.0215 0.008,0.0323 0.006,0.0538 -0.67789,0.48098 -1.3291,1.00069 -1.95728,1.62371 -0.60796,0.60151 -1.09023,1.25486 -1.5569,1.91834 -0.15065,0.10753 -0.28084,0.33356 -0.41104,0.58428 -0.19692,0.28192 -0.38844,0.55844 -0.60041,0.83929 -0.48313,0.64561 -1.11886,1.1706 -1.7905,1.65706 -0.0753,0.0538 -0.15173,0.0969 -0.20015,0.1442 -1.07999,0.75214 -2.26696,1.39215 -3.31962,2.05735 -3.40872,2.15602 -6.59482,3.45747 -10.62614,3.98138 -1.343729,0.17431 -2.576949,0.49927 -3.814489,1.09538 -0.70587,0.34111 -1.40367,0.73062 -2.09071,1.11767 -1.04051,0.58858 -2.50981,1.16974 -3.29176,2.10739 -0.68327,0.81992 0.0323,1.05772 0.80594,0.92861 0.83499,-0.1442 1.49266,-0.77151 2.1797,-1.21214 0.60364,-0.38845 1.02975,-0.33573 1.37902,-0.0753 0.18831,0.56062 0.71448,1.23732 1.0728,1.62362 -0.0108,-0.0323 -0.0215,-0.0753 -0.043,-0.1109 0.0323,0.0753 0.0646,0.1151 0.0968,0.18292 -0.0215,-0.0216 -0.043,-0.0538 -0.0646,-0.0753 0.11836,0.32818 0.22596,0.5832 0.30559,0.63378 0.0108,0.006 0.043,-0.0112 0.0538,-0.006 0,0 0,0.006 0,0.006 0.15494,0.18722 0.36477,0.26362 0.7898,0.17755 0.64561,-0.1291 1.510409,-0.87374 2.151929,-1.15102 1.74239,-0.74784 3.54828,-1.23979 5.41592,-1.5625 2.49778,-0.42933 4.53243,-1.57992 6.72267,-2.81357 2.42179,-1.36656 4.77978,-2.74945 6.53359,-4.93216 1.13111,-1.40452 2.36088,-2.81207 3.8033,-3.90896 0.76289,-0.57675 2.95162,-1.24174 2.99714,-2.11858 0.0753,-1.46899 -2.27954,-2.00667 -0.6284,-3.46425 0.50896,-0.45193 1.21462,-0.65207 1.74607,-1.0728 0.37338,-0.2959 0.73599,-0.83391 0.7177,-1.18437 0.043,-0.0968 0.0538,-0.184 0.006,-0.25071 -0.006,-0.009 -0.0969,0.0323 -0.10768,0.0323 -0.12378,-0.1119 -0.35724,-0.15387 -0.77796,-0.0538 z m -1.42906,8.11824 c -0.651,0.0216 -1.24926,0.76936 -2.07962,1.4791 -1.27928,1.09701 -2.40986,2.23501 -3.5031,3.51417 -1.08946,1.27929 -2.34357,2.30818 -3.73669,3.23076 -2.01948,1.33598 -4.11546,2.83693 -6.37791,3.73659 -1.89787,0.75106 -3.96879,0.60795 -5.84397,1.30672 -0.76289,0.28084 -4.642059,1.29272 -4.843269,1.96837 -0.3497,1.16919 1.916389,1.95576 1.051269,3.20847 -0.398119,0.58105 -1.053419,1.03836 -1.479089,1.65696 -0.36047,0.52725 -1.98128,1.66159 -1.98505,2.25759 -0.003,0.99317 1.35159,0.26901 2.44106,-0.38951 0.37984,0.19476 1.340399,-0.4756 1.901659,-1.15102 0.52509,-0.3411 1.06849,-0.65852 1.5402,-0.5563 0.34219,0.0753 0.34757,0.67359 0.86728,0.38952 0.37231,-0.20122 0.0969,-0.63485 0.24426,-0.98456 0.64561,-1.50696 3.10206,-2.37672 4.39275,-3.14726 1.11604,-0.66821 2.29353,-1.11872 3.44746,-1.70709 2.67616,-1.35902 5.32566,-2.89752 7.83471,-4.53737 1.42143,-0.9286 3.05397,-2.67187 4.77645,-3.73669 0.16787,-0.0323 0.43903,-0.19799 0.72309,-0.37769 -0.15602,0.0538 -0.20875,0.0753 -0.33356,0.11621 0.19368,-0.10753 0.38737,-0.19045 0.58428,-0.27224 -0.0861,0.0646 -0.16678,0.10768 -0.25072,0.15603 0.61549,-0.21628 1.24463,-0.43148 1.31781,-0.45086 0.14849,-0.0322 0.45085,-0.006 0.68973,0 0.60041,0.12056 1.54806,0.56276 1.89615,0.33357 0.25826,-0.16785 0.17971,-0.43149 0.043,-0.70587 -0.0216,-0.2916 -0.21951,-0.56383 -0.42288,-0.81777 -0.043,-0.12056 -0.0861,-0.23887 -0.043,-0.3228 0.10768,-0.1711 1.56971,-0.25932 1.89606,-0.3777 0.84684,-0.30774 1.70184,-0.74782 2.48002,-1.19556 0.3949,-0.22596 1.03406,-0.65959 0.70587,-0.99531 0.0112,-0.0323 0.0538,-0.0538 0.0538,-0.0753 0.19046,-0.75428 -1.38075,-0.0112 -1.8628,0.10754 -0.11832,0.0322 -0.3013,0.0753 -0.43902,0.11187 -0.1657,-0.008 -0.32496,-0.0216 -0.51756,-0.0216 -0.83607,-0.008 -1.62652,0.53694 -2.40771,0.5563 -0.44547,-0.0322 -0.92108,-0.66713 -1.26777,-1.05665 -0.0646,-0.12154 -0.10768,-0.2152 -0.20013,-0.34433 -0.49282,-0.66713 -0.90495,-0.91462 -1.29565,-0.90063 z m 1.97395,6.95616 c -1.00607,0.0646 -2.27964,0.80486 -3.09161,1.36234 -1.06419,0.5391 -1.9589,1.09421 -1.99065,1.41239 -2.34927,1.73917 -4.77472,3.42724 -7.33426,4.80981 -1.76897,0.95228 -3.43895,1.8345 -5.31026,2.5634 -1.397,0.54231 -3.22323,1.13606 -4.33163,2.16862 v -0.006 c -0.33788,0.31527 -1.05773,0.9114 -1.0843,1.42347 -0.0324,0.7446 0.48421,0.66605 1.01253,1.04589 0.60365,0.43686 2.00053,2.27665 2.60785,0.75106 0.11943,-0.29591 0.0861,-0.55092 0.0753,-0.81777 0.0646,-0.18723 0.10753,-0.38307 0.12798,-0.60042 0.0216,-0.043 0.0216,-0.0753 0.043,-0.11188 0.37553,-0.59182 1.196,-1.03728 1.80717,-1.3178 1.00609,-0.45946 2.02464,-0.58428 3.10271,-0.73923 0.73599,-0.10767 1.47339,-0.3454 2.20756,-0.63915 0.14096,-0.043 0.24318,-0.0969 0.31743,-0.1442 0.78873,-0.34001 1.55926,-0.73599 2.29085,-1.18437 0.40781,-0.22811 0.77688,-0.467 1.13993,-0.73922 0.23027,-0.15817 0.47775,-0.31636 0.69512,-0.47238 1.97008,-1.41969 3.38956,-4.04303 5.62155,-5.04889 1.03621,-0.47023 1.73013,0.23349 2.7247,0.13876 1.11217,-0.10754 0.74138,-1.74467 0.67251,-2.67467 -0.0216,-0.34433 -0.12378,-0.58858 -0.26146,-0.77258 -0.0861,-0.1312 -0.20231,-0.23565 -0.3777,-0.30021 -0.043,-0.0216 -0.0861,-0.0216 -0.13344,-0.043 -0.043,-0.0112 -0.0753,-0.0323 -0.12798,-0.043 -0.008,-0.001 -0.043,0.0216 -0.0538,0.0216 -0.11733,-0.0216 -0.22057,-0.0538 -0.35078,-0.043 z m -0.006,4.68198 c -0.96088,-0.0324 -1.67838,0.4035 -2.35208,0.93936 -0.32818,0.2109 -0.60686,0.42933 -0.76181,0.6284 -0.0646,0.0645 -0.13876,0.10754 -0.20553,0.16678 -2.45978,2.27762 -4.70694,4.32387 -7.75121,5.8386 -1.15318,0.57351 -2.39469,0.81776 -3.62555,1.10087 0.043,-0.0323 0.17863,-0.0969 0.17217,-0.11734 -0.0861,-0.27115 -2.76419,0.69835 -3.13617,1.16771 -0.1797,0.0969 -0.37016,0.1431 -0.54447,0.25609 v 0.006 c -0.67143,0.43687 -1.2159,2.45204 -1.53473,3.16954 -0.34109,0.77795 -2.01118,3.3448 -1.29003,4.00913 0.90708,0.835 1.99246,-0.99639 2.39102,-1.52364 0.0112,-0.0216 0.0969,-0.19476 0.12798,-0.23888 0.25716,-0.35724 0.43149,-0.69511 0.57243,-1.05127 0.54017,-1.00716 1.17083,-2.18528 1.18997,-2.18528 0.0645,-0.001 0.11734,0.0645 0.17217,0.11076 0.0753,0.22057 0.17324,0.36799 0.31743,0.33895 0.16462,0.1614 0.35616,0.20228 0.62301,-0.28408 0.25824,-0.4713 -0.13022,-1.19406 -0.043,-1.72928 0.0861,-0.53908 0.66499,-1.58486 1.40131,-1.26216 0.30774,0.13232 -0.0861,1.4806 0.043,2.04627 0.19367,0.89955 1.89884,3.40399 2.57458,1.5402 0.0969,-0.26577 0.0538,-0.60364 -0.0216,-0.95658 0.0538,-0.49388 0.0112,-1.12207 -0.14956,-1.52913 0.0861,-0.29159 0.31635,-0.51864 0.83929,-0.58966 0.1797,-0.0216 0.34756,-0.0112 0.51112,0.0112 0.19583,0.0645 0.34863,0.10866 0.66713,0.25071 0.89524,0.47991 1.61683,1.46661 2.49109,1.72379 1.45392,0.42502 2.57686,-0.76936 2.55782,-2.09071 -0.0216,-1.18814 -0.24965,-2.06769 0.20551,-3.21397 0.63377,-1.60574 1.54409,-0.61763 2.569,0.20552 0.53478,0.42934 0.68327,0.88772 1.27885,0.23888 0.30666,-0.33357 0.27439,-0.7984 0.17216,-1.22332 0.0112,-0.44011 -0.23888,-0.83499 -0.57889,-1.18986 -0.0538,-0.0645 -0.0861,-0.10754 -0.1442,-0.17217 -0.0538,-0.0538 -0.0861,-0.10768 -0.14957,-0.14957 -0.17539,-0.19368 -0.35723,-0.41427 -0.51756,-0.50573 -0.0969,-0.0538 -0.32818,-0.0538 -0.5111,-0.0645 -0.28622,-0.10754 -0.57137,-0.18938 -0.80595,-0.19476 -0.0216,-4.3e-4 -0.0322,0.0112 -0.0538,0.0112 -0.18938,-0.0861 -0.32173,-0.21198 -0.26148,-0.4896 0.31528,-1.44616 2.60871,0.001 3.20838,0.13344 0.12154,0.0216 0.67681,0.14635 0.83929,0.0645 0.71341,-0.35293 -0.008,-0.42287 0.27223,-0.6725 0.50896,-0.45947 0.8436,0.043 1.56799,0.17215 0.75536,0.13666 3.04772,-0.41319 3.65889,-0.89524 0.41104,-0.32712 0.33895,-0.54016 0.13344,-0.70587 -0.001,-0.008 0.008,-0.0112 0.006,-0.0216 -0.0322,-0.1657 -0.36585,-0.22918 -0.81132,-0.25608 -0.34326,-0.0645 -0.70803,-0.14527 -0.94583,-0.1668 -1.45004,-0.12476 -2.94506,-0.60149 -4.37617,-0.65098 z m -3.4141,7.11184 c -0.10767,0.008 -0.21413,0.043 -0.31743,0.0969 -0.94475,0.54984 -0.13988,3.29241 1.30672,1.52353 0.35293,-0.43147 0.0538,-1.06849 -0.41104,-1.3957 -0.0216,-0.0216 -0.043,-0.043 -0.0753,-0.0538 -0.16248,-0.0969 -0.32496,-0.18724 -0.50573,-0.17217 z m -6.91172,3.94244 c -0.10753,0.0216 -0.19583,0.0538 -0.26685,0.11622 -1.25259,1.1084 1.76145,2.66271 2.21316,1.27336 0.19584,-0.60796 -1.20858,-1.51289 -1.9462,-1.39011 z"
         id="path18874-1" />
    </g>
  </g>
</svg>
