<?xml version="1.0" standalone="no"?>
<!DOCTYPE svg PUBLIC "-//W3C//DTD SVG 20010904//EN"
 "http://www.w3.org/TR/2001/REC-SVG-20010904/DTD/svg10.dtd">
<svg version="1.0" xmlns="http://www.w3.org/2000/svg"
 width="700.000000pt" height="700.000000pt" viewBox="0 0 700.000000 700.000000"
 preserveAspectRatio="xMidYMid meet">
<metadata>
Created by potrace 1.14, written by Peter Selinger 2001-2017
</metadata>
<g transform="translate(0.000000,700.000000) scale(0.100000,-0.100000)"
fill="#000000" stroke="none">
<path d="M4187 6442 c-10 -10 -24 -40 -33 -65 -19 -58 -46 -79 -81 -66 -46 17
-65 9 -127 -50 -33 -33 -86 -83 -118 -111 -65 -59 -97 -118 -101 -192 -4 -66
9 -114 89 -308 71 -176 114 -302 114 -336 0 -32 -38 -69 -86 -82 -52 -15 -75
-10 -132 29 -142 98 -182 124 -237 152 -66 33 -144 57 -188 57 -16 0 -58 -16
-93 -36 -41 -23 -70 -33 -83 -29 -11 3 -37 34 -58 68 -20 34 -46 69 -57 77
-60 43 -69 60 -51 105 4 11 18 47 31 80 12 33 30 101 39 150 9 50 23 120 30
157 21 112 9 150 -57 184 -22 11 -33 12 -55 2 -43 -18 -73 -49 -73 -75 0 -24
40 -73 60 -73 5 0 10 -8 10 -19 0 -10 6 -24 14 -30 12 -10 11 -16 -9 -37 -15
-16 -29 -52 -39 -102 -22 -103 -83 -258 -116 -295 -25 -29 -32 -31 -111 -34
-106 -4 -172 -17 -229 -46 -54 -27 -146 -117 -220 -215 -57 -76 -93 -103 -138
-104 -32 0 -122 11 -131 16 -3 2 -24 7 -46 10 -127 20 -164 41 -226 126 -64
89 -77 96 -119 67 -44 -29 -54 -48 -46 -81 16 -62 124 -136 273 -187 94 -31
106 -34 83 -19 -11 8 -4 9 25 5 45 -6 184 -41 191 -48 3 -2 9 -33 15 -68 6
-39 21 -83 39 -112 17 -27 30 -51 30 -55 0 -4 -28 -25 -61 -47 -104 -69 -128
-123 -123 -279 2 -60 -1 -116 -5 -125 -6 -10 -4 -32 5 -56 8 -23 12 -61 9 -90
-3 -33 0 -60 10 -78 21 -40 7 -59 -72 -101 -55 -29 -69 -33 -75 -22 -5 8 -40
47 -78 86 -38 39 -86 100 -106 136 -20 35 -52 77 -73 92 -49 36 -53 41 -79 83
-36 60 -129 89 -268 86 -61 -2 -82 -8 -156 -45 -65 -32 -92 -41 -115 -36 -26
5 -34 2 -49 -21 -44 -64 -61 -75 -111 -75 -94 0 -117 -48 -64 -132 35 -55 63
-76 112 -82 43 -5 124 26 195 74 199 137 203 139 246 93 14 -16 41 -55 59 -88
43 -77 187 -224 264 -270 64 -38 154 -70 227 -80 23 -3 56 -8 72 -11 35 -8
215 -7 316 0 271 20 452 61 674 150 143 58 211 77 241 66 17 -7 16 -8 -9 -11
l-28 -4 22 -28 c16 -20 29 -27 43 -23 17 4 19 1 14 -31 -4 -20 -34 -86 -68
-146 -67 -120 -76 -160 -54 -234 24 -81 107 -166 186 -191 95 -31 141 -19 215
56 36 37 60 52 87 56 20 3 53 8 72 11 104 17 164 169 125 315 -39 143 -115
191 -292 183 -87 -4 -101 -2 -127 16 -16 12 -33 33 -39 48 -25 74 20 141 198
293 123 105 217 215 326 380 192 290 254 444 248 610 -6 168 -38 301 -106 437
-35 71 -49 108 -45 125 5 17 35 39 116 83 123 66 174 110 226 195 44 73 46
111 5 140 -16 12 -33 32 -36 45 -3 13 -14 31 -23 39 -16 15 -19 15 -34 -2z
m-782 -1092 c24 -9 27 -13 15 -22 -12 -8 -11 -9 3 -4 11 4 31 -2 48 -15 38
-27 83 -104 72 -123 -13 -23 -152 -128 -181 -135 -36 -10 -125 4 -218 34 -43
13 -91 25 -106 25 -40 0 -34 15 17 46 28 16 67 55 100 98 73 97 108 118 181
111 22 -2 53 -9 69 -15z m-937 -653 l-34 -72 13 -78 c12 -69 12 -81 -3 -110
-28 -55 -54 -72 -123 -83 -19 -3 -53 -18 -76 -34 -51 -35 -97 -57 -112 -54 -7
1 -17 2 -23 3 -5 0 -19 22 -30 49 -19 41 -20 58 -15 142 8 113 9 124 25 177
17 56 54 72 220 99 19 3 43 11 54 16 10 6 36 12 58 14 22 2 47 8 56 13 29 16
26 -6 -10 -82z"/>
<path d="M4855 5501 c-58 -27 -68 -48 -45 -100 21 -45 47 -62 61 -40 8 12 12
11 24 -4 18 -25 10 -42 -32 -68 l-35 -22 7 -58 c6 -54 4 -63 -25 -116 -18 -31
-39 -78 -46 -105 -23 -76 -73 -95 -194 -74 -101 18 -145 4 -174 -58 -32 -68
-68 -76 -174 -40 -68 22 -117 18 -183 -18 -101 -53 -144 -107 -232 -288 -63
-131 -129 -212 -219 -271 l-58 -37 133 -66 c242 -120 291 -205 235 -409 -10
-37 -24 -78 -31 -90 -13 -25 -72 -101 -100 -132 -48 -52 -58 -115 -23 -154 13
-16 45 -72 105 -186 18 -33 47 -87 65 -120 74 -138 122 -226 176 -325 31 -58
74 -136 95 -175 82 -152 164 -301 303 -550 81 -143 153 -273 162 -290 74 -142
168 -228 242 -219 51 5 315 180 372 246 39 45 132 225 186 363 37 93 48 186
24 210 -17 17 -45 20 -59 6 -6 -5 -26 -12 -46 -16 -29 -5 -41 -2 -66 19 -51
43 -76 116 -76 226 0 107 19 164 63 188 25 13 127 11 163 -3 15 -6 17 -1 17
37 0 64 17 106 51 124 16 8 33 13 37 10 5 -3 6 -43 4 -89 -6 -139 21 -174 165
-211 81 -21 134 -20 213 4 44 14 91 20 146 19 69 -1 91 3 155 30 76 32 107 55
146 104 29 38 22 74 -24 115 -66 58 -109 56 -119 -7 -13 -79 13 -73 -332 -84
-133 -5 -132 -6 -189 108 -64 125 -125 187 -234 236 -20 10 -39 21 -42 25 -3
5 -8 45 -12 89 -3 44 -10 96 -15 115 -5 19 -12 49 -15 65 -12 69 -16 87 -41
171 -60 211 -145 383 -307 624 -164 245 -219 310 -316 372 -89 57 -161 117
-161 134 0 28 49 14 100 -30 47 -40 54 -43 83 -35 18 5 33 9 33 9 1 0 9 19 19
43 9 23 36 61 60 84 47 44 62 82 70 174 6 68 12 85 47 141 23 37 29 58 30 105
1 78 -11 201 -23 239 -20 64 -77 86 -144 55z m-73 -1213 c34 -39 59 -97 83
-191 33 -133 20 -203 -45 -225 -38 -14 -158 -6 -185 12 -13 9 -30 37 -39 63
-9 26 -27 70 -41 97 -28 54 -32 118 -12 176 10 29 24 41 77 68 76 39 128 39
162 0z m-125 -970 c23 -16 55 -45 70 -66 15 -20 31 -39 34 -42 12 -10 30 -51
26 -58 -3 -4 -8 -48 -11 -98 -9 -124 -13 -141 -44 -204 -34 -70 -92 -114 -168
-130 -107 -22 -174 12 -174 90 0 22 -10 69 -21 103 -12 34 -23 83 -24 109 -2
59 26 196 49 230 38 58 147 112 201 100 11 -3 39 -18 62 -34z"/>
<path d="M2930 3852 c-8 -2 -58 -26 -111 -52 -52 -27 -118 -53 -146 -58 -68
-12 -175 -9 -245 8 -68 16 -111 6 -188 -41 -26 -16 -52 -29 -58 -29 -6 0 -28
-20 -50 -45 -42 -48 -52 -83 -45 -155 6 -59 -10 -79 -66 -85 -31 -3 -54 -13
-74 -32 -42 -40 -94 -124 -114 -185 -9 -29 -29 -66 -45 -81 -26 -26 -29 -27
-55 -14 -94 48 -196 71 -314 72 -85 0 -99 12 -99 79 0 65 -21 82 -79 66 -43
-11 -105 -64 -116 -99 -10 -33 25 -77 113 -141 108 -78 115 -81 200 -85 47 -1
114 -13 172 -30 110 -33 151 -34 202 -7 28 15 47 18 83 12 74 -11 86 5 89 115
1 52 8 100 15 114 l14 24 17 -35 c32 -66 34 -86 41 -383 5 -221 118 -464 340
-728 135 -162 356 -381 422 -417 32 -18 61 -39 64 -47 3 -7 -2 -33 -11 -57
-36 -95 -31 -121 50 -244 67 -100 63 -95 105 -145 l33 -39 -33 -25 c-39 -30
-73 -83 -91 -138 -7 -22 -27 -62 -45 -90 -18 -27 -49 -76 -69 -108 -33 -52
-38 -56 -56 -45 -11 7 -23 21 -26 30 -13 41 -79 26 -91 -21 -3 -14 3 -45 16
-77 13 -29 24 -60 25 -68 4 -26 14 -29 27 -9 8 13 19 18 35 15 31 -6 123 38
170 81 22 19 75 92 119 162 122 193 187 323 198 396 5 37 5 37 -59 70 -86 43
-116 72 -112 107 3 23 7 27 31 24 15 -2 42 -12 60 -22 34 -21 52 -26 43 -12
-9 15 15 86 40 119 33 44 106 85 149 85 35 0 145 -48 145 -63 0 -4 -5 -11 -11
-15 -8 -4 3 -20 28 -43 22 -20 49 -52 61 -71 19 -33 22 -39 22 -57 0 -5 7 1
15 11 8 11 15 18 16 15 0 -2 2 -12 4 -22 3 -17 -13 -35 -94 -104 -39 -34 -37
-64 7 -87 23 -12 195 -51 267 -62 11 -1 38 -6 60 -10 47 -8 218 -9 258 -1 104
21 321 137 385 206 32 34 28 74 -14 143 -27 44 -38 74 -41 115 -5 66 -32 127
-109 248 -31 50 -64 104 -74 120 -10 17 -105 181 -212 365 -108 184 -254 434
-325 555 -139 236 -191 328 -234 415 -33 65 -51 72 -142 55 -133 -25 -269 9
-365 90 -63 53 -142 213 -142 285 0 38 27 103 61 151 11 16 17 29 12 30 -4 0
-15 2 -23 3 -8 2 -22 1 -30 -2z m-435 -901 c52 -23 123 -95 142 -143 8 -21 21
-38 27 -38 16 0 54 -80 62 -129 10 -65 -9 -104 -66 -131 -54 -25 -101 -24
-196 5 -56 16 -130 79 -157 131 -21 40 -39 145 -32 186 13 79 15 83 68 110 61
32 98 34 152 9z m1000 -391 c24 -12 71 -50 102 -85 32 -34 79 -77 106 -94 53
-36 55 -47 36 -143 -15 -75 -41 -103 -128 -138 -104 -43 -182 -41 -289 6 -79
36 -182 194 -182 281 0 59 73 161 135 190 44 20 163 11 220 -17z"/>
</g>
</svg>
