<svg xmlns="http://www.w3.org/2000/svg" id="svg5" width="88.337" height="100" version="1.1">
    <path id="white" d="M0 0a6.9 6.9 0 0 1 3.592 1.708 7 7 0 0 1 1.342 1.671c.326.572 11.761 19.972 12.074 20.942a6.85 6.85 0 0 1 .105 3.877 7 7 0 0 1-.674 1.657c-.283.496-11.474 20.355-12.078 21.052a6.87 6.87 0 0 1-5.197 2.385c-.607 0-23.293.147-24.033.032a6.88 6.88 0 0 1-4.918-3.376c-.324-.569-11.76-19.973-12.072-20.929a6.9 6.9 0 0 1 .564-5.557c.285-.498 11.469-20.347 12.078-21.05a6.87 6.87 0 0 1 3.274-2.1 6.8 6.8 0 0 1 1.916-.278C-23.422.034-.73-.112 0 0" style="fill:#ead9b6;fill-opacity:1;fill-rule:nonzero;stroke:none" transform="matrix(1.42938 -.83963 -.82525 -1.45429 83.936 78.34)"/>
    <path id="black" d="M0 0a6.9 6.9 0 0 1 3.592 1.708 7 7 0 0 1 1.342 1.671c.326.572 11.761 19.972 12.074 20.942a6.85 6.85 0 0 1 .105 3.877 7 7 0 0 1-.674 1.657c-.283.496-11.474 20.355-12.078 21.052a6.87 6.87 0 0 1-5.197 2.385c-.607 0-23.293.147-24.033.032a6.88 6.88 0 0 1-4.918-3.376c-.324-.569-11.76-19.973-12.072-20.929a6.9 6.9 0 0 1 .564-5.557c.285-.498 11.469-20.347 12.078-21.05a6.87 6.87 0 0 1 3.274-2.1 6.8 6.8 0 0 1 1.916-.278C-23.422.034-.73-.112 0 0" style="fill:#3a3a3a;fill-opacity:1;fill-rule:nonzero;stroke:none" transform="matrix(1.42938 -.83963 -.82525 -1.45429 83.936 78.34)"/>
    <g id="Ant" transform="translate(-57.646 -60.289)">
        <path id="path19230-5" d="M112.563 72.099c-.359-.124-.858.087-1.024.441-.01.022-.003.055-.01.077-.14.137-.288.284-.442.611-.453.954-.357 1.782-.345 2.729.01 1.14-.114.654-.26 3.096-.12 1.998-.023 2.195-.131 4.528-.077 1.67-.113 2.503-.21 3.199-.274 2.036-.66 2.818-.35 4.24.147.665.296.803.26 1.29-.007.122-.054.225-.076.334-.165.044-.33.13-.3.16.098.087-.625 1.205-1.263 1.912-.098.11-.144.187-.214.278-.572.617-.792.88-1.081 1.211-.179.18-.238.278-.533.532-1.356 1.171-2.106 1.682-2.496 1.891-.316.167-.53.348-.736.504a4 4 0 0 1-.465.272c-.098.032-.197.065-.31.065-.11 0-.346-.087-.765-.379-.212-.233-.446-.565-.815-1.002-.344-.41-.907-1.061-1.642-1.653-.364-.29-.962-.766-1.874-1.11-.212-.076-.462-.17-.752-.243-.403-.163-.822-.31-1.347-.266-.453.033-.758.185-1.246.413q-.016.007-.033.022c-.11.044-.209.11-.316.17-.442.223-.854.47-1.15.934-.247.387-.437.846-.344.912.009.006.043-.044.065-.044-.065.178-.134.287-.192.622-.022.154-.099.607-.033 1.257.055.54.15.694.486 1.907.004.022.116.45.34 1.308.333 1.27.351 1.293.396 1.41-.055.176-.113.53-.362.9-.088.13-.224.182-.334.266-.11.077-.3.2-.425.295-.256.11-.546.193-.917.334-.592.228-.171.136-2.316 1.206-1.735.87-2.092.97-2.405 1.047a5.8 5.8 0 0 1-1.908.141c-.622-.066-1.036-.227-2.717-1.03-1.314-.63-1.677-.828-2.763-1.353-1.475-.712-1.573-.735-1.952-.928-.164-.077-.404-.208-.635-.323-1.149-.658-1.304-.925-2.411-1.478-.29-.147-.349-.159-2.157-.877-1.109-.53-1.437-.641-2.496-1.2-.658-.348-1.366-.584-2.004-.963-.534-.321-1.017-.664-1.534-.51a1 1 0 0 0-.249.125c-.033.009-.066-.007-.11.006-.316.11-.718.398-.73.765-.004.258.184.455.385.668.336.348.692.506.804.56l.13.066c1.687 1.753 4.386 2.647 5.927 3.193 2.079.738 3.49 1.426 6.323 2.813.087.044.076.044.152.088.113.066.148.11.311.198.077.044.252.11.311.136 3.073 1.586 3.582 2.18 4.93 2.327 2.705.295 5.129-1.09 6.46-2.067.516-.187 1.038-.364 1.545-.577.95-.393 1.301-.615 1.726-.452.38.139.603.49.85.877.242.383.43.673.35.963-.088.336-.488.468-1.099.708-.65.254-1.27.576-1.919.827-.61.239-1.577.625-2.643 1.12a38 38 0 0 0-1.857.935c-.955.51-1.245.695-1.42.815-.077.022-.128.066-.21.077-.174.021-.326.021-.493.135-.197.134-.346.391-.396.663-.088.088-.182.161-.261.26-.445.565-.397.882-.849 2.203-.34.989-.36.798-.9 2.236-.623 1.642-.496 1.635-.867 2.411-.584 1.225-.862 1.163-1.353 2.287-.055.137-.055.185-.087.295-.334.656-.432 1.46-.946 2.592-.556 1.221-.93 1.31-1.46 2.751-.162.444-.29.9-.329 1.178-.077.204-.098.32-.26.65-.244.491-.542 1.018-.658 1.818-.124.857.088 1.18.21 1.319.043.043.312.327.656.305.313-.022.556-.292.973-1.042a14 14 0 0 0 .781-1.613c.534-1.314.727-1.261 1.28-2.525.452-1.024.327-1.063.86-2.547.181-.51.247-.637 1.302-3.08.758-1.75 1.136-2.631 1.375-3.192.387-.911.795-1.813 1.166-2.728l.006-.006c.169-.356.333-.704.402-1.014.153-.38.264-.62.436-.838.371-.46 1.028-.827 2.326-1.545.55-.301 1.196-.66 2.112-1.081 1.178-.545 1.081-.413 2.202-.935 1.113-.518 1.34-.715 1.947-.78.309-.033 1.019-.111 1.664.271.453.27.454.522 1.212 1.63.61.893.92 1.345 1.438 1.778.273.223.755.576 1.273.9.044.022.099.077.147.099.473.602.674 1.112 1.087 1.149.022.002.043-.022.076-.022.022.066.055.122.055.18-.055.371-.769.43-1.545.753-.433.182-.574.317-2.417 1.874a606 606 0 0 1-1.789 1.517c-1.855 1.507-2.118 1.487-2.632 2.202-.669.931-.878 1.88-.974 2.344-.213 1.004-.033 1.277-.099 2.796-.033.772-.076.654-.373 3.023-.274 2.202-.231 2.259-.425 3.538-.24 1.569-.314 1.52-.476 2.734-.209 1.592-.065 1.525-.271 3.442-.217 2.032-.331 3.05-.47 3.696-.066.27-.182.807-.147 1.523.022.606.066 1.444.668 1.873.033.022.562.388 1.076.199.541-.198.722-.873.849-1.376.066-.228.066-.403.076-.588.044-.123.1-.285.113-.317.344-1.074.248-1.829.256-2.78.003-.54.032-.207.345-2.994.131-1.201.118-1.204.3-2.966.336-3.223.358-3.031.396-3.793.099-1.912-.098-1.965.044-3.6.066-.746.163-1.313.238-1.777.076-.249.136-.479.221-.753.402-1.32.615-1.753.877-2.15.24-.36.504-.669 1.455-1.524a48 48 0 0 1 2.627-2.201c1.113-.87 1.756-1.374 2.649-1.942l1.302-.82c.22.065.503.182.588.418.135.382-.347.78-.668 1.341-.298.53-.325 1.097-.368 2.202-.044.997-.088 2.253.232 3.969.34 1.777.893 3.025 1.46 4.296.561 1.264 1.51 3.36 3.391 5.644 1.125 1.368 2.05 2.151 3.159 3.102 1.155.981 1.755 1.351 2.485 1.58.479.15 1.22.376 2.174.321.958-.055 1.483-.358 2.043-.01.329.2.343.419.787.639a2.07 2.07 0 0 0 1.07.204c.243-.022.91-.077 1.245-.583.236-.356.199-.762.176-.99-.055-.56-.292-.656-.272-1.07.011-.348.196-.52.52-.99 0 0 .38-.546.844-1.512.332-.7.426-1.285.538-2.027.282-1.827.087-3.372.006-3.905-.306-2.099-1-3.552-1.834-5.31-.055-.126-.11-.19-.17-.311-.055-.11-.077-.183-.136-.306-.033-.066-.174-.253-.198-.295-.996-1.898-1.937-3.307-2.214-3.68-1.12-1.514-2.143-2.872-3.94-4.097-1.831-1.249-3.19-1.491-3.707-1.557-.626-.077-1.508.329-1.732-.022-.135-.22.043-.559.098-.668.263-.51.771-.705 1.2-.894 1.24-.555.9-.687 2.151-1.251.789-.356.85-.269 2.395-.833 1.426-.517 1.238-.536 1.794-.69.479-.132 1.922-.532 3.499-.1.386.11.146.088 2.349 1.11.676.312.734.325 1.862.844 1.167.533 1.759.808 2.157 1.013 1.155.596 1.146.718 2.066 1.206 1.252.66 1.492.554 3.215 1.296 1.14.49.866.462 2.763 1.347 0 0 1.018.472 3.368 1.206.43.131.999.298 1.624.087.152-.054.784-.276.957-.832.2-.638-.346-1.272-.481-1.426-.53-.615-1.132-.692-2.19-1.07-.523-.187-1.074-.474-1.484-.685-.246-.14-.334-.235-.742-.413-.475-.208-.955-.36-1.268-.46-.725-.311-1.4-.618-2.422-.979-.13-.043-.359-.112-.46-.146-.163-.066-.273-.116-.526-.215-.962-.375-1.703-.62-2.881-1.002-1.91-.623-2.11-.62-2.814-.98a14 14 0 0 1-1.755-1.086c-.819-.607-.92-.833-1.585-1.234-.293-.182-.972-.593-1.811-.747-.367-.066-.977-.124-2.91.452-.626.19-.986.314-3.385 1.234-1.603.615-2.41.924-2.541 1.008-.908.591-1.442 1.256-2.327 1.194-.159-.01-.495-.043-.77-.271-.088-.077-.113-.203-.164-.3a21 21 0 0 1-.266-.781c-.033-.18-.055-.314-.11-.555-.077-.332-.221-.753-.515-1.596-.32-.941-.484-1.398-.617-1.67-.139-.495-.207-.827-.17-1.12.077-.623.37-1.059.651-1.473.337-.487.685-.819 1.914-1.788 1.252-.986 1.14-.838 1.805-1.387 1.295-1.066 1.386-1.357 2.151-1.721.754-.355 1.428-.437 1.784-.48.576-.067.878-.012 2.343.152 2.191.259 1.947.192 2.785.312 1.46.204 1.428.276 2.576.43 1.356.19 1.507.11 3.311.277.634.066 1.81.178 3.317.413 1.16.182 2.341.212 3.504.374.279.044.958.137 1.58-.227.162-.099.507-.308.622-.702.151-.537-.222-1.027-.334-1.178-.185-.24-.424-.395-.691-.532-.066-.033-.12-.055-.187-.088-.076-.032-.144-.076-.232-.112a7.4 7.4 0 0 0-2.31-.442c-2.527-.152-1.878-.211-3.362-.255-1.747-.044-1.734.055-3.164-.022-.708-.033-1.463-.11-2.966-.266-1.41-.151-2.13-.233-2.814-.368-.184-.033-.734-.164-1.104-.249-.59-.2-1.038-.379-1.754-.504-.642-.11-.98-.163-1.433-.087-.402.065-.602.186-1.8.877-1.371.792-1.257.716-1.454.844-.66.425-1.098.776-1.829 1.364-.847.68-1.27 1.02-1.811 1.556-.367.364-.659.69-1.33 1.33-.734.704-1.017.914-1.376.895-.158-.004-.285-.077-.413-.147a5 5 0 0 1-.215-.442c-.111-.26-.232-.547-.209-.838.044-.634.767-.981 1.528-1.5.19-.131.85-.734 2.168-1.936.661-.607 1.256-1.21 2.435-2.428.788-.812 1.098-1.162 1.245-1.75.135-.533-.002-.733.175-1.471.022-.088.055-.117.077-.193.258-.033.504-.17.634-.368.248-.378.077-.825-.077-1.596a3 3 0 0 0-.054-.46c-.033-.29-.055-.652-.099-1.51-.055-1.245-.077-1.867.006-2.56.066-.54.13-.658.164-1.222.006-.099-.002-.126 0-.204.269-2.021.43-2.92.504-3.99.055-.858.044-1.194.033-1.552.011-.3.033-.588.088-1.16.065-.708.148-1.374.209-1.857.135-1.109.172-1.258.153-1.675a7 7 0 0 0-.209-1.121 3 3 0 0 0-.077-.283c-.01-.043-.01-.065-.032-.11-.21-.583-.321-.91-.635-1.018zm-28.326 3.306a.53.53 0 0 0-.3.146c-.196.2-.232.567-.136.833.11.292.45.447 1.235.9.176.194.288.325.446.34.022.002.033-.022.066-.033.286.183.446.309.43.413-.021.131-.214.158-.723.413-.055.033-.422.219-.77.447-.588.387-.631.565-.844.554-.178-.01-.338-.159-.47-.35l-.033-.066c-.065-.157-.12-.396-.203-.77.01-.428.181-.746-.011-1.132-.011-.022-.237-.444-.538-.447-.607-.011-.993 1.365-1.229 2.185v.005c-.223.79-.065 1.29.011 1.874.077.572.287 1.001.578 1.585.247.51.373.76.64.996.417.363.395.55.48.82.088.297-.224.588-.527.99-.49.65-.683 1.238-.922 1.965a6.2 6.2 0 0 0-.232 2.672c.065.513.162 1.292.656 2.088.758 1.228 1.829 1.543 1.794 1.92-.128.009-.43.032-.877.098-.618.098-1.07.299-1.574.543a13 13 0 0 0-1.534.413c-.974.336-.694.446-2.626 1.381-.387.187-1.05.497-1.846 1.064-.672.479-.897.76-.95 1.098a1.19 1.19 0 0 0 .412 1.058c.286.232.647.26.99.21.364.11.8.227 1.025-.022a.6.6 0 0 0 .125-.385c.4-.208.694-.455 1.222-.854.526-.398 1.11-.726 2.282-1.387 1.097-.616 1.73-.93 2.332-1.098.364-.077.726-.155 1.092-.16a5 5 0 0 1 .617.034c.065.01.136.022.203.044.226.043.457.123.685.266.022.01.044.033.066.044.314.22.435.41.684.594.174.15.369.288.674.38.356.098.703.076 1.387.021a9 9 0 0 0 1.964-.384c.974-.305.893-.456 2.021-.889 1.457-.564 1.691-.357 2.31-.86.44-.359.444-.56 1.132-1.132.32-.262.572-.423 1.07-.752 1.04-.68 1.064-.584 1.511-.94.044-.033.088-.099.125-.13.365-.176.67-.384.697-.674.002-.022-.01-.033-.01-.055.155-.176.25-.239.464-.493.579-.683.661-.873.707-1.024.158-.48.099-.943.055-1.33-.044-.36-.088-.362-.193-1.053-.066-.4-.066-.474-.125-.679-.143-.483-.303-.533-.31-.781-.009-.309.233-.467.639-.911.576-.634.424-.672.934-1.229.243-.266.697-.759 1.342-1.115.01-.006.022-.005.033-.011-.011.022-.099.066-.099.088.044.114.552.054.889-.033a2.9 2.9 0 0 0 1.2-.617c1.268-.368 1.982-.767 2.422-1.098.792-.592.818-.948.81-1.087-.022-.35-.282-.57-.413-.668-.022-.033-.01-.066-.033-.088-.301-.387-.869-.35-1.008-.34-.39.023-.688.209-.997.448-.405.201-.813.473-1.437.911-.499.35-1.086.711-2.072 1.325-.587.254-1.07.488-1.427.872-.389.235-.615.392-.82.64-.367.443-.551.853-.76 1.07-.123.087-.156.087-.237.135-.022.006-.044.033-.077.033-.197 0-.336-.152-.73-.673-.885-1.172-.927-1.403-1.302-1.778-.217-.212-.686-.453-1.625-.917-.087-.044-.11-.044-.186-.077-.088-.054-.17-.155-.266-.209a6 6 0 0 0-1.597-.628c-.032-.009-.11-.011-.146-.022-.808-.246-1.255-.367-1.727-.283-.155.022-.291.066-.413.088-.077-.022-.322-.134-.702-.51-.055-.15-.099-.317-.193-.538-.25-.58-.588-.944-1.013-1.403-.259-.279-.575-.616-1.092-.94-.055-.033-.11-.033-.16-.066-.126-.131-.329-.372-.451-.447-.17-.11-.657-.394-1.24-.328-.088.01-.168.043-.249.065-.39-.11-.764-.195-.996-.153zm7.24 6.685c.51.01.865.227 1.665.752.839.55 1.257.825 1.466 1.003.36.298.703.67 1.364 1.404a.5.5 0 0 1 .066.076c.305.432.6.83.684 1.058.077.203.162.4.295.533-.022.066-.099.19-.147.294-.242.088-.393.177-.82.267-.607.123-1.013.204-1.596.237-.435.022-.718.022-.957-.022a.7.7 0 0 0-.087-.146c-.175-.11-.158-.21-.447-.77-.314-.607-.375-.554-.595-1.025-.232-.494-.172-.56-.408-1.063-.158-.34-.199-.349-.532-.928-.715-1.24-.646-1.423-.6-1.5.12-.185.448-.174.657-.17zM84.6 85.713c.24.281.575.678.996 1.138.652.71.876.893 1.313 1.437.503.623.751 1.054.872 1.274.293.532.46.854.475 1.302.011.356-.077.606-.248 1.104-.11.304-.2.523-.3.707-.312.259-.523.509-.828.674-.137.044-.268.066-.357.088a3 3 0 0 1-.357.055c-.13-.007-.262-.008-.402-.077-.347-.167-.426-.458-.78-1.15-.527-1.008-.609-.862-.918-1.573-.01-.033-.033-.088-.044-.12a7.4 7.4 0 0 1-.226-1.03 9.4 9.4 0 0 1-.066-1.54c.004-.255.01-.423.022-.606.156-.326.333-.533.418-1.018.011-.088.011-.174.022-.266a2.3 2.3 0 0 1 .408-.397zM94.97 96.87c.202.022.345.088.374.098.51.22.685.725.956 1.297.197.413.668 1.088 1.608 2.428.444.638.845 1.132 1.641 2.129.715.896 1.074 1.345 1.545 1.85.878.936.982.864 1.472 1.478.576.715.478.867 1.274 2.208.734 1.236.906 1.254 1.528 2.406.174.316.488.92.793 1.732.228.599.973 2.328.838 2.394-.005.003-.087-.098-.098-.11-.088-.189-.189-.335-.295-.605-.217-.541-.249-.736-.441-1.296-.099-.267-.31-.89-.612-1.512a10 10 0 0 0-1.454-2.157c-.448-.525-.354-.316-1.263-1.29-.316-.34-.609-.667-1.103-1.019-.269-.19-.434-.248-.6-.311-.023-.011-.034-.022-.056-.033-.155-.055-.265-.077-.35-.066-.132-.033-.248-.098-.397-.076-.076.008-.554.087-.82.475-.278.41-.165.9-.055 1.33.182.73.513 1.201.85 1.704.737 1.101 1.11 1.65 1.318 2.044.777 1.457.59 1.452 1.296 2.604.178.288.31.474.47.713-.43-.315-.909-.67-1.115-.826a8.6 8.6 0 0 1-1.41-1.365c-.548-.68-.833-1.279-1.25-2.168-.279-.579-.466-.973-.64-1.545-.294-.974-.18-1.219-.436-2.281-.193-.804-.27-.703-.656-1.947-.453-1.442-.33-1.5-.697-2.548-.197-.564-.126-.25-1.019-2.31 0 0-.332-.754-.888-1.709-.14-.24-.412-.694-.945-1.008-.168-.098-.376-.202-.544-.164.077-.12.214-.311.476-.441.255-.127.511-.134.713-.11zm-1.42 1.45c.002.117-.007.188 0 .333.021.576.032.862.13 1.217.116.406.219.488.616 1.246.426.811.42.898.606 1.268-.436-.693-.624-.91-.883-1.427-.212-.433-.386-.789-.475-1.302-.077-.445-.055-.78-.022-1.217.006-.077.022-.055.033-.12zm16.415 22.093c.458-.001 1.003.076 1.529.373.313.17.68.453 1.46 1.693.77 1.221 1.032 1.93 1.5 2.83.893 1.74 1.114 1.437 2.157 3.272 1.426 2.504.963 2.984 2.01 3.838.47.382 1.247.841 1.862 1.8.22.344.374.676.413 1.07.033.293-.033.57-.125.923a1 1 0 0 0-.227.065c-.364.193-.396.398-.849.855-.263.27-.479.43-.804.673-.332.244-.757.561-1.375.844-.437.2-.75.35-1.217.396-.329.033-.583.002-1.07-.054-.476-.055-.717-.088-.894-.21-.395-.255-.517-.7-.572-.905-.099-.344-.055-.536-.044-1.059.008-.24.022-.975-.066-1.624a6 6 0 0 0-.43-1.563c-.077-.174-.331-.77-.85-1.471-.404-.55-.586-.63-1.12-1.217-.34-.372-.723-.91-1.5-1.976-.789-1.09-.678-.975-1.381-1.942-.87-1.19-.924-1.193-1.121-1.579-.433-.847-.485-1.437-.787-1.46-.293-.022-.55.501-.64.679a2.1 2.1 0 0 0-.214.849c-.011.247.01.447.033.549.055.308.211.628.52 1.25.228.46.396.806.674 1.269.394.645.74 1.09 1.115 1.573.6.766.727.86 1.002 1.206-.369-.38-.778-.764-1.608-1.743-1.383-1.635-1.574-2.244-1.635-2.48-.165-.6-.148-1.124-.099-1.625.022-.232.033-.468.066-.684a7 7 0 0 1 .832-2.468c.174-.301.311-.538.567-.804.7-.739 1.558-.937 1.879-1.014a4.3 4.3 0 0 1 1.008-.13zm.515 1.194c-.18-.01-.315 0-.362.006-.236.033-.425.126-.804.311-.326.16-.484.241-.538.357a.5.5 0 0 0-.222.066c-.127.099-.193.299-.164.781.066.963.444 1.685.629 2.032.355.684.698 1.373 1.053 2.06.903 1.736.624 1.831 1.358 3.188.228.421.82 1.197 1.998 2.75.256.333.98 1.267 2.078 1.812.2.099.49.225.752.113.355-.15.502-.687.493-1.144.007.002.044.055.044.055.099-.044-.159-.758-.402-1.681-.348-1.337-.206-1.375-.452-2.225-.193-.665-.559-1.334-1.285-2.671a49 49 0 0 0-1.234-2.135c-1.43-2.38-1.29-1.805-1.568-2.45-.155-.36-.316-.811-.765-1.059a1.5 1.5 0 0 0-.611-.17z" style="fill:#3574a5;fill-opacity:1;fill-rule:nonzero;stroke:none;stroke-width:3.86436"/>
    </g>
    <g id="Beetle" transform="translate(-57.646 -60.289)">
        <path id="path26210-2" d="M89.733 69.94c-.113.023-.238.13-.386.363-.295.467-.01 1.364-.045 1.895a6.6 6.6 0 0 1-.251 1.486c-.3 1.07-.732 2.152-1.211 3.154a9 9 0 0 1-.503.93c-.034-.01-.034-.056-.068-.056-.12.002-.438.386-.567.737-.26.17-.512.347-.545.714-.067.82 1.167 1.222 1.726 1.585.304.2.887.453 1.071.813.228.452.023 1.026.193 1.51.267.789.96 1.264 1.743.825.551-.311 1.685-2.2 2.516-1.562.539.419-.274 1.541-.41 2.036-.308 1.154.123 2.132 1.345 1.345.408-.263 1.213-1.181 1.709-.93.763.387.196 2.394.228 3.042.012.316.226 1.28-.056 1.48-.424.296-.253-.17-.643-.321a.8.8 0 0 0-.375-.068h-.011c-.615.09-.424 1.338-.977 1.538-.09-.009-.181-.011-.287-.056-.223-.09-.693-.822-1.111-1.375-.057-.09-.114-.23-.165-.287-.034-.034-.101-.056-.146-.102-.022-.022-.034-.022-.056-.045-.301-.249-.701-.456-.82.146-.068.332.411.787.474 1.106.248 1.196-.482.693-1.093.257-.13-.14-.255-.213-.38-.234-.08-.045-.246-.181-.281-.176-.595.102-.4.931-.416 1.492-.124.298-.333.38-.772-.056-.2-.505-.358-1.176-.69-1.27-.572-.164-.895 1.322-1.007 1.738-.384 1.401-.446.947-1.556.404-.068-.034-.166-.045-.246-.068-.034-.023-.056-.045-.102-.068-.575-.224-.656-.204-1.076-.68-.08-.09-.127-.14-.187-.21-.045-.388.388-.292.766-.404.711-.21.873-.523.743-.837.045-.034.057-.102-.056-.362-.216-.473-.511-.36-.86-.415-.023-.012-.046-.034-.069-.046-.224-.102-.303-.167-.45-.251-.158-.123-.303-.22-.48-.357-.575-.818 3.54-.712 2.322-2.129-.18-.21-.472-.332-.766-.45a18 18 0 0 0-.346-.246c-.101-.068-.34-.18-.509-.281-.113-.156-.169-.355-.123-.632.115-.714 1.31-1.662 1.737-2.281.12-.176.233-.435.362-.673.277-.282.525-.599.486-.872-.045-.335-.27-.433-.532-.485-.045-.034-.045-.08-.102-.102-.212-.09-.518-.08-.83-.068-.637-.143-1.26-.321-1.908-.415-.818-.116-1.904-.046-2.603-.527-.145-.102-.518-.58-.883-1.018-.22-.4-.434-.794-.808-.988v.006c-1.517-.795-.63 1.926-.643 2.522-.034 1.57-.78 3.132-1.462 4.51-.512 1.038-.728 2.162-1.2 3.2-.315.69-.856 1.287-1.304 1.878-2.423-.995-2.642 1.548-1.416 2.913.034.114.12.2.246.252.266.225.561.41.924.497.688.163 1.09-.315 1.644-.38.266.18.62.364 1 .544.09.115.175.236.275.333.604.586 1.425 1.019 2.112 1.486 2.057 1.39 3.872 2.817 6.26 3.516.327.09 1.233.2 1.305.643.056.34-.666.51-.778.777-.295.723.813 1.414 1.24 1.837.9.891 1.006 1.286 1.445 2.44.212.56.771.839 1.007 1.322.182.371.158.471.022.591-.056-.009-.114-.023-.164-.005-.198.068-.227.188-.2.305-.469.336-.44.366.007.866.283.315.593.586.836.941.343.495 1.84 2.492.813 2.656-.49.08-.82-.226-1.135-.474l-.011-.005c-.374-.292-.726-.505-1.276.068-.142.148-.228.291-.327.421a.9.9 0 0 1-.275.194c-.034.023-.057.045-.09.056-.146.057-.279.057-.41.057a1.84 1.84 0 0 1-.837-.345c-.36-.34-.617-.864-.83-1.428-.155-.69-.228-1.456-.405-2-.183-.58-.323-1.429-.778-1.873-.251-.243-.937-.238-.924-.626.012-.535 1.232-1.075 1.428-1.626.09-.264.113-.393.057-.673-.176-.834-.988-1.793-1.451-2.504-.463-.714-1.456-2.932-2.247-1.526-.467.83-.724 2.322-.51 3.24.08.348.48.755.492 1.094.011.476-.26.407-.392.767-.067.19-.135.29-.175.515-.16.839.113 2.403.421 3.206.356.93 1.273 1.44 1.457 2.51.191 1.126-.574 2.266-.135 3.351.723 1.79 1.54-.09 2.574.13.52.113.728.681 1.147.977.436.31.947.592 1.398.883 1.697 1.09 3.934 1.27 4.92 3.258.607 1.223-.418 1.335-1.27.953q-.373-.26-.772-.51c-.41-.373-.948-.869-1.292-.63-.531.37-.236 2.125-.667 2.784-.6.902-1.891 1.397-2.247 2.451-.243.719.2 1.173.205 1.86 0 .596-.151 1.03-.022 1.65.128.623.208 1.119.216 1.75.022 2.052.51 4.698-.37 6.64-.323.702-.72 1.15-.193 1.877.152.209.393.4.656.55.102.133.256.25.526.293a.86.86 0 0 0 .632-.117c.8-.204 1-1.086 1.076-1.896.009-.079.003-.18.006-.269a3 3 0 0 0 .068-.292c.034-.159.113-.456.068-.667.023-.079.011-.16.057-.228.28-.5.61-.49.526-1.094-.09-.615-.732-1.217-.918-1.855v-.005a1.06 1.06 0 0 1 .011-.65c.256-.73 1.177-.569 1.556-1.228.046-.08.023-.174.046-.257.48-.011.156-1.087-.068-1.82a16 16 0 0 0-.164-.9c-.023-.4.01-.792-.035-1.194-.022-.256-.168-.513-.18-.76a1.4 1.4 0 0 1 .056-.381c.255-.557.843-.988 1.544-.813.767.191.838 1.457.966 2.165.215 1.218.476 2.426.883 3.592.408 1.174 1.125 2.398.702 3.668-.2.59-.63 1.098-.866 1.673-.196.479-.118 1.117-.421 1.533-.272.371-.737.413-.913.912-.271.771.293.79-.35 1.393-.48.447-.667.35-.503 1.082.131.615.522 1.241.813 1.796.486.934 1.06 1.824 1.644 2.703.248.376.526.728.713 1.135.136.3.187.615.386.895.555.779.857.5 1.591.41.755-.102 1.996 1.114 2.603 1.521.823.547 1.621.926 2.1 1.825.34.63.697 3.047 1.879 1.837.303-.309.352-.766.327-1.246.068-.621.068-1.349.056-1.41-.187-1.042-.81-2.092-1.421-2.942-.978-1.358-2.729-2.117-3.551-3.522-.8-1.37-1.27-2.756-1.773-4.23-.068-.208-.184-.565-.375-.772.178-.202 1.105-.734 1.194-.726.29.023.952 1.161 1.176 1.38.894.887 1.764 1.841 2.767 2.604 2.193 1.662 5.066 2.786 7.746 3.306 1.278.246 2.614.372 3.896.129.902-.171 2.54-.057 3.247-.55.334-.233.462-.56.485-.924.068-.068.143-.115.2-.252.484-1.185-1.837-5.493-4.101-9.337-.35-.766-.69-1.537-1.048-2.299-.156-.331-2.026-3.407-1.59-3.767.423-.348 1.453 1.922 1.649 2.27.715 1.286 1.424 2.575 2.17 3.837 1.234 2.077 2.822 3.884 3.844 6.096.368.803.865 2.546 2.06 2.259.958-.233 1.878-1.902 2.357-2.668 1.038-1.674 1.997-3.098 2.469-5.055 0-.008.004-.011.005-.022.602-1.85.806-3.955.685-5.85-.08-1.194-.328-2.415-.632-3.604a21 21 0 0 0-.538-2.358 4 4 0 0 0-.175-.397c-.13-.527-.265-.896-.492-1.287.121.034.732.17.901.129.324-.09.674-.632.966-.62.503.022.74 1.135 1 1.503.505.719 1.228.57 1.867 1.1.716.591.825 1.501 1.38 2.165.592.703 1.582.727 2.417.918.148.034.276.056.415.09.247.15.518.225.691.165.426.079.857.13 1.351.09.847-.068 2.442-.255 2.534-.918.045.022.22.045.204.068.09-.118-.129-.357-.439-.626a2.5 2.5 0 0 0-.38-.38c-.651-.516-1.384-.757-2.007-1.352-.359-.34-.72-.67-1.1-.988-.768-.65-1.586-1.286-2.363-1.954-.73-.88-1.231-1.901-2.07-2.715-.884-.85-1.824-1.555-2.967-2.006-.81-.316-1.668-.728-2.55-.708-.975.023-1.897.358-2.768-.216-.463-.31-2.04-2.61-3.34-3.58 0-.012-.011-.023-.011-.034.045-.44.868-.868 1.088-1.247.034-.056.045-.128.056-.193.258.068.333-.023.305-.45-.012-.186-.102-.354-.176-.527.034-.08.08-.146.181-.17.204-.045.786.289 1.065.292.426 0 .886-.155 1.27-.327.538-.236.817-.658 1.292-.222.32.296.618 1.252.889 1.68.368.587.54 1.363 1 1.883.452.504 1.234.762 1.837 1.017.62.264 1.192.548 1.779.884.551.315 1.384.524 1.82.995.443.478.428 1.306 1.263 1.363.324.022.632-.223.959-.246.38-.022.76.144 1.123.234.551.14 1.446.256 1.375-.59-.001-.01-.023-.034-.023-.046v-.005c.09-.19-.321-.816-.79-1.421-.023-.046-.08-.114-.09-.14-.16-.313-.473-.964-.796-1.112-.08-.034-.217-.023-.328-.023-.416-.234-.823-.166-1.27-.386-.203-.102-.383-.302-.566-.491-.13-.145-.264-.284-.398-.434l-.14-.14a9 9 0 0 0-.34-.404c-.99-1.07-1.975-2.084-3.077-3.03-1.154-.992-2.031-2.213-3.13-3.248-.515-.483-.696-.656-1.374-.544-.372.068-.494.296-.913.164-.26-.08-.524-.435-.784-.567-.931-.48-2.107-.93-2.662.022-.755 1.298-1.318 2.165-2.592 2.984-1.21.779-1.629 1.409-2.943.562-.23-.15-1.265-1.074-2.1-1.715-.09-.423-.034-.88.194-1.351.308-.623.882-.94.877-1.68-.001-.193-.102-.356-.17-.525.102-.448-.113-.947-.432-1.387.068-.6.844-.506 1.562-.89.235-.127.362-.267.497-.41 0 .003.034-.009.034-.006.003-.008-.007-.011-.005-.023.068-.068.139-.137.18-.21.139.131.33.318.363.299-.003 0-.158-.524-.222-.743.057-.501-.141-1.066-.404-1.708-.283-.699-.447-2.482-.995-2.937-.293-.246-.523-.145-.748-.057-.226-.034-.434-.045-.65-.204-.153-.269-.274-.803-.421-1.053-.667-1.131-1.491-2.164-2.358-3.142-.755-.855-1.347-1.823-2.118-2.662-.442-.483-1.154-1.507-1.474-.685-.36.923.716 2.918 1.059 3.768.255.635.116.827.129 1.474.003.195.034.34.079.462.113.378.59.911.907.995.659.767 1.247 2.221 1.351 3.16.102.886-.189 1.722.057 2.608.199.696.306.906.034 1.61-.204.511-.494.951-.737 1.438-.495.975-.322 1.567-1.328 2.118-.132-.969-.579-1.955-.966-2.89.007-.473-.045-.927-.38-1.246-.33-.312-.643-.28-.954-.205-.128-.007-.176-.045-.35-.045-.397-.004-.602.01-.872-.13-.205-.269-.601-.93-1.007-1.204.09-.485 1.592-1.433.292-1.72a.45.45 0 0 1-.327-.257c-.102-.377.102-.891.17-1.229.068-.19.15-.396.176-.556.12-.763.129-1.469.113-2.188 0-.034.009-.068.011-.102.09-2.504.08-4.988.362-7.488a39 39 0 0 0 .222-3.212c.023-.81.393-1.852.023-2.603-.057-.102-.14-.137-.205-.216a1 1 0 0 0-.28-.292c-.702-.472-1.743-.25-2.563-.51-1.606-.507-3.165-1.488-4.51-2.474-1.115-.811-2.13-1.748-3.084-2.738-.102-.102-.84-1.026-1.41-1.55-.142-.272-.29-.521-.485-.486zm10.22 28.89c.32.067.722.504.802.812.16.599-.227.667-.742.819-.863.255-1.4.615-2.17 1.07-.848.499-1.72.748-2.627 1.083-1.183.444-2.21 1.233-3.364 1.696-.19.08-.398.068-.597.034-.023-.004-.045 0-.068-.006-.08-.022-.15-.079-.229-.116-.123-.068-.253-.133-.34-.264-.194-.302-.186-1.015-.35-1.422.524-.522 2.176-.663 2.644-.801 1.234-.368 2.362-.92 3.516-1.48.615-.304 1.259-.506 1.89-.778.455-.2 1.091-.773 1.638-.65zm3.868 3.849c.376.079.652.41.72 1.21.022.263-.068.494-.216.702-.243.18-.553.315-.848.521-.48.334-.952.664-1.428.989a24.5 24.5 0 0 1-2.96 1.673c-.08.034-.16.079-.24.116-1 .456-2.049.737-3.083 1.107-.643.227-1.268.449-1.93.157-.36-.156-1.185-.774-.978-1.281v-.005c.2-.487 2.62-1.149 3.03-1.34.919-.428 1.828-.868 2.75-1.287 1.059-.479 2.03-1.07 3.013-1.685.644-.402 1.545-1.002 2.17-.877" style="fill:#7a4fab;fill-opacity:1;fill-rule:nonzero;stroke:none;stroke-width:3.99375"/>
    </g>
    <g id="Grasshopper" transform="translate(-57.646 -60.289)">
        <path id="path18694-6" d="M100.209 73.091c-.333.05-.586.172-.632.197-.149.07-.71.357-.758.825-.05.475.488.612.488 1.11 0 .577-.725.711-.758 1.36-.01.247.121.48.383.933.31.529.538.79.695.986-.08.103-.109.487.005.85.13.428.468.809.56.763.1-.05-.04-.607-.208-1.069.355.605.297 1.135.742 2.37.677 1.88 1.45 2.267 1.188 2.87-.206.47-.775.43-2.23.82-2.872.767-3.46 1.665-4.384 1.218-.236-.113-.09-.12-1.675-1.96-.687-.802-.903-1.028-1.297-1.183-.51-.214-1.195-.251-1.634-.29-.623-.05-.697.005-.902-.104-.577-.3-.748-1.169-.706-1.753.02-.213.09-.811.55-1.318.146-.158.463-.458 2.194-.876 1.013-.245 1.519-.364 2.163-.404 1.042-.05 1.376.143 2.449-.02.676-.103 1.226-.194 1.374-.566.06-.158.02-.34-.05-.519.08-.128.124-.264.08-.383-.05-.137-.242-.203-.523-.249-.02-.02-.04-.05-.06-.07-.23-.198-.691-.491-2.335-.43-.563.02-1.653.09-3.112.487-.825.219-1.579.432-2.454.96-.41.244-.875.525-1.317 1.063a4.3 4.3 0 0 0-.804 1.546c-.195.626-.387 1.258-.182 1.955.1.337.22.457.16.68-.116.417-.754.705-1.306.674-.673-.04-.752-.522-1.645-.975-.138-.07-1.157-.576-2.386-.4-.542.08-.965.3-1.815.742-.712.368-1.265.655-1.842 1.214-.297.29-.547.654-1.053 1.38-.238.343-.24.364-.358.555-.04.05-.09.09-.13.15a7 7 0 0 0-.519.861c-.07.109-.138.238-.254.395-.669.903-1.014 1.12-.954 1.556.04.297.266.52.519.68.102.283.459.32.488.32.151.01.324-.05.461-.165.352-.104.629-.32.716-.394.354-.308.405-.583.783-1.458.41-.96.618-1.437.934-1.852.612-.808 1.363-1.196 1.685-1.359.422-.212 1.006-.501 1.795-.497.267.002.655.02 1.012.16-.09.002-.241-.02-.25 0-.02.07.402.237.82.44.09.123.23.345.228.67 0 .439-.282.617-.477 1.048-.206.453-.162.843-.08 1.587.09.822.329 1.435.602 2.122.202.499.324.697.596 1.426.22.578.332.874.332.976.008.804-.974 1.023-2.256 2.376-.687.725-1.376 1.683-1.613 2.012-.649.9-.82 1.273-1.235 1.333-.443.07-.88-.34-1.748-1.151-.252-.234-.68-.736-1.54-1.738-.428-.494-.6-.746-.706-.99a7 7 0 0 0-.1-.488c.02-.393.175-.633.03-.929-.241-.489-1.09-.556-1.505-.596-.818-.06-.992.188-1.556-.02a2.6 2.6 0 0 1-.871-.576c-.379-.386-.387-.66-.639-.711-.322-.06-.649.326-.84.56h.006a2.1 2.1 0 0 0-.431.861c-.04.188-.1.459-.01.778.148.54.621.811.742.883.52.304.809.123 1.333.31.273.101.308.207 1.172 1.095.55.563.826.844 1.084 1.074.552.485.778.554 1.437 1.022 1.016.719.795.777 2.148 1.846 1.108.876 1.299.867 1.639 1.37.18.266.298.52.57.591.361.09.719-.209 1.193-.612.623-.521 1.263-1.018 1.883-1.546 1.622-1.385.524-.317 1.774-1.333.322-.258.573-.47.845-.41.266.07.4.38.659 1.007.287.701.43 1.055.342 1.27-.156.39-.708.447-2.142.695 0 0-.932.16-2.366.44-1.926.38-2.519.63-2.894 1.132-.103.134-.373.495-.28.856.07.283.312.344.55.685.223.315.27.617.327.964.153.939.346 1.875.467 2.817.351 2.741.407 2.498.39 2.94-.02.462-.081.978.155 1.609.155.406.296.478.285.758-.02.503-.469.612-.696 1.328-.08.262-.19.584-.04.87.04.071.134.233 1.022.566.528.199.801.3 1.006.27.447-.07.912-.44.965-.861.05-.418-.341-.568-.27-1.006.02-.17.09-.191.493-.747.428-.595.455-.711.586-.721.248-.02.464.364.871 1.115.56 1.03.84 1.54.913 1.707.655 1.512.986 2.274 1.224 2.925.02.07.673 1.72 1.976 5.027.843 2.146.82 1.893 2.547 6.011 2.1 4.997 1.95 4.91 3.009 7.216.633 1.384.992 2.919 1.867 4.165.535.765 1.302 1.658 1.011 2.423-.183.484-.644.55-.882 1.28-.05.156-.229.714.02 1.225.188.386.453.396.914.783.417.35.348.468 1.208 1.696.434.62.664.884.835 1.048.003.003.002.008.006.01.138.174.61.767 1.068.632a.65.65 0 0 0 .264-.181c.175-.02.337-.06.452-.172.336-.336.134-1.015 0-1.468-.39-1.317-1.075-1.462-1.634-2.832a6 6 0 0 1-.24-.68c-.02-.135-.05-.265-.03-.414.041-.457.217-.733.071-.882-.04-.04-.114-.02-.177-.03.03-.734.247-1.115.27-1.794.03-.858-.319-1.488-.86-2.433-.03-.06-.051-.08-.081-.13-.624-1.46-1.281-2.522-1.385-2.676-.502-.74-.72-.974-1.012-1.354-.257-.409-.656-1.183-1.97-3.88-.175-.442-.645-1.657-1.733-4.02-.898-1.952-1.237-2.404-2.319-4.56-.76-1.929-1.267-3.973-2.277-5.778-.07-.12-.338-.591-.197-.737.11-.117.428.008.913.244.768.368 1.145.556 1.701.95 1.346.944 1.518.597 2.998 1.582.482.319 1.188.795 1.925 1.592.676.733 1.04 1.376 1.54 2.272 1.094 1.951.821 2.153 1.707 3.491.602.907.66.714 1.748 2.225.104.145.131.185.213.302 0 .06-.008.122 0 .171.07.336.343.546.653.69.13.151.247.286.43.404.464.301.646.234 1.967.872.445.216.7.359.964.607.422.385.4.594.716.97.591.69 1.08.44 1.862 1.084.387.319.23.354 1.038 1.405.701.91 1.06 1.367 1.535 1.582.07.03.1.01.156.03.422.232.926.399 1.084.208v-.01c.136.02.197.008.394.06.825.234.801.428 1.5.603.364.09 1.171.295 2.064-.03.74-.274 1.175-.776 1.405-1.048.107-.128.322-.4.934-1.852.03-.08.02-.07.05-.146.01-.02.03-.03.05-.05.07-.124.1-.236.105-.347.233-.564.477-1.125.524-1.411.08-.538.03-1.066-.07-2.122a22 22 0 0 0-.213-1.571c-.07-.383-.172-.836-.374-1.717a32 32 0 0 0-.316-1.307c-.01-.07-.01-.186-.04-.28-.1-.402-.26-1.05-.514-1.406-.09-.564-.02-1.018.06-1.478.178-1.034.439-1.22.545-1.857.05-.255.104-.82-.498-2.335-.23-.58-.738-1.755-2.08-3.734-.874-1.29-1.313-1.93-1.93-2.667-.372-.445-.647-.745-.86-1.022-.07-.196-.162-.497-.29-1.24-.175-.999-.157-1.195-.14-1.322.02-.1.03-.183.05-.301.08-.317.209-.516.368-.902.09-.205.16-.418.369-2.366.141-1.307.211-1.969.155-2.189-.09-.354-.08-.586-.09-.845.04-.22.1-.372.203-.394.22-.05.48.362.866.964.602.943 1.326 1.803 1.847 2.79.672 1.28.553.732 5.145 7.984 2.065 3.261 3.098 4.895 3.278 5.28.656 1.403 1.186 2.225 2.241 3.875.213.33.525.815 1.064 1.318.517.478 1.012.76 1.784 1.203.992.573 1.233.602 1.764 1.064.283.243.599.515.871.97.464.767.259 1.128.737 1.804.195.277.553.788 1.063.778.227-.008.44-.133.617-.3.142-.136.265-.298.322-.478.124-.388-.1-.75-.426-1.55a5 5 0 0 0-.103-.778 4.7 4.7 0 0 0-.644-1.572 4.3 4.3 0 0 0-.975-1.084c-.04-.04-.06-.08-.104-.115-.765-.626-1.223-.407-2.002-.928-.612-.408-.91-.953-1.198-1.53-.12-.336-.233-.655-.384-1.053-.213-.563-.87-1.579-1.8-2.973-.101-.188-.209-.374-.306-.565-.475-.938-.747-1.262-3.423-4.736-4.284-5.553-3.879-5.062-4.233-5.514-2.607-3.558-3.099-4.582-4.259-5.68-.17-.161-.507-.512-.866-.959-.11-.203-.237-.399-.332-.612-.432-.981-1.09-1.876-1.37-2.91-.12-.446-.265-1.127-.845-1.598-.134-.106-.624-.508-1.13-.352-.446.138-.638.621-.701.789-.216.552-.07.99-.04 1.41.07.833-.318 1.045-.867 2.511-.754 2.019-.529 2.998-1.208 3.242-.471.17-1.015-.142-1.12-.203-.507-.29-.715-.762-.877-1.11-.376-.79-.908-1.536-1.976-3.024a36 36 0 0 1-.608-.866c-.07-.17-.15-.328-.26-.498-.105-.219-.218-.428-.249-.7-.01-.11-.04-.49.07-.96.15-.649.43-.91 1.085-1.862.227-.33.604-.88 1.011-1.588.552-.955.67-1.342 1.162-1.597.422-.217.83-.187.975-.177.301.02.853.14 1.93 1.204.53.527.525.629 1.156 1.338 1.038 1.168 1.557 1.75 2.272 1.924.61.15.753-.08 1.624.146.403.102.88.29 1.255.435.814.31.913.408 1.126.348.491-.132.804-.85.783-1.453-.02-.514-.29-1.099-.768-1.333-.315-.16-.501-.05-1.411-.04-.672.01-1.008.005-1.245-.05-.185-.232-.356-.532-.716-.882-.254-.25-.437-.325-.643-.415a4.6 4.6 0 0 0-.752-.732c-.47-.365-.956-.62-1.65-.98-.28-.147-.361-.198-.524-.275-.02-.01-.02-.02-.04-.03-.205-.122-.329-.168-.488-.244-.08-.04-.182-.08-.275-.146a5.6 5.6 0 0 1-1.291-1.177c-.666-.84-.588-1.283-1.116-1.52-.467-.216-.673.07-1.14-.115-.436-.166-.662-.571-1.194-1.935-.33-.856-.39-1.103-.545-1.556.008-.173.03-.283.01-.586-.03-.412-.157-1.19-.445-2.033.05-.446.1-.78-.13-1.354-.424-1.066-1.163-1.35-1.022-2.034.12-.584.72-.654.794-1.302.05-.47-.2-.948-.555-1.224-.363-.28-.777-.316-1.11-.27zm3.87 13.18c.123.101.02.468-.125.712-.234.393-.57.454-.97.72-.116.07-.161.12-1.032 1.183-.804.985-1.206 1.478-1.27 1.587-.123.212-.197.372-.276.52-.04.03-.09.07-.12.09-.08.05-.236.14-.425.202-.08-.08-.186-.223-.383-.492-.663-.907-.88-1.11-.81-1.401.051-.177.17-.285.312-.394.744-.58 1.472-.868 1.982-1.095.297-.127.945-.413 1.696-.866.846-.51 1.262-.896 1.421-.768zm-14.058.94c.462.02.868.272 1.038.378.244.151.597.372.576.627-.02.266-.423.287-1.074.727-.616.419-.603.631-1.208.965-.304.17-.818.447-1.084.249-.193-.145-.167-.481-.146-.711v-.005c.05-.543.321-.93.586-1.297.362-.5.534-.748.835-.861.16-.06.324-.08.477-.07zm4.207 2.235c.21-.02.477-.03.794.02.513.08.797.12.96.353.255.364.04.919-.156 1.213-.255.376-.769.726-1.25.613-.216-.05-.413-.273-.789-.716-.46-.538-.686-.816-.601-1.043v-.005c.06-.18.276-.247.601-.347.08-.02.231-.06.44-.09zm-2.541 2.376c.3-.02.396.394.902.918.556.577.92.581.97.939.04.326-.214.638-.452.794a1.06 1.06 0 0 1-1.23-.1c-.184-.163-.116-.256-.378-1.116-.203-.675-.325-.917-.192-1.162.01-.02.152-.265.379-.275zm-2.848.627c.116 0 .61-.005.897.337.251.305.193.703.13 1.157-.07.46-.115.803-.395 1.08-.431.428-1.235.508-1.795.129-.05-.04-.594-.417-.602-1.043-.002-.52.366-.864.639-1.115.212-.198.58-.541 1.125-.545zm9.679 1.676c.326.08.452.57.586 1.104.1.4.189.746.09 1.178-.134.595-.523.954-.803 1.209-.422.389-.855.786-1.365.68-.619-.128-.874-.895-.913-1.023-.05-.15-.202-.62.02-.97.06-.1.177-.177.4-.337.44-.312.528-.283.694-.456.252-.266.12-.432.347-.788.192-.299.603-.677.939-.597zm-4.902 4.01c.07.02.122.08.187.114.111.195.285.391.493.539.03.08.09.143.104.228.05.428-.239.74-.519 1.047-.216.233-.72.697-1.51.814-.233.03-.715.08-1.25-.13-.162-.06-.705-.28-1.063-.83-.12-.184-.305-.465-.202-.632.123-.203.53.02 1.172-.09.28-.05.315-.112 1.395-.643.857-.425 1.002-.461 1.193-.421zm2.848 3.029c.356-.206 1.071.44 1.37.715.04.06.1.118.139.177a.4.4 0 0 0-.04-.08c1.448 1.36 1.997 2.971 2.448 4.17-.742-1.246-2.193-3.77-2.412-4.087.312 1.015 1.34 2.612 2.625 4.549.164.375.265.39 2.863 4.948 2.631 4.618 2.39 4.417 3.615 6.396.781 1.266 1.228 1.914 1.53 2.381.01.02.03.05.04.07a5.7 5.7 0 0 1 .628 1.22c.372.977 1.012 1.84 1.458 2.785.155.332.346.75.71.83.276.06.497-.107 1.51-.727.825-.507 1.022-.594 1.167-.514.23.129.233.636.12 1.006-.146.492-.485.73-1.583 1.536-1.416 1.038-1.328.992-1.52 1.105-.626.365-.559.22-2.163.938-.779.348-1.055.504-1.55.514-.1.006-1.1.02-1.256-.43-.113-.327.273-.733.369-.836.393-.406.691-.307 1.276-.731.22-.162.392-.319.524-.488.005-.006.01-.006.02-.01.02-.02.01-.04.03-.06.05-.07.115-.14.134-.228.06-.27-.08-.523-.27-.814-.06-.168-.105-.313-.191-.503-.617-1.362-.942-2.068-1.37-2.661-.92-2.021-2.855-5.832-5.415-10.587-.347-.645-.97-1.786-1.795-3.362-1.314-2.516-1.098-2.2-1.317-2.557l-.08-.12c-.57-1.108-.858-1.66-1.075-1.95-.152-.202-.272-.352-.394-.508a4.5 4.5 0 0 1-.285-.991c-.05-.308-.128-.927.145-1.09zm-8.445 1.991c.155-.01.3.008.457.07.141.06.356.188.732.737.704 1.038.678 1.69 1.1 2.838.29.79.723 1.535 1.587 3.019.605 1.04.89 1.42.731 1.665-.201.297-.842.01-2.588-.208-1.912-.237-1.913 0-2.713-.285-1.218-.436-1.707-1.168-2.298-.913-.47.202-.49.816-.907.836-.09.008-.36-.008-.845-.67-.06-.07-.08-.155-.13-.228-.07-.118-.238-.469-.414-.804a17 17 0 0 1-.322-.861c-.52-1.52-.648-1.925-.627-2.562.02-.71.204-.936.264-1.007.336-.376.837-.314 1.624-.394.797-.08 1.348-.251 2.24-.524 1.108-.34 1.647-.676 2.112-.71zm27.051 25.646c.317-.003.65.06.804.29.209.318-.03.812-.07.892-.32.63-.875.586-1.976 1.198-1.049.585-1.185.979-2.127 1.23-.333.09-.956.245-1.204-.05-.208-.248-.07-.68-.03-.783l.005-.006c.107-.318.318-.538.654-.804.503-.394.896-.589 1.297-.804 1.331-.715 1.31-.933 1.95-1.074.08-.02.383-.08.7-.09z" style="fill:#3f9b3a;fill-opacity:1;fill-rule:nonzero;stroke:none;stroke-width:3.54108"/>
    </g>
    <g id="Ladybug" transform="translate(-57.646 -60.289)">
        <path id="path61054-2" d="M111.536 70.794c-.066-.03-.147.062-.416.342-.365.385-.266 1.018-.607 1.412-.606.705-.721.122-1.37.093-.673-.03-1.358 1.186-1.983 1.642-.778.561-1.54 1.18-1.92 2.1-.733 1.802.054 3.199.731 4.85.602 1.483 1.241 2.98 1.674 4.526.294 1.04-.011 1.415-1.077 1.728-1.014.299-1.336-.073-2.175-.694-1.386-1.023-3.812-2.673-5.597-2.564-.68.042-1.475.996-2.11.944-.325-.03-.65-.615-.853-.949l-.022-.03c-.296-.535-.39-.78-.885-1.173-.231-.186-.488-.316-.698-.539-.013-.082-.057-.147-.049-.24.06-.608.53-1.394.672-1.838.379-1.19.6-2.199.725-3.433.071-.697.508-1.65.16-2.324-.132-.256-.696-.739-.96-.81-.51-.14-.094-.073-.645.102-1.22.394-1.213 1.363-.304 1.94.079.052.24.083.39.118-.256.47.118.765.389.698-.189.217-.54.427-.63.613-.375.776-.346 1.879-.698 2.745-.23.568-.443 1.156-.703 1.717-.457.986-.788 1.235-1.85 1.204a7.8 7.8 0 0 0-2.356.251c-1.85.49-2.757 1.856-3.886 3.321-.703.915-1.124 1.504-2.361 1.375-.768-.082-1.57-.26-2.324-.42-.643-.137-1.415-.276-1.946-.694-.399-.312-1.464-2.257-1.924-2.1v-.005c-2.352.801-.465 2.507.895 3.182 1.11.617 2.431.914 3.737 1.333l-1.311-.618c1.138.235 2.281.467 3.39.778-.019.178.025.325.208.42-.223 1.025.47 2.072 1.034 2.874-1.156.673-2.25 1.346-2.585 2.76-.254 1.082.258 2.024-.032 3.12-.234.87-.053.691.17 1.47.132.46-.147 1-.042 1.466.213.983.705.512.042 1.205-.483.503-1.355.489-1.716 1.098-.602-1.047-1.517-1.597-2.234-2.532-.395-.51-.574-1.209-1.007-1.684-.348-.384-.861-.565-1.189-.976-.592-.745-.424-1.065-1.316-1.344-.552-.174-1.174-.258-1.749-.34-1.021-.14-1.802-.004-2.756.442-.422.197-.95.641-1.412.713-.203.031-.553-.152-.736-.092-.514.176-.575.862-.943 1.15-.524.412-1.03.083-1.541.23-1.356.388-.339 2.003.432 2.59 1.437 1.099 3.584-.788 4.77-1.604.687-.468 1.226-1.058 1.946-.538.372.265.678.95.912 1.348.747 1.279 1.62 2.118 2.729 3.097 2.045 1.808 5.682 2.06 8.363 1.893 3.253-.208 6.37-.583 9.403-1.834.808-.333 3.419-1.566 4.142-1.13.038.02.041.062.075.093-.257-.093-.554-.106-.736.072.165.289.618 1.152 1.082.597.1 1.282-1.703 3.402-1.839 4.206-.379 2.19 1.679 4.255 3.795 4.307 1.316.03 1.392-.72 2.16-1.413.746-.673 1.795-.2 2.58-.778 1.673-1.23 1.33-5.162-.502-6.114-.125-.062-.271-.062-.405-.092-.052-.052-.094-.137-.15-.165-.625-.33-2.006-.073-2.713-.062-.175.003-.24.03-.32.051-.12-.041-.247-.03-.362-.093-.913-.485-1.226-1.256-.773-2.148.768-1.52 2.797-2.653 3.94-3.918 1.075-1.183 2.13-2.418 2.985-3.768 1.51-2.387 3.566-5.324 3.512-8.279-.03-1.533-.39-3.558-.863-5-.217-.656-1.529-2.345-1.22-3.011.178-.392 1.736-1.01 2.105-1.226 1.054-.62 1.804-1.119 2.42-2.196.046-.083.096-.173.149-.256.013-.01.018-.031.027-.052.337-.53.72-1.105.277-1.695-.077-.105-.524-.256-.656-.405-.115-.132-.108-.585-.25-.704-.196-.163-.248-.303-.315-.33zm9.632 12.783c-.762-.003-1.677.549-1.647 1.071.007.135.066.192.107.278-.019-.006-.072-.031-.086-.031.064.112.611 1.313 1.024.858.084-.093.066-.18.037-.26.099.04.2.082.266.18.612.867-.596.852-.826 1.355-.243.533.332 1.127.022 1.78-.332.693-.682.886-.912 1.77-.193.737-.288 1.051-1.029 1.29-1.03.33-2.323-.483-3.273-.113-.994.387-.656 1.633-1.753 1.727-.926-.082-1.671-.603-2.564-.56-.006 0-.012.006-.016.006-.158.01-.308-.01-.48.04-.064.022-.108.063-.17.094-.05.02-.093.004-.144.03-.615.27-1.16.656-1.684 1.067-.1.082-.157.181-.246.266a.5.5 0 0 0-.085.072c-.008.02-.01.02-.017.042-1.083 1.119-1.402 2.71-2.27 4.061-.819 1.269-1.795 2.225-3.15 2.884.095.052.242.118.346.17l-.07.042c.077.03.128.005.198.02 1.794.898 4.47 1.777 4.84 3.913.182 1.047-.284 2.741-.73 3.673-.366.75-1.988 2.134-2.005 2.937-.007.343.564 1.054.72 1.343.544 1.007 1.085 2.005 1.626 3.012l4.29 7.958a454 454 0 0 0 4.942 8.891q.145.35.31.56c.174.308.34.621.516.928.71 1.23 1.347 2.584 2.602 3.342 1.186.721 2.388-.493 3.395-1.173 1.204-.816 2.16-1.173 3.012-2.441.608-.9 1.104-1.964 1.53-2.964.483-1.129 1.226-2.513 1.162-3.784-.025-.505-.153-.696-.341-.747a.3.3 0 0 0-.134-.093c-.203-.062-.428.082-.666.25-.45.166-.957.321-1.412-.122-1.072-1.044-1.177-2.91-.944-4.297.325-1.924 1.871-1.69 3.268-1.23.02-1.228-.189-2.155 1.268-2.485.058.955-.342 2.874.432 3.449.632.47 2.162.877 2.942.949 1.042.103 1.653-.377 2.623-.522.977-.15 1.604.203 2.564-.17.693-.268 1.414-.537 1.999-1.013.49-.394 1.029-.856.853-1.605-.101-.421-1.245-1.292-1.711-1.22-.591.093-.357.668-.56 1.178-.389.976-.578.398-1.423.501-.094.01-.156.041-.235.072-1-.072-2.226.083-2.75.182a1.8 1.8 0 0 0-.8-.118c-.332.031-.465.093-.608.144-.199-.114-.4-.307-.698-.704-.17-.226-.288-.5-.426-.757-.035-.093-.072-.218-.107-.293a5.9 5.9 0 0 0-.906-1.418c-.098-.134-.188-.276-.304-.394-.314-.32-.891-.71-1.263-.949-.257-.166-.829-.301-1.008-.448a1.1 1.1 0 0 1-.272-.357c-.121-.497-.053-1.083-.133-1.615-.145-.945-.362-1.893-.565-2.825-.74-3.39-2.245-6.559-4.216-9.398-1.12-1.608-2.221-3.467-3.641-4.834-.534-.513-1.244-.81-1.84-1.258-.283-.21-1.873-1.27-1.166-1.46.946-.256 1.452 1.593 2.537 1.06.5-.248.345-.524.565-.97.237-.476.43-.537.815-.901.724-.674.744-1.202.87-2.212.053-.426.023-.847.175-1.258.18-.486.605-.818.768-1.312.28-.857.051-2.28-.017-3.177-.04-.567-.12-1.305-.65-1.737-.179-.146-.418-.208-.672-.209zm-21.444 2.047c.455.051.904.228 1.306.464-.254.111-.487.222-.24.192.15-.02.242-.083.336-.138.045.03.1.04.144.072.426.296.847.749 1.087 1.215.484.925-.016.855-.82 1.46-.995.749-1.01 1.287-2.49 1.072-.88-.126-2.106-.411-2.884-.8-.169-.082-1.055-.092-1.055-.092.297-.537.958-.588 1.39-.976.254-.228.381-.529.587-.794.328-.428.704-.968 1.13-1.3.43-.336.965-.437 1.509-.38zM88.31 93.48c.122.294-.843 1.844-.88 2.212-.085.87.423 1.623.24 2.393-.24.353-.464.71-.575.864a2.6 2.6 0 0 1-.741.432c-.177.005-.366-.02-.666.041-.526.117-1.004.55-1.482.869-.009.006-.019.01-.027.02-.09.062-.187.093-.277.155a1.4 1.4 0 0 1-.405.165c-.237.042-.486-.051-.725-.192-.018-.092-.014-.137-.07-.277-.141-.361-.37-.574-.4-.938-.03-.359.014-.792.065-1.226l.122.01-.085-.41c.018-.187.046-.387.048-.555.007-.758.174-1.264.437-1.978 1.069-.768 2.182-.637 3.385-.98.146-.042.416-.188.65-.31.24.041.707.031.757.02.234-.061.433-.185.63-.314zm29.803 6.423c.23-.041.444-.051.618 0 .825.245 1.357 1.508 1.546 2.239.179.689.498 1.67.47 2.484a6 6 0 0 0-.134.634c-.17.43-.515.757-1.2.837-.432.051-1.86-.052-2.185-.31-.405-.33-.482-1.322-.8-1.812-.716-1.112-.647-1.886-.245-3.113.406-.337 1.243-.824 1.93-.96zm-23.46 6.269c-.798-.041-2.256.973-2.862 1.231-.815.35-1.465.46-2.35.47-.477 0-.977-.003-1.45-.062-.46-.062-.929-.316-1.355-.337-.821-.04-1.819.707-2.542 1.077-.859.438-1.32.974-1.471 1.994-.075.486.244 1.235-.08 1.647-.292.377-.812.189-1.21.335-.812.302-1.277 1.218-1.707 1.908-.365.582-.416 1.133-.677 1.7-.211.468-.423.576-.831.689-.59-.336-1.316-.618-1.546-.682-.517-.142-1.114-.16-1.605-.261-.466-.093-.776-.352-1.439-.219a4 4 0 0 0-.464.16c-.051-.01-.115-.02-.165-.041-1.393-.36-.078-1.644-1.066-2.09-.392-.177-1.748.377-1.85.853-1.464 1.02.958 2.282 1.61 2.799.87.693 1.08.913 2.212.81.805-.072 1.493.172 2.287.4.65.183 1.463.545 2.16.416.391-.073.67-.385 1.038-.49.477-.136.888.162 1.317.082.954-.176.605-1.03.592-1.775-.014-.718.155-1.134.442-1.77 1.278 1.938.459 4.932.912 7.186.79 3.947 3.374 7.424 6.13 10.266.077.083.157.16.234.24 1.027 1.231 3.366 3.679 4.5 3.896.131.135.27.272.298.39.111.461-.565 1.331-.501 1.977.081.789.475 1.306.9 1.945.149.221.29.417.432.625l-.005.006c.114.103.166.232.25.346.118.165.242.34.363.501.189.323.398.637.741.9.075.084.134.174.213.262-1.244.866-1.599 1.716-1.977 3.134-.603.291-1.256 2.141-1.797 2.532-.144-.082-.273-.17-.474-.24-.134-.36-.243-.856-.927-.554-.636.278-.504 1.054-.24 1.604.1.21.21.367.33.497-.022.45.012.904.347.681.126-.082.15-.221.138-.368.671.228 1.49-.214 2.271-.693 1.021-.626 1.423-1.624 2.042-2.607.547-.863 1.157-1.614 1.583-2.569.274-.616 1.318-2.311 1.098-2.985-.003-.009-.014-.01-.017-.02.132-.106.222-.205.187-.256-.08-.124-.362-.22-.677-.315-.598-.419-1.501-.674-1.738-1.242-.642-1.534 1.354-.406 1.76-.062-.163-1.421 1.227-2.934 2.606-2.996.517-.02 1.288.368 2.01.88a1.1 1.1 0 0 0-.315.352c.906.74 1.398 1.127 1.642 2.287a2.7 2.7 0 0 0 .394-.608c.067.249.094.492.022.72-.193.609-1.644 1.094-1.647 1.716-.004.722 1.318.892 1.828.997 1.272.259 2.492.573 3.79.677 1.735.136 3.214.092 4.766-.736 1.03-.554 2.481-1.278 3.3-2.084 1.108-1.091-.584-1.997-.726-3.204-.081-.67.122-.613-.1-1.188-.616-1.585-1.807-3.125-2.655-4.59q-2.09-3.617-4.185-7.233c-2.025-3.499-4.157-6.956-6.087-10.512-.132-.242-.137-.594-.384-.757-.54-.354-1.975.197-2.617.176-1.714-.041-3.62-.8-4.611-2.244-.487-.71-1.137-2.048-1.194-2.958q-.002-.063 0-.123c0-.839.656-1.728 1.098-2.404a.7.7 0 0 0-.299-.093zm21.568 6.855c.878-.126 1.785.68 2.404 1.348.139.238.305.488.389.677.011-.062.02-.115.032-.175q.225.334.368.72c-.215 1.112-.089 2.199-.33 3.214-.39 1.625-1.185 2.608-2.831 2.873-.18.031-.38.083-.576.128-.17-.02-.332-.03-.517-.072-1.06-.226-1.147-.733-1.189-1.402.006-.062.027-.093.027-.155 0-.816-.532-1.546-.613-2.334-.042-.4-.002-.694-.027-.971.14-.633.369-1.28.41-1.962.373-.88 1.49-1.76 2.453-1.892zm3.3 2.873c.033.124.053.247.074.373-.023-.122-.056-.247-.075-.373m-32.426 2.356c.196-.02.41-.009.66.062.84.22 1.606.931 2.144 1.604.042.052.084.125.128.182.164.4.294 1.046.623.885.665 1.064 1.112 2.304.416 3.225-.644.372-1.236.71-2.095.544-.561-.108-1.337-.285-1.908-.544a11 11 0 0 1-.917-.874 4 4 0 0 1-.56-.777c-.22-.607-.326-1.27-.42-1.94a8.5 8.5 0 0 1 .271-1.6c.66-.28 1.07-.69 1.658-.762zm12.638 5.181a5.7 5.7 0 0 1 1.445.144c1.403.316 1.865 1.24 2.75 2.196.315.336 1.076.597 1.296.954.162.262.02.907-.027 1.237-.175 1.217-.41 1.495-1.365 2.004-.422.103-.833.29-1.247.458a5 5 0 0 1-1.866.02 10 10 0 0 0-.858-.266c-.135-.03-.24-.082-.351-.122-.121-.062-.245-.112-.358-.182h-.005l-.005-.005c-.118-.072-.218-.17-.325-.256a6 6 0 0 1-.677-.784c-.106-.138-.202-.288-.304-.432-.414-.688-.905-1.554-.885-2.27.02-.882.928-1.684 1.445-2.282v-.006c.318-.28.82-.387 1.338-.406z" style="fill:#d61a35;fill-opacity:1;fill-rule:nonzero;stroke:none;stroke-width:3.39044"/>
    </g>
    <g id="Mosquito" transform="translate(-57.646 -60.289)">
        <path id="path18178-8" d="M106.353 70.623c-.175-.02-.37.041-.563.163-1.28 1.528-1.839 3.294-1.817 5.304.002.16.027.51.041.795-.037.428-.086.852-.105 1.29-.029.714.539 4.614 1.417 3.576.195.002.409-.207.642-.806-.113-.03-.192-.102-.284-.153.164-1.823-.574-3.68-.485-5.583.15-.556.287-1.12.29-1.595.188-.545.434-1.044.795-1.644.241-.402.895-.339.522-1-.12-.21-.279-.323-.453-.348zm-22.198 7.953c.077.207.177.41.258.616.876 3.146 2.53 5.806 4.092 8.69q1.935 3.571 3.87 7.136c.426.784.874 2.28 1.75 2.85-.496.52-2.062 2.42-1.47 3.243-.089.041-.174.072-.263.148a1 1 0 0 0-.295.168c-.14 1.014.026 2.16.637 3.013.28.392.535.83 1.074.916-.361-.051 1.283-.324 1.507-.3-1.3.518-2.32 1.545-2.334 3.08.004.134.279.982.606 1.043.029.005.037-.007.063-.005-.01.061-.04.127-.041.18h-.006c-.172.04-.386.225-.716.284a1 1 0 0 0-.19.04c.138-.15.244-.31.269-.485.187-1.333-4.698-.384-5.525.238.003.453.3.755.727.953-.161.01-.304.04-.469.05-.008.042-.013.092-.021.137-.094.005-.174.03-.269.03l-.121.69c1.093 0 2.167-.134 3.26-.101.733.02 2.376.487 2.865.116.04-.03.044-.082.078-.116.067-.02.164-.02.211-.051.106-.082.146-.194.21-.295-.027.698-.065 1.343.875 1.554.152.04 1.02-.134 1.612-.253-.083.04-.17.03-.248.102.029.356.44 1.46.97 2.423-.114-.072-.218-.157-.338-.221.02.16.098.301.142.453a4 4 0 0 0-.432-.28c.173 1.536 1.659 2.617 1.986 4.372q.48 2.54.948 5.087c.845 4.548 1.505 8.705 3.339 12.961 1.388 3.218 3.395 5.196 6.11 7.331.405.32 2.516 2.442 2.911 1.907.025-.03.014-.071.032-.102.114.02.208.007.264-.071.168-.228.128-.454 0-.68.052-.051.096-.061.158-.142.233-.324-.114-2.18-.121-2.586-.056-2.908.845-7.444-1.07-9.917-.23-.62-.498-1.217-.853-1.753.051.35.116.69.174 1.037-.147-.296-.289-.596-.469-.87.299 2.068.772 4.056.88 6.163.108 2.114-.134 3.952.237 6.077.072-.37.11-.804.173-1.2.033.34.06.677.122 1.032.033-.17.047-.373.079-.548l.01.87c-2.315.133-4.771-3.457-5.914-5.23-1.485-2.305-2.38-4.29-2.886-6.968-.532-2.825-1.032-5.651-1.564-8.473-.354-1.875-.45-5.331-1.896-6.931.04-.04.086-.04.126-.092.353-.477-1.059-3.587-2.38-3.834.01-.004.067-.007.073-.01 1.118-.536.287-1.075.758-1.732.33-.461.857-.544 1.428-.537-.215.102-.518.198-.632.289a.1.1 0 0 0-.01.04c-.074.042-.233.092-.284.132q-.172.726-.348 1.46c1.273-.177 1.936-.818 2.986.199.529.51.811 1.535 1.117 2.164a57 57 0 0 1 1.785 4.066c.053-.208.099-.336.153-.5.045.112.097.219.142.332.178-.694.382-1.078.358-1.612.264.213.63.274 1.048.338.14.02 1.616-.174 2.028-.443.293.55-.695 1.248-1.243 1.39-.496.133-1.297-.193-1.48.082-.29.431.354 1.342.822 1.707a1 1 0 0 0-.411-.041c.05.071.08.138.126.206a1 1 0 0 0-.416-.041c.913 1.185 1.1 2.563 1.67 3.897.102.697.517 1.486 1.132 1.886-.135-.02-.225-.072-.39-.082.83 1.435.858 3.11 1.638 4.508.516.928.652.979 1.432.627.188.986.693 1.635 1.365 2.149-.13-.01-.26-.03-.385 0 1.129 1.955 2.917 5.116 5.804 3.876a2.7 2.7 0 0 0 .59-.326c.695-.371.468-.58-.063-.732.458-.02.847-.194 1.232-.384.019.21.098.432-.042.495.73-.324 1.165-.618 2.017-.516-.117-.07-.248-.107-.374-.158.073-.01.154-.02.232-.02.316.12.642.214.827-.03.284-.382-.526-1.282-.785-1.454-.863-.579-1.38.005-2.027-1.001-.346-.536-.198-1.165-.68-1.733-1.208-1.42-2.713-.813-4.087-.04-.546.308-1.332 1.053-1.99.874-.743-.2-.663-1.076-1.554-1.027.109-.05.185-.082.321-.148.269-.123 1.126-.445 1.57-.758.281-.154.525-.31.563-.452.065-.232-.645-.051-.927-.005 1.229-.238 2.393-1.37 2.36-2.481-.022-.69-.443-1.645-.806-2.238-.288-.475-1.739-1.442-1.775-1.801-.056-.61.387-.481.827-.27l-.237.137c1.7 2.944 4.852 4.145 7.779 5.493 1.873.866 2.7 1.845 4.16 3.197.425.392.89.607 1.333.974.406.331 1.134 1.584 1.49 1.706.362.127.453.007.464-.168.608.061.104-.872-.085-1.169a2.1 2.1 0 0 0-.485-.527c.072.02.138.061.211.071-.647-2.674-4.34-4.55-6.573-5.63-2.775-1.34-5.26-2.812-7.457-4.987a48.5 48.5 0 0 1-5.403-6.346c-.456-.643-3.121-4.643-4.767-5.972a.82.82 0 0 0 .438-.316q-.074-.454-.158-.901l.194-.326c-.004.318 0 1.33-.01 1.332.881-.506 1.268-.277 2.16-.147.47.07 1.108.438 1.585.05a.76.76 0 0 0 .532-.389c.07-.117.063-.193.1-.294.172.528.404 1.034.732 1.5-.22-.22-.42-.387-.653-.626.456.795 1.072 2.029 1.738 2.644.783.72 2.182 1.063 3.128 1.595 2.312 1.305 4.724 2.39 7.057 3.682 3.675 2.027 5.279 5.748 6.293 9.585-.257-1.138-.5-2.279-.774-3.413q.178.442.337.896c.043.164.095.297.137.469.173.705 2.082 8.312 1.96 8.384 1.25-.723-.62-7.69-.954-9.064-.812-3.34-1.99-5.71-4.877-7.694-2.505-1.726-5.334-2.826-8.12-3.976-1.493-.615-3.091-1.075-4.03-2.402-.475-.674-.622-2.265-1.132-3.023.165-.03.275-.04.495-.102 1.176-.331 2.842-.04 3.892-.585 1.676-.87.294-1.57-.932-1.596-.899-.02-3.678 1.128-3.797-.04-.083-.829 1.178-1.386 2.064-1.802-.603.39-1.17.846-1.78 1.301.594-.004 1.481-.354 2.27-.826.806-.433 1.556-1.011 1.828-1.543-.345.081-.66.2-.964.332.366-.225.705-.487.748-.827.086-.718-.548-1.024-1.138-.768a34 34 0 0 0-3.623 1.985c-.25.155-.352.27-.506.396.354-.37.107-.87-.31-1.333.138.03.286.041.42.005.006.124-.029.246-.004.37l.3-.46c.007.102-.024.194-.005.29.026-.04.239-.369.395-.605.484-.468.911-1.452 1.153-1.949.572-1.18.534-2.889-1.39-2.18v.005c-.66 1.258-1.11 2.546-1.685 3.823-.226-.146-.46-.294-.632-.352-1.176-.403-3.545.167-4.25-.459-.313-.277-.427-1.417-.732-1.827-.532-.712-1.142-.946-1.991-1.133a5.5 5.5 0 0 0-1.285-.141c-.508.01-.937.128-1.37.316-.11-.52-.582-1.06-1.026-1.791l-4.514-7.431c-1.647-2.712-3.232-5.686-5.345-8.1-.115-.265-.258-.519-.369-.785.053.204.135.39.195.59-.222-.246-.418-.52-.653-.753zm21.761 3.117c-.27 0-.512.061-.711.206-.043.13.012.331.116.564-.021.01-.043.01-.063.03.011.02.03.041.042.061a.44.44 0 0 0-.337.117c.568 1.089 1.354 1.674 2.048 2.638.788 1.097.68 1.485 2.302 1.211-.024-.05-.072-.091-.1-.136.134-.01.22-.003.39-.03-.03-.062-.085-.11-.122-.169.297.051.559.04.711-.168.881-1.183-2.38-4.316-4.276-4.319zm3.797 5.414c-.292-.117-.713-.02-1.3.432-.47.756-.333 1.422-.049 2.07-.094 1.198-.19 2.395-.242 3.597-.021.504-.3 2.09.142 2.48.282.247.743.198 1.012-.05.279-.072.467-.289.463-.627.064.051.135.071.221.03.665-.338.235-3.581.31-4.376.081-.873.32-3.203-.557-3.555zM68.971 93.16c-1.065.02-2.424.285-1.695 1.184-.037.009-.08 0-.116.011.633.903 4.087 1.163 5.277 1.67 1.075.456 3.754 2.636 4.624 2.132-.029.02-.242-.104-.364-.158.262.062.498.082.659-.01-.019.01-.178-.082-.237-.105.084-.02.179-.02.242-.071 1.323-1.05-2.1-2.757-2.812-3.123-1.474-.756-3.059-1.225-4.687-1.49a5 5 0 0 0-.89-.042zm8.79 5.203a1.3 1.3 0 0 0-.574.04c-.175.218-.262.484-.295.775l-.01-.04.027.384c.004.225.006.443.048.68.018.279.037.448.068.794-.134-.579-.274-1.196-.432-1.69.076.93.276 7.526 2.154 6.088.15-.051.304-.137.48-.311-.125-.104-.225-.236-.333-.358 1.032-.384.126-2.223-.016-3.212-.132-.935.021-2.963-1.116-3.15zm37.06 1.396c-1.077.05-1.988.294-1.61.995l.004.005c-.046.01-.1.02-.137.041.491 1.42 6.317 2.454 7.926 1.29.296-.135.528-.313.638-.542q-.231.043-.464.071c.232-.105.458-.193.711-.368-.518-1.377-3.352-1.265-4.455-1.39a17 17 0 0 0-2.612-.106zm23.737.05c-.282-.07-.608.082-.732.564-1.201 1.071-2.38 2.044-3.792 2.828-.554.309-5.288 1.976-5.414 1.764.157.273.449.412.785.496-.196.091-.41.147-.585.274.013.005.043 0 .058.005-.114.061-.246.092-.353.168.68.262 2.629-.212 3.434-.406.97-.237 1.907-.692 2.802-1.127.467-.226.987-.49 1.511-.78 1.381-.727 2.84-1.688 3.371-3.038-.111.071-.212.148-.321.221.007-.02.019-.03.026-.05-.166.108-.316.22-.479.331.36-.66.063-1.157-.31-1.253zm-41.616.306c1.069.03 1.99.407 2.138 1.011-.838-.534-1.859-.973-2.817-.838.253-.081.52-.178.679-.173m-1.48.464-.053.03a2.1 2.1 0 0 0-.58.348c-.123.467-.055.879.1 1.238-.283.821 1.398 1.843 2.08 1.843 1.011-.003 2.919-1.789 3.893-2.249.704-.333 3.418-.487 4.892-.04l-.02.004c-.273.072-.428.162-.538.263-1.116.445.22 1.422.764 1.886.06-.092.079-.207.131-.306.052.04.12.102.163.136.202-.312.356-.66.438-1.021-.005.02.013.04.005.061a1.2 1.2 0 0 0 .431-.243c-.785.69-.33 1.078-.005 2.276.04.142.054.223.085.347-.142-.478-.391-.909-.616-1.022-.622-.308-2.314.263-2.997.569-.837.37-1.742.752-2.454 1.338-.733.604-1.067 1.216-1.98 1.58-1.161.463-1.88.407-2.765 1.474-.662.798-.94 2.008-1.796.664-.189-.299-.027-1.032-.268-1.27.043-.188.081-.383.152-.542.419-.936 1.273-1.97 1.196-3.033.035-.02.053-.03.084-.051h.01c1.5-.666.352-.7-.453-1.501-.397-.4-1.013-1.609-1.727-2.128.547-.136 1.2-.4 1.827-.658zm27.865.663c-.35-.02-.683.082-.985.358.005.122.078.278.169.437l-.337-.279c.213.369.536.741.848 1.111-.392-.323-.781-.648-1.143-.942 1.186 2.052 4.105 4.45 6.467 3.67-.135-.006-.267-.04-.4-.06.233-.021.47-.042.695-.117a5 5 0 0 1-.864-.121c1.082-.686-1-2-1.474-2.344-.747-.545-1.925-1.663-2.976-1.717zm-24.695.948-.047.051c-.379.36-.705.554-1.006.637.105-.061.212-.11.316-.184.246-.15.497-.312.737-.506zm-18.553 2.923a1.5 1.5 0 0 0-.474.082 1 1 0 0 0-.064.653c-.094-.124-.21-.254-.284-.374-.066.178-.046.376.015.58-.106-.138-.23-.28-.31-.41-.709 1.894 6.467 5.532 7.657 4.486-.082.004-.178-.02-.263-.03.22-.02.435-.041.553-.148-.219.007-.46-.02-.7-.061 1.828-.803-2.05-2.743-2.523-3.034-.881-.544-2.433-1.767-3.608-1.753zm35.422.158c-.34-.05-.63.03-.822.343-.043.26.242.699.67 1.195-.173-.12-.34-.259-.522-.342 1.287 2.229 3.469 4.026 5.946 4.745a.38.38 0 0 0 0-.295c.1.03.193.092.295.122.055-.122.019-.239-.047-.358.135-.004.256-.03.326-.105 1.05-1.14-2.114-2.723-2.812-3.265-.553-.432-2.015-1.871-3.033-2.039zm-8.221.02c.114.488.21.851.332 1.064-.014.251.015.492.042.732-.461-.314-1.336-.33-2.176-.258.525-.17 1.268.135 1.67-.284.258-.268.25-.775.132-1.253zm-3.376 1.654c.13-.071.28-.071.458.03-.201.042-.48.093-.579.127v.105c-.043.01-.123.02-.158.03.085-.119.175-.236.28-.294zm-22.588.585c.223.125.453.25.637.358.484.282 1.994 1.258 3.113 1.748-1.281-.422-2.616-1.225-3.75-2.106m20.682 2.391c.116.857.276 1.755.547 2.65-.328-.76-.415-1.642-.647-2.302-.062-.172-.06-.237-.08-.338.054-.01.13.007.18-.01m20.892.985c-.334-.01-.678.109-1.027.452.039.071.251.297.353.427a.4.4 0 0 0-.232.051c.029.051.09.102.121.153-.149-.05-.293-.061-.416.02.978 1.694 3.602 3.74 5.551 3.966-.06-.132-.182-.234-.28-.347.191.05.395.158.575.179-.065-.143-.193-.254-.3-.374a.55.55 0 0 0 .358-.27c.45-.823-1.474-2.05-1.901-2.327-.869-.561-1.8-1.879-2.802-1.922zm-30.904 1.048c-1.258 0-2.392.125-3.607.474-.263.579-.06.91.358 1.1-.057-.007-.118-.01-.174-.02.223 1.093 1.563.826 2.375.795-.055-.071-.128-.102-.19-.158.163-.01.346 0 .485-.005-.194-.247-.44-.386-.7-.49 1.106-.122 2.283-.449 2.664-.795 1.133-1.036.014-.901-1.21-.901m2.918.595c-.23 0-.496.05-.822.158-.01.01-.097.102-.132.136-.06.02-.099.01-.163.03-.075.082-.936.936-.821.99.539.266 2.47.337 3.107.072-.022-.041-.042-.062-.063-.092.123-.02.274-.04.358-.071-.445-.764-.777-1.222-1.464-1.222zm-7.72 1.285c-.885.102-1.197 1.29-1.697 1.864-1.168 1.338-2.59 2.309-3.697 3.74-.155.312.061.433.358.49h-.126c-.536.607.348.84.7.837.177 0 .397-.122.617-.274.47-.215 1.038-.772 1.206-1.09-.012.007-.02.01-.032.02.17-.139.329-.27.553-.568.34-.452.61-.937.922-1.396a1.9 1.9 0 0 0 .647-.748c.528-.444 1.218-.847 1.401-1.564.22-.845.067-1.41-.853-1.306zm7.894.258c-.158-.051-.398.071-.759.437-.691.647-2.518 2.496-2.064 3.597-.02.007-.057.01-.074.02-.37 1.225.932 1.173 1.517.669.27-.127.5-.309.558-.547.065-.266-.005-.415-.137-.506.129-.138.266-.26.374-.442v.168c.095-.124.19-.256.295-.38v.212c.36-.471.83-.929 1.117-1.443.14-.245.345-1.065.463-1.18-.13.125-.251.261-.379.39.028-.062.067-.2.09-.222-.314.304-.614.626-.917.943.182-.696.271-1.604-.084-1.717zm43.364.269c-.567.106-1.32.772-1.722.953-1.248.564-2.552.532-3.871.405-.982-.091-4-1.057-4.524-.49-.468.385-.32.688.09.938-.13.002-.273-.01-.359.05.356 1.209 4.516 1.369 5.757 1.502 1.09.115 1.34.07 2.354-.364.313-.133 2.057-1.245 2.233-1.159.048-.03.076-.061.12-.092.034-.007.156-.081.17-.081-.02-.01-.05-.007-.069-.02.352-.27.585-.587.522-1.007-.087-.571-.36-.71-.7-.648zm-34.222 1.211c.06.051.132.092.195.148a.95.95 0 0 0 .263.442.9.9 0 0 1-.3-.148c-.004-.02 0-.03-.005-.05-.031-.13-.103-.26-.153-.39zm-5.614.637c.05.005.1.04.148.03.041.113.07.23.11.343-.077-.133-.173-.248-.258-.374zm7.336 3.381c.344.071.689-.02.996.153.09.051.915.688.9.685.522.162.378.582 1.054.437.348-.071.541-.971.653-.99.088-.02.171.021.258.031-.092.35-.233.95-.48 1.275-.415.02-1.457-.484-1.506-.03-.194-.005-.342.04-.305.257.111.677 1.124.687 1.827.231.6-.25 1.068-.813.896-1.595.44.264.788.8.858 1.38.155 1.29-.16.777-1.048 1.158-.205.092-.69.16-1.006.3-.295.136-.165.723-.69.737-1.136.041-.463-1.36-1.143-1.374-.047-.001-.068.04-.11.04.215-.588.452-1.062-.21-1.88a3.7 3.7 0 0 0-.944-.816zm-14.25.295c-.603.54-.562 1.287-.39 2.064-.026-.05-.042-.102-.069-.147.252 1.222-.017 2.668.095 3.934.054.656.608 3.309 1.116 2.385.135.072.273-.071.406-.469.039.051.085.082.121.142.892-1.01.135-2.942.095-4.16-.05-1.478.66-3.383-1.375-3.75zm18.163.03c.063.01.13 0 .19.02-.028.108-.054.21-.09.333a1.7 1.7 0 0 0-.1-.353M81 120.957q-.285.013-.669.126c-1.11.942-1.654 2.458-2.538 3.597-.717.918-1.013 1.456-.169 1.317-.047.03-.102.04-.147.071.002.01.008.01.01.02-.1.052-.214.082-.305.148.207.753.65.692 1.048.38.378-.129.768-.58.942-1.016-.142-.01-.28.03-.421.04 1.021-.458 1.792-1.303 2.575-2.322.806-1.054 1.004-2.436-.326-2.36zm32.631 1.949c.246.245.484.517.801.853.35.372.746.662 1.137.959-.773-.542-1.448-1.14-1.938-1.812m-4.35 2.464c-.112.062-.138.225-.137.416-.082-.113-.21-.19-.32-.28.15-.04.297-.04.457-.136m-32.836 1.433c-.704.03-1.59.874-2.091 1.116-1.072.521-2.136.565-3.286.748-1.733.28-3.423.041-5.256.051v.005c.056.384.306.662.632.89l-.1-.005-.1.364c1.226.35 2.538.388 3.85.32.78-.02 1.491-.08 1.911-.152.03-.005.144-.04.185-.051.214-.03.443-.03.653-.061l-.353-.02c.135-.041.263-.072.442-.127.067-.01.14-.01.206-.02l-.11-.005c1.722-.544 4.812-1.777 4.039-2.755a.71.71 0 0 0-.622-.29zm15.91 2.59q-.223.045-.474.249c-.065.206-.008.585.1 1.016-.012-.02-.058-.072-.069-.092.028.03.043.071.069.102.08.316.232.676.379 1.053a23 23 0 0 1-.737-.984c.74.712 1.008 2.311 1.5 3.217.137.252 1.467 2.818 1.675 1.912.002-.01-.007-.03-.005-.04.139.091.252.08.3-.132.011-.051-.014-.122-.017-.18.078.02.163.082.237.072 1.315-.14-.685-2.926-.99-3.613-.334-.75-.925-2.81-1.97-2.58zm22.588 4.899c.48.264.992.54 1.538.78-.161-.041-.355-.072-.474-.112-.336-.118-.694-.37-1.064-.668m-12.73.284c.072.209.156.418.232.627-.084-.208-.171-.415-.231-.627m11.429 1.612a.48.48 0 0 0-.158.257c-.045-.02-.095-.081-.137-.091a.46.46 0 0 0-.174.463c.615.942.86 1.655 1.723 2.38.91.77 1.966 1.267 2.99 1.85.81.463 1.502 1.283 2.308 1.664.895.42 2.038.391 2.991.748-.077-.118-.207-.203-.3-.311.167.04.34.061.5.116.11.136.225.27.31.42-.1-1.085.388-2.459.259-3.412-.194-1.384-1.965-2.878-3.429-2.849-1.69.03-1.972 1.666-3.723.921-1.05-.445-2.095-1.3-2.839-2.138.047.107.096.168.142.27-.163-.142-.323-.252-.463-.29zm-18.428.395c-.148.002-.338.04-.574.143-.827 1.438-.869 3.218-1.616 4.76-.41.853-.821 1.932-1.375 2.686-.223.306-2.403 1.799-2.36 1.996.206 1.003 2.464-1.089 2.766-1.437.73-.845 1.128-1.813 1.495-2.881.396-1.15.636-1.866 1.38-2.786.393-.481 1.323-2.501.284-2.48zm.059 2.296a9 9 0 0 0-.464 1.117c.049-.321.119-.61.169-.948-.788 1.539-1.075 3.676-1.97 5.082-.308.487-1.306 1.525-2.18 2.038-.26.115-.503.177-.696.127-.011.071-.001.107-.005.163-.101.01-.205.03-.29.005-.113.75.22.607.616.284.353-.161.883-.722 1.148-.921.799-.605 1.45-.935 2.044-1.765 1.168-1.636 1.343-3.251 1.627-5.182zm11.886 3.055c.026.02.048.05.073.081-.025-.03-.049-.05-.073-.081m.21.21c.336.32.688.602 1.033.897a10 10 0 0 1-1.032-.896" style="fill:#888888;fill-opacity:1;fill-rule:nonzero;stroke:none;stroke-width:3.59527"/>
    </g>
    <g id="Pillbug" transform="translate(-57.646 -60.289)">
        <path id="path18874-1" d="M111.197 70.291c-.097.043-.215.185-.439.273-.075.032-.178.115-.262.156-.006-.022.022-.065 0-.087.001.001-.496.367-.539.4-.628.4-1.282.885-1.757 1.252-.162.126-.313.266-.472.395-3.367 2.51-9.864 7.292-10.042 6.978.107.187 1.007-.216 2.29-.946q-1.312.792-2.652 1.563c-2.076 1.2-2.193 3.592-2.724 5.733-.266 1.07-.532 1.645-.25 2.769.137.554.847 1.72-.311 1.735-.41.008-.607-.678-1.184-.662-.388.008-.777.439-1.085.618-.432.254-1.118.386-1.479.739-.117.11-.706.984-.584.995a.8.8 0 0 1-.108-.41c.043-.01.347 1.311-.523 1.311-.383 0-.687-.777-.923-.979-.794-.683-1.8-.71-2.758-.8a26 26 0 0 0-2.446-.685 32 32 0 0 1-.54-.2c-1.598-.6-2.675-.064-4.125.757-2.506 1.42-4.565 2.528-7.29 3.397-.942.3-1.862.653-2.792.98-1.332.47-3.098.602-4.142 1.612-1.276 1.23.846 1.077 1.529.928a22 22 0 0 0 3.42-1.023c1.69-.373 3.456-.803 3.436-.895-.01-.065-.397-.032-.918.054.985-.306 1.952-.643 2.83-1.23 1.435-.956 3.23-2.365 4.855-2.907 1.681-.559 4.07.317 5.65.928 1.237.482 1.315.449 1.3 1.607-.008.76.154 1.512.223 2.252-.01.184.002.32.043.478-.003.508-.172.553.339.934.334.254.954.309 1.357.244 1.256-.197 1.993-1.51 2.658-2.435.956-1.337 2.72-2.57 4.359-2.858 1.518-.27 3.995-.277 4.932-1.874 1.013-1.736-2.271-2.261-3.186-3.086a2 2 0 0 1-.195-.24c-.064-.085-.144-.175-.189-.272a1.9 1.9 0 0 1-.15-.733c-.009-.195.043-.406.076-.612.032-.176.032-.325.086-.528.01-.043.086-.316.116-.411.26-.781.617-1.58.78-2.174.188-.691.188-1.274.717-1.802.622-.618 1.64-.89 2.407-1.295 1.333-.71 2.713-1.533 3.932-2.425 1.15-.842 2.083-1.953 3.275-2.747.387-.258.777-.364 1.011-.79.236-.424.065-.678.4-1.061.57-.642 1.628-.702 2.103-1.518.129-.224.385-.78.256-1.073-.137-.313-.215-.375-.311-.334zm-9.603 7.401q-.781.518-1.585 1.001c.447-.254 1.066-.681 1.585-1m4.32 10.804c-.043-.002-.107.022-.156.033-.006 0-.01-.006-.021-.006s-.011.01-.032.01c-.033.01-.054.004-.086.022-.022.009-.022.033-.043.043-.476.163-.346.905-.445 1.29-.021.043-.032.108-.075.14-.37.305-1.368.074-2.263-.076-.462-.234-.928-.407-1.38-.156-.857.479-.005 1.058.076 1.757.086.713.086.72-.656 1.206-.915.612-2.19 1.614-3.276 1.808-.454.075-.897-.011-1.35.064-.022.001-.065-.005-.076-.005a.4.4 0 0 0-.097.021l-.006.006c-.59.075-2.574.6-2.524 1.429a11.7 11.7 0 0 0-2.62 2.185c-.747.843-1.686 1.718-2.73 2.185-.451.205-.893.34-1.39.097-.383-.19-.98-1.722-1.117-1.707l-.006.01c-.296.033-.752 2.813-1.09 3.12-.706.638-1.273-.178-1.896.086-1.002.433-.021.788.418.962.043.022.053.022.096.043.236.183.48.33.723.4.097.108.189.195.262.473.064.242.043.548-.006.862a32 32 0 0 1-.075-.718c-.308-.006-.32 1.109-.228 2.33a.3.3 0 0 1-.022.075c-.086.873-.12 1.763.076 2.625.053.243.73 2.55 1.095 2.485.22-.032.504-2.427.751-2.78.263-.38.7-.652 1.173-.878 1.258-.225 3.614-1.238 5.533-2.218a67 67 0 0 0 3.731-1.88c2.164-1.173 4.359-2.464 6.378-3.864.733-.506 1.42-1.136 2.107-1.774 1.233-.883 2.986-2.217 3.331-2.425.272-.163.496-.275.729-.39.942-.244 1.714.125 2.696.134.428.006.546.033.59-.043.086.011.323.065.334.054.086-.112-.126-.394-.45-.734-.297-.528-1.053-1.013-1.418-1.279-.419-.305-.858-.667-1.307-1.011l-.086-.076a.2.2 0 0 1-.054-.032c-.385-.29-.774-.573-1.167-.779-.282-.146-.698-.199-1.007-.328-.132-.097-.269-.184-.372-.3-.26-.46-.043-1.068-.177-1.59-.022-.097-.076-.243-.118-.378.006-.277-.054-.505-.295-.523zm8.391 6.829c-.69-.133-.739.703-1.134.89-.604.277-.097.116-.934.064-.232-.01-.473.009-.711.022-.122-.022-.23-.076-.356-.076-.733 0-1.468.022-2.125.356-.365.188-.655.494-.939.801-.736.59-1.408 1.322-2.163 1.907-1.465 1.135-2.814 2.224-4.37 3.253-2.567 1.7-5.683 3.871-8.686 4.615-1.612.405-3.34.982-4.804 1.83-.136.054-.693.197-.69.217.009.054.11.065.184.086-1.016.672-1.093 1.007-1.568 2.152-.174.418-.253.665-.679.912-.326.193-.967.053-1.207.361-.983 1.257 1.242.647 1.352.651.887.01.978.817 1.25 1.546.098.266.643 1.852.901 1.768.497-.16.284-1.626.44-1.98.085-.204.237-.385.417-.55.29.003 1.532-.581 3.002-1.313.504-.14 1.083-.303 1.43-.433 1.746-.657 3.487-1.385 5.104-2.319 2.98-1.712 6.73-3.097 9.125-5.622 1.192-1.256 2.418-1.99 3.803-2.997.641-.462 1.096-1.09 1.885-1.356.482-.164.78-.154 1.251-.076.172.022.75.413 1.068.378.118.054.293.171.323.139.006-.006-.13-.182-.15-.218.126-.275-1.268-1.862-1.418-2.207-.175-.395-.331-.553-.123-.995.123-.086.264-.185.384-.367.255-.137.542-.238.629-.478.17-.47.011-.858-.49-.957zm-.344 6.06c-.342-.042-.664-.021-.94.097-.219.086-1.084.829-2.074 1.69-2.846 2.157-5.534 4.473-8.624 6.295-1.836 1.08-3.68 2.344-5.694 3.075-.904.268-1.865.514-2.057.556-.27.065-2.577.736-3.854 1.313-.021.006-.032.01-.043.021-.096.043-.217.086-.3.134-.484.204-.923.434-1.134.717h-.006c-.097.13-.154.357-.218.573.003-.001-.003-.043 0-.043-.152-.002-.2.487-.194 1.134-.076.889-.065 1.848-.022 2.33.043.437 1.087 2.547 1.474 2.463.136-.021.505-1.306.661-1.496.433-.527 1.084-.898 1.68-1.206 1.116-.566 2.283-.853 3.475-1.196 2.593-.736 4.887-1.948 7.206-3.28 4.275-2.456 7.888-5.567 11.805-8.486.574-.425.95-.777 1.68-.867.398-.054 1.131.267 1.412.133.043-.021.065-.064.097-.096.137.043.38.13.4.112.125-.13-.548-1.091-1.145-1.852-.065-.086-.167-.25-.211-.3-.022-.022-.075-.054-.097-.076-.12-.135-.311-.409-.378-.456-.585-.42-1.578-.964-2.508-1.179-.053-.01-.125-.043-.177-.054h-.022c-.064-.01-.132-.043-.195-.053zm8.446 2.72c-.947.181-2.743 1.887-3.38 2.146-.62.258-1.274.108-1.908.323-.054.021-.107.064-.161.086-.022.009-.054.032-.075.043-.616.271-1.247.725-1.78 1.095-1.382.96-2.514 2.302-3.831 3.364-2.038 1.648-4.241 3.115-6.511 4.432-.736.43-1.492.89-2.263 1.318-.001-.01.032-.032.021-.043.011.021-.175.112-.228.156-.62.339-1.261.615-1.902.878-1.205.385-2.513.732-2.785.812-.56.164-5.349 1.745-5.589 2.475-.164.126-.358.232-.5.372-.262.262-.356.626-.645.873-.421.36-1.078.512-1.557.79-.34.196-2.071.925-2.09 1.156-.086 1.173 3.845-.568 4.187-.461.797.258 1.126 2.888 1.885 1.195.258-.584.032-.8.5-1.268.334-.333 1.096-.626 1.551-.823 1.504-.646 3.09-.325 4.643-.74.076-.02.14-.053.211-.074.14-.022.544-.076.595-.087.177-.043 2.105-.808 3.242-1.467 1.85-.927 3.64-2.003 5.422-2.97 1.51-.82 2.995-1.978 4.103-3.303.98-1.173 2.008-2.646 3.192-3.625.584-.486 1.425-.906 2.135-1.157.616-.216.708.076 1.24-.021.179-.033.25-.086.34-.139.031.002.139.043.149.032.008-.01-.033-.064-.033-.086.294-.275-.156-.74-.356-1.245-.387-.969.054-.94.857-1.54.494-.369 2.957-1.86 1.662-2.475a.6.6 0 0 0-.344-.022zm-2.452 6.494c-1.998.206-3.007 2.11-4.31 3.581-2.106 2.38-4.889 4.056-7.573 5.7-1.922 1.18-3.904 2.52-6.06 3.286-.697.198-1.023.256-1.546.378-2.21.324-5.418.138-6.506 2.118-.748 1.363-.557 2.195.31 3.448.623.898.735.468 1.14-.033.26-.119.568-.273.996-.523a9 9 0 0 1-.472.076c.021-.011.032-.033.053-.054 2.084-1.12 4.955-1.211 7.229-1.652 1.256-.242 2.4-.738 3.509-1.323.7-.28 1.25-.547 1.323-.762.536-.313 1.075-.614 1.613-.923 1.917-1.1 4.033-2.149 5.7-3.614.983-.865 1.557-2.044 2.324-3.08.726-.979 1.714-1.82 2.696-2.58.378-.191.863-.491 1.546-.952.436-.217.781-.452.98-.718l.064-.043c.003-.01-.011-.032-.011-.054.032-.064.118-.132.116-.205-.011-.503-.664-1.176-1.307-1.618-.008-.01-.032-.043-.043-.043-.021-.011-.043-.011-.064-.033-.295-.19-.58-.342-.796-.372a3.8 3.8 0 0 0-.917-.021zm-23.548 17.96c.717-.12 1.683-.33 1.606-.572-.086-.282-.842.127-1.606.573m30.688-16.208c-.37.086-.676.385-.985.662-1.864.82-4.443 2.174-4.526 2.569-.006.021.008.032.006.053a15 15 0 0 0-1.957 1.624c-.608.602-1.09 1.255-1.557 1.918-.15.108-.281.334-.411.585-.197.282-.389.558-.6.839-.484.646-1.12 1.17-1.791 1.657-.075.054-.152.097-.2.144-1.08.752-2.267 1.392-3.32 2.058-3.409 2.156-6.595 3.457-10.626 3.981-1.344.174-2.577.5-3.815 1.095a38 38 0 0 0-2.09 1.118c-1.04.589-2.51 1.17-3.292 2.107-.683.82.032 1.058.806.929.835-.144 1.493-.771 2.18-1.212.603-.389 1.03-.336 1.379-.075.188.56.714 1.237 1.072 1.623-.01-.032-.021-.075-.043-.11.033.075.065.114.097.182-.021-.021-.043-.054-.064-.075.118.328.226.583.305.634.011.006.043-.012.054-.006v.006c.155.187.365.263.79.177.645-.129 1.51-.873 2.152-1.15 1.742-.749 3.548-1.24 5.416-1.563 2.497-.43 4.532-1.58 6.722-2.814 2.422-1.366 4.78-2.75 6.534-4.932 1.131-1.405 2.36-2.812 3.803-3.909.763-.577 2.952-1.242 2.997-2.119.076-1.469-2.28-2.006-.628-3.464.509-.452 1.215-.652 1.746-1.073.373-.295.736-.834.718-1.184.043-.097.054-.184.006-.25-.006-.01-.097.032-.108.032-.124-.112-.357-.154-.778-.054zm-1.43 8.118c-.65.022-1.248.77-2.079 1.48a31.6 31.6 0 0 0-3.503 3.513c-1.09 1.28-2.343 2.309-3.737 3.231-2.02 1.336-4.115 2.837-6.378 3.737-1.897.75-3.968.608-5.843 1.306-.763.281-4.643 1.293-4.844 1.969-.35 1.17 1.917 1.956 1.052 3.208-.399.581-1.054 1.039-1.48 1.657-.36.528-1.98 1.662-1.985 2.258-.003.993 1.352.269 2.441-.39.38.195 1.34-.475 1.902-1.15.525-.342 1.069-.66 1.54-.557.342.075.348.674.868.39.372-.202.096-.635.244-.985.645-1.507 3.102-2.377 4.393-3.147 1.116-.668 2.293-1.119 3.447-1.707a84 84 0 0 0 7.835-4.538c1.421-.928 3.054-2.672 4.776-3.736.168-.033.44-.198.723-.378-.156.054-.208.075-.333.116.193-.107.387-.19.584-.272-.086.064-.167.108-.25.156a54 54 0 0 1 1.317-.45c.149-.033.45-.007.69 0 .6.12 1.548.562 1.896.333.258-.168.18-.432.043-.706-.022-.292-.22-.564-.423-.818-.043-.12-.086-.239-.043-.323.108-.17 1.57-.26 1.896-.378.847-.307 1.702-.747 2.48-1.195.395-.226 1.034-.66.706-.995.011-.033.054-.054.054-.076.19-.754-1.38-.01-1.863.108-.118.032-.301.075-.439.112-.166-.008-.325-.022-.518-.022-.836-.008-1.626.537-2.407.556-.446-.032-.921-.667-1.268-1.056-.065-.122-.108-.215-.2-.345-.493-.667-.905-.914-1.296-.9zm1.975 6.956c-1.006.065-2.28.805-3.092 1.363-1.064.539-1.959 1.094-1.99 1.412-2.35 1.74-4.775 3.427-7.335 4.81-1.769.952-3.439 1.834-5.31 2.563-1.397.543-3.223 1.136-4.332 2.169v-.006c-.338.315-1.057.911-1.084 1.423-.032.745.484.666 1.013 1.046.603.437 2 2.277 2.607.751.12-.296.087-.55.076-.817.064-.188.107-.384.128-.6.021-.044.021-.076.043-.113.375-.592 1.196-1.037 1.807-1.318 1.006-.459 2.025-.584 3.103-.739.736-.107 1.473-.345 2.207-.639.141-.043.243-.097.318-.144a18 18 0 0 0 2.29-1.185c.408-.228.777-.467 1.14-.739.23-.158.478-.316.695-.472 1.97-1.42 3.39-4.043 5.622-5.049 1.036-.47 1.73.233 2.725.139 1.112-.108.741-1.745.672-2.675-.021-.344-.124-.589-.261-.773a.74.74 0 0 0-.378-.3c-.043-.021-.086-.021-.133-.043-.043-.01-.076-.032-.128-.043-.008 0-.043.022-.054.022-.117-.022-.22-.054-.35-.043zm-.006 4.682c-.961-.032-1.679.404-2.352.94-.329.21-.607.429-.762.628-.065.065-.139.108-.206.167-2.46 2.277-4.707 4.324-7.75 5.838-1.154.574-2.396.818-3.626 1.101.043-.032.178-.097.172-.117-.086-.271-2.764.698-3.136 1.168-.18.097-.37.143-.545.256v.006c-.671.437-1.216 2.452-1.535 3.17-.34.777-2.01 3.344-1.29 4.008.907.835 1.993-.996 2.391-1.523.012-.022.097-.195.128-.24.257-.356.432-.694.573-1.05.54-1.008 1.17-2.186 1.19-2.186.064 0 .117.065.172.111.075.22.173.368.317.34.165.16.356.201.623-.285.259-.471-.13-1.194-.043-1.73.086-.538.665-1.584 1.402-1.261.307.132-.086 1.48.043 2.046.193.9 1.898 3.404 2.574 1.54.097-.266.054-.604-.021-.957.053-.493.01-1.122-.15-1.529.086-.291.316-.518.84-.59.18-.02.347-.01.51.012.196.064.35.109.668.25.895.48 1.616 1.467 2.49 1.724 1.455.425 2.578-.769 2.559-2.09-.022-1.188-.25-2.068.205-3.214.634-1.606 1.544-.618 2.569.205.535.43.683.888 1.279.24.307-.334.274-.8.172-1.224.011-.44-.239-.835-.579-1.19-.054-.065-.086-.108-.144-.172-.054-.054-.086-.108-.15-.15-.175-.194-.357-.414-.517-.506-.097-.053-.328-.053-.511-.064-.286-.108-.572-.19-.806-.195-.022 0-.032.011-.054.011-.19-.086-.322-.212-.262-.49.316-1.445 2.61.002 3.209.134.121.022.677.147.84.065.713-.353-.009-.423.271-.673.51-.46.844.043 1.568.172.756.137 3.048-.413 3.66-.895.41-.327.338-.54.133-.706-.001-.008.008-.011.006-.021-.032-.166-.366-.23-.812-.256-.343-.065-.708-.146-.945-.167-1.45-.125-2.945-.602-4.377-.651zm-3.414 7.112a.8.8 0 0 0-.318.097c-.945.55-.14 3.292 1.307 1.524.353-.432.054-1.069-.411-1.396a.2.2 0 0 0-.075-.054c-.163-.097-.325-.187-.506-.172zm-6.912 3.943a.55.55 0 0 0-.267.116c-1.253 1.108 1.762 2.663 2.213 1.273.196-.608-1.208-1.513-1.946-1.39z" style="fill:#40afa1;fill-opacity:1;fill-rule:nonzero;stroke:none;stroke-width:3.79595"/>
    </g>
    <g id="Queen" transform="translate(-57.646 -60.289)">
        <path id="path17846-9" d="M120.324 74.88c-.307.034-.58.124-.795.192-.52.176-.869.4-1.263.741-.331.219-.692.462-1.258.916-.784.629-1.351 1.091-2.064 1.831a16.5 16.5 0 0 0-1.675 2.047c-.432.624-.816 1.17-1.125 1.918-.463 1.109-.518 2.042-.562 2.557-.158 1.82-.612 3.414-1.53 6.608-.767 2.68-.92 2.317-1.414 4.382-.661 2.767-.993 4.152-1.032 4.603-.09 1.013-.09 1.997-.696 2.313-.38.198-.93.1-1.298-.145-.09-.056-.417-.293-.626-.973-.221-.708-.079-1.156-.023-2.024.045-.609-.005-1.274-.1-2.608-.102-1.27-.16-1.17-.204-2.116-.056-1.297.056-1.442-.078-2.238-.101-.55-.255-1.002-.505-1.75-.368-1.104-.493-1.18-.493-1.623 0-.61.235-.634.354-1.6.09-.78-.056-.811.09-1.27.205-.624.547-.787.492-1.234-.045-.393-.331-.46-.284-.725.079-.459 1.003-.453 1.078-.88.056-.278-.27-.663-.637-.778-.365-.114-.679.056-.974.238h-.006c-.033.01-.112.022-.122.034-.2.067-.3.138-.388.203-.112.033-.224.056-.337.01-.598-.233-.407-1.464-.91-1.576-.297-.067-.688.309-.823.672-.119.316.034.433.045 1.056.004.431.011.863-.22 1.275-.241.432-.5.389-.666.829-.056.126-.034.149-.101.817-.079.853-.112.8-.09.945v.006c-.17.436-.115.99.079 1.356.011.023.033.034.045.056-.068.09-.137.172-.14.319-.007.368.417.494.853 1.032.432.53.569 1.081.62 1.299.176.7-.067.82.023 1.576.09.855.417.927.741 2.058.159.55.201.97.284 1.809.143 1.484.217 2.227-.128 2.429-.305.173-.511-.283-1.663-.568-.669-.166-1.124-.138-1.757-.51-.292-.17-.412-.306-.492-.418-.261-.363-.221-.731-.25-1.194-.044-.756-.207-.825-.341-1.617.003-.886.045-1.037.033-2.15-.022-1.117-.078-1.13-.033-1.688.022-.304.022-.615.022-.927l.006-.15c-.005-.102.023-.176.007-.297a2 2 0 0 0-.215-.69c-.1-.244-.24-.507-.498-.545-.32-.045-.592.326-.62.36-.273.367-.202.806-.174 1.245.023.321-.034 1.008-.15 2.377-.116 1.314-.217 1.276-.185 1.89.045.756.226 1.355.388 1.878.4 1.302.748 1.57.562 1.965-.15.318-.403.209-1.63.818-.735.361-1.367.724-1.367.724-.752.432-.876.556-1.102.51-.432-.089-.402-.633-.968-1.35-.21-.269-.712-.616-1.71-1.304-.772-.535-1.164-.805-1.548-1.02-.989-.562-.964-.372-2.005-.939-.811-.446-1.07-.692-1.49-.602-.372.079-.755.404-.77.76-.009.159.055.367.515.782.41.368.763.561 1.09.73.178.122.266.175.382.215.811.46.689.648 1.75 1.333 1.014.653 1.194.51 1.815 1.049.297.257.858.752 1.16 1.56.205.549.214 1.043.237 1.965.023.7-.045.84.034 1.38.056.367.123.857.4 1.356.432.768 1.077 1.069 1.038 1.124-.056.079-1.16-.619-2.73-1.414-1.35-.685-1.55-.678-2.04-1.113-.773-.68-.627-1-1.438-1.716-.859-.751-1.141-.502-1.85-1.223-.665-.678-.394-.878-1.194-1.733-.279-.3-.49-.463-.672-.626-.033-.067-.09-.101-.122-.15-.139-.138-.272-.27-.394-.51-.197-.397-.194-.62-.463-.806-.129-.09-.242-.079-.359-.09h-.006c-.234-.022-.469 0-.742-.168-.475-.294-.39-.848-.72-.916-.34-.067-.483.518-.95.551-.458.034-.573-.517-1.257-.741-.562-.182-1.286-.079-1.444.26-.022.045.011.09.011.139-.002.002-.01-.002-.01 0-.143.14.134.841.544 1.067.12.112.208.192.185.284-.022.1-.145.144-.77.318-.708.198-.854.217-.945.348-.162.241-.067.672.156.933.238.273.488.204 1.415.458.665.182.642.247 1.153.348a6.2 6.2 0 0 0 1.218.128c.692 0 .767-.126 1.107-.068.293.045.648.195 1.344 1.003.927 1.072.761 1.343 1.461 2.087.483.515.953.812 1.78 1.327.312.194.446.253.632.348.315.215.824.57 1.321.91.412.41.548.69 1.102 1.055.263.176.54.248 1.188.516 1.358.955 2.448 1.72 3.003 1.861.009.15-.005.3-.101.412-.348.416-1.442-.045-3.148-.603-.99-.325-1.998-.573-2.991-.881 0 0-2.527-.783-5.507-1.594-.78-.215-.207-.056-3.808-.985-3.02-.78-3.504-.907-4.458-.986a14.3 14.3 0 0 0-3.594.162c-1.088.183-2.062.561-4.017 1.305-2.074.787-2.646 1.161-3.026 1.814a3.1 3.1 0 0 0-.406 1.501c0 .602.185 1.077 1.333 2.858.034.056.045.068.078.123.138.287.277.509.4.713.068.241.264.579.506.928.534.761 1.467 1.699 1.86 1.547a5.5 5.5 0 0 0 1.34.637c1.093.341 1.714.189 2.312.51.045.034.101.057.15.102.491.47.426.851.841 1.658a5.46 5.46 0 0 0 1.85 2.052c.022.01.022.033.044.056.045.033.1.056.145.09.045.022.132.1.162.122.023.01.068.022.09.045.547.373 1.17.648 2.272 1.066 1.488.562 2.63.779 2.963.835 1.096.19 1.646.293 2.405.203 1.298-.15 2.457-.731 2.742-.882.93-.482 1.397-.945 1.733-.748.27.154.113.523.388 1.113.265.55.8 1.049 1.41 1.223.707.205 1.328-.09 2.092-.446.332-.155.682-.348 1.924-1.299 1.334-1.024 2.002-1.537 2.406-1.901.313-.285.792-.738 1.56-1.154.178-.1.942-.514 1.06-.359.101.123-.307.52-.881 1.34a16 16 0 0 0-1.014 1.663c-.456.835-.733 1.505-1.05 2.26-.268.65-.47 1.131-.66 1.717-.38 1.163-.302 1.471-.615 2.904-.55 2.532-.95 2.37-1.026 3.837-.034.586 0 1.204-.302 2.023-.202.547-.482.99-.66 1.27-.325.51-.567.894-.986 1.27-.48.43-.659.374-1.74 1.066-.95.61-1.03.793-1.055.928-.056.29.119.433.748 1.414.625.982.654 1.161.887 1.206.379.079.594-.316 1.062-.602.067-.023.144-.034.214-.056.117-.045.204-.101.313-.15.034-.01.056-.023.09-.034.538-.101.648.112 1.107-.068.352-.133.363-.29 1.032-.852l1.02-.777c.727-.554.837-.641.91-.846.154-.436-.167-.617-.012-1.009.205-.538.897-.455 1.008-.898.045-.194-.056-.335-.585-1.125-.491-.728-.734-1.098-.765-1.217-.045-.19-.09-.497.423-1.902.32-.866.405-.937.602-1.495.321-.89.248-1.103.533-2.278.27-1.112.434-1.792.858-2.592.586-1.111.92-1.03 1.264-2 .178-.506.056-.458.423-1.906.067-.265.226-.859.55-1.583.202-.451.305-.68.447-.77.51-.325 1.015.279 2.214.312.594.01 1.064-.112 1.52-.237.466-.127.802-.276 1.396-.557 1.12-.523 1.678-.787 2.47-1.235 1.028-.577 1.598-.903 2.33-1.472 1.266-.982 1.924-1.857 2.098-2.098.547-.749.821-1.128.904-1.734.068-.494-.033-.8.192-1.002.257-.243.678-.08 1.513.078.245.045.794.101 1.287.157.507.101 1.049.15 1.617.128.363.006.675.009 1.438.079.898.078 1.466.12 2.214.307.725.182.706.265 1.913.673.626.21.995.285 1.426.406.023.007.079.034.113.045.033.007.033 0 .067.006.274.067.617.209.915.261 1.088.191 1.387.12 1.832.29.128.056.27.147.406.22.429.313.535.611 1.212.939.112.122.197.24.423.353.192.1.533.131 1.339.174.57.204.742.312 1.072.318.056 0 .437-.132.597-.168q.354.004.66-.078h.011c.09-.023.173-.045.25-.08.54-.13.724-.31 1.582-.462.15-.023.24-.034.365-.056.286.129.529.274.87.185.367-.09.747-.447.783-.835.056-.614-.785-.882-.702-1.443.068-.42.558-.437.661-.952.067-.344-.067-.798-.353-.944-.297-.15-.595.112-1.525.562-.969.474-1.456.709-1.884.7-.748-.01-.89-.456-1.698-.41-.586.022-.608.263-1.142.341-.902.127-1.31-.494-2.782-1.072-.444-.174-.95-.284-1.96-.522a31 31 0 0 0-2.84-.521c-1.109-.156-1.103-.09-2.116-.244-1.516-.225-1.45-.344-2.348-.423-1.179-.115-1.383.079-2.863-.006-.792-.044-1.912-.12-1.948-.4-.023-.194.477-.396 1.652-.887a504 504 0 0 0 2.91-1.235c1.06-.467 1.816-.886 3.327-1.733 1.278-.713 1.655-.98 1.936-1.496.068-.127.62-1.178.198-2.092-.316-.685-.922-.72-.91-1.125.01-.495.921-.549 1.965-1.455.25-.218 1.015-.897 1.415-1.965.198-.53.181-.835.267-1.397.223-.384.409-1.02.66-2.278.034-.101.034-.09.068-.209.53-1.523.566-1.561.626-1.89.201-1.064.078-1.896.022-2.173-.034-.205-.117-.326-.168-.499-.007-.056.006-.15-.006-.203a2.6 2.6 0 0 0-.325-.794c-.007-.011-.01-.033-.022-.056-.533-1.226-.826-1.317-.98-1.797a3.8 3.8 0 0 1-.033-.91c.162-.527.551-1.004.667-2.185.033-.396.003-.887-.068-1.872-.09-1.239-.126-1.856-.26-2.33-.163-.568-.592-1.224-1.235-2.146-.067-.127-.1-.238-.174-.37-.51-.927-.783-1.398-1.356-1.636-.09-.033-.168-.008-.255-.033-.022-.006-.033-.034-.056-.034-.09-.022-.174.003-.26-.006-.137-.008-.283-.067-.412-.045zm-3.577 21.518c.1-.034.178-.034.232.01.158.128-.01.586-.776 2.296-.466 1.042-.64 1.365-.87 1.826-.27.234-.543.468-.8.725-2.172 2.165-1.915 3.32-3.379 3.953-.471.206-.902.258-1.293.343.262-.31.492-.583.888-1.09.53-.676.413-.572 1.327-1.78 1.14-1.506 1.192-1.5 1.623-2.144.42-.633.776-1.168 1.171-1.948.368-.736.559-1.268 1.148-1.75.045-.034.443-.355.73-.441zm-15.135 7.675c1.626-.15 2.858.502 3.559.875.42.222 1.738.918 1.623 1.483-.067.334-.63.49-1.223.638-.37.009-.6-.012-1.212.056-.762.09-1.297.17-1.75.254-.986.079-1.736.153-2.545.51-.598.267-.988.586-1.78 1.224-1.013.815-1.53 1.235-1.976 1.97-.598.982-.493 1.57-.94 1.682-.53.134-1.226-.577-1.547-1.142a2 2 0 0 1-.302-.84c-.045-.404.045-1.15 1.971-2.986.64-.609 1.255-1.19 2.284-1.89 1.662-1.127 2.52-1.718 3.837-1.837zm11.124 9.24c-.135.056-.113.333-.128 1.211-.011.543-.011.824-.056.997-.115.444-.354.69-.701 1.102-.91 1.068-.639.929-1.287 1.629-.353.384-.956.993-1.803 1.617-.684.503-1.21.791-1.977 1.206-1.234.669-1.855 1.004-2.527 1.142-.309.056-1.051.045-2.54 0-1.254-.034-1.877-.045-2.225-.112v-.006c-.946-.175-1.413-.435-1.646-.198-.15.153-.068.39.067 1.293-.034-.056-.217-.445-.227-.44-.022.01.101.245.255.649.067.454.138.953.156 1.472.022.816-.101.816-.09 1.71 0 .64.001 1.166.203 1.791.206.649.415.835.586 1.183.022.143.112.609.156.823-.012.416-.122.782-.113 1.513.009.448.18 1.042.528 2.238.372 1.266.556 1.904.794 2.47.36.877.582 1.175.574 1.773-.004.372-.1.613-.033 1.16.044.403.127.53.044.735-.166.384-.62.34-.695.66-.056.246.194.342.238.749.045.371-.154.457-.174.805-.045.705.704 1.283.65 1.34-.034.033-.23-.266-.458-.244-.254.022-.257.406-.685.904-.305.352-.448.329-.516.55-.112.381.163.949.562 1.079.244.079.437-.034.644-.15.162-.023.233-.09.342-.15a.74.74 0 0 1 .354-.023c.078.01.14.056.203.09.078.056.183.115.238.173.174.185.304.399.585.412.38.022.803-.344.922-.725.034-.1 0-.172-.006-.254l.006.006c.079.033.155.033.209 0 .204-.136.127-.779-.209-1.125.045-.157.101-.332.255-.492.3-.313.579-.176.765-.441.233-.326-.101-.653.115-1.021.218-.376.691-.227.83-.54.122-.284-.179-.578-.575-1.327-.308-.582-.193-.535-.545-1.275-.34-.72-.679-1.24-1.078-1.861-.473-.734-.546-.794-.725-1.073-.112-.324-.236-.618-.318-.962-.329-1.384-.056-1.684-.25-2.655.08-.1.163-.168.26-.185.258-.045.422.268.963.783.617.582 1.174.896 1.803 1.252.843.475 1.558.71 1.954.84.367.121.714.153 1.043.227.924.371 1.757.69 2.904.725a6.5 6.5 0 0 0 2.035-.267c1.085-.179 1.973-.492 2.411-.69.852-.393 1.465-.673 2.047-1.31.6-.658.83-1.346 1.292-2.72.09-.257.206-.774.295-1.112a7.3 7.3 0 0 0 .498-1.258c.246-.815.293-1.472.324-1.895.007-.125-.003-.215 0-.331.006-.045.045-.174.045-.214a10 10 0 0 0-.133-2.661c-.246-1.299-.687-2.164-.58-2.209.09-.045.356.63 1.096 1.34.614.581.83.5 1.42 1.026.554.494.459.655 1.345 1.89.53.734.932 1.181 1.397 1.698.456.64.77.984.997 1.096.01.007.115.01.128.022.147.112.274.192.377.232.479.186 1.01.205 1.472.227.669.034.677-.056 1.084.01.772.13.868.486 1.414.464.4-.022.891-.239 1.05-.615.165-.396-.183-.648-.011-1.008.197-.42.749-.262.991-.701.194-.345.101-.887-.214-1.148-.23-.19-.512-.187-.679-.18-.815.023-1.017.634-1.634.69-.407.034-.789-.271-1.537-.893-.044-.033-.044-.045-.09-.078-.118-.126-.15-.193-.312-.342-.079-.068-.116-.09-.18-.14-.349-.345-.666-.665-1.153-1.112-.816-.752-.848-.578-1.838-1.42-.703-.6-.929-.909-1.756-1.705-.207-.333-.404-.627-.882-.991a5.5 5.5 0 0 0-.777-.476c-.079-.067-.184-.171-.273-.238-.727-.545-1.034-.69-1.356-.887-.222-.176-.399-.293-.65-.522-.033-.033-.033-.044-.067-.078-.57-.591-.652-.973-1.472-1.687-.128-.112-.174-.112-.267-.18-1.006-1.145-2.38-2.675-2.986-2.376-.003 0-.003.01-.006.01-.176-.179-.368-.366-.492-.312zm-19.686 2.394c.218-.006.353.01.382.09.004.01-.022.033-.022.044-.488.179-1.023.52-1.815.835-.585.233-1.491.36-3.304.609-1.444.202-2.332.32-3.57.348-1.842.033-2.944.003-4.122-.29-.43-.279-.756-.556-.701-.736.09-.273.916-.124 2.8-.214.186-.008 1.05-.1 2.776-.267 3.107-.31 3.104-.32 3.681-.342 1.639-.056 1.579.09 2.992-.011.38-.023.685-.067.904-.067zm22.178 2.91c.265-.101 1.195 1.311 1.681 2.91.166.542.402 1.337.365 2.394-.045 1.254-.44 2.145-.875 3.118-.257.575-.715 1.579-1.64 2.667-.125.146-.296.315-.441.476-.38.304-.798.605-1.316.904-.824.474-1.758 1.016-3.084 1.194-1.14.153-1.98-.034-3.594-.406-.88-.199-1.426-.366-1.93-.591a14 14 0 0 1-.476-.284 12 12 0 0 1-1.136-1.009c-.24-.29-.471-.562-.824-1.078-.531-.78-.787-1.26-1.112-1.82-.01-.056-.101-.237-.09-.249.135-.09.71 1.155 2.075 1.606.982.323 1.898.078 2.388-.045.428-.115 1.395-.378 2.174-1.194.329-.345.601-.755 1.096-1.52.518-.798.55-.965.824-1.112.067-.033.127-.033.19-.045.183 0 .35.003.51-.006.337.079.707.24 1.282.18.423-.045 1.071-.466 2.365-1.305.91-.59 1.054-.743 1.177-.933.09-.138.327-.543.382-1.872.056-1.358-.152-1.92.006-1.977z" style="fill:#f68c11;fill-opacity:1;fill-rule:nonzero;stroke:none;stroke-width:3.95727"/>
    </g>
    <g id="Spider" transform="translate(-57.646 -60.289)">
        <path id="path49309-1" d="M110.951 72.717c-.564.008-1.128 1.846-1.328 2.276-.805 1.743-1.078 3.64-1.555 5.49-.284 1.096-.58 2.228-.617 3.366-.029 1.09.415 1.78.815 2.735a14.9 14.9 0 0 1 1.056 4.423c.096 1.229-.295 2.358-.038 3.584.195.935 1.087 2.156.978 3.105-.086.713-.875 1.434-1.289 1.955a31 31 0 0 1-2.3 2.567c-.444.447-1.417 2.101-2.059 1.299-.74-.929.792-2.228.943-3.14.205-1.257.096-2.614-.01-3.875-.095-1.168-.195-2.347-.553-3.47-.337-1.053-.992-1.914-1.56-2.85-1.278-2.105-2.4-4.315-4.112-6.116-1.487-1.561-2.962-3.181-4.586-4.6-1.594-1.394-3.429-2.383-5.258-3.412-.98-.55-2.08-1.656-3.253-1.742-.412-.029-.846.086-1.249.163-.067.01-.747.086-.49.104.341.575.427.893 1.102.874 1.063-.038 1.418.02 2.3.716.48.379.974.633 1.491.952 2.264 1.394 4.893 3.336 6.205 5.707.598 1.077 1.168 2.117 1.94 3.09.85 1.073 2.114 2.052 2.607 3.362.242.64.223 1.333.415 1.984.207.703.631 1.226 1.026 1.822.144.216.26.446.371.676-.057.135.048.31.203.494.284.772.41 1.59.3 2.42-.155 1.214.134 2.404-.028 3.593-.058.452-.16 1.12-.479 1.456-.363.39-.945.316-1.135-.261-.196-.596.455-1.175.478-1.783.006-.163-.038-.34-.067-.513.086-.524.039-1.443.02-1.56-.067-.418-.197-.829-.52-1.12-.037-.029-.202-.114-.335-.187-.32-.637-.765-1.065-1.357-.588-.826.666.765 2.531.844 3.367.058.644-.038 1.268-.706 1.456-.325.096-.682-.038-1.016.104-.96.391-1.93 1.304-2.716 1.975-.493.421-.576.562-1.031.123-.37-.358-.744-1.013-.993-1.48-.365-.688-.326-1.992-1.273-2.227-2.048-.51-.476 2.6-.148 3.154.228.387.507.728.809 1.047-.162-.174-.313-.342-.35-.316-.236.16.409.782.528.824.096.038.213.01.32.005-.038-.048-.085-.086-.123-.133.058.048.12.086.178.133h-.057c.65.704 1.521 1.512 2.246 1.249.106.108.198.243.276.479.057.183.483 1.408.43 1.466-.067.076-1.534-.49-1.827-.49-.096 0-.182-.008-.276-.01-.444-.176-.908-.18-1.392-.182-.116-.029-.227-.038-.346-.086-.733-.307-1.371-.876-2.128-1.12-.665-.217-1.03.171-1.648.152-1.436-.038-1.363-2.12-1.896-2.996-.654-1.075-1.735-1.307-2.597-2.039-.127-.128-.2-.206-.325-.326-.876-.976-1.334-2.456-1.975-3.579-.382-.67-.844-1.284-1.288-1.91-.177-.352-.351-.705-.554-1.037-.165-.273-.953-1.95-1.663-3.55-.226-1.061-.421-2.13-.692-3.184-.288-1.137-.843-2.427-.79-3.618.029-.624.81-2.789.163-3.184v-.01c-.456-.277-1.064.402-1.225.76-.218.492-.12 1.11-.067 1.62.114 1.159.32 2.308.513 3.455.38 2.25.229 4.722.854 6.912.261.905.856 1.676 1.294 2.503.472.889.863 1.817 1.308 2.72.554 1.126 1.023 2.355 2.049 3.13 1.005.753 1.189 1.288 1.58 2.428.14.412.321.78.528 1.126-.103.286.377.972.494 1.076.308.279.737.469 1.11.681.212.161.447.298.677.44.137.096.249.16.394.216a16.6 16.6 0 0 0 2.839 1.234c.928.308 1.819 1.285 2.794 1.314.307.008 1.06-.242 1.698-.331.199.21.443.367.686.375-.551.363-2.033.938-2.236 1.042-1.178.608-2.173 1.496-3.367 2.064-1.2.57-2.126.95-3.199.019-1.075-.938-2.072-1.207-3.51-1.052a4 4 0 0 1-.868-.005 13 13 0 0 0-1.526-.469c-1.379-.734-2.397-2.098-3.993-2.804-1.231-.542-2.538-.58-3.846-.31-.921.194-1.754.618-2.715.646-1.508.048-2.965-.057-4.473.099-.267.028-4.008.447-2.868 1.515.214.203 1.134-.18 1.358-.227.6-.131 1.19-.213 1.802-.232 1.356-.038 2.783-.058 4.117.222.588.124 1.185.275 1.688.622.521.358.82.92 1.353 1.264 1.021.652 2.094.51 3.174.119.882-.318 1.206-.419 2.054.076 1.089.638 2.097 1.283 3.263 1.753.125.047.168.114.261.168-.003.007-.01.007-.01.019-.085.244.841 1 1.274 1.185.37.285.824.358 1.304.448.74.139 1.312.193 2.029-.057.572-.2.856-.284 1.466-.104 1.224.358 2.235.29 3.357-.365.205-.12.404-.265.607-.394.321-.107.622-.253.834-.47.038-.038.038-.086.067-.123.516-.364 1.022-.738 1.52-1.1.69-.503.905-1.11 1.378-1.788.533-.758 2.25-1.148 1.51.223-.386.714-1.482 1.362-2.073 1.965-.577.59-1.223 1.163-1.733 1.816-.586.747-.79 1.5-1.619 2.044-2.145 1.406-3.86 3.202-6.54 3.535-1.071.134-1.404.803-2.311 1.263-.812.41-1.892.88-2.8 1.003-.439.066-.815-.125-1.243-.144-.605-.028-1.152.211-1.698.435-.326.135-.975.248-.884.676.067.336 1.102.551 1.372.637 1.385.422 2.692.316 4.014-.276 1.133-.509 1.352-.785 2.601-.43 1.224.35 1.672-.363 2.69-.952.795-.456 1.636-.83 2.43-1.293 1.777-1.036 3.802-1.777 5.321-3.19.851-.793 1.462-1.708 2.079-2.69.325-.521.873-2.19 1.757-1.92.619.188.181.993-.048 1.338-.305.465-.584.798-.82 1.308-.463 1.003-1.442 1.354-2.103 2.231-1.38 1.843-1.848 3.938-2.325 6.151-.212.978.02 1.91.4 2.829.217.528.566 1.034.687 1.594.116.552-.03 1.055-.086 1.605-.294 2.818.761 5.322 2.038 7.765 1.047 2.006 2.362 3.816 3.574 5.722.866 1.363 1.641 2.628 2.81 3.766.47.459.896.949 1.312 1.456.294.352.728 1.131 1.21 1.264.538.146.962-.298.84-.859-.133-.607-.917-.984-1.348-1.342-.866-.723-1.493-1.695-2.133-2.612-.88-1.254-1.773-2.504-2.394-3.914a15.6 15.6 0 0 1-1.17-4.266c-.114-.9-.086-1.8-.365-2.675-.486-1.515-1.462-2.932-1.723-4.512-.204-1.238.51-2.335.242-3.634-.162-.794-.93-1.648-.73-2.453.265-1.064 1.25-2.007 1.688-3.026.125-.292.286-1.494.533-1.669.277-.196.16 0 .33.257.373.568.466 1.46.785 2.088.254.498.547.986.85 1.456.69 1.071 1.522 1.966 2.453 2.83 1.424 1.319 2.883 2.786 4.705 3.519 2.047.825 3.655 1.828 5.8.508 1.005-.619 1.281-1.49 1.565-2.577.282-1.086.598-2.218.538-3.352-.096-1.836-.414-3.773-.72-5.588a39 39 0 0 0-.697-3.297c.086-.68-.38-1.92-.859-2.089-.148-.366-.193-.711.169-.927.896-.54 2.064.487 2.858.75.815.268 1.374.525 2.058 1.047 1.234.942 2.656 1.676 3.826 2.69.819.71 1.418 1.67 2.202 2.424.721.694 1.037 1.393 1.451 2.291.589 1.278 1.767 1.966 2.617 3.046.802 1.017 1.458 2.259 1.89 3.48.363 1.029.588 2.058 1.037 3.066.438.97.981 1.843 1.037 2.927.038.663 0 1.34-.193 1.975-.165.543-.572 1.17.168 1.496.896.39 1.061-.755 1.15-1.358.382-2.578-.478-4.743-1.204-7.133-.422-1.387-.488-2.884-1.121-4.196-.859-1.778-1.783-3.56-2.809-5.248-.698-1.15-1.424-2.48-2.434-3.391-.768-.694-1.73-.997-2.31-1.91-1.254-1.974-2.047-3.59-4.374-4.444-2.02-.74-3.935-1.605-6.096-1.09-.498.118-.984.377-1.496.33-.53-.048-.992-.376-1.55-.385-.254 0-.894.218-1.126.067-.37-.243-.25-.8.114-.938.458-.172 1.285.18 1.802.104.193-.03.37-.096.558-.144.84-.215 1.754-.346 2.557-.691 2.003-.856 3.853-1.823 5.642-3.066.95-.661 1.98-1.01 2.947-1.58.724-.428.991-1.365 1.54-1.98.673-.751 1.496-1.372 2.143-2.147.554-.663 1.342-1.91 1.412-2.779.029-.398.057-.732-.435-.918-.614-.235-.954.404-1.303.79-.752.828-1.488 1.582-2.182 2.468-.433.557-.972 1.11-1.62 1.412-.47.222-.915.251-1.293.637-.465.477-.631 1.217-1.076 1.708-.633.698-1.807 1.038-2.636 1.417-.758.347-1.575.604-2.31.993-1.122.595-1.218 1.154-2.528.785-1.046-.294-2.047.236-3.011.637-.01-.006-.008-.029-.02-.038-.006-.002-.028.057-.037.057-.029.01-.067.02-.096.038-.095.038-.784.42-.893.281-.167-.214.554-.91.661-1.032.803-.902 1.767-1.55 2.656-2.344 1.89-1.688 1.265-4.31 1.856-6.517.308-1.147.291-1.655-.076-2.814-.321-1-.742-1.838-1.21-2.764-.57-1.14-.655-2.59-.558-3.846.086-1.126.589-2.15.642-3.287a4.34 4.34 0 0 0-.449-2.202c-.197-.399-.442-.719-.523-1.175-.21-1.129.1-2.492.305-3.604.168-.896 1.124-3.003.321-3.84a.32.32 0 0 0-.241-.119zm-1.752 8.94c.028-.005.038.01.057.01.17.238.436.571.651.844.01.188.039.394.039.524-.01.233.019 1.625-.281 1.767-.889.422-1.798-2.851-.465-3.144zm-7.153 9.281c-.008.28.692.248.829.321.028.02.174.198.33.376.106.177.274.392.301.478.077.24.375 1.325-.005 1.373-.256.028-1.74-2.184-1.53-2.484.019-.028.048-.038.076-.066zm8.545 2.133c.067-.005.514.217.785.36.316.745.466 1.905.271 2.26-.716 1.306-1.73-1.434-1.293-2.477.076-.077.164-.139.237-.144zm-6.877 3.979c.057.184.251.212.46.197.296.52.294 1.682.232 1.906-.077.277-.459 1.318-.82 1.1-.207-.124-.1-3.014.128-3.203m18.567 3.603q.114-.002.168.067c.028.029-.01.107-.048.178a.56.56 0 0 0-.232-.168c-.038-.02-.205.029-.316.038.144-.057.29-.114.424-.114zm-.385.306c.291.187-.106.485-.114.686-.086.076-.211.219-.242.237-.298.17-.919.288-.962-.203-.02-.201.215-.386.478-.537.001.019-.028.028-.019.047.057.103.734-.318.859-.232zm-37.119 1.451c-.019.039-.038.048-.057.086-.116.321.877 1.89 1.254 1.738.112-.048.162-.156.187-.296.179.45.28.862.099.958-.45.237-1.884-2.192-1.53-2.478.009-.01.037-.002.047-.01zm31.767 2.251c.135.048.186.15-.067.41-.019.02-.2.086-.261.119.218-.157.403-.338.325-.529zm-.878.153c.185-.019.388.005.473.164a.27.27 0 0 1 .005.246c-.513.275-1.738.782-1.87.41-.077-.233.942-.694 1.066-.76.019-.01.076-.02.109-.03.067-.01.106-.018.216-.028zm-5.204 1.605c.476-.02.922.086 1.062.469.134.367-.343.347-.632.414-.646.155-1.48.428-2.142.212-.152-.047-.184-.098-.257-.148.038-.067.086-.116.118-.207.01-.029.029-.172.048-.252.19-.096.383-.195.578-.257v-.005c.25-.077.754-.21 1.23-.227zm-19.252.4c.536.076 1.33.344 1.742.578-.019.133.058.307.168.483-.268.229-.912.298-1.15.276-.398-.038-1.72-.748-1.23-1.313.049-.057.23-.057.47-.028zm-18.394 2.172c.531-.112 1.323.057 1.86.375.04.229.307.532.573.657.148 1.38-3.157.282-2.962-.613.049-.226.25-.36.528-.419zm41.033 1.24c.344-.02.707.13 1.027.206.265.058.58.102.888.153.004.058-.01.102.029.164-.11-.189.97.613.809.631.048-.006.067-.076.086-.123.038.12.1.293.118.34.077.197.122.324.188.44-.039.038-.039.096-.105.128-.46.24-2.031-.533-2.443-.651-.5-.144-2.27-.565-.928-1.205q.161-.071.336-.086zm-16.745 2.31c.048.236.175.46.335.612-.235.18-.538.353-.676.449-.287.2-.569.362-.825.602-.186.176-.493.786-.74.888-.287.119-.51.057-.622-.28-.14-.434.273-.776.553-1.047.31-.303 1.256-1.074 1.975-1.225m12.87.047c1.172.191 1.315 1.898 1.762 2.75.458.87.716 1.522.435 2.557-.647 2.392-3.412 4.45-5.697 5.07-1.033.279-2.367.34-3.525.187-.12-.038-.258-.048-.375-.086-.158-.057-.884-.432-1.447-.642-.567-.534-.928-1.294-1.283-2.019v-.005c-.485-.988-1.178-2.161.41-2.029 1.55.13 3.06.067 4.512-.553 1.305-.56 2.332-1.477 3.095-2.67.496-.778.951-2.749 2.113-2.558zm-26.204.139c.635.028 1.382.318 1.753.667-.174.156-.086.452.086.676-.35.299-1.222.242-1.926.005a3 3 0 0 0-.794-.44.5.5 0 0 1-.11-.241c-.038-.52.419-.695.993-.667zm36.052.123c-.029.347.435.611.736.637.184.02.38-.138.562-.095.274.4.626 1.18.617 1.545-.01.43-.185.396-.4.257-.616-.708-1.225-1.348-1.683-1.545-.12-.188-.19-.366-.128-.513v-.005a.5.5 0 0 1 .296-.282zm-26.746 4.75c.12.018.201.066.212.162 0 .006-.02.02-.02.03a3.6 3.6 0 0 0-.537.404c-.113.105-.106.142-.158.212a8 8 0 0 1-.844.504c-.274.12-1.103.419-1.25-.029-.144-.442 1.102-.927 1.358-1.022.171-.067.88-.311 1.24-.262zm3.006 1.82c.134.225.436.32.73.218-.202.87-.723 1.751-1.209 2.492-.019.039-.038.048-.066.086-.227-.244-.53-.39-.88-.345.003-.02-.002-.029 0-.048a3.48 3.48 0 0 1 .998-2.078c.101-.1.272-.206.424-.326zm30.069.543c.028-.005.067.01.095.02 0 .339.464.94.74.858a.24.24 0 0 0 .12-.086c.286.519.43 1.127.138 1.303-.048.03-.106.03-.169.02-.345-.399-.671-.765-.893-.889-.262-.415-.45-.856-.316-1.027a.46.46 0 0 1 .287-.187zm-40.776 1.832c.086.01.129.048.202.067-.178.126-.067.423.077.558-.56.287-1.993.404-1.393-.38.17-.222.695-.299 1.116-.247zm8.974 4.161c-.019.35.267.796.573.736.264.73.314 1.735-.193 1.93-.466.182-.914-2.484-.554-2.66.058-.03.116-.01.173-.006zm1.432 8.743c.337.077.669.49.918.973-.146-.181-.375-.293-.563-.144-.356.282.147.958.543.745.184-.097.167-.285.086-.46.421.907.502 1.988-.41 1.749-.349-.096-.895-1.344-1.037-2.143.152-.128.142-.354.039-.538.01-.019-.002-.086.019-.095a.46.46 0 0 1 .41-.086z" style="fill:#993c1e;fill-opacity:1;fill-rule:nonzero;stroke:none;stroke-width:2.32696"/>
    </g>
</svg>
