<svg xmlns="http://www.w3.org/2000/svg" id="svg5" width="88.338" height="100" version="1.1">
    <g id="ladybug" transform="translate(-57.646 -60.289)">
        <path id="path61054-2" d="M111.536 70.794c-.066-.03-.147.062-.416.342-.365.385-.266 1.018-.607 1.412-.606.705-.721.122-1.37.093-.673-.03-1.358 1.186-1.983 1.642-.778.561-1.54 1.18-1.92 2.1-.733 1.802.054 3.199.731 4.85.602 1.483 1.241 2.98 1.674 4.526.294 1.04-.011 1.415-1.077 1.728-1.014.299-1.336-.073-2.175-.694-1.386-1.023-3.812-2.673-5.597-2.564-.68.042-1.475.996-2.11.944-.325-.03-.65-.615-.853-.949l-.022-.03c-.296-.535-.39-.78-.885-1.173-.231-.186-.488-.316-.698-.539-.013-.082-.057-.147-.049-.24.06-.608.53-1.394.672-1.838.379-1.19.6-2.199.725-3.433.071-.697.508-1.65.16-2.324-.132-.256-.696-.739-.96-.81-.51-.14-.094-.073-.645.102-1.22.394-1.213 1.363-.304 1.94.079.052.24.083.39.118-.256.47.118.765.389.698-.189.217-.54.427-.63.613-.375.776-.346 1.879-.698 2.745-.23.568-.443 1.156-.703 1.717-.457.986-.788 1.235-1.85 1.204a7.8 7.8 0 0 0-2.356.251c-1.85.49-2.757 1.856-3.886 3.321-.703.915-1.124 1.504-2.361 1.375-.768-.082-1.57-.26-2.324-.42-.643-.137-1.415-.276-1.946-.694-.399-.312-1.464-2.257-1.924-2.1v-.005c-2.352.801-.465 2.507.895 3.182 1.11.617 2.431.914 3.737 1.333l-1.311-.618c1.138.235 2.281.467 3.39.778-.019.178.025.325.208.42-.223 1.025.47 2.072 1.034 2.874-1.156.673-2.25 1.346-2.585 2.76-.254 1.082.258 2.024-.032 3.12-.234.87-.053.691.17 1.47.132.46-.147 1-.042 1.466.213.983.705.512.042 1.205-.483.503-1.355.489-1.716 1.098-.602-1.047-1.517-1.597-2.234-2.532-.395-.51-.574-1.209-1.007-1.684-.348-.384-.861-.565-1.189-.976-.592-.745-.424-1.065-1.316-1.344-.552-.174-1.174-.258-1.749-.34-1.021-.14-1.802-.004-2.756.442-.422.197-.95.641-1.412.713-.203.031-.553-.152-.736-.092-.514.176-.575.862-.943 1.15-.524.412-1.03.083-1.541.23-1.356.388-.339 2.003.432 2.59 1.437 1.099 3.584-.788 4.77-1.604.687-.468 1.226-1.058 1.946-.538.372.265.678.95.912 1.348.747 1.279 1.62 2.118 2.729 3.097 2.045 1.808 5.682 2.06 8.363 1.893 3.253-.208 6.37-.583 9.403-1.834.808-.333 3.419-1.566 4.142-1.13.038.02.041.062.075.093-.257-.093-.554-.106-.736.072.165.289.618 1.152 1.082.597.1 1.282-1.703 3.402-1.839 4.206-.379 2.19 1.679 4.255 3.795 4.307 1.316.03 1.392-.72 2.16-1.413.746-.673 1.795-.2 2.58-.778 1.673-1.23 1.33-5.162-.502-6.114-.125-.062-.271-.062-.405-.092-.052-.052-.094-.137-.15-.165-.625-.33-2.006-.073-2.713-.062-.175.003-.24.03-.32.051-.12-.041-.247-.03-.362-.093-.913-.485-1.226-1.256-.773-2.148.768-1.52 2.797-2.653 3.94-3.918 1.075-1.183 2.13-2.418 2.985-3.768 1.51-2.387 3.566-5.324 3.512-8.279-.03-1.533-.39-3.558-.863-5-.217-.656-1.529-2.345-1.22-3.011.178-.392 1.736-1.01 2.105-1.226 1.054-.62 1.804-1.119 2.42-2.196.046-.083.096-.173.149-.256.013-.01.018-.031.027-.052.337-.53.72-1.105.277-1.695-.077-.105-.524-.256-.656-.405-.115-.132-.108-.585-.25-.704-.196-.163-.248-.303-.315-.33zm9.632 12.783c-.762-.003-1.677.549-1.647 1.071.007.135.066.192.107.278-.019-.006-.072-.031-.086-.031.064.112.611 1.313 1.024.858.084-.093.066-.18.037-.26.099.04.2.082.266.18.612.867-.596.852-.826 1.355-.243.533.332 1.127.022 1.78-.332.693-.682.886-.912 1.77-.193.737-.288 1.051-1.029 1.29-1.03.33-2.323-.483-3.273-.113-.994.387-.656 1.633-1.753 1.727-.926-.082-1.671-.603-2.564-.56-.006 0-.012.006-.016.006-.158.01-.308-.01-.48.04-.064.022-.108.063-.17.094-.05.02-.093.004-.144.03-.615.27-1.16.656-1.684 1.067-.1.082-.157.181-.246.266a.5.5 0 0 0-.085.072c-.008.02-.01.02-.017.042-1.083 1.119-1.402 2.71-2.27 4.061-.819 1.269-1.795 2.225-3.15 2.884.095.052.242.118.346.17l-.07.042c.077.03.128.005.198.02 1.794.898 4.47 1.777 4.84 3.913.182 1.047-.284 2.741-.73 3.673-.366.75-1.988 2.134-2.005 2.937-.007.343.564 1.054.72 1.343.544 1.007 1.085 2.005 1.626 3.012l4.29 7.958a454 454 0 0 0 4.942 8.891q.145.35.31.56c.174.308.34.621.516.928.71 1.23 1.347 2.584 2.602 3.342 1.186.721 2.388-.493 3.395-1.173 1.204-.816 2.16-1.173 3.012-2.441.608-.9 1.104-1.964 1.53-2.964.483-1.129 1.226-2.513 1.162-3.784-.025-.505-.153-.696-.341-.747a.3.3 0 0 0-.134-.093c-.203-.062-.428.082-.666.25-.45.166-.957.321-1.412-.122-1.072-1.044-1.177-2.91-.944-4.297.325-1.924 1.871-1.69 3.268-1.23.02-1.228-.189-2.155 1.268-2.485.058.955-.342 2.874.432 3.449.632.47 2.162.877 2.942.949 1.042.103 1.653-.377 2.623-.522.977-.15 1.604.203 2.564-.17.693-.268 1.414-.537 1.999-1.013.49-.394 1.029-.856.853-1.605-.101-.421-1.245-1.292-1.711-1.22-.591.093-.357.668-.56 1.178-.389.976-.578.398-1.423.501-.094.01-.156.041-.235.072-1-.072-2.226.083-2.75.182a1.8 1.8 0 0 0-.8-.118c-.332.031-.465.093-.608.144-.199-.114-.4-.307-.698-.704-.17-.226-.288-.5-.426-.757-.035-.093-.072-.218-.107-.293a5.9 5.9 0 0 0-.906-1.418c-.098-.134-.188-.276-.304-.394-.314-.32-.891-.71-1.263-.949-.257-.166-.829-.301-1.008-.448a1.1 1.1 0 0 1-.272-.357c-.121-.497-.053-1.083-.133-1.615-.145-.945-.362-1.893-.565-2.825-.74-3.39-2.245-6.559-4.216-9.398-1.12-1.608-2.221-3.467-3.641-4.834-.534-.513-1.244-.81-1.84-1.258-.283-.21-1.873-1.27-1.166-1.46.946-.256 1.452 1.593 2.537 1.06.5-.248.345-.524.565-.97.237-.476.43-.537.815-.901.724-.674.744-1.202.87-2.212.053-.426.023-.847.175-1.258.18-.486.605-.818.768-1.312.28-.857.051-2.28-.017-3.177-.04-.567-.12-1.305-.65-1.737-.179-.146-.418-.208-.672-.209zm-21.444 2.047c.455.051.904.228 1.306.464-.254.111-.487.222-.24.192.15-.02.242-.083.336-.138.045.03.1.04.144.072.426.296.847.749 1.087 1.215.484.925-.016.855-.82 1.46-.995.749-1.01 1.287-2.49 1.072-.88-.126-2.106-.411-2.884-.8-.169-.082-1.055-.092-1.055-.092.297-.537.958-.588 1.39-.976.254-.228.381-.529.587-.794.328-.428.704-.968 1.13-1.3.43-.336.965-.437 1.509-.38zM88.31 93.48c.122.294-.843 1.844-.88 2.212-.085.87.423 1.623.24 2.393-.24.353-.464.71-.575.864a2.6 2.6 0 0 1-.741.432c-.177.005-.366-.02-.666.041-.526.117-1.004.55-1.482.869-.009.006-.019.01-.027.02-.09.062-.187.093-.277.155a1.4 1.4 0 0 1-.405.165c-.237.042-.486-.051-.725-.192-.018-.092-.014-.137-.07-.277-.141-.361-.37-.574-.4-.938-.03-.359.014-.792.065-1.226l.122.01-.085-.41c.018-.187.046-.387.048-.555.007-.758.174-1.264.437-1.978 1.069-.768 2.182-.637 3.385-.98.146-.042.416-.188.65-.31.24.041.707.031.757.02.234-.061.433-.185.63-.314zm29.803 6.423c.23-.041.444-.051.618 0 .825.245 1.357 1.508 1.546 2.239.179.689.498 1.67.47 2.484a6 6 0 0 0-.134.634c-.17.43-.515.757-1.2.837-.432.051-1.86-.052-2.185-.31-.405-.33-.482-1.322-.8-1.812-.716-1.112-.647-1.886-.245-3.113.406-.337 1.243-.824 1.93-.96zm-23.46 6.269c-.798-.041-2.256.973-2.862 1.231-.815.35-1.465.46-2.35.47-.477 0-.977-.003-1.45-.062-.46-.062-.929-.316-1.355-.337-.821-.04-1.819.707-2.542 1.077-.859.438-1.32.974-1.471 1.994-.075.486.244 1.235-.08 1.647-.292.377-.812.189-1.21.335-.812.302-1.277 1.218-1.707 1.908-.365.582-.416 1.133-.677 1.7-.211.468-.423.576-.831.689-.59-.336-1.316-.618-1.546-.682-.517-.142-1.114-.16-1.605-.261-.466-.093-.776-.352-1.439-.219a4 4 0 0 0-.464.16c-.051-.01-.115-.02-.165-.041-1.393-.36-.078-1.644-1.066-2.09-.392-.177-1.748.377-1.85.853-1.464 1.02.958 2.282 1.61 2.799.87.693 1.08.913 2.212.81.805-.072 1.493.172 2.287.4.65.183 1.463.545 2.16.416.391-.073.67-.385 1.038-.49.477-.136.888.162 1.317.082.954-.176.605-1.03.592-1.775-.014-.718.155-1.134.442-1.77 1.278 1.938.459 4.932.912 7.186.79 3.947 3.374 7.424 6.13 10.266.077.083.157.16.234.24 1.027 1.231 3.366 3.679 4.5 3.896.131.135.27.272.298.39.111.461-.565 1.331-.501 1.977.081.789.475 1.306.9 1.945.149.221.29.417.432.625l-.005.006c.114.103.166.232.25.346.118.165.242.34.363.501.189.323.398.637.741.9.075.084.134.174.213.262-1.244.866-1.599 1.716-1.977 3.134-.603.291-1.256 2.141-1.797 2.532-.144-.082-.273-.17-.474-.24-.134-.36-.243-.856-.927-.554-.636.278-.504 1.054-.24 1.604.1.21.21.367.33.497-.022.45.012.904.347.681.126-.082.15-.221.138-.368.671.228 1.49-.214 2.271-.693 1.021-.626 1.423-1.624 2.042-2.607.547-.863 1.157-1.614 1.583-2.569.274-.616 1.318-2.311 1.098-2.985-.003-.009-.014-.01-.017-.02.132-.106.222-.205.187-.256-.08-.124-.362-.22-.677-.315-.598-.419-1.501-.674-1.738-1.242-.642-1.534 1.354-.406 1.76-.062-.163-1.421 1.227-2.934 2.606-2.996.517-.02 1.288.368 2.01.88a1.1 1.1 0 0 0-.315.352c.906.74 1.398 1.127 1.642 2.287a2.7 2.7 0 0 0 .394-.608c.067.249.094.492.022.72-.193.609-1.644 1.094-1.647 1.716-.004.722 1.318.892 1.828.997 1.272.259 2.492.573 3.79.677 1.735.136 3.214.092 4.766-.736 1.03-.554 2.481-1.278 3.3-2.084 1.108-1.091-.584-1.997-.726-3.204-.081-.67.122-.613-.1-1.188-.616-1.585-1.807-3.125-2.655-4.59q-2.09-3.617-4.185-7.233c-2.025-3.499-4.157-6.956-6.087-10.512-.132-.242-.137-.594-.384-.757-.54-.354-1.975.197-2.617.176-1.714-.041-3.62-.8-4.611-2.244-.487-.71-1.137-2.048-1.194-2.958q-.002-.063 0-.123c0-.839.656-1.728 1.098-2.404a.7.7 0 0 0-.299-.093zm21.568 6.855c.878-.126 1.785.68 2.404 1.348.139.238.305.488.389.677.011-.062.02-.115.032-.175q.225.334.368.72c-.215 1.112-.089 2.199-.33 3.214-.39 1.625-1.185 2.608-2.831 2.873-.18.031-.38.083-.576.128-.17-.02-.332-.03-.517-.072-1.06-.226-1.147-.733-1.189-1.402.006-.062.027-.093.027-.155 0-.816-.532-1.546-.613-2.334-.042-.4-.002-.694-.027-.971.14-.633.369-1.28.41-1.962.373-.88 1.49-1.76 2.453-1.892zm3.3 2.873c.033.124.053.247.074.373-.023-.122-.056-.247-.075-.373m-32.426 2.356c.196-.02.41-.009.66.062.84.22 1.606.931 2.144 1.604.042.052.084.125.128.182.164.4.294 1.046.623.885.665 1.064 1.112 2.304.416 3.225-.644.372-1.236.71-2.095.544-.561-.108-1.337-.285-1.908-.544a11 11 0 0 1-.917-.874 4 4 0 0 1-.56-.777c-.22-.607-.326-1.27-.42-1.94a8.5 8.5 0 0 1 .271-1.6c.66-.28 1.07-.69 1.658-.762zm12.638 5.181a5.7 5.7 0 0 1 1.445.144c1.403.316 1.865 1.24 2.75 2.196.315.336 1.076.597 1.296.954.162.262.02.907-.027 1.237-.175 1.217-.41 1.495-1.365 2.004-.422.103-.833.29-1.247.458a5 5 0 0 1-1.866.02 10 10 0 0 0-.858-.266c-.135-.03-.24-.082-.351-.122-.121-.062-.245-.112-.358-.182h-.005l-.005-.005c-.118-.072-.218-.17-.325-.256a6 6 0 0 1-.677-.784c-.106-.138-.202-.288-.304-.432-.414-.688-.905-1.554-.885-2.27.02-.882.928-1.684 1.445-2.282v-.006c.318-.28.82-.387 1.338-.406z" style="fill:#d61a35;fill-opacity:1;fill-rule:nonzero;stroke:none;stroke-width:3.39044"/>
    </g>
</svg>
