<svg xmlns="http://www.w3.org/2000/svg" id="svg5" width="88.338" height="100" version="1.1">
    <g id="queen" transform="translate(-57.646 -60.289)">
        <path id="path17846-9" d="M120.324 74.88c-.307.034-.58.124-.795.192-.52.176-.869.4-1.263.741-.331.219-.692.462-1.258.916-.784.629-1.351 1.091-2.064 1.831a16.5 16.5 0 0 0-1.675 2.047c-.432.624-.816 1.17-1.125 1.918-.463 1.109-.518 2.042-.562 2.557-.158 1.82-.612 3.414-1.53 6.608-.767 2.68-.92 2.317-1.414 4.382-.661 2.767-.993 4.152-1.032 4.603-.09 1.013-.09 1.997-.696 2.313-.38.198-.93.1-1.298-.145-.09-.056-.417-.293-.626-.973-.221-.708-.079-1.156-.023-2.024.045-.609-.005-1.274-.1-2.608-.102-1.27-.16-1.17-.204-2.116-.056-1.297.056-1.442-.078-2.238-.101-.55-.255-1.002-.505-1.75-.368-1.104-.493-1.18-.493-1.623 0-.61.235-.634.354-1.6.09-.78-.056-.811.09-1.27.205-.624.547-.787.492-1.234-.045-.393-.331-.46-.284-.725.079-.459 1.003-.453 1.078-.88.056-.278-.27-.663-.637-.778-.365-.114-.679.056-.974.238h-.006c-.033.01-.112.022-.122.034-.2.067-.3.138-.388.203-.112.033-.224.056-.337.01-.598-.233-.407-1.464-.91-1.576-.297-.067-.688.309-.823.672-.119.316.034.433.045 1.056.004.431.011.863-.22 1.275-.241.432-.5.389-.666.829-.056.126-.034.149-.101.817-.079.853-.112.8-.09.945v.006c-.17.436-.115.99.079 1.356.011.023.033.034.045.056-.068.09-.137.172-.14.319-.007.368.417.494.853 1.032.432.53.569 1.081.62 1.299.176.7-.067.82.023 1.576.09.855.417.927.741 2.058.159.55.201.97.284 1.809.143 1.484.217 2.227-.128 2.429-.305.173-.511-.283-1.663-.568-.669-.166-1.124-.138-1.757-.51-.292-.17-.412-.306-.492-.418-.261-.363-.221-.731-.25-1.194-.044-.756-.207-.825-.341-1.617.003-.886.045-1.037.033-2.15-.022-1.117-.078-1.13-.033-1.688.022-.304.022-.615.022-.927l.006-.15c-.005-.102.023-.176.007-.297a2 2 0 0 0-.215-.69c-.1-.244-.24-.507-.498-.545-.32-.045-.592.326-.62.36-.273.367-.202.806-.174 1.245.023.321-.034 1.008-.15 2.377-.116 1.314-.217 1.276-.185 1.89.045.756.226 1.355.388 1.878.4 1.302.748 1.57.562 1.965-.15.318-.403.209-1.63.818-.735.361-1.367.724-1.367.724-.752.432-.876.556-1.102.51-.432-.089-.402-.633-.968-1.35-.21-.269-.712-.616-1.71-1.304-.772-.535-1.164-.805-1.548-1.02-.989-.562-.964-.372-2.005-.939-.811-.446-1.07-.692-1.49-.602-.372.079-.755.404-.77.76-.009.159.055.367.515.782.41.368.763.561 1.09.73.178.122.266.175.382.215.811.46.689.648 1.75 1.333 1.014.653 1.194.51 1.815 1.049.297.257.858.752 1.16 1.56.205.549.214 1.043.237 1.965.023.7-.045.84.034 1.38.056.367.123.857.4 1.356.432.768 1.077 1.069 1.038 1.124-.056.079-1.16-.619-2.73-1.414-1.35-.685-1.55-.678-2.04-1.113-.773-.68-.627-1-1.438-1.716-.859-.751-1.141-.502-1.85-1.223-.665-.678-.394-.878-1.194-1.733-.279-.3-.49-.463-.672-.626-.033-.067-.09-.101-.122-.15-.139-.138-.272-.27-.394-.51-.197-.397-.194-.62-.463-.806-.129-.09-.242-.079-.359-.09h-.006c-.234-.022-.469 0-.742-.168-.475-.294-.39-.848-.72-.916-.34-.067-.483.518-.95.551-.458.034-.573-.517-1.257-.741-.562-.182-1.286-.079-1.444.26-.022.045.011.09.011.139-.002.002-.01-.002-.01 0-.143.14.134.841.544 1.067.12.112.208.192.185.284-.022.1-.145.144-.77.318-.708.198-.854.217-.945.348-.162.241-.067.672.156.933.238.273.488.204 1.415.458.665.182.642.247 1.153.348a6.2 6.2 0 0 0 1.218.128c.692 0 .767-.126 1.107-.068.293.045.648.195 1.344 1.003.927 1.072.761 1.343 1.461 2.087.483.515.953.812 1.78 1.327.312.194.446.253.632.348.315.215.824.57 1.321.91.412.41.548.69 1.102 1.055.263.176.54.248 1.188.516 1.358.955 2.448 1.72 3.003 1.861.009.15-.005.3-.101.412-.348.416-1.442-.045-3.148-.603-.99-.325-1.998-.573-2.991-.881 0 0-2.527-.783-5.507-1.594-.78-.215-.207-.056-3.808-.985-3.02-.78-3.504-.907-4.458-.986a14.3 14.3 0 0 0-3.594.162c-1.088.183-2.062.561-4.017 1.305-2.074.787-2.646 1.161-3.026 1.814a3.1 3.1 0 0 0-.406 1.501c0 .602.185 1.077 1.333 2.858.034.056.045.068.078.123.138.287.277.509.4.713.068.241.264.579.506.928.534.761 1.467 1.699 1.86 1.547a5.5 5.5 0 0 0 1.34.637c1.093.341 1.714.189 2.312.51.045.034.101.057.15.102.491.47.426.851.841 1.658a5.46 5.46 0 0 0 1.85 2.052c.022.01.022.033.044.056.045.033.1.056.145.09.045.022.132.1.162.122.023.01.068.022.09.045.547.373 1.17.648 2.272 1.066 1.488.562 2.63.779 2.963.835 1.096.19 1.646.293 2.405.203 1.298-.15 2.457-.731 2.742-.882.93-.482 1.397-.945 1.733-.748.27.154.113.523.388 1.113.265.55.8 1.049 1.41 1.223.707.205 1.328-.09 2.092-.446.332-.155.682-.348 1.924-1.299 1.334-1.024 2.002-1.537 2.406-1.901.313-.285.792-.738 1.56-1.154.178-.1.942-.514 1.06-.359.101.123-.307.52-.881 1.34a16 16 0 0 0-1.014 1.663c-.456.835-.733 1.505-1.05 2.26-.268.65-.47 1.131-.66 1.717-.38 1.163-.302 1.471-.615 2.904-.55 2.532-.95 2.37-1.026 3.837-.034.586 0 1.204-.302 2.023-.202.547-.482.99-.66 1.27-.325.51-.567.894-.986 1.27-.48.43-.659.374-1.74 1.066-.95.61-1.03.793-1.055.928-.056.29.119.433.748 1.414.625.982.654 1.161.887 1.206.379.079.594-.316 1.062-.602.067-.023.144-.034.214-.056.117-.045.204-.101.313-.15.034-.01.056-.023.09-.034.538-.101.648.112 1.107-.068.352-.133.363-.29 1.032-.852l1.02-.777c.727-.554.837-.641.91-.846.154-.436-.167-.617-.012-1.009.205-.538.897-.455 1.008-.898.045-.194-.056-.335-.585-1.125-.491-.728-.734-1.098-.765-1.217-.045-.19-.09-.497.423-1.902.32-.866.405-.937.602-1.495.321-.89.248-1.103.533-2.278.27-1.112.434-1.792.858-2.592.586-1.111.92-1.03 1.264-2 .178-.506.056-.458.423-1.906.067-.265.226-.859.55-1.583.202-.451.305-.68.447-.77.51-.325 1.015.279 2.214.312.594.01 1.064-.112 1.52-.237.466-.127.802-.276 1.396-.557 1.12-.523 1.678-.787 2.47-1.235 1.028-.577 1.598-.903 2.33-1.472 1.266-.982 1.924-1.857 2.098-2.098.547-.749.821-1.128.904-1.734.068-.494-.033-.8.192-1.002.257-.243.678-.08 1.513.078.245.045.794.101 1.287.157.507.101 1.049.15 1.617.128.363.006.675.009 1.438.079.898.078 1.466.12 2.214.307.725.182.706.265 1.913.673.626.21.995.285 1.426.406.023.007.079.034.113.045.033.007.033 0 .067.006.274.067.617.209.915.261 1.088.191 1.387.12 1.832.29.128.056.27.147.406.22.429.313.535.611 1.212.939.112.122.197.24.423.353.192.1.533.131 1.339.174.57.204.742.312 1.072.318.056 0 .437-.132.597-.168q.354.004.66-.078h.011c.09-.023.173-.045.25-.08.54-.13.724-.31 1.582-.462.15-.023.24-.034.365-.056.286.129.529.274.87.185.367-.09.747-.447.783-.835.056-.614-.785-.882-.702-1.443.068-.42.558-.437.661-.952.067-.344-.067-.798-.353-.944-.297-.15-.595.112-1.525.562-.969.474-1.456.709-1.884.7-.748-.01-.89-.456-1.698-.41-.586.022-.608.263-1.142.341-.902.127-1.31-.494-2.782-1.072-.444-.174-.95-.284-1.96-.522a31 31 0 0 0-2.84-.521c-1.109-.156-1.103-.09-2.116-.244-1.516-.225-1.45-.344-2.348-.423-1.179-.115-1.383.079-2.863-.006-.792-.044-1.912-.12-1.948-.4-.023-.194.477-.396 1.652-.887a504 504 0 0 0 2.91-1.235c1.06-.467 1.816-.886 3.327-1.733 1.278-.713 1.655-.98 1.936-1.496.068-.127.62-1.178.198-2.092-.316-.685-.922-.72-.91-1.125.01-.495.921-.549 1.965-1.455.25-.218 1.015-.897 1.415-1.965.198-.53.181-.835.267-1.397.223-.384.409-1.02.66-2.278.034-.101.034-.09.068-.209.53-1.523.566-1.561.626-1.89.201-1.064.078-1.896.022-2.173-.034-.205-.117-.326-.168-.499-.007-.056.006-.15-.006-.203a2.6 2.6 0 0 0-.325-.794c-.007-.011-.01-.033-.022-.056-.533-1.226-.826-1.317-.98-1.797a3.8 3.8 0 0 1-.033-.91c.162-.527.551-1.004.667-2.185.033-.396.003-.887-.068-1.872-.09-1.239-.126-1.856-.26-2.33-.163-.568-.592-1.224-1.235-2.146-.067-.127-.1-.238-.174-.37-.51-.927-.783-1.398-1.356-1.636-.09-.033-.168-.008-.255-.033-.022-.006-.033-.034-.056-.034-.09-.022-.174.003-.26-.006-.137-.008-.283-.067-.412-.045zm-3.577 21.518c.1-.034.178-.034.232.01.158.128-.01.586-.776 2.296-.466 1.042-.64 1.365-.87 1.826-.27.234-.543.468-.8.725-2.172 2.165-1.915 3.32-3.379 3.953-.471.206-.902.258-1.293.343.262-.31.492-.583.888-1.09.53-.676.413-.572 1.327-1.78 1.14-1.506 1.192-1.5 1.623-2.144.42-.633.776-1.168 1.171-1.948.368-.736.559-1.268 1.148-1.75.045-.034.443-.355.73-.441zm-15.135 7.675c1.626-.15 2.858.502 3.559.875.42.222 1.738.918 1.623 1.483-.067.334-.63.49-1.223.638-.37.009-.6-.012-1.212.056-.762.09-1.297.17-1.75.254-.986.079-1.736.153-2.545.51-.598.267-.988.586-1.78 1.224-1.013.815-1.53 1.235-1.976 1.97-.598.982-.493 1.57-.94 1.682-.53.134-1.226-.577-1.547-1.142a2 2 0 0 1-.302-.84c-.045-.404.045-1.15 1.971-2.986.64-.609 1.255-1.19 2.284-1.89 1.662-1.127 2.52-1.718 3.837-1.837zm11.124 9.24c-.135.056-.113.333-.128 1.211-.011.543-.011.824-.056.997-.115.444-.354.69-.701 1.102-.91 1.068-.639.929-1.287 1.629-.353.384-.956.993-1.803 1.617-.684.503-1.21.791-1.977 1.206-1.234.669-1.855 1.004-2.527 1.142-.309.056-1.051.045-2.54 0-1.254-.034-1.877-.045-2.225-.112v-.006c-.946-.175-1.413-.435-1.646-.198-.15.153-.068.39.067 1.293-.034-.056-.217-.445-.227-.44-.022.01.101.245.255.649.067.454.138.953.156 1.472.022.816-.101.816-.09 1.71 0 .64.001 1.166.203 1.791.206.649.415.835.586 1.183.022.143.112.609.156.823-.012.416-.122.782-.113 1.513.009.448.18 1.042.528 2.238.372 1.266.556 1.904.794 2.47.36.877.582 1.175.574 1.773-.004.372-.1.613-.033 1.16.044.403.127.53.044.735-.166.384-.62.34-.695.66-.056.246.194.342.238.749.045.371-.154.457-.174.805-.045.705.704 1.283.65 1.34-.034.033-.23-.266-.458-.244-.254.022-.257.406-.685.904-.305.352-.448.329-.516.55-.112.381.163.949.562 1.079.244.079.437-.034.644-.15.162-.023.233-.09.342-.15a.74.74 0 0 1 .354-.023c.078.01.14.056.203.09.078.056.183.115.238.173.174.185.304.399.585.412.38.022.803-.344.922-.725.034-.1 0-.172-.006-.254l.006.006c.079.033.155.033.209 0 .204-.136.127-.779-.209-1.125.045-.157.101-.332.255-.492.3-.313.579-.176.765-.441.233-.326-.101-.653.115-1.021.218-.376.691-.227.83-.54.122-.284-.179-.578-.575-1.327-.308-.582-.193-.535-.545-1.275-.34-.72-.679-1.24-1.078-1.861-.473-.734-.546-.794-.725-1.073-.112-.324-.236-.618-.318-.962-.329-1.384-.056-1.684-.25-2.655.08-.1.163-.168.26-.185.258-.045.422.268.963.783.617.582 1.174.896 1.803 1.252.843.475 1.558.71 1.954.84.367.121.714.153 1.043.227.924.371 1.757.69 2.904.725a6.5 6.5 0 0 0 2.035-.267c1.085-.179 1.973-.492 2.411-.69.852-.393 1.465-.673 2.047-1.31.6-.658.83-1.346 1.292-2.72.09-.257.206-.774.295-1.112a7.3 7.3 0 0 0 .498-1.258c.246-.815.293-1.472.324-1.895.007-.125-.003-.215 0-.331.006-.045.045-.174.045-.214a10 10 0 0 0-.133-2.661c-.246-1.299-.687-2.164-.58-2.209.09-.045.356.63 1.096 1.34.614.581.83.5 1.42 1.026.554.494.459.655 1.345 1.89.53.734.932 1.181 1.397 1.698.456.64.77.984.997 1.096.01.007.115.01.128.022.147.112.274.192.377.232.479.186 1.01.205 1.472.227.669.034.677-.056 1.084.01.772.13.868.486 1.414.464.4-.022.891-.239 1.05-.615.165-.396-.183-.648-.011-1.008.197-.42.749-.262.991-.701.194-.345.101-.887-.214-1.148-.23-.19-.512-.187-.679-.18-.815.023-1.017.634-1.634.69-.407.034-.789-.271-1.537-.893-.044-.033-.044-.045-.09-.078-.118-.126-.15-.193-.312-.342-.079-.068-.116-.09-.18-.14-.349-.345-.666-.665-1.153-1.112-.816-.752-.848-.578-1.838-1.42-.703-.6-.929-.909-1.756-1.705-.207-.333-.404-.627-.882-.991a5.5 5.5 0 0 0-.777-.476c-.079-.067-.184-.171-.273-.238-.727-.545-1.034-.69-1.356-.887-.222-.176-.399-.293-.65-.522-.033-.033-.033-.044-.067-.078-.57-.591-.652-.973-1.472-1.687-.128-.112-.174-.112-.267-.18-1.006-1.145-2.38-2.675-2.986-2.376-.003 0-.003.01-.006.01-.176-.179-.368-.366-.492-.312zm-19.686 2.394c.218-.006.353.01.382.09.004.01-.022.033-.022.044-.488.179-1.023.52-1.815.835-.585.233-1.491.36-3.304.609-1.444.202-2.332.32-3.57.348-1.842.033-2.944.003-4.122-.29-.43-.279-.756-.556-.701-.736.09-.273.916-.124 2.8-.214.186-.008 1.05-.1 2.776-.267 3.107-.31 3.104-.32 3.681-.342 1.639-.056 1.579.09 2.992-.011.38-.023.685-.067.904-.067zm22.178 2.91c.265-.101 1.195 1.311 1.681 2.91.166.542.402 1.337.365 2.394-.045 1.254-.44 2.145-.875 3.118-.257.575-.715 1.579-1.64 2.667-.125.146-.296.315-.441.476-.38.304-.798.605-1.316.904-.824.474-1.758 1.016-3.084 1.194-1.14.153-1.98-.034-3.594-.406-.88-.199-1.426-.366-1.93-.591a14 14 0 0 1-.476-.284 12 12 0 0 1-1.136-1.009c-.24-.29-.471-.562-.824-1.078-.531-.78-.787-1.26-1.112-1.82-.01-.056-.101-.237-.09-.249.135-.09.71 1.155 2.075 1.606.982.323 1.898.078 2.388-.045.428-.115 1.395-.378 2.174-1.194.329-.345.601-.755 1.096-1.52.518-.798.55-.965.824-1.112.067-.033.127-.033.19-.045.183 0 .35.003.51-.006.337.079.707.24 1.282.18.423-.045 1.071-.466 2.365-1.305.91-.59 1.054-.743 1.177-.933.09-.138.327-.543.382-1.872.056-1.358-.152-1.92.006-1.977z" style="fill:#f68c11;fill-opacity:1;fill-rule:nonzero;stroke:none;stroke-width:3.95727"/>
    </g>
</svg>
